<?xml version="1.0" encoding="iso-8859-1"?>
<!-- Generator: Adobe Illustrator 16.0.0, SVG Export Plug-In . SVG Version: 6.00 Build 0)  -->
<!DOCTYPE svg PUBLIC "-//W3C//DTD SVG 1.1//EN" "http://www.w3.org/Graphics/SVG/1.1/DTD/svg11.dtd">
<svg version="1.1" id="Layer_1" xmlns="http://www.w3.org/2000/svg" xmlns:xlink="http://www.w3.org/1999/xlink" x="0px" y="0px"
	 width="1440px" height="960px" viewBox="0 0 1440 960" style="enable-background:new 0 0 1440 960;" xml:space="preserve">
<g>
	<path style="fill:#338491;" d="M1443.001,516.333c0,0-53.854-0.921-86.677,22.781c-32.822,23.706-12.768,25.53,1.822,25.53
		c14.589,0,10.94,25.528,10.94,25.528s1.822,20.057,5.471,30.997c3.648,10.942,9.118,16.412,7.294,25.531
		c-1.824,9.116-49.23-1.824-14.587,54.704c34.646,56.525,32.823,45.585,27.353,69.291s-12.766,51.058-12.766,51.058l-5.47,18.232
		l-1.824,10.941L1352,809l-21.206-10.951l7.294,29.176l-10.94,18.233c0,0-14.587-1.822-20.057,1.824l-47.412,12.765
		c0,0,21.884-32.822,3.648-27.352s-1.824-1.821-18.235,5.471c-16.412,7.292-10.941-7.299-16.412,7.292
		c-5.47,14.589,15.812,13.366,3.646,25.529c-14.587,14.587,10.941,9.12-3.646,16.412c-14.586,7.292-80.23,16.411-80.23,16.411
		l-34.647,1.821c0,0-14.802-57.632-71.802-25.632c0,0,0-51-32-62c-16.359-5.623-21.295-47.646-45-44
		c-16.594,2.553-39.662,53.827-55,55c-16.611,1.271-20.323,12.095-34,11c-21.5-1.721-47.422,47.146-70,49
		c-9.968,0.818-21.344,17.844-35.016,18.768c-21.021,1.42-30.792-10.352-66.984-9.768c-47-40-97.122-16.07-111.711-17.896
		C577.702,878.279,531,871,531,871s-65.414-10.176-80-12c-14.587-1.825-96.881-13.646-106-10c-9.12,3.646-73.64-19.95-79.111-18.129
		C260.418,832.693,243.47,790,238,790s-36.119-3.763-58,9c-21.882,12.763-16.225-6.422-19.874-11.893
		c-3.646-5.471,10.943-18.235-1.822-16.411s-27.352-34.646-47.412-34.646c-20.058,0-16.412-40.115-25.528-38.293
		c-9.116,1.824-32.822-20.055-23.705-32.823C70.778,652.171,125.882,550.646,73,547c-52.881-3.646-83,31-83,31
		s13.309,68.701,7.839,75.993c-5.471,7.295,0,311.813,0,311.813h1438.717L1443.001,516.333z"/>
	<path style="fill:#1D676D;" d="M-5.807,612.054C-26,558,63,568,63,568s-14.104,78.701-26.869,89.642
		c-12.764,10.94-7.293,12.763-12.764,21.882c-5.471,9.117-27.351,34.645,3.647,41.938c30.998,7.296,29.176,32.82,21.882,52.88
		c-7.295,20.061,3.646,71.116,3.646,71.116c9.118,18.234,9.252,25.788,18.235,27.352c41.939,7.294,49.233,23.706,49.233,23.706
		s-12.765-58.354,3.646-62c16.412-3.645,16.412-9.118,32.823-5.47c16.411,3.649,7.295-1.821,36.468-1.821
		c29.177,0,31.001,25.528,31.001,25.528s-23.703,20.059-10.941,29.177c12.763,9.115,1.824,5.47,16.412,16.41
		c14.586,10.941,41.938,1.822,41.938,1.822S278.178,883.116,280,874c1.821-9.116-35.765-24.176-23-26
		c12.766-1.825,57.708,15.176,65,17c7.292,1.825,20,3,20,3s34.354,15.291,38,8c3.646-7.293,71.882-10.485,66.412-3.19
		c-5.471,7.294,54.704,25.53,54.704,25.53l40.117,25.527c0,0,27.353,18.236,23.703,23.706c-3.646,5.471-20.057,23.703-30.998,20.058
		c-10.94-3.646-536.1-1.824-536.1-1.824L-5.807,612.054z"/>
	<path style="fill:#1D676D;" d="M78.072,759.755c-9.062,1.007-41.94,30.999-14.588,21.882c27.352-9.116,20.059,9.117,20.059,9.117
		s-20.059,16.41,1.823,16.41s29.176-3.648,38.292-5.47c9.117-1.821,16.412-18.232,3.646-18.232c-12.762,0-30.998,5.47-30.998,5.47
		S94.481,757.931,78.072,759.755z"/>
	<polygon style="fill:#1D676D;" points="45.249,710.521 45.249,723.287 61.661,721.462 	"/>
	<polygon style="fill:#1D676D;" points="78.072,836.34 67.131,850.928 83.542,850.928 	"/>
	<path style="fill:#1D676D;" d="M1084.625,927.514c-34.351,15.268-87.523,40.12-61.996,36.471c25.528-3.648,47.407-5.47,61.996-5.47
		c14.59,0,21.376,15.131,52.375,11.485c30.997-3.646,31.503,1.276,51.562-7.84c20.061-9.116,30.999-30.998,10.941-30.998
		s-63.819,3.646-63.819,3.646l-29.177,12.766C1106.508,947.573,1101.037,920.219,1084.625,927.514z"/>
	<path style="fill:#1D676D;" d="M1219.564,971.276c23.703-16.41,29.174-29.173,61.995-36.469
		c32.823-7.294,71.119-0.002,85.705-7.294c14.587-7.293-58.353-20.06-36.471-32.822c21.882-12.762,36.469-10.941,49.233-16.412
		c12.766-5.47,34.647-12.762,34.647-12.762s-16.411-12.765-5.471-23.706c10.94-10.94,3.646-27.35,9.116-36.469
		c5.471-9.118,9.119-5.47,7.295-18.235s1.822-7.292-1.824-30.998c-3.646-23.707-12.766-43.764-21.881-51.059
		c-9.117-7.294-25.531-29.177,5.47-43.763c31-14.587,16.411-49.234,16.411-60.175s0-10.94,0-10.94s0,25.527,0,0
		c0-25.528-71.112-10.944-40.115-30.998c30.999-20.061,49.234-25.53,54.704-27.353c5.472-1.824,7.292,437.633,7.292,437.633
		L1219.564,971.276z"/>
	<path style="fill:#1D676D;" d="M1252.387,880.104c0,0,58.348,3.646,51.056,16.412s32.821,27.352,32.821,27.352
		S1239.624,901.986,1252.387,880.104z"/>
	<path style="fill:#1D676D;" d="M1341.734,858.223c-21.881,3.646-21.879,14.589-7.292,12.765
		C1349.03,869.163,1341.734,858.223,1341.734,858.223z"/>
	<polygon style="fill:#1D676D;" points="1407.38,787.107 1403.734,808.989 1411.028,796.225 	"/>
	<polygon style="fill:#1D676D;" points="1396.439,599.289 1400.088,612.054 1416.499,599.289 1405.559,590.173 	"/>
	<path style="fill:#1D676D;" d="M973.396,969.455c-18.236-3.648-9.117-18.237-54.705-25.531
		c-45.587-7.291-54.707-7.291-74.764-3.645c-20.057,3.645,43.766-21.88,9.119-20.059c-34.646,1.822-54.704-3.648-67.47,1.822
		c-12.765,5.471-40.117,18.239-49.233,20.061c-9.116,1.82-20.057-3.646-25.528,0c-5.47,3.646-12.768,1.824-25.53,0
		s10.943-20.061-12.762-14.59c-23.706,5.47-71.115,1.824-71.115,7.294c0,5.472,12.762,18.236,3.646,21.883
		c-9.117,3.646-45.588,20.057-45.588,20.057L973.396,969.455z"/>
	<polygon style="fill:#1D676D;" points="579.526,900.162 583.172,916.572 594.113,907.456 	"/>
	<path style="fill:#1D676D;" d="M505,883c-15.733,6.743-21,3-6,7s18,17,39,18s22-4,23-7s8-13-7-14S512,880,505,883z"/>
	<path style="fill:#1D676D;" d="M971,928c-24-10-54-9-63-16s9-21,26-23s2-19,5-20s8-21,15-25s-9-30,11-39s22,24,38,36s33,5,34,27
		s-12,37-15,46S971,928,971,928z"/>
	<path style="fill:#1D676D;" d="M1077,888c-5.872,2.349-35,23-23,26s31-4,34-4S1087,884,1077,888z"/>
</g>
</svg>
