<?xml version="1.0" encoding="iso-8859-1"?>
<!-- Generator: Adobe Illustrator 16.0.0, SVG Export Plug-In . SVG Version: 6.00 Build 0)  -->
<!DOCTYPE svg PUBLIC "-//W3C//DTD SVG 1.1//EN" "http://www.w3.org/Graphics/SVG/1.1/DTD/svg11.dtd">
<svg version="1.1" xmlns="http://www.w3.org/2000/svg" xmlns:xlink="http://www.w3.org/1999/xlink" x="0px" y="0px" width="1440px"
	 height="960px" viewBox="0 0 1440 960" enable-background="new 0 0 1440 960" xml:space="preserve">
<g id="SEA">
	<linearGradient id="SVGID_1_" gradientUnits="userSpaceOnUse" x1="720.0195" y1="572.8291" x2="720.0195" y2="824.8539">
		<stop  offset="0" style="stop-color:#5BC0AC"/>
		<stop  offset="1" style="stop-color:#56A384"/>
	</linearGradient>
	<rect x="-1.692" y="-0.586" fill="url(#SVGID_1_)" width="1443.423" height="966.393"/>
	<path fill="#AEDBC3" d="M-22.219,588.352c92.997-30.999,525.162,38.292,736.683,72.938
		c211.522,34.645,723.008-102.115,747.623-136.76c24.613-34.646-7.295-34.646-7.295-34.646s-311.813,167.758-643.685,133.114
		c-331.87-34.646-568.925-209.7-827.856-175.053C-275.681,482.589-22.219,588.352-22.219,588.352z"/>
	<path fill="#AEDBC3" d="M-7.63,743.347c123.996-47.412,368.34-89.352,532.453-12.765c164.112,76.585,514.219,92.996,640.038,71.115
		c125.819-21.882,266.228-71.115,266.228-71.115V575.586c0,0-433.988,173.231-610.863,151.35S118.188,626.639,23.368,679.523
		C-71.452,732.406-7.63,743.347-7.63,743.347z"/>
</g>
<g id="CORAL__x2F__ROCKS">
	<path fill="#338491" d="M1443.001,516.333c0,0-53.854-0.921-86.677,22.781c-32.822,23.706-12.768,25.53,1.822,25.53
		c14.589,0,10.94,25.528,10.94,25.528s1.822,20.057,5.471,30.997c3.648,10.942,9.118,16.412,7.294,25.531
		c-1.824,9.116-49.23-1.824-14.587,54.704c34.646,56.525,32.823,45.585,27.353,69.291s-12.766,51.058-12.766,51.058l-5.47,18.232
		l-1.824,10.941L1352,809l-21.206-10.951l7.294,29.176l-10.94,18.233c0,0-14.587-1.822-20.057,1.824l-47.412,12.765
		c0,0,21.884-32.822,3.648-27.352s-1.824-1.821-18.235,5.471c-16.412,7.292-10.941-7.299-16.412,7.292
		c-5.47,14.589,15.812,13.366,3.646,25.529c-14.587,14.587,10.941,9.12-3.646,16.412c-14.586,7.292-80.23,16.411-80.23,16.411
		l-34.647,1.821c0,0-14.802-57.632-71.802-25.632c0,0,0-51-32-62c-16.359-5.623-21.295-47.646-45-44
		c-16.594,2.553-39.662,53.827-55,55c-16.611,1.271-20.323,12.095-34,11c-21.5-1.721-47.422,47.146-70,49
		c-9.968,0.818-21.344,17.844-35.016,18.768c-21.021,1.42-30.792-10.352-66.984-9.768c-47-40-97.122-16.07-111.711-17.896
		C577.702,878.279,531,871,531,871s-65.414-10.176-80-12c-14.587-1.825-96.881-13.646-106-10c-9.12,3.646-73.64-19.95-79.111-18.129
		C260.418,832.693,243.47,790,238,790s-36.119-3.763-58,9c-21.882,12.763-16.225-6.422-19.874-11.893
		c-3.646-5.471,10.943-18.235-1.822-16.411s-27.352-34.646-47.412-34.646c-20.058,0-16.412-40.115-25.528-38.293
		c-9.116,1.824-32.822-20.055-23.705-32.823C70.778,652.171,125.882,550.646,73,547c-52.881-3.646-83,31-83,31
		s13.309,68.701,7.839,75.993c-5.471,7.295,0,311.813,0,311.813h1438.717L1443.001,516.333z"/>
	<path fill="#1D676D" d="M-5.807,612.054C-26,558,63,568,63,568s-14.104,78.701-26.869,89.642
		c-12.764,10.94-7.293,12.763-12.764,21.882c-5.471,9.117-27.351,34.645,3.647,41.938c30.998,7.296,29.176,32.82,21.882,52.88
		c-7.295,20.061,3.646,71.116,3.646,71.116c9.118,18.234,9.252,25.788,18.235,27.352c41.939,7.294,49.233,23.706,49.233,23.706
		s-12.765-58.354,3.646-62c16.412-3.645,16.412-9.118,32.823-5.47c16.411,3.649,7.295-1.821,36.468-1.821
		c29.177,0,31.001,25.528,31.001,25.528s-23.703,20.059-10.941,29.177c12.763,9.115,1.824,5.47,16.412,16.41
		c14.586,10.941,41.938,1.822,41.938,1.822S278.178,883.116,280,874c1.821-9.116-35.765-24.176-23-26
		c12.766-1.825,57.708,15.176,65,17c7.292,1.825,20,3,20,3s34.354,15.291,38,8c3.646-7.293,71.882-10.485,66.412-3.19
		c-5.471,7.294,54.704,25.53,54.704,25.53l40.117,25.527c0,0,27.353,18.236,23.703,23.706c-3.646,5.471-20.057,23.703-30.998,20.058
		c-10.94-3.646-536.1-1.824-536.1-1.824L-5.807,612.054z"/>
	<path fill="#1D676D" d="M78.072,759.755c-9.062,1.007-41.94,30.999-14.588,21.882c27.352-9.116,20.059,9.117,20.059,9.117
		s-20.059,16.41,1.823,16.41s29.176-3.648,38.292-5.47c9.117-1.821,16.412-18.232,3.646-18.232c-12.762,0-30.998,5.47-30.998,5.47
		S94.481,757.931,78.072,759.755z"/>
	<polygon fill="#1D676D" points="45.249,710.521 45.249,723.287 61.661,721.462 	"/>
	<polygon fill="#1D676D" points="78.072,836.34 67.131,850.928 83.542,850.928 	"/>
	<path fill="#1D676D" d="M1084.625,927.514c-34.351,15.268-87.523,40.12-61.996,36.471c25.528-3.648,47.407-5.47,61.996-5.47
		c14.59,0,21.376,15.131,52.375,11.485c30.997-3.646,31.503,1.276,51.562-7.84c20.061-9.116,30.999-30.998,10.941-30.998
		s-63.819,3.646-63.819,3.646l-29.177,12.766C1106.508,947.573,1101.037,920.219,1084.625,927.514z"/>
	<path fill="#1D676D" d="M1219.564,971.276c23.703-16.41,29.174-29.173,61.995-36.469c32.823-7.294,71.119-0.002,85.705-7.294
		c14.587-7.293-58.353-20.06-36.471-32.822c21.882-12.762,36.469-10.941,49.233-16.412c12.766-5.47,34.647-12.762,34.647-12.762
		s-16.411-12.765-5.471-23.706c10.94-10.94,3.646-27.35,9.116-36.469c5.471-9.118,9.119-5.47,7.295-18.235s1.822-7.292-1.824-30.998
		c-3.646-23.707-12.766-43.764-21.881-51.059c-9.117-7.294-25.531-29.177,5.47-43.763c31-14.587,16.411-49.234,16.411-60.175
		s0-10.94,0-10.94s0,25.527,0,0c0-25.528-71.112-10.944-40.115-30.998c30.999-20.061,49.234-25.53,54.704-27.353
		c5.472-1.824,7.292,437.633,7.292,437.633L1219.564,971.276z"/>
	<path fill="#1D676D" d="M1252.387,880.104c0,0,58.348,3.646,51.056,16.412s32.821,27.352,32.821,27.352
		S1239.624,901.986,1252.387,880.104z"/>
	<path fill="#1D676D" d="M1341.734,858.223c-21.881,3.646-21.879,14.589-7.292,12.765
		C1349.03,869.163,1341.734,858.223,1341.734,858.223z"/>
	<polygon fill="#1D676D" points="1407.38,787.107 1403.734,808.989 1411.028,796.225 	"/>
	<polygon fill="#1D676D" points="1396.439,599.289 1400.088,612.054 1416.499,599.289 1405.559,590.173 	"/>
	<path fill="#1D676D" d="M973.396,969.455c-18.236-3.648-9.117-18.237-54.705-25.531c-45.587-7.291-54.707-7.291-74.764-3.645
		c-20.057,3.645,43.766-21.88,9.119-20.059c-34.646,1.822-54.704-3.648-67.47,1.822c-12.765,5.471-40.117,18.239-49.233,20.061
		c-9.116,1.82-20.057-3.646-25.528,0c-5.47,3.646-12.768,1.824-25.53,0s10.943-20.061-12.762-14.59
		c-23.706,5.47-71.115,1.824-71.115,7.294c0,5.472,12.762,18.236,3.646,21.883c-9.117,3.646-45.588,20.057-45.588,20.057
		L973.396,969.455z"/>
	<polygon fill="#1D676D" points="579.526,900.162 583.172,916.572 594.113,907.456 	"/>
	<path fill="#1D676D" d="M505,883c-15.733,6.743-21,3-6,7s18,17,39,18s22-4,23-7s8-13-7-14S512,880,505,883z"/>
	<path fill="#1D676D" d="M971,928c-24-10-54-9-63-16s9-21,26-23s2-19,5-20s8-21,15-25s-9-30,11-39s22,24,38,36s33,5,34,27
		s-12,37-15,46S971,928,971,928z"/>
	<path fill="#1D676D" d="M1077,888c-5.872,2.349-35,23-23,26s31-4,34-4S1087,884,1077,888z"/>
</g>
<g id="PABLO">
	<g>
		<path fill="#107139" d="M627.369,411.188c-20.905,11.749-41.358,20.142-41.358,20.142s20.248-8.047,44.271-13.305
			C630.281,418.025,633.579,413.245,627.369,411.188z"/>
		<path fill="#107139" d="M637.663,430.899c-18.319,15.475-36.829,27.564-36.829,27.564s18.372-11.712,40.976-21.399
			C641.81,437.064,644.149,431.751,637.663,430.899z"/>
		<path fill="#107139" d="M778.672,437.109c22.238,8.97,41.576,19.686,41.576,19.686s-18.939-10.773-38.062-26.234
			C782.186,430.561,776.393,430.974,778.672,437.109z"/>
		<path fill="#107139" d="M782.844,419.655c23.795,2.968,45.236,8.373,45.236,8.373s-21.07-5.562-43.518-15.604
			C784.562,412.424,779.07,414.309,782.844,419.655z"/>
		<path fill="#B27F3E" d="M654.608,458.123c-10.72,21.453-15.622,27.988-15.622,27.988s4.927-6.14,21.863-23.958
			C660.849,462.153,660.906,456.349,654.608,458.123z"/>
		<path fill="#B27F3E" d="M682.754,472.308c-0.27,23.977-1.824,31.997-1.824,31.997s1.75-7.673,9.198-31.102
			C690.128,473.203,687.641,467.958,682.754,472.308z"/>
		<path fill="#B27F3E" d="M722.668,476.678c8.857,22.285,10.465,30.293,10.465,30.293s-1.295-7.766-3.303-32.266
			C729.83,474.705,725.537,470.798,722.668,476.678z"/>
		<path fill="#B27F3E" d="M764.002,463.872c15.957,17.897,20.215,24.87,20.215,24.87s-3.877-6.847-14.162-29.177
			C770.055,459.565,764.68,457.365,764.002,463.872z"/>
		<path fill="#107139" d="M760.648,322.503c8.879-22.277,19.822-41.641,19.822-41.641s-11.002,18.969-26.383,38.151
			C754.088,319.013,754.525,324.803,760.648,322.503z"/>
		<path fill="#107139" d="M777.344,331.035c12.752-20.311,27.008-37.385,27.008-37.385s-14.244,16.674-32.83,32.768
			C771.521,326.418,770.908,332.193,777.344,331.035z"/>
		<path fill="#107139" d="M781.137,344.869c16.131-17.745,33.176-32.037,33.176-32.037s-16.961,13.901-38.096,26.464
			C776.217,339.296,774.594,344.873,781.137,344.869z"/>
		<path fill="#107139" d="M784.844,358.109c20.057-13.149,40.133-22.725,40.133-22.725s-19.896,9.219-43.502,16.1
			C781.475,351.484,778.508,356.478,784.844,358.109z"/>
		<path fill="#107139" d="M664.028,314.698c-14.998-18.715-25.523-37.867-25.523-37.867s10.155,19.006,19.25,41.851
			C657.755,318.682,663.006,321.161,664.028,314.698z"/>
		<path fill="#107139" d="M651.104,328.329c-19.196-14.375-34.176-30.289-34.176-30.289s14.582,15.864,29.098,35.714
			C646.026,333.754,651.731,334.841,651.104,328.329z"/>
		<path fill="#107139" d="M642.482,345.552c-20.98-11.617-37.992-25.336-37.992-25.336s16.61,13.724,33.703,31.404
			C638.193,351.62,643.992,351.918,642.482,345.552z"/>
		<path fill="#107139" d="M636.095,356.861c-22.94-6.991-42.437-16.865-42.437-16.865s19.106,9.961,39.506,23.693
			C633.164,363.689,638.898,362.773,636.095,356.861z"/>
		<path fill="#009444" d="M736.059,308.042c3.293-23.756,12.574-57.776,12.574-57.776s-9.434,33.65-19.779,55.957
			C728.854,306.223,730.66,311.74,736.059,308.042z"/>
		<path fill="#107139" d="M726.172,319.415c-1.029-23.959,1.988-59.094,1.988-59.094s-3.232,34.798-9.401,58.6
			C718.759,318.921,721.525,324.023,726.172,319.415z"/>
		<path fill="#009444" d="M692.366,302.947c-6.315-23.136-11.16-58.066-11.16-58.066s4.559,34.651,3.819,59.227
			C685.026,304.108,688.858,308.471,692.366,302.947z"/>
		<path fill="#107139" d="M702.103,316.496c-3.232-23.763-3.465-59.028-3.465-59.028s-0.012,34.95-3.962,59.218
			C694.675,316.687,697.902,321.512,702.103,316.496z"/>
		<radialGradient id="SVGID_2_" cx="600.5039" cy="381.5063" r="52.3264" gradientUnits="userSpaceOnUse">
			<stop  offset="8.370500e-04" style="stop-color:#AEC99D"/>
			<stop  offset="0.4059" style="stop-color:#31B457"/>
			<stop  offset="0.9702" style="stop-color:#008042"/>
		</radialGradient>
		<path fill="url(#SVGID_2_)" d="M620.988,405.156c-8.598,6.447-27.163-1.198-33.155-15.58
			c-8.698-20.871,4.793-28.762,11.983-29.561c7.19-0.799,17.576,16.778,17.576,16.778S630.575,397.965,620.988,405.156z"/>
		<path fill="none" stroke="#006028" stroke-width="1.5978" stroke-miterlimit="10" d="M599.817,369.203
			c0,0,0.799,16.778,18.375,21.571"/>
		<path fill="none" stroke="#006028" stroke-width="1.5978" stroke-miterlimit="10" d="M593.026,378.792
			c0,0,2.397,19.573,23.568,20.771"/>
		
			<radialGradient id="SVGID_3_" cx="615.0693" cy="381.5063" r="52.3259" gradientTransform="matrix(-1 0 0 1 1434.1689 0)" gradientUnits="userSpaceOnUse">
			<stop  offset="8.370500e-04" style="stop-color:#AEC99D"/>
			<stop  offset="0.4059" style="stop-color:#31B457"/>
			<stop  offset="0.9702" style="stop-color:#008042"/>
		</radialGradient>
		<path fill="url(#SVGID_3_)" d="M798.615,405.156c8.598,6.447,27.164-1.198,33.154-15.58c8.699-20.871-4.793-28.762-11.982-29.561
			c-7.191-0.799-17.576,16.778-17.576,16.778S789.029,397.965,798.615,405.156z"/>
		<path fill="none" stroke="#006028" stroke-width="1.5978" stroke-miterlimit="10" d="M819.787,369.203
			c0,0-0.799,16.778-18.375,21.571"/>
		<path fill="none" stroke="#006028" stroke-width="1.5978" stroke-miterlimit="10" d="M826.578,378.792
			c0,0-2.398,19.573-23.568,20.771"/>
		<radialGradient id="SVGID_4_" cx="682.1606" cy="311.3965" r="155.8537" gradientUnits="userSpaceOnUse">
			<stop  offset="8.370500e-04" style="stop-color:#AEC99D"/>
			<stop  offset="0.4059" style="stop-color:#31B457"/>
			<stop  offset="0.7261" style="stop-color:#008544"/>
			<stop  offset="1" style="stop-color:#006A30"/>
		</radialGradient>
		<circle fill="url(#SVGID_4_)" cx="710.199" cy="385.714" r="100.929"/>
		
			<radialGradient id="SVGID_5_" cx="653.1475" cy="349.6069" r="43.1718" gradientTransform="matrix(1 0 0 0.8718 0 59.4624)" gradientUnits="userSpaceOnUse">
			<stop  offset="8.370500e-04" style="stop-color:#AEC99D"/>
			<stop  offset="0.4059" style="stop-color:#31B457"/>
			<stop  offset="0.7261" style="stop-color:#008544"/>
			<stop  offset="1" style="stop-color:#006A30"/>
		</radialGradient>
		<ellipse fill="url(#SVGID_5_)" cx="662.171" cy="374.822" rx="25.339" ry="29.453"/>
		
			<radialGradient id="SVGID_6_" cx="651.1504" cy="346.8574" r="57.7045" gradientTransform="matrix(1 0 0 0.8718 0 59.4624)" gradientUnits="userSpaceOnUse">
			<stop  offset="0" style="stop-color:#FFFFFF"/>
			<stop  offset="1" style="stop-color:#E6E7E8"/>
		</radialGradient>
		<ellipse fill="url(#SVGID_6_)" cx="660.174" cy="372.426" rx="25.339" ry="29.452"/>
		<path d="M672.25,370.603c0,10.037-5.633,18.175-12.583,18.175c-6.946,0-12.583-8.138-12.583-18.175
			c0-10.039,5.636-18.176,12.583-18.176C666.617,352.427,672.25,360.563,672.25,370.603z"/>
		<ellipse fill="#FFFFFF" cx="655.607" cy="363.611" rx="3.134" ry="4.527"/>
		
			<radialGradient id="SVGID_7_" cx="751.6787" cy="349.6069" r="43.1718" gradientTransform="matrix(1 0 0 0.8718 0 59.4624)" gradientUnits="userSpaceOnUse">
			<stop  offset="8.370500e-04" style="stop-color:#AEC99D"/>
			<stop  offset="0.4059" style="stop-color:#31B457"/>
			<stop  offset="0.7261" style="stop-color:#008544"/>
			<stop  offset="1" style="stop-color:#006A30"/>
		</radialGradient>
		<path fill="url(#SVGID_7_)" d="M786.041,374.822c0,16.269-11.344,29.453-25.336,29.453c-13.998,0-25.342-13.185-25.342-29.453
			c0-16.266,11.344-29.453,25.342-29.453C774.697,345.369,786.041,358.557,786.041,374.822z"/>
		
			<radialGradient id="SVGID_8_" cx="749.6826" cy="346.8574" r="57.7042" gradientTransform="matrix(1 0 0 0.8718 0 59.4624)" gradientUnits="userSpaceOnUse">
			<stop  offset="0" style="stop-color:#FFFFFF"/>
			<stop  offset="1" style="stop-color:#E6E7E8"/>
		</radialGradient>
		<ellipse fill="url(#SVGID_8_)" cx="758.706" cy="372.426" rx="25.339" ry="29.452"/>
		<ellipse cx="758.2" cy="370.603" rx="12.583" ry="18.175"/>
		<ellipse fill="#FFFFFF" cx="754.14" cy="363.611" rx="3.136" ry="4.527"/>
		<path fill="#A13422" d="M734.701,419.271l-0.799-6.126l-24.767-4.794l-22.104,5.059c0,0-4.26,5.327-3.196,5.327
			c1.065,0,26.365,10.121,26.365,10.121L734.701,419.271z"/>
		<path fill="#F9ED32" d="M681.44,412.346c-1.169,2.802,2.927,4.263,8.254,3.196c5.327-1.065,11.452-4.795,24.501-3.729
			c13.049,1.067,17.309,6.659,23.434,4.262c6.127-2.396-4.793-11.983-24.499-11.983S682.771,409.149,681.44,412.346z"/>
		<path fill="#F9ED32" d="M685.168,415.542c3.169,0.414,11.717,8.257,25.832,7.458c14.111-0.799,15.18-5.593,23.434-7.189
			c8.254-1.599,4.385,5.364-0.799,8.788c-13.316,8.787-36.217,7.724-46.072,1.063C677.71,419.006,679.043,414.743,685.168,415.542z"
			/>
		<path fill="#F1B937" d="M683.836,415.275c1.019,0.918,3.762,1.53,8.555-0.334c4.793-1.861,27.525-2.867,34.854,0
			c6.891,2.697,9.82,1.699,10.086,0.101c0.266-1.598-10.352-5.893-28.727-5.626C690.229,409.684,682.804,414.344,683.836,415.275z"
			/>
		<path fill="#F1B937" d="M685.101,414.443c0,0-1.997,0.898-1.498,1.697s12.284,4.594,12.284,4.594s-7.89-3.396-7.79-4.894
			C688.196,414.344,685.101,414.443,685.101,414.443z"/>
		<path fill="#F1B937" d="M732.236,415.542c0,0-6.391,4.294-10.584,5.492C727.043,420.534,739.127,416.641,732.236,415.542z"/>
		<path fill="#F1B937" d="M681.606,420.634c0,0,12.889,10.374,28.76,9.389c22.47-1.398,28.562-11.285,28.562-11.285
			s-4.793,13.781-28.162,13.781C687.397,432.519,681.606,420.634,681.606,420.634z"/>
		<path fill="#D8E040" d="M710.466,433.717c57.922-0.998,49.534,29.491,70.016,24.929c-14.93,14.759-37.689,27.999-68.818,27.999
			c-32.206,0-53.879-10.923-67.751-23.162C663.596,460.012,652.545,434.715,710.466,433.717z"/>
		<path fill="#107139" d="M610.602,398.365c0,0,3.595,37.549,26.764,55.524c11.584,0.399,17.976-5.992,17.976-5.992
			S625.382,441.906,610.602,398.365z"/>
		<path fill="#107139" d="M774.379,446.698c0,0,18.375-11.184,35.553-48.333c-1.598,19.174-11.584,43.541-25.965,55.125
			C769.986,453.49,774.379,446.698,774.379,446.698z"/>
		<radialGradient id="SVGID_9_" cx="711.8188" cy="458.1704" r="49.6393" gradientUnits="userSpaceOnUse">
			<stop  offset="0" style="stop-color:#DCCE80"/>
			<stop  offset="1" style="stop-color:#D7B928"/>
		</radialGradient>
		<path fill="url(#SVGID_9_)" d="M710.466,433.717c57.922-0.998,53.264,27.894,67.147,26.785
			c-14.797,12.402-36.414,22.147-65.55,22.147c-30.721,0-52-8.519-66.039-18.911C656.674,462.143,652.545,434.715,710.466,433.717z"
			/>
		<path fill="#009444" d="M640.799,335.512c-19.23-14.33-41.529-40.15-41.529-40.15s21.903,25.773,36.464,45.588
			C635.733,340.95,641.438,342.023,640.799,335.512z"/>
		<path fill="#009444" d="M650.003,311.652c-17.901-15.959-31.466-33.094-31.466-33.094s13.174,17.054,25.944,38.067
			C644.481,316.625,650.072,318.195,650.003,311.652z"/>
		<path fill="#009444" d="M621.883,339.88c-21.189-11.233-38.449-24.64-38.449-24.64s16.86,13.422,34.27,30.785
			C617.705,346.024,623.509,346.216,621.883,339.88z"/>
		<path fill="#009444" d="M619.721,356.783c-23.311-5.628-44.004-13.41-44.004-13.41s20.31,7.895,41.482,20.4
			C617.199,363.773,622.87,362.52,619.721,356.783z"/>
		<path fill="#009444" d="M621.441,425.747c-20.288,12.782-40.296,22.19-40.296,22.19s19.82-9.053,43.547-15.51
			C624.692,432.428,627.748,427.487,621.441,425.747z"/>
		<path fill="#009444" d="M611.563,406.092c-22.672,7.808-44.3,12.393-44.3,12.393s21.365-4.282,45.939-5.144
			C613.202,413.341,617.305,409.232,611.563,406.092z"/>
		<path fill="#009444" d="M638.542,443.532c-16.996,16.916-34.456,30.478-34.456,30.478s17.354-13.174,39.092-24.671
			C643.179,449.339,645.077,443.85,638.542,443.532z"/>
		<path fill="#009444" d="M796.973,424.68c20.289,12.786,40.297,22.191,40.297,22.191s-19.82-9.054-43.549-15.511
			C793.721,431.36,790.666,426.424,796.973,424.68z"/>
		<path fill="#009444" d="M807.916,406.092c22.674,7.808,44.301,12.393,44.301,12.393s-21.363-4.282-45.939-5.144
			C806.277,413.341,802.176,409.232,807.916,406.092z"/>
		<path fill="#009444" d="M783.6,442.997c16.998,16.919,34.459,30.478,34.459,30.478s-17.357-13.172-39.096-24.67
			C778.963,448.805,777.066,443.315,783.6,442.997z"/>
		<path fill="#009444" d="M798.656,359.617c21.252-11.11,41.953-18.876,41.953-18.876s-20.486,7.429-44.656,11.955
			C795.953,352.696,792.512,357.373,798.656,359.617z"/>
		<path fill="#009444" d="M714.871,316.054c-3.608-23.708-2.807-56.302-2.807-56.302s-1.053,32.283-4.617,56.611
			C707.447,316.363,710.75,321.138,714.871,316.054z"/>
		<path fill="#009444" d="M714.339,291.021c-3.611-23.708-4.404-58.965-4.404-58.965s0.544,34.946-3.02,59.274
			C706.915,291.33,710.218,296.105,714.339,291.021z"/>
		<path fill="#009444" d="M675.314,299.699c-9.065-22.202-18.102-56.289-18.102-56.289s8.719,33.845,10.957,58.33
			C668.169,301.739,672.499,305.606,675.314,299.699z"/>
		<path fill="#009444" d="M752.492,303.94c5.188-23.414,17.17-56.582,17.17-56.582s-12.104,32.787-24.205,54.191
			C745.457,301.549,746.816,307.193,752.492,303.94z"/>
		<path fill="#009444" d="M781.607,337.151c13.895-19.547,39.205-42.42,39.205-42.42s-25.273,22.478-44.754,37.479
			C776.059,332.209,775.111,337.938,781.607,337.151z"/>
		<path fill="#009444" d="M778.002,316.457c10.873-21.375,23.541-39.66,23.541-39.66s-12.689,17.886-29.756,35.586
			C771.787,312.383,771.691,318.189,778.002,316.457z"/>
		<path fill="#009444" d="M798.047,342.094c16.275-17.615,33.436-31.768,33.436-31.768s-17.072,13.764-38.307,26.156
			C793.176,336.482,791.506,342.046,798.047,342.094z"/>
		<path fill="#009444" d="M751.773,322.963c6.193-23.168,21.926-53.439,21.926-53.439s-15.838,29.888-28.855,50.747
			C744.844,320.271,745.959,325.969,751.773,322.963z"/>
		<path fill="#009444" d="M677.002,318.861c-13.778-19.63-26.876-51.132-26.876-51.132s12.736,31.335,20.362,54.71
			C670.488,322.439,675.571,325.247,677.002,318.861z"/>
		<path fill="#D4A94E" d="M703.79,459.484c4.907,23.475,3.481,47.398,3.481,47.398s1.695-23.628,3.914-48.112
			C711.185,458.771,707.624,454.183,703.79,459.484z"/>
		<path fill="#D4A94E" d="M703.79,478.658c4.907,23.475,3.481,47.398,3.481,47.398s1.695-23.628,3.914-48.112
			C711.185,477.944,707.624,473.356,703.79,478.658z"/>
		<path fill="#D4A94E" d="M669.026,455.554c-8.704,22.343-22.473,41.208-22.473,41.208s13.831-18.471,29.057-37.772
			C675.61,458.989,675.133,453.203,669.026,455.554z"/>
		<path fill="#D4A94E" d="M742.912,458.951c14.885,18.806,24.014,35.683,24.014,35.683s-8.762-16.733-17.719-39.627
			C749.207,455.007,743.973,452.494,742.912,458.951z"/>
		<path fill="#D4A94E" d="M740.504,476.162c13.129,20.069,16.303,27.594,16.303,27.594s-2.818-7.35-9.676-30.954
			C747.131,472.802,742.143,469.826,740.504,476.162z"/>
		<path fill="#D4A94E" d="M669.189,469.803c-7.67,22.719-11.628,29.865-11.628,29.865s4.037-6.757,18.364-26.732
			C675.926,472.936,675.183,467.174,669.189,469.803z"/>
		<ellipse fill="#107139" cx="691.292" cy="307.422" rx="4.261" ry="3.461"/>
		<ellipse fill="#107139" cx="732.038" cy="314.346" rx="6.657" ry="4.527"/>
		<ellipse fill="#107139" cx="767.189" cy="327.927" rx="1.863" ry="1.066"/>
		<ellipse fill="#107139" cx="732.571" cy="297.302" rx="3.995" ry="2.397"/>
		<ellipse fill="#107139" cx="651.08" cy="324.465" rx="2.929" ry="2.396"/>
		<ellipse fill="#107139" cx="628.977" cy="351.096" rx="3.196" ry="1.865"/>
		<ellipse fill="#107139" cx="616.262" cy="375.528" rx="1.131" ry="1.266"/>
		<ellipse fill="#107139" cx="803.407" cy="368.672" rx="1.864" ry="2.396"/>
		<ellipse fill="#107139" cx="788.493" cy="343.106" rx="1.864" ry="1.332"/>
	</g>
</g>
<g id="CHRIS">
	<g>
		<radialGradient id="SVGID_10_" cx="647.4321" cy="867.3975" r="24.8451" gradientUnits="userSpaceOnUse">
			<stop  offset="8.370500e-04" style="stop-color:#EFBAAD"/>
			<stop  offset="0.4059" style="stop-color:#CA5E64"/>
			<stop  offset="0.7261" style="stop-color:#D04421"/>
			<stop  offset="1" style="stop-color:#A22D10"/>
		</radialGradient>
		<path fill="url(#SVGID_10_)" d="M663,856.5c0,0-11,2.5-25.5,8.5c-2.5,9-0.5,25.5-0.5,25.5l5.5-21.5l28.5-7L663,856.5z"/>
		<radialGradient id="SVGID_11_" cx="664.5698" cy="876.1221" r="29.7261" gradientUnits="userSpaceOnUse">
			<stop  offset="8.370500e-04" style="stop-color:#EFBAAD"/>
			<stop  offset="0.4059" style="stop-color:#CA5E64"/>
			<stop  offset="0.7261" style="stop-color:#D04421"/>
			<stop  offset="1" style="stop-color:#A22D10"/>
		</radialGradient>
		<path fill="url(#SVGID_11_)" d="M681,862.5l-29,12c0,0-2.5,13.5,9.5,30.5c-5.5-17.5-2.5-28-2.5-28l32.5-11L681,862.5z"/>
		<radialGradient id="SVGID_12_" cx="681.5898" cy="881.2246" r="30.4642" gradientUnits="userSpaceOnUse">
			<stop  offset="8.370500e-04" style="stop-color:#EFBAAD"/>
			<stop  offset="0.4059" style="stop-color:#CA5E64"/>
			<stop  offset="0.7261" style="stop-color:#D04421"/>
			<stop  offset="1" style="stop-color:#A22D10"/>
		</radialGradient>
		<path fill="url(#SVGID_12_)" d="M699,866l-29,17c0,0,2.5,17,17.5,30.5c-10.5-14.5-7-29.5-7-29.5l25.5-13L699,866z"/>
		<radialGradient id="SVGID_13_" cx="804.6309" cy="870.9229" r="33.2488" gradientUnits="userSpaceOnUse">
			<stop  offset="8.370500e-04" style="stop-color:#EFBAAD"/>
			<stop  offset="0.4059" style="stop-color:#CA5E64"/>
			<stop  offset="0.7261" style="stop-color:#D04421"/>
			<stop  offset="1" style="stop-color:#A22D10"/>
		</radialGradient>
		<path fill="url(#SVGID_13_)" d="M789.5,859.5c1.5-0.5,40,14,40,14l-1,28c0,0,6.5-16.5,8-31.5c-11-5-36.5-13.5-36.5-13.5
			L789.5,859.5z"/>
		<radialGradient id="SVGID_14_" cx="825.6309" cy="860.1416" r="30.1151" gradientUnits="userSpaceOnUse">
			<stop  offset="8.370500e-04" style="stop-color:#EFBAAD"/>
			<stop  offset="0.4059" style="stop-color:#CA5E64"/>
			<stop  offset="0.7261" style="stop-color:#D04421"/>
			<stop  offset="1" style="stop-color:#A22D10"/>
		</radialGradient>
		<path fill="url(#SVGID_14_)" d="M812,851.5l36,10.5c0,0,4,7,2,26c7.5-13.5,3-31.5,3-31.5l-34-9.5L812,851.5z"/>
		<radialGradient id="SVGID_15_" cx="837.3721" cy="848.127" r="27.7074" gradientUnits="userSpaceOnUse">
			<stop  offset="8.370500e-04" style="stop-color:#EFBAAD"/>
			<stop  offset="0.4059" style="stop-color:#CA5E64"/>
			<stop  offset="0.7261" style="stop-color:#D04421"/>
			<stop  offset="1" style="stop-color:#A22D10"/>
		</radialGradient>
		<path fill="url(#SVGID_15_)" d="M826,842l33.5,3l3.5,28l1.5-32.5c0,0-17-3-31-4S826,842,826,842z"/>
		<radialGradient id="SVGID_16_" cx="710.2642" cy="813.2803" r="107.3765" gradientUnits="userSpaceOnUse">
			<stop  offset="8.370500e-04" style="stop-color:#EFBAAD"/>
			<stop  offset="0.4059" style="stop-color:#CB8F8D"/>
			<stop  offset="0.7261" style="stop-color:#E65025"/>
			<stop  offset="1" style="stop-color:#EF4623"/>
		</radialGradient>
		<path fill="url(#SVGID_16_)" d="M673.333,799.667c-9.802,4.005-18.667,43.666-24.667,55c60,30.666,140,20.666,191.333-20.667
			c-10.333-4-26.666-41.333-45.333-46C769.312,781.661,704.333,787,673.333,799.667z"/>
		<radialGradient id="SVGID_17_" cx="727.25" cy="781.25" r="151.4108" gradientUnits="userSpaceOnUse">
			<stop  offset="8.370500e-04" style="stop-color:#EFBAAD"/>
			<stop  offset="0.4059" style="stop-color:#CB8F8D"/>
			<stop  offset="0.7261" style="stop-color:#E65025"/>
			<stop  offset="1" style="stop-color:#EF4623"/>
		</radialGradient>
		<path fill="url(#SVGID_17_)" d="M648.667,854.667c0,0,9.44-21.648,23.333-41c9.333-13,40-15,67-18s49.333-3.333,61,8
			s28,30.666,40,30.333c-11.667-9.333-24.333-38-42-46s-116.667,0-128.333,14.667S656,844.667,648.667,854.667z"/>
		<radialGradient id="SVGID_18_" cx="729.3818" cy="822.5996" r="67.3418" gradientUnits="userSpaceOnUse">
			<stop  offset="0" style="stop-color:#FFFFFF"/>
			<stop  offset="1" style="stop-color:#E6E7E8"/>
		</radialGradient>
		<path fill="url(#SVGID_18_)" d="M699.333,827.333c0,0,45,5.334,93.333-15C789.667,836.333,754.334,862.333,699.333,827.333z"/>
		<g>
			
				<radialGradient id="SVGID_19_" cx="774.791" cy="842.1943" r="43.1703" gradientTransform="matrix(1 0 0 0.6917 0 190.2485)" gradientUnits="userSpaceOnUse">
				<stop  offset="8.370500e-04" style="stop-color:#EFBAAD"/>
				<stop  offset="0.4059" style="stop-color:#CA5E64"/>
				<stop  offset="0.7261" style="stop-color:#D04421"/>
				<stop  offset="1" style="stop-color:#A22D10"/>
			</radialGradient>
			<path fill="url(#SVGID_19_)" d="M809.153,781.183c0,12.907-11.344,23.367-25.336,23.367c-13.998,0-25.341-10.46-25.341-23.367
				c0-12.904,11.343-23.367,25.341-23.367C797.81,757.815,809.153,768.278,809.153,781.183z"/>
			
				<radialGradient id="SVGID_20_" cx="772.7939" cy="839.4453" r="57.7019" gradientTransform="matrix(1 0 0 0.6917 0 190.2485)" gradientUnits="userSpaceOnUse">
				<stop  offset="0" style="stop-color:#FFFFFF"/>
				<stop  offset="1" style="stop-color:#E6E7E8"/>
			</radialGradient>
			<ellipse fill="url(#SVGID_20_)" cx="781.817" cy="779.281" rx="25.339" ry="23.366"/>
			<ellipse cx="776.979" cy="767.835" rx="12.583" ry="11.419"/>
			<ellipse fill="#FFFFFF" cx="775" cy="762.333" rx="3.135" ry="3.592"/>
		</g>
		<g>
			
				<radialGradient id="SVGID_21_" cx="676.4585" cy="859.0615" r="43.1701" gradientTransform="matrix(1 0 0 0.6917 0 190.2485)" gradientUnits="userSpaceOnUse">
				<stop  offset="8.370500e-04" style="stop-color:#EFBAAD"/>
				<stop  offset="0.4059" style="stop-color:#CA5E64"/>
				<stop  offset="0.7261" style="stop-color:#D04421"/>
				<stop  offset="1" style="stop-color:#A22D10"/>
			</radialGradient>
			<path fill="url(#SVGID_21_)" d="M710.82,792.85c0,12.907-11.344,23.367-25.336,23.367c-13.998,0-25.341-10.46-25.341-23.367
				c0-12.904,11.343-23.367,25.341-23.367C699.477,769.482,710.82,779.945,710.82,792.85z"/>
			
				<radialGradient id="SVGID_22_" cx="677.4609" cy="855.8301" r="57.7019" gradientTransform="matrix(1 0 0 0.6917 0 190.2485)" gradientUnits="userSpaceOnUse">
				<stop  offset="0" style="stop-color:#FFFFFF"/>
				<stop  offset="1" style="stop-color:#E6E7E8"/>
			</radialGradient>
			<ellipse fill="url(#SVGID_22_)" cx="686.484" cy="790.615" rx="25.339" ry="23.366"/>
			<ellipse cx="684.312" cy="778.835" rx="12.583" ry="11.419"/>
			<ellipse fill="#FFFFFF" cx="682.802" cy="773.667" rx="3.135" ry="3.592"/>
		</g>
		<radialGradient id="SVGID_23_" cx="710.0112" cy="844.8594" r="100.1713" gradientUnits="userSpaceOnUse">
			<stop  offset="8.370500e-04" style="stop-color:#EFBAAD"/>
			<stop  offset="0.4059" style="stop-color:#CA5E64"/>
			<stop  offset="0.7261" style="stop-color:#D04421"/>
			<stop  offset="1" style="stop-color:#A22D10"/>
		</radialGradient>
		<path fill="url(#SVGID_23_)" d="M648.667,854.667c0,0-5.667-5.917,27.083-4.167s42.25,11.25,74.5,5.75s53.25-19.25,62-23.25
			s27.75,1,27.75,1s-37.75,34.5-94,38.75S648.667,854.667,648.667,854.667z"/>
		<g>
			<path fill="#FFFFFF" d="M625.667,648.333L638,666l-18.667,4.333L636,680.666l-15.333,8L634.333,695l-10,9.333L638,703.666
				L634.667,714l6-8l8,0.666L650,700h11.333c0,0-11,17.332-25.333,17.666s-26.333-25-24.667-36S625.667,648.333,625.667,648.333z"/>
			<radialGradient id="SVGID_24_" cx="614.9082" cy="800.9678" r="43.3952" gradientUnits="userSpaceOnUse">
				<stop  offset="8.370500e-04" style="stop-color:#EFBAAD"/>
				<stop  offset="0.4059" style="stop-color:#CA5E64"/>
				<stop  offset="0.7261" style="stop-color:#D04421"/>
				<stop  offset="1" style="stop-color:#A22D10"/>
			</radialGradient>
			<path fill="url(#SVGID_24_)" d="M662.667,825c-1.129,0-28.671,5.241-50-5c-10.177-4.886-15.766-14.747-22.333-27.667
				C597,795.999,597.667,796.334,606,789c7.667,23.333,60.667,31.666,60.667,31.666L662.667,825z"/>
			<radialGradient id="SVGID_25_" cx="559.6665" cy="714" r="0" gradientUnits="userSpaceOnUse">
				<stop  offset="8.370500e-04" style="stop-color:#EFBAAD"/>
				<stop  offset="0.4059" style="stop-color:#CB8F8D"/>
				<stop  offset="0.7261" style="stop-color:#E65025"/>
				<stop  offset="1" style="stop-color:#EF4623"/>
			</radialGradient>
			<path fill="url(#SVGID_25_)" d="M559.667,714"/>
			<radialGradient id="SVGID_26_" cx="596.4829" cy="786.3555" r="16.0068" gradientUnits="userSpaceOnUse">
				<stop  offset="8.370500e-04" style="stop-color:#EFBAAD"/>
				<stop  offset="0.4059" style="stop-color:#CA5E64"/>
				<stop  offset="0.7261" style="stop-color:#D04421"/>
				<stop  offset="1" style="stop-color:#A22D10"/>
			</radialGradient>
			<path fill="url(#SVGID_26_)" d="M592.667,781.666c-5.887,1.207-7.333,17.334,7.667,17.667c16.33,0.362,14.667-13,9-16
				S605.667,779,592.667,781.666z"/>
			<radialGradient id="SVGID_27_" cx="603.0078" cy="751.0332" r="33.4267" gradientUnits="userSpaceOnUse">
				<stop  offset="8.370500e-04" style="stop-color:#EFBAAD"/>
				<stop  offset="0.4059" style="stop-color:#CA5E64"/>
				<stop  offset="0.7261" style="stop-color:#D04421"/>
				<stop  offset="1" style="stop-color:#A22D10"/>
			</radialGradient>
			<path fill="url(#SVGID_27_)" d="M608.667,732.333c0,0-26.228,56.346-9.667,58.333c8.333,1,24-53.333,24-53.333L608.667,732.333z"
				/>
			<radialGradient id="SVGID_28_" cx="613.5674" cy="728.168" r="15.5866" gradientUnits="userSpaceOnUse">
				<stop  offset="8.370500e-04" style="stop-color:#EFBAAD"/>
				<stop  offset="0.4059" style="stop-color:#CA5E64"/>
				<stop  offset="0.7261" style="stop-color:#D04421"/>
				<stop  offset="1" style="stop-color:#A22D10"/>
			</radialGradient>
			<path fill="url(#SVGID_28_)" d="M609.333,721.666c0,0-9,17.666,3.667,20s15.333-10.334,16-12S609.333,721.666,609.333,721.666z"
				/>
			<radialGradient id="SVGID_29_" cx="613.2417" cy="671.6113" r="58.902" gradientUnits="userSpaceOnUse">
				<stop  offset="8.370500e-04" style="stop-color:#EFBAAD"/>
				<stop  offset="0.4059" style="stop-color:#CA5E64"/>
				<stop  offset="0.7261" style="stop-color:#D04421"/>
				<stop  offset="1" style="stop-color:#A22D10"/>
			</radialGradient>
			<path fill="url(#SVGID_29_)" d="M620,731.666c0,0-23.667-6.999-29.667-39.666s38.333-49,38.333-49s-21.333,57.332,6.667,69.666
				c10.333-3,27.333-16,27.333-16S660.667,737.666,620,731.666z"/>
		</g>
		<g>
			<path fill="#FFFFFF" d="M791.684,625.043l-7.044,20.363l19.141-0.927l-13.213,14.489l16.936,3.511l-11.42,9.824l12.168,6.249
				l-13.329,3.089l6.028,9.031l-7.956-6.059l-7.515,2.825l-3.103-6.049l-10.903,3.094c0,0,15.312,13.671,29.193,10.079
				c13.881-3.591,18.509-31.238,13.902-41.365C809.964,643.07,791.684,625.043,791.684,625.043z"/>
			
				<radialGradient id="SVGID_30_" cx="946.8496" cy="765.876" r="43.3955" gradientTransform="matrix(-0.962 0.273 0.273 0.962 1545.4829 -226.3174)" gradientUnits="userSpaceOnUse">
				<stop  offset="8.370500e-04" style="stop-color:#EFBAAD"/>
				<stop  offset="0.4059" style="stop-color:#CA5E64"/>
				<stop  offset="0.7261" style="stop-color:#D04421"/>
				<stop  offset="1" style="stop-color:#A22D10"/>
			</radialGradient>
			<path fill="url(#SVGID_30_)" d="M804.312,805.101c1.086-0.308,29.013-2.784,46.735-18.458
				c8.457-7.479,11.142-18.491,13.934-32.713c-5.412,5.347-5.963,5.851-15.981,1.07c-1.006,24.539-49.719,47.023-49.719,47.023
				L804.312,805.101z"/>
			
				<radialGradient id="SVGID_31_" cx="928.4238" cy="751.2637" r="16.0065" gradientTransform="matrix(-0.962 0.273 0.273 0.962 1545.4829 -226.3174)" gradientUnits="userSpaceOnUse">
				<stop  offset="8.370500e-04" style="stop-color:#EFBAAD"/>
				<stop  offset="0.4059" style="stop-color:#CA5E64"/>
				<stop  offset="0.7261" style="stop-color:#D04421"/>
				<stop  offset="1" style="stop-color:#A22D10"/>
			</radialGradient>
			<path fill="url(#SVGID_31_)" d="M859.825,744.305c5.992-0.445,11.786,14.674-2.554,19.089
				c-15.61,4.806-17.657-8.503-13.025-12.936C848.879,746.025,846.591,745.289,859.825,744.305z"/>
			
				<radialGradient id="SVGID_32_" cx="934.9482" cy="715.9414" r="33.4264" gradientTransform="matrix(-0.962 0.273 0.273 0.962 1545.4829 -226.3174)" gradientUnits="userSpaceOnUse">
				<stop  offset="8.370500e-04" style="stop-color:#EFBAAD"/>
				<stop  offset="0.4059" style="stop-color:#CA5E64"/>
				<stop  offset="0.7261" style="stop-color:#D04421"/>
				<stop  offset="1" style="stop-color:#A22D10"/>
			</radialGradient>
			<path fill="url(#SVGID_32_)" d="M830.967,701.213c0,0,40.611,47.047,25.223,53.479c-7.744,3.237-37.647-44.756-37.647-44.756
				L830.967,701.213z"/>
			
				<radialGradient id="SVGID_33_" cx="945.5068" cy="693.0762" r="15.5859" gradientTransform="matrix(-0.962 0.273 0.273 0.962 1545.4829 -226.3174)" gradientUnits="userSpaceOnUse">
				<stop  offset="8.370500e-04" style="stop-color:#EFBAAD"/>
				<stop  offset="0.4059" style="stop-color:#CA5E64"/>
				<stop  offset="0.7261" style="stop-color:#D04421"/>
				<stop  offset="1" style="stop-color:#A22D10"/>
			</radialGradient>
			<path fill="url(#SVGID_33_)" d="M827.413,691.133c0,0,13.48,14.539,1.932,20.241c-11.547,5.703-17.572-5.756-18.668-7.177
				C809.582,702.776,827.413,691.133,827.413,691.133z"/>
			
				<radialGradient id="SVGID_34_" cx="945.1797" cy="636.5166" r="58.9026" gradientTransform="matrix(-0.962 0.273 0.273 0.962 1545.4829 -226.3174)" gradientUnits="userSpaceOnUse">
				<stop  offset="8.370500e-04" style="stop-color:#EFBAAD"/>
				<stop  offset="0.4059" style="stop-color:#CA5E64"/>
				<stop  offset="0.7261" style="stop-color:#D04421"/>
				<stop  offset="1" style="stop-color:#A22D10"/>
			</radialGradient>
			<path fill="url(#SVGID_34_)" d="M819.882,703.665c0,0,20.856-13.193,17.711-46.258c-3.145-33.064-50.252-36.676-50.252-36.676
				s36.172,49.332,12.603,68.841c-10.759-0.066-30.661-7.932-30.661-7.932S782.397,720.537,819.882,703.665z"/>
		</g>
	</g>
</g>
<g id="KAT">
	<g>
		<path fill="#BC8ABE" d="M140.333,351.333c0,0,36.667-13,57.667,10.167c38.333-2.167,122.333-20.833,94.333-70.167
			s-95.333,10-95.333,10S180.333,232.667,138.333,244C69.632,262.539,138.333,350.667,140.333,351.333z"/>
		<path fill="#AC6DAD" d="M140.333,351.333c0,0,18.667-4.333,36.167-1.833c12.5-11,20.5-17.5,18-29s-21,4-23.5,4.5
			s-15.5-74.5-43.5-66.5S110.167,311.167,140.333,351.333z"/>
		<path fill="none" stroke="#662D91" stroke-width="2" stroke-miterlimit="10" d="M121,269.5c0,0,6,26.5,28.5,63.5"/>
		<path fill="none" stroke="#662D91" stroke-width="2" stroke-miterlimit="10" d="M137.5,257.5c0,0,4,27,25,62.5"/>
		<path fill="none" stroke="#662D91" stroke-width="2" stroke-miterlimit="10" d="M158,257c0,0,8.5,27.5,21,52"/>
		<path fill="none" stroke="#662D91" stroke-width="2" stroke-miterlimit="10" d="M211.5,332c0,0,45.5-12.5,71.5-34.5"/>
		<path fill="none" stroke="#662D91" stroke-width="2" stroke-miterlimit="10" d="M212,350c0,0,46.5-5.5,74.5-33"/>
		<radialGradient id="SVGID_35_" cx="152" cy="487" r="251.0233" gradientUnits="userSpaceOnUse">
			<stop  offset="0" style="stop-color:#EDA7CA"/>
			<stop  offset="1" style="stop-color:#69296B"/>
		</radialGradient>
		<path fill="url(#SVGID_35_)" d="M189.667,356.667c0,0-7.333-20-49.333-5.333c-25.333,26.667-30.667,180.666-14,226
			s82,120,194.667,102s105.333-92.667,86.667-106s-113.333-28-130-30s-72-81.333-71.333-84S177,424,177,422s2-36,2-36
			L189.667,356.667z"/>
		<path opacity="0.3" fill="#772985" d="M138,350.5c0,0-35.5,101.5-15.5,210c8.5,44,81.5,160,237,111c-26,5-29,8-61,4
			s-24-12-62.5-30.5s-79-33.5-93.5-61s-28-104.5-19.5-148c3.684-18.851,4.625-41.722,9-56.5c5.721-19.325,13-30,13-30
			s-24.5-31-35.5-64C113,320.5,138,350.5,138,350.5z"/>
		<radialGradient id="SVGID_36_" cx="283" cy="468.667" r="194.6774" gradientUnits="userSpaceOnUse">
			<stop  offset="0" style="stop-color:#EDA7CA"/>
			<stop  offset="1" style="stop-color:#69296B"/>
		</radialGradient>
		<path fill="url(#SVGID_36_)" d="M243.5,564.5c0,0-17.5,34-18,45s-1,17.5-7.5,18s-13.5-17-15.5-27.5s-5.5-15.5-0.5-26
			s16-20.5,1.5-16s-12,14.5-18.5,13s-7-9-1.5-14s15.5-15.5,8.5-16s-4,0-13.5,0s11-7-3.5-6s-18.5-2.5-17-5s-9-2.5-3-6
			s13.5-9.5,17.5-12s4-8,0-9s-8-4-17.5-11.5s-12.5-15.5-7.5-18s3-13-3-18.5s-2.5-5.5,5-9.5s8.5-10,3.5-12.5s-9-4-3-7.5s10-5.5,5-7
			s-9.5-5.5-4-8s13.5-6,13.5-8s-6.5-6-12-7.5s-15.5-2-10.5-6s4-4,6.5-7s5.5-7.5,10-13s4-14.5,11-17s-0.5-1,7-2.5s20,6.5,21.5,12
			s-12,24,3,45s32.5,83,39.5,87s12.5,7,16.5,6.5s29-15.5,82-5s97.5,40,112.5,73c-44.5,31-205,46.5-205,46.5L243.5,564.5z"/>
		<path opacity="0.3" fill="#772985" d="M245,502.5c0,0-12.021,3.417-32.5,2.5c-33.5-1.5-47.172-21.759-56-35c-10-15-13-24.5-6-32.5
			c11.872-13.567,24.5-9,41,8S262,493.5,245,502.5z"/>
		<radialGradient id="SVGID_37_" cx="458.5" cy="566" r="239.2767" gradientUnits="userSpaceOnUse">
			<stop  offset="0" style="stop-color:#EDA7CA"/>
			<stop  offset="1" style="stop-color:#BC8ABE"/>
		</radialGradient>
		<path fill="url(#SVGID_37_)" d="M243.5,564.5c-12.012,11.088-22.5,96,28.5,114S409.5,656,436,635s27.716-43.573,20.5-64.5
			c-10-29-54.5-48-91-51S263,546.5,243.5,564.5z"/>
		<path fill="#846094" d="M459,597c0,0-22.5-0.5-28,2.5C427,594.5,435,586.5,459,597z"/>
		<polygon fill="#846094" points="334,665 330.333,679.666 335.667,679 		"/>
		<polygon fill="#846094" points="376,653.667 376.5,667 380.667,665.333 		"/>
		<polygon fill="#846094" points="410.667,636.667 414,648.666 419.333,645.333 415,637.333 		"/>
		<polygon fill="#846094" points="438.667,616.334 445,628.5 448,622.5 443,617 		"/>
		<path fill="#846094" d="M281,639c0,0-11,33-13.333,36s6,6,7.333,6S281,639,281,639z"/>
		<path fill="#A13422" d="M317.333,643.334c0,0,21-22.666,46-30.333s52.667-21.001,58-17.334s-0.667,15.334-4.333,18.667
			s-48,28.334-69,31.667S311.667,648.001,317.333,643.334z"/>
		
			<ellipse transform="matrix(0.6403 0.7681 -0.7681 0.6403 563.0231 -9.3545)" fill="#7B5A7E" cx="291.5" cy="596.5" rx="20.5" ry="29"/>
		<radialGradient id="SVGID_38_" cx="292" cy="592.5" r="25.1149" gradientUnits="userSpaceOnUse">
			<stop  offset="0" style="stop-color:#FFFFFF"/>
			<stop  offset="1" style="stop-color:#E6E7E8"/>
		</radialGradient>
		<path fill="url(#SVGID_38_)" d="M305.126,608.246c-12.303,10.256-28.152,11.52-35.402,2.823s-3.154-24.06,9.149-34.315
			s28.152-11.52,35.402-2.823S317.429,597.99,305.126,608.246z"/>
		
			<ellipse transform="matrix(0.2492 0.9685 -0.9685 0.2492 838.8477 30.3849)" fill="#7B5A7E" cx="399.828" cy="556.186" rx="19.145" ry="27.084"/>
		
			<radialGradient id="SVGID_39_" cx="343.166" cy="571.8086" r="23.4555" gradientTransform="matrix(0.9034 0.4287 -0.4287 0.9034 331.4695 -109.1768)" gradientUnits="userSpaceOnUse">
			<stop  offset="0" style="stop-color:#FFFFFF"/>
			<stop  offset="1" style="stop-color:#E6E7E8"/>
		</radialGradient>
		<path fill="url(#SVGID_39_)" d="M401.122,573.052c-14.487,3.728-28.366-1.553-31-11.793c-2.634-10.239,6.973-21.562,21.459-25.289
			c14.487-3.728,28.365,1.554,31,11.794C425.216,558.004,415.608,569.325,401.122,573.052z"/>
		<ellipse cx="303.75" cy="582" rx="14.25" ry="13.5"/>
		<radialGradient id="SVGID_40_" cx="310" cy="578.5" r="5.1265" gradientUnits="userSpaceOnUse">
			<stop  offset="0" style="stop-color:#FFFFFF"/>
			<stop  offset="1" style="stop-color:#E6E7E8"/>
		</radialGradient>
		<ellipse fill="url(#SVGID_40_)" cx="310" cy="578.5" rx="5.25" ry="5"/>
		<ellipse cx="408.25" cy="547.5" rx="14.25" ry="13.5"/>
		<radialGradient id="SVGID_41_" cx="411.75" cy="542.5" r="5.1265" gradientUnits="userSpaceOnUse">
			<stop  offset="0" style="stop-color:#FFFFFF"/>
			<stop  offset="1" style="stop-color:#E6E7E8"/>
		</radialGradient>
		<ellipse fill="url(#SVGID_41_)" cx="411.75" cy="542.5" rx="5.25" ry="5"/>
		<radialGradient id="SVGID_42_" cx="273" cy="740.5" r="86.1541" gradientUnits="userSpaceOnUse">
			<stop  offset="0" style="stop-color:#EDA7CA"/>
			<stop  offset="1" style="stop-color:#69296B"/>
		</radialGradient>
		<path fill="url(#SVGID_42_)" d="M299.5,635c-0.862-6.893-13-4.5-18.5,4s-12.5,111.5-66.5,155c38.5-12.5,52-64,61-95s11-47.5,16-50
			S300,639,299.5,635z"/>
		<radialGradient id="SVGID_43_" cx="542.5" cy="593.5" r="80.033" gradientUnits="userSpaceOnUse">
			<stop  offset="0" style="stop-color:#EDA7CA"/>
			<stop  offset="1" style="stop-color:#69296B"/>
		</radialGradient>
		<path fill="url(#SVGID_43_)" d="M440,578.5c-6.9-0.941-18.5,15-3,15S544.5,617,590.5,648c-32-32-107.574-51.735-129.5-58
			C450.5,587,451,580,440,578.5z"/>
		<radialGradient id="SVGID_44_" cx="344" cy="728" r="57.363" gradientUnits="userSpaceOnUse">
			<stop  offset="0" style="stop-color:#EDA7CA"/>
			<stop  offset="1" style="stop-color:#69296B"/>
		</radialGradient>
		<path fill="url(#SVGID_44_)" d="M334,665c3-3,5-3,7,0c-0.5,8,6,69.5-7.5,96C341.5,713,334,665,334,665z"/>
		<radialGradient id="SVGID_45_" cx="401.5" cy="714.5" r="38.5811" gradientUnits="userSpaceOnUse">
			<stop  offset="0" style="stop-color:#EDA7CA"/>
			<stop  offset="1" style="stop-color:#69296B"/>
		</radialGradient>
		<path fill="url(#SVGID_45_)" d="M376,655.5c0.5-5.5,5.5-6.5,7.5-3.5c3,8.5,13.5,56.5,9.5,95.5C386.5,673.5,376,655.5,376,655.5z"
			/>
		<radialGradient id="SVGID_46_" cx="457" cy="682" r="48.3452" gradientUnits="userSpaceOnUse">
			<stop  offset="0" style="stop-color:#EDA7CA"/>
			<stop  offset="1" style="stop-color:#69296B"/>
		</radialGradient>
		<path fill="url(#SVGID_46_)" d="M411.5,638c-2.538-2.41,2.5-8,8.5-4.5c9,9.5,30,46,27,80C436.5,667.5,431.5,657,411.5,638z"/>
		<radialGradient id="SVGID_47_" cx="495" cy="646" r="51.2445" gradientUnits="userSpaceOnUse">
			<stop  offset="0" style="stop-color:#EDA7CA"/>
			<stop  offset="1" style="stop-color:#69296B"/>
		</radialGradient>
		<path fill="url(#SVGID_47_)" d="M445,613c-3.888-1.372-8,2.5-7,5s30,13.5,56,49.5C482.5,637,453.5,616,445,613z"/>
		<path fill="#DE84B7" d="M298,631.5c-4.045,2.427-5,9,7,11s15.5,0.5,25.5-8s67.5-30,83-32.5s24.5-17,20-21s-7.5-7.5-12.5,1
			s-2,10-15,11s-48.5,13-69,26.5s-22.5,14-27.5,13S300.5,630,298,631.5z"/>
		<path fill="#846094" d="M296,637.334c-1.837,0.848-1.806,1.567,2.5,5.667c1.232,1.173,2.667,2,5.833,2.333
			c2.276,0.239,1.682,4.175,6.435,8.152c4.398,3.681,11.025,4.85,16.564,4.514c16.5-1,38.5-6.5,63-20s29.5-19,34-26s5-16-1-13.5
			S417,596.167,415,606.667S398.333,620.5,374.833,631.5s-45.5,16.5-52.5,15S302.5,634.334,296,637.334z"/>
		<path fill="#DE84B7" d="M310.5,642.5c-4.494,2.074,4,12.5,20.5,11.5s38.5-6.5,63-20s29.5-19,34-26s5-16-1-13.5s-11-0.5-13,10
			s-12,12-35.5,23S333,644,326,642.5S317,639.5,310.5,642.5z"/>
		<path fill="#D868A8" d="M433,588c0,0-5,9.5-21.5,11.5S377,609,355,619s-33.5,19-38,19.5s-17-7.166-21-4.166s-1,8.166,14.5,8.166
			s11-1,17.5-5s28-16,44-21.5s28-11.5,41.5-14S431,600,433,588z"/>
		<path fill="#D868A8" d="M429.5,594.5c0,0-5,18.5-39,27.5c21-11.5,23-16.5,23-20C420.5,597.5,429.5,594.5,429.5,594.5z"/>
		<path fill="#D868A8" d="M311.667,641.001C316.04,639.543,325.5,649,335,649s50.5-12.5,72-23c-38,20.5-45.614,23.514-64.333,27.334
			c-12.591,2.57-23.906,0.957-29.69-1.964C307.505,648.607,303.646,643.675,311.667,641.001z"/>
		<path fill="#BC8ABE" d="M255.5,497.5c0,0,5-42-5-64.5c-5.402-12.153-18.023-16.252-28.5-24c-8.919-6.595-15.861-17.77-20-18
			c-9-0.5-19.208,27.269-20,45.5c-1,23,32,33,40.5,45S233.5,504.5,255.5,497.5z"/>
		<path fill="#AC6DAD" d="M253.5,498.5c0,0-2-42.5-13.5-60s-14.5-5-26-17s-18-27-20-24s-23.5,44.5-1.5,61.5s29.5,20.5,32,26
			s9.5,22.5,28,15.5"/>
		<radialGradient id="SVGID_48_" cx="411.5" cy="487" r="213.4407" gradientUnits="userSpaceOnUse">
			<stop  offset="0" style="stop-color:#EDA7CA"/>
			<stop  offset="1" style="stop-color:#69296B"/>
		</radialGradient>
		<path fill="url(#SVGID_48_)" d="M450.5,561c0,0-34-46-95-59s-106,0-135,13c24-24,100.5-34,152.5-14S439,539,450.5,561z"/>
		<path fill="none" stroke="#662D91" stroke-width="2" stroke-miterlimit="10" d="M201.5,401c0,0-12,13-15,42.5"/>
		<path fill="none" stroke="#662D91" stroke-width="2" stroke-miterlimit="10" d="M209.5,411c0,0-9,19.5-10.5,42.5"/>
		<path fill="none" stroke="#662D91" stroke-width="2" stroke-miterlimit="10" d="M223,423.5c0,0-8,19-9.5,39"/>
		<path fill="none" stroke="#662D91" stroke-width="2" stroke-miterlimit="10" d="M233,428.5c0,0-3,25.5-9.5,46.5"/>
		<path fill="none" stroke="#662D91" stroke-width="2" stroke-miterlimit="10" d="M244.5,440c0,0,2.5,23-10.5,50.5"/>
		<path fill="none" stroke="#662D91" stroke-width="2" stroke-miterlimit="10" d="M251,474c0,0-2.5,13.5-7.5,21"/>
		<path fill="none" stroke="#662D91" stroke-width="2" stroke-miterlimit="10" d="M207,312.5c0,0,33.5-15,48.5-26.5"/>
		<path fill="#BC8ABE" d="M164.5,591.5c-24.819-3.61-63.5,2-84.5-25.5s-7.5-14.5,2.5-9s0.5-8,6.5-5s3-9.5,9-5s-5-8,2.5-3.5
			s7.5-8,13.5-2s8.5,19,29,28S192,595.5,164.5,591.5z"/>
		<path fill="none" stroke="#662D91" stroke-width="2" stroke-miterlimit="10" d="M92.5,565.5c0,0,2,15.5,56,21"/>
		<path fill="none" stroke="#662D91" stroke-width="2" stroke-miterlimit="10" d="M99,557c0,0,6,14,37,21.5"/>
		<path fill="none" stroke="#662D91" stroke-width="2" stroke-miterlimit="10" d="M108.5,552c0,0,6,12,21,16"/>
		<path opacity="0.6" fill="#772985" d="M174.5,591.5l-44-6c0,0,5,13,15.5,26C151.5,603,160.5,594.5,174.5,591.5z"/>
		<path opacity="0.3" fill="#772985" d="M234,599c2-29.5,14,47.5,46.5,67s77.5,5,94,0.5c-57,19-102.737,27.684-126.5-4
			C233,642.5,232,628.5,234,599z"/>
	</g>
</g>
<g id="W_x2F_O">
	<rect x="-200" y="-24" fill="#5D5E5E" width="200" height="1000"/>
	<rect x="1440" y="-24" fill="#5D5E5E" width="200" height="1000"/>
	<rect x="-164" y="-200" fill="#5D5E5E" width="1674" height="200"/>
	<rect x="-164" y="960" fill="#5D5E5E" width="1674" height="200"/>
</g>
</svg>
