<?xml version="1.0" encoding="utf-8"?>
<!-- Generator: Adobe Illustrator 16.0.0, SVG Export Plug-In . SVG Version: 6.00 Build 0)  -->
<!DOCTYPE svg PUBLIC "-//W3C//DTD SVG 1.1//EN" "http://www.w3.org/Graphics/SVG/1.1/DTD/svg11.dtd">
<svg version="1.1" id="Layer_1" xmlns="http://www.w3.org/2000/svg" xmlns:xlink="http://www.w3.org/1999/xlink" x="0px" y="0px"
	 width="612px" height="792px" viewBox="0 0 612 792" enable-background="new 0 0 612 792" xml:space="preserve">
<g id="BUBBLES" opacity="0.5">
	<circle id="BUBBLE11" fill="#FFFFFF" cx="367.14" cy="653.881" r="45.596"/>
	<path id="BUBBLE10" fill="#FFFFFF" d="M366.244,506.364c13.825,0,25.033,11.207,25.033,25.032
		c0,13.823-11.208,25.032-25.033,25.032c-13.822,0-25.031-11.209-25.031-25.032C341.213,517.571,352.422,506.364,366.244,506.364z"
		/>
	<circle id="BUBBLE9" fill="#FFFFFF" cx="429.721" cy="457.19" r="9.835"/>
	<circle id="BUBBLE8" fill="#FFFFFF" cx="223.823" cy="213.391" r="20.564"/>
	<circle id="BUBBLE7" fill="#FFFFFF" cx="284.886" cy="401.762" r="9.835"/>
	<circle id="BUBBLE6" fill="#FFFFFF" cx="219.623" cy="320.402" r="30.396"/>
	<circle id="BUBBLE5" fill="#FFFFFF" cx="347.47" cy="328.448" r="24.139"/>
	<circle id="BUBBLE4" fill="#FFFFFF" cx="302.767" cy="256.927" r="13.41"/>
	<circle id="BUBBLE3" fill="#FFFFFF" cx="293.828" cy="183.615" r="8.047"/>
	<circle id="BUBBLE2" fill="#FFFFFF" cx="351.046" cy="119.243" r="4.471"/>
	<circle id="BUBBLE1" fill="#FFFFFF" cx="384.125" cy="59.344" r="7.153"/>
</g>
</svg>
