<?xml version="1.0" encoding="utf-8"?>
<!-- Generator: Adobe Illustrator 16.0.0, SVG Export Plug-In . SVG Version: 6.00 Build 0)  -->
<!DOCTYPE svg PUBLIC "-//W3C//DTD SVG 1.1//EN" "http://www.w3.org/Graphics/SVG/1.1/DTD/svg11.dtd">
<svg version="1.1" id="Layer_1" xmlns="http://www.w3.org/2000/svg" xmlns:xlink="http://www.w3.org/1999/xlink" x="0px" y="0px"
	 width="612px" height="792px" viewBox="0 0 612 792" enable-background="new 0 0 612 792" xml:space="preserve">
<g id="BUBBLES" opacity="0.5">
	<circle id="BUBBLE11" fill="#FFFFFF" cx="380.57" cy="542.286" r="37.139"/>
	<path id="BUBBLE10" fill="#FFFFFF" d="M379.841,422.129c11.262,0,20.391,9.128,20.391,20.39c0,11.259-9.129,20.39-20.391,20.39
		c-11.258,0-20.389-9.131-20.389-20.39C359.452,431.257,368.583,422.129,379.841,422.129z"/>
	<circle id="BUBBLE9" fill="#FFFFFF" cx="431.545" cy="382.075" r="8.011"/>
	<circle id="BUBBLE8" fill="#FFFFFF" cx="263.835" cy="183.493" r="16.75"/>
	<circle id="BUBBLE7" fill="#FFFFFF" cx="313.572" cy="336.927" r="8.011"/>
	<circle id="BUBBLE6" fill="#FFFFFF" cx="260.414" cy="270.657" r="24.759"/>
	<circle id="BUBBLE5" fill="#FFFFFF" cx="364.549" cy="277.211" r="19.662"/>
	<circle id="BUBBLE4" fill="#FFFFFF" cx="328.137" cy="218.955" r="10.923"/>
	<circle id="BUBBLE3" fill="#FFFFFF" cx="320.856" cy="159.239" r="6.554"/>
	<circle id="BUBBLE2" fill="#FFFFFF" cx="367.462" cy="106.807" r="3.642"/>
	<circle id="BUBBLE1" fill="#FFFFFF" cx="394.405" cy="58.017" r="5.827"/>
</g>
</svg>
