<?xml version="1.0" encoding="iso-8859-1"?>
<!-- Generator: Adobe Illustrator 16.0.0, SVG Export Plug-In . SVG Version: 6.00 Build 0)  -->
<!DOCTYPE svg PUBLIC "-//W3C//DTD SVG 1.1//EN" "http://www.w3.org/Graphics/SVG/1.1/DTD/svg11.dtd">
<svg version="1.1" xmlns="http://www.w3.org/2000/svg" xmlns:xlink="http://www.w3.org/1999/xlink" x="0px" y="0px" width="1440px"
	 height="960px" viewBox="0 0 1440 960" enable-background="new 0 0 1440 960" xml:space="preserve">
<g id="Layer_2">
	<g id="_x36_7Byis_1_">
		
			<image overflow="visible" width="863" height="540" id="_x36_7Byis_2_" xlink:href="48D7DB217054A6CE.jpg"  transform="matrix(1.5783 0 0 1.5783 23.999 97.6094)">
		</image>
	</g>
</g>
<g id="water">
	
		<linearGradient id="SVGID_1_" gradientUnits="userSpaceOnUse" x1="10933.8633" y1="572.0234" x2="10933.8633" y2="824.0481" gradientTransform="matrix(-0.0934 0 0 1 1733.2125 0)">
		<stop  offset="0" style="stop-color:#5BC0AC"/>
		<stop  offset="1" style="stop-color:#56A384"/>
	</linearGradient>
	<rect x="-35.355" y="-1.393" fill="url(#SVGID_1_)" width="1494.689" height="966.393"/>
	<path fill="#AEDBC3" d="M-75.323,158.613c117.551-8.369,416.463-10.043,876.572,30.13
		c460.109,40.173,1014.269,103.779,1014.269,103.779s-248.538,13.391-261.974,13.391c-13.42,0-453.384-97.084-849.702-100.432
		c-396.301-3.348-792.603-1.674-792.603-1.674L-75.323,158.613z"/>
	<path opacity="0.3" fill="#AEDBC3" d="M-75.323,178.7c117.551-8.369,416.463-10.043,876.572,30.13
		c460.109,40.172,1014.269,103.779,1014.269,103.779S1566.979,326,1553.544,326c-13.42,0-453.384-97.084-849.702-100.432
		c-396.301-3.348-792.603-1.674-792.603-1.674L-75.323,178.7z"/>
	<path opacity="0.3" fill="#AEDBC3" d="M-107.756,38.126c104.12,29.883,373.236,82.851,796.977,114.195
		c423.743,31.344,937.484,51.225,937.484,51.225s-221.096-58.128-233.21-60.421c-12.099-2.29-430.324,36.617-788.372-27.075
		C247.09,52.36-109.829-17.225-109.829-17.225L-107.756,38.126z"/>
	<path opacity="0.3" fill="#AEDBC3" d="M-120.186,660.897c108.322,0.514,381.715-21.519,798.066-106.313
		c416.353-84.797,916.219-205.042,916.219-205.042s-228.574,4.037-240.855,5.117c-12.267,1.079-404.25,151.994-766.148,187.831
		c-361.884,35.836-724.294,65.695-724.294,65.695L-120.186,660.897z"/>
</g>
<g id="coral">
	<path fill="#338491" d="M-51.533,882.049c37-24,66-52,98-40s60-14,56,24s36,32,38,50s14,34,16,42s22,22,30,28s26,16,32,18
		s8-26,8-26s-14-18-16-26s-12-46-12-46s0-2,6-14s-10-26-4-34c0,0,32-32,38-6s10,28,14,42s-6,22,4,34s10,12,10,12l0,0l20-38
		c0,0,0-18-4-28c0,0,20,0,26,18s0,8,6,18s12,12,14,22s8,28,14,28s50-6,38-22s-32-46-34-52s-8-20-8-20s32,12,36,18s22,28,28,44
		s6-2,6,16s-20,30,14,40s48,8,50,16s-6-26,36-22s62,28,72,34s-22,30,10,30s130,28,178,26s48-8,82-8s146-14,146-14s-34-30-36-52
		s-12-24-14-34s-34-26-6-32s-54-20,22-30s102-4,116-8s56,8,66-6s40-30,46-34s10-52,0-56s-34-34-10-48s18-8,36-18s66-12,96-10
		s46-6,52-8s70,6,82-8s44-32,50-36s12.585,34.531,12.585,34.531s-12.585,425.469-24.585,423.469s-1516-20-1516-20L-51.533,882.049z"
		/>
	<path fill="#1D676D" d="M1086.449,1097.637c-6-23-14-66-18-76s14,2-16-18s-44-26-38-40s-18-20,16-18s34,2,34,2s7.668,3.662,12-18
		c2-10-72,0,2-10s128-8,134-16s4-10,14-18s28-6,44-20s42-40,16-42s-12-10-26-2s-22,22-22,22s2-34,2-40s-2-6,0-16s-40-12-10-28
		s24-12,50-14s92-8,92-8s24-4,74-2s74,0,74,0l-52,350c0,0-110,6-108,0s14-16,10-52s-4-42-14-54s-10-12-10-12s-20-24-26-26
		s24-16-46-6s-108.047,16.241-88,20c32,6,18,16-10,20s-158,0-46,6s132,16,144,14c0,0,18,0,18,10s6,12,4,52s-8,48-20,52s-50,12-50,20
		s-16-78-30-86s-40-10-46-8s-10-22-2,24s-30-26-32-20s0,54,0,54L1086.449,1097.637z"/>
	<path fill="#1D676D" d="M337.61,981.066c-10.5-13.5-29.999-37.499-29.999-47.998s-4.5-38.998-14.999-34.498
		s11.999,14.999-12,31.498s-25.499,9-29.999,9s-11.999-12-11.999-12s-1.5-13.498-3-22.498s-14.999-4.5-16.499-23.999
		s-16.3-28.546-18.649-22.522s10,20,4,34s-22.849-2.479-12.35,18.521S213.116,960,213.116,960l3,19.566c0,0-62.997,7.5-71.997,3
		S105.122,971.933,108.122,960s10.5-19.432-1.5-26.932s-29.999-19.499-29.999-19.499s12-19.5-7.5-7.5s-34.499,37.498-29.999,20.999
		s10.5-44.997,10.5-44.997s20.999-18,4.5-13.5s9-7.498-17.999-4.499s-16.754-5.999-36.125-1.5s-8.872,110.994-8.872,110.994
		L337.61,981.066z"/>
	<path fill="#1D676D" d="M338.467,866.049c-16.056,1.991,21.642,70.021,45.641,77.521s11.999-6-6-25.499
		S358.823,863.524,338.467,866.049z"/>
</g>
<g id="seaweed">
	<path fill="#4E8459" d="M1155.07,985.568c-20.619-8.489-10.5-29.999-13.5-37.498s-22.498-20.999-19.498-38.998s0-20.999-1.5-37.498
		s-1.5-47.998-1.5-47.998s0-43.498,4.5-14.999c4.499,28.499,5.998-41.999,11.998,14.999s4.5,19.499,10.5,46.498s4.5-13.499,6,9
		s10.5,1.5,12,20.999c1.499,19.499-3-134.993,5.999-59.997s17.999,32.999,16.499,58.497s0,16.498-1.5,25.498s-1.5-41.998,0,0
		S1180.568,996.067,1155.07,985.568z"/>
	<path fill="#4E8459" d="M1347.061,906.072c-22.499-47.998-43.498-65.996-37.498-95.995s13.5-24,4.5-50.998s-9-35.998-4.5-35.998
		s19.499-1.499,19.499,7.5s-17.999,29.998,3,65.996s28.499,25.498,28.499,35.998s8.999-67.496,10.499-32.998s11.999,6,11.999,22.499
		s13.5,3.001,10.5,7.5s-0.001-88.496,8.999-70.497s13.499-37.498,17.999-13.499s-22.443,83.995-1.5,119.994s10.5-10.5,6,14.999
		s-28.499,29.999-38.998,22.499s-20.999,1.5-20.999,1.5s1.499-32.999-1.5-10.5S1347.061,906.072,1347.061,906.072z"/>
	<path fill="#4E8459" d="M457.605,973.568c-25.499-25.498-16.5-22.499-23.999-41.998s-25.499-53.996-13.5-43.497
		s41.998,49.497,41.998,49.497l12,7.5c0,0-1.5-20.999,6-1.5s-4.5-43.497,9-17.999s4.5-22.499,13.5,0s29.999,22.498,32.999,26.998
		c8.999,13.5,10.499-31.429,13.499-11.999s-7.5-41.997,3-16.499s-34.499-70.497-4.5-25.499s-4.5-61.496,20.999-13.499
		s29.999,53.997,29.999,53.997s12-67.496,20.999-58.497s40.498-13.499,28.499,0s-25.06,46.572-23.999,53.997
		c3,20.999,23.999,7.568,23.999,16.499s44.998-23.999,38.998-13.499s-31.499-67.496-13.5-49.497s13.5-38.999,22.499-15
		s-3-49.497,17.999-7.499s14.064,63.997,12,68.996c-10.5,25.43,18-2.999,7.5,13.5s38.997,11.999,23.998,26.998
		s55.497,19.5,40.498,25.499s1.501,10.499-7.499,11.999S457.605,973.568,457.605,973.568z"/>
	<path fill="#3D6D48" d="M1138.571,967.568c-1.5-29.998-10.499-40.498-13.499-49.497s-6-28.498-7.5-37.498s-4.5-58.496-3-50.997
		s9.001,2.999,12,28.498s10.499,43.498,10.499,43.498s17.999,2.999,14.999,11.999s0.344-18.107,3-9
		c10.5,35.999,13.499-37.429,16.499,9s9,55.497,9,55.497s0,10.5-4.5,13.5S1138.571,967.568,1138.571,967.568z"/>
	<path fill="#3D6D48" d="M1347.061,906.072c-16.499-16.5-34.498-29.999-31.498-44.998s-7.499-52.496,3-31.498
		s16.499,12,17.999,19.499s13.499-23.999,14.999-6s3.001,1.5,7.5,14.999s7.499-16.499,11.999,3s17.999-22.499,17.999-4.5
		s-10.499-26.999,6,0s18,23.998,20.999,32.998s16.499,16.5,0,16.5s-67.497-6-62.997-9c0,0,28.498-22.498,16.499-13.499
		S1347.061,906.072,1347.061,906.072z"/>
	<path fill="#3D6D48" d="M471.104,973.568c-16.499-13.568-55.497-85.495-46.498-68.996S474.104,960,474.104,960
		c19.499,4.569,7.499-8.861,23.999-4.431s1.5-23.999,23.999-6S547.601,944.932,556.6,960s-6-38.93,3-26.93
		s-20.999-40.498,1.5-14.999s13.5-29.998,28.499,7.5s3,22.499,14.999,37.498s22.5-5.999,26.999,3L696.093,960
		c0,0-15-85.426-12-53.928s22.499-28.5,20.999,4.499s-3,49.429-3,49.429c17.999,13.568,13.499,3.068,17.999,13.568
		S471.104,973.568,471.104,973.568z"/>
</g>
<g id="fish">
	<g>
		<g>
			<path fill="#0380A2" d="M140.996,229.002c-60,6-84,28-98,57c77,22,103-51,103-51s18,15,59,4c-34-5-48-13-48-13s9-24,30-32
				C155.996,186.002,140.996,229.002,140.996,229.002z"/>
			<radialGradient id="SVGID_2_" cx="62.2734" cy="272.1729" r="4.3217" gradientUnits="userSpaceOnUse">
				<stop  offset="0" style="stop-color:#FFFFFF"/>
				<stop  offset="1" style="stop-color:#E6E7E8"/>
			</radialGradient>
			<path fill="url(#SVGID_2_)" d="M60.996,268.002c-4.932,0.821-4.195,12.463,4,7C67.996,273.002,66.996,267.002,60.996,268.002z"/>
		</g>
		<path fill="#7DA7C0" d="M82.996,267.002c0,0,25,12,29-4S82.996,267.002,82.996,267.002z"/>
	</g>
	<g>
		<g>
			<path fill="#0380A2" d="M17,378c-60,6-84,28-98,57c77,22,103-51,103-51s18,15,59,4c-34-5-48-13-48-13s9-24,30-32
				C32,335,17,378,17,378z"/>
			<radialGradient id="SVGID_3_" cx="-61.7227" cy="421.1709" r="4.3217" gradientUnits="userSpaceOnUse">
				<stop  offset="0" style="stop-color:#FFFFFF"/>
				<stop  offset="1" style="stop-color:#E6E7E8"/>
			</radialGradient>
			<path fill="url(#SVGID_3_)" d="M-63,417c-4.932,0.821-4.195,12.463,4,7C-56,422-57,416-63,417z"/>
		</g>
		<path fill="#7DA7C0" d="M-41,416c0,0,25,12,29-4S-41,416-41,416z"/>
	</g>
	<g>
		<path fill="#DA93C0" d="M526.999,170.332c0,0-5.494-2.594-12.686-2.525c-2.314,0.022-0.647-9.475-0.647-9.475
			s-10.242,11.8-12.007,12.811c-4.312,2.471-8.516,6.583-11.993,13.189c14.667,4.667,30-0.666,40-10.666c8,8.666,16,3.333,16,3.333
			l-10.667-6.667v-14L526.999,170.332z"/>
		<circle fill="#FFFFFF" cx="496" cy="180.666" r="1.667"/>
		<path fill="#B26D8D" d="M503.666,178.332c0,0,13.333,8,13.333-1.333S503.666,178.332,503.666,178.332z"/>
	</g>
	<g>
		<path fill="#DA93C0" d="M580.999,183.666c0,0-5.494-2.594-12.686-2.525c-2.314,0.022-0.647-9.475-0.647-9.475
			s-10.242,11.8-12.007,12.811c-4.312,2.471-8.516,6.583-11.993,13.189c14.667,4.667,30-0.666,40-10.666c8,8.666,16,3.333,16,3.333
			l-10.667-6.667v-14L580.999,183.666z"/>
		<circle fill="#FFFFFF" cx="550" cy="194" r="1.667"/>
		<path fill="#B26D8D" d="M557.666,191.666c0,0,13.333,8,13.333-1.333S557.666,191.666,557.666,191.666z"/>
	</g>
	<g>
		<path fill="#DA93C0" d="M518.999,201.666c0,0-5.494-2.594-12.686-2.525c-2.314,0.022-0.647-9.475-0.647-9.475
			s-10.242,11.8-12.007,12.811c-4.312,2.471-8.516,6.583-11.993,13.189c14.667,4.667,30-0.666,40-10.666c8,8.666,16,3.333,16,3.333
			l-10.667-6.667v-14L518.999,201.666z"/>
		<circle fill="#FFFFFF" cx="488" cy="212" r="1.667"/>
		<path fill="#B26D8D" d="M495.666,209.666c0,0,13.333,8,13.333-1.333S495.666,209.666,495.666,209.666z"/>
	</g>
	<g>
		<path fill="#DA93C0" d="M462.999,163.666c0,0-5.494-2.594-12.686-2.525c-2.314,0.022-0.647-9.475-0.647-9.475
			s-10.242,11.8-12.007,12.811c-4.312,2.471-8.516,6.583-11.993,13.189c14.667,4.667,30-0.666,40-10.666c8,8.666,16,3.333,16,3.333
			l-10.667-6.667v-14L462.999,163.666z"/>
		<circle fill="#FFFFFF" cx="432" cy="174" r="1.667"/>
		<path fill="#B26D8D" d="M439.666,171.666c0,0,13.333,8,13.333-1.333S439.666,171.666,439.666,171.666z"/>
	</g>
	<g>
		<path fill="#DA93C0" d="M462.332,198.334c0,0-5.494-2.595-12.686-2.525c-2.314,0.021-0.647-9.475-0.647-9.475
			s-10.242,11.799-12.007,12.809c-4.312,2.471-8.516,6.584-11.993,13.191c14.667,4.666,30-0.667,40-10.667
			c8,8.667,16,3.333,16,3.333l-10.667-6.666v-14L462.332,198.334z"/>
		<circle fill="#FFFFFF" cx="431.333" cy="208.666" r="1.667"/>
		<path fill="#B26D8D" d="M438.999,206.333c0,0,13.333,8.001,13.333-1.333S438.999,206.333,438.999,206.333z"/>
	</g>
	<g>
		<path fill="#DA93C0" d="M404.999,187.666c0,0-5.494-2.594-12.686-2.525c-2.314,0.021-0.647-9.475-0.647-9.475
			s-10.242,11.799-12.007,12.81c-4.312,2.471-8.516,6.583-11.993,13.19c14.667,4.666,30-0.666,40-10.666c8,8.666,16,3.332,16,3.332
			l-10.667-6.666v-14L404.999,187.666z"/>
		<circle fill="#FFFFFF" cx="374" cy="197.999" r="1.667"/>
		<path fill="#B26D8D" d="M381.666,195.666c0,0,13.333,8,13.333-1.334C394.999,184.999,381.666,195.666,381.666,195.666z"/>
	</g>
	<g>
		<path fill="#DA93C0" d="M350.333,203.666c0,0-5.494-2.594-12.686-2.525c-2.314,0.021-0.647-9.475-0.647-9.475
			s-10.242,11.799-12.007,12.81c-4.312,2.471-8.516,6.583-11.993,13.19c14.667,4.666,30-0.666,40-10.666c8,8.666,16,3.332,16,3.332
			l-10.667-6.666v-14L350.333,203.666z"/>
		<circle fill="#FFFFFF" cx="319.334" cy="213.999" r="1.667"/>
		<path fill="#B26D8D" d="M327,211.666c0,0,13.333,8,13.333-1.334C340.333,200.999,327,211.666,327,211.666z"/>
	</g>
	<g>
		<path fill="#DA93C0" d="M326.333,233.666c0,0-5.494-2.594-12.686-2.525c-2.314,0.021-0.647-9.475-0.647-9.475
			s-10.242,11.799-12.007,12.81c-4.312,2.471-8.516,6.583-11.993,13.19c14.667,4.666,30-0.666,40-10.666c8,8.666,16,3.332,16,3.332
			l-10.667-6.666v-14L326.333,233.666z"/>
		<circle fill="#FFFFFF" cx="295.334" cy="243.999" r="1.667"/>
		<path fill="#B26D8D" d="M303,241.666c0,0,13.333,8,13.333-1.334C316.333,230.999,303,241.666,303,241.666z"/>
	</g>
	<g>
		<path fill="#DA93C0" d="M329,254.999c0,0-5.494-2.595-12.686-2.525c-2.314,0.022-0.647-9.475-0.647-9.475
			s-10.242,11.8-12.007,12.81c-4.312,2.471-8.516,6.584-11.993,13.19c14.667,4.667,30-0.667,40-10.667c8,8.667,16,3.334,16,3.334
			L337,254.999v-14L329,254.999z"/>
		<circle fill="#FFFFFF" cx="298.001" cy="265.332" r="1.667"/>
		<path fill="#B26D8D" d="M305.667,262.998c0,0,13.333,8.001,13.333-1.332C319,252.332,305.667,262.998,305.667,262.998z"/>
	</g>
	<g>
		<path fill="#DA93C0" d="M381.666,262.999c0,0-5.494-2.595-12.686-2.525c-2.314,0.022-0.647-9.475-0.647-9.475
			s-10.242,11.8-12.007,12.81c-4.312,2.471-8.516,6.584-11.993,13.19c14.667,4.667,30-0.667,40-10.667c8,8.667,16,3.334,16,3.334
			l-10.667-6.667v-14L381.666,262.999z"/>
		<circle fill="#FFFFFF" cx="350.667" cy="273.332" r="1.667"/>
		<path fill="#B26D8D" d="M358.333,270.998c0,0,13.333,8.001,13.333-1.332C371.666,260.332,358.333,270.998,358.333,270.998z"/>
	</g>
	<g>
		<g>
			<path fill="#DDE222" d="M250.61,581.902c-69.279-8.961-101.166,6.605-123.211,31.48C209.984,653.902,255,589,255,589
				s17.206,19.104,66.017,18.488c-37.471-13.287-51.633-24.562-51.633-24.562s15.312-21.227,40.816-23.855
				C276.771,543.596,250.61,581.902,250.61,581.902z"/>
			
				<radialGradient id="SVGID_4_" cx="-1254.7764" cy="1482.6416" r="4.322" gradientTransform="matrix(1.1334 0.2471 -0.213 0.9771 1890.1587 -534)" gradientUnits="userSpaceOnUse">
				<stop  offset="0" style="stop-color:#FFFFFF"/>
				<stop  offset="1" style="stop-color:#E6E7E8"/>
			</radialGradient>
			<path fill="url(#SVGID_4_)" d="M151.634,600.242c-5.765-0.416-7.406,11.143,3.044,7.828
				C158.502,606.859,158.647,600.748,151.634,600.242z"/>
		</g>
		<path fill="#95C93D" d="M176.781,604.703c0,0,25.78,17.9,33.721,3.256S176.781,604.703,176.781,604.703z"/>
	</g>
	<g>
		<g>
			<path fill="#DDE222" d="M706.829,796.199c-69.279-8.961-101.166,6.605-123.211,31.48c82.585,40.52,127.601-24.383,127.601-24.383
				s17.206,19.104,66.017,18.488c-37.471-13.287-51.633-24.562-51.633-24.562s15.312-21.227,40.816-23.855
				C732.989,757.893,706.829,796.199,706.829,796.199z"/>
			
				<radialGradient id="SVGID_5_" cx="-831.1694" cy="1594.834" r="4.3217" gradientTransform="matrix(1.1334 0.2471 -0.213 0.9771 1890.1587 -534)" gradientUnits="userSpaceOnUse">
				<stop  offset="0" style="stop-color:#FFFFFF"/>
				<stop  offset="1" style="stop-color:#E6E7E8"/>
			</radialGradient>
			<path fill="url(#SVGID_5_)" d="M607.853,814.539c-5.765-0.416-7.406,11.143,3.044,7.828
				C614.721,821.156,614.866,815.045,607.853,814.539z"/>
		</g>
		<path fill="#95C93D" d="M633,819c0,0,25.78,17.9,33.721,3.256S633,819,633,819z"/>
	</g>
</g>
<g id="Layer_1" display="none">
	<polygon display="inline" fill="#009444" points="851.191,443.854 876.009,422.138 844.367,439.51 	"/>
	<polygon display="inline" fill="#009444" points="825.754,408.488 845.607,377.467 818.93,404.146 	"/>
	<polygon display="inline" fill="#009444" points="778.602,385.533 787.288,349.548 771.776,381.189 	"/>
	<polygon display="inline" fill="#009444" points="737.653,373.124 733.931,340.862 728.968,374.365 	"/>
	<polygon display="inline" fill="#009444" points="688.64,386.153 672.508,355.752 679.954,387.395 	"/>
	<polygon display="inline" fill="#009444" points="644.589,424.62 614.809,406.627 637.144,427.102 	"/>
	<polygon display="inline" fill="#D4A94E" points="669.406,603.303 658.239,631.223 676.231,605.164 	"/>
	<polygon display="inline" fill="#D4A94E" points="846.229,566.698 864.221,579.727 851.191,564.837 	"/>
	<polygon display="inline" fill="#D4A94E" points="814.586,590.274 835.682,611.989 817.689,585.932 	"/>
	<polygon display="inline" fill="#D4A94E" points="746.339,617.573 753.784,647.354 751.923,615.712 	"/>
	<polygon display="inline" fill="#D4A94E" points="713.456,620.675 712.837,646.733 721.522,618.193 	"/>
	<radialGradient id="SVGID_6_" cx="703.3569" cy="405.7031" r="193.5205" gradientUnits="userSpaceOnUse">
		<stop  offset="8.370500e-04" style="stop-color:#AEC99D"/>
		<stop  offset="0.4059" style="stop-color:#31B457"/>
		<stop  offset="0.7261" style="stop-color:#008544"/>
		<stop  offset="1" style="stop-color:#006A30"/>
	</radialGradient>
	<path display="inline" fill="url(#SVGID_6_)" d="M650.793,587.792c47.153,44.671,119.122,38.467,157.588,11.168
		s74.452-54.598,52.116-131.53c-22.336-76.934-75.684-95.041-135.253-94.306c-50.255,0.621-94.305,44.671-114.159,94.306
		C611.086,467.43,603.641,543.121,650.793,587.792z"/>
	<path display="inline" fill="#107139" d="M814.586,496.59c-6.46,1.33,1.242,12.408,14.891,16.751
		c13.65,4.343,19.233,40.948,19.233,40.948s8.687-6.824,11.788-12.408c3.103-5.584,5.584-20.475,5.584-20.475
		S835.682,492.246,814.586,496.59z"/>
	<path display="inline" fill="#107139" d="M647.071,514.582c0,0-42.189-99.269-129.049-89.342
		c76.933,26.679,73.21,96.787,35.985,129.049c76.933-16.131,79.415,50.255,54.598,114.159
		C659.479,610.128,671.888,590.274,647.071,514.582z"/>
	<radialGradient id="SVGID_7_" cx="568.9185" cy="441.7593" r="95.8901" gradientUnits="userSpaceOnUse">
		<stop  offset="8.370500e-04" style="stop-color:#AEC99D"/>
		<stop  offset="0.4059" style="stop-color:#31B457"/>
		<stop  offset="0.7261" style="stop-color:#008544"/>
		<stop  offset="1" style="stop-color:#006A30"/>
	</radialGradient>
	<path display="inline" fill="url(#SVGID_7_)" d="M521.201,427.468c0,0,91.746-2.228,132.145,118.186
		C642.178,469.345,579.829,416.301,521.201,427.468z"/>
	<radialGradient id="SVGID_8_" cx="889.7168" cy="481.4072" r="96.5522" gradientUnits="userSpaceOnUse">
		<stop  offset="8.370500e-04" style="stop-color:#AEC99D"/>
		<stop  offset="0.4059" style="stop-color:#31B457"/>
		<stop  offset="0.9702" style="stop-color:#008042"/>
	</radialGradient>
	<path display="inline" fill="url(#SVGID_8_)" d="M822.715,478.651c35.362-20.474,97.066-18.159,115.395,11.167
		c9.305,14.89-30.906,42.65-45.6,41.877c-17.682-0.93-27.92-23.267-64.212-23.266C815.137,508.43,797.12,493.469,822.715,478.651z"
		/>
	<path display="inline" fill="none" stroke="#006028" stroke-width="1.4525" stroke-miterlimit="10" d="M838.535,484.234
		c0,0,40.946-19.542,84.684,8.376"/>
	<path display="inline" fill="none" stroke="#006028" stroke-width="1.4525" stroke-miterlimit="10" d="M838.535,498.193
		c0,0,25.126-8.375,67.002,14.89"/>
	<ellipse display="inline" fill="#107139" cx="648.932" cy="446.024" rx="3.723" ry="2.172"/>
	<ellipse display="inline" fill="#107139" cx="677.782" cy="439.2" rx="5.894" ry="3.257"/>
	<ellipse display="inline" fill="#107139" cx="707.252" cy="409.109" rx="4.963" ry="3.102"/>
	<ellipse display="inline" fill="#107139" cx="773.018" cy="415.934" rx="6.204" ry="4.344"/>
	<ellipse display="inline" fill="#107139" cx="777.051" cy="390.496" rx="2.792" ry="0.621"/>
	<ellipse display="inline" fill="#107139" cx="833.2" cy="428.652" rx="3.8" ry="2.133"/>
	<ellipse display="inline" fill="#107139" cx="662.892" cy="409.109" rx="2.792" ry="2.481"/>
	<ellipse display="inline" fill="#107139" cx="734.241" cy="381.5" rx="5.273" ry="2.172"/>
	<path display="inline" fill="#D8E040" d="M863.601,536.297c0,0-29.16,50.875-91.824,67.006c-71.477,18.4-102.99,0-102.99,0
		s49.014,39.087,120.983,9.307S863.601,536.297,863.601,536.297z"/>
	<radialGradient id="SVGID_9_" cx="761.2295" cy="586.8105" r="69.8038" gradientUnits="userSpaceOnUse">
		<stop  offset="0" style="stop-color:#DCCE80"/>
		<stop  offset="1" style="stop-color:#D7B928"/>
	</radialGradient>
	<path display="inline" fill="url(#SVGID_9_)" d="M853.053,550.566c0,0-24.191,37.863-86.859,53.978
		c-65.146,16.752-96.787-1.241-96.787-1.241s48.097,38.443,114.779,8.066C840.023,585.932,853.053,550.566,853.053,550.566z"/>
	<path display="inline" fill="#009444" d="M749.442,375.606c0,0,4.963,3.722,16.131,3.102c-2.482-9.927,4.342-107.954,4.342-107.954
		S758.748,348.928,749.442,375.606z"/>
	<path display="inline" fill="#009444" d="M696.705,380.569c0,0,10.548-0.62,17.372-6.204c-9.927-14.891-34.124-87.48-34.124-87.48
		S694.844,347.687,696.705,380.569z"/>
	<path display="inline" fill="#009444" d="M667.545,392.979l-9.927,8.065c0,0-16.751-35.985-34.124-59.562
		C645.209,371.263,667.545,392.979,667.545,392.979z"/>
	<path display="inline" fill="#009444" d="M799.075,388.015c0,0,4.965,6.204,13.029,8.686c1.241-6.824,37.847-86.239,37.847-86.239
		S813.967,376.227,799.075,388.015z"/>
	<path display="inline" fill="#009444" d="M834.44,417.175c0,0,0.62,4.963,6.204,11.168c3.723-7.445,65.766-54.598,65.766-54.598
		S849.33,412.211,834.44,417.175z"/>
	<path display="inline" fill="#009444" d="M719.04,399.803c0,0-3.723-58.32-9.306-107.954
		c7.444,41.568,22.335,107.334,22.335,107.334L719.04,399.803z"/>
	<path display="inline" fill="#009444" d="M684.297,433.306l16.131-4.963c0,0-34.744-65.146-50.254-97.407
		C663.823,366.3,684.297,433.306,684.297,433.306z"/>
	<polygon display="inline" fill="#009444" points="672.508,455.021 665.063,463.707 612.947,420.277 	"/>
	<path display="inline" fill="#009444" d="M650.173,420.277l9.306-9.307c0,0-21.715-6.825-60.802-34.124
		C634.042,402.905,650.173,420.277,650.173,420.277z"/>
	<path display="inline" fill="#009444" d="M631.56,440.131c0,0-19.854-1.861-53.356-22.336
		c29.16,19.233,45.291,34.124,45.291,34.124L631.56,440.131z"/>
	<path display="inline" fill="#009444" d="M771.776,404.146l13.65,3.723c0,0,8.686-49.014,17.992-88.101
		C792.251,352.65,771.776,404.146,771.776,404.146z"/>
	<path display="inline" fill="#009444" d="M747.581,456.882c0,0,13.028-13.028,19.232-29.16c-1.24,17.993-6.824,33.503-6.824,33.503
		S751.303,467.43,747.581,456.882z"/>
	<path display="inline" fill="#009444" d="M741.376,491.626c-12.408-2.481-9.307,12.408-2.481,12.408
		S752.001,493.751,741.376,491.626z"/>
	<path display="inline" fill="#009444" d="M720.901,535.056c0,0,7.445-10.547,10.548,3.723
		c-6.825,17.372-17.372,40.948-17.372,40.948S719.04,554.91,720.901,535.056z"/>
	<polygon display="inline" fill="#009444" points="709.114,584.07 691.122,661.003 720.901,588.413 	"/>
	<path display="inline" fill="#009444" d="M699.187,476.735l-19.233,14.891l25.438-6.204
		C705.392,485.422,708.493,474.254,699.187,476.735z"/>
	<path display="inline" fill="#009444" d="M679.954,520.166l-25.438,9.927l18.613-19.233
		C673.129,510.859,678.713,515.202,679.954,520.166z"/>
	<path display="inline" fill="#009444" d="M802.179,475.495l22.955-9.307l-26.059-1.241
		C799.075,464.947,793.492,470.531,802.179,475.495z"/>
	<path display="inline" fill="#009444" d="M763.091,536.917c0,0,6.205-13.649,13.65-5.584c5.583,25.438,6.824,45.912,6.824,45.912
		L763.091,536.917z"/>
	<polygon display="inline" fill="#009444" points="777.36,580.968 799.696,639.908 789.77,577.245 	"/>
	<polygon display="inline" fill="#D4A94E" points="687.399,611.989 676.852,656.66 694.844,615.091 	"/>
	<polygon display="inline" fill="#D4A94E" points="728.968,615.712 729.588,674.652 735.792,615.712 	"/>
	<polygon display="inline" fill="#D4A94E" points="766.193,613.851 781.704,670.93 771.776,611.369 	"/>
	<polygon display="inline" fill="#D4A94E" points="801.558,600.821 828.856,640.529 806.521,595.858 	"/>
	<path display="inline" fill="#D4A94E" d="M830.718,576.625c0,0,3.723-3.723,5.584-3.723c1.86,0,32.263,35.984,30.401,35.984
		S830.718,576.625,830.718,576.625z"/>
	<polygon display="inline" fill="#D4A94E" points="856.775,556.15 884.074,572.902 861.119,549.946 	"/>
	<path display="inline" fill="#009444" d="M692.983,530.093l-25.438,45.911l35.985-40.948
		C703.53,535.056,706.632,523.889,692.983,530.093z"/>
	<polygon display="inline" fill="#009444" points="679.954,576.625 641.487,645.492 689.261,581.588 	"/>
	<polygon display="inline" fill="#009444" points="853.674,459.984 905.17,440.131 850.571,450.058 	"/>
	<polygon display="inline" fill="#009444" points="798.456,435.167 844.988,384.912 803.419,440.131 	"/>
	<polygon display="inline" fill="#009444" points="857.396,529.473 897.104,556.15 857.396,536.917 	"/>
	<circle display="inline" fill="#FFFFFF" cx="825.041" cy="317.191" r="7.91"/>
	<circle display="inline" fill="#FFFFFF" cx="838.534" cy="286.947" r="5.583"/>
	<circle display="inline" fill="#FFFFFF" cx="822.714" cy="292.531" r="2.327"/>
	<circle display="inline" fill="#FFFFFF" cx="821.783" cy="260.891" r="1.861"/>
	<circle display="inline" fill="#FFFFFF" cx="821.318" cy="244.605" r="5.118"/>
	<circle display="inline" fill="#FFFFFF" cx="839.931" cy="266.939" r="3.257"/>
	<circle display="inline" fill="#FFFFFF" cx="805.032" cy="216.222" r="1.861"/>
	<circle display="inline" fill="#FFFFFF" cx="818.061" cy="202.263" r="1.861"/>
	<circle display="inline" fill="#FFFFFF" cx="839.93" cy="185.047" r="6.048"/>
	<circle display="inline" fill="#FFFFFF" cx="818.992" cy="164.109" r="1.861"/>
	<circle display="inline" fill="#FFFFFF" cx="810.151" cy="339.526" r="1.396"/>
	<circle display="inline" fill="#FFFFFF" cx="855.285" cy="277.642" r="2.326"/>
</g>
<g id="germ">
	<g>
		<path fill="#86A1AD" d="M1225.315,646.462c0,0-19.888,10.038-35.441-9.105c-15.555-19.145,56.234-163.919,104.093-205.796
			c47.86-41.877,137.597-44.27,137.597-44.27l14.358,62.217L1225.315,646.462z"/>
		<path fill="#BE1E2D" d="M1225.315,646.462c0,0-19.888,10.038-35.441-9.105c-15.555-19.145,56.234-163.919,104.093-205.796
			c47.86-41.877,137.597-44.27,137.597-44.27l14.358,62.217L1225.315,646.462z"/>
	</g>
	<path fill="#FFFFFF" d="M1221.726,648.855c0,0-51.052,0.532-72.855-59.561c50.521,23.398,87.215,26.058,87.215,26.058
		s-14.359-12.764-23.932-60.625c39.886,20.74,73.388,28.718,73.388,28.718s-4.785-27.123-6.38-55.84
		c26.589,20.739,51.052,6.381,51.052,6.381l-1.547-41.405l33.986,0.458l10.104-30.313h22.869L1221.726,648.855z"/>
	<path fill="#FFFFFF" d="M1013.128,499.686c0,0,63.816,70.198,127.632,102.106c-25.526-49.458-23.931-87.747-23.931-87.747
		s14.358,44.671,81.364,70.196c-21.271-48.393,1.596-87.747,1.596-87.747s10.105,28.187,62.752,60.094
		c-3.19-41.48,5.851-70.196,5.851-70.196s10.636,17.55,49.458,33.504c-7.978-36.695,1.062-49.458,1.062-49.458l45.203,11.7v-30.312
		l25.526,1.063l15.954-20.208L1013.128,499.686z"/>
	<path fill="#4A6A7F" d="M1469.411,159.867c-154.988,20.394-339.757,108.171-429.099,164.01
		c-89.342,55.839-111.74,86.468-121.312,97.636c60.625,79.769,61.579,88.059,143.586,92.533
		c87.747,4.786,343.01-81.365,343.01-81.365s-121.25,186.661-216.974,208.997c110.082,47.862,264.835,43.076,392.467,17.549
		c127.632-25.526,31.908-483.405,31.908-483.405S1590.661,143.914,1469.411,159.867z"/>
	<ellipse cx="1234.487" cy="368.864" rx="14.358" ry="21.537"/>
	<ellipse cx="1025.956" cy="367.099" rx="11.667" ry="17.5"/>
	<path fill="#9EC4D8" d="M919,421.512c0,0,226.996,73.464,349.842,20.817c122.846-52.648,325.01-148.449,377.659-116.542
		c25.525,111.678,30.312,309.507-39.886,343.01s-325.46,19.146-417.993-27.121c95.724-35.1,154.753-118.06,226.546-215.378
		c-68.706,43.722-328.742,102.339-410.018,81.364C955.694,494.9,925.382,436.668,919,421.512z"/>
	<path fill="#3F515B" d="M998.77,498.091c0,0,178.335,2.47,286.823-48.583c108.486-51.052,268.374-139.673,378.456-110.956
		c-9.572-35.098-22.335-51.053-19.145-52.648c3.192-1.596-209.453,67.674-310.256,121.727
		c-56.289,30.183-111.131,48.98-167.5,62.275C1113.281,482.611,1058.02,490.295,998.77,498.091z"/>
	<path fill="#86A1AD" d="M946.919,428.691c0,0,24.333,72.59,87.747,82.162c59.012,8.908,164.346-0.973,248.085-30.312
		c134.812-47.233,120.451-63.816,171.504-47.862c-55.839,108.486-96.521,152.36-238.512,207.401
		c106.892,47.862,349.392,78.174,430.758,11.168c81.364-67.008,59.029-272.813,15.954-320.675
		c-102.107-3.191-253.222,53.922-336.182,98.593C1243.312,473.838,1056.267,466.258,946.919,428.691z"/>
	<ellipse fill="#FFFFFF" cx="1023.498" cy="377.24" rx="3.988" ry="6.78"/>
	<ellipse fill="#FFFFFF" cx="1230.501" cy="381.104" rx="5.235" ry="8.899"/>
</g>
<g id="bo_-_sammy_-_tuna">
	<g>
		<g>
			<path fill="#AA3A32" d="M527.368,665.865c4.139-10.887,45.226-54.324,69.326-48.627c24.103,5.697,11.933,14.229-1.018,14.854
				c-12.954,0.623,8.561,5.352-4.121,6.795c-12.685,1.444-8.484,7.325-20.069,6.591c-11.581-0.733,2.299,4.237-8.478,5.962
				c-10.775,1.721-4.785,3.385-11.472,5.128c-6.688,1.742-3.044,10.072-4.547,11.02c-1.503,0.948,3.941,2.334,10.635-0.77
				c6.692-3.107-0.708,6.13,8.437,3.581c9.144-2.549,5.153,6.02,13.071,2.512c7.924-3.507-0.279,1.908,10.088,0.319
				c10.366-1.59,6.796,4.117,11.436,3.047c4.64-1.068,16.113-6.198,19.242-4.956c3.13,1.242,6.442,22.384-13.595,22.158
				c-20.034-0.227-57.09-5.299-72.327-11.637C518.737,675.504,527.368,665.865,527.368,665.865z"/>
			<path fill="#861015" d="M539.881,682.323c0,0,3.605-13.889,3.638-21.157c0.033-7.27-0.678-11.271,5.591-10.607
				c6.268,0.665,3.63,0.924,9.913-2.048c6.285-2.97,1.207-5.534,10.303-7.313c9.093-1.777,2.111-4.625,8.112-5.688
				c6.004-1.063-1.159-5.367,6.39-6.332c7.545-0.965,15.18-0.749,18.816-1.644c3.641-0.892,8.174,0.945,6.92-2.876
				c-1.255-3.822-11.854-11.231-25.594-7.021c-13.742,4.211-51.137,34.942-56.642,46.729
				C521.824,676.155,539.881,682.323,539.881,682.323z"/>
			<path fill="#861015" d="M547.302,668.997c0,0,4.728-0.342,8.55-1.598c3.821-1.255,9.022-5.685,7.372-2.42
				c-1.651,3.265,1.893,3.007,2.838,5.42c0.942,2.414,7.326-2.102,7.76,1.989c0.437,4.091,5.375-2.976,9.462-2.502
				c4.085,0.471,4.072,4.105,7.252,3.664c3.184-0.438,5.302-6.881,7.458-1.236c2.157,5.644,3.167,3.194,3.167,3.194
				s10.391-7.042,14.478-6.569c4.085,0.473,8.451-0.053,5.42,7.293c-3.035,7.348-4.311,8.979-12.303,7.671
				c-7.988-1.308-14.802-1.794-25.252-2.294c-10.449-0.502-17.537-0.896-21.971-4.278c-4.438-3.382-9.093,0.867-11.447-0.779
				C547.729,674.907,547.302,668.997,547.302,668.997z"/>
			
				<line fill="none" stroke="#861015" stroke-width="0.8621" stroke-miterlimit="10" x1="576.273" y1="631.96" x2="587.992" y2="632.648"/>
			
				<line fill="none" stroke="#861015" stroke-width="0.8621" stroke-miterlimit="10" x1="573.889" y1="636.676" x2="590.336" y2="637.021"/>
			
				<line fill="none" stroke="#861015" stroke-width="0.8621" stroke-miterlimit="10" x1="566.331" y1="640.367" x2="580.772" y2="641.978"/>
			
				<line fill="none" stroke="#861015" stroke-width="0.8621" stroke-miterlimit="10" x1="561.042" y1="644.524" x2="568.311" y2="644.556"/>
			
				<line fill="none" stroke="#861015" stroke-width="0.8621" stroke-miterlimit="10" x1="554.575" y1="647.856" x2="563.112" y2="648.986"/>
			
				<line fill="none" stroke="#861015" stroke-width="0.8621" stroke-miterlimit="10" x1="542.834" y1="651.713" x2="556.008" y2="652.225"/>
			
				<line fill="none" stroke="#861015" stroke-width="0.8621" stroke-miterlimit="10" x1="542.721" y1="656.892" x2="549.994" y2="656.015"/>
		</g>
		<g>
			<g>
				<path fill="#FBB040" d="M355.083,646.56c0,0,30.332-26.066,41.617-30.507c11.286-4.443-6.151,8.689-6.158,11.4
					c-0.009,2.711,8.564-1.737,18.588-2.558s13.654-2.271,11.754,1.288c-1.899,3.557-0.08,6.061,6.835,5.32
					c6.918-0.738,13.15,2.846,13.359,4.674c0.206,1.828,1.305,1.162,8.187,2.099c6.88,0.936,12.267,2.629,11.105,3.935
					c-1.162,1.305,4.558,3.548,9.061,5.024c4.503,1.479,6.691,2.855,5.927,4.072c-0.766,1.216,6.568,4.132,4.035,4.916
					C476.862,657.009,355.083,646.56,355.083,646.56z"/>
				
					<line fill="none" stroke="#EF4136" stroke-width="1.7242" stroke-miterlimit="10" x1="466.386" y1="646.679" x2="451.139" y2="652.02"/>
				<path fill="none" stroke="#EF4136" stroke-width="1.7242" stroke-miterlimit="10" d="M456.651,643.265
					c0,0-12.564,4.316-13.023,5.045"/>
				
					<line fill="none" stroke="#EF4136" stroke-width="1.7242" stroke-miterlimit="10" x1="447.553" y1="639.916" x2="430.253" y2="649.059"/>
				
					<line fill="none" stroke="#EF4136" stroke-width="1.7242" stroke-miterlimit="10" x1="438.304" y1="636.81" x2="422.858" y2="646.78"/>
				
					<line fill="none" stroke="#EF4136" stroke-width="1.7242" stroke-miterlimit="10" x1="430.784" y1="635.811" x2="415.735" y2="645.691"/>
				
					<line fill="none" stroke="#EF4136" stroke-width="1.7242" stroke-miterlimit="10" x1="423.055" y1="632.981" x2="406.962" y2="645.602"/>
				
					<line fill="none" stroke="#EF4136" stroke-width="1.7242" stroke-miterlimit="10" x1="416.787" y1="631.072" x2="398.316" y2="644.233"/>
				
					<line fill="none" stroke="#EF4136" stroke-width="1.7242" stroke-miterlimit="10" x1="408.023" y1="628.273" x2="393.379" y2="644.522"/>
				
					<line fill="none" stroke="#EF4136" stroke-width="1.7242" stroke-miterlimit="10" x1="398.818" y1="629.948" x2="385.643" y2="644.405"/>
				
					<line fill="none" stroke="#EF4136" stroke-width="1.7242" stroke-miterlimit="10" x1="390.498" y1="631.839" x2="380.248" y2="645.422"/>
				
					<line fill="none" stroke="#EF4136" stroke-width="1.7242" stroke-miterlimit="10" x1="390.279" y1="623.554" x2="372.972" y2="644.577"/>
				
					<line fill="none" stroke="#EF4136" stroke-width="1.7242" stroke-miterlimit="10" x1="377.365" y1="632.74" x2="367.424" y2="645.838"/>
				
					<line fill="none" stroke="#EF4136" stroke-width="1.7242" stroke-miterlimit="10" x1="368.936" y1="639.659" x2="362.604" y2="647.559"/>
			</g>
			<path opacity="0.4" fill="#AA3A32" d="M356.273,646.289c0,0,31.352-11.505,53.281-11.278
				c21.932,0.222,62.455,16.223,62.455,16.223S405.061,630.82,356.273,646.289z"/>
		</g>
		<path fill="#AA3A32" d="M327.726,764.007c0,0-2.714,14.796,15.346,22.954c18.061,8.159,30.329,12.857,54.99,7.534
			c23.981-5.177,67.147-33.199,67.147-33.199s-48.137,25.932-64.529,28.153c-12.039,1.631-20.067,6.029-34.38,1.54
			c-14.313-4.492-34.998-5.038-35.111-28.088C329.242,762.186,327.726,764.007,327.726,764.007z"/>
		<path fill="#AA3A32" d="M333.307,765.422c0.064,0.905,8.647,10.229,32.304,16.305c23.658,6.077,35.354-2.49,45.279,3.915
			c9.925,6.406,32.959,1.047,32.959,1.047s-20.616,8.65-30.621,3.707c-10.005-4.942-25.691-3.927-39.839-4.297
			c-14.146-0.369-33.95-9.906-42.81-19.302C329.831,763.936,333.307,765.422,333.307,765.422z"/>
		
			<radialGradient id="SVGID_10_" cx="1178.4619" cy="402.6079" r="158.7267" gradientTransform="matrix(-0.8074 0.5899 0.5899 0.8074 1140.147 -375.2402)" gradientUnits="userSpaceOnUse">
			<stop  offset="0" style="stop-color:#F78F23"/>
			<stop  offset="1" style="stop-color:#B55614"/>
		</radialGradient>
		<path fill="url(#SVGID_10_)" d="M364.5,769.527c0,0,23.478,2.419,38.247-6.59c14.769-9.013,76.275-47.301,95.217-57.37
			c20.759-11.034,23.102-10.724,34.452-17.593c11.353-6.867,20.866-26.649-4.165-27.336c-35.13-0.967-83.664-17.443-120.481-19.95
			c-48.056-3.276-92.129,5.454-94.301,18.073C311.299,671.378,364.5,769.527,364.5,769.527z"/>
		
			<radialGradient id="SVGID_11_" cx="1318.5273" cy="388.9062" r="103.8256" gradientTransform="matrix(-0.8074 0.5899 0.5899 0.8074 1140.147 -375.2402)" gradientUnits="userSpaceOnUse">
			<stop  offset="0" style="stop-color:#FECC8A"/>
			<stop  offset="0.6608" style="stop-color:#F79328"/>
			<stop  offset="1" style="stop-color:#F26526"/>
		</radialGradient>
		<path fill="url(#SVGID_11_)" d="M290.569,747.735c-6.406-5.339-5.715-43.869,2.374-65.437
			c8.085-21.569,24.355-30.963,34.225-29.633c9.869,1.332,23.781-3.494,48.899,33.318c25.115,36.812,21.63,76.371,17.141,81.431
			s-46.467,6.545-66.195-1.462C307.282,757.945,296.939,753.046,290.569,747.735z"/>
		
			<radialGradient id="SVGID_12_" cx="1293.0928" cy="392.3545" r="24.1861" gradientTransform="matrix(-0.8074 0.5899 0.5899 0.8074 1140.147 -375.2402)" gradientUnits="userSpaceOnUse">
			<stop  offset="0" style="stop-color:#FECC8A"/>
			<stop  offset="0.6608" style="stop-color:#F79328"/>
			<stop  offset="1" style="stop-color:#F26526"/>
		</radialGradient>
		<path fill="url(#SVGID_12_)" d="M310.615,716.719c8.801,12.046,23.52,16.27,32.875,9.437c9.354-6.835,9.804-22.141,1.003-34.187
			c-8.8-12.049-23.52-16.27-32.874-9.438C302.265,689.365,301.815,704.673,310.615,716.719z"/>
		
			<radialGradient id="SVGID_13_" cx="1291.0811" cy="392.6411" r="24.1854" gradientTransform="matrix(-0.8074 0.5899 0.5899 0.8074 1140.147 -375.2402)" gradientUnits="userSpaceOnUse">
			<stop  offset="0" style="stop-color:#FFFFFF"/>
			<stop  offset="1" style="stop-color:#E6E7E8"/>
		</radialGradient>
		<path fill="url(#SVGID_13_)" d="M312.41,715.764c8.801,12.047,23.519,16.271,32.873,9.436c9.355-6.835,9.804-22.14,1.003-34.186
			c-8.801-12.047-23.519-16.271-32.874-9.437C304.059,688.412,303.607,703.719,312.41,715.764z"/>
		
			<ellipse transform="matrix(-0.8075 0.5899 -0.5899 -0.8075 1020.9803 1058.4631)" cx="337.76" cy="695.845" rx="9.77" ry="14.079"/>
		
			<ellipse transform="matrix(-0.8075 0.5899 -0.5899 -0.8075 1023.6074 1049.5999)" fill="#FFFFFF" cx="340.536" cy="691.827" rx="4.31" ry="4.598"/>
		<path fill="none" stroke="#EF4136" stroke-width="1.7242" stroke-miterlimit="10" d="M287.705,742.354
			c12.029-5.943,31.09,1.081,52.007,1.459c20.918,0.378,26.488,6.027,30.934,12.334"/>
		<path fill="none" stroke="#932218" stroke-width="0.8621" stroke-miterlimit="10" d="M339.866,652.998
			c0,0,22.728,7.24,42.962,43.705c20.235,36.463,12.047,70.561,12.047,70.561"/>
		<path opacity="0.4" fill="#AA3A32" d="M542.185,677.526c0,0-4.963,9.948-46.042,29.203c-41.077,19.254-64.757,39.324-82.312,49.61
			c-12.439,7.292-25.337,20.072-71.242,13.316c40.761-2.021,35.797,6.268,58.15-14.463c22.351-20.733,61.275-41.477,85.791-52.433
			C511.043,691.804,539.535,681.176,542.185,677.526z"/>
		<g>
			<path fill="none" stroke="#DF3C32" stroke-width="0.8621" stroke-miterlimit="10" d="M537.218,682.503
				c0,0-81.534-10.869-164.876-2.351"/>
			<path fill="none" stroke="#DF3C32" stroke-width="0.8621" stroke-miterlimit="10" d="M542.177,669.242
				c0,0-97.768-4.89-181.112,0.315"/>
			<path fill="none" stroke="#DF3C32" stroke-width="0.8621" stroke-miterlimit="10" d="M500.245,657.844
				c0,0-98.762-6.217-145.483,1.114"/>
			<path fill="none" stroke="#DF3C32" stroke-width="0.8621" stroke-miterlimit="10" d="M335.533,652.677
				c24.52-4.328,112.506-7.217,112.506-7.217"/>
			<path fill="none" stroke="#DF3C32" stroke-width="0.8621" stroke-miterlimit="10" d="M518.171,693.289
				c0,0-73.247-7.562-137.201,1.107"/>
			<path fill="none" stroke="#DF3C32" stroke-width="0.8621" stroke-miterlimit="10" d="M493.488,702.093
				c0,0-54.685-3.271-103.889,6.548"/>
			<path fill="none" stroke="#DF3C32" stroke-width="0.8621" stroke-miterlimit="10" d="M481.73,711.548
				c0,0-53.021,3.356-87.313,13.16"/>
			<path fill="none" stroke="#DF3C32" stroke-width="0.8621" stroke-miterlimit="10" d="M455.063,724.326
				c0,0-58.317,10.654-61.96,12.977"/>
			<path fill="none" stroke="#DF3C32" stroke-width="0.8621" stroke-miterlimit="10" d="M427.737,741.749
				c-1.657,0.002-30.813,8.642-30.813,8.642"/>
			<path fill="none" stroke="#DF3C32" stroke-width="0.8621" stroke-miterlimit="10" d="M530.572,660.967
				c0,0-3.469,14.421-4.451,29.664"/>
			<path fill="none" stroke="#DF3C32" stroke-width="0.8621" stroke-miterlimit="10" d="M510.188,659.493
				c0,0-6.941,22.208-5.598,42.755"/>
			<path fill="none" stroke="#DF3C32" stroke-width="0.8621" stroke-miterlimit="10" d="M486.656,655.203
				c0,0-5.77,37.287-7.406,62.146"/>
			<path fill="none" stroke="#DF3C32" stroke-width="0.8621" stroke-miterlimit="10" d="M466.271,652.07
				c0,0-12.717,49.556-11.702,77.393"/>
			<path fill="none" stroke="#DF3C32" stroke-width="0.8621" stroke-miterlimit="10" d="M439.091,645.135
				c0,0-15.689,63.809-14.33,104.237"/>
			<path fill="none" stroke="#DF3C32" stroke-width="0.8621" stroke-miterlimit="10" d="M411.084,640.685
				c0,0-15.518,70.931-11.663,125.445"/>
			<path fill="none" stroke="#DF3C32" stroke-width="0.8621" stroke-miterlimit="10" d="M389.542,640.701
				c0,0-11.178,19.101-9.407,47.896"/>
			<path fill="none" stroke="#DF3C32" stroke-width="0.8621" stroke-miterlimit="10" d="M364.687,640.721
				c0,0-7.284,7.961-7.604,21.882"/>
		</g>
		<g>
			<path fill="none" stroke="#932218" stroke-width="0.8621" stroke-miterlimit="10" d="M538.211,682.172
				c0,0-81.535-10.871-164.875-2.351"/>
			<path fill="none" stroke="#932218" stroke-width="0.8621" stroke-miterlimit="10" d="M543.172,668.911
				c0,0-97.77-4.892-181.114,0.314"/>
			<path fill="none" stroke="#932218" stroke-width="0.8621" stroke-miterlimit="10" d="M501.24,657.511
				c0,0-98.764-6.216-145.485,1.115"/>
			<path fill="none" stroke="#932218" stroke-width="0.8621" stroke-miterlimit="10" d="M336.528,652.345
				c24.52-4.33,112.505-7.218,112.505-7.218"/>
			<path fill="none" stroke="#932218" stroke-width="0.8621" stroke-miterlimit="10" d="M519.164,692.957
				c0,0-73.246-7.562-137.201,1.107"/>
			<path fill="none" stroke="#932218" stroke-width="0.8621" stroke-miterlimit="10" d="M494.482,701.761
				c0,0-54.685-3.271-103.891,6.547"/>
			<path fill="none" stroke="#932218" stroke-width="0.8621" stroke-miterlimit="10" d="M482.726,711.215
				c0,0-53.021,3.356-87.314,13.162"/>
			<path fill="none" stroke="#932218" stroke-width="0.8621" stroke-miterlimit="10" d="M456.057,723.994
				c0,0-58.317,10.653-61.962,12.977"/>
			<path fill="none" stroke="#932218" stroke-width="0.8621" stroke-miterlimit="10" d="M428.731,741.415
				c-1.656,0.002-30.813,8.644-30.813,8.644"/>
			<path fill="none" stroke="#932218" stroke-width="0.8621" stroke-miterlimit="10" d="M531.565,660.635
				c0,0-3.468,14.419-4.45,29.664"/>
			<path fill="none" stroke="#932218" stroke-width="0.8621" stroke-miterlimit="10" d="M511.183,659.161
				c0,0-6.941,22.209-5.599,42.755"/>
			<path fill="none" stroke="#932218" stroke-width="0.8621" stroke-miterlimit="10" d="M487.649,654.872
				c0,0-5.769,37.286-7.405,62.145"/>
			<path fill="none" stroke="#932218" stroke-width="0.8621" stroke-miterlimit="10" d="M467.265,651.739
				c0,0-12.718,49.556-11.701,77.392"/>
			<path fill="none" stroke="#932218" stroke-width="0.8621" stroke-miterlimit="10" d="M440.084,644.802
				c0,0-15.689,63.81-14.33,104.239"/>
			<path fill="none" stroke="#932218" stroke-width="0.8621" stroke-miterlimit="10" d="M412.078,640.352
				c0,0-15.518,70.933-11.661,125.446"/>
			<path fill="none" stroke="#932218" stroke-width="0.8621" stroke-miterlimit="10" d="M390.536,640.369
				c0,0-11.178,19.1-9.404,47.896"/>
			<path fill="none" stroke="#932218" stroke-width="0.8621" stroke-miterlimit="10" d="M365.682,640.39
				c0,0-7.284,7.959-7.604,21.88"/>
		</g>
		
			<line fill="none" stroke="#DF3C32" stroke-width="0.8621" stroke-miterlimit="10" x1="337.183" y1="644.39" x2="333.215" y2="654.005"/>
		<g>
			<path opacity="0.4" fill="#AA3A32" d="M424.196,686.875c0,0,18.157,21.336,25.705,20.577c7.549-0.757,0.285-3.494-1.954-6.18
				c-2.239-2.685,0.822-3.146,3.487-3.709c2.668-0.564-1.783-3.617-4.39-4.088c-2.608-0.472-0.812-2.522,1.71-3.333
				c2.521-0.811,1.589-1.266-1.803-1.941c-3.395-0.676-9.848-0.891-12.438-3.039C431.923,683.016,415.898,674.417,424.196,686.875z"
				/>
			<path fill="#FBB040" d="M425.389,685.647c0,0,20.218,19.392,27.65,17.876c7.436-1.517-0.069-3.507-2.568-5.952
				c-2.498-2.445,0.5-3.212,3.097-4.044c2.597-0.829-2.141-3.416-4.783-3.622c-2.641-0.204-1.062-2.429,1.366-3.489
				c2.428-1.06,1.455-1.418-1.989-1.75c-3.445-0.329-9.887,0.107-12.681-1.767C432.688,681.024,415.875,674.089,425.389,685.647z"/>
			<path fill="none" stroke="#EF4136" stroke-width="1.7242" stroke-miterlimit="10" d="M448.4,697.661
				c0,0-8.921-3.446-15.972-9.686"/>
			<path fill="none" stroke="#EF4136" stroke-width="1.7242" stroke-miterlimit="10" d="M445.894,691.307
				c0,0-6.424-0.999-11.421-5.892"/>
		</g>
	</g>
	<g>
		<g>
			<g>
				<g>
					<path fill="#FBC8B7" d="M335.418,308.291c0,0-7.188,8.625,17.166,3.872c-1.01,11.509,4.578,15.945,16.875,10.687
						c-5.901,15.503,7.401,11.338,18.28,2.344c-6.908,14.411,2.832,20.071,16.79,12.782c-5.727,11.311,13.49,16.32,13.49,16.32
						s-76.33,54.546-102.912,12.473C318.571,334.36,335.418,308.291,335.418,308.291z"/>
					<path fill="#E2A492" d="M334.796,310.627c0,0-9.948,30.56-8.641,36.917c1.309,6.354,7.875-6.234,7.908-7.02
						c0.034-0.785,12.892-19.408,12.892-19.408s-4.57,15.033-6.343,25.985c-1.773,10.952,8.856,1.686,8.856,1.686l16.192-22.947
						c0,0-11.498,23.668-9.904,29.512c1.59,5.843,9.805,4.088,13.497-2.583c3.693-6.669,14.213-19.618,14.213-19.618
						s-5.083,14.75-5.643,21.815c-0.561,7.064,15.843-2.222,15.843-2.222l9.496-13.514c0,0-5.399,9.75-4.21,12.686
						c1.191,2.939,11.315-0.574,11.315-0.574l4.082,2.799c0,0-59.064,24.817-75.834,17.812
						c-16.768-7.005-23.176-10.688-23.176-10.688S324.776,324.12,334.796,310.627z"/>
					
						<radialGradient id="SVGID_14_" cx="35.9434" cy="355.3975" r="53.5849" gradientTransform="matrix(0.042 -0.9991 0.9991 0.042 -40.4839 428.1348)" gradientUnits="userSpaceOnUse">
						<stop  offset="0" style="stop-color:#FDEDF4"/>
						<stop  offset="0.4811" style="stop-color:#E1919A"/>
						<stop  offset="0.895" style="stop-color:#C56F76"/>
						<stop  offset="1" style="stop-color:#B04B5F"/>
					</radialGradient>
					<path fill="url(#SVGID_14_)" d="M311.157,360.828c0,0,6.872-38.567,26.446-54.545c-10.028,13.755-21.683,53.694-21.683,53.694
						L311.157,360.828z"/>
					
						<radialGradient id="SVGID_15_" cx="11.5132" cy="369.1128" r="63.5481" gradientTransform="matrix(0.042 -0.9991 0.9991 0.042 -40.4839 428.1348)" gradientUnits="userSpaceOnUse">
						<stop  offset="0" style="stop-color:#FDEDF4"/>
						<stop  offset="0.4811" style="stop-color:#E1919A"/>
						<stop  offset="0.895" style="stop-color:#C56F76"/>
						<stop  offset="1" style="stop-color:#B04B5F"/>
					</radialGradient>
					<path fill="url(#SVGID_15_)" d="M323.6,377.102c0,0,9.408-48.961,28.984-64.939c-10.03,13.755-24.224,64.089-24.224,64.089
						L323.6,377.102z"/>
					
						<radialGradient id="SVGID_16_" cx="8.9668" cy="385.0728" r="61.2478" gradientTransform="matrix(0.042 -0.9991 0.9991 0.042 -40.4839 428.1348)" gradientUnits="userSpaceOnUse">
						<stop  offset="0" style="stop-color:#FDEDF4"/>
						<stop  offset="0.4811" style="stop-color:#E1919A"/>
						<stop  offset="0.895" style="stop-color:#C56F76"/>
						<stop  offset="1" style="stop-color:#B04B5F"/>
					</radialGradient>
					<path fill="url(#SVGID_16_)" d="M338.601,382.458c0,0,11.92-46.229,31.494-62.207c-10.029,13.754-26.733,61.357-26.733,61.357
						L338.601,382.458z"/>
					
						<radialGradient id="SVGID_17_" cx="19.1592" cy="406.2842" r="53.5822" gradientTransform="matrix(0.042 -0.9991 0.9991 0.042 -40.4839 428.1348)" gradientUnits="userSpaceOnUse">
						<stop  offset="0" style="stop-color:#FDEDF4"/>
						<stop  offset="0.4811" style="stop-color:#E1919A"/>
						<stop  offset="0.895" style="stop-color:#C56F76"/>
						<stop  offset="1" style="stop-color:#B04B5F"/>
					</radialGradient>
					<path fill="url(#SVGID_17_)" d="M361.293,379.736c0,0,6.871-38.565,26.447-54.543c-10.03,13.754-21.685,53.695-21.685,53.695
						L361.293,379.736z"/>
					
						<radialGradient id="SVGID_18_" cx="10.7632" cy="424.644" r="53.584" gradientTransform="matrix(0.042 -0.9991 0.9991 0.042 -40.4839 428.1348)" gradientUnits="userSpaceOnUse">
						<stop  offset="0" style="stop-color:#FDEDF4"/>
						<stop  offset="0.4811" style="stop-color:#E1919A"/>
						<stop  offset="0.895" style="stop-color:#C56F76"/>
						<stop  offset="1" style="stop-color:#B04B5F"/>
					</radialGradient>
					<path fill="url(#SVGID_18_)" d="M379.283,388.895c0,0,6.874-38.564,26.448-54.545c-10.028,13.755-21.685,53.694-21.685,53.694
						L379.283,388.895z"/>
				</g>
				<path fill="#FCD7CD" d="M389.34,362.015c0,0,27.328-13.028,37.899-14.683c-8.607,4.888-4.415,5.063-4.415,5.063
					s19.945-12.287,36.936-16.822c-6.006,5.522-8.124,5.958-6.006,5.522c2.118-0.437,20.927-10.672,28.833-11.39
					c-4.895,3.996-4.895,3.996-4.895,3.996s24.032-7.673,32.892-1.768c-3.954,0.359-6.542-0.537-7.93,1.242
					c12.624-0.52,20.761,7.873,22.773,14.085c2.015,6.208-16.073-4.878-17.188-3.348c-1.114,1.526-79.218,23.447-79.218,23.447
					l-48.993,16.314L389.34,362.015z"/>
				<path fill="#FCD7CD" d="M196.834,317.569c0,0,21.537-14.996,51.749-4.529c-5.283,0.827-0.766,5.743-0.766,5.743
					s22.973,3.067,38.39,11.067c-7.928,1.241-13.302,4.165-13.302,4.165s18.936-0.778,31.687,8.159
					c-10.594,2.181-1.839,6.225-1.839,6.225s5.33-1.877,15.762,12.215c10.436,14.089-14.961,6.195-16.51,5.606
					c-1.551-0.592-59.399-10.901-60.949-11.491c-1.552-0.589-45.368-36.562-45.368-36.562"/>
				<path fill="#FCD7CD" d="M244.226,400.016c0,0,19.558,26.027,18.527,38.058c12.512,2.103,37.202,26.77,42.833,42.758
					c13.628,0.572,47.153-10.094,57.543,5.044c6.775-11.265,25.803-26.741,40.523-27.172c7.497-15.962,15.475-30.854,27.661-33.493
					c4.79-13.973,12.021-23.646,18.355-24.43c5.246-12.379,11.276-18.427,17.042-18.186c6.819-12.313,13.24-15.195,16.319-13.491
					c5.113-9.234,19.028-15.476,19.028-15.476l-134.469,63.652l-74.294-6.275C293.294,411.005,244.64,402.659,244.226,400.016z"/>
				
					<radialGradient id="SVGID_19_" cx="17.0361" cy="375.0996" r="174.9205" gradientTransform="matrix(0.042 -0.9991 0.9991 0.042 -40.4839 428.1348)" gradientUnits="userSpaceOnUse">
					<stop  offset="0" style="stop-color:#FDEDF4"/>
					<stop  offset="0.4799" style="stop-color:#E1918E"/>
					<stop  offset="0.895" style="stop-color:#C66E66"/>
					<stop  offset="1" style="stop-color:#B04B4C"/>
				</radialGradient>
				<path fill="url(#SVGID_19_)" d="M240.067,386.541c0,0,7.504,21.318,22.754,41.559c15.252,20.246,61.811,61.759,104.77,39.063
					c42.96-22.697,49.623-39.567,77.528-70.596c27.908-31.031,48.646-41.362,69.84-37.671c21.2,3.693,49.926,36.404,31.166,58.018
					c-18.759,21.614-32.92,0.365-35.304-9.534c-2.383-9.903,3.731-13.846,15.403-0.052c-3.399-19.046-13.991-24.132-26.347-14.411
					c-2.533,1.994-7.373,15.198,0.775,31.535c11.944,23.957,59.076,18.587,64.024-15.857c4.95-34.446-20.623-58.975-49.578-69.642
					c-28.956-10.67-67.44,5.564-96.042,19.761c-28.599,14.201-82.367,10.888-106.141,1.838
					c-23.771-9.051-85.569-62.756-120.797-40.785C156.891,341.737,240.067,386.541,240.067,386.541z"/>
				
					<radialGradient id="SVGID_20_" cx="48.1753" cy="556.4912" r="8.3614" gradientTransform="matrix(0.042 -0.9991 0.9991 0.042 -40.4839 428.1348)" gradientUnits="userSpaceOnUse">
					<stop  offset="0" style="stop-color:#FDEDF4"/>
					<stop  offset="0.4799" style="stop-color:#E1918E"/>
					<stop  offset="0.895" style="stop-color:#C66E66"/>
					<stop  offset="1" style="stop-color:#B04B4C"/>
				</radialGradient>
				<path fill="url(#SVGID_20_)" d="M511.692,399.189c0,0,9.564-13.161,14.532,8.139
					C521.267,402.48,517.776,398.132,511.692,399.189z"/>
				
					<radialGradient id="SVGID_21_" cx="26.7617" cy="556.8418" r="32.0063" gradientTransform="matrix(0.042 -0.9991 0.9991 0.042 -40.4839 428.1348)" gradientUnits="userSpaceOnUse">
					<stop  offset="0" style="stop-color:#FDEDF4"/>
					<stop  offset="0.4799" style="stop-color:#E1918E"/>
					<stop  offset="0.895" style="stop-color:#C66E66"/>
					<stop  offset="1" style="stop-color:#B04B4C"/>
				</radialGradient>
				<path fill="url(#SVGID_21_)" d="M503.113,390.953c0,0-4.594,15.556,0.97,26.818c5.565,11.26,23.916,24.371,44.776,15.273
					c-30.898,16.814-47.414-2.521-51.383-14.239S497.201,394.116,503.113,390.953z"/>
				
					<radialGradient id="SVGID_22_" cx="-15.5659" cy="332.166" r="150.0635" gradientTransform="matrix(0.042 -0.9991 0.9991 0.042 -40.4839 428.1348)" gradientUnits="userSpaceOnUse">
					<stop  offset="0" style="stop-color:#FDEDF4"/>
					<stop  offset="0.4811" style="stop-color:#E1919A"/>
					<stop  offset="0.895" style="stop-color:#C56F76"/>
					<stop  offset="1" style="stop-color:#B04B5F"/>
				</radialGradient>
				<path fill="url(#SVGID_22_)" d="M204.187,324.122c0,0,24.025,4.543,65.301,37.052c32.866,25.888,60.661,36.586,104.552,35.901
					c36.428-0.569,53.531-24.352,88.279-43.193c34.745-18.841,73.974-2.839,85.167,5.682c-24.305-21.324-46.331-30.3-75.7-22.785
					c-29.369,7.516-92.643,38.808-130.436,30.216c-37.793-8.587-76.466-37.868-94.343-45.62
					c-17.875-7.752-38.418-10.367-51.32-3.209C201.874,320.875,204.187,324.122,204.187,324.122z"/>
				<g>
					<path fill="#AF3C43" d="M238.782,383.772c0.046-1.046,20.121-16.48,3.277-59.194
						C248.666,358.111,238.782,383.772,238.782,383.772z"/>
					<path fill="#AF3C43" d="M249.392,406.186c0,0,22.078-30.226,19.23-70.25C278.727,357.888,271.981,405.91,249.392,406.186z"/>
					<path fill="#AF3C43" d="M271.958,437.674c0.043-1.049,31.956-10.73,24.321-85.088
						C289.995,410.778,271.958,437.674,271.958,437.674z"/>
					<path fill="#AF3C43" d="M308.816,466.44c0,0,31.325-39.986,8.499-102.204C339.527,385.385,336.267,462.956,308.816,466.44z"/>
					<path fill="#AF3C43" d="M354.05,472.894c0,0,27.109-38.764-3.604-104.114C372.674,387.216,381.506,454.62,354.05,472.894z"/>
					<path fill="#AF3C43" d="M377.327,368.859c0,0,21.206,38.784,18.105,79.259C412.493,410.769,377.327,368.859,377.327,368.859z"
						/>
					<path fill="#AF3C43" d="M424.797,417.849c0,0,0.34-26.674-22.507-55.29C413.44,362.68,435.046,405.153,424.797,417.849z"/>
					<path fill="#AF3C43" d="M449.048,390.516c0,0-1.704-21.861-17.454-36.877C442.381,354.093,454.983,380.528,449.048,390.516z"/>
					<path fill="#AF3C43" d="M464.987,373.597c0,0,1.673-16.731-13.512-28.573C463.319,345.173,470.209,368.041,464.987,373.597z"/>
					<path fill="#AF3C43" d="M482.917,363.5c0,0,0.506-15.73-9.187-25.589C485.153,339.791,487.128,359.04,482.917,363.5z"/>
					<path fill="#AF3C43" d="M499.906,358.964c0,0,6.959-13.359,0.095-24.148C514.305,342.769,499.906,358.964,499.906,358.964z"/>
					<path fill="#AF3C43" d="M521.615,359.526c0,0,5.981-9.548,6.562-15.125C530.446,356.747,521.615,359.526,521.615,359.526z"/>
					<path fill="#AF3C43" d="M538.63,369.344c0,0,4.38-4.716,5.747-12.36C548.97,363.827,541.76,369.476,538.63,369.344z"/>
					<path fill="#AF3C43" d="M551.521,385.987c0,0,4.737,2.212,9.514-7.302C556.046,381.278,551.521,385.987,551.521,385.987z"/>
					<path fill="#AF3C43" d="M554.674,402.223c0,0,1.44,6.972,10.313,3.146C555.895,414.437,555.555,406.11,554.674,402.223z"/>
					<path fill="#AF3C43" d="M551.685,431.85c0,0-6.159-2.71-4.385-11.737C541.63,422.325,547.756,434.136,551.685,431.85z"/>
					<path fill="#AF3C43" d="M523.281,435.906c0,0-2.548-10.085-0.025-12.077C515.091,427.337,523.281,435.906,523.281,435.906z"/>
					<path fill="#AF3C43" d="M501.625,420.032c0,0,3.781-6.58,13.055-3.392C509.655,411.879,499.47,413.291,501.625,420.032z"/>
					<path fill="#AF3C43" d="M510.009,401.745c0,0,0.277-4.89-5.519-7.936C511.494,393.054,512.258,397.985,510.009,401.745z"/>
					<path fill="#AF3C43" d="M519.499,400.83c0,0,2.85-0.668,4.011-3.419C525.708,403.103,519.499,400.83,519.499,400.83z"/>
					<path fill="#AF3C43" d="M234.407,378.602c5.587-23.655-7.648-48.103-27.759-54.725
						C206.648,323.877,233.09,338.116,234.407,378.602z"/>
				</g>
				<g>
					<path fill="#F0565F" d="M238.074,384.005c0.044-1.047,17.565-18.163,3.591-60.406
						C248.305,357.133,238.074,384.005,238.074,384.005z"/>
					<path fill="#F0565F" d="M249.392,406.186c0,0,22.142-31.274,19.277-71.299C275.867,355.142,269.617,399.684,249.392,406.186z"
						/>
					<path fill="#F0565F" d="M271.19,437.204c0.044-1.049,26.912-15.67,24.959-85.758C289.85,409.635,271.19,437.204,271.19,437.204
						z"/>
					<path fill="#F0565F" d="M308.816,466.44c0,0,31.435-39.981,8.499-102.204C337.411,385.733,331.588,457.595,308.816,466.44z"/>
					<path fill="#F0565F" d="M354.05,472.894c0,0,24.779-39.914-6.075-105.269C370.302,386.066,378.039,443.45,354.05,472.894z"/>
					<path fill="#F0565F" d="M377.327,368.859c0,0,20.732,39.727,17.628,80.201C408.133,410.411,377.327,368.859,377.327,368.859z"
						/>
					<path fill="#F0565F" d="M424.581,418.804c0,0-1.589-28.771-24.539-57.39C411.239,361.538,430.44,404.348,424.581,418.804z"/>
					<path fill="#F0565F" d="M448.21,389.694c0,0-2.917-22.177-18.738-37.193C440.305,352.956,452.116,380.058,448.21,389.694z"/>
					<path fill="#F0565F" d="M464.987,373.597c0,0-0.298-17.866-15.549-29.707C461.331,344.039,467.64,368.806,464.987,373.597z"/>
					<path fill="#F0565F" d="M482.917,363.5c0,0-1.394-16.861-11.13-26.721C483.257,338.661,485.873,359.772,482.917,363.5z"/>
					<path fill="#F0565F" d="M499.906,358.964c0,0,5.353-12.814-1.543-23.605C512.73,343.312,499.906,358.964,499.906,358.964z"/>
					<path fill="#F0565F" d="M519.883,358.402c0,0,6.001-9.548,6.586-15.125C528.75,355.625,519.883,358.402,519.883,358.402z"/>
					<path fill="#F0565F" d="M536.972,368.225c0,0,4.4-4.716,5.772-12.358C547.354,362.711,540.118,368.357,536.972,368.225z"/>
					<path fill="#F0565F" d="M549.923,384.869c0,0,5.488,2.683,11.112-6.184C556.026,381.277,549.923,384.869,549.923,384.869z"/>
					<path fill="#F0565F" d="M553.091,401.105c0,0,3.563,6.801,12.477,2.974C556.436,413.148,553.978,404.993,553.091,401.105z"/>
					<path fill="#F0565F" d="M550.095,430.731c0,0-6.186-2.708-4.406-11.735C539.995,421.206,546.147,433.018,550.095,430.731z"/>
					<path fill="#F0565F" d="M521.57,434.783c0,0-1.601-7.68,1.915-12.172C515.286,426.12,521.57,434.783,521.57,434.783z"/>
					<path fill="#F0565F" d="M500.845,419.911c0,0,2.77-7.585,12.084-4.392C507.881,410.755,498.678,413.168,500.845,419.911z"/>
					<path fill="#F0565F" d="M510.009,401.745c0,0-1.497-6.015-7.32-9.061C509.722,391.929,512.269,397.987,510.009,401.745z"/>
					<path fill="#F0565F" d="M519.499,400.83c0,0,1.125-1.791,2.292-4.542C524,401.982,519.499,400.83,519.499,400.83z"/>
				</g>
				<path opacity="0.3" fill="#A33228" d="M205.12,322.763c0,0,22.273,13.538,25.387,33.096s3.901,22.743,3.901,22.743
					s10.167,11.059,12.968,25.618c2.935,5.112,6.869,11.446,6.869,11.446s0.77-19.107-9.514-48.445
					C232.306,331.782,205.12,322.763,205.12,322.763z"/>
			</g>
		</g>
		<g>
			<path fill="#AC506A" d="M239.985,327.103c0,0-16.081,0.694-20.582,3.44C222.622,334.816,239.985,327.103,239.985,327.103z"/>
			<path fill="#F0565F" d="M193.572,392.242c20.277-6.255,38.276-32.177,34.614-53.117
				C228.186,339.125,227.054,371.343,193.572,392.242z"/>
			<g>
				<g>
					<path fill="#FBC8B7" d="M143.877,301.473c0,0,2.434,0.807,11.335-6.767c1.419,2.768,5.673,1.206,12.369-5.263
						c-0.556,3.716,5.636,1.423,10.793-5.176c1.799,2.671,6.288,0.418,13.653-7.191c-4.319,7.305-7.854,27.724-7.854,27.724
						s-23.339,10.407-43.265,19.244C137.307,315.974,143.877,301.473,143.877,301.473z"/>
					<path fill="#E2A492" d="M143.903,302.218c0,0-2.079,9.45-0.14,10.158c1.939,0.707,5.11-3.625,4.992-3.798
						c-0.119-0.175,4.557-9.591,4.557-9.591s-0.167,5.045,0.675,8.037s5.791-3.552,5.791-3.552l5.979-11.755
						c0,0-2.934,9.835-0.911,10.316c2.023,0.48,6.809-3.487,7.919-6.458c1.106-2.971,5.337-10.209,5.337-10.209
						s-0.537,5.213,0.373,6.882c0.904,1.675,9.436-7.412,9.436-7.412l3.491-6.905l-7.228,26.869l-44.885,19.959
						C139.29,324.759,140.083,309.347,143.903,302.218z"/>
					
						<radialGradient id="SVGID_23_" cx="1575.666" cy="-133.0449" r="16.519" gradientTransform="matrix(-0.5661 -0.8243 2.3486 -1.6127 1354.626 1418.7539)" gradientUnits="userSpaceOnUse">
						<stop  offset="0" style="stop-color:#FDEDF4"/>
						<stop  offset="0.4811" style="stop-color:#E1919A"/>
						<stop  offset="0.895" style="stop-color:#C56F76"/>
						<stop  offset="1" style="stop-color:#B04B5F"/>
					</radialGradient>
					<path fill="url(#SVGID_23_)" d="M136.898,325.821c0,0-1.333-13.882,7.977-25.714c-3.783,7.188-5.677,24.694-5.677,24.694
						L136.898,325.821z"/>
					
						<radialGradient id="SVGID_24_" cx="1572.4795" cy="-128.6865" r="17.4112" gradientTransform="matrix(-0.5661 -0.8243 2.3486 -1.6127 1354.626 1418.7539)" gradientUnits="userSpaceOnUse">
						<stop  offset="0" style="stop-color:#FDEDF4"/>
						<stop  offset="0.4811" style="stop-color:#E1919A"/>
						<stop  offset="0.895" style="stop-color:#C56F76"/>
						<stop  offset="1" style="stop-color:#B04B5F"/>
					</radialGradient>
					<path fill="url(#SVGID_24_)" d="M148.755,320.564c0,0-2.848-14.023,6.458-25.858c-3.78,7.187-4.159,24.838-4.159,24.838
						L148.755,320.564z"/>
					
						<radialGradient id="SVGID_25_" cx="1570.5156" cy="-124.689" r="17.4762" gradientTransform="matrix(-0.5661 -0.8243 2.3486 -1.6127 1354.626 1418.7539)" gradientUnits="userSpaceOnUse">
						<stop  offset="0" style="stop-color:#FDEDF4"/>
						<stop  offset="0.4811" style="stop-color:#E1919A"/>
						<stop  offset="0.895" style="stop-color:#C56F76"/>
						<stop  offset="1" style="stop-color:#B04B5F"/>
					</radialGradient>
					<path fill="url(#SVGID_25_)" d="M158.534,316.226c0,0-0.327-15.752,8.981-27.588c-3.781,7.187-6.68,26.569-6.68,26.569
						L158.534,316.226z"/>
					
						<radialGradient id="SVGID_26_" cx="1568.4561" cy="-120.4761" r="17.2104" gradientTransform="matrix(-0.5661 -0.8243 2.3486 -1.6127 1354.626 1418.7539)" gradientUnits="userSpaceOnUse">
						<stop  offset="0" style="stop-color:#FDEDF4"/>
						<stop  offset="0.4811" style="stop-color:#E1919A"/>
						<stop  offset="0.895" style="stop-color:#C56F76"/>
						<stop  offset="1" style="stop-color:#B04B5F"/>
					</radialGradient>
					<path fill="url(#SVGID_26_)" d="M169.912,311.183c0,0-0.849-15.083,8.463-26.916c-3.786,7.188-6.169,25.897-6.169,25.897
						L169.912,311.183z"/>
					
						<radialGradient id="SVGID_27_" cx="1565.3037" cy="-115.4727" r="17.9728" gradientTransform="matrix(-0.5661 -0.8243 2.3486 -1.6127 1354.626 1418.7539)" gradientUnits="userSpaceOnUse">
						<stop  offset="0" style="stop-color:#FDEDF4"/>
						<stop  offset="0.4811" style="stop-color:#E1919A"/>
						<stop  offset="0.895" style="stop-color:#C56F76"/>
						<stop  offset="1" style="stop-color:#B04B5F"/>
					</radialGradient>
					<path fill="url(#SVGID_27_)" d="M182.505,305.599c0,0,0.781-17.115,10.091-28.947c-3.783,7.188-7.792,27.927-7.792,27.927
						L182.505,305.599z"/>
				</g>
				
					<radialGradient id="SVGID_28_" cx="-69.8804" cy="416.585" r="97.2222" gradientTransform="matrix(0.9979 0.0638 -0.0638 0.9979 247.4863 -63.7163)" gradientUnits="userSpaceOnUse">
					<stop  offset="0" style="stop-color:#FDEDF4"/>
					<stop  offset="0.4799" style="stop-color:#E1918E"/>
					<stop  offset="0.895" style="stop-color:#C66E66"/>
					<stop  offset="1" style="stop-color:#B04B4C"/>
				</radialGradient>
				<path fill="url(#SVGID_28_)" d="M189.678,392.128c0,0-6.636,9.511-28.922,14.839c-16.192,3.869-39.803,14.1-51.401,22.818
					c-8.263-2.283-11.231-10.572-11.31-16.367c11.073-7.032,32.88-18.892,34.699-28.747c1.819-9.856-4.792-18.51-5.262-32.753
					c-0.471-14.243,5.128-30.862,33.212-40.444c35.012-11.949,34.501-24.155,73.157-13.782
					c-18.63,2.761-33.768,14.738-33.768,14.738s13.802-1.558,25.187,0.906c11.384,2.464,20.235,3.678,26.946,12.092
					c-9.855-1.819-15.973,2.44-30.78,3.395c20.072,5.77,32.664,6.221,41.294,30.572c-8.164-3.267-10.9-1.901-10.9-1.901
					S233.007,396.549,189.678,392.128z"/>
				
					<radialGradient id="SVGID_29_" cx="-61.8188" cy="427.769" r="23.8713" gradientTransform="matrix(0.9519 0.0025 -0.1176 0.9261 271.332 -31.6001)" gradientUnits="userSpaceOnUse">
					<stop  offset="0" style="stop-color:#FDEDF4"/>
					<stop  offset="0.4811" style="stop-color:#E1919A"/>
					<stop  offset="0.895" style="stop-color:#C56F76"/>
					<stop  offset="1" style="stop-color:#B04B5F"/>
				</radialGradient>
				<path fill="url(#SVGID_29_)" d="M184.905,364.463c-1.552,12.208-12.983,22.081-25.532,22.046
					c-12.549-0.033-21.465-9.958-19.915-22.167c1.552-12.211,12.981-22.081,25.531-22.046
					C177.54,342.328,186.457,352.252,184.905,364.463z"/>
				
					<radialGradient id="SVGID_30_" cx="-81.4595" cy="439.1299" r="23.8701" gradientTransform="matrix(0.9419 0.3358 -0.3358 0.9419 383.7747 -23.332)" gradientUnits="userSpaceOnUse">
					<stop  offset="0" style="stop-color:#FDEDF4"/>
					<stop  offset="0.4811" style="stop-color:#E1919A"/>
					<stop  offset="0.895" style="stop-color:#C56F76"/>
					<stop  offset="1" style="stop-color:#B04B5F"/>
				</radialGradient>
				<circle fill="url(#SVGID_30_)" cx="159.588" cy="362.931" r="23.869"/>
				
					<radialGradient id="SVGID_31_" cx="-85.7593" cy="432.2549" r="23.8704" gradientTransform="matrix(0.9145 0.2642 -0.3678 0.8581 397.4421 14.2275)" gradientUnits="userSpaceOnUse">
					<stop  offset="0" style="stop-color:#FFFFFF"/>
					<stop  offset="1" style="stop-color:#E6E7E8"/>
				</radialGradient>
				<path fill="url(#SVGID_31_)" d="M181.862,368.795c-4.849,11.312-18.555,17.658-30.611,14.174
					c-12.056-3.484-17.899-15.478-13.049-26.79c4.851-11.313,18.553-17.658,30.609-14.175
					C180.868,345.488,186.712,357.483,181.862,368.795z"/>
				<ellipse transform="matrix(0.998 0.0639 -0.0639 0.998 23.0631 -10.2365)" cx="171.576" cy="355.467" rx="10.492" ry="11.017"/>
				
					<radialGradient id="SVGID_32_" cx="-46.0557" cy="418.8408" r="3.6729" gradientTransform="matrix(0.9979 0.0638 -0.0638 0.9979 247.4863 -63.7163)" gradientUnits="userSpaceOnUse">
					<stop  offset="0" style="stop-color:#FFFFFF"/>
					<stop  offset="1" style="stop-color:#E6E7E8"/>
				</radialGradient>
				<circle fill="url(#SVGID_32_)" cx="174.805" cy="351.306" r="3.672"/>
				<path fill="#AC506A" d="M230.293,297.871c0,0-18.881-0.682-34.712,16.702c7.952-1.068,8.609-3.127,8.609-3.127
					S222.371,298.416,230.293,297.871z"/>
				<path fill="#AC506A" d="M250.216,323.326c0,0-17.888-7.978-38.129,4.396c11.484,1.26,14.1,1.428,14.1,1.428
					S240.759,323.248,250.216,323.326z"/>
				<path fill="none" stroke="#6A0006" stroke-width="2.0984" stroke-miterlimit="10" d="M101.332,422.567
					c0,0,36.621-16.346,48.497-19.214"/>
				
					<radialGradient id="SVGID_33_" cx="-98.7939" cy="412.333" r="91.0722" gradientTransform="matrix(0.9979 0.0638 -0.0638 0.9979 247.4863 -63.7163)" gradientUnits="userSpaceOnUse">
					<stop  offset="0" style="stop-color:#FDEDF4"/>
					<stop  offset="0.4811" style="stop-color:#E1919A"/>
					<stop  offset="0.895" style="stop-color:#C56F76"/>
					<stop  offset="1" style="stop-color:#B04B5F"/>
				</radialGradient>
				<path fill="url(#SVGID_33_)" d="M107.211,427.721c0,0,22.229-13.297,34.409-17.424c12.178-4.127,32.474-9.136,41.128-18.394
					c8.652-9.258,26.95-4.934,41.342-16.278c14.394-11.345,11.805-31.136,11.805-31.136l26.835,14.907l-14.704-1.866
					c0,0-0.173,13.656-19.845,25.364c-19.675,11.708-29.817,11.407-36.961,10.777c-8.317,4.024-14.185,10.833-30.464,13.297
					c-16.279,2.462-42.568,19.001-50.853,22.502C107.68,428.628,107.211,427.721,107.211,427.721z"/>
				<g>
					<path fill="#FBC8B7" d="M226.983,368.153c0,0-24.863-24.869-1.429-21.645c-15.172-8.844-11.564-12.681-1.827-13.09
						c-9.163-5.852-14.369-7.662-6.72-15.457c-17.81,5.038-24.123,24.184-24.123,24.184s7.563,0.205,4.744,11.794
						C208.66,356.448,218.332,357.466,226.983,368.153z"/>
					<path fill="#E2A492" d="M207.44,323.951c0,0-8.023,9.776-8.418,18.333c5.342-4.328,13.475-7.095,13.475-7.095l-12.868,12.553
						l11.606-3.751l-8.271,8.907l-5.336,1.04c0,0-0.598-8.746-4.744-11.794C195.574,333.407,207.44,323.951,207.44,323.951z"/>
					
						<radialGradient id="SVGID_34_" cx="-15.1387" cy="66.3013" r="33.8081" gradientTransform="matrix(0.9622 -0.2722 0.2722 0.9622 155.9072 271.5859)" gradientUnits="userSpaceOnUse">
						<stop  offset="0" style="stop-color:#FDEDF4"/>
						<stop  offset="0.4811" style="stop-color:#E1919A"/>
						<stop  offset="0.895" style="stop-color:#C56F76"/>
						<stop  offset="1" style="stop-color:#B04B5F"/>
					</radialGradient>
					<path fill="url(#SVGID_34_)" d="M190.892,345.055c0,0,0.863-21.827,28.164-28.144
						C201.854,327.408,190.892,345.055,190.892,345.055z"/>
					
						<radialGradient id="SVGID_35_" cx="-2.4795" cy="97.293" r="24.7579" gradientTransform="matrix(0.9622 -0.2722 0.2722 0.9622 155.9072 271.5859)" gradientUnits="userSpaceOnUse">
						<stop  offset="0" style="stop-color:#FDEDF4"/>
						<stop  offset="0.4811" style="stop-color:#E1919A"/>
						<stop  offset="0.895" style="stop-color:#C56F76"/>
						<stop  offset="1" style="stop-color:#B04B5F"/>
					</radialGradient>
					<path fill="url(#SVGID_35_)" d="M197.628,353.938c0,0,12.833,0.593,29.849,15.954
						C224.347,357.17,207.494,350.678,197.628,353.938z"/>
					
						<radialGradient id="SVGID_36_" cx="-2.9087" cy="85.168" r="25.9154" gradientTransform="matrix(0.9622 -0.2722 0.2722 0.9622 155.9072 271.5859)" gradientUnits="userSpaceOnUse">
						<stop  offset="0" style="stop-color:#FDEDF4"/>
						<stop  offset="0.4811" style="stop-color:#E1919A"/>
						<stop  offset="0.895" style="stop-color:#C56F76"/>
						<stop  offset="1" style="stop-color:#B04B5F"/>
					</radialGradient>
					<path fill="url(#SVGID_36_)" d="M198.629,350.841c0,0,10.941-11.071,26.924-4.333
						C220.12,337.254,199.269,343.152,198.629,350.841z"/>
					
						<radialGradient id="SVGID_37_" cx="-9.5781" cy="76.9458" r="31.5128" gradientTransform="matrix(0.9622 -0.2722 0.2722 0.9622 155.9072 271.5859)" gradientUnits="userSpaceOnUse">
						<stop  offset="0" style="stop-color:#FDEDF4"/>
						<stop  offset="0.4811" style="stop-color:#E1919A"/>
						<stop  offset="0.895" style="stop-color:#C56F76"/>
						<stop  offset="1" style="stop-color:#B04B5F"/>
					</radialGradient>
					<path fill="url(#SVGID_37_)" d="M195.784,347.423c0,0,13.306-12.677,30.236-14.184
						C219.089,328.633,199.105,334.285,195.784,347.423z"/>
				</g>
			</g>
		</g>
		
			<radialGradient id="SVGID_38_" cx="173.1245" cy="303.5049" r="28.9916" gradientTransform="matrix(0.975 -0.2223 0.2223 0.975 -88.8926 85.4004)" gradientUnits="userSpaceOnUse">
			<stop  offset="0" style="stop-color:#FDEDF4"/>
			<stop  offset="0.4799" style="stop-color:#E1918E"/>
			<stop  offset="0.895" style="stop-color:#C66E66"/>
			<stop  offset="1" style="stop-color:#B04B4C"/>
		</radialGradient>
		<path fill="url(#SVGID_38_)" d="M132.924,333.179c0,0-10.043,15.585,9.175,12.412s28.737-3.832,46.02,7.033
			c-11.8-13.324-16.633-18.073-35.957-13.255C123.857,346.426,132.924,333.179,132.924,333.179z"/>
	</g>
	<radialGradient id="SVGID_39_" cx="376.3516" cy="697.1426" r="29.8401" gradientUnits="userSpaceOnUse">
		<stop  offset="0" style="stop-color:#FECC8A"/>
		<stop  offset="0.6608" style="stop-color:#F79328"/>
		<stop  offset="1" style="stop-color:#F26526"/>
	</radialGradient>
	<path fill="url(#SVGID_39_)" d="M333,694.667c0,6.74,11.667,6.999,33.333,9.666s27.333,15,27.333,15s-14.333-18-33.333-21
		s-26-2.332-22.333-11.666C332.333,689.667,333,691.334,333,694.667z"/>
	<g>
		<g>
			<path fill="#838CB3" d="M-172.756,578.876l21.869-8.807l4.92,17.836l22.95-12.087l3.922,21.538l23.958-13.607l6.859,18.753
				l16.798-16.533l9.391,20.428l16.374-18.636l9.291,15.634l7.803-11.213l7.936,8.903l12.44-7.773l3.041,6.394
				c0,0,4.563,7.394-30.779,12.359c-35.342,4.964-107.68-10.612-116.524-13.204C-161.353,596.274-172.756,578.876-172.756,578.876z"
				/>
			<path fill="#607592" d="M-162.124,590.301l11.489-18.968l10.748,24.975l16.87-20.489l12.52,27.243l15.36-19.312l15.292,23.615
				l8.62-20.136l15.457,22.27l10.725-20.562l14.94,17.561l1.482-14.314l14.252,12.004l6.124-10.874l9.364,9.494
				c0,0,4.561,7.396-30.781,12.354c-35.343,4.965-107.679-10.611-116.525-13.198C-155.032,599.375-162.124,590.301-162.124,590.301z
				"/>
			<path fill="#838CB3" d="M-203.244,571.029c0,0,39.185-53.032,114.143-72.144c-20.588,15.116-69.683,43.005-87.615,77.725
				C-188.754,575.543-203.244,571.029-203.244,571.029z"/>
			<path fill="#607592" d="M-186.66,572.931c0,0,48.45-52.72,97.559-74.045c-57.564,42.303-76.545,61.036-87.615,77.725
				C-183.695,578.896-186.66,572.931-186.66,572.931z"/>
			<g>
				<path fill="#556A9C" d="M-570.936,609.975c0,0,52.336-81.823,140.649-135.894c-32.017,35.085-4.054,43.44,59.822,50.365
					c63.879,6.924,133.233,6.317,170.366,48.431c-52.431-8.073-160.16-3.789-217.145,8.915
					C-474.23,594.489-570.936,609.975-570.936,609.975z"/>
				<path fill="none" stroke="#2E5879" stroke-width="1.7168" stroke-miterlimit="10" d="M-565.623,602.327
					c0,0,58.729-84.137,141.954-131.631"/>
				<path fill="none" stroke="#2E5879" stroke-width="1.7168" stroke-miterlimit="10" d="M-549.214,599.008
					c0,0,66.589-69.089,116.93-103.799"/>
				<path fill="none" stroke="#2E5879" stroke-width="1.7168" stroke-miterlimit="10" d="M-520.953,591.539
					c0,0,60.888-60.493,94.339-83.466"/>
				<path fill="none" stroke="#2E5879" stroke-width="1.7168" stroke-miterlimit="10" d="M-493.359,585.081
					c0,0,46.525-47.079,80.809-72.409"/>
				<path fill="none" stroke="#2E5879" stroke-width="1.7168" stroke-miterlimit="10" d="M-465.004,578.025
					c0,0,35.684-37.872,62.738-59.989"/>
				<path fill="none" stroke="#2E5879" stroke-width="1.7168" stroke-miterlimit="10" d="M-442.966,572.249
					c0,0,44.346-42.688,57.622-52.822"/>
				<path fill="none" stroke="#2E5879" stroke-width="1.7168" stroke-miterlimit="10" d="M-422.184,568.921
					c0,0,37.121-37.291,51.656-47.673"/>
				
					<line fill="none" stroke="#2E5879" stroke-width="1.7168" stroke-miterlimit="10" x1="-399.545" y1="566.093" x2="-353.604" y2="522.639"/>
				
					<line fill="none" stroke="#2E5879" stroke-width="1.7168" stroke-miterlimit="10" x1="-370.355" y1="558.87" x2="-333.147" y2="524.188"/>
				
					<line fill="none" stroke="#2E5879" stroke-width="1.7168" stroke-miterlimit="10" x1="-345.362" y1="556.878" x2="-313.027" y2="526.25"/>
				
					<line fill="none" stroke="#2E5879" stroke-width="1.7168" stroke-miterlimit="10" x1="-323.641" y1="558.176" x2="-291.301" y2="527.546"/>
				
					<line fill="none" stroke="#2E5879" stroke-width="1.7168" stroke-miterlimit="10" x1="-308.141" y1="563.356" x2="-275.803" y2="532.732"/>
				
					<line fill="none" stroke="#2E5879" stroke-width="1.7168" stroke-miterlimit="10" x1="-289.444" y1="567.019" x2="-257.112" y2="536.393"/>
				
					<line fill="none" stroke="#2E5879" stroke-width="1.7168" stroke-miterlimit="10" x1="-273.106" y1="572.031" x2="-240.771" y2="541.404"/>
				
					<line fill="none" stroke="#2E5879" stroke-width="1.7168" stroke-miterlimit="10" x1="-257.771" y1="578.563" x2="-225.436" y2="547.933"/>
				
					<line fill="none" stroke="#2E5879" stroke-width="1.7168" stroke-miterlimit="10" x1="-244.031" y1="588.043" x2="-211.696" y2="557.416"/>
			</g>
			<path fill="#6E7BA7" d="M-482.398,774.089c0,0,11.622,54.469,36.061,65.188c24.435,10.71,4.102-22.396,9.133-33.146
				c5.03-10.752-29.276-20.586-29.783-28.176C-467.501,770.365-482.073,766.688-482.398,774.089z"/>
			
				<radialGradient id="SVGID_40_" cx="-588.2295" cy="283.8213" r="506.1773" gradientTransform="matrix(0.9801 -0.1983 0.1983 0.9801 -46.2109 229.4224)" gradientUnits="userSpaceOnUse">
				<stop  offset="0" style="stop-color:#DCE2F3"/>
				<stop  offset="0.4363" style="stop-color:#A5A7C2"/>
				<stop  offset="0.964" style="stop-color:#7D7FA1"/>
			</radialGradient>
			<path fill="url(#SVGID_40_)" d="M-711.366,697.944c0,0-18.325,8.236-9.317,21.011c32.322,1.047,65.494,5.577,85.303,28.422
				c-67.024,23.526-65.184,16.728-71.522,16.404c-1.786,5.615,52.467,45.262,99.821,42.682
				c47.358-2.575,235.294-26.017,309.106-42.12c73.812-16.105,110.042-73.646,193.254-101c83.214-27.35,78.743-20.606,117.34-26.083
				c38.592-5.474,30.633-50.57,5.953-45.575c-73.77,14.931-65.48,28.428-99.837,20.203c-34.362-8.229-115.492-51.363-174.959-45.167
				s-250.187,38.95-315.464,56.835C-636.97,641.438-711.366,697.944-711.366,697.944z"/>
			
				<radialGradient id="SVGID_41_" cx="-731.4185" cy="396.5371" r="132.5079" gradientTransform="matrix(0.9801 -0.1983 0.1983 0.9801 -46.2109 229.4224)" gradientUnits="userSpaceOnUse">
				<stop  offset="0" style="stop-color:#DFE0D2"/>
				<stop  offset="0.4388" style="stop-color:#A6B5B7"/>
				<stop  offset="0.9649" style="stop-color:#7A89AE"/>
			</radialGradient>
			<path fill="url(#SVGID_41_)" d="M-691.376,762.608c0,0-11.896,4.674-15.527,1.173c-2.459,5.901,42.458,36.193,75.796,39.373
				c33.341,3.175,99.772-3.263,99.772-3.263S-668.967,808.436-691.376,762.608z"/>
			
				<radialGradient id="SVGID_42_" cx="-411.9321" cy="354.2827" r="122.9811" gradientTransform="matrix(0.9801 -0.1983 0.1983 0.9801 -46.2109 229.4224)" gradientUnits="userSpaceOnUse">
				<stop  offset="0" style="stop-color:#A6BADF"/>
				<stop  offset="0.4908" style="stop-color:#8395C6"/>
				<stop  offset="1" style="stop-color:#525FA4"/>
			</radialGradient>
			<path fill="url(#SVGID_42_)" d="M-440.489,699.178c0,0,27.592-6.458,32.176,9.692c11.618,1.153,48.022-21.417,64.91-31.968
				c18.659-11.655,70.461-32.65,108.124-54.283c-35.829,13.378-96.417,21.264-142.5,40.221
				C-423.862,681.802-440.489,699.178-440.489,699.178z"/>
			
				<radialGradient id="SVGID_43_" cx="-652.9683" cy="342.3438" r="239.5654" gradientTransform="matrix(0.9801 -0.1983 0.1983 0.9801 -46.2109 229.4224)" gradientUnits="userSpaceOnUse">
				<stop  offset="0" style="stop-color:#DCE2F3"/>
				<stop  offset="0.4388" style="stop-color:#A0B6DF"/>
				<stop  offset="0.9649" style="stop-color:#778ABC"/>
			</radialGradient>
			<path fill="url(#SVGID_43_)" d="M-716.367,719.396c0,0,47.378,6.176,69.628,18.021c22.25,11.846,6.901,25.468,33.502,27.089
				c26.601,1.621,117.992-28.812,128.956-43.877c13.876-17.987,23.881-36.358,14.863-52.053
				c-3.972-6.92-17.856-17.481-46.354-25.648c-36.156-10.369-88.72-17.279-96.239-12.496
				C-640.498,648.565-692.443,678.938-716.367,719.396z"/>
			
				<radialGradient id="SVGID_44_" cx="-652.9565" cy="392.3984" r="107.6978" gradientTransform="matrix(0.9801 -0.1983 0.1983 0.9801 -46.2109 229.4224)" gradientUnits="userSpaceOnUse">
				<stop  offset="0" style="stop-color:#DFE0D2"/>
				<stop  offset="0.4388" style="stop-color:#A6B5B7"/>
				<stop  offset="0.9649" style="stop-color:#7A89AE"/>
			</radialGradient>
			<path fill="url(#SVGID_44_)" d="M-627.991,746.207c0,0,95.622,0.795,143.71-25.579
				C-508.013,747.623-587.527,773.05-627.991,746.207z"/>
			
				<radialGradient id="SVGID_45_" cx="-480.5337" cy="395.1987" r="393.8213" gradientTransform="matrix(0.9801 -0.1983 0.1983 0.9801 -46.2109 229.4224)" gradientUnits="userSpaceOnUse">
				<stop  offset="0" style="stop-color:#A6BADF"/>
				<stop  offset="0.4908" style="stop-color:#8894A9"/>
				<stop  offset="1" style="stop-color:#575F8A"/>
			</radialGradient>
			<path fill="url(#SVGID_45_)" d="M-649.082,799.227c0,0,43.774,6.588,150.201-16.415c95.654-20.672,159.104-32.751,209.824-45.088
				c64.275-15.636,99.904-66.053,194.511-90.452c94.619-24.409,122.387-27.104,134.247-43.517
				c-0.842,24.688-4.876,27.845-27.084,33.505c-22.21,5.663-63.275,10.468-85.702,20.846
				c-56.656,26.222-121.928,83.043-241.945,108.521C-432.593,791.585-595.385,822.224-649.082,799.227z"/>
			
				<radialGradient id="SVGID_46_" cx="-643.5854" cy="352.5059" r="27.8279" gradientTransform="matrix(0.9801 -0.1983 0.1983 0.9801 -46.2109 229.4224)" gradientUnits="userSpaceOnUse">
				<stop  offset="0.0319" style="stop-color:#86A5D6"/>
				<stop  offset="0.9938" style="stop-color:#4380C2"/>
			</radialGradient>
			<path fill="url(#SVGID_46_)" d="M-577.921,696.632c2.82,13.943-7.948,27.884-24.06,31.146
				c-16.106,3.259-31.453-5.402-34.271-19.341c-2.827-13.938,7.949-27.884,24.055-31.142
				C-596.087,674.032-580.744,682.692-577.921,696.632z"/>
			
				<radialGradient id="SVGID_47_" cx="-640.1548" cy="350.2129" r="27.8295" gradientTransform="matrix(0.9801 -0.1983 0.1983 0.9801 -46.2109 229.4224)" gradientUnits="userSpaceOnUse">
				<stop  offset="0" style="stop-color:#FFFFFF"/>
				<stop  offset="1" style="stop-color:#E6E7E8"/>
			</radialGradient>
			<path fill="url(#SVGID_47_)" d="M-575.011,693.708c2.822,13.939-7.948,27.884-24.06,31.143
				c-16.106,3.259-31.455-5.402-34.275-19.336c-2.82-13.943,7.95-27.884,24.059-31.147
				C-593.177,671.11-577.83,679.765-575.011,693.708z"/>
			<path d="M-603.458,694.504c1.629,8.051-4.081,16.002-12.755,17.759c-8.672,1.755-17.025-3.349-18.654-11.404
				c-1.629-8.052,4.082-16.007,12.753-17.76C-613.443,681.341-605.088,686.449-603.458,694.504z"/>
			
				<radialGradient id="SVGID_48_" cx="-659.6108" cy="339.0542" r="6.8679" gradientTransform="matrix(0.9801 -0.1983 0.1983 0.9801 -46.2109 229.4224)" gradientUnits="userSpaceOnUse">
				<stop  offset="0" style="stop-color:#FFFFFF"/>
				<stop  offset="1" style="stop-color:#E6E7E8"/>
			</radialGradient>
			<path fill="url(#SVGID_48_)" d="M-618.729,691.169c0.75,3.719-1.653,7.342-5.368,8.092c-3.718,0.755-7.343-1.648-8.096-5.368
				c-0.752-3.715,1.654-7.338,5.369-8.093C-623.106,685.05-619.481,687.453-618.729,691.169z"/>
			<path fill="#1C75BC" d="M-707.49,764.121l-0.048-2.403c0.5,0,7.716,8.953,70.831-16.214l5.521,2.228
				C-693.979,769.424-709.062,764.14-707.49,764.121z"/>
			<path fill="none" stroke="#1C75BC" stroke-width="3.4336" stroke-miterlimit="10" d="M-719.086,718.194
				c52.788,5.521,80.556,25.151,80.556,25.151s46.765,29.75,108.858,3.984c41.206-17.094,65.252-28.092,65.252-28.092"/>
			<path fill="#556A9C" d="M-449.511,691.371c0,0-8.797-17.488,17.104-27.98c25.903-10.497,149.755-32.498,184.888-55.811
				c-44.038,31.248-141.072,75.407-152.315,91.256C-411.739,683.29-449.511,691.371-449.511,691.371z"/>
			<path fill="#2E5879" d="M-446.628,701.298c0,0-14.435-17.226,7.867-19.542c22.299-2.326,36.108-1.181,39.998,7.226
				c3.891,8.409-9.549,19.889-9.549,19.889s-0.271-7.826-13.406-9.987C-434.856,696.728-446.628,701.298-446.628,701.298z"/>
			<path fill="none" stroke="#2E5879" stroke-width="1.7168" stroke-miterlimit="10" d="M-404.296,698.424
				c0,0-6.848-12.187,29.064-27.339c35.904-15.146,84.508-36.811,99.464-49.466"/>
			<path fill="none" stroke="#2E5879" stroke-width="1.7168" stroke-miterlimit="10" d="M-412.058,690.363
				c4.861-8.433,4.597-14.07,30.753-23.308c26.156-9.233,78.957-36.118,78.957-36.118"/>
			<path fill="none" stroke="#2E5879" stroke-width="1.7168" stroke-miterlimit="10" d="M-420.232,686.758
				c0,0-8.012-7.136,15.201-15.772c23.211-8.639,59.205-23.368,71.473-31.98"/>
			<path fill="none" stroke="#2E5879" stroke-width="1.7168" stroke-miterlimit="10" d="M-430.84,686.276
				c0,0-8.591-3.516,8.389-12.643c16.984-9.131,50.13-16.277,68.28-30.456"/>
			<path fill="none" stroke="#2E5879" stroke-width="1.7168" stroke-miterlimit="10" d="M-441.022,687.902
				c0,0-10.524-2.248,2.587-11.036c13.113-8.778,35.239-11.943,48.511-24.266"/>
			<path fill="#556A9C" d="M-457.266,785.048c0,0,32.761,45.039,59.443,44.896c26.684-0.141-5.354-22.123-5.127-33.991
				c0.227-11.872-35.116-6.908-38.664-13.637C-445.167,775.593-459.977,778.153-457.266,785.048z"/>
			
				<linearGradient id="SVGID_49_" gradientUnits="userSpaceOnUse" x1="-778.3271" y1="320.1504" x2="7.0986" y2="320.1504" gradientTransform="matrix(0.9801 -0.1983 0.1983 0.9801 -46.2109 229.4224)">
				<stop  offset="0.0307" style="stop-color:#5BA5DB"/>
				<stop  offset="0.3058" style="stop-color:#5A6D92"/>
				<stop  offset="1" style="stop-color:#4C476D"/>
			</linearGradient>
			<path fill="url(#SVGID_49_)" d="M-739.395,728.029c0,0,11.342-8.868,23.027-8.634c19.128-36.243,76.127-82.551,157.807-94.407
				c81.674-11.86,93.093-25.333,144.85-35.999c70.664-14.565,115.326-14.553,170.175-11.665
				c53.729,2.821,85.814,54.69,195.171,41.33c94.584-11.549,90.403-23.547,75.808-26.433c-14.599-2.881-25.578,6.341-72.375,8.812
				c-69.34,3.651-97.68-18.186-136.532-28.423c-112.059-29.513-133.846-26.629-238.172-5.516
				c-104.328,21.117-126.868,38.522-166.051,46.449C-672.345,631.081-725.863,705.438-739.395,728.029z"/>
			
				<radialGradient id="SVGID_50_" cx="15.3413" cy="388.2847" r="142.2465" gradientTransform="matrix(0.9801 -0.1983 0.1983 0.9801 -46.2109 229.4224)" gradientUnits="userSpaceOnUse">
				<stop  offset="0" style="stop-color:#A6BADF"/>
				<stop  offset="0.4908" style="stop-color:#8894A9"/>
				<stop  offset="1" style="stop-color:#575F8A"/>
			</radialGradient>
			<path fill="url(#SVGID_50_)" d="M2.923,618.206c5.908,29.188,113.568,93.791,264.45,112.302
				C138.194,680.746,64.678,629.062,62.14,599.215C59.6,569.37,208.347,417.235,208.347,417.235S-10.926,549.777,2.923,618.206z"/>
			
				<line fill="none" stroke="#2E5879" stroke-width="1.7168" stroke-miterlimit="10" x1="49.322" y1="592.176" x2="68.676" y2="588.255"/>
			
				<line fill="none" stroke="#2E5879" stroke-width="1.7168" stroke-miterlimit="10" x1="44.137" y1="605.483" x2="63.486" y2="601.568"/>
			
				<line fill="none" stroke="#2E5879" stroke-width="1.7168" stroke-miterlimit="10" x1="50.055" y1="617.425" x2="69.404" y2="613.505"/>
			<line fill="none" stroke="#2E5879" stroke-width="1.7168" stroke-miterlimit="10" x1="59" y1="627" x2="78.35" y2="623.081"/>
			
				<line fill="none" stroke="#2E5879" stroke-width="1.7168" stroke-miterlimit="10" x1="69.125" y1="638.09" x2="88.477" y2="634.17"/>
			
				<line fill="none" stroke="#2E5879" stroke-width="1.7168" stroke-miterlimit="10" x1="80.597" y1="647.149" x2="99.946" y2="643.235"/>
			
				<line fill="none" stroke="#2E5879" stroke-width="1.7168" stroke-miterlimit="10" x1="91.053" y1="655.544" x2="110.401" y2="651.629"/>
			
				<line fill="none" stroke="#2E5879" stroke-width="1.7168" stroke-miterlimit="10" x1="103.363" y1="664.438" x2="122.712" y2="660.522"/>
			
				<line fill="none" stroke="#2E5879" stroke-width="1.7168" stroke-miterlimit="10" x1="114.487" y1="671.821" x2="133.839" y2="667.906"/>
			
				<line fill="none" stroke="#2E5879" stroke-width="1.7168" stroke-miterlimit="10" x1="129.154" y1="679.362" x2="148.503" y2="675.447"/>
			
				<line fill="none" stroke="#2E5879" stroke-width="1.7168" stroke-miterlimit="10" x1="142.804" y1="686.231" x2="162.155" y2="682.316"/>
			
				<line fill="none" stroke="#2E5879" stroke-width="1.7168" stroke-miterlimit="10" x1="157.298" y1="692.934" x2="176.647" y2="689.019"/>
			
				<line fill="none" stroke="#2E5879" stroke-width="1.7168" stroke-miterlimit="10" x1="169.097" y1="699.303" x2="188.446" y2="695.388"/>
			
				<line fill="none" stroke="#2E5879" stroke-width="1.7168" stroke-miterlimit="10" x1="54.012" y1="580.714" x2="73.364" y2="576.799"/>
			
				<line fill="none" stroke="#2E5879" stroke-width="1.7168" stroke-miterlimit="10" x1="61.394" y1="569.588" x2="80.748" y2="565.668"/>
			
				<line fill="none" stroke="#2E5879" stroke-width="1.7168" stroke-miterlimit="10" x1="71.797" y1="556.098" x2="91.151" y2="552.178"/>
			
				<line fill="none" stroke="#2E5879" stroke-width="1.7168" stroke-miterlimit="10" x1="79.184" y1="544.966" x2="98.532" y2="541.051"/>
			
				<line fill="none" stroke="#2E5879" stroke-width="1.7168" stroke-miterlimit="10" x1="88.92" y1="532.487" x2="108.269" y2="528.571"/>
			
				<line fill="none" stroke="#2E5879" stroke-width="1.7168" stroke-miterlimit="10" x1="100.505" y1="520.507" x2="119.856" y2="516.592"/>
			
				<line fill="none" stroke="#2E5879" stroke-width="1.7168" stroke-miterlimit="10" x1="110.245" y1="508.027" x2="129.593" y2="504.112"/>
			
				<line fill="none" stroke="#2E5879" stroke-width="1.7168" stroke-miterlimit="10" x1="120.319" y1="497.233" x2="139.668" y2="493.318"/>
			
				<line fill="none" stroke="#2E5879" stroke-width="1.7168" stroke-miterlimit="10" x1="128.712" y1="486.772" x2="148.066" y2="482.858"/>
			
				<linearGradient id="SVGID_51_" gradientUnits="userSpaceOnUse" x1="91.1343" y1="258.1284" x2="38.901" y2="313.7869" gradientTransform="matrix(0.9801 -0.1983 0.1983 0.9801 -46.2109 229.4224)">
				<stop  offset="0.0307" style="stop-color:#5BA5DB"/>
				<stop  offset="0.3058" style="stop-color:#1C75BC"/>
				<stop  offset="1" style="stop-color:#3A498A"/>
			</linearGradient>
			<path fill="url(#SVGID_51_)" d="M-6.207,603.41c0,0,10.753-11.808,21.819-30.689c11.066-18.878,49.929-53.311,64.727-62.435
				c-53.739,57.585-69.526,99.316-69.526,99.316l-19.521,3.072L-6.207,603.41z"/>
		</g>
		<path fill="none" stroke="#1C75BC" stroke-width="3.4336" stroke-miterlimit="10" d="M-461.776,697.684
			c0,0,30.19,23.665,28.558,45.891"/>
		<path fill="none" stroke="#1C75BC" stroke-width="3.4336" stroke-miterlimit="10" d="M-499.237,733.288
			c0,0,47.226-30.497,29.819-64.713c-7.271-14.291-23.438-16.273-53.766-27.654c-25.223-9.463-42.458-15.054-78.633-7.733"/>
	</g>
</g>
<g id="pablo">
	
		<radialGradient id="SVGID_52_" cx="721.0068" cy="484.2021" r="153.7865" gradientTransform="matrix(1 0 0 0.7819 0 81.0566)" gradientUnits="userSpaceOnUse">
		<stop  offset="8.370500e-04" style="stop-color:#AEC99D"/>
		<stop  offset="0.4059" style="stop-color:#31B457"/>
		<stop  offset="0.7261" style="stop-color:#008544"/>
		<stop  offset="1" style="stop-color:#006A30"/>
	</radialGradient>
	<path fill="url(#SVGID_52_)" d="M679.237,572.799c37.471,27.757,94.66,23.903,125.228,6.939
		c30.568-16.962,59.163-33.924,41.415-81.729c-17.75-47.805-60.143-59.056-107.479-58.599c-39.936,0.386-74.94,27.757-90.716,58.599
		C647.684,498.01,641.768,545.043,679.237,572.799z"/>
	<path fill="#107139" d="M803.569,516.866c-5.134,1.058,0.986,9.86,11.833,13.311c10.847,3.452,15.283,32.541,15.283,32.541
		s6.903-5.423,9.367-9.861c2.466-4.437,4.438-16.271,4.438-16.271S820.333,513.414,803.569,516.866z"/>
	<path fill="#107139" d="M675.75,531.694c0,0-33.525-78.885-102.549-70.996c61.135,21.2,58.177,76.912,28.596,102.549
		c61.135-12.818,63.107,39.936,43.386,90.717C685.61,607.619,695.471,591.843,675.75,531.694z"/>
	<radialGradient id="SVGID_53_" cx="613.6455" cy="473.8252" r="76.1993" gradientUnits="userSpaceOnUse">
		<stop  offset="8.370500e-04" style="stop-color:#AEC99D"/>
		<stop  offset="0.4059" style="stop-color:#31B457"/>
		<stop  offset="0.7261" style="stop-color:#008544"/>
		<stop  offset="1" style="stop-color:#006A30"/>
	</radialGradient>
	<path fill="url(#SVGID_53_)" d="M575.727,462.468c0,0,72.907-1.77,105.009,93.917C671.862,495.746,622.315,453.594,575.727,462.468
		z"/>
	<radialGradient id="SVGID_54_" cx="863.2705" cy="504.8018" r="76.7255" gradientUnits="userSpaceOnUse">
		<stop  offset="8.370500e-04" style="stop-color:#AEC99D"/>
		<stop  offset="0.4059" style="stop-color:#31B457"/>
		<stop  offset="0.9702" style="stop-color:#008042"/>
	</radialGradient>
	<path fill="url(#SVGID_54_)" d="M810.028,502.611c28.102-16.27,77.134-14.43,91.698,8.874
		c7.395,11.832-24.559,33.893-36.235,33.277c-14.05-0.739-22.187-18.488-51.026-18.487
		C804.007,526.275,789.69,514.386,810.028,502.611z"/>
	<path fill="none" stroke="#006028" stroke-width="1.1543" stroke-miterlimit="10" d="M822.601,507.048
		c0,0,32.537-15.528,67.293,6.656"/>
	<path fill="none" stroke="#006028" stroke-width="1.1543" stroke-miterlimit="10" d="M822.601,518.141
		c0,0,19.966-6.655,53.243,11.832"/>
	<ellipse fill="#107139" cx="677.229" cy="495.544" rx="2.958" ry="1.726"/>
	<ellipse fill="#107139" cx="700.154" cy="490.121" rx="4.684" ry="2.588"/>
	<ellipse fill="#107139" cx="723.573" cy="466.209" rx="3.944" ry="2.464"/>
	<ellipse fill="#107139" cx="775.833" cy="471.633" rx="4.93" ry="3.451"/>
	<ellipse fill="#107139" cx="779.038" cy="451.418" rx="2.219" ry="0.494"/>
	<ellipse fill="#107139" cx="823.658" cy="481.738" rx="3.02" ry="1.695"/>
	<ellipse fill="#107139" cx="688.322" cy="466.209" rx="2.219" ry="1.971"/>
	<ellipse fill="#107139" cx="745.02" cy="444.27" rx="4.19" ry="1.726"/>
	<path fill="#D8E040" d="M848.345,540.802c0,0-23.172,31.612-72.969,41.636c-56.798,11.434-81.841,0-81.841,0
		s38.949,24.288,96.141,5.783C846.865,569.716,848.345,540.802,848.345,540.802z"/>
	
		<radialGradient id="SVGID_55_" cx="766.9951" cy="628.127" r="55.4705" gradientTransform="matrix(1 0 0 0.7819 0 81.0566)" gradientUnits="userSpaceOnUse">
		<stop  offset="0" style="stop-color:#DCCE80"/>
		<stop  offset="1" style="stop-color:#D7B928"/>
	</radialGradient>
	<path fill="url(#SVGID_55_)" d="M839.963,549.668c0,0-19.224,23.527-69.022,33.541c-51.769,10.409-76.913-0.771-76.913-0.771
		s38.221,23.888,91.21,5.012C829.609,571.644,839.963,549.668,839.963,549.668z"/>
	<rect x="3.728" fill="none" stroke="#1D5D2E" stroke-width="13.2311" stroke-miterlimit="10" width="1437.272" height="958.182"/>
</g>
<g id="Layer_11" display="none">
	
		<rect x="4.155" display="inline" fill="none" stroke="#1D5D2E" stroke-width="13.218" stroke-miterlimit="10" width="1435.845" height="957.23"/>
</g>
<g id="W_x2F_O">
	<rect x="-200" y="-24" fill="#5D5E5E" width="200" height="1000"/>
	<rect x="1440" y="-24" fill="#5D5E5E" width="200" height="1000"/>
	<rect x="-164" y="-200" fill="#5D5E5E" width="1674" height="200"/>
	<rect x="-164" y="960" fill="#5D5E5E" width="1674" height="200"/>
</g>
</svg>
