<?xml version="1.0" encoding="utf-8"?>
<!-- Generator: Adobe Illustrator 16.0.0, SVG Export Plug-In . SVG Version: 6.00 Build 0)  -->
<!DOCTYPE svg PUBLIC "-//W3C//DTD SVG 1.1//EN" "http://www.w3.org/Graphics/SVG/1.1/DTD/svg11.dtd">
<svg version="1.1" id="Layer_1" xmlns="http://www.w3.org/2000/svg" xmlns:xlink="http://www.w3.org/1999/xlink" x="0px" y="0px"
	 width="1440px" height="960px" viewBox="0 0 1440 960" enable-background="new 0 0 1440 960" xml:space="preserve">
<g id="WATER">
	
		<linearGradient id="SVGID_1_" gradientUnits="userSpaceOnUse" x1="20638.6797" y1="403.0229" x2="20638.6797" y2="655.0481" gradientTransform="matrix(-0.0934 0 0 1 2639.6423 169)">
		<stop  offset="0" style="stop-color:#5BC0AC"/>
		<stop  offset="1" style="stop-color:#56A384"/>
	</linearGradient>
	<rect x="-35.355" y="-1.393" fill="url(#SVGID_1_)" width="1494.689" height="966.393"/>
</g>
<g id="SEA">
	<path fill="#AEDBC3" d="M-75.323,158.613c117.551-8.369,416.463-10.043,876.572,30.13
		c460.109,40.173,1014.269,103.779,1014.269,103.779s-248.536,13.391-261.974,13.391c-13.42,0-453.384-97.084-849.702-100.432
		c-396.301-3.348-792.603-1.674-792.603-1.674L-75.323,158.613z"/>
	<path opacity="0.3" fill="#AEDBC3" enable-background="new    " d="M-75.323,178.7c117.551-8.369,416.463-10.043,876.572,30.13
		c460.109,40.172,1014.269,103.779,1014.269,103.779S1566.979,326,1553.544,326c-13.42,0-453.384-97.084-849.702-100.432
		c-396.301-3.348-792.603-1.674-792.603-1.674L-75.323,178.7z"/>
	<path opacity="0.3" fill="#AEDBC3" enable-background="new    " d="M-107.756,38.126c104.12,29.883,373.236,82.851,796.977,114.195
		c423.743,31.344,937.484,51.225,937.484,51.225s-221.096-58.128-233.21-60.421c-12.099-2.29-430.324,36.617-788.372-27.075
		C247.09,52.36-109.829-17.225-109.829-17.225L-107.756,38.126z"/>
	<path opacity="0.3" fill="#AEDBC3" enable-background="new    " d="M-120.186,660.896c108.322,0.515,381.715-21.52,798.066-106.312
		c416.354-84.797,916.219-205.042,916.219-205.042s-228.572,4.037-240.854,5.117c-12.269,1.079-404.25,151.994-766.148,187.831
		c-361.884,35.836-724.294,65.693-724.294,65.693L-120.186,660.896z"/>
</g>
<g id="CORAL">
	<path fill="#338491" d="M-51.533,882.049c37-24,66-52,98-40s60-14,56,24s36,32,38,50s14,34,16,42s22,22,30,28s26,16,32,18
		s8-26,8-26s-14-18-16-26s-12-46-12-46s0-2,6-14s-10-26-4-34c0,0,32-32,38-6s10,28,14,42s-6,22,4,34s10,12,10,12l0,0l20-38
		c0,0,0-18-4-28c0,0,20,0,26,18s0,8,6,18s12,12,14,22s8,28,14,28s50-6,38-22s-32-46-34-52s-8-20-8-20s32,12,36,18s22,28,28,44
		s6-2,6,16s-20,30,14,40s48,8,50,16s-6-26,36-22s62,28,72,34s-22,30,10,30s130,28,178,26s48-8,82-8s146-14,146-14s-34-30-36-52
		s-12-24-14-34s-34-26-6-32s-54-20,22-30s102-4,116-8s56,8,66-6s40-30,46-34s10-52,0-56s-34-34-10-48s18-8,36-18s66-12,96-10
		s46-6,52-8s70,6,82-8s44-32,50-36s12.585,34.531,12.585,34.531s-12.585,425.469-24.585,423.469s-1516-20-1516-20L-51.533,882.049z"
		/>
	<path fill="#1D676D" d="M1086.449,1097.637c-6-23-14-66-18-76s14,2-16-18s-44-26-38-40s-18-20,16-18s34,2,34,2s7.668,3.662,12-18
		c2-10-72,0,2-10s128-8,134-16s4-10,14-18s28-6,44-20s42-40,16-42s-12-10-26-2s-22,22-22,22s2-34,2-40s-2-6,0-16s-40-12-10-28
		s24-12,50-14s92-8,92-8s24-4,74-2s74,0,74,0l-52,350c0,0-110,6-108,0s14-16,10-52s-4-42-14-54s-10-12-10-12s-20-24-26-26
		s24-16-46-6s-108.047,16.241-88,20c32,6,18,16-10,20s-158,0-46,6s132,16,144,14c0,0,18,0,18,10s6,12,4,52s-8,48-20,52s-50,12-50,20
		s-16-78-30-86s-40-10-46-8s-10-22-2,24s-30-26-32-20s0,54,0,54L1086.449,1097.637z"/>
	<path fill="#1D676D" d="M337.61,981.066c-10.5-13.5-29.999-37.499-29.999-47.998s-4.5-38.998-15-34.498s11.999,14.999-12,31.498
		s-25.499,9-29.999,9s-11.999-12-11.999-12s-1.5-13.498-3-22.498s-14.999-4.5-16.499-23.999s-16.3-28.546-18.649-22.522
		c-2.349,6.024,10,20,4,34s-22.849-2.479-12.35,18.521c10.499,21,21,49.43,21,49.43l3,19.566c0,0-62.997,7.5-71.997,3
		S105.122,971.933,108.122,960s10.5-19.432-1.5-26.932s-29.999-19.499-29.999-19.499s12-19.5-7.5-7.5s-34.499,37.498-29.999,20.999
		s10.5-44.997,10.5-44.997s20.999-18,4.5-13.5s9-7.498-17.999-4.499s-16.754-5.999-36.125-1.5s-8.872,110.994-8.872,110.994
		L337.61,981.066z"/>
	<path fill="#1D676D" d="M338.467,866.049c-16.056,1.991,21.644,70.021,45.643,77.521s11.999-6-6-25.499
		S358.823,863.524,338.467,866.049z"/>
</g>
<g id="SEAWEED">
	<path fill="#4E8459" d="M1155.07,985.568c-20.619-8.489-10.5-29.999-13.5-37.498s-22.498-20.999-19.498-38.998s0-20.999-1.5-37.498
		s-1.5-47.998-1.5-47.998s0-43.498,4.5-14.999c4.499,28.499,5.998-41.999,11.998,14.999s4.5,19.499,10.5,46.498s4.5-13.499,6,9
		s10.5,1.5,12,20.999c1.499,19.499-3-134.993,5.999-59.997s17.999,32.999,16.499,58.497s0,16.498-1.5,25.498s-1.5-41.998,0,0
		S1180.568,996.067,1155.07,985.568z"/>
	<path fill="#4E8459" d="M1347.061,906.072c-22.498-47.998-43.498-65.996-37.498-95.995s13.5-24,4.5-50.998s-9-35.998-4.5-35.998
		s19.5-1.499,19.5,7.5s-18,29.998,3,65.996c20.998,35.998,28.498,25.498,28.498,35.998s9-67.496,10.5-32.998s11.998,6,11.998,22.499
		s13.5,3.001,10.5,7.5s0-88.496,9-70.497s13.498-37.498,17.998-13.499s-22.441,83.995-1.5,119.994c20.943,35.999,10.5-10.5,6,14.999
		s-28.498,29.999-38.998,22.499c-10.498-7.5-20.998,1.5-20.998,1.5s1.498-32.999-1.5-10.5
		C1360.561,916.571,1347.061,906.072,1347.061,906.072z"/>
	<path fill="#4E8459" d="M457.605,973.568c-25.499-25.498-16.5-22.499-23.999-41.998s-25.499-53.996-13.5-43.497
		s41.997,49.497,41.997,49.497l12,7.5c0,0-1.5-20.999,6-1.5s-4.5-43.497,9-17.999s4.5-22.499,13.5,0s30,22.498,33,26.998
		c8.997,13.5,10.497-31.431,13.497-11.999c3,19.43-7.5-41.997,3-16.499s-34.497-70.497-4.5-25.499c30,44.998-4.5-61.496,21-13.499
		C594.1,933.07,598.6,939.07,598.6,939.07s12-67.496,21-58.497c8.998,8.999,40.497-13.499,28.498,0
		c-11.998,13.499-25.06,46.57-23.998,53.997c3,20.999,23.998,7.566,23.998,16.499c0,8.931,44.998-23.999,38.998-13.499
		s-31.499-67.496-13.5-49.497s13.5-38.999,22.499-15s-3-49.497,17.999-7.499s14.064,63.997,12,68.996c-10.5,25.43,18-3,7.5,13.5
		c-10.5,16.498,38.997,11.998,23.998,26.997s55.497,19.5,40.498,25.499s1.501,10.499-7.499,11.999S457.605,973.568,457.605,973.568z
		"/>
	<path fill="#3D6D48" d="M1138.571,967.568c-1.5-29.998-10.499-40.498-13.499-49.497s-6-28.498-7.5-37.498s-4.5-58.496-3-50.997
		s9.001,2.999,12,28.498s10.499,43.498,10.499,43.498s17.999,2.999,14.999,11.999s0.344-18.107,3-9
		c10.5,35.999,13.499-37.431,16.499,9c3,46.429,9,55.497,9,55.497s0,10.5-4.5,13.5S1138.571,967.568,1138.571,967.568z"/>
	<path fill="#3D6D48" d="M1347.061,906.072c-16.498-16.5-34.498-29.999-31.498-44.998s-7.498-52.496,3-31.498
		c10.5,20.998,16.5,12,18,19.499s13.498-23.999,14.998-6s3.002,1.5,7.5,14.999c4.5,13.499,7.5-16.499,12,3s17.998-22.499,17.998-4.5
		s-10.498-26.999,6,0c16.5,26.999,18,23.998,21,32.998c2.998,9,16.498,16.5,0,16.5c-16.5,0-67.496-6-62.996-9
		c0,0,28.498-22.498,16.499-13.499S1347.061,906.072,1347.061,906.072z"/>
	<path fill="#3D6D48" d="M471.104,973.568c-16.497-13.568-55.495-85.495-46.496-68.996S474.104,960,474.104,960
		c19.499,4.569,7.499-8.861,23.999-4.431c16.501,4.43,1.5-23.999,23.999-6S547.601,944.932,556.6,960s-6-38.93,3-26.93
		s-20.999-40.498,1.5-14.999s13.5-29.998,28.499,7.5s3,22.499,14.999,37.498s22.5-5.999,26.999,3L696.093,960
		c0,0-15-85.426-12-53.928s22.499-28.5,20.999,4.499s-3,49.429-3,49.429c17.999,13.568,13.499,3.068,17.999,13.568
		S471.104,973.568,471.104,973.568z"/>
</g>
<g id="GERM_SHADOW">
	
		<linearGradient id="SVGID_2_" gradientUnits="userSpaceOnUse" x1="1156.5684" y1="93.1143" x2="1156.5684" y2="289.6035" gradientTransform="matrix(1 0 0 1 0 169)">
		<stop  offset="0" style="stop-color:#5BC0AC"/>
		<stop  offset="1" style="stop-color:#56A384"/>
	</linearGradient>
	<path fill="url(#SVGID_2_)" d="M1354.559,439.102l-51.569-37.733c19.02-12.097,33.518-24.583,38.069-34.261
		c-11.04-15.054-43.563-34.133-77.36-39.722c-11.441-14.606-48.013-55.465-105.628-65.271
		c28.867,25.537,33.897,61.754,34.564,78.848c-16.771,8.078-31.969,17.165-45.297,27.358l-16.27-2.711l6.547,10.637
		c-10,8.699-18.738,18.132-26.045,28.361c-53.997-27-152.992-48-152.992-48c94.495,32.998,113.994,62.998,113.994,62.998l-21,38.998
		c0,0,34.498-26.999,62.997-35.998c28.498-8.998,31.498,26.999,82.495,20.999c26.964-3.173,62.311-17.245,91.411-33.574
		L1354.559,439.102z"/>
</g>
<g id="FRIENDS">
	<g>
		<g>
			<g>
				<path fill="#FBC8B7" d="M302.185,753.801c0,0,14.296-4.717-3.627,23.314c14.853,4.41,17.632,13.562,5.015,26.311
					c22.242,0.277,10.495,14.814-6.081,23.953c21.376-1.516,23.638,13.419,7.671,27.235c16.928-1.569,13.709,24.86,13.709,24.86
					s105.625-68.324,66.249-122.2C342.995,745.63,302.185,753.801,302.185,753.801z"/>
				<path fill="#E2A492" d="M305.405,754.175c0,0,43.014,2.646,50.297,7.407c7.281,4.764-11.654,6.752-12.651,6.405
					c-0.996-0.345-30.555,6.519-30.555,6.519s21,1.706,35.532,4.891c14.53,3.184-2.263,11.873-2.263,11.873l-36.594,8.895
					c0,0,35.184-2.682,41.686,2.184c6.504,4.86,0.269,14.241-9.87,15.562c-10.139,1.317-31.468,8.062-31.468,8.062
					s20.899,0.929,29.986,3.708c9.086,2.78-10.575,18.664-10.575,18.664l-21.53,5.187c0,0,14.817-1.932,17.896,0.999
					c3.078,2.933-6.29,13.828-6.29,13.828l1.479,6.47c0,0,60.046-61.438,59.566-85.804c-0.477-24.361-1.912-34.17-1.912-34.17
					S327.168,748.325,305.405,754.175z"/>
				
					<radialGradient id="SVGID_3_" cx="2387.8896" cy="716.5811" r="71.847" gradientTransform="matrix(-0.9447 -0.328 -0.328 0.9447 2925.8662 884.6852)" gradientUnits="userSpaceOnUse">
					<stop  offset="0" style="stop-color:#FDEDF4"/>
					<stop  offset="0.4811" style="stop-color:#E1919A"/>
					<stop  offset="0.895" style="stop-color:#C56F76"/>
					<stop  offset="1" style="stop-color:#B04B5F"/>
				</radialGradient>
				<path fill="url(#SVGID_3_)" d="M379.656,749.422c0,0-51.483-10.428-81.054,6.115c22.094-5.733,77.646-0.596,77.646-0.596
					L379.656,749.422z"/>
				
					<radialGradient id="SVGID_4_" cx="2355.1299" cy="734.9697" r="85.2084" gradientTransform="matrix(-0.9447 -0.328 -0.328 0.9447 2925.8662 884.6852)" gradientUnits="userSpaceOnUse">
					<stop  offset="0" style="stop-color:#FDEDF4"/>
					<stop  offset="0.4811" style="stop-color:#E1919A"/>
					<stop  offset="0.895" style="stop-color:#C56F76"/>
					<stop  offset="1" style="stop-color:#B04B5F"/>
				</radialGradient>
				<path fill="url(#SVGID_4_)" d="M393.824,772.957c0,0-65.696-12.385-95.267,4.158c22.096-5.731,91.86,1.356,91.86,1.356
					L393.824,772.957z"/>
				
					<radialGradient id="SVGID_5_" cx="2351.7148" cy="756.3691" r="82.1232" gradientTransform="matrix(-0.9447 -0.328 -0.328 0.9447 2925.8662 884.6852)" gradientUnits="userSpaceOnUse">
					<stop  offset="0" style="stop-color:#FDEDF4"/>
					<stop  offset="0.4811" style="stop-color:#E1919A"/>
					<stop  offset="0.895" style="stop-color:#C56F76"/>
					<stop  offset="1" style="stop-color:#B04B5F"/>
				</radialGradient>
				<path fill="url(#SVGID_5_)" d="M393.115,794.304c0,0-63.528-7.904-93.096,8.634c22.094-5.731,89.691-3.114,89.691-3.114
					L393.115,794.304z"/>
				
					<radialGradient id="SVGID_6_" cx="2365.3779" cy="784.8096" r="71.8465" gradientTransform="matrix(-0.9447 -0.328 -0.328 0.9447 2925.8662 884.6852)" gradientUnits="userSpaceOnUse">
					<stop  offset="0" style="stop-color:#FDEDF4"/>
					<stop  offset="0.4811" style="stop-color:#E1919A"/>
					<stop  offset="0.895" style="stop-color:#C56F76"/>
					<stop  offset="1" style="stop-color:#B04B5F"/>
				</radialGradient>
				<path fill="url(#SVGID_6_)" d="M378.543,821.263c0,0-51.482-10.427-81.052,6.116c22.095-5.73,77.646-0.596,77.646-0.596
					L378.543,821.263z"/>
				
					<radialGradient id="SVGID_7_" cx="2354.1172" cy="809.4268" r="71.8492" gradientTransform="matrix(-0.9447 -0.328 -0.328 0.9447 2925.8662 884.6852)" gradientUnits="userSpaceOnUse">
					<stop  offset="0" style="stop-color:#FDEDF4"/>
					<stop  offset="0.4811" style="stop-color:#E1919A"/>
					<stop  offset="0.895" style="stop-color:#C56F76"/>
					<stop  offset="1" style="stop-color:#B04B5F"/>
				</radialGradient>
				<path fill="url(#SVGID_7_)" d="M381.103,848.211c0,0-51.48-10.424-81.053,6.115c22.094-5.729,77.646-0.595,77.646-0.595
					L381.103,848.211z"/>
			</g>
			<path fill="#FCD7CD" d="M342.626,847.514c0,0-29.71,27.664-36.981,40.031c10.336-8.326,8.491-3.011,8.491-3.011
				s-25.149,18.822-39.174,37.778c9.846-4.771,11.433-7.197,9.846-4.771c-1.588,2.427-23.618,20.842-28.407,30.35
				c7.394-4.139,7.394-4.139,7.394-4.139s-21.407,26.192-18.407,40.151c2.397-4.754,2.554-8.425,5.457-9.278
				c-6.867,15.489-0.407,29.771,6.348,35.34c6.752,5.574,1.833-22.447,4.29-23.085c2.454-0.636,68.264-87.247,68.264-87.247
				l44.481-53.063L342.626,847.514z"/>
			<path fill="#FCD7CD" d="M382.02,585.534c0,0-29.311,19.474-31.14,62.308c3.634-6.182,7.54,1.874,7.54,1.874
				s-7.493,30.161-5.106,53.329c5.451-9.275,11.745-14.537,11.745-14.537s-10.299,23.23-5.434,43.536
				c7.938-12.138,8.668,0.773,8.668,0.773s-4.965,5.722,7.47,25.674c12.435,19.956,15.099-15.606,15.125-17.829
				c0.026-2.227,15.664-79.45,15.691-81.673c0.029-2.229-23.251-74.591-23.251-74.591"/>
			<path fill="#FCD7CD" d="M461.5,685.25c0,0,22.825,37.212,38.338,41.854c-3.541,16.644,15.061,59.584,32.228,74.48
				c-5.998,17.278-35.814,53.835-22.054,74.25c-17.388,2.899-46.062,19.007-53.851,37.154c-23.602,1.483-46.104,4.103-55.396,17.999
				c-19.786-0.91-35.412,3.344-39.51,10.856c-18.021,0.444-28.536,4.988-31.074,12.297c-18.716,2.438-25.473,9.029-24.862,13.707
				c-14.037,1.827-28.675,16.107-28.675,16.107l145.621-136.352l28.771-95.748C451.036,751.858,464.592,687.067,461.5,685.25z"/>
			
				<radialGradient id="SVGID_8_" cx="2362.5342" cy="742.9971" r="234.5444" gradientTransform="matrix(-0.9447 -0.328 -0.328 0.9447 2925.8662 884.6852)" gradientUnits="userSpaceOnUse">
				<stop  offset="0" style="stop-color:#FDEDF4"/>
				<stop  offset="0.4799" style="stop-color:#E1918E"/>
				<stop  offset="0.895" style="stop-color:#C66E66"/>
				<stop  offset="1" style="stop-color:#B04B4C"/>
			</radialGradient>
			<path fill="url(#SVGID_8_)" d="M446.742,673.427c0,0,22.891,19.858,40.624,48.851c17.734,28.992,46.576,107.509-2.892,149.904
				c-49.467,42.396-73.79,42.396-126.232,61.913c-52.448,19.521-75.547,40.297-81.383,68.547
				c-5.838,28.261,20.811,80.198,57.006,67.448c36.195-12.751,16.672-40.875,5.499-48.726c-11.177-7.853-19.104-2.166-7.65,19.185
				c-22.08-13.622-23.204-29.336-4.995-39.957c3.733-2.178,22.585-1.71,38.948,16.501c23.993,26.695-5.918,82.831-51.316,72.037
				c-45.396-10.796-63.392-54.769-62.435-96.136c0.956-41.369,40.161-81.367,71.956-110.046
				c31.796-28.674,54.147-97.36,54.573-131.47c0.423-34.104-36.117-137.63,8.637-170.742
				C431.835,547.623,446.742,673.427,446.742,673.427z"/>
			
				<radialGradient id="SVGID_9_" cx="2404.2783" cy="986.2148" r="11.2107" gradientTransform="matrix(-0.9447 -0.328 -0.328 0.9447 2925.8662 884.6852)" gradientUnits="userSpaceOnUse">
				<stop  offset="0" style="stop-color:#FDEDF4"/>
				<stop  offset="0.4799" style="stop-color:#E1918E"/>
				<stop  offset="0.895" style="stop-color:#C66E66"/>
				<stop  offset="1" style="stop-color:#B04B4C"/>
			</radialGradient>
			<path fill="url(#SVGID_9_)" d="M328.721,1018.416c0,0-21.125,5.445,2.992,22.133
				C328.107,1031.979,324.406,1025.482,328.721,1018.416z"/>
			
				<radialGradient id="SVGID_10_" cx="2375.5645" cy="986.6836" r="42.9156" gradientTransform="matrix(-0.9447 -0.328 -0.328 0.9447 2925.8662 884.6852)" gradientUnits="userSpaceOnUse">
				<stop  offset="0" style="stop-color:#FDEDF4"/>
				<stop  offset="0.4799" style="stop-color:#E1918E"/>
				<stop  offset="0.895" style="stop-color:#C66E66"/>
				<stop  offset="1" style="stop-color:#B04B4C"/>
			</radialGradient>
			<path fill="url(#SVGID_10_)" d="M322.675,1003.66c0,0,21.664,1.934,32.97,14.42c11.303,12.484,18.613,41.832-3.009,63.365
				c36.19-30.254,20.212-60.372,7.555-71.099C347.529,999.627,329.53,997.844,322.675,1003.66z"/>
			
				<radialGradient id="SVGID_11_" cx="2318.8096" cy="685.4277" r="201.2169" gradientTransform="matrix(-0.9447 -0.328 -0.328 0.9447 2925.8662 884.6852)" gradientUnits="userSpaceOnUse">
				<stop  offset="0" style="stop-color:#FDEDF4"/>
				<stop  offset="0.4811" style="stop-color:#E1919A"/>
				<stop  offset="0.895" style="stop-color:#C56F76"/>
				<stop  offset="1" style="stop-color:#B04B5F"/>
			</radialGradient>
			<path fill="url(#SVGID_11_)" d="M386.57,597.932c0,0-6.169,32.2,14.043,99.69c16.096,53.741,15.748,93.678-6.726,148.079
				c-18.652,45.148-56.739,54.766-97.354,88.82c-40.612,34.053-39.979,90.857-34.865,109.016
				c-14.623-40.813-14.967-72.704,8.871-105.631c23.84-32.928,94.033-96.425,101.934-147.789
				c7.907-51.365-9.562-114.021-10.425-140.133c-0.861-26.113,5.995-53.021,21.278-65.586
				C383.659,593.448,386.57,597.932,386.57,597.932z"/>
			<path fill="#AC506A" d="M367.554,582.216c0,0,21.529-1.528,27.944,1.442C391.862,589.843,367.554,582.216,367.554,582.216z"/>
			<g>
				<path fill="#AF3C43" d="M443.923,670.462c-1.328-0.46-30.465,16.974-75.438-25.072
					C407.051,670.146,443.923,670.462,443.923,670.462z"/>
				<path fill="#AF3C43" d="M466.649,694.732c0,0-48.573,12.646-97.088-10.618C391.964,707.526,455.178,722.77,466.649,694.732z"/>
				<path fill="#AF3C43" d="M494.805,738.386c-1.328-0.464-29.125,34.569-118.097-11.581
					C452.377,747.634,494.805,738.386,494.805,738.386z"/>
				<path fill="#AF3C43" d="M512.526,798.521c0,0-65.302,19.37-131.652-39.743C396.308,796.898,494.659,831.042,512.526,798.521z"/>
				<path fill="#AF3C43" d="M498.292,858.117c0,0-61.698,14.715-128.071-55.779C382.265,839.141,461.978,883.358,498.292,858.117z"
					/>
				<path fill="#AF3C43" d="M357.079,835.903c0,0,37.926,45.549,89.93,61.619C392.025,900.402,357.079,835.903,357.079,835.903z"/>
				<path fill="#AF3C43" d="M394.795,919.235c0,0-33.437-12.718-57.869-55.306C331.583,877.896,373.914,925.765,394.795,919.235z"/>
				<path fill="#AF3C43" d="M348.762,936.017c0,0-26.427-12.894-37.395-39.932C306.621,909.762,333.38,938.498,348.762,936.017z"/>
				<path fill="#AF3C43" d="M319.809,947.562c0,0-21.689-6.156-28.979-30.929C285.182,931.48,310.306,951.337,319.809,947.562z"/>
				<path fill="#AF3C43" d="M298.384,964.948c0,0-19.867-7.117-27.389-24.062C267.714,956.059,290.747,968.003,298.384,964.948z"/>
				<path fill="#AF3C43" d="M284.359,983.904c0,0-20.09,2.098-30.164-11.778C257.068,993.884,284.359,983.904,284.359,983.904z"/>
				<path fill="#AF3C43" d="M274.367,1011.255c0,0-14.857,2.754-22.096,0.733C266.551,1020.898,274.367,1011.255,274.367,1011.255z"
					/>
				<path fill="#AF3C43" d="M278.23,1037.312c0,0-8.039,3.139-18.247,1.077C266.257,1047.488,276.853,1041.279,278.23,1037.312z"/>
				<path fill="#AF3C43" d="M292.637,1061.586c0,0,0.425,6.998-13.793,8.268C284.533,1064.909,292.637,1061.586,292.637,1061.586z"
					/>
				<path fill="#AF3C43" d="M311.332,1073.515c0,0,7.988,5.231-1.157,14.415C325.963,1081.056,315.747,1076.529,311.332,1073.515z"
					/>
				<path fill="#AF3C43" d="M349.754,1084.382c0,0-0.345-9.016-12.478-11.25C342.829,1067.149,354.54,1080.608,349.754,1084.382z"/>
				<path fill="#AF3C43" d="M368.803,1050.955c0,0-11.319-8.146-15.051-5.982C362.15,1036.52,368.803,1050.955,368.803,1050.955z"/>
				<path fill="#AF3C43" d="M359.672,1016.129c0,0-10.069,1.475-10.658,14.61C345.55,1022.125,352.327,1010.118,359.672,1016.129z"
					/>
				<path fill="#AF3C43" d="M332.734,1017.575c0,0-6.233-2.063-7.179-10.79C321.167,1015.146,326.941,1018.529,332.734,1017.575z"/>
				<path fill="#AF3C43" d="M326.921,1028.959c0,0-2.237,3.225-6.239,3.318C326.697,1037.823,326.921,1028.959,326.921,1028.959z"/>
				<path fill="#AF3C43" d="M439.629,662.456c-32.255-4.683-56.225-33.231-54.577-61.574
					C385.052,600.882,389.786,640.873,439.629,662.456z"/>
			</g>
			<g>
				<path fill="#F0565F" d="M444.562,669.689c-1.328-0.459-31.307,12.962-77.104-25.274
					C406.009,669.215,444.562,669.689,444.562,669.689z"/>
				<path fill="#F0565F" d="M466.649,694.732c0,0-49.911,12.21-98.417-11.079C389.949,702.608,448.579,716.755,466.649,694.732z"/>
				<path fill="#F0565F" d="M494.596,737.198c-1.329-0.463-32.798,25.844-119.248-11.116
					C451.022,746.89,494.596,737.198,494.596,737.198z"/>
				<path fill="#F0565F" d="M512.526,798.521c0,0-65.35,19.512-131.652-39.743C397.785,794.432,490.277,822.568,512.526,798.521z"/>
				<path fill="#F0565F" d="M498.292,858.117c0,0-61.984,11.242-128.294-59.43C381.999,835.617,449.754,873.532,498.292,858.117z"/>
				<path fill="#F0565F" d="M357.079,835.903c0,0,39.334,45.423,91.341,61.486C393.726,894.789,357.079,835.903,357.079,835.903z"/>
				<path fill="#F0565F" d="M396.091,919.438c0,0-35.1-16.154-59.484-58.871C331.243,874.589,375.178,919.623,396.091,919.438z"/>
				<path fill="#F0565F" d="M348.148,934.566c0,0-26.223-14.562-37.156-41.688C306.224,906.612,334.205,934.691,348.148,934.566z"/>
				<path fill="#F0565F" d="M319.809,947.562c0,0-22.136-9.175-29.39-34.026C284.747,928.442,312.529,948.509,319.809,947.562z"/>
				<path fill="#F0565F" d="M298.384,964.948c0,0-20.342-10.045-27.843-27.042C267.238,953.14,292.279,966.799,298.384,964.948z"/>
				<path fill="#F0565F" d="M284.359,983.904c0,0-18.619,0.36-28.681-13.557C258.522,992.188,284.359,983.904,284.359,983.904z"/>
				<path fill="#F0565F" d="M273.818,1008.54c0,0-14.865,2.781-22.108,0.764C265.987,1018.231,273.818,1008.54,273.818,1008.54z"/>
				<path fill="#F0565F" d="M277.65,1034.691c0,0-8.048,3.162-18.255,1.108C265.659,1044.922,276.267,1038.681,277.65,1034.691z"/>
				<path fill="#F0565F" d="M292.029,1059.043c0,0,0.643,8.165-13.186,10.811C284.543,1064.884,292.029,1059.043,292.029,1059.043z"
					/>
				<path fill="#F0565F" d="M310.72,1070.991c0,0,6.726,7.794-2.438,17.023C324.088,1081.094,315.129,1074.012,310.72,1070.991z"/>
				<path fill="#F0565F" d="M349.143,1081.848c0,0-0.332-9.049-12.466-11.274C342.239,1064.561,353.938,1078.049,349.143,1081.848z"
					/>
				<path fill="#F0565F" d="M368.247,1048.27c0,0-8.789-5.778-16.123-3.608C360.536,1036.162,368.247,1048.27,368.247,1048.27z"/>
				<path fill="#F0565F" d="M359.907,1015.094c0,0-10.824-0.281-11.433,12.908C345.022,1019.359,352.566,1009.069,359.907,1015.094z
					"/>
				<path fill="#F0565F" d="M332.734,1017.575c0,0-6.764-4.829-7.692-13.591C320.638,1012.382,326.938,1018.541,332.734,1017.575z"
					/>
				<path fill="#F0565F" d="M326.921,1028.959c0,0-2.787,0.521-6.792,0.622C326.14,1035.141,326.921,1028.959,326.921,1028.959z"/>
				<path fill="#F0565F" d="M439.321,661.914c-27.968-5.239-55.899-37.028-54.214-65.481
					C385.107,596.433,391.528,639.179,439.321,661.914z"/>
			</g>
			<path opacity="0.3" fill="#A33228" enable-background="new    " d="M384.415,598.426c0,0,5.913,34.445,28.772,47.964
				c22.856,13.52,26.44,16.066,26.44,16.066s8.784,18.128,25.562,28.792c4.929,6.178,10.892,14.204,10.892,14.204
				S451.873,697,420.35,669.726C382.273,636.773,384.415,598.426,384.415,598.426z"/>
		</g>
		<g>
			<g>
				<path fill="#FBC8B7" d="M491.68,533.412c0,0-3.12,1.447-16.133-7.285c-1.468,3.904-7.375,2.473-17.282-5.125
					c1.311,4.866-7.292,2.756-15.167-5.249c-1.988,3.832-8.312,1.517-19.285-7.496c6.869,9.071,14.691,35.734,14.691,35.734
					s32.68,10.305,60.573,19.037C502.644,551.729,491.68,533.412,491.68,533.412z"/>
				<path fill="#E2A492" d="M491.76,534.41c0,0,4.21,12.271,1.735,13.511c-2.477,1.239-7.36-4.05-7.229-4.3
					c0.133-0.248-7.532-12.081-7.532-12.081s0.991,6.696,0.324,10.811c-0.665,4.115-8.256-3.851-8.256-3.851l-9.758-14.748
					c0,0,5.41,12.657,2.788,13.605c-2.624,0.945-9.604-3.607-11.536-7.396c-1.926-3.789-8.667-12.786-8.667-12.786
					s1.513,6.862,0.554,9.229c-0.946,2.368-13.701-8.438-13.701-8.438l-5.702-8.664l13.727,34.692l62.839,19.743
					C501.343,563.734,497.938,543.323,491.76,534.41z"/>
				
					<radialGradient id="SVGID_12_" cx="1677.8906" cy="363.4395" r="22.1465" gradientTransform="matrix(0.4687 -0.8834 -2.5168 -1.3351 616.6052 2545.8376)" gradientUnits="userSpaceOnUse">
					<stop  offset="0" style="stop-color:#FDEDF4"/>
					<stop  offset="0.4811" style="stop-color:#E1919A"/>
					<stop  offset="0.895" style="stop-color:#C56F76"/>
					<stop  offset="1" style="stop-color:#B04B5F"/>
				</radialGradient>
				<path fill="url(#SVGID_12_)" d="M504.692,564.784c0,0-0.343-18.697-14.551-33.039c6.139,8.997,11.33,32.03,11.33,32.03
					L504.692,564.784z"/>
				
					<radialGradient id="SVGID_13_" cx="1673.6143" cy="369.2817" r="23.3446" gradientTransform="matrix(0.4687 -0.8834 -2.5168 -1.3351 616.6052 2545.8376)" gradientUnits="userSpaceOnUse">
					<stop  offset="0" style="stop-color:#FDEDF4"/>
					<stop  offset="0.4811" style="stop-color:#E1919A"/>
					<stop  offset="0.895" style="stop-color:#C56F76"/>
					<stop  offset="1" style="stop-color:#B04B5F"/>
				</radialGradient>
				<path fill="url(#SVGID_13_)" d="M488.094,559.589c0,0,1.657-19.116-12.547-33.462c6.132,8.997,9.329,32.454,9.329,32.454
					L488.094,559.589z"/>
				
					<radialGradient id="SVGID_14_" cx="1670.9795" cy="374.6426" r="23.433" gradientTransform="matrix(0.4687 -0.8834 -2.5168 -1.3351 616.6052 2545.8376)" gradientUnits="userSpaceOnUse">
					<stop  offset="0" style="stop-color:#FDEDF4"/>
					<stop  offset="0.4811" style="stop-color:#E1919A"/>
					<stop  offset="0.895" style="stop-color:#C56F76"/>
					<stop  offset="1" style="stop-color:#B04B5F"/>
				</radialGradient>
				<path fill="url(#SVGID_14_)" d="M474.404,555.302c0,0-1.968-21.035-16.173-35.383c6.135,8.999,12.951,34.377,12.951,34.377
					L474.404,555.302z"/>
				
					<radialGradient id="SVGID_15_" cx="1668.2197" cy="380.292" r="23.0755" gradientTransform="matrix(0.4687 -0.8834 -2.5168 -1.3351 616.6052 2545.8376)" gradientUnits="userSpaceOnUse">
					<stop  offset="0" style="stop-color:#FDEDF4"/>
					<stop  offset="0.4811" style="stop-color:#E1919A"/>
					<stop  offset="0.895" style="stop-color:#C56F76"/>
					<stop  offset="1" style="stop-color:#B04B5F"/>
				</radialGradient>
				<path fill="url(#SVGID_15_)" d="M458.478,550.319c0,0-1.168-20.224-15.38-34.566c6.143,8.998,12.167,33.56,12.167,33.56
					L458.478,550.319z"/>
				
					<radialGradient id="SVGID_16_" cx="1663.9932" cy="387.001" r="24.098" gradientTransform="matrix(0.4687 -0.8834 -2.5168 -1.3351 616.6052 2545.8376)" gradientUnits="userSpaceOnUse">
					<stop  offset="0" style="stop-color:#FDEDF4"/>
					<stop  offset="0.4811" style="stop-color:#E1919A"/>
					<stop  offset="0.895" style="stop-color:#C56F76"/>
					<stop  offset="1" style="stop-color:#B04B5F"/>
				</radialGradient>
				<path fill="url(#SVGID_16_)" d="M440.85,544.801c0,0-3.648-22.682-17.856-37.022c6.135,8.998,14.64,36.016,14.64,36.016
					L440.85,544.801z"/>
			</g>
			
				<radialGradient id="SVGID_17_" cx="2320.6201" cy="118.3623" r="130.3618" gradientTransform="matrix(-0.9842 0.1769 0.1769 0.9842 2752.001 68.8801)" gradientUnits="userSpaceOnUse">
				<stop  offset="0" style="stop-color:#FDEDF4"/>
				<stop  offset="0.4799" style="stop-color:#E1918E"/>
				<stop  offset="0.895" style="stop-color:#C66E66"/>
				<stop  offset="1" style="stop-color:#B04B4C"/>
			</radialGradient>
			<path fill="url(#SVGID_17_)" d="M444.49,661.171c0,0,10.292,11.658,40.794,15.357c22.164,2.685,55.176,12.71,71.956,22.558
				c10.661-4.3,13.354-15.796,12.569-23.528c-15.819-7.68-46.684-20.149-50.608-33.004c-3.927-12.854,3.562-25.39,2.016-44.436
				c-1.544-19.046-11.54-40.333-50.415-48.816c-48.466-10.577-49.646-26.916-99.562-7.202c25.24,0.837,47.231,14.484,47.231,14.484
				s-18.625,0.028-33.416,5.048c-14.791,5.021-26.396,7.987-34.053,20.219c12.853-3.925,21.652,0.817,41.523-0.171
				c-25.86,10.747-42.567,13.271-50.352,47.025c10.378-5.597,14.232-4.194,14.232-4.194S387.442,673.668,444.49,661.171z"/>
			
				<radialGradient id="SVGID_18_" cx="2339.5859" cy="143.2593" r="32.0134" gradientTransform="matrix(-0.9842 0.1769 0.1769 0.9842 2752.001 68.8801)" gradientUnits="userSpaceOnUse">
				<stop  offset="0" style="stop-color:#FDEDF4"/>
				<stop  offset="0.4811" style="stop-color:#E1919A"/>
				<stop  offset="0.895" style="stop-color:#C56F76"/>
				<stop  offset="1" style="stop-color:#B04B5F"/>
			</radialGradient>
			<circle fill="url(#SVGID_18_)" cx="474.723" cy="623.749" r="32.007"/>
			
				<radialGradient id="SVGID_19_" cx="2333.2539" cy="138.335" r="32.0071" gradientTransform="matrix(-0.9842 0.1769 0.1769 0.9842 2752.001 68.8801)" gradientUnits="userSpaceOnUse">
				<stop  offset="0" style="stop-color:#FDEDF4"/>
				<stop  offset="0.4811" style="stop-color:#E1919A"/>
				<stop  offset="0.895" style="stop-color:#C56F76"/>
				<stop  offset="1" style="stop-color:#B04B5F"/>
			</radialGradient>
			<path fill="url(#SVGID_19_)" d="M448.583,623.447c3.127,17.395,19.765,28.966,37.163,25.837
				c17.397-3.129,28.967-19.771,25.839-37.164c-3.129-17.401-19.77-28.968-37.167-25.839
				C457.021,589.41,445.454,606.046,448.583,623.447z"/>
			
				<radialGradient id="SVGID_20_" cx="2336.0703" cy="140.4448" r="32.0139" gradientTransform="matrix(-0.9842 0.1769 0.1769 0.9842 2752.001 68.8801)" gradientUnits="userSpaceOnUse">
				<stop  offset="0" style="stop-color:#FFFFFF"/>
				<stop  offset="1" style="stop-color:#E6E7E8"/>
			</radialGradient>
			<circle fill="url(#SVGID_20_)" cx="477.686" cy="620.357" r="32.007"/>
			<ellipse transform="matrix(0.9842 -0.177 0.177 0.9842 -101.2703 97.1363)" cx="493.746" cy="616.118" rx="14.07" ry="14.772"/>
			
				<radialGradient id="SVGID_21_" cx="2310.0732" cy="138.2393" r="4.9248" gradientTransform="matrix(-0.9842 0.1769 0.1769 0.9842 2752.001 68.8801)" gradientUnits="userSpaceOnUse">
				<stop  offset="0" style="stop-color:#FFFFFF"/>
				<stop  offset="1" style="stop-color:#E6E7E8"/>
			</radialGradient>
			<circle fill="url(#SVGID_21_)" cx="502.882" cy="613.588" r="4.924"/>
			<path fill="#AC506A" d="M376.007,541.795c0,0,25.051-3.789,48.792,16.957c-10.758-0.21-11.947-2.854-11.947-2.854
				S386.644,541.311,376.007,541.795z"/>
			<path fill="#AC506A" d="M353.348,578.744c0,0,22.613-13.356,51.469,0.04c-15.108,3.429-18.567,4.052-18.567,4.052
				S365.935,577.197,353.348,578.744z"/>
			<path fill="none" stroke="#6A0006" stroke-width="2.8138" stroke-miterlimit="10" d="M562.931,694.967
				c0,0-17.323-10.226-30.72-14.489c-11.455-3.646-29.052-7.879-33.562-17.072"/>
			<path fill="none" stroke="#6A0006" stroke-width="2.8138" stroke-miterlimit="10" d="M506.529,655.555c0,0-3.053,14.842-23.042,7
				"/>
			
				<radialGradient id="SVGID_22_" cx="2281.8506" cy="112.6621" r="122.1143" gradientTransform="matrix(-0.9842 0.1769 0.1769 0.9842 2752.001 68.8801)" gradientUnits="userSpaceOnUse">
				<stop  offset="0" style="stop-color:#FDEDF4"/>
				<stop  offset="0.4811" style="stop-color:#E1919A"/>
				<stop  offset="0.895" style="stop-color:#C56F76"/>
				<stop  offset="1" style="stop-color:#B04B5F"/>
			</radialGradient>
			<path fill="url(#SVGID_22_)" d="M559.783,696.008c0,0-31.643-14.322-48.495-17.962c-16.855-3.642-44.658-7.219-57.598-18.23
				c-12.939-11.018-36.655-2.466-57.561-15.383c-20.907-12.919-20.476-39.679-20.476-39.679l-33.479,23.951l19.306-4.729
				c0,0,2.312,18.165,30.307,30.765c27.996,12.598,41.463,10.648,50.884,8.72c11.694,4.094,20.549,12.267,42.611,13.068
				c22.062,0.797,59.607,18.821,71.18,22.222C559.297,697.288,559.783,696.008,559.783,696.008z"/>
			<g>
				<path fill="#FBC8B7" d="M391.136,634.92c0,0,29.331-36.922-1.396-29.055c18.861-14.098,13.471-18.656,0.436-17.717
					c11.315-9.193,17.976-12.397,6.597-21.616c24.495,3.995,35.824,28.538,35.824,28.538s-10.045,1.428-4.521,16.436
					C413.762,616.531,401.032,619.363,391.136,634.92z"/>
				<path fill="#E2A492" d="M410.429,573.053c0,0,12.183,11.8,14.013,23.141c-7.778-4.949-19.034-7.396-19.034-7.396l19.058,14.761
					l-16.034-3.228l12.377,10.604l7.271,0.571c0,0-0.538-11.742,4.521-16.436C427.681,583.841,410.429,573.053,410.429,573.053z"/>
				
					<radialGradient id="SVGID_23_" cx="2388.3721" cy="302.9609" r="45.3293" gradientTransform="matrix(-0.987 -0.161 -0.161 0.987 2882.9136 671.9474)" gradientUnits="userSpaceOnUse">
					<stop  offset="0" style="stop-color:#FDEDF4"/>
					<stop  offset="0.4811" style="stop-color:#E1919A"/>
					<stop  offset="0.895" style="stop-color:#C56F76"/>
					<stop  offset="1" style="stop-color:#B04B5F"/>
				</radialGradient>
				<path fill="url(#SVGID_23_)" d="M435.695,598.643c0,0-4.479-28.942-41.812-33.194
					C418.4,576.808,435.695,598.643,435.695,598.643z"/>
				
					<radialGradient id="SVGID_24_" cx="2405.3428" cy="344.5127" r="33.1947" gradientTransform="matrix(-0.987 -0.161 -0.161 0.987 2882.9136 671.9474)" gradientUnits="userSpaceOnUse">
					<stop  offset="0" style="stop-color:#FDEDF4"/>
					<stop  offset="0.4811" style="stop-color:#E1919A"/>
					<stop  offset="0.895" style="stop-color:#C56F76"/>
					<stop  offset="1" style="stop-color:#B04B5F"/>
				</radialGradient>
				<path fill="url(#SVGID_24_)" d="M428.076,611.506c0,0-17.008,2.747-37.331,25.805
					C392.973,619.887,414.434,608.666,428.076,611.506z"/>
				
					<radialGradient id="SVGID_25_" cx="2404.7686" cy="328.2568" r="34.7464" gradientTransform="matrix(-0.987 -0.161 -0.161 0.987 2882.9136 671.9474)" gradientUnits="userSpaceOnUse">
					<stop  offset="0" style="stop-color:#FDEDF4"/>
					<stop  offset="0.4811" style="stop-color:#E1919A"/>
					<stop  offset="0.895" style="stop-color:#C56F76"/>
					<stop  offset="1" style="stop-color:#B04B5F"/>
				</radialGradient>
				<path fill="url(#SVGID_25_)" d="M426.269,607.531c0,0-16.266-13.08-36.527-1.666
					C395.566,592.71,424.245,597.387,426.269,607.531z"/>
				
					<radialGradient id="SVGID_26_" cx="2395.8262" cy="317.2314" r="42.2523" gradientTransform="matrix(-0.987 -0.161 -0.161 0.987 2882.9136 671.9474)" gradientUnits="userSpaceOnUse">
					<stop  offset="0" style="stop-color:#FDEDF4"/>
					<stop  offset="0.4811" style="stop-color:#E1919A"/>
					<stop  offset="0.895" style="stop-color:#C56F76"/>
					<stop  offset="1" style="stop-color:#B04B5F"/>
				</radialGradient>
				<path fill="url(#SVGID_26_)" d="M429.537,602.544c0,0-19.658-14.859-42.443-14.282
					C395.625,581.066,423.11,585.549,429.537,602.544z"/>
			</g>
		</g>
	</g>
	<g>
		<g>
			<path fill="#AA3A32" d="M161.59,324.995c-9.5-14.812-83.747-66.266-117.609-50.354c-33.866,15.913-13.222,24.746,6.121,21.645
				c19.346-3.103-10.996,10.575,8.204,8.768c19.203-1.808,14.821,8.192,31.72,3.509c16.896-4.685-2.083,6.976,14.388,6.177
				c16.466-0.801,8.127,3.519,18.554,4.019c10.43,0.496,7.631,13.946,10.15,14.879c2.518,0.933-5.103,4.678-15.966,2.165
				c-10.859-2.513,2.954,8.845-11.359,7.917c-14.311-0.928-5.748,10.502-18.549,7.776c-12.805-2.724,1.006,2.735-14.813,3.606
				c-15.822,0.869-8.771,8.201-15.962,8.061c-7.191-0.14-25.75-4.157-29.99-1.352c-4.242,2.81-2.569,35.098,26.986,28.538
				c29.55-6.559,82.762-25.574,103.323-39.679C177.348,336.564,161.59,324.995,161.59,324.995z"/>
			<path fill="#861015" d="M148.205,353.217c0,0-9.646-19.414-11.955-30.152c-2.307-10.736-2.5-16.875-11.561-13.945
				c-9.062,2.931-5.081,2.495-15.293,0.055c-10.215-2.439-3.505-7.812-17.507-7.613c-13.997,0.199-4.559-6.182-13.761-5.891
				c-9.208,0.294,0.045-8.293-11.415-7.376c-11.458,0.917-22.679,3.608-28.334,3.419c-5.66-0.187-11.791,3.938-11.124-2.104
				c0.667-6.041,14.036-20.289,35.66-18.333s86.466,35.772,98.266,51.491C172.985,338.484,148.205,353.217,148.205,353.217z"/>
			<path fill="#861015" d="M133.092,335.821c0,0-7.097,0.963-13.137,0.294c-6.04-0.67-15.104-5.602-11.651-1.287
				c3.456,4.314-1.865,5.032-2.511,8.894c-0.645,3.862-11.485-0.831-10.857,5.354c0.625,6.184-8.871-2.729-14.767-0.76
				c-5.894,1.967-4.746,7.335-9.584,7.674c-4.843,0.339-9.978-8.528-11.411,0.487c-1.436,9.015-3.69,5.707-3.69,5.707
				S37.932,355,32.036,356.97c-5.894,1.968-12.512,2.547-5.747,12.468c6.768,9.921,9.162,11.933,20.574,7.518
				c11.404-4.416,21.329-7.251,36.622-11.239c15.293-3.989,25.65-6.775,31.157-13.152c5.51-6.38,13.713-1.544,16.683-4.708
				C134.296,344.691,133.092,335.821,133.092,335.821z"/>
			
				<line fill="none" stroke="#861015" stroke-width="1.3025" stroke-miterlimit="10" x1="78.746" y1="290.062" x2="61.635" y2="294.721"/>
			
				<line fill="none" stroke="#861015" stroke-width="1.3025" stroke-miterlimit="10" x1="83.738" y1="296.292" x2="59.529" y2="301.916"/>
			
				<line fill="none" stroke="#861015" stroke-width="1.3025" stroke-miterlimit="10" x1="96.06" y1="299.401" x2="75.207" y2="306.27"/>
			
				<line fill="none" stroke="#861015" stroke-width="1.3025" stroke-miterlimit="10" x1="105.172" y1="303.905" x2="94.435" y2="306.211"/>
			
				<line fill="none" stroke="#861015" stroke-width="1.3025" stroke-miterlimit="10" x1="115.771" y1="306.822" x2="103.499" y2="311.145"/>
			
				<line fill="none" stroke="#861015" stroke-width="1.3025" stroke-miterlimit="10" x1="134.327" y1="308.875" x2="115.008" y2="313.728"/>
			
				<line fill="none" stroke="#861015" stroke-width="1.3025" stroke-miterlimit="10" x1="136.104" y1="316.498" x2="125.078" y2="317.461"/>
		</g>
		<g>
			<g>
				<path fill="#FBB040" d="M410.321,242.915c0,0-52.946-29.113-71.013-32.173c-18.065-3.062,11.795,10.937,12.647,14.943
					c0.854,4.005-13.203,0.092-28.277,1.993c-15.077,1.904-20.894,0.887-16.979,5.558c3.914,4.669,2.002,8.935-8.453,9.991
					c-10.458,1.056-18.56,8.293-18.299,11.06c0.263,2.77-1.57,2.125-11.453,5.646c-9.882,3.523-17.32,7.7-15.197,9.27
					c2.125,1.569-5.636,6.664-11.835,10.246c-6.199,3.583-9.007,6.3-7.497,7.86c1.509,1.56-8.426,8.151-4.439,8.524
					C233.514,296.205,410.321,242.915,410.321,242.915z"/>
				
					<line fill="none" stroke="#EF4136" stroke-width="2.605" stroke-miterlimit="10" x1="245.792" y1="277.677" x2="269.996" y2="280.837"/>
				<path fill="none" stroke="#EF4136" stroke-width="2.605" stroke-miterlimit="10" d="M259.127,269.603
					c0,0,19.917,2.479,20.823,3.414"/>
				
					<line fill="none" stroke="#EF4136" stroke-width="2.605" stroke-miterlimit="10" x1="271.536" y1="261.825" x2="299.958" y2="269.968"/>
				
					<line fill="none" stroke="#EF4136" stroke-width="2.605" stroke-miterlimit="10" x1="284.247" y1="254.358" x2="310.183" y2="264.302"/>
				
					<line fill="none" stroke="#EF4136" stroke-width="2.605" stroke-miterlimit="10" x1="295.056" y1="250.544" x2="320.376" y2="260.478"/>
				
					<line fill="none" stroke="#EF4136" stroke-width="2.605" stroke-miterlimit="10" x1="305.604" y1="243.961" x2="333.32" y2="257.619"/>
				
					<line fill="none" stroke="#EF4136" stroke-width="2.605" stroke-miterlimit="10" x1="314.278" y1="239.192" x2="345.678" y2="252.909"/>
				
					<line fill="none" stroke="#EF4136" stroke-width="2.605" stroke-miterlimit="10" x1="326.365" y1="232.329" x2="353.067" y2="251.802"/>
				
					<line fill="none" stroke="#EF4136" stroke-width="2.605" stroke-miterlimit="10" x1="340.497" y1="231.944" x2="364.47" y2="249.225"/>
				
					<line fill="none" stroke="#EF4136" stroke-width="2.605" stroke-miterlimit="10" x1="353.386" y1="232.154" x2="372.761" y2="249.054"/>
				
					<line fill="none" stroke="#EF4136" stroke-width="2.605" stroke-miterlimit="10" x1="351.134" y1="219.835" x2="383.257" y2="245.542"/>
				
					<line fill="none" stroke="#EF4136" stroke-width="2.605" stroke-miterlimit="10" x1="373.084" y1="229.408" x2="391.852" y2="245.682"/>
				
					<line fill="none" stroke="#EF4136" stroke-width="2.605" stroke-miterlimit="10" x1="387.696" y1="237.016" x2="399.512" y2="246.729"/>
			</g>
			<path opacity="0.4" fill="#AA3A32" enable-background="new    " d="M408.479,242.885c0,0-49.93-7.268-82.281-0.121
				c-32.359,7.144-87.298,43.396-87.298,43.396S331.539,235.175,408.479,242.885z"/>
		</g>
		<path fill="#AA3A32" d="M487,408c0,0-3.779,34.214-33.515,37.71c-29.738,3.497-53.662-0.5-83.983,8.807
			c-30.321,9.309-53.642,29.633-53.642,29.633s15.083-21.284,38.706-29.45c23.623-8.164,40.966-13.879,63.628-13.805
			c22.663,0.073,51.108,4.247,61.806-28.896C483.129,411.862,487,408,487,408z"/>
		<path fill="#AA3A32" d="M500.403,399.603c0.419,1.309-8.643,39.581-38.403,61.397c-29.763,21.818-50.981,16.376-61.299,30.939
			c-10.317,14.559-45.632,19.986-45.632,19.986s33.771,0.545,45.022-12.01c11.253-12.555,33.625-20.421,53.456-28.417
			C492,456,497.855,418.154,505,400C504.441,395.565,500.403,399.603,500.403,399.603z"/>
		
			<radialGradient id="SVGID_27_" cx="411.8735" cy="487.4541" r="239.8001" gradientTransform="matrix(0.9115 0.4113 -0.4113 0.9115 129.8283 -351.0239)" gradientUnits="userSpaceOnUse">
			<stop  offset="0" style="stop-color:#F78F23"/>
			<stop  offset="1" style="stop-color:#B55614"/>
		</radialGradient>
		<path fill="url(#SVGID_27_)" d="M434.61,427.653c0,0-33.96,10.873-58.6,2.142c-24.636-8.736-127.475-46.234-158.609-55.235
			c-34.121-9.865-37.486-8.677-56.405-15.306c-18.92-6.627-39.135-32.918-2.337-41.713c51.64-12.345,118.28-51.788,171.937-66.936
			c70.035-19.777,137.913-20.562,145.043-2.581C482.771,266.004,434.61,427.653,434.61,427.653z"/>
		
			<radialGradient id="SVGID_28_" cx="623.4697" cy="466.752" r="156.8555" gradientTransform="matrix(0.9115 0.4113 -0.4113 0.9115 129.8283 -351.0239)" gradientUnits="userSpaceOnUse">
			<stop  offset="0" style="stop-color:#FECC8A"/>
			<stop  offset="0.6608" style="stop-color:#F79328"/>
			<stop  offset="1" style="stop-color:#F26526"/>
		</radialGradient>
		<path fill="url(#SVGID_28_)" d="M537.148,372.458c7.812-9.884-5.184-66.637-23.846-96.012
			c-18.656-29.377-45.631-38.211-59.811-33.178c-14.179,5.038-36.248,2.225-61.944,64.456c-25.694,62.234-8.25,119.64-0.041,125.727
			c8.211,6.085,70.737-4.766,97.419-22.731C515.611,392.749,529.379,382.291,537.148,372.458z"/>
		
			<radialGradient id="SVGID_29_" cx="585.0454" cy="471.9585" r="36.539" gradientTransform="matrix(0.9115 0.4113 -0.4113 0.9115 129.8283 -351.0239)" gradientUnits="userSpaceOnUse">
			<stop  offset="0" style="stop-color:#FECC8A"/>
			<stop  offset="0.6608" style="stop-color:#F79328"/>
			<stop  offset="1" style="stop-color:#F26526"/>
		</radialGradient>
		<path fill="url(#SVGID_29_)" d="M497.87,332.829c-9.271,20.544-29.718,31.364-45.674,24.168
			c-15.954-7.201-21.375-29.69-12.105-50.236c9.269-20.546,29.718-31.364,45.673-24.168
			C501.717,289.792,507.14,312.282,497.87,332.829z"/>
		
			<radialGradient id="SVGID_30_" cx="582.0059" cy="472.3926" r="36.5374" gradientTransform="matrix(0.9115 0.4113 -0.4113 0.9115 129.8283 -351.0239)" gradientUnits="userSpaceOnUse">
			<stop  offset="0" style="stop-color:#FFFFFF"/>
			<stop  offset="1" style="stop-color:#E6E7E8"/>
		</radialGradient>
		<path fill="url(#SVGID_30_)" d="M494.921,331.974c-9.27,20.547-29.719,31.366-45.672,24.167
			c-15.957-7.198-21.375-29.688-12.107-50.232c9.271-20.548,29.72-31.366,45.675-24.167
			C498.77,288.94,504.193,311.43,494.921,331.974z"/>
		
			<ellipse transform="matrix(-0.9115 -0.4112 0.4112 -0.9115 793.5024 811.511)" cx="484.041" cy="320.403" rx="14.76" ry="21.269"/>
		<path fill="#FFFFFF" d="M499.447,321.87c-1.578,3.5-5.517,5.134-8.793,3.656c-3.278-1.479-4.659-5.512-3.079-9.011
			c1.578-3.497,5.516-5.132,8.794-3.653C499.646,314.34,501.025,318.375,499.447,321.87z"/>
		<path fill="none" stroke="#EF4136" stroke-width="2.605" stroke-miterlimit="10" d="M539.711,363.614
			c-19.632-5.049-42.416,32.779-73.224,39.838c-30.812,7.057-42.253-11.919-48.158-28.395"/>
		<path fill="none" stroke="#EF4136" stroke-width="2.605" stroke-miterlimit="10" d="M409.509,368.221
			c0,0,8.021,16.002,22.146,4.753"/>
		<path fill="none" stroke="#932218" stroke-width="1.3025" stroke-miterlimit="10" d="M434.822,247.706
			c0,0-31.354,17.768-49.94,77.968c-18.587,60.203,4.114,108.072,4.114,108.072"/>
		<path opacity="0.4" fill="#AA3A32" enable-background="new    " d="M143.31,346.841c0,0,10.429,13.166,77.147,28.872
			c66.718,15.703,107.966,38.02,137.119,47.773c20.657,6.914,43.698,21.804,109.47-2.45c-60.894,9.677-50.979,20.39-90.47-3.315
			c-39.491-23.707-103.487-42.283-143.137-50.865C193.788,358.274,148.359,351.413,143.31,346.841z"/>
		<g>
			<path fill="none" stroke="#DF3C32" stroke-width="1.3025" stroke-miterlimit="10" d="M152.199,352.655
				c0,0,117.173-41.406,243.044-54.708"/>
			<path fill="none" stroke="#DF3C32" stroke-width="1.3025" stroke-miterlimit="10" d="M140.745,334.592
				c0,0,143.035-37.614,267.879-55.816"/>
			<path fill="none" stroke="#DF3C32" stroke-width="1.3025" stroke-miterlimit="10" d="M199.202,304.705
				c0,0,144.093-39.88,215.449-43.56"/>
			<path fill="none" stroke="#DF3C32" stroke-width="1.3025" stroke-miterlimit="10" d="M441.128,245.884
				c-37.599,1.219-168.587,24.29-168.587,24.29"/>
			<path fill="none" stroke="#DF3C32" stroke-width="1.3025" stroke-miterlimit="10" d="M183.712,362.684
				c0,0,105.947-33.941,203.2-40.996"/>
			<path fill="none" stroke="#DF3C32" stroke-width="1.3025" stroke-miterlimit="10" d="M222.941,368.029
				c0,0,79.838-21.827,155.64-22.601"/>
			<path fill="none" stroke="#DF3C32" stroke-width="1.3025" stroke-miterlimit="10" d="M243.263,378.356
				c0,0,79.438-11.514,133.186-7.672"/>
			<path fill="none" stroke="#DF3C32" stroke-width="1.3025" stroke-miterlimit="10" d="M286.664,388.963
				c0,0,89.533-2.369,95.644-0.068"/>
			<path fill="none" stroke="#DF3C32" stroke-width="1.3025" stroke-miterlimit="10" d="M332.48,406.232
				c2.447-0.515,48.241,3.198,48.241,3.198"/>
			<path fill="none" stroke="#DF3C32" stroke-width="1.3025" stroke-miterlimit="10" d="M155.333,318.748
				c0,0,9.609,20.242,15.797,42.477"/>
			<path fill="none" stroke="#DF3C32" stroke-width="1.3025" stroke-miterlimit="10" d="M185.012,310.234
				c0,0,17.164,30.681,21.563,61.477"/>
			<path fill="none" stroke="#DF3C32" stroke-width="1.3025" stroke-miterlimit="10" d="M218.473,296.579
				c0,0,20.117,53.338,30.262,89.583"/>
			<path fill="none" stroke="#DF3C32" stroke-width="1.3025" stroke-miterlimit="10" d="M247.639,285.615
				c0,0,34.201,69.317,41.35,110.792"/>
			<path fill="none" stroke="#DF3C32" stroke-width="1.3025" stroke-miterlimit="10" d="M285.671,266.911
				c0,0,43.024,89.47,53.578,149.668"/>
			<path fill="none" stroke="#DF3C32" stroke-width="1.3025" stroke-miterlimit="10" d="M325.696,251.629
				c0,0,44.984,100.054,56.226,181.854"/>
			<path fill="none" stroke="#DF3C32" stroke-width="1.3025" stroke-miterlimit="10" d="M357.552,244.96
				c0,0,22.462,24.767,28.791,67.894"/>
			<path fill="none" stroke="#DF3C32" stroke-width="1.3025" stroke-miterlimit="10" d="M394.308,237.268
				c0,0,13.243,9.504,18.042,29.986"/>
		</g>
		<g>
			<path fill="none" stroke="#932218" stroke-width="1.3025" stroke-miterlimit="10" d="M150.627,352.472
				c0,0,117.173-41.406,243.042-54.708"/>
			<path fill="none" stroke="#932218" stroke-width="1.3025" stroke-miterlimit="10" d="M139.172,334.409
				c0,0,143.034-37.614,267.879-55.815"/>
			<path fill="none" stroke="#932218" stroke-width="1.3025" stroke-miterlimit="10" d="M197.627,304.523
				c0,0,144.095-39.88,215.451-43.561"/>
			<path fill="none" stroke="#932218" stroke-width="1.3025" stroke-miterlimit="10" d="M439.554,245.701
				c-37.599,1.221-168.586,24.289-168.586,24.289"/>
			<path fill="none" stroke="#932218" stroke-width="1.3025" stroke-miterlimit="10" d="M182.14,362.5
				c0,0,105.947-33.941,203.2-40.996"/>
			<path fill="none" stroke="#932218" stroke-width="1.3025" stroke-miterlimit="10" d="M221.369,367.849
				c0,0,79.836-21.828,155.64-22.603"/>
			<path fill="none" stroke="#932218" stroke-width="1.3025" stroke-miterlimit="10" d="M241.689,378.173
				c0,0,79.438-11.514,133.188-7.672"/>
			<path fill="none" stroke="#932218" stroke-width="1.3025" stroke-miterlimit="10" d="M285.09,388.781
				c0,0,89.535-2.369,95.646-0.068"/>
			<path fill="none" stroke="#932218" stroke-width="1.3025" stroke-miterlimit="10" d="M330.907,406.049
				c2.45-0.513,48.245,3.202,48.245,3.202"/>
			<path fill="none" stroke="#932218" stroke-width="1.3025" stroke-miterlimit="10" d="M153.76,318.566
				c0,0,9.608,20.242,15.797,42.476"/>
			<path fill="none" stroke="#932218" stroke-width="1.3025" stroke-miterlimit="10" d="M183.439,310.052
				c0,0,17.164,30.68,21.565,61.476"/>
			<path fill="none" stroke="#932218" stroke-width="1.3025" stroke-miterlimit="10" d="M216.901,296.397
				c0,0,20.116,53.338,30.26,89.583"/>
			<path fill="none" stroke="#932218" stroke-width="1.3025" stroke-miterlimit="10" d="M246.066,285.433
				c0,0,34.203,69.317,41.349,110.791"/>
			<path fill="none" stroke="#932218" stroke-width="1.3025" stroke-miterlimit="10" d="M284.099,266.73
				c0,0,43.025,89.468,53.579,149.667"/>
			<path fill="none" stroke="#932218" stroke-width="1.3025" stroke-miterlimit="10" d="M324.124,251.447
				c0,0,44.985,100.056,56.223,181.853"/>
			<path fill="none" stroke="#932218" stroke-width="1.3025" stroke-miterlimit="10" d="M355.98,244.779
				c0,0,22.463,24.766,28.786,67.893"/>
			<path fill="none" stroke="#932218" stroke-width="1.3025" stroke-miterlimit="10" d="M392.734,237.085
				c0,0,13.243,9.505,18.043,29.987"/>
		</g>
		
			<line fill="none" stroke="#DF3C32" stroke-width="1.3025" stroke-miterlimit="10" x1="436.114" y1="234.145" x2="444.969" y2="247.127"/>
		<g>
			<path opacity="0.4" fill="#AA3A32" enable-background="new    " d="M320.665,324c0,0-20.216,37.188-31.613,38.411
				c-11.396,1.227-1.506-5.079,0.97-9.747c2.476-4.663-2.194-4.395-6.309-4.398c-4.12-0.004,1.512-5.901,5.22-7.409
				c3.711-1.507,0.418-3.98-3.565-4.396c-3.98-0.417-2.741-1.377,2.063-3.432c4.809-2.054,14.284-4.376,17.445-8.357
				C308.04,320.692,329.062,303.002,320.665,324z"/>
			<path fill="#FBB040" d="M318.518,322.553c0,0-23.867,34.955-35.327,35.024c-11.465,0.067-0.986-5.207,1.948-9.599
				c2.935-4.393-1.738-4.595-5.834-5.017c-4.099-0.418,2.103-5.716,5.945-6.841c3.841-1.123,0.816-3.92-3.103-4.735
				c-3.919-0.814-2.592-1.646,2.399-3.206c4.989-1.558,14.651-2.915,18.199-6.553C306.289,317.988,328.993,302.509,318.518,322.553z
				"/>
			<path fill="none" stroke="#EF4136" stroke-width="2.605" stroke-miterlimit="10" d="M288.229,347.467
				c0,0,12.119-7.868,20.604-19.282"/>
			<path fill="none" stroke="#EF4136" stroke-width="2.605" stroke-miterlimit="10" d="M289.961,337.293
				c0,0,9.186-3.474,15.055-12.26"/>
		</g>
	</g>
</g>
<g id="PABLO_NEEDLES">
	<polygon fill="#009444" points="851.191,443.854 876.009,422.138 844.367,439.51 	"/>
	<polygon fill="#009444" points="825.754,408.488 845.607,377.467 818.93,404.146 	"/>
	<polygon fill="#009444" points="778.602,385.533 787.288,349.548 771.776,381.189 	"/>
	<polygon fill="#009444" points="737.653,373.124 733.931,340.862 728.968,374.365 	"/>
	<polygon fill="#009444" points="688.64,386.153 672.508,355.752 679.954,387.395 	"/>
	<polygon fill="#009444" points="644.589,424.62 614.809,406.627 637.144,427.102 	"/>
	<polygon fill="#D4A94E" points="669.406,603.303 658.239,631.223 676.231,605.164 	"/>
	<polygon fill="#D4A94E" points="846.229,566.698 864.221,579.727 851.191,564.837 	"/>
	<polygon fill="#D4A94E" points="814.586,590.274 835.682,611.989 817.689,585.932 	"/>
	<polygon fill="#D4A94E" points="746.339,617.573 753.784,647.354 751.923,615.712 	"/>
	<polygon fill="#D4A94E" points="713.456,620.675 712.837,646.733 721.521,618.193 	"/>
	
		<radialGradient id="SVGID_31_" cx="703.3564" cy="236.7031" r="193.5202" gradientTransform="matrix(1 0 0 1 0 169)" gradientUnits="userSpaceOnUse">
		<stop  offset="8.370500e-04" style="stop-color:#AEC99D"/>
		<stop  offset="0.4059" style="stop-color:#31B457"/>
		<stop  offset="0.7261" style="stop-color:#008544"/>
		<stop  offset="1" style="stop-color:#006A30"/>
	</radialGradient>
	<path fill="url(#SVGID_31_)" d="M650.793,587.792c47.153,44.671,119.122,38.467,157.588,11.168s74.452-54.598,52.116-131.53
		c-22.336-76.934-75.684-95.041-135.253-94.306c-50.255,0.621-94.305,44.671-114.159,94.306
		C611.086,467.43,603.641,543.121,650.793,587.792z"/>
	<path fill="#107139" d="M814.586,496.59c-6.46,1.33,1.242,12.408,14.891,16.751c13.65,4.343,19.233,40.948,19.233,40.948
		s8.687-6.824,11.788-12.408c3.103-5.584,5.584-20.475,5.584-20.475S835.682,492.246,814.586,496.59z"/>
	<path fill="#107139" d="M647.071,514.582c0,0-42.189-99.271-129.05-89.342c76.934,26.679,73.211,96.787,35.984,129.049
		c76.934-16.131,79.415,50.255,54.6,114.159C659.479,610.128,671.888,590.274,647.071,514.582z"/>
	
		<radialGradient id="SVGID_32_" cx="568.9189" cy="272.7598" r="95.8901" gradientTransform="matrix(1 0 0 1 0 169)" gradientUnits="userSpaceOnUse">
		<stop  offset="8.370500e-04" style="stop-color:#AEC99D"/>
		<stop  offset="0.4059" style="stop-color:#31B457"/>
		<stop  offset="0.7261" style="stop-color:#008544"/>
		<stop  offset="1" style="stop-color:#006A30"/>
	</radialGradient>
	<path fill="url(#SVGID_32_)" d="M521.201,427.468c0,0,91.746-2.228,132.145,118.188
		C642.178,469.345,579.829,416.301,521.201,427.468z"/>
	
		<radialGradient id="SVGID_33_" cx="889.7168" cy="312.4067" r="96.5522" gradientTransform="matrix(1 0 0 1 0 169)" gradientUnits="userSpaceOnUse">
		<stop  offset="8.370500e-04" style="stop-color:#AEC99D"/>
		<stop  offset="0.4059" style="stop-color:#31B457"/>
		<stop  offset="0.9702" style="stop-color:#008042"/>
	</radialGradient>
	<path fill="url(#SVGID_33_)" d="M822.715,478.651c35.362-20.476,97.066-18.159,115.396,11.167
		c9.305,14.89-30.906,42.648-45.602,41.877c-17.682-0.932-27.92-23.269-64.212-23.268
		C815.137,508.43,797.12,493.469,822.715,478.651z"/>
	<path fill="none" stroke="#006028" stroke-width="1.4525" stroke-miterlimit="10" d="M838.535,484.234
		c0,0,40.945-19.542,84.684,8.376"/>
	<path fill="none" stroke="#006028" stroke-width="1.4525" stroke-miterlimit="10" d="M838.535,498.193
		c0,0,25.126-8.375,67.002,14.89"/>
	<ellipse fill="#107139" cx="648.932" cy="446.024" rx="3.725" ry="2.172"/>
	<ellipse fill="#107139" cx="677.782" cy="439.2" rx="5.894" ry="3.257"/>
	<ellipse fill="#107139" cx="707.252" cy="409.109" rx="4.963" ry="3.102"/>
	<ellipse fill="#107139" cx="773.018" cy="415.934" rx="6.204" ry="4.344"/>
	<ellipse fill="#107139" cx="777.051" cy="390.496" rx="2.792" ry="0.621"/>
	<ellipse fill="#107139" cx="833.2" cy="428.652" rx="3.8" ry="2.133"/>
	<ellipse fill="#107139" cx="662.892" cy="409.109" rx="2.792" ry="2.481"/>
	<ellipse fill="#107139" cx="734.241" cy="381.5" rx="5.271" ry="2.172"/>
	<path fill="#D8E040" d="M863.601,536.297c0,0-29.158,50.875-91.822,67.006c-71.479,18.4-102.99,0-102.99,0
		s49.014,39.087,120.981,9.309C861.739,582.83,863.601,536.297,863.601,536.297z"/>
	
		<radialGradient id="SVGID_34_" cx="761.2305" cy="417.8105" r="69.8033" gradientTransform="matrix(1 0 0 1 0 169)" gradientUnits="userSpaceOnUse">
		<stop  offset="0" style="stop-color:#DCCE80"/>
		<stop  offset="1" style="stop-color:#D7B928"/>
	</radialGradient>
	<path fill="url(#SVGID_34_)" d="M853.053,550.566c0,0-24.189,37.861-86.857,53.978c-65.146,16.752-96.787-1.241-96.787-1.241
		s48.097,38.443,114.777,8.066C840.023,585.932,853.053,550.566,853.053,550.566z"/>
	<path fill="#009444" d="M749.442,375.606c0,0,4.963,3.722,16.131,3.102c-2.482-9.927,4.342-107.954,4.342-107.954
		S758.748,348.928,749.442,375.606z"/>
	<path fill="#009444" d="M696.705,380.569c0,0,10.548-0.62,17.372-6.204c-9.927-14.891-34.124-87.48-34.124-87.48
		S694.844,347.687,696.705,380.569z"/>
	<path fill="#009444" d="M667.545,392.979l-9.927,8.065c0,0-16.751-35.985-34.124-59.562
		C645.209,371.263,667.545,392.979,667.545,392.979z"/>
	<path fill="#009444" d="M799.075,388.015c0,0,4.965,6.204,13.028,8.686c1.24-6.824,37.848-86.239,37.848-86.239
		S813.967,376.227,799.075,388.015z"/>
	<path fill="#009444" d="M834.44,417.175c0,0,0.618,4.963,6.202,11.168c3.725-7.443,65.768-54.598,65.768-54.598
		S849.33,412.211,834.44,417.175z"/>
	<path fill="#009444" d="M719.04,399.803c0,0-3.723-58.32-9.306-107.954c7.442,41.568,22.335,107.333,22.335,107.333L719.04,399.803
		z"/>
	<path fill="#009444" d="M684.297,433.306l16.131-4.963c0,0-34.744-65.146-50.254-97.407
		C663.823,366.3,684.297,433.306,684.297,433.306z"/>
	<polygon fill="#009444" points="672.508,455.021 665.062,463.707 612.947,420.277 	"/>
	<path fill="#009444" d="M650.173,420.277l9.306-9.309c0,0-21.715-6.825-60.802-34.124
		C634.042,402.905,650.173,420.277,650.173,420.277z"/>
	<path fill="#009444" d="M631.56,440.131c0,0-19.854-1.861-53.354-22.336c29.16,19.233,45.291,34.124,45.291,34.124L631.56,440.131z
		"/>
	<path fill="#009444" d="M771.776,404.146l13.648,3.723c0,0,8.688-49.014,17.992-88.101
		C792.251,352.65,771.776,404.146,771.776,404.146z"/>
	<path fill="#009444" d="M747.581,456.882c0,0,13.028-13.028,19.231-29.16c-1.239,17.993-6.823,33.503-6.823,33.503
		S751.303,467.43,747.581,456.882z"/>
	<path fill="#009444" d="M741.376,491.626c-12.408-2.481-9.307,12.408-2.481,12.408
		C745.721,504.034,752.001,493.751,741.376,491.626z"/>
	<path fill="#009444" d="M720.901,535.056c0,0,7.443-10.547,10.548,3.725c-6.825,17.372-17.372,40.946-17.372,40.946
		S719.04,554.91,720.901,535.056z"/>
	<polygon fill="#009444" points="709.114,584.07 691.122,661.003 720.901,588.413 	"/>
	<path fill="#009444" d="M699.188,476.735l-19.232,14.891l25.438-6.204C705.392,485.422,708.493,474.254,699.188,476.735z"/>
	<path fill="#009444" d="M679.954,520.166l-25.438,9.927l18.613-19.231C673.129,510.859,678.713,515.202,679.954,520.166z"/>
	<path fill="#009444" d="M802.179,475.495l22.955-9.309l-26.059-1.239C799.075,464.947,793.492,470.531,802.179,475.495z"/>
	<path fill="#009444" d="M763.091,536.917c0,0,6.205-13.649,13.65-5.584c5.583,25.438,6.824,45.912,6.824,45.912L763.091,536.917z"
		/>
	<polygon fill="#009444" points="777.36,580.968 799.696,639.908 789.77,577.245 	"/>
	<polygon fill="#D4A94E" points="687.399,611.989 676.852,656.66 694.844,615.091 	"/>
	<polygon fill="#D4A94E" points="728.968,615.712 729.588,674.652 735.792,615.712 	"/>
	<polygon fill="#D4A94E" points="766.193,613.851 781.704,670.93 771.776,611.369 	"/>
	<polygon fill="#D4A94E" points="801.558,600.821 828.856,640.529 806.521,595.858 	"/>
	<path fill="#D4A94E" d="M830.718,576.625c0,0,3.725-3.723,5.584-3.723c1.86,0,32.265,35.982,30.401,35.982
		S830.718,576.625,830.718,576.625z"/>
	<polygon fill="#D4A94E" points="856.775,556.15 884.074,572.902 861.119,549.946 	"/>
	<path fill="#009444" d="M692.983,530.093l-25.438,45.911l35.985-40.948C703.53,535.056,706.632,523.889,692.983,530.093z"/>
	<polygon fill="#009444" points="679.954,576.625 641.487,645.492 689.261,581.588 	"/>
	<polygon fill="#009444" points="853.674,459.984 905.17,440.131 850.571,450.058 	"/>
	<polygon fill="#009444" points="798.456,435.167 844.988,384.912 803.419,440.131 	"/>
	<polygon fill="#009444" points="857.396,529.473 897.104,556.15 857.396,536.917 	"/>
</g>
<g id="GERM_SHARK">
	<g>
		<path fill="#86A1AD" d="M1278.314,698.509c0,0-19.89,10.038-35.44-9.104c-15.556-19.146,56.233-163.922,104.093-205.799
			c47.86-41.875,137.6-44.27,137.6-44.27l14.355,62.217L1278.314,698.509z"/>
		<path fill="#BE1E2D" d="M1278.314,698.509c0,0-19.89,10.038-35.44-9.104c-15.556-19.146,56.233-163.922,104.093-205.799
			c47.86-41.875,137.6-44.27,137.6-44.27l14.355,62.217L1278.314,698.509z"/>
	</g>
	<path fill="#FFFFFF" d="M1274.726,700.902c0,0-51.052,0.529-72.854-59.562c50.521,23.398,87.215,26.058,87.215,26.058
		s-14.359-12.764-23.932-60.625c39.886,20.74,73.388,28.721,73.388,28.721s-4.785-27.123-6.38-55.842
		c26.589,20.738,51.052,6.383,51.052,6.383l-1.547-41.405l33.986,0.458l10.104-30.313h22.869L1274.726,700.902z"/>
	<path fill="#FFFFFF" d="M1066.128,551.732c0,0,63.816,70.198,127.632,102.106c-25.523-49.458-23.931-87.747-23.931-87.747
		s14.358,44.671,81.364,70.196c-21.271-48.396,1.596-87.747,1.596-87.747s10.104,28.187,62.752,60.094
		c-3.19-41.479,5.851-70.196,5.851-70.196s10.636,17.553,49.458,33.505c-7.978-36.693,1.062-49.459,1.062-49.459l45.203,11.7
		v-30.312l25.523,1.062l15.954-20.208L1066.128,551.732z"/>
	<path fill="#4A6A7F" d="M1522.411,211.914c-154.988,20.394-339.757,108.171-429.099,164.01
		C1003.97,431.763,981.572,462.392,972,473.56c60.625,79.771,61.579,88.062,143.586,92.533
		c87.747,4.786,343.01-81.365,343.01-81.365s-121.25,186.661-216.974,208.997c110.082,47.862,264.835,43.076,392.467,17.549
		c127.632-25.523,31.908-483.402,31.908-483.402S1643.661,195.961,1522.411,211.914z"/>
	<ellipse cx="1287.487" cy="420.911" rx="14.355" ry="21.537"/>
	<ellipse cx="1078.956" cy="419.146" rx="11.667" ry="17.5"/>
	<path fill="#9EC4D8" d="M972,473.559c0,0,226.996,73.464,349.842,20.817c122.846-52.648,325.01-148.449,377.659-116.542
		c25.525,111.678,30.312,309.507-39.886,343.01c-70.198,33.503-325.46,19.146-417.993-27.121
		c95.724-35.1,154.753-118.06,226.546-215.378c-68.706,43.722-328.742,102.339-410.018,81.364
		C1008.694,546.947,978.382,488.715,972,473.559z"/>
	<path fill="#3F515B" d="M1051.77,550.138c0,0,178.336,2.47,286.823-48.583c108.486-51.052,268.374-139.673,378.456-110.956
		c-9.572-35.098-22.335-51.053-19.145-52.648c3.189-1.596-209.453,67.674-310.256,121.727
		c-56.289,30.186-111.131,48.98-167.5,62.275C1166.281,534.658,1111.02,542.342,1051.77,550.138z"/>
	<path fill="#86A1AD" d="M999.919,480.738c0,0,24.333,72.59,87.747,82.162c59.012,8.905,164.346-0.976,248.085-30.312
		c134.812-47.233,120.451-63.816,171.504-47.862c-55.839,108.486-96.521,152.36-238.512,207.401
		c106.892,47.862,349.392,78.174,430.758,11.168c81.364-67.008,59.029-272.813,15.954-320.675
		c-102.107-3.191-253.223,53.922-336.182,98.593C1296.312,525.885,1109.267,518.305,999.919,480.738z"/>
	<ellipse fill="#FFFFFF" cx="1076.498" cy="429.287" rx="3.988" ry="6.78"/>
	<ellipse fill="#FFFFFF" cx="1283.501" cy="433.151" rx="5.235" ry="8.899"/>
</g>
<g id="PABLO_UNPUFFED">
	
		<radialGradient id="SVGID_35_" cx="695.6582" cy="727.9512" r="153.7871" gradientTransform="matrix(1 0 0 -0.7819 0 1019.892)" gradientUnits="userSpaceOnUse">
		<stop  offset="8.370500e-04" style="stop-color:#AEC99D"/>
		<stop  offset="0.4059" style="stop-color:#31B457"/>
		<stop  offset="0.7261" style="stop-color:#008544"/>
		<stop  offset="1" style="stop-color:#006A30"/>
	</radialGradient>
	<path fill="url(#SVGID_35_)" d="M653.889,563.852c37.471,27.757,94.659,23.903,125.228,6.939
		c30.568-16.962,59.163-33.924,41.415-81.729c-17.75-47.805-60.143-59.056-107.479-58.599c-39.938,0.386-74.94,27.757-90.719,58.599
		C622.335,489.062,616.419,536.096,653.889,563.852z"/>
	<path fill="#107139" d="M778.221,507.919c-5.137,1.058,0.983,9.857,11.833,13.311c10.847,3.452,15.28,32.541,15.28,32.541
		s6.903-5.423,9.367-9.858c2.466-4.438,4.438-16.271,4.438-16.271S794.984,504.467,778.221,507.919z"/>
	<path fill="#107139" d="M650.401,522.747c0,0-33.525-78.888-102.549-70.996c61.135,21.2,58.177,76.912,28.596,102.549
		c61.135-12.818,63.107,39.936,43.386,90.717C660.262,598.672,670.122,582.896,650.401,522.747z"/>
	
		<radialGradient id="SVGID_36_" cx="588.2959" cy="665.1221" r="76.1995" gradientTransform="matrix(1 0 0 -1 0 1130)" gradientUnits="userSpaceOnUse">
		<stop  offset="8.370500e-04" style="stop-color:#AEC99D"/>
		<stop  offset="0.4059" style="stop-color:#31B457"/>
		<stop  offset="0.7261" style="stop-color:#008544"/>
		<stop  offset="1" style="stop-color:#006A30"/>
	</radialGradient>
	<path fill="url(#SVGID_36_)" d="M550.378,453.521c0,0,72.907-1.77,105.012,93.917C646.514,486.799,596.967,444.646,550.378,453.521
		z"/>
	
		<radialGradient id="SVGID_37_" cx="837.9219" cy="634.1455" r="76.7255" gradientTransform="matrix(1 0 0 -1 0 1130)" gradientUnits="userSpaceOnUse">
		<stop  offset="8.370500e-04" style="stop-color:#AEC99D"/>
		<stop  offset="0.4059" style="stop-color:#31B457"/>
		<stop  offset="0.9702" style="stop-color:#008042"/>
	</radialGradient>
	<path fill="url(#SVGID_37_)" d="M784.68,493.664c28.102-16.271,77.134-14.433,91.695,8.874
		c7.396,11.832-24.559,33.893-36.232,33.274c-14.05-0.736-22.188-18.485-51.026-18.484
		C778.658,517.328,764.342,505.438,784.68,493.664z"/>
	<path fill="none" stroke="#006028" stroke-width="1.1543" stroke-miterlimit="10" d="M797.252,498.101
		c0,0,32.537-15.528,67.294,6.656"/>
	<path fill="none" stroke="#006028" stroke-width="1.1543" stroke-miterlimit="10" d="M797.252,509.193
		c0,0,19.969-6.652,53.243,11.832"/>
	<ellipse fill="#107139" cx="651.88" cy="486.597" rx="2.959" ry="1.726"/>
	<ellipse fill="#107139" cx="674.806" cy="481.174" rx="4.684" ry="2.588"/>
	<ellipse fill="#107139" cx="698.225" cy="457.262" rx="3.941" ry="2.464"/>
	<ellipse fill="#107139" cx="750.484" cy="462.686" rx="4.93" ry="3.451"/>
	<ellipse fill="#107139" cx="753.689" cy="442.471" rx="2.219" ry="0.494"/>
	<ellipse fill="#107139" cx="798.31" cy="472.791" rx="3.02" ry="1.695"/>
	<ellipse fill="#107139" cx="662.974" cy="457.262" rx="2.219" ry="1.971"/>
	<ellipse fill="#107139" cx="719.671" cy="435.323" rx="4.19" ry="1.726"/>
	<path fill="#D8E040" d="M822.996,531.854c0,0-23.172,31.612-72.969,41.636c-56.798,11.437-81.841,0-81.841,0
		s38.949,24.288,96.141,5.783C821.517,560.769,822.996,531.854,822.996,531.854z"/>
	
		<radialGradient id="SVGID_38_" cx="741.6475" cy="584.0254" r="55.4698" gradientTransform="matrix(1 0 0 -0.7819 0 1019.892)" gradientUnits="userSpaceOnUse">
		<stop  offset="0" style="stop-color:#DCCE80"/>
		<stop  offset="1" style="stop-color:#D7B928"/>
	</radialGradient>
	<path fill="url(#SVGID_38_)" d="M814.614,540.721c0,0-19.224,23.527-69.021,33.541c-51.771,10.409-76.913-0.771-76.913-0.771
		s38.221,23.888,91.21,5.012C804.261,562.696,814.614,540.721,814.614,540.721z"/>
</g>
<g id="BUBBLES">
	<circle fill="#FFFFFF" cx="839.017" cy="340.733" r="7.91"/>
	<circle fill="#FFFFFF" cx="852.51" cy="310.488" r="5.583"/>
	<circle fill="#FFFFFF" cx="836.689" cy="316.073" r="2.327"/>
	<circle fill="#FFFFFF" cx="835.759" cy="284.433" r="1.861"/>
	<circle fill="#FFFFFF" cx="835.294" cy="268.147" r="5.118"/>
	<circle fill="#FFFFFF" cx="853.906" cy="290.48" r="3.257"/>
	<circle fill="#FFFFFF" cx="819.008" cy="239.764" r="1.861"/>
	<circle fill="#FFFFFF" cx="832.036" cy="225.805" r="1.861"/>
	<circle fill="#FFFFFF" cx="853.905" cy="208.589" r="6.048"/>
	<circle fill="#FFFFFF" cx="832.968" cy="187.651" r="1.861"/>
	<circle fill="#FFFFFF" cx="824.127" cy="363.068" r="1.396"/>
	<circle fill="#FFFFFF" cx="869.261" cy="301.184" r="2.326"/>
</g>
</svg>
