<?xml version="1.0" encoding="iso-8859-1"?>
<!-- Generator: Adobe Illustrator 16.0.0, SVG Export Plug-In . SVG Version: 6.00 Build 0)  -->
<!DOCTYPE svg PUBLIC "-//W3C//DTD SVG 1.1//EN" "http://www.w3.org/Graphics/SVG/1.1/DTD/svg11.dtd">
<svg version="1.1" xmlns="http://www.w3.org/2000/svg" xmlns:xlink="http://www.w3.org/1999/xlink" x="0px" y="0px" width="1440px"
	 height="960px" viewBox="0 0 1440 960" enable-background="new 0 0 1440 960" xml:space="preserve">
<g id="SEA">
	<linearGradient id="SVGID_1_" gradientUnits="userSpaceOnUse" x1="731.2012" y1="563.1367" x2="731.2012" y2="836.2518">
		<stop  offset="0" style="stop-color:#5BC0AC"/>
		<stop  offset="1" style="stop-color:#56A384"/>
	</linearGradient>
	<rect x="-50.906" y="-58.264" fill="url(#SVGID_1_)" width="1564.214" height="1047.264"/>
	<path opacity="0.3" fill="#AEDBC3" d="M-568.998,647.051c154.312-51.438,871.414,63.539,1222.397,121.029
		c350.984,57.486,1199.706-169.443,1240.549-226.93c40.841-57.489-12.105-57.489-12.105-57.489S1364.443,762.025,813.762,704.54
		C263.08,647.051-130.271,356.581-559.921,414.07C-989.574,471.556-568.998,647.051-568.998,647.051z"/>
	<path opacity="0.6" fill="#AEDBC3" d="M-696.998,719.051c154.312-51.438,871.414,63.539,1222.397,121.029
		c350.984,57.486,1199.706-169.443,1240.549-226.93c40.841-57.489-12.105-57.489-12.105-57.489S1236.443,834.025,685.762,776.54
		C135.08,719.051-258.271,428.581-687.921,486.07C-1117.574,543.557-696.998,719.051-696.998,719.051z"/>
	<path opacity="0.3" fill="#AEDBC3" d="M-544.792,848.238c205.75-78.672,611.197-148.264,883.513-21.181
		c272.316,127.08,853.256,154.311,1062.032,118.003c208.775-36.309,441.758-118.003,441.758-118.003V569.868
		c0,0-720.128,287.448-1013.622,251.139C535.396,784.698-336.019,654.582-493.355,742.335
		C-650.692,830.085-544.792,848.238-544.792,848.238z"/>
</g>
<g id="PABLO">
	<path fill="#D4A94E" d="M1004.46,745.024c44.671,45.629,75.275,91.117,75.275,91.117s-29.583-45.206-59.711-103.334
		C1020.024,732.808,1005.461,727.623,1004.46,745.024z"/>
	<path fill="#D4A94E" d="M992.577,706.632c61.751,16.246,142.523,57.812,142.523,57.812s-79.742-41.85-135.427-76.285
		C999.674,688.159,984.512,691.184,992.577,706.632z"/>
	<path fill="#B27F3E" d="M961.552,731.071c40.677,49.22,82.035,130.101,82.035,130.101s-40.357-80.506-65.498-140.962
		C978.089,720.21,964.011,713.82,961.552,731.071z"/>
	<g>
		<path fill="#B27F3E" d="M888.283,747.584c22.157,59.89,34.521,149.885,34.521,149.885s-11.539-89.323-15.329-154.688
			C907.475,742.78,896.295,732.11,888.283,747.584z"/>
		<path fill="#B27F3E" d="M797.572,755.826c0.905,63.854-17.473,152.82-17.473,152.82s18.927-88.052,37.157-150.941
			C817.257,757.705,810.282,743.91,797.572,755.826z"/>
		<path fill="#B27F3E" d="M719.181,731.188c-21.22,60.23-69.21,137.355-69.21,137.355s48.194-76.088,87.039-128.789
			C737.01,739.755,735.228,724.399,719.181,731.188z"/>
		<path fill="#009444" d="M1040.155,666.288c60.317,20.957,137.658,68.624,137.658,68.624s-76.293-47.867-129.162-86.49
			C1048.651,648.422,1033.303,650.266,1040.155,666.288z"/>
		<path fill="#009444" d="M1015.325,640.784c62.241,14.261,144.322,53.192,144.322,53.192s-81.063-39.247-137.828-71.879
			C1021.819,622.098,1006.767,625.612,1015.325,640.784z"/>
		<polyline fill="#107139" points="606.918,463.882 582.1,456.435 602.663,476.645 		"/>
		<polyline fill="#107139" points="595.217,493.664 570.4,486.219 590.963,506.428 		"/>
		<path fill="#107139" d="M633.782,703.558c-47.788,42.354-103.258,71.332-103.258,71.332s55.133-27.963,114.686-55.179
			C645.21,719.711,651.106,705.42,633.782,703.558z"/>
		<path fill="#009444" d="M913.292,361.594c8.435-63.297,20.882-106.192,20.882-106.192s-12.858,41.911-40.095,101.452
			C894.079,356.854,898.975,371.518,913.292,361.594z"/>
		<path fill="#009444" d="M845.462,364.679c-15.298-61.996-18.718-114.596-18.718-114.596s2.676,51.833-0.896,117.209
			C825.848,367.292,835.765,379.153,845.462,364.679z"/>
		<path fill="#009444" d="M796.147,370.648c-26.394-58.145-39.381-109.23-39.381-109.23s12.12,50.466,20.575,115.392
			C777.342,376.81,789.263,386.655,796.147,370.648z"/>
		<path fill="#009444" d="M749.578,393.599c-35.741-52.914-57.089-101.108-57.089-101.108s20.389,47.73,39.575,110.328
			C732.064,402.818,745.465,410.531,749.578,393.599z"/>
		<path fill="#107139" d="M715.32,424.476c-43.315-46.918-71.69-91.339-71.69-91.339s27.357,44.106,55.769,103.093
			C699.398,436.229,713.808,441.833,715.32,424.476z"/>
		<path fill="#107139" d="M676.313,452.889c-53.045-35.542-90.985-72.135-90.985-72.135s36.877,36.525,78.242,87.272
			C663.57,468.027,678.886,470.122,676.313,452.889z"/>
		<path fill="#009444" d="M638.72,495.391c-60.853-19.336-107.492-43.898-107.492-43.898s45.595,24.793,99.478,61.992
			C630.705,513.484,645.994,511.225,638.72,495.391z"/>
		<path fill="#107139" d="M646.631,522.727c-63.041-10.176-112.782-27.613-112.782-27.613s48.746,17.816,107.514,46.686
			C641.362,541.799,656.155,537.314,646.631,522.727z"/>
		<path fill="#107139" d="M652.173,541.903c-63.807,2.422-116.006-4.895-116.006-4.895s51.297,7.886,114.593,24.634
			C650.76,561.643,664.382,554.338,652.173,541.903z"/>
		<path fill="#009444" d="M999.877,409.316c40.836-49.093,72.574-77.331,72.574-77.331s-31.561,27.188-86.314,63.088
			C986.137,395.074,982.472,410.098,999.877,409.316z"/>
		<path fill="#009444" d="M1031.67,473.9c50.056-39.648,86.923-60.756,86.923-60.756s-36.477,20.119-97.441,43.993
			C1021.151,457.138,1014.478,471.086,1031.67,473.9z"/>
		<path fill="#107139" d="M595.929,569.716c0,0-37.762,9.573-58.15-31.378c-13.819-27.762-42.546-102.112-110.622-98.921
			c45.737,60.629,49.993,112.748,38.292,125.513c3.957,5.651,7.308,9.796,9.585,12.448c2.013,2.338,3.18,3.507,3.18,3.507
			c20.919,37.228,31.199,95.731,29.783,117.006c0,0,0,37.228-14.891,60.629c36.164-11.701,60.275-37.229,68.785-80.308
			c8.509-43.08,31.378-43.08,31.378-43.08S591.839,612.304,595.929,569.716z"/>
		<polyline fill="#009444" points="1094.079,653.216 1131.307,662.789 1098.333,642.578 		"/>
		<path fill="#009444" d="M1057.651,480.517c21.938-3.473,55.208-14.002,55.208-14.002s-36.727,17.576-48.627,28.846"/>
		<polyline fill="#009444" points="1012.176,419.207 1029.905,394.742 1003.666,408.569 		"/>
		<polyline fill="#009444" points="1035.576,451.117 1053.307,426.652 1027.067,440.479 		"/>
		<polyline fill="#009444" points="967.502,369.214 981.328,337.305 954.737,356.45 		"/>
		<polyline fill="#009444" points="879.216,329.858 893.756,307.521 895.882,334.113 		"/>
		<polyline fill="#009444" points="842.654,328.902 849.905,301.879 858.746,328.533 		"/>
		<polyline fill="#009444" points="782.424,338.368 785.261,312.84 800.505,335.177 		"/>
		<polyline fill="#009444" points="753.705,347.941 756.542,322.413 771.786,344.75 		"/>
		<polyline fill="#107139" points="620.118,447.612 607.815,425.066 633.111,434.637 		"/>
		<polyline fill="#107139" points="637.581,420.918 627.776,397.182 651.896,409.416 		"/>
		<polyline fill="#107139" points="662.153,399.507 653.831,375.209 677.149,388.907 		"/>
		<polyline fill="#107139" points="679.655,387.068 675.811,361.675 696.303,379.32 		"/>
		<polyline fill="#009444" points="706.246,370.05 702.403,344.657 722.895,362.302 		"/>
		<polyline fill="#009444" points="727.521,359.413 723.676,334.02 744.168,351.666 		"/>
		<polyline fill="#009444" points="1064.89,511.951 1092.836,498.391 1063.829,499.594 		"/>
		<polyline fill="#009444" points="1053.414,478.265 1077.171,458.25 1049.351,466.548 		"/>
		<radialGradient id="SVGID_2_" cx="1106.8408" cy="562.8037" r="106.2216" gradientUnits="userSpaceOnUse">
			<stop  offset="8.370500e-04" style="stop-color:#AEC99D"/>
			<stop  offset="0.4059" style="stop-color:#31B457"/>
			<stop  offset="0.9702" style="stop-color:#008042"/>
		</radialGradient>
		<path fill="url(#SVGID_2_)" d="M1100.46,636.906c0,0,17.016,11.349,22.691-21.274c5.675-32.619-36.872-77.294-36.872-77.294
			S1064.649,614.216,1100.46,636.906z"/>
		<path fill="#009444" d="M555.509,585.139l7.802-27.185c0.121-1.28,0.244-2.556,0.37-3.831
			C557.893,572.97,555.509,585.139,555.509,585.139z"/>
		<path fill="#009444" d="M565.654,547.87c-0.381,0.423-0.883,0.934-1.499,1.475c-0.162,1.591-0.316,3.183-0.474,4.778
			C564.301,552.116,564.961,550.021,565.654,547.87z"/>
		<path fill="#009444" d="M563.311,557.954l3.188-11.107c0,0-0.295,0.415-0.845,1.023c-0.692,2.151-1.353,4.246-1.973,6.253
			C563.555,555.398,563.432,556.674,563.311,557.954z"/>
		<radialGradient id="SVGID_3_" cx="756.543" cy="390.4897" r="401.7723" gradientUnits="userSpaceOnUse">
			<stop  offset="8.370500e-04" style="stop-color:#AEC99D"/>
			<stop  offset="0.4059" style="stop-color:#31B457"/>
			<stop  offset="0.7261" style="stop-color:#008544"/>
			<stop  offset="1" style="stop-color:#006A30"/>
		</radialGradient>
		<path fill="url(#SVGID_3_)" d="M944.454,346.169c-51.057-29.783-146.075-36.873-252.443,24.109
			c-73.272,42.007-110.363,128.085-126.357,177.592c0.549-0.608,0.845-1.023,0.845-1.023l-3.188,11.107
			c-4.088,42.587-6.88,86.138-0.926,127.172h6.951c96.441,146.071,159.551,153.168,311.298,138.983
			c151.752-14.177,225.499-164.495,225.499-218.403C1106.133,530.539,995.511,375.951,944.454,346.169z"/>
		<path fill="#107139" d="M565.654,547.87c0,0-11.741,111.196,60.588,159.594c63.214,42.298,119.663,24.995,166.464,15.423
			c46.802-9.573,145.191-24.996,172.848-27.656c-75.521,14.359-114.345,25.529-152.106,43.08
			c-37.76,17.551-116.471,74.987-157.423,48.927c-48.929-45.205-80.839-84.028-96.262-127.64S565.654,547.87,565.654,547.87z"/>
		<path fill="#107139" d="M593.452,688.666c0,0,60.98-48.222,20.562-70.199c-19.857,21.271-41.837,42.543-41.837,42.543
			L593.452,688.666z"/>
		<path fill="#A13422" d="M983.104,653.216c0,0-3.19-14.894-9.573-20.212c-36.164-8.508-75.521,3.191-85.094,9.574
			c-9.572,6.384-16.664,10.638-8.51,18.083c8.157,7.445,40.42,21.274,68.076,17.019
			C975.657,673.426,983.104,653.216,983.104,653.216z"/>
		<path fill="#F9ED32" d="M856.688,632.311c7.39,29.56,55.145,1.757,87.766,0.341c32.62-1.417,22.694,7.086,35.459,5.671
			c12.764-1.416,36.875-25.527-8.51-29.783c-32.199-3.019-65.112,10.026-85.822,24.698
			C877.101,639.245,860.19,626.747,856.688,632.311z"/>
		<path fill="#F9ED32" d="M973.53,633.004c0,0,16.308,29.785-31.557,36.167c-27.988,3.728-45.324-8.6-57.681-13.818
			c-2.605-1.101-19.23-22.79-21.445-23.042c-28.008-3.19,17.434,45.369,54.662,56.007c37.228,10.637,64.455-2.552,71.266-17.019
			C997.283,653.216,990.728,637.791,973.53,633.004z"/>
		
			<radialGradient id="SVGID_4_" cx="753.5381" cy="517.8975" r="114.9598" gradientTransform="matrix(1 0 0 0.8718 0 59.4624)" gradientUnits="userSpaceOnUse">
			<stop  offset="0" style="stop-color:#009444"/>
			<stop  offset="1" style="stop-color:#006838"/>
		</radialGradient>
		<ellipse fill="url(#SVGID_4_)" cx="777.566" cy="539.119" rx="67.473" ry="78.429"/>
		
			<radialGradient id="SVGID_5_" cx="748.2207" cy="510.5762" r="153.658" gradientTransform="matrix(1 0 0 0.8718 0 59.4624)" gradientUnits="userSpaceOnUse">
			<stop  offset="0" style="stop-color:#FFFFFF"/>
			<stop  offset="1" style="stop-color:#E6E7E8"/>
		</radialGradient>
		<ellipse fill="url(#SVGID_5_)" cx="772.248" cy="532.737" rx="67.472" ry="78.429"/>
		
			<radialGradient id="SVGID_6_" cx="989.5596" cy="515.8574" r="114.3301" gradientTransform="matrix(1 0 0 0.8718 0 59.4624)" gradientUnits="userSpaceOnUse">
			<stop  offset="0" style="stop-color:#009444"/>
			<stop  offset="1" style="stop-color:#006838"/>
		</radialGradient>
		<path fill="url(#SVGID_6_)" d="M1070.678,535.329c0,37.761-22.465,68.378-50.172,68.378c-27.709,0-50.17-30.617-50.17-68.378
			s22.461-68.374,50.17-68.374C1048.213,466.955,1070.678,497.568,1070.678,535.329z"/>
		
			<radialGradient id="SVGID_7_" cx="985.3047" cy="510.9785" r="114.3301" gradientTransform="matrix(1 0 0 0.8718 0 59.4624)" gradientUnits="userSpaceOnUse">
			<stop  offset="0" style="stop-color:#FFFFFF"/>
			<stop  offset="1" style="stop-color:#E6E7E8"/>
		</radialGradient>
		<path fill="url(#SVGID_7_)" d="M1066.423,531.075c0,37.76-22.466,68.378-50.171,68.378c-27.71,0-50.171-30.618-50.171-68.378
			c0-37.763,22.461-68.374,50.171-68.374C1043.957,462.701,1066.423,493.312,1066.423,531.075z"/>
		<path fill="#D8E040" d="M656.024,787.237c39.357,20.211,137.109-62.331,278.149-87.219c108.495-19.146,137.566,0,137.566,0
			s-28.009,72.329-122.675,109.558c-94.666,37.228-203.16,20.209-234.006,10.636C684.213,810.64,656.024,787.237,656.024,787.237z"
			/>
		<path fill="#009444" d="M689.529,706.4c-31.909,55.311-93.248,122.32-93.248,122.32S657.62,762.773,705.487,718.1
			C705.487,718.1,706.548,702.677,689.529,706.4z"/>
		<path fill="#009444" d="M649.257,664.177c-47.67,42.488-126.952,86.848-126.952,86.848s78.949-43.346,138.423-70.726
			C660.729,680.299,666.584,665.988,649.257,664.177z"/>
		<path fill="#107139" d="M632.671,727.375c-38.26,51.131-86.737,90.71-86.737,90.71s48.353-38.525,101.187-77.19
			C647.121,740.895,650.013,725.703,632.671,727.375z"/>
		<path fill="#009444" d="M774.162,389.785c-35.157-53.306-67.595-138.163-67.595-138.163s31.485,84.381,49.987,147.187
			C756.555,398.809,769.867,406.669,774.162,389.785z"/>
		<path fill="#009444" d="M826.386,346.13c-20.466-60.488-31.552-138.593-31.552-138.593s10.283,77.403,12.228,142.849
			C807.062,350.386,817.944,361.368,826.386,346.13z"/>
		<path fill="#009444" d="M939.871,361.671c20.729-60.396,59.652-129.015,59.652-129.015s-39.127,67.574-77.556,120.584
			C921.968,353.24,923.878,368.583,939.871,361.671z"/>
		<path fill="#009444" d="M718.312,383.181c-42.238-47.89-82.63-115.657-82.63-115.657s39.381,67.427,66.446,127.048
			C702.128,394.572,716.404,400.499,718.312,383.181z"/>
		<path fill="#009444" d="M698.04,434.772c-49.178-40.734-96.794-96.404-96.794-96.404s46.569,55.494,82.589,110.173
			C683.835,448.541,698.858,452.174,698.04,434.772z"/>
		<path fill="#009444" d="M621.573,525.948c-63.414-7.536-133.612-28.468-133.612-28.468s69.227,21.35,129.15,47.743
			C617.111,545.224,631.702,540.12,621.573,525.948z"/>
		<path fill="#009444" d="M643.628,467.244c-56.558-29.643-114.686-74.221-114.686-74.221s57.063,44.622,103.649,90.638
			C632.591,483.661,648.039,484.098,643.628,467.244z"/>
		<path fill="#009444" d="M878.693,379.461c-9.431-63.158-3.113-153.78-3.113-153.78s-6.979,89.792-16.655,154.549
			C858.925,380.23,867.688,392.963,878.693,379.461z"/>
		<path fill="#009444" d="M973.768,402.408c23.367-59.428,58.265-110.842,58.265-110.842s-35.056,50.364-75.777,101.639
			C956.255,393.205,957.487,408.612,973.768,402.408z"/>
		<path fill="#009444" d="M1025.771,441.043c42.842-47.357,81.783-76.083,81.783-76.083s-38.721,27.69-94.92,61.292
			C1012.634,426.252,1008.353,441.103,1025.771,441.043z"/>
		<ellipse cx="776.964" cy="523.558" rx="33.505" ry="48.397"/>
		<ellipse fill="#FFFFFF" cx="780.019" cy="512.225" rx="8.345" ry="12.055"/>
		<path d="M1047.917,524.855c0,22.063-12.378,39.945-27.655,39.945c-15.278,0-27.655-17.882-27.655-39.945
			c0-22.059,12.377-39.945,27.655-39.945C1035.539,484.91,1047.917,502.797,1047.917,524.855z"/>
		<path fill="none" stroke="#000000" stroke-width="3.4256" stroke-miterlimit="10" d="M566.145,680.872"/>
		<radialGradient id="SVGID_8_" cx="532.4604" cy="618.1152" r="172.8813" gradientUnits="userSpaceOnUse">
			<stop  offset="8.370500e-04" style="stop-color:#AEC99D"/>
			<stop  offset="0.4059" style="stop-color:#31B457"/>
			<stop  offset="0.9702" style="stop-color:#008042"/>
		</radialGradient>
		<path fill="url(#SVGID_8_)" d="M594.154,614.927c-17.061-0.744-15.602-12.764-35.456-43.964
			c-19.86-31.201-52.477-8.51-72.33,11.343c-19.017,19.009-15.468,51.56,18.436,93.604c18.931,23.468,42.547,24.108,83.678-1.42
			c39.469-24.499,32.616-45.384,32.616-45.384C611.882,612.088,610.463,615.636,594.154,614.927z"/>
		<path fill="#FFFFFF" d="M1029.292,520.934c0,5.41-3.034,9.797-6.777,9.797s-6.781-4.387-6.781-9.797
			c0-5.406,3.038-9.792,6.781-9.792S1029.292,515.527,1029.292,520.934z"/>
		<path fill="#F1B937" d="M861,638.469c1.596,0,21.587,15.279,33.819,8.897s38.466-13.651,49.635-14.715
			c11.168-1.064,26.06,3.013,29.43,5.671c3.369,2.662,10.283,0,17.197-5.318c6.913-5.318-5.318-13.295-30.847-13.295
			s-54.447,11.396-67.211,19.376C880.261,647.062,861,638.469,861,638.469z"/>
		<path fill="#F1B937" d="M968.744,633.004c0,0,13.828,13.83,0.531,25.531c14.892-5.319,17.02-14.893,10.638-20.213
			C973.53,633.004,968.744,633.004,968.744,633.004z"/>
		<path fill="#F1B937" d="M867.774,658.174c0,0,17.471,5.679,30.768,15.252s40.951,20.741,59.564,17.02
			C933.11,696.827,897.555,683.702,867.774,658.174z"/>
		<radialGradient id="SVGID_9_" cx="1018.5566" cy="714.9072" r="252.6676" gradientUnits="userSpaceOnUse">
			<stop  offset="0" style="stop-color:#DCCE80"/>
			<stop  offset="1" style="stop-color:#D7B928"/>
		</radialGradient>
		<path fill="url(#SVGID_9_)" d="M1052.241,702.145c-26.943-8.51-64.525-7.803-98.718-5.276c-6.148,0.914-12.592,1.952-19.35,3.15
			c-141.04,24.888-238.792,107.43-278.149,87.219c0,0,28.188,23.402,59.035,32.975c21.942,6.806,83.187,17.367,150.783,9.507
			C945.164,810.64,1023.877,778.729,1052.241,702.145z"/>
		<path fill="none" stroke="#006028" stroke-width="4.2547" stroke-miterlimit="10" d="M495.594,607.123
			c0,0,22.691,56.729,56.728,62.404"/>
		<path fill="none" stroke="#006028" stroke-width="4.2547" stroke-miterlimit="10" d="M521.122,585.85
			c0,0,19.856,48.218,52.472,56.729"/>
		<path fill="#009444" d="M741.926,741.044c-15.528,61.934-56.15,143.196-56.15,143.196s40.913-80.241,74.7-136.315
			C760.476,747.925,757.273,732.8,741.926,741.044z"/>
		<path fill="#D4A94E" d="M835.573,758.013c5.871,63.587-5.534,153.716-5.534,153.716s12.02-89.265,25.315-153.367
			C855.354,758.361,847.323,745.148,835.573,758.013z"/>
		<path fill="#D4A94E" d="M755.835,790.039c-9.266,63.18-29.076,112.075-29.076,112.075s20.206-47.906,48.223-107.081
			C774.981,795.033,770.286,780.309,755.835,790.039z"/>
		<path fill="#D4A94E" d="M856.526,804.232c14.892,58.526,21.274,115.965,21.274,115.965s-3.191-56.375-1.954-120.22
			C875.847,799.978,864.966,788.991,856.526,804.232z"/>
		<path fill="#D4A94E" d="M963.272,781.438c36.684,52.269,55.883,101.405,55.883,101.405s-18.234-48.687-38.545-110.93
			C980.61,771.914,967.082,764.437,963.272,781.438z"/>
		<path fill="#D4A94E" d="M934.283,757.938c26.566,58.061,45.612,146.886,45.612,146.886s-18.178-88.21-26.832-153.111
			C953.063,751.713,941.113,741.907,934.283,757.938z"/>
	</g>
	<path fill="#107139" d="M941.62,380.207c0,5.484-7.936,9.927-17.729,9.927c-9.79,0-17.725-4.443-17.725-9.927
		s7.935-9.927,17.725-9.927C933.685,370.279,941.62,374.723,941.62,380.207z"/>
	<ellipse fill="#107139" cx="896.946" cy="336.243" rx="7.799" ry="4.255"/>
	<path fill="#107139" d="M826.744,376.662c0,3.526-4.125,6.382-9.221,6.382c-5.089,0-9.215-2.856-9.215-6.382
		s4.126-6.383,9.215-6.383C822.619,370.279,826.744,373.136,826.744,376.662z"/>
	<circle fill="#107139" cx="720.377" cy="417.082" r="5.671"/>
	<circle fill="#107139" cx="614.01" cy="563.157" r="2.838"/>
	<path fill="#107139" d="M999.77,415.665c0,1.566-1.272,2.836-2.838,2.836c-1.567,0-2.839-1.27-2.839-2.836
		c0-1.569,1.271-2.839,2.839-2.839C998.497,412.826,999.77,414.096,999.77,415.665z"/>
	<path fill="#107139" d="M657.974,490.122c0,2.739-2.858,4.962-6.382,4.962s-6.382-2.223-6.382-4.962
		c0-2.743,2.858-4.966,6.382-4.966S657.974,487.379,657.974,490.122z"/>
	<path fill="#D4A94E" d="M1015.757,738.846c51.847,37.278,112.841,87.724,112.841,87.724s-59.936-50.338-99.604-102.42
		C1028.994,724.149,1013.759,721.541,1015.757,738.846z"/>
</g>
</svg>
