<?xml version="1.0" encoding="utf-8"?>
<!-- Generator: Adobe Illustrator 16.0.0, SVG Export Plug-In . SVG Version: 6.00 Build 0)  -->
<!DOCTYPE svg PUBLIC "-//W3C//DTD SVG 1.1//EN" "http://www.w3.org/Graphics/SVG/1.1/DTD/svg11.dtd">
<svg version="1.1" id="Layer_1" xmlns="http://www.w3.org/2000/svg" xmlns:xlink="http://www.w3.org/1999/xlink" x="0px" y="0px"
	 width="1440px" height="960px" viewBox="0 0 1440 960" enable-background="new 0 0 1440 960" xml:space="preserve">
<linearGradient id="SVGID_1_" gradientUnits="userSpaceOnUse" x1="731.2012" y1="394.1367" x2="731.2012" y2="667.2518" gradientTransform="matrix(1 0 0 1 0 169)">
	<stop  offset="0" style="stop-color:#5BC0AC"/>
	<stop  offset="1" style="stop-color:#56A384"/>
</linearGradient>
<rect x="-50.906" y="-58.264" fill="url(#SVGID_1_)" width="1564.212" height="1047.264"/>
<g id="SEA">
	<path opacity="0.3" fill="#AEDBC3" enable-background="new    " d="M-568.998,647.051
		c154.312-51.438,871.414,63.539,1222.397,121.029c350.982,57.486,1199.706-169.443,1240.549-226.93
		c40.841-57.489-12.105-57.489-12.105-57.489S1364.443,762.025,813.762,704.54C263.08,647.051-130.271,356.581-559.921,414.07
		C-989.574,471.556-568.998,647.051-568.998,647.051z"/>
	<path opacity="0.6" fill="#AEDBC3" enable-background="new    " d="M-696.998,719.051
		c154.312-51.438,871.414,63.539,1222.397,121.029c350.982,57.486,1199.706-169.443,1240.549-226.93
		c40.841-57.489-12.105-57.489-12.105-57.489S1236.443,834.025,685.762,776.54C135.08,719.051-258.271,428.581-687.921,486.07
		C-1117.574,543.557-696.998,719.051-696.998,719.051z"/>
	<path opacity="0.3" fill="#AEDBC3" enable-background="new    " d="M-544.792,848.238
		c205.75-78.672,611.197-148.266,883.513-21.183c272.316,127.08,853.256,154.312,1062.032,118.003
		c208.775-36.309,441.758-118.003,441.758-118.003V569.868c0,0-720.128,287.448-1013.622,251.139
		C535.396,784.698-336.019,654.582-493.355,742.335C-650.692,830.085-544.792,848.238-544.792,848.238z"/>
</g>
<g id="PABLO">
	<path fill="#D4A94E" d="M1186.647,555.024c44.671,45.629,75.275,91.115,75.275,91.115s-29.583-45.206-59.711-103.334
		C1202.212,542.808,1187.648,537.623,1186.647,555.024z"/>
	<path fill="#D4A94E" d="M1174.765,516.632c61.751,16.246,142.521,57.812,142.521,57.812s-79.74-41.852-135.427-76.285
		C1181.861,498.159,1166.699,501.184,1174.765,516.632z"/>
	<path fill="#B27F3E" d="M1143.739,541.071c40.677,49.22,82.035,130.101,82.035,130.101s-40.355-80.506-65.498-140.962
		C1160.276,530.21,1146.198,523.82,1143.739,541.071z"/>
	<g>
		<path fill="#B27F3E" d="M1070.471,557.584c22.157,59.89,34.521,149.885,34.521,149.885s-11.539-89.322-15.329-154.688
			C1089.662,552.78,1078.482,542.11,1070.471,557.584z"/>
		<path fill="#B27F3E" d="M979.76,565.826c0.903,63.854-17.475,152.82-17.475,152.82s18.929-88.054,37.157-150.941
			C999.444,567.705,992.47,553.91,979.76,565.826z"/>
		<path fill="#B27F3E" d="M901.368,541.188c-21.22,60.23-69.21,137.355-69.21,137.355s48.194-76.088,87.039-128.789
			C919.197,549.755,917.416,534.399,901.368,541.188z"/>
		<path fill="#009444" d="M1222.343,476.288C1282.658,497.245,1360,544.912,1360,544.912s-76.293-47.867-129.161-86.49
			C1230.839,458.422,1215.49,460.266,1222.343,476.288z"/>
		<path fill="#009444" d="M1197.513,450.784c62.241,14.261,144.321,53.19,144.321,53.19s-81.062-39.247-137.827-71.879
			C1204.007,432.098,1188.954,435.612,1197.513,450.784z"/>
		<polyline fill="#107139" points="789.105,273.882 764.287,266.435 784.851,286.645 		"/>
		<polyline fill="#107139" points="777.404,303.664 752.588,296.219 773.15,316.428 		"/>
		<path fill="#107139" d="M815.97,513.558c-47.788,42.354-103.258,71.332-103.258,71.332s55.133-27.963,114.686-55.179
			C827.397,529.711,833.294,515.42,815.97,513.558z"/>
		<path fill="#009444" d="M1095.479,171.594c8.435-63.297,20.882-106.192,20.882-106.192s-12.856,41.911-40.095,101.452
			C1076.267,166.854,1081.162,181.518,1095.479,171.594z"/>
		<path fill="#009444" d="M1027.649,174.679c-15.298-61.996-18.718-114.596-18.718-114.596s2.676,51.833-0.896,117.209
			C1008.035,177.292,1017.952,189.153,1027.649,174.679z"/>
		<path fill="#009444" d="M978.334,180.648c-26.395-58.145-39.382-109.23-39.382-109.23s12.12,50.466,20.575,115.392
			C959.529,186.81,971.45,196.655,978.334,180.648z"/>
		<path fill="#009444" d="M931.766,203.599c-35.741-52.914-57.089-101.108-57.089-101.108s20.389,47.73,39.575,110.328
			C914.252,212.818,927.652,220.531,931.766,203.599z"/>
		<path fill="#107139" d="M897.508,234.476c-43.315-46.917-71.69-91.337-71.69-91.337s27.357,44.106,55.771,103.093
			C881.586,246.229,895.995,251.833,897.508,234.476z"/>
		<path fill="#107139" d="M858.5,262.889c-53.046-35.542-90.984-72.135-90.984-72.135s36.877,36.525,78.242,87.272
			C845.758,278.027,861.073,280.122,858.5,262.889z"/>
		<path fill="#009444" d="M820.907,305.391c-60.853-19.336-107.492-43.896-107.492-43.896s45.597,24.793,99.479,61.992
			C812.893,323.484,828.182,321.225,820.907,305.391z"/>
		<path fill="#107139" d="M828.818,332.727c-63.041-10.176-112.782-27.611-112.782-27.611s48.746,17.814,107.516,46.686
			C823.55,351.799,838.343,347.314,828.818,332.727z"/>
		<path fill="#107139" d="M834.36,351.903c-63.807,2.422-116.006-4.896-116.006-4.896s51.297,7.886,114.593,24.634
			C832.947,371.643,846.569,364.338,834.36,351.903z"/>
		<path fill="#009444" d="M1182.064,219.316c40.836-49.093,72.574-77.333,72.574-77.333s-31.562,27.188-86.314,63.088
			C1168.324,205.074,1164.659,220.098,1182.064,219.316z"/>
		<path fill="#009444" d="M1213.857,283.9c50.057-39.648,86.923-60.758,86.923-60.758s-36.477,20.119-97.439,43.993
			C1203.339,267.138,1196.666,281.086,1213.857,283.9z"/>
		<path fill="#107139" d="M778.116,379.716c0,0-37.762,9.573-58.148-31.378c-13.819-27.762-42.546-102.112-110.622-98.921
			c45.735,60.629,49.993,112.748,38.292,125.513c3.957,5.651,7.308,9.797,9.585,12.448c2.013,2.338,3.18,3.507,3.18,3.507
			c20.919,37.229,31.199,95.731,29.783,117.006c0,0,0,37.229-14.892,60.631c36.163-11.701,60.274-37.229,68.784-80.31
			c8.511-43.08,31.378-43.08,31.378-43.08S774.026,422.304,778.116,379.716z"/>
		<polyline fill="#009444" points="1276.267,463.216 1313.494,472.789 1280.521,452.578 		"/>
		<path fill="#009444" d="M1239.839,290.517c21.938-3.473,55.208-14.002,55.208-14.002s-36.729,17.576-48.627,28.848"/>
		<polyline fill="#009444" points="1194.363,229.207 1212.093,204.742 1185.854,218.569 		"/>
		<polyline fill="#009444" points="1217.764,261.117 1235.494,236.652 1209.255,250.479 		"/>
		<polyline fill="#009444" points="1149.689,179.214 1163.516,147.305 1136.925,166.45 		"/>
		<polyline fill="#009444" points="1061.403,139.858 1075.943,117.521 1078.069,144.113 		"/>
		<polyline fill="#009444" points="1024.842,138.902 1032.093,111.879 1040.934,138.533 		"/>
		<polyline fill="#009444" points="964.611,148.368 967.448,122.84 982.692,145.177 		"/>
		<polyline fill="#009444" points="935.893,157.941 938.729,132.413 953.974,154.75 		"/>
		<polyline fill="#107139" points="802.306,257.612 790.003,235.066 815.299,244.637 		"/>
		<polyline fill="#107139" points="819.769,230.918 809.964,207.182 834.084,219.416 		"/>
		<polyline fill="#107139" points="844.341,209.507 836.019,185.209 859.337,198.907 		"/>
		<polyline fill="#107139" points="861.843,197.068 857.998,171.675 878.49,189.32 		"/>
		<polyline fill="#009444" points="888.434,180.05 884.591,154.657 905.082,172.302 		"/>
		<polyline fill="#009444" points="909.709,169.413 905.863,144.02 926.355,161.666 		"/>
		<polyline fill="#009444" points="1247.077,321.951 1275.023,308.391 1246.017,309.594 		"/>
		<polyline fill="#009444" points="1235.602,288.265 1259.358,268.25 1231.538,276.548 		"/>
		
			<radialGradient id="SVGID_2_" cx="1289.0283" cy="203.8037" r="106.2223" gradientTransform="matrix(1 0 0 1 0 169)" gradientUnits="userSpaceOnUse">
			<stop  offset="8.370500e-04" style="stop-color:#AEC99D"/>
			<stop  offset="0.4059" style="stop-color:#31B457"/>
			<stop  offset="0.9702" style="stop-color:#008042"/>
		</radialGradient>
		<path fill="url(#SVGID_2_)" d="M1282.647,446.906c0,0,17.016,11.349,22.691-21.274c5.675-32.619-36.872-77.294-36.872-77.294
			S1246.837,424.216,1282.647,446.906z"/>
		<path fill="#009444" d="M737.696,395.139l7.802-27.185c0.121-1.28,0.244-2.556,0.37-3.831
			C740.08,382.97,737.696,395.139,737.696,395.139z"/>
		<path fill="#009444" d="M747.842,357.87c-0.381,0.423-0.883,0.934-1.499,1.475c-0.162,1.591-0.316,3.185-0.476,4.778
			C746.488,362.116,747.148,360.021,747.842,357.87z"/>
		<path fill="#009444" d="M745.498,367.954l3.188-11.107c0,0-0.295,0.415-0.845,1.023c-0.692,2.151-1.354,4.246-1.975,6.253
			C745.742,365.398,745.619,366.674,745.498,367.954z"/>
		
			<radialGradient id="SVGID_3_" cx="938.7314" cy="31.4888" r="401.7712" gradientTransform="matrix(1 0 0 1 0 169)" gradientUnits="userSpaceOnUse">
			<stop  offset="8.370500e-04" style="stop-color:#AEC99D"/>
			<stop  offset="0.4059" style="stop-color:#31B457"/>
			<stop  offset="0.7261" style="stop-color:#008544"/>
			<stop  offset="1" style="stop-color:#006A30"/>
		</radialGradient>
		<path fill="url(#SVGID_3_)" d="M1126.642,156.169c-51.058-29.783-146.075-36.873-252.443,24.109
			c-73.271,42.007-110.361,128.085-126.355,177.592c0.549-0.608,0.845-1.023,0.845-1.023l-3.188,11.107
			c-4.088,42.587-6.88,86.138-0.926,127.172h6.951c96.441,146.071,159.551,153.168,311.298,138.983
			c151.752-14.179,225.499-164.495,225.499-218.403C1288.32,340.539,1177.698,185.951,1126.642,156.169z"/>
		<path fill="#107139" d="M747.842,357.87c0,0-11.741,111.196,60.588,159.594c63.214,42.298,119.663,24.995,166.464,15.423
			c46.802-9.572,145.19-24.996,172.848-27.656c-75.521,14.359-114.345,25.529-152.104,43.08
			c-37.761,17.553-116.473,74.987-157.423,48.929c-48.931-45.205-80.841-84.028-96.264-127.642
			C726.527,425.986,747.842,357.87,747.842,357.87z"/>
		<path fill="#107139" d="M775.64,498.666c0,0,60.979-48.222,20.562-70.199c-19.855,21.271-41.837,42.543-41.837,42.543
			L775.64,498.666z"/>
		<path fill="#A13422" d="M1165.291,463.216c0,0-3.188-14.894-9.571-20.212c-36.164-8.508-75.521,3.191-85.095,9.574
			c-9.571,6.384-16.663,10.638-8.511,18.083c8.157,7.445,40.42,21.272,68.076,17.019
			C1157.845,483.426,1165.291,463.216,1165.291,463.216z"/>
		<path fill="#F9ED32" d="M1038.875,442.311c7.392,29.562,55.146,1.759,87.768,0.343c32.62-1.417,22.693,7.086,35.459,5.671
			c12.764-1.416,36.875-25.527-8.51-29.783c-32.199-3.02-65.112,10.026-85.822,24.698
			C1059.288,449.245,1042.378,436.747,1038.875,442.311z"/>
		<path fill="#F9ED32" d="M1155.718,443.004c0,0,16.308,29.785-31.559,36.167c-27.986,3.729-45.322-8.6-57.681-13.817
			c-2.604-1.102-19.229-22.789-21.445-23.043c-28.008-3.188,17.436,45.369,54.662,56.009c37.229,10.637,64.455-2.554,71.268-17.021
			C1179.471,463.216,1172.916,447.791,1155.718,443.004z"/>
		
			<radialGradient id="SVGID_4_" cx="935.7256" cy="106.106" r="114.9595" gradientTransform="matrix(1 0 0 0.8718 0 228.462)" gradientUnits="userSpaceOnUse">
			<stop  offset="0" style="stop-color:#009444"/>
			<stop  offset="1" style="stop-color:#006838"/>
		</radialGradient>
		<ellipse fill="url(#SVGID_4_)" cx="959.754" cy="349.119" rx="67.473" ry="78.429"/>
		
			<radialGradient id="SVGID_5_" cx="930.4082" cy="98.7842" r="153.658" gradientTransform="matrix(1 0 0 0.8718 0 228.462)" gradientUnits="userSpaceOnUse">
			<stop  offset="0" style="stop-color:#FFFFFF"/>
			<stop  offset="1" style="stop-color:#E6E7E8"/>
		</radialGradient>
		<ellipse fill="url(#SVGID_5_)" cx="954.436" cy="342.737" rx="67.472" ry="78.429"/>
		
			<radialGradient id="SVGID_6_" cx="1171.7471" cy="104.0649" r="114.3304" gradientTransform="matrix(1 0 0 0.8718 0 228.462)" gradientUnits="userSpaceOnUse">
			<stop  offset="0" style="stop-color:#009444"/>
			<stop  offset="1" style="stop-color:#006838"/>
		</radialGradient>
		<path fill="url(#SVGID_6_)" d="M1252.865,345.329c0,37.761-22.465,68.378-50.172,68.378c-27.709,0-50.17-30.617-50.17-68.378
			s22.461-68.374,50.17-68.374C1230.4,276.955,1252.865,307.568,1252.865,345.329z"/>
		
			<radialGradient id="SVGID_7_" cx="1167.4922" cy="99.187" r="114.3304" gradientTransform="matrix(1 0 0 0.8718 0 228.462)" gradientUnits="userSpaceOnUse">
			<stop  offset="0" style="stop-color:#FFFFFF"/>
			<stop  offset="1" style="stop-color:#E6E7E8"/>
		</radialGradient>
		<path fill="url(#SVGID_7_)" d="M1248.61,341.075c0,37.76-22.466,68.378-50.171,68.378c-27.71,0-50.171-30.618-50.171-68.378
			c0-37.763,22.461-68.374,50.171-68.374C1226.145,272.701,1248.61,303.312,1248.61,341.075z"/>
		<path fill="#D8E040" d="M838.212,597.237c39.355,20.211,137.107-62.331,278.147-87.221c108.495-19.146,137.566,0,137.566,0
			s-28.01,72.329-122.675,109.56c-94.666,37.228-203.16,20.209-234.008,10.636C866.4,620.64,838.212,597.237,838.212,597.237z"/>
		<path fill="#009444" d="M871.717,516.4c-31.909,55.311-93.248,122.318-93.248,122.318s61.339-65.945,109.206-110.62
			C887.675,528.1,888.735,512.677,871.717,516.4z"/>
		<path fill="#009444" d="M831.444,474.177c-47.67,42.488-126.952,86.85-126.952,86.85s78.949-43.348,138.424-70.728
			C842.916,490.299,848.771,475.988,831.444,474.177z"/>
		<path fill="#107139" d="M814.858,537.375c-38.26,51.131-86.737,90.71-86.737,90.71s48.354-38.525,101.188-77.19
			C829.309,550.895,832.2,535.703,814.858,537.375z"/>
		<path fill="#009444" d="M956.35,199.785c-35.157-53.306-67.595-138.163-67.595-138.163s31.483,84.381,49.985,147.187
			C938.742,208.809,952.055,216.669,956.35,199.785z"/>
		<path fill="#009444" d="M1008.573,156.13c-20.466-60.488-31.552-138.593-31.552-138.593s10.283,77.403,12.229,142.849
			C989.25,160.386,1000.132,171.368,1008.573,156.13z"/>
		<path fill="#009444" d="M1122.059,171.671c20.729-60.396,59.652-129.015,59.652-129.015s-39.129,67.574-77.558,120.584
			C1104.155,163.24,1106.065,178.583,1122.059,171.671z"/>
		<path fill="#009444" d="M900.5,193.181c-42.238-47.89-82.632-115.657-82.632-115.657s39.382,67.427,66.446,127.048
			C884.315,204.572,898.592,210.499,900.5,193.181z"/>
		<path fill="#009444" d="M880.228,244.772c-49.178-40.734-96.794-96.404-96.794-96.404s46.568,55.494,82.589,110.173
			C866.022,258.541,881.046,262.174,880.228,244.772z"/>
		<path fill="#009444" d="M803.761,335.948c-63.414-7.536-133.612-28.468-133.612-28.468s69.227,21.35,129.15,47.741
			C799.299,355.224,813.89,350.12,803.761,335.948z"/>
		<path fill="#009444" d="M825.815,277.244C769.258,247.6,711.13,203.023,711.13,203.023s57.062,44.622,103.647,90.638
			C814.778,293.661,830.227,294.098,825.815,277.244z"/>
		<path fill="#009444" d="M1060.881,189.461c-9.433-63.158-3.113-153.78-3.113-153.78s-6.979,89.792-16.655,154.549
			C1041.112,190.23,1049.875,202.963,1060.881,189.461z"/>
		<path fill="#009444" d="M1155.955,212.408c23.367-59.428,58.267-110.842,58.267-110.842s-35.058,50.364-75.777,101.639
			C1138.442,203.205,1139.675,218.612,1155.955,212.408z"/>
		<path fill="#009444" d="M1207.959,251.043c42.842-47.357,81.781-76.083,81.781-76.083s-38.721,27.69-94.92,61.292
			C1194.821,236.252,1190.541,251.103,1207.959,251.043z"/>
		<ellipse cx="959.151" cy="333.558" rx="33.505" ry="48.397"/>
		<ellipse fill="#FFFFFF" cx="962.206" cy="322.225" rx="8.347" ry="12.055"/>
		<path d="M1230.104,334.855c0,22.062-12.378,39.943-27.655,39.943c-15.276,0-27.653-17.882-27.653-39.943
			c0-22.061,12.377-39.945,27.653-39.945C1217.727,294.91,1230.104,312.797,1230.104,334.855z"/>
		<path fill="none" stroke="#000000" stroke-width="3.4256" stroke-miterlimit="10" d="M748.332,490.872"/>
		
			<radialGradient id="SVGID_8_" cx="714.6475" cy="259.1152" r="172.8813" gradientTransform="matrix(1 0 0 1 0 169)" gradientUnits="userSpaceOnUse">
			<stop  offset="8.370500e-04" style="stop-color:#AEC99D"/>
			<stop  offset="0.4059" style="stop-color:#31B457"/>
			<stop  offset="0.9702" style="stop-color:#008042"/>
		</radialGradient>
		<path fill="url(#SVGID_8_)" d="M776.342,424.927c-17.062-0.744-15.604-12.764-35.456-43.964
			c-19.86-31.201-52.479-8.51-72.33,11.343c-19.019,19.011-15.468,51.562,18.436,93.604c18.933,23.468,42.547,24.106,83.68-1.42
			c39.469-24.499,32.614-45.384,32.614-45.384C794.069,422.088,792.65,425.636,776.342,424.927z"/>
		<path fill="#FFFFFF" d="M1211.479,330.934c0,5.41-3.034,9.799-6.777,9.799c-3.741,0-6.779-4.389-6.779-9.799
			c0-5.404,3.038-9.792,6.779-9.792C1208.445,321.142,1211.479,325.527,1211.479,330.934z"/>
		<path fill="#F1B937" d="M1043.188,448.469c1.596,0,21.587,15.279,33.819,8.897c12.23-6.382,38.466-13.651,49.635-14.715
			c11.168-1.064,26.06,3.013,29.43,5.671c3.369,2.662,10.283,0,17.197-5.318c6.913-5.318-5.318-13.295-30.847-13.295
			c-25.529,0-54.447,11.396-67.211,19.376C1062.448,457.062,1043.188,448.469,1043.188,448.469z"/>
		<path fill="#F1B937" d="M1150.932,443.004c0,0,13.828,13.83,0.531,25.531c14.892-5.319,17.02-14.895,10.638-20.213
			C1155.718,443.004,1150.932,443.004,1150.932,443.004z"/>
		<path fill="#F1B937" d="M1049.962,468.174c0,0,17.471,5.68,30.768,15.252c13.297,9.573,40.951,20.741,59.564,17.021
			C1115.298,506.827,1079.742,493.702,1049.962,468.174z"/>
		
			<radialGradient id="SVGID_9_" cx="1200.7441" cy="355.9067" r="252.6686" gradientTransform="matrix(1 0 0 1 0 169)" gradientUnits="userSpaceOnUse">
			<stop  offset="0" style="stop-color:#DCCE80"/>
			<stop  offset="1" style="stop-color:#D7B928"/>
		</radialGradient>
		<path fill="url(#SVGID_9_)" d="M1234.429,512.145c-26.943-8.51-64.525-7.803-98.718-5.274c-6.148,0.914-12.594,1.952-19.352,3.149
			c-141.04,24.889-238.792,107.431-278.148,87.22c0,0,28.188,23.4,59.034,32.975c21.942,6.808,83.188,17.367,150.783,9.507
			C1127.352,620.64,1206.064,588.729,1234.429,512.145z"/>
		<path fill="none" stroke="#006028" stroke-width="4.2547" stroke-miterlimit="10" d="M677.781,417.123
			c0,0,22.691,56.729,56.729,62.404"/>
		<path fill="none" stroke="#006028" stroke-width="4.2547" stroke-miterlimit="10" d="M703.31,395.85
			c0,0,19.856,48.22,52.472,56.729"/>
		<path fill="#009444" d="M924.113,551.044c-15.526,61.935-56.148,143.196-56.148,143.196s40.913-80.241,74.698-136.315
			C942.663,557.925,939.461,542.8,924.113,551.044z"/>
		<path fill="#D4A94E" d="M1017.761,568.013c5.871,63.587-5.534,153.716-5.534,153.716s12.02-89.265,25.314-153.365
			C1037.541,568.361,1029.511,555.148,1017.761,568.013z"/>
		<path fill="#D4A94E" d="M938.022,600.039c-9.266,63.18-29.076,112.075-29.076,112.075s20.206-47.906,48.225-107.081
			C957.169,605.033,952.474,590.309,938.022,600.039z"/>
		<path fill="#D4A94E" d="M1038.714,614.232c14.892,58.524,21.272,115.965,21.272,115.965s-3.189-56.375-1.954-120.222
			C1058.034,609.979,1047.153,598.991,1038.714,614.232z"/>
		<path fill="#D4A94E" d="M1145.459,591.438c36.685,52.271,55.884,101.405,55.884,101.405s-18.234-48.687-38.545-110.93
			C1162.798,581.914,1149.27,574.438,1145.459,591.438z"/>
		<path fill="#D4A94E" d="M1116.471,567.938c26.564,58.062,45.611,146.888,45.611,146.888s-18.179-88.21-26.832-153.111
			C1135.25,561.713,1123.301,551.907,1116.471,567.938z"/>
	</g>
	<path fill="#107139" d="M1123.808,190.207c0,5.484-7.938,9.927-17.729,9.927c-9.79,0-17.725-4.443-17.725-9.927
		s7.935-9.927,17.725-9.927C1115.872,180.279,1123.808,184.723,1123.808,190.207z"/>
	<ellipse fill="#107139" cx="1079.134" cy="146.243" rx="7.799" ry="4.255"/>
	<path fill="#107139" d="M1008.932,186.662c0,3.526-4.125,6.382-9.221,6.382c-5.091,0-9.217-2.856-9.217-6.382
		c0-3.526,4.126-6.383,9.217-6.383C1004.807,180.279,1008.932,183.136,1008.932,186.662z"/>
	<circle fill="#107139" cx="902.564" cy="227.082" r="5.671"/>
	<circle fill="#107139" cx="796.197" cy="373.157" r="2.838"/>
	<path fill="#107139" d="M1181.957,225.665c0,1.566-1.271,2.836-2.838,2.836c-1.566,0-2.839-1.27-2.839-2.836
		c0-1.569,1.271-2.839,2.839-2.839C1180.685,222.826,1181.957,224.096,1181.957,225.665z"/>
	<path fill="#107139" d="M840.161,300.122c0,2.739-2.856,4.962-6.382,4.962c-3.522,0-6.382-2.223-6.382-4.962
		c0-2.743,2.858-4.966,6.382-4.966C837.304,295.156,840.161,297.379,840.161,300.122z"/>
	<path fill="#D4A94E" d="M1197.944,548.846c51.847,37.278,112.841,87.726,112.841,87.726s-59.936-50.338-99.604-102.42
		C1211.182,534.149,1195.946,531.541,1197.944,548.846z"/>
</g>
</svg>
