<?xml version="1.0" encoding="iso-8859-1"?>
<!-- Generator: Adobe Illustrator 16.0.0, SVG Export Plug-In . SVG Version: 6.00 Build 0)  -->
<!DOCTYPE svg PUBLIC "-//W3C//DTD SVG 1.1//EN" "http://www.w3.org/Graphics/SVG/1.1/DTD/svg11.dtd">
<svg version="1.1" xmlns="http://www.w3.org/2000/svg" xmlns:xlink="http://www.w3.org/1999/xlink" x="0px" y="0px" width="1440px"
	 height="960px" viewBox="0 0 1440 960" enable-background="new 0 0 1440 960" xml:space="preserve">
<g id="SEA">
	<linearGradient id="SVGID_1_" gradientUnits="userSpaceOnUse" x1="805.4062" y1="743.7402" x2="805.4062" y2="1345.8771">
		<stop  offset="0" style="stop-color:#5BC0AC"/>
		<stop  offset="1" style="stop-color:#56A384"/>
	</linearGradient>
	<rect x="-918.906" y="-626.264" fill="url(#SVGID_1_)" width="3448.623" height="2308.904"/>
	<path fill="#AEDBC3" d="M-967.949,780.825C-745.76,706.762,286.767,872.312,792.133,955.09
		c505.368,82.772,1727.409-243.975,1786.218-326.747c58.806-82.776-17.43-82.776-17.43-82.776s-744.983,400.806-1537.889,318.035
		C230.128,780.825-336.242,362.588-954.879,445.365C-1573.52,528.137-967.949,780.825-967.949,780.825z"/>
	<path fill="#AEDBC3" d="M-933.095,1151.139c296.252-113.276,880.038-213.479,1272.135-30.497
		c392.097,182.978,1228.57,222.186,1529.178,169.908c300.607-52.28,636.07-169.908,636.07-169.908V750.325
		c0,0-1036.885,413.885-1459.474,361.604c-422.59-52.28-1677.305-239.629-1903.848-113.277
		C-1085.577,1125-933.095,1151.139-933.095,1151.139z"/>
</g>
<g id="PABLO">
	<g>
		<path fill="#107139" d="M508.319,545.769c-49.946,28.071-98.813,48.122-98.813,48.122s48.376-19.225,105.771-31.786
			C515.277,562.104,523.156,550.683,508.319,545.769z"/>
		<path fill="#107139" d="M532.912,592.863c-43.768,36.972-87.99,65.855-87.99,65.855s43.895-27.981,97.899-51.127
			C542.821,607.592,548.41,594.896,532.912,592.863z"/>
		<path fill="#107139" d="M869.812,607.699c53.131,21.431,99.333,47.033,99.333,47.033s-45.25-25.74-90.939-62.68
			C878.205,592.053,864.365,593.04,869.812,607.699z"/>
		<path fill="#107139" d="M879.778,565.997c56.851,7.091,108.078,20.006,108.078,20.006s-50.341-13.288-103.973-37.283
			C883.884,548.72,870.762,553.225,879.778,565.997z"/>
		<path fill="#B27F3E" d="M573.398,657.905c-25.611,51.256-37.324,66.869-37.324,66.869s11.772-14.669,52.235-57.24
			C588.31,667.534,588.444,653.665,573.398,657.905z"/>
		<path fill="#B27F3E" d="M640.646,691.795c-0.646,57.285-4.358,76.447-4.358,76.447s4.182-18.332,21.976-74.309
			C658.264,693.934,652.321,681.402,640.646,691.795z"/>
		<path fill="#B27F3E" d="M736.006,702.235c21.164,53.244,25.003,72.376,25.003,72.376s-3.096-18.554-7.889-77.089
			C753.12,697.522,742.86,688.188,736.006,702.235z"/>
		<path fill="#B27F3E" d="M834.761,671.641c38.125,42.761,48.298,59.419,48.298,59.419s-9.263-16.357-33.836-69.708
			C849.223,661.352,836.38,656.095,834.761,671.641z"/>
		<path fill="#107139" d="M826.749,333.881c21.214-53.223,47.36-99.488,47.36-99.488s-26.287,45.32-63.035,91.151
			C811.074,325.544,812.12,339.378,826.749,333.881z"/>
		<path fill="#107139" d="M866.637,354.267c30.468-48.527,64.527-89.32,64.527-89.32s-34.031,39.838-78.438,78.289
			C852.727,343.235,851.262,357.034,866.637,354.267z"/>
		<path fill="#107139" d="M875.7,387.317c38.539-42.396,79.263-76.541,79.263-76.541s-40.522,33.213-91.019,63.229
			C863.944,374.005,860.067,387.327,875.7,387.317z"/>
		<path fill="#107139" d="M884.557,418.953c47.919-31.417,95.885-54.295,95.885-54.295s-47.536,22.025-103.935,38.465
			C876.507,403.123,869.419,415.054,884.557,418.953z"/>
		<path fill="#107139" d="M595.905,315.234c-35.832-44.713-60.98-90.472-60.98-90.472s24.262,45.408,45.992,99.989
			C580.917,324.752,593.463,330.676,595.905,315.234z"/>
		<path fill="#107139" d="M565.025,347.801c-45.862-34.344-81.651-72.366-81.651-72.366s34.839,37.901,69.521,85.328
			C552.895,360.763,566.525,363.36,565.025,347.801z"/>
		<path fill="#107139" d="M544.428,388.95c-50.126-27.757-90.771-60.534-90.771-60.534s39.685,32.79,80.522,75.031
			C534.18,403.447,548.036,404.16,544.428,388.95z"/>
		<path fill="#107139" d="M529.167,415.971c-54.809-16.703-101.39-40.293-101.39-40.293s45.649,23.798,94.388,56.606
			C522.165,432.284,535.864,430.096,529.167,415.971z"/>
		<path fill="#009444" d="M767.999,299.332c7.867-56.758,30.043-138.039,30.043-138.039s-22.539,80.398-47.256,133.692
			C750.786,294.985,755.103,308.167,767.999,299.332z"/>
		<path fill="#107139" d="M744.379,326.504c-2.459-57.243,4.751-141.188,4.751-141.188s-7.723,83.141-22.463,140.007
			C726.667,325.323,733.278,337.515,744.379,326.504z"/>
		<path fill="#009444" d="M663.61,287.16c-15.089-55.276-26.662-138.732-26.662-138.732s10.891,82.788,9.125,141.505
			C646.073,289.933,655.229,300.355,663.61,287.16z"/>
		<path fill="#107139" d="M686.874,319.53c-7.722-56.775-8.279-141.03-8.279-141.03s-0.028,83.502-9.468,141.485
			C669.127,319.985,676.838,331.515,686.874,319.53z"/>
		<radialGradient id="SVGID_2_" cx="444.1338" cy="474.8511" r="125.0189" gradientUnits="userSpaceOnUse">
			<stop  offset="8.370500e-04" style="stop-color:#AEC99D"/>
			<stop  offset="0.4059" style="stop-color:#31B457"/>
			<stop  offset="0.9702" style="stop-color:#008042"/>
		</radialGradient>
		<path fill="url(#SVGID_2_)" d="M493.074,531.356c-20.542,15.403-64.897-2.862-79.213-37.224
			c-20.781-49.865,11.451-68.717,28.63-70.626c17.179-1.908,41.994,40.087,41.994,40.087S515.979,514.175,493.074,531.356z"/>
		<path fill="none" stroke="#006028" stroke-width="3.8175" stroke-miterlimit="10" d="M442.491,445.458
			c0,0,1.909,40.086,43.902,51.538"/>
		<path fill="none" stroke="#006028" stroke-width="3.8175" stroke-miterlimit="10" d="M426.267,468.368
			c0,0,5.728,46.764,56.31,49.627"/>
		
			<radialGradient id="SVGID_3_" cx="467.7686" cy="474.8511" r="125.0189" gradientTransform="matrix(-1 0 0 1 1434.1689 0)" gradientUnits="userSpaceOnUse">
			<stop  offset="8.370500e-04" style="stop-color:#AEC99D"/>
			<stop  offset="0.4059" style="stop-color:#31B457"/>
			<stop  offset="0.9702" style="stop-color:#008042"/>
		</radialGradient>
		<path fill="url(#SVGID_3_)" d="M917.459,531.356c20.542,15.403,64.901-2.862,79.213-37.224
			c20.784-49.865-11.452-68.717-28.629-70.626c-17.182-1.908-41.992,40.087-41.992,40.087S894.556,514.175,917.459,531.356z"/>
		<path fill="none" stroke="#006028" stroke-width="3.8175" stroke-miterlimit="10" d="M968.043,445.458
			c0,0-1.909,40.086-43.901,51.538"/>
		<path fill="none" stroke="#006028" stroke-width="3.8175" stroke-miterlimit="10" d="M984.269,468.368
			c0,0-5.73,46.764-56.31,49.627"/>
		<radialGradient id="SVGID_4_" cx="639.228" cy="307.3467" r="372.3643" gradientUnits="userSpaceOnUse">
			<stop  offset="8.370500e-04" style="stop-color:#AEC99D"/>
			<stop  offset="0.4059" style="stop-color:#31B457"/>
			<stop  offset="0.7261" style="stop-color:#008544"/>
			<stop  offset="1" style="stop-color:#006A30"/>
		</radialGradient>
		<path fill="url(#SVGID_4_)" d="M947.357,484.905c0,133.179-107.963,241.143-241.14,241.143
			c-133.176,0-241.141-107.964-241.141-241.143c0-133.176,107.965-241.137,241.141-241.137
			C839.395,243.769,947.357,351.729,947.357,484.905z"/>
		
			<radialGradient id="SVGID_5_" cx="569.9092" cy="429.1802" r="103.1467" gradientTransform="matrix(1 0 0 0.8718 0 59.4624)" gradientUnits="userSpaceOnUse">
			<stop  offset="8.370500e-04" style="stop-color:#AEC99D"/>
			<stop  offset="0.4059" style="stop-color:#31B457"/>
			<stop  offset="0.7261" style="stop-color:#008544"/>
			<stop  offset="1" style="stop-color:#006A30"/>
		</radialGradient>
		<path fill="url(#SVGID_5_)" d="M652.008,458.883c0,38.869-27.103,70.369-60.539,70.369s-60.54-31.5-60.54-70.369
			c0-38.862,27.104-70.37,60.54-70.37S652.008,420.021,652.008,458.883z"/>
		
			<radialGradient id="SVGID_6_" cx="565.1382" cy="422.6118" r="137.8674" gradientTransform="matrix(1 0 0 0.8718 0 59.4624)" gradientUnits="userSpaceOnUse">
			<stop  offset="0" style="stop-color:#FFFFFF"/>
			<stop  offset="1" style="stop-color:#E6E7E8"/>
		</radialGradient>
		<path fill="url(#SVGID_6_)" d="M647.237,453.157c0,38.866-27.105,70.367-60.541,70.367c-33.438,0-60.54-31.501-60.54-70.367
			c0-38.863,27.103-70.369,60.54-70.369C620.132,382.788,647.237,414.294,647.237,453.157z"/>
		<path d="M615.548,448.802c0,23.979-13.458,43.423-30.062,43.423c-16.597,0-30.063-19.443-30.063-43.423
			c0-23.985,13.467-43.426,30.063-43.426C602.09,405.376,615.548,424.816,615.548,448.802z"/>
		<ellipse fill="#FFFFFF" cx="575.786" cy="432.098" rx="7.488" ry="10.817"/>
		
			<radialGradient id="SVGID_7_" cx="805.3203" cy="429.1802" r="103.1458" gradientTransform="matrix(1 0 0 0.8718 0 59.4624)" gradientUnits="userSpaceOnUse">
			<stop  offset="8.370500e-04" style="stop-color:#AEC99D"/>
			<stop  offset="0.4059" style="stop-color:#31B457"/>
			<stop  offset="0.7261" style="stop-color:#008544"/>
			<stop  offset="1" style="stop-color:#006A30"/>
		</radialGradient>
		<path fill="url(#SVGID_7_)" d="M887.417,458.883c0,38.869-27.103,70.369-60.532,70.369c-33.443,0-60.544-31.5-60.544-70.369
			c0-38.862,27.101-70.37,60.544-70.37C860.314,388.513,887.417,420.021,887.417,458.883z"/>
		
			<radialGradient id="SVGID_8_" cx="800.5488" cy="422.6118" r="137.8671" gradientTransform="matrix(1 0 0 0.8718 0 59.4624)" gradientUnits="userSpaceOnUse">
			<stop  offset="0" style="stop-color:#FFFFFF"/>
			<stop  offset="1" style="stop-color:#E6E7E8"/>
		</radialGradient>
		<path fill="url(#SVGID_8_)" d="M882.647,453.157c0,38.866-27.103,70.367-60.537,70.367c-33.438,0-60.543-31.501-60.543-70.367
			c0-38.863,27.105-70.369,60.543-70.369C855.545,382.788,882.647,414.294,882.647,453.157z"/>
		<path d="M850.963,448.802c0,23.979-13.458,43.423-30.061,43.423s-30.065-19.443-30.065-43.423
			c0-23.985,13.463-43.426,30.065-43.426S850.963,424.816,850.963,448.802z"/>
		<path fill="#FFFFFF" d="M818.69,432.098c0,5.976-3.355,10.817-7.49,10.817c-4.133,0-7.493-4.842-7.493-10.817
			c0-5.973,3.36-10.817,7.493-10.817C815.335,421.28,818.69,426.125,818.69,432.098z"/>
		<path fill="#A13422" d="M764.754,565.081l-1.906-14.637l-59.171-11.453l-52.812,12.086c0,0-10.178,12.728-7.635,12.728
			c2.545,0,62.99,24.182,62.99,24.182L764.754,565.081z"/>
		<path fill="#F9ED32" d="M637.507,548.534c-2.793,6.693,6.992,10.185,19.72,7.637c12.728-2.546,27.361-11.457,58.538-8.911
			c31.174,2.551,41.354,15.91,55.988,10.182c14.637-5.723-11.454-28.63-58.533-28.63
			C666.138,528.812,640.688,540.896,637.507,548.534z"/>
		<path fill="#F9ED32" d="M646.412,556.171c7.572,0.989,27.994,19.727,61.718,17.818c33.716-1.909,36.266-13.362,55.989-17.178
			c19.719-3.819,10.473,12.817-1.91,20.997c-31.814,20.994-86.53,18.453-110.075,2.541
			C628.596,564.446,631.779,554.262,646.412,556.171z"/>
		<path fill="#F1B937" d="M643.23,555.533c2.433,2.194,8.987,3.656,20.438-0.797c11.453-4.447,65.763-6.852,83.27,0
			c16.463,6.443,23.465,4.059,24.097,0.239c0.636-3.817-24.729-14.079-68.63-13.441C658.503,542.174,640.765,553.308,643.23,555.533
			z"/>
		<path fill="#F1B937" d="M646.252,553.545c0,0-4.771,2.147-3.58,4.057c1.192,1.908,29.35,10.975,29.35,10.975
			s-18.851-8.113-18.611-11.691C653.647,553.308,646.252,553.545,646.252,553.545z"/>
		<path fill="#F1B937" d="M758.867,556.171c0,0-15.271,10.259-25.288,13.121C746.461,568.098,775.33,558.795,758.867,556.171z"/>
		<path fill="#F1B937" d="M637.902,568.335c0,0,30.793,24.786,68.714,22.432c53.683-3.341,68.238-26.962,68.238-26.962
			s-11.453,32.926-67.284,32.926S637.902,568.335,637.902,568.335z"/>
		<path fill="#D8E040" d="M706.854,599.594c138.388-2.385,118.346,70.461,167.282,59.559
			c-35.671,35.262-90.047,66.896-164.42,66.896c-76.945,0-128.729-26.096-161.87-55.338
			C594.872,662.417,568.471,601.979,706.854,599.594z"/>
		<path fill="#107139" d="M468.26,515.132c0,0,8.589,89.712,63.943,132.659c27.677,0.954,42.948-14.317,42.948-14.317
			S503.572,619.159,468.26,515.132z"/>
		<path fill="#107139" d="M859.554,630.608c0,0,43.901-26.72,84.942-115.477c-3.817,45.81-27.676,104.027-62.034,131.705
			C849.06,646.837,859.554,630.608,859.554,630.608z"/>
		<radialGradient id="SVGID_9_" cx="710.0864" cy="658.0186" r="118.5975" gradientUnits="userSpaceOnUse">
			<stop  offset="0" style="stop-color:#DCCE80"/>
			<stop  offset="1" style="stop-color:#D7B928"/>
		</radialGradient>
		<path fill="url(#SVGID_9_)" d="M706.854,599.594c138.388-2.385,127.258,66.643,160.427,63.995
			c-35.353,29.632-86.999,52.915-156.61,52.915c-73.397,0-124.239-20.354-157.779-45.184
			C578.334,667.509,568.471,601.979,706.854,599.594z"/>
		<path fill="#009444" d="M540.405,364.962c-45.943-34.235-99.222-95.926-99.222-95.926s52.331,61.577,87.12,108.92
			C528.304,377.956,541.933,380.521,540.405,364.962z"/>
		<path fill="#009444" d="M562.396,307.958c-42.769-38.129-75.18-79.069-75.18-79.069s31.477,40.745,61.986,90.95
			C549.203,319.839,562.562,323.589,562.396,307.958z"/>
		<path fill="#009444" d="M495.213,375.398c-50.624-26.838-91.861-58.87-91.861-58.87s40.282,32.068,81.878,73.551
			C485.229,390.079,499.098,390.537,495.213,375.398z"/>
		<path fill="#009444" d="M490.047,415.784c-55.694-13.446-105.135-32.04-105.135-32.04s48.523,18.862,99.109,48.741
			C484.021,432.485,497.569,429.489,490.047,415.784z"/>
		<path fill="#009444" d="M494.155,580.553c-48.472,30.538-96.274,53.017-96.274,53.017s47.354-21.629,104.043-37.056
			C501.924,596.514,509.225,584.711,494.155,580.553z"/>
		<path fill="#009444" d="M470.556,533.592C416.388,552.246,364.714,563.2,364.714,563.2s51.045-10.231,109.759-12.288
			C474.473,550.912,484.275,541.096,470.556,533.592z"/>
		<path fill="#009444" d="M535.015,623.045c-40.604,40.416-82.322,72.816-82.322,72.816s41.463-31.476,93.399-58.943
			C546.092,636.918,550.628,623.803,535.015,623.045z"/>
		<path fill="#009444" d="M913.534,578.002c48.475,30.549,96.277,53.021,96.277,53.021s-47.354-21.632-104.047-37.06
			C905.765,593.963,898.467,582.169,913.534,578.002z"/>
		<path fill="#009444" d="M939.681,533.592c54.173,18.654,105.844,29.608,105.844,29.608s-51.041-10.231-109.759-12.288
			C935.766,550.912,925.966,541.096,939.681,533.592z"/>
		<path fill="#009444" d="M881.584,621.767c40.612,40.422,82.329,72.816,82.329,72.816s-41.471-31.47-93.407-58.942
			C870.506,635.641,865.975,622.526,881.584,621.767z"/>
		<path fill="#009444" d="M917.558,422.555c50.775-26.543,100.233-45.098,100.233-45.098s-48.945,17.749-106.692,28.562
			C911.099,406.019,902.876,417.193,917.558,422.555z"/>
		<path fill="#009444" d="M717.378,318.475c-8.62-56.643-6.707-134.517-6.707-134.517s-2.516,77.13-11.029,135.255
			C699.642,319.213,707.532,330.62,717.378,318.475z"/>
		<path fill="#009444" d="M716.107,258.666c-8.627-56.644-10.522-140.879-10.522-140.879s1.3,83.493-7.216,141.617
			C698.369,259.403,706.262,270.813,716.107,258.666z"/>
		<path fill="#009444" d="M622.869,279.398c-21.659-53.044-43.249-134.485-43.249-134.485s20.833,80.861,26.178,139.361
			C605.798,284.273,616.145,293.511,622.869,279.398z"/>
		<path fill="#009444" d="M807.264,289.531c12.392-55.939,41.021-135.185,41.021-135.185s-28.918,78.334-57.832,129.473
			C790.453,283.819,793.703,297.304,807.264,289.531z"/>
		<path fill="#009444" d="M876.825,368.879c33.195-46.703,93.668-101.351,93.668-101.351s-60.384,53.703-106.927,89.543
			C863.566,357.071,861.304,370.761,876.825,368.879z"/>
		<path fill="#009444" d="M868.21,319.436c25.979-51.069,56.244-94.755,56.244-94.755s-30.317,42.735-71.092,85.022
			C853.362,309.703,853.134,323.575,868.21,319.436z"/>
		<path fill="#009444" d="M916.102,380.688c38.885-42.086,79.884-75.898,79.884-75.898s-40.788,32.884-91.522,62.492
			C904.463,367.281,900.474,380.574,916.102,380.688z"/>
		<path fill="#009444" d="M805.544,334.981c14.799-55.353,52.386-127.677,52.386-127.677s-37.839,71.408-68.938,121.243
			C788.991,328.548,791.652,342.163,805.544,334.981z"/>
		<path fill="#009444" d="M626.903,325.181c-32.918-46.899-64.212-122.164-64.212-122.164s30.429,74.867,48.648,130.712
			C611.34,333.729,623.484,340.438,626.903,325.181z"/>
		<path fill="#D4A94E" d="M690.904,661.157c11.723,56.086,8.317,113.245,8.317,113.245s4.049-56.452,9.352-114.951
			C708.573,659.451,700.063,648.49,690.904,661.157z"/>
		<path fill="#D4A94E" d="M690.904,706.967c11.723,56.086,8.317,113.245,8.317,113.245s4.049-56.452,9.352-114.949
			C708.573,705.263,700.063,694.301,690.904,706.967z"/>
		<path fill="#D4A94E" d="M607.847,651.767c-20.795,53.381-53.692,98.453-53.692,98.453s33.045-44.129,69.423-90.245
			C623.577,659.975,622.438,646.15,607.847,651.767z"/>
		<path fill="#D4A94E" d="M784.375,659.883c35.562,44.932,57.372,85.254,57.372,85.254s-20.934-39.98-42.332-94.677
			C799.415,650.46,786.908,644.456,784.375,659.883z"/>
		<path fill="#D4A94E" d="M778.619,701.004c31.368,47.949,38.952,65.928,38.952,65.928s-6.734-17.561-23.117-73.956
			C794.454,692.976,782.536,685.866,778.619,701.004z"/>
		<path fill="#D4A94E" d="M608.236,685.81c-18.325,54.279-27.78,71.354-27.78,71.354s9.645-16.144,43.875-63.869
			C624.331,693.295,622.558,679.529,608.236,685.81z"/>
		<path fill="#107139" d="M671.226,297.852c0,4.566-4.559,8.269-10.18,8.269c-5.624,0-10.181-3.703-10.181-8.269
			c0-4.571,4.557-8.273,10.181-8.273C666.667,289.578,671.226,293.28,671.226,297.852z"/>
		<path fill="#107139" d="M774.299,314.392c0,5.974-7.124,10.815-15.908,10.815c-8.781,0-15.903-4.842-15.903-10.815
			c0-5.972,7.122-10.815,15.903-10.815C767.175,303.577,774.299,308.419,774.299,314.392z"/>
		<ellipse fill="#107139" cx="842.377" cy="346.841" rx="4.452" ry="2.546"/>
		<ellipse fill="#107139" cx="759.667" cy="273.671" rx="9.545" ry="5.727"/>
		<path fill="#107139" d="M571.969,338.569c0,3.159-3.133,5.725-6.995,5.725c-3.871,0-7.002-2.565-7.002-5.725
			c0-3.162,3.131-5.728,7.002-5.728C568.836,332.842,571.969,335.407,571.969,338.569z"/>
		<ellipse fill="#107139" cx="512.162" cy="402.197" rx="7.635" ry="4.455"/>
		<ellipse fill="#107139" cx="481.782" cy="460.57" rx="2.703" ry="3.023"/>
		<path fill="#107139" d="M933.363,444.188c0,3.159-1.998,5.726-4.458,5.726c-2.459,0-4.451-2.566-4.451-5.726
			c0-3.162,1.992-5.727,4.451-5.727C931.365,438.462,933.363,441.026,933.363,444.188z"/>
		<path fill="#107139" d="M897.73,383.108c0,1.753-1.993,3.181-4.456,3.181c-2.455,0-4.453-1.428-4.453-3.181
			c0-1.755,1.998-3.181,4.453-3.181C895.737,379.928,897.73,381.354,897.73,383.108z"/>
	</g>
</g>
<g id="W_x2F_O">
	<rect x="-200" y="-24" fill="#5D5E5E" width="200" height="1000"/>
	<rect x="1440" y="-24" fill="#5D5E5E" width="200" height="1000"/>
	<rect x="-164" y="-200" fill="#5D5E5E" width="1674" height="200"/>
	<rect x="-164" y="960" fill="#5D5E5E" width="1674" height="200"/>
</g>
</svg>
