<?xml version="1.0" encoding="iso-8859-1"?>
<!-- Generator: Adobe Illustrator 16.0.0, SVG Export Plug-In . SVG Version: 6.00 Build 0)  -->
<!DOCTYPE svg PUBLIC "-//W3C//DTD SVG 1.1//EN" "http://www.w3.org/Graphics/SVG/1.1/DTD/svg11.dtd">
<svg version="1.1" xmlns="http://www.w3.org/2000/svg" xmlns:xlink="http://www.w3.org/1999/xlink" x="0px" y="0px" width="1440px"
	 height="960px" viewBox="0 0 1440 960" enable-background="new 0 0 1440 960" xml:space="preserve">
<g id="Layer_1">
	<g id="Layer_6">
		<rect x="-84.088" y="-3.112" fill="#5BC0AC" width="1668.65" height="969.521"/>
	</g>
	<g id="SEA">
		<path fill="#AEDBC3" d="M-12.254,527.824c97.17-32.392,627.646,32.938,848.659,69.14
			c221.013,36.201,755.452-106.697,781.172-142.896c25.719-36.201-7.622-36.201-7.622-36.201s-325.807,175.287-672.57,139.086
			C590.62,520.752,342.93,337.844,72.378,374.044S-12.254,527.824-12.254,527.824z"/>
		<path fill="#AEDBC3" d="M-96.838,691.947c144.546-55.271,429.384-104.159,620.695-14.881
			c191.31,89.276,599.438,108.407,746.108,82.899s310.351-82.899,310.351-82.899V496.383c0,0-505.913,201.94-712.103,176.434
			c-206.188-25.51-818.383-116.92-928.917-55.271C-171.237,679.194-96.838,691.947-96.838,691.947z"/>
	</g>
	<g id="Layer_3">
		<path fill="#338491" d="M-21,509c0,0,22-10,46-20s52-4,42,12s12,58,12,58s-28,20-22,22s42-10,60-10s-8,28,8,28s54,22,54,22
			s4,20-14,30s-18-2-18,10s2,4-2,20s10,8,0,24s-38,36-12,42s10,4,38-6s-60-8,4-12s56,10,64,24s20,22,28,26s28-22,72-2
			s62.775,27.55,66,34c8,16,26,22,24,28s2,0,6,14s30,26,36,32s16,6,50,6s40-18,56-24s-28-14,4-20s30-20,50-18s34,16,26,20
			s-10,6,0,10s20-8,32-8s14-12,20-4s28,16,24,24s-38,32-42,44s-22-2-4,12s26,12,26,12l70-20l12-22c0,0-72-22-38-24s34-22,42-22
			s12,28,12,28c12,18,28,16,28,16s26,22,46,18s10-18,26-20s22-10,22-10c26-4,32,6,46,10s18-6,40,0s-2-26,38,16s52,51,52,51l30-7
			c14-18,18-26,18-26l24-2c0,0-24-6-16-12s-6-14,2-14s8,0,22,6s10,8,12,16s2,8,2,8s30,6,38,2s8-20,8-20s-16-12-22-14s18-18,0-20
			s-70-18-70-18s-18-10,10-24s0-4,20-16s24-46,40-28s2,36,20,48s30,12,30,12s26-4,32-6s28-16,28-16l-26-8l12-44c0,0,40-12,30-20
			s-14-22-14-22s6-58,8-64s80-76,58-48s-28,98-32,124s24,54,12,80s-20,48-20,54s18,8,16,14s20.178,1.53,26,4c33,14,64-8,68,26
			s4,44,4,44s-20,30-28,26s-1486-4-1486-4L-21,509z"/>
		<path fill="#1D676D" d="M1456.554,982.565c-26.999,3-220.487,7.499-202.489,0s73.495-40.497,59.996-46.497s4.5-13.5-10.499-13.5
			s4.5-14.999,4.5-14.999l14.999-10.499c0,0,16.5-12,9-10.5s13.499-16.499,7.499-17.999s-1.5-19.499-1.5-19.499
			s7.499-21,19.499-26.999s-6-16.499-6-16.499l-16.499,9c0,0-4.499-14.999,6-20.999s16.499,6,17.999-14.999s0-32.999,0-46.498
			s-4.499-55.497,7.5-61.497s37.498-53.997,37.498-53.997s-46.496,82.496-34.498,134.993c11.999,52.497,28.498,62.997,32.998,76.495
			c4.5,13.499-13.5,22.5-10.5,40.498c3,17.999-6,14.999,3,17.999s30.791,7.5,37.498,7.5c23.999,0,55.498,13.499,55.498,13.499
			L1456.554,982.565z"/>
		<path fill="#1D676D" d="M1157,859c-7.531-3.755-1.932-14.428,22.067-12.928s44.999,16.499,49.498,16.499s11.998,10.5,26.998,12
			s49.498,5.999,49.498,5.999l-19.499,22.499c0,0,19.5-16.499,62.996,1.5c43.497,17.999,37.498,43.498,37.498,43.498
			s-24,0.066-31.498,6c-7.498,5.933-59.997,13.499-59.997,13.499s-47.996,4.5-43.497,1.5s50.996-21,44.997-31.499
			s-16.847-16.27-20.999-17.999c-17.999-7.499-29.998-19.498-28.498-23.998s-9-20.999-20.999-23.999S1182.93,871.928,1157,859z"/>
		<path fill="#1D676D" d="M1195.566,909.069c0,0-8.999,19.5-10.499,23.999s20.999,16.499,20.999,16.499s-24,22.499-9,23.999
			s38.998-7.5,38.998-7.5l-1.5-11.999l-20.998-12L1195.566,909.069z"/>
		<path fill="#1D676D" d="M1126.57,966.066l-91.495-82.496c0,0,18,35.999,22.499,46.498c4.499,10.498-15-4.5-29.999-3
			s-34.498-6-40.498-3s1.5,17.999-13.499,20.999s-50.998,0-50.998,0s50.998-23.999,32.999-23.999s-19.499,4.5-26.999,1.5
			s-23.999,0-23.999,0s-18,4.5-22.499,9s-11.999,0-28.498,0s-4.5-12-4.5-12s-14.999,4.5-19.499,6s7.5-10.499,1.5-10.499
			s-7.499-7.5-7.499-12s-44.998-28.498-61.497-28.498s44.998,25.498,35.998,31.498s-9,14.999-26.999,20.999S696.092,960,696.092,960
			l-35.998-19.433c0,0-50.998-9-22.499-19.499s22.499-17.999,22.499-17.999s10.499-13.499,11.999-17.999s-4.499-2.999-10.499-10.499
			s-9-10.5-16.5-10.5s-9,0-19.499,1.5s28.499-17.999-1.5-19.499s-26.998,27-31.498,29.999s-9,13.499-13.5,13.499
			c0,0-10.499,0.001-25.499,4.5S510.1,913.569,510.1,913.569c-3,8.999,1.5,14.999-3,16.499s18,32.998,19.5,38.998
			s-31.498,25.5-37.498,26.999s1.5,8.999-7.5,8.999s62.997,14.999,67.497,16.499S1126.57,966.066,1126.57,966.066z"/>
		<path fill="#1D676D" d="M280.613,1000.564c-4.5-13.499,34.5-40.498,49.499-53.997s56.997-25.499,55.497-35.998s9-26.998,3-29.998
			s-3-31.5-14.999-35.999s-3-1.5-7.5-11.999s0-25.499-14.999-25.499s3-10.499-22.499-14.999s0-10.498-17.999-8.999
			s-16.5,23.999-23.999,37.498s4.5,11.998-10.499,22.498s-6,53.998-6,53.998s-13.5,7.499-31.499,13.499s-32.999,8.999-38.998,11.999
			s-7.5,15-10.5,10.5s-25.498-35.998-13.499-38.998s34.498-13.499,34.498-13.499s13.5-19.499,12-22.499s0-43.498,0-43.498l-6-14.999
			c0,0-1.5,12-10.5,19.499s-20.999,3-20.999,3c-6,10.499-6,20.998-6,29.998s-4.5,22.498-12,29.998s-7.5,22.499-19.499,28.499
			s-16.5,17.999-16.5,17.999s7.5,13.565,0,22.499c-7.5,8.933-52.498,7.499-47.998-4.5s37.499-34.499,41.998-40.498
			s3-41.998,3-41.998s-19.499,19.498-32.999,17.999s-23.999,16.499-23.999,7.5s-47.997-38.998-52.497-40.498s-1.5-11.999-1.5-11.999
			s41.998-13.5,6-29.999s-47.998-17.999-47.998-17.999l-16.499,41.998c0,0-7.5,142.493-9,137.993s32.999,17.998,32.999,17.998
			L280.613,1000.564z"/>
		<path fill="#1D676D" d="M393.107,819.074c-12,3-13.5,13.499-13.5,13.499s26.999,4.5,32.999,6S393.107,819.074,393.107,819.074z"/>
		<path fill="#1D676D" d="M234.115,781.576c4.5,1.5,17.999,19.499,17.999,19.499l1.5-13.5L234.115,781.576z"/>
		<path fill="#1D676D" d="M-25.372,531.088c7.5-4.499,25.499-17.999,49.498-31.498s28.499,14.999,28.499,14.999
			s-11.999,23.999-3,25.499s29.998,7.501,22.499,9s-41.998,20.998-41.998,20.998l-1.5,13.5c0,0,0,15-10.5,20.999
			s-22.499,29.998-29.999,34.498S-59.87,685.58-50.871,688.58s37.498,9.001,34.498,13.5c0,0,28.499-9.001,28.499-15
			s22.499-16.499,22.499-16.499s6-50.997,10.5-50.997s22.499-10.499,28.499-13.499s22.499,0,22.499,0l-15,28.498l-26.999,11.999
			c0,0,3,21,12,19.5s31.499-3,31.499-3l-21,25.498l4.5,34.499c0,0-40.498,3-49.498,1.5s-67.497,19.499-67.497,19.499
			s-23.999,14.999-22.499,8.999S-25.372,531.088-25.372,531.088z"/>
		<polygon fill="#1D676D" points="105.122,637.583 91.622,655.582 111.121,649.582 129.12,657.082 130.62,643.583 		"/>
		<polygon fill="#1D676D" points="189.117,789.075 192.117,811.574 208.616,796.575 		"/>
		<path fill="#1D676D" d="M208.617,759.076c0,0-21,20.999-16.5,17.999s26.999-14.999,26.999-14.999L208.617,759.076z"/>
		<polygon fill="#1D676D" points="1323.999,848 1315.561,862.572 1329.061,858.072 		"/>
	</g>
	<g id="Layer_4">
		<polygon fill="#1D676D" points="241.615,813.074 246.114,856.572 220.616,895.57 255.114,886.57 258.114,828.073 279.113,822.074 
			273.113,805.574 250.614,820.574 		"/>
		<path fill="#39B54A" d="M310.611,1030.562c-21-20.998-19.5-79.496-30-106.494s-12-85.495-26.999-86.995
			c-14.999-1.5-53.997,8.999-35.998,32.998s35.998,34.497,37.498,67.496s37.498,97.495,10.5,86.995
			c-26.998-10.498-32.999-74.996-38.998-83.995s-16.5-31.498-20.999-32.998s-4.5-6-23.999-6s-37.499,4.499-32.999,17.999
			s18,10.565,32.999,25.499c14.999,14.933,1.5,26.999,10.5,37.498s23.999,20.998,28.499,32.998
			c4.5,11.999,31.499,35.999,38.998,37.499C267.113,1054.561,310.611,1030.562,310.611,1030.562z"/>
		<path fill="#39B54A" d="M447.104,988.565c29.998-38.998,41.998-80.996,43.498-97.495s1.5-28.499,17.999-44.998
			s29.999-23.999,34.499-23.999s4.499,29.999-6,49.498s-19.5,43.497-20.999,52.497s7.5,4.5-1.5,25.499s-17.999,58.498-28.499,62.997
			s-13.5,17.998-13.5,17.998L447.104,988.565z"/>
		<path fill="#009444" d="M460.604,1012.564c22.499-28.499,34.498-53.998,38.998-88.496s10.5-46.498,20.999-62.997
			s25.499-46.498,17.999-38.998s-47.998,19.499-46.498,56.997s-44.997,109.495-44.997,109.495L460.604,1012.564z"/>
		<path fill="#009444" d="M273.113,990.065c0,0-16.5-19.499-19.499-37.498c-2.999-17.999,0-40.497-12-56.997
			s-37.498-31.498-19.499-37.498s22.5,17.998,32.999,28.498c10.499,10.5-9,40.499,10.499,67.497
			c19.499,26.998,37.498,49.495,26.999,62.995s-70.497,9-77.996,9s-14.999,0-16.499-23.998c-1.5-24-11.999-55.497-16.499-56.997
			s-25.499-11.999-26.999-16.499s13.5-10.5,28.499-4.5s23.999,34.498,34.498,58.496c10.499,24,23.999,34.497,35.998,32.998
			C265.613,1014.063,273.113,990.065,273.113,990.065z"/>
		<path fill="#39B54A" d="M454.087,1054.271c29.039-36.087,43.492-76.767,46.508-93.035c3.017-16.27,4.307-28.199,19.745-43.125
			c15.44-14.927,27.427-21.175,31.154-20.771c3.727,0.402,0.501,30.229-10.291,48.674s-20.827,41.499-23.036,50.312
			c-2.209,8.812,5.729,5.146-3.983,25.217c-9.712,20.071-21.196,56.547-30.377,60.079c-9.18,3.533-13.115,16.687-13.115,16.687
			L454.087,1054.271z"/>
		<path fill="#009444" d="M462.688,1079.34c21.699-26.318,34.379-50.596,41.814-84.49c7.436-33.896,13.695-45.289,24.165-60.752
			s26.118-43.944,19.1-37.16c-7.018,6.785-41.851,15.089-44.639,52.504c-2.789,37.414-49.041,104.83-49.041,104.83L462.688,1079.34z
			"/>
		<path fill="#39B54A" d="M416.721,1014.917c16.862-43.141,18.435-86.283,16.426-102.707c-2.01-16.425-4.361-28.191,5.884-47.064
			s19.803-28.433,23.479-29.167c3.675-0.734,9.556,28.684,4.8,49.519c-4.755,20.835-7.403,45.838-6.864,54.908
			c0.539,9.069,7.009,3.188,3.772,25.249c-3.235,22.061-3.239,60.303-10.935,66.429s-7.5,19.854-7.5,19.854L416.721,1014.917z"/>
		<path fill="#009444" d="M432.453,1036.245c12.794-31.619,17.599-58.583,14.514-93.146c-3.086-34.563-0.537-47.312,4.808-65.205
			c5.343-17.893,11.716-49.76,7.06-41.181c-4.656,8.58-35.389,26.959-26.812,63.484c8.574,36.525-15.3,114.72-15.3,114.72
			L432.453,1036.245z"/>
		<path fill="#C2B59B" d="M105,865c-3-17-10-44-6-52s2-12,4-19s-9-7,1-16s-2-11,5-21s6-20,6-24s-17-13-12-18s14-7,14-7s13,1,22-1
			s-41,1-32-7s2-10,14-17s2-16,15-16s10,2,15,8s8,11,2,15s-7-1,0,10s6,11,3,13s27-3,2,8s-42,13-27,20s18,10,24,18s10,18,15,24
			s14-1,5,12s-3,26-13,33s-10-6-10,7s0,0,0,13s3,15-1,21s4,0-4,6s-9,12-14,14s5-2-5,2s-31-3-32,3s13,12-2,10s-8-3-15-2
			S105,865,105,865z"/>
		<path fill="#9B8579" d="M113,780c-16,1-28,14-14,19s19,11,21,15s0,9-3,13s-13,4-6,10s-9-1-3,7s1,11,7,13s13,7,14,3s-12,16-1,14
			s13-14,9-25s-16-25-4-30s17,6,20,4s3-4,4-7s0-13,0-17s-6-13-5-9s-10,17-10,17l-3-21l5-7c0,0-7-14-11-14s-15,1-15,1s7,17,5,20
			s-7,10-7,10L113,780z"/>
		<path fill="#726658" d="M82,913c0,0,2-8,10-20s25-17,21-24s-1-18-2-26s-8,5-1-8s5-10,3-22s12-15-2-17s-14-10-14-10
			c-2-5,17-15,1-15s-16,3-18-4s5-2-2-7s12-12-1-4s-11,1-13,8s9,50,9,50L82,913z"/>
		<path fill="#C2B59B" d="M49,757c-14,6-29,26-9,25s20,5,7,13s-23,17-22,21s-16,25-11,31s4,27,10,33s11,27,22,27s1,18,19,13
			s23,2,25-6s-1-24,3-40s-3,7-1-26s8-37-4-38s7-18,4-20s-6-6-14-8s5-17-4-15S49,757,49,757z"/>
		<path fill="#C2B59B" d="M40,710c-10.252,1.972-8,65,14,54S66,705,40,710z"/>
		<path fill="#9B8579" d="M56,722c0,0-11,13-24,7c10,18,1,36,14,33S61,751,56,722z"/>
		<path fill="#9B8579" d="M54,764c0,0-13,6-10,7s34,12,30,12s-19,20-4,18s11-13,8-13s9-11-2-12s-11-1-11-1L54,764z"/>
		<path fill="#9B8579" d="M34,819c1.53,10.708-19,19-9,28s18,16,17,22s-26,19-2,26s30,17,30,17s-1-2,2-9s-16-29-17-38s-14-14-2-19
			s-11,9,5,2s7,23,16,26s1,20,10,10s-4-36,1-42s18-9,5-12s23-16-11-14s-5-4-17-10S32,805,34,819z"/>
		<path fill="#9B8579" d="M68,885c-6.316-1.053-4,31,2,27s-1-4-1-4S80,887,68,885z"/>
		<path fill="#9B8579" d="M83,892c-6.641-0.948-7,14-1,13S90,893,83,892z"/>
		<path fill="#9B8579" d="M132,757l-16-6l3-14l-11-17c0,0-2-13,1-11s15,24,19,20s21-7,21-7l15-3l-26,19L132,757z"/>
		<polygon fill="#9B8579" points="142,760 157,775 158,790 170,797 156,769 		"/>
		<path fill="#9B8579" d="M141,675c-11,4-22,12-17,15s1,7,5,9s11,3,11,3s-0.748-4.221,7-11C155,684,141,675,141,675z"/>
		<path fill="#C2B59B" d="M250,771c-11-5-15-15-27-17s-66-2-52-9s-8-9,12-20s24-6,20-11s-13-19-13-19s0-4,5-7s-2.042-13.426,6-14
			c14-1,23-2,23-2s-22-24-7-30s0-25,9-29s5-12,3-15s7-9,11-13s9-8,14-9s2-14,10-16s34-6,34-6s-5,16-19,21s-8,15-18,19s-13-8-11,8
			s7,0,8,23s11,15,5,27s-16,23-16,23s8-19,23-3s27,18,28,22s-8,33-22,39s-3,8-6,17s-3,22-3,22l-11,7L250,771z"/>
		<path fill="#9B8579" d="M204,750c-4-1-34,1-33-5s-16-11-4-15s12,2,23,1s1,3,11-1s14-8,14-8s-6-9,0-9s-7-7-6-8s-11-6-3-8s-15-1-1-8
			s-3-6,4-12s-5-4,7-6s19,9,19,9l7,5l-13-27c0,0-8-14-5-23s8-26,8-26s20-4,14,8s-2,33-2,33c2,10,2,12,4,18s12-1,7,9s-10,0-5,10
			s7,11,7,14c0,0,4,6-10,3s-19-6-14-3s15,6,14,12s1.832,10.539-1,14c-9,11-19,8-9,11s22,1,22,1s1,4,0,7s-5,18-5,18v10l-35-19
			L204,750z"/>
		<polygon fill="#9B8579" points="193,721 217,726 198,716 		"/>
		<path fill="#9B8579" d="M251,582c-8.289,7.829-8,17-8,17s-1,9,3,6s15-18,15-18S269,565,251,582z"/>
		<path fill="#9B8579" d="M267,690c-11.469-3.67-11,4-3,8s10,17,8,20s-20,12-20,12s-3,15,7,9s20-13,21-25S292,698,267,690z"/>
		<polygon fill="#9B8579" points="255,715 257,726 263,711 		"/>
		<polygon fill="#9B8579" points="232,640 260,641 237,633 		"/>
		<polygon fill="#9B8579" points="232,647 260,648 237,640 		"/>
		<polygon fill="#9B8579" points="233,656 261,657 238,649 		"/>
		<path fill="#EF4136" d="M137,553c0,0-32,4-35,8s4,4,13,6s-13,40,16,40s82-19,65-25s-28,1-28-2s14-12,3-12s-10-14-10-14s8-25-7-23
			S139,549,137,553z"/>
		<path fill="#BE1E2D" d="M137,559c-12,1-39,10-22,8s23,6,24,10s-14,2,1,4s-16,13,6,11s54-4,40-4s-20-6-26-10s7-10-1-13s-1-32-9-28
			S137,559,137,559z"/>
		<path fill="#BE1E2D" d="M140,589l-13.5,14.5c0,0,15-13,16.5-13S140,589,140,589z"/>
		<path fill="#BE1E2D" d="M135,579c0.5,1.5-11,21.5-11,21.5l16-19.5L135,579z"/>
		<path fill="#BE1E2D" d="M124,564.5c0,0-3,22-1.5,21.5s7-20.5,7-20.5S122.5,565,124,564.5z"/>
		<path fill="#FBB040" d="M137,559c-5.191,0.547-6.5,7,1.5,6S146.5,558,137,559z"/>
		<path fill="#FBB040" d="M160.5,568c-5.191,0.547-6.5,7,1.5,6S170,567,160.5,568z"/>
		<path fill="#FBB040" d="M149.5,579c-5.191,0.547-6.5,7,1.5,6S159,578,149.5,579z"/>
		<path fill="#FBB040" d="M171.5,586.5c-5.191,0.547-6.5,7,1.5,6S181,585.5,171.5,586.5z"/>
		<circle fill="#ABC5D2" cx="31.333" cy="693.333" r="11.667"/>
		<circle fill="#ABC5D2" cx="42.333" cy="667.666" r="8"/>
		<circle fill="#ABC5D2" cx="32.666" cy="641.333" r="4.333"/>
		<circle fill="#ABC5D2" cx="45.667" cy="628.333" r="2.667"/>
		<circle fill="#ABC5D2" cx="38.666" cy="607.333" r="5.667"/>
		<circle fill="#ABC5D2" cx="50.333" cy="589.666" r="3.333"/>
		<circle fill="#ABC5D2" cx="147.333" cy="654" r="7"/>
		<circle fill="#ABC5D2" cx="155" cy="637" r="6.667"/>
		<circle fill="#ABC5D2" cx="134.666" cy="635.333" r="6.333"/>
		<circle fill="#ABC5D2" cx="121" cy="639.666" r="2"/>
		<circle fill="#ABC5D2" cx="134.333" cy="615" r="2.667"/>
		<circle fill="#ABC5D2" cx="281.333" cy="545.999" r="8.333"/>
		<circle fill="#ABC5D2" cx="283.666" cy="524.333" r="5.333"/>
		<circle fill="#ABC5D2" cx="289.666" cy="509" r="4"/>
		<ellipse fill="#ABC5D2" cx="287.666" cy="497" rx="0" ry="1.333"/>
		<circle fill="#ABC5D2" cx="259.666" cy="497.666" r="2"/>
		<g>
			<ellipse fill="#BE1E2D" cx="377.667" cy="961.999" rx="86" ry="72.334"/>
			<path fill="#860B17" d="M350.333,908.333c0,0-5.334,39.334-22.667,36s8-40.667,8-40.667L350.333,908.333z"/>
			<path fill="#860B17" d="M401.667,901.666c0,0-5.334,39.334-22.667,36s8-40.667,8-40.667L401.667,901.666z"/>
			<path fill="#860B17" d="M445,928.333c0,0-5.334,39.334-22.667,36s9.333-46.667,9.333-46.667L445,928.333z"/>
			<path fill="#860B17" d="M401.667,938.333c0,0-5.334,39.334-22.667,36s9.333-46.667,9.333-46.667L401.667,938.333z"/>
			<path fill="#860B17" d="M365.667,937.666c0,0-5.334,39.334-22.667,36s9.333-46.667,9.333-46.667L365.667,937.666z"/>
			<path fill="#860B17" d="M331.667,951.666c0,0-5.334,39.334-22.667,36s9.333-46.667,9.333-46.667L331.667,951.666z"/>
			<path fill="#860B17" d="M310.333,929.666c0,0-0.001,44.001-17.334,40.667s9.333-46.667,9.333-46.667L310.333,929.666z"/>
			<path fill="#860B17" d="M437,953c0,0-5.334,39.334-22.667,36s9.333-46.667,9.333-46.667L437,953z"/>
			<path fill="#FBB040" d="M341.667,908.333c0,0-17.333-27.334-5.333-30.667s18,28.667,18,28.667L341.667,908.333z"/>
			<path fill="#FBB040" d="M352.333,918.999C341.918,923.05,353,938.333,355,938.333s12.667-3.334,12.667-3.334
				S364.333,914.332,352.333,918.999z"/>
			<path fill="#FBB040" d="M367.667,946.999c-11.878,1.828-9.333,19.334,4,17.334S385,944.332,367.667,946.999z"/>
			<path fill="#FBB040" d="M318.333,921.666c0,0-20-16.001-25.333-10.667s16,20.667,16,20.667L318.333,921.666z"/>
			<path fill="#FBB040" d="M336.333,941.666l-10.667,8.667c0,0-14-7.334-5.333-15.334S336.333,941.666,336.333,941.666z"/>
			<path fill="#FBB040" d="M300.333,951.666c0,0-24-17.333-29.333-8s20.667,18.333,20.667,18.333L300.333,951.666z"/>
			<path fill="#FBB040" d="M319.667,960c0,0-7.333-6.002-14.667-3.001s-6,8-6,8L319.667,960z"/>
			<path fill="#FBB040" d="M385,932.333l15.333,7.333c0,0,11.333-14-2-20S385,932.333,385,932.333z"/>
			<path fill="#FBB040" d="M388.333,898.999l14,5.334c0,0,15.333-30.668,4-35.334S388.333,898.999,388.333,898.999z"/>
			<path fill="#FBB040" d="M397,962.999c0,0,0.667-8.667,11.333-10s16,11.334,16,11.334L397,962.999z"/>
			<path fill="#FBB040" d="M421,946.333l14,10.666c0,0,11.572-11.033,3.333-17.333C427,930.999,421,946.333,421,946.333z"/>
			<path fill="#FBB040" d="M434.333,918.333L445,930.999c0,0,28.667-19.333,18-29.333
				C453.823,893.062,434.333,918.333,434.333,918.333z"/>
			<path fill="#FBB040" d="M455.667,948.333L457,960c0,0,25.333-0.333,26.667-9.667S455.667,948.333,455.667,948.333z"/>
			<path fill="#C36F2F" d="M346.333,906.999c0,0-8-29.333-12.667-27.333s8,28.667,8,28.667L346.333,906.999z"/>
			<path fill="#C36F2F" d="M361,939.666c0,0-8.667-20-13.334-18S356.333,941,356.333,941L361,939.666z"/>
			<path fill="#C36F2F" d="M374.334,969.666c0,0-8.667-20-13.334-18S369.667,971,369.667,971L374.334,969.666z"/>
			<path fill="#C36F2F" d="M329,948.333c0,0-6.667-12.667-11.333-10.667s10.667,15.333,10.667,15.333L329,948.333z"/>
			<path fill="#C36F2F" d="M313.667,929.666c0,0-13.334-14-18-12S313,934.332,313,934.332L313.667,929.666z"/>
			<path fill="#C36F2F" d="M291.667,959.666c0,0-13.334-14-18-12S291,964.332,291,964.332L291.667,959.666z"/>
			<path fill="#C36F2F" d="M395.667,900.333c0,0,14.667-26.666,6.667-30S387,896.999,387,896.999L395.667,900.333z"/>
			<path fill="#C36F2F" d="M392.333,935c0,0,10-13.333,2-16.667s-10.667,13.333-10.667,13.333L392.333,935z"/>
			<path fill="#C36F2F" d="M438.333,925.667c0,0,20.667-17.334,18-21.334s-22,14-22,14L438.333,925.667z"/>
			<path fill="#C36F2F" d="M457,960c0,0,16.667-3.666,16-10.333s-17.333-1.334-17.333-1.334S453.667,960,457,960z"/>
			<path fill="#C36F2F" d="M431,953c2,0,6.667-11.333,1.333-14s-14,7.999-11.333,7.333S431,953,431,953z"/>
		</g>
	</g>
	<g id="PABLO">
		
			<radialGradient id="SVGID_1_" cx="1217.9014" cy="401.2949" r="76.5808" gradientTransform="matrix(1 0 0 -1 0 961)" gradientUnits="userSpaceOnUse">
			<stop  offset="8.370500e-04" style="stop-color:#AEC99D"/>
			<stop  offset="0.4059" style="stop-color:#31B457"/>
			<stop  offset="0.9702" style="stop-color:#008042"/>
		</radialGradient>
		<path fill="url(#SVGID_1_)" d="M1202.999,606c0,0,22.667-9.333,34.667-24s-12.667-60.667-12.667-60.667L1202.999,606z"/>
		<path fill="#107139" d="M1208.332,598.666c0,0,8.667,0.001,16.667-14.666s11.333-38,5.333-46S1208.332,598.666,1208.332,598.666z"
			/>
		
			<radialGradient id="SVGID_2_" cx="1033.6348" cy="442.3379" r="498.6888" gradientTransform="matrix(1 0 0 -1 0 961)" gradientUnits="userSpaceOnUse">
			<stop  offset="8.370500e-04" style="stop-color:#AEC99D"/>
			<stop  offset="0.4059" style="stop-color:#31B457"/>
			<stop  offset="0.7261" style="stop-color:#008544"/>
			<stop  offset="1" style="stop-color:#006A30"/>
		</radialGradient>
		<path fill="url(#SVGID_2_)" d="M1153.667,687.667c2,0,58-27,76-139c11.244-69.961-32-106-65-141s-107-51-192-41s-194,43-257,124
			c-46.025,59.175-46.896,161.94-108.904,113.085c-49.498-38.998-77.496,18.998-88.496,32.998
			c53.997-50.997,91.496-22.499,58.497,65.997c38.998-34.499,97.495-20.999,59.997,40.498
			c52.497-31.499-3.735-119.174,50.998-92.996c68.997,32.999,219.908,80.418,276.908,83.418S1153.667,687.667,1153.667,687.667z"/>
		<path fill="#107139" d="M1038.999,614.666c-15.334,11.999-47.544,47.839-31.332,43.335c12-3.334,42.668-31.334,59.334-36.667
			s33.998,5.665,35.999-0.834s-35.999-13.833-35.999-13.833S1054.333,602.667,1038.999,614.666z"/>
		
			<radialGradient id="SVGID_3_" cx="919.7852" cy="425.6807" r="62.6902" gradientTransform="matrix(1 0 0 -1 0 961)" gradientUnits="userSpaceOnUse">
			<stop  offset="8.370500e-04" style="stop-color:#AEC99D"/>
			<stop  offset="0.4059" style="stop-color:#31B457"/>
			<stop  offset="0.7261" style="stop-color:#008544"/>
			<stop  offset="1" style="stop-color:#006A30"/>
		</radialGradient>
		<path fill="url(#SVGID_3_)" d="M993.667,486.667c0,0,6.999,58.999-55.667,88.333s-97.666-19-91.666-62.333
			C879,531.334,923.667,530.667,993.667,486.667z"/>
		
			<radialGradient id="SVGID_4_" cx="1154.0098" cy="445.6602" r="48.2156" gradientTransform="matrix(1 0 0 -1 0 961)" gradientUnits="userSpaceOnUse">
			<stop  offset="8.370500e-04" style="stop-color:#AEC99D"/>
			<stop  offset="0.4059" style="stop-color:#31B457"/>
			<stop  offset="0.7261" style="stop-color:#008544"/>
			<stop  offset="1" style="stop-color:#006A30"/>
		</radialGradient>
		<path fill="url(#SVGID_4_)" d="M1096.573,478.592c0,0,8.999,70.483,70.427,73.408c62.997,3,40.566-71.409,40.566-71.409
			S1153.571,513.091,1096.573,478.592z"/>
		
			<radialGradient id="SVGID_5_" cx="1152.6387" cy="449.9053" r="34.2934" gradientTransform="matrix(1 0 0 -1 0 961)" gradientUnits="userSpaceOnUse">
			<stop  offset="0" style="stop-color:#FFFFFF"/>
			<stop  offset="1" style="stop-color:#E6E7E8"/>
		</radialGradient>
		<path fill="url(#SVGID_5_)" d="M1113.072,484.592c0,0,2.332,51.079,48.928,54.408c55.997,4.001,15.122-78.523,24.568-49.908
			l-20.999,4.499L1113.072,484.592z"/>
		<path d="M1127.57,494.09c0,0,9.765,34.41,30.764,32.91s21.733-35.909,21.733-35.909L1127.57,494.09z"/>
		
			<radialGradient id="SVGID_6_" cx="919.7773" cy="426.7661" r="38.4125" gradientTransform="matrix(1 0 0 -1 0 961)" gradientUnits="userSpaceOnUse">
			<stop  offset="0" style="stop-color:#FFFFFF"/>
			<stop  offset="1" style="stop-color:#E6E7E8"/>
		</radialGradient>
		<path fill="url(#SVGID_6_)" d="M874.584,519.09c0,0,5.999,49.498,44.996,44.998c52.681-6.079,44.999-59.997,44.999-59.997
			S939.081,526.59,874.584,519.09z"/>
		<path d="M901.581,525.09c0,0-3,29.997,23.999,26.998s29.998-43.497,29.998-43.497L901.581,525.09z"/>
		<path fill="#FFFFFF" d="M911,524c0,0,2,8,16.667,8s16.667-17.334,16.667-17.334L911,524z"/>
		<path fill="#FFFFFF" d="M1134.334,493.667c0,0,7.999,15.333,22.666,15.333s16.667-13.334,16.667-13.334L1134.334,493.667z"/>
		
			<radialGradient id="SVGID_7_" cx="919.4883" cy="492.7314" r="78.0411" gradientTransform="matrix(1 0 0 -1 0 961)" gradientUnits="userSpaceOnUse">
			<stop  offset="8.370500e-04" style="stop-color:#AEC99D"/>
			<stop  offset="0.4059" style="stop-color:#31B457"/>
			<stop  offset="0.7261" style="stop-color:#008544"/>
			<stop  offset="1" style="stop-color:#006A30"/>
		</radialGradient>
		<path fill="url(#SVGID_7_)" d="M1006.576,411.095c0,0,29.998,53.998-31.498,88.496c-52.277,29.326-76.497,28.499-112.495,22.499
			s-37.498-23.999-37.498-23.999s28.752,22.242,81.249,13.242S1017.667,474,1006.576,411.095z"/>
		
			<radialGradient id="SVGID_8_" cx="1138.9004" cy="508.1367" r="62.9053" gradientTransform="matrix(1 0 0 -1 0 961)" gradientUnits="userSpaceOnUse">
			<stop  offset="8.370500e-04" style="stop-color:#AEC99D"/>
			<stop  offset="0.4059" style="stop-color:#31B457"/>
			<stop  offset="0.7261" style="stop-color:#008544"/>
			<stop  offset="1" style="stop-color:#006A30"/>
		</radialGradient>
		<path fill="url(#SVGID_8_)" d="M1070.572,408.595c0,0-13.499,53.997,50.998,71.996s89.995-13.499,89.995-13.499l4.5,10.499
			c0,0-33.937,34.312-103.495,12C1033.074,464.092,1070.572,408.595,1070.572,408.595z"/>
		<path fill="#F9ED32" d="M1024,634c18.213-20.815,26-31,55-27s37,23,15,16s-42.049-3.162-61,15C1009,661,1010,650,1024,634z"/>
		<path fill="#D8E040" d="M1174,672c-12,5-54-33-141,8c-101.957,48.049-180.412,23.581-257.412,5.581
			C882,733,1028.35,746.58,1059.073,736.578C1153,706,1174,672,1174,672z"/>
		<path fill="#F1B937" d="M1105,624.5c3.158,2.297-25-6.5-37.5-2.5s-45,29.5-51.5,30.5s17-30.5,41.5-35.5S1099.5,620.5,1105,624.5z"
			/>
		
			<ellipse transform="matrix(-0.257 -0.9664 0.9664 -0.257 932.5253 1493.6227)" fill="#107139" cx="1040.399" cy="388.356" rx="9" ry="19.499"/>
		
			<ellipse transform="matrix(-0.2571 -0.9664 0.9664 -0.2571 843.8467 1407.9722)" fill="#107139" cx="963.089" cy="379.647" rx="4.341" ry="9.405"/>
		
			<ellipse transform="matrix(-0.2571 -0.9664 0.9664 -0.2571 751.5798 1389.3628)" fill="#107139" cx="909.819" cy="405.797" rx="5.479" ry="11.87"/>
		
			<ellipse transform="matrix(-0.257 -0.9664 0.9664 -0.257 600.5342 1337.9746)" fill="#107139" cx="814.59" cy="438.14" rx="5.479" ry="11.871"/>
		
			<ellipse transform="matrix(-0.4584 -0.8887 0.8887 -0.4584 859.3431 1407.2251)" fill="#107139" cx="858.439" cy="441.779" rx="4.134" ry="8.956"/>
		
			<ellipse transform="matrix(-0.4584 -0.8887 0.8887 -0.4584 684.2111 1384.4933)" fill="#107139" cx="763.947" cy="483.774" rx="4.134" ry="8.956"/>
		
			<ellipse transform="matrix(-0.4583 -0.8888 0.8888 -0.4583 753.6613 1431.514)" fill="#107139" cx="813.046" cy="486.099" rx="2.853" ry="6.18"/>
		
			<ellipse transform="matrix(-0.4583 -0.8888 0.8888 -0.4583 1289.4618 1581.0868)" fill="#107139" cx="1126.524" cy="397.615" rx="2.853" ry="6.18"/>
		
			<ellipse transform="matrix(-0.4585 -0.8887 0.8887 -0.4585 693.5323 1506.6206)" fill="#107139" cx="805.79" cy="542.011" rx="2.853" ry="6.18"/>
		
			<ellipse transform="matrix(-0.4585 -0.8887 0.8887 -0.4585 607.1449 1401.1018)" fill="#107139" cx="730.41" cy="515.588" rx="2.853" ry="6.181"/>
		<path fill="#107139" d="M1051.573,672.082c0,0-74.996,31.498-173.991,13.499s-145.492-40.499-173.991-46.498
			s-41.998-2.999-41.998,9s1.5-13.5,38.998,8.999S925.579,747.078,1051.573,672.082z"/>
		<path fill="#107139" d="M775.667,563.333c0,0,14.667,84.001-8,99.334s-53.333-1.333-58-20s-6.667-68.666,6.667-68
			s18,65.333,26,63.333S775.667,563.333,775.667,563.333z"/>
		<g>
			
				<radialGradient id="SVGID_9_" cx="1378.3037" cy="1432.4648" r="163.5383" gradientTransform="matrix(0.2614 -0.7459 -0.4817 -0.5347 1069.9086 2397.926)" gradientUnits="userSpaceOnUse">
				<stop  offset="8.370500e-04" style="stop-color:#AEC99D"/>
				<stop  offset="0.4059" style="stop-color:#31B457"/>
				<stop  offset="0.9702" style="stop-color:#008042"/>
			</radialGradient>
			<path fill="url(#SVGID_9_)" d="M753.979,558.771c-4.556,11.662-9.674,4.553-28.799,2.779
				c-19.13-1.769-16.854,32.723-12.717,56.77c3.958,23.03,19.668,36.99,47.213,34.335c15.375-1.484,21.506-17.824,20.043-59.756
				c-1.402-40.237-12.611-45.966-12.611-45.966C757.072,544.826,758.338,547.625,753.979,558.771z"/>
			<path fill="none" stroke="#006028" stroke-width="2.8433" stroke-miterlimit="10" d="M726.052,624.363
				c0,0,31.463,12.682,42.467-8.461"/>
			<path fill="none" stroke="#006028" stroke-width="2.8433" stroke-miterlimit="10" d="M722.671,595.592
				c0,0,26.885,10.38,38.827-8.329"/>
		</g>
		
			<radialGradient id="SVGID_10_" cx="955" cy="259.4092" r="121.5761" gradientTransform="matrix(1 0 0 -1 0 961)" gradientUnits="userSpaceOnUse">
			<stop  offset="0" style="stop-color:#DCCE80"/>
			<stop  offset="1" style="stop-color:#D7B928"/>
		</radialGradient>
		<path fill="url(#SVGID_10_)" d="M785.667,690c0,0,99.333,43,234.667,41.334c62.79-0.773,104-36.667,104-36.667
			S1079,648,1019.667,688c-42,18-80,20.001-114,19.334S785.667,690,785.667,690z"/>
	</g>
</g>
<g id="BUBBLES">
	<circle fill="#FFFFFF" cx="1246" cy="422.334" r="17"/>
	<circle fill="#FFFFFF" cx="1245.667" cy="376.667" r="9.333"/>
	<circle fill="#FFFFFF" cx="1269.333" cy="349" r="3.667"/>
	<circle fill="#FFFFFF" cx="1192.566" cy="258.102" r="7.667"/>
	<circle fill="#FFFFFF" cx="1215.333" cy="328.334" r="3.667"/>
	<circle fill="#FFFFFF" cx="1191" cy="298" r="11.333"/>
	<circle fill="#FFFFFF" cx="1238.667" cy="301" r="9"/>
	<circle fill="#FFFFFF" cx="1222" cy="274.334" r="5"/>
	<circle fill="#FFFFFF" cx="1218.667" cy="247" r="3"/>
	<circle fill="#FFFFFF" cx="1240" cy="223" r="1.667"/>
	<circle fill="#FFFFFF" cx="1252.333" cy="200.667" r="2.667"/>
</g>
</svg>
