<?xml version="1.0" encoding="iso-8859-1"?>
<!-- Generator: Adobe Illustrator 16.0.0, SVG Export Plug-In . SVG Version: 6.00 Build 0)  -->
<!DOCTYPE svg PUBLIC "-//W3C//DTD SVG 1.1//EN" "http://www.w3.org/Graphics/SVG/1.1/DTD/svg11.dtd">
<svg version="1.1" xmlns="http://www.w3.org/2000/svg" xmlns:xlink="http://www.w3.org/1999/xlink" x="0px" y="0px" width="1440px"
	 height="960px" viewBox="0 0 1440 960" enable-background="new 0 0 1440 960" xml:space="preserve">
<g id="Layer_1">
	<g id="b93A18_1_">
		
			<image overflow="visible" width="241" height="138" id="b93A18_2_" xlink:href="A4A3E58134860301.jpg"  transform="matrix(6.3 0 0 6.3 -51.2598 95.7822)">
		</image>
	</g>
</g>
<g id="WATER" display="none">
	<rect x="-84.088" y="-3.112" display="inline" fill="#5BC0AC" width="1668.65" height="969.521"/>
	<path display="inline" fill="#AEDBC3" d="M1494.24,319.869c-97.17,32.391-627.646-32.939-848.659-69.14
		c-221.014-36.2-755.454,106.697-781.172,142.897c-25.719,36.201,7.622,36.201,7.622,36.201s325.807-175.287,672.571-139.087
		s594.455,219.108,865.006,182.909C1680.16,437.449,1494.24,319.869,1494.24,319.869z"/>
	<path display="inline" opacity="0.3" fill="#B3BE9B" d="M1420.24,225.869c-97.17,32.391-627.646-32.939-848.659-69.14
		c-221.014-36.2-659.444,88.695-685.163,124.896c-25.719,36.201,7.622,36.201,7.622,36.201s229.797-157.285,576.561-121.085
		s594.455,219.108,865.006,182.909C1606.16,343.449,1420.24,225.869,1420.24,225.869z"/>
	<path display="inline" opacity="0.3" fill="#B3BE9B" d="M1488.24,667.869c-97.17,32.391-627.646-32.939-848.659-69.14
		c-221.014-36.2-755.454,106.697-781.172,142.897c-25.719,36.201,7.622,36.201,7.622,36.201s325.807-175.287,672.571-139.087
		s594.455,219.108,865.006,182.909C1674.16,785.449,1488.24,667.869,1488.24,667.869z"/>
	<path display="inline" fill="#AEDBC3" d="M1578.825,155.747c-144.546,55.269-429.385,104.16-620.695,14.881
		C766.82,81.35,358.692,62.219,212.021,87.727s-310.35,82.9-310.35,82.9v180.683c0,0,505.914-201.94,712.102-176.432
		c206.187,25.508,818.382,116.918,928.917,55.27C1653.224,168.5,1578.825,155.747,1578.825,155.747z"/>
</g>
<g id="WATER_copy">
	<rect x="-84.088" y="-3.112" fill="#5BC0AC" width="1668.65" height="969.521"/>
	<path opacity="0.1" fill="#FFFFFF" d="M1494.24,319.869c-97.17,32.391-627.646-32.939-848.659-69.14
		c-221.014-36.2-755.454,106.697-781.172,142.897c-25.719,36.201,7.622,36.201,7.622,36.201s325.807-175.287,672.571-139.087
		s594.455,219.108,865.006,182.909C1680.16,437.449,1494.24,319.869,1494.24,319.869z"/>
	<path opacity="0.3" fill="#B3BE9B" d="M1420.24,225.869c-97.17,32.391-627.646-32.939-848.659-69.14
		c-221.014-36.2-659.444,88.695-685.163,124.896c-25.719,36.201,7.622,36.201,7.622,36.201s229.797-157.285,576.561-121.085
		s594.455,219.108,865.006,182.909C1606.16,343.449,1420.24,225.869,1420.24,225.869z"/>
	<path opacity="0.3" fill="#B3BE9B" d="M1488.24,667.869c-97.17,32.391-627.646-32.939-848.659-69.14
		c-221.014-36.2-755.454,106.697-781.172,142.897c-25.719,36.201,7.622,36.201,7.622,36.201s325.807-175.287,672.571-139.087
		s594.455,219.108,865.006,182.909C1674.16,785.449,1488.24,667.869,1488.24,667.869z"/>
	<path opacity="0.1" fill="#FFFFFF" d="M1578.825,155.747c-144.546,55.269-429.385,104.16-620.695,14.881
		C766.82,81.35,358.692,62.219,212.021,87.727s-310.35,82.9-310.35,82.9v180.683c0,0,505.914-201.94,712.102-176.432
		c206.187,25.508,818.382,116.918,928.917,55.27C1653.224,168.5,1578.825,155.747,1578.825,155.747z"/>
</g>
<g id="BG_HILLS" display="none">
	<path display="inline" fill="#598989" d="M-43,569c38-4,48-48,62-54s12-10,22-14s-16,26,14-14s12-44,30-62s2-32,10-38s26-12,44-18
		s18-10,30-8s-30,32-16,32s-30,28-12,30s-10-6,24,12s40,26,40,26l32,4c0,0,0-34,30-52s34-28,38-22s9.093,9.288,20,16
		c26,16,50,22,60,34s42,6,40,12s-24,24,8,30s44,2,74,20s78,34,96,28s20,2,54-8s64-14,46-20s-92-42,16-48s86-2,108-6s36-2,36,6
		s16,8,34,14s30,0,30,6s24,0,30,8s42,4,38,14s-10,8,18,16s30,2,50,2s6,2,20,0s0-46,30-56s14-4,30-10s24-10,24-10s28,6,22,12
		s-2,20,24,22s70-12,70-18s24-20,24-20s44,68,50,72s2,20,24,8s6-44,18-48s3-16,22-4s37.515,38.343,46,44c24,16,10-4,48,28
		s58,68,58,68s30,24,18,32s-26,44-30,50s-16,58-16,58L-95,715L-43,569z"/>
</g>
<g id="SAND">
	<path fill="#C2B59B" d="M-27,629c68-18,130-48,314-30s398,44,538,36s398-10,468,6c61.552,14.069,351.877-37.095,318-50
		c-1.653-0.63-76.979,265.224-84,274c-16,20-166,134-198,142s-486,32-672,28s-270-32-428-46S-9,977-31,943S-27,629-27,629z"/>
	<path fill="#C2B59B" d="M-33,581"/>
	<path fill="#867757" d="M639.096,990.063c-56.01-5.001-149.993-11.999-176.991-58.497c-46.498-3-51.16-41.503-40.498-55.497
		C453.606,834.069,847,773,865,771s250-68,342-66s257,10,262,72s4,193-6,198s-324,0-366,14S639.096,990.063,639.096,990.063z"/>
	<path fill="#867757" d="M-53,691c0,0,218-140,634-22c-110,0-76,0-226,18S97,759-53,691z"/>
	<ellipse fill="#867757" cx="140" cy="768" rx="9" ry="5"/>
	<ellipse fill="#867757" cx="182" cy="784" rx="3" ry="1"/>
	<circle fill="#867757" cx="131" cy="795" r="6"/>
	<circle fill="#867757" cx="152" cy="810" r="7"/>
	<circle fill="#867757" cx="706" cy="679" r="7"/>
	<circle fill="#867757" cx="1253" cy="664" r="7"/>
	<circle fill="#867757" cx="182" cy="784" r="5"/>
	<circle fill="#867757" cx="1402" cy="668" r="3"/>
	<circle fill="#867757" cx="280" cy="881" r="3"/>
	<circle fill="#867757" cx="171" cy="834" r="3"/>
	<circle fill="#867757" cx="308" cy="827" r="3"/>
	<circle fill="#867757" cx="529" cy="736" r="3"/>
	<circle fill="#867757" cx="752" cy="723" r="3"/>
	<circle fill="#867757" cx="614" cy="775" r="3"/>
	<circle fill="#867757" cx="1079" cy="685" r="3"/>
	<circle fill="#867757" cx="805" cy="676" r="3"/>
	<circle fill="#867757" cx="38" cy="631" r="3"/>
	<circle fill="#867757" cx="98" cy="617" r="3"/>
	<circle fill="#867757" cx="137" cy="615" r="3"/>
	<circle fill="#867757" cx="1426" cy="650" r="5"/>
	<circle fill="#867757" cx="1430.5" cy="698.5" r="9.5"/>
	<path fill="#73643E" d="M-31,685c-5.657-2.828,72-54,226-62s366,42,366,42s-178-22-300-8S73,737-31,685z"/>
	<path fill="#73643E" d="M1453,733c0,0-78-44-216-32s-356,72-414,80s-246,54-246,54s268-34,384-52s272-72,330-40s184,52,184,52
		L1453,733z"/>
</g>
<g id="CLAM">
	<path fill="#939195" d="M441,825c0,0-21,39,34,40S441,825,441,825z"/>
	<path fill="#939195" d="M433,867c0,0,2.103,54.57,59.103,46.57S467,853,433,867z"/>
	<path fill="#939195" d="M469.604,901.571c0,0,26.999,52.497,95.996,40.496C585,978,688,981,725,970c39,20,106,14,141-3
		c63,17,120.833,7.1,126,4c10-6,62.054-13.376,92-54c50.073-67.929,43-122,43-122L469.604,901.571z"/>
	<path fill="#939195" d="M1352.002,409.227c0,0-20.999-85.965-76.847-118.644c-8.197,35.971,18.764,95.779,18.764,95.779
		L1352.002,409.227z"/>
	<path fill="#939195" d="M1226.426,287.043c-35.944-60.812,8.107-24.379-82.163-77.201c-8.197,35.971,18.764,95.779,18.764,95.779
		L1226.426,287.043z"/>
	<path fill="#939195" d="M1035.049,224.167c0,0-41.6-43.879-103.053-48.941c-8.197,35.971,18.764,95.779,18.764,95.779
		L1035.049,224.167z"/>
	<path fill="#939195" d="M1121,804c0,0,118.253-55.417,198.338-132.108c80.084-76.69,102.747-171.697,60.859-229.403
		C1338.31,384.783,1080.858,759.764,1121,804z"/>
	<path fill="#5C5825" d="M784.416,759.404c0,0-123.606-82.521-164.26-166.776c-40.653-84.256-70.404-182.954-23.211-215.125
		c31.767-21.656,75.413-19.965,75.413-19.965s-1.191-49.118,44.08-78.705c45.27-29.586,81.953-18.474,81.953-18.474
		s26.95-72.976,89.216-83.553c62.266-10.578,94.767,33.98,94.767,33.98s54.791-41.176,115.466-26.661
		c60.674,14.516,91.195,88.894,91.195,88.894s62.264-10.577,95.543,24.527c33.279,35.104,28.997,87.102,28.997,87.102
		s55.558,18.854,71.708,59.686s-11.106,144.213-67.672,203.357C1259.803,708.131,1116,803,1116,803L784.416,759.404z"/>
	<path fill="#5C5825" d="M1118,777c-21.25-15.951-293-31-324-30s-267,38-318,56s-46.764,34.924-16,45c-50,23-35,30,24,37
		c-16,32,16,33,81,30c33,33,109,23,158,12c39,22,112,14,137-5c34,33,148,14,203-32S1137.275,791.469,1118,777z"/>
	<path fill="#38361B" d="M812.743,767.922c0,0-155.56-93.241-203.231-225.191c-47.671-131.949-17.551-185.628,72.588-170.589
		c-6.239-57.149,55.972-124.841,126.745-94.264c27.896-113.352,131.183-107.701,177.052-46.336
		c65.937-84.043,179.799-16.127,193.224,57.795c72.5-19.253,134.686,52.022,114.375,107.936
		c82.785,29.185,94.787,97.28,61.264,174.95c-33.524,77.671-243.136,224.599-243.136,224.599S1041,778,954,773
		S812.743,767.922,812.743,767.922z"/>
	<path fill="#7B0046" d="M808.117,748.982c0,0,209.555-1.779,306.166,27.119c142.449-105.82,236.394-188.984,239.776-276.276
		c3.382-87.292-84.266-92.131-84.266-92.131s26.396-37.328-13.392-80.106c-39.786-42.778-99.916-23.458-99.916-23.458
		s-7.629-69.162-68.66-85.134s-106.822,43.078-106.822,43.078s-50.565-67.941-99.038-51.465
		c-64.675,21.982-53.244,91.751-53.244,91.751s-50.798-24.648-92.409,0.956c-41.61,25.604-32.167,95.866-32.167,95.866
		s-56.949-30.865-89.138,1.702c-32.19,32.567-12.003,134.174,44.322,213.058C715.654,692.824,808.117,748.982,808.117,748.982z"/>
	<path fill="#DFDDDE" d="M809.285,734.801c0,0,153.184-4.993,301.439,26.73c109.938-80.895,183.06-148.165,210.655-205.858
		c31.773-66.426,23.559-118.468-67.971-145.52c23.903-47.527-1.535-120.06-103.174-93.688
		c-11.712-54.268-62.854-149.857-173.315-39.499c-30.976-57.282-125.286-108.359-139.168,37.083
		c-43.256-6.418-121.283-41.4-128.625,105.532c-29.364-19.076-101.983-44.57-98.081,40.942
		C614.95,546.035,728.379,694.348,809.285,734.801z"/>
	<path fill="#F7FCFE" d="M775.943,307.531L660.631,575.021l21.623,37.951c0,0,140.604-303.005,143.163-305.174
		S770.115,308.954,775.943,307.531z"/>
	<polygon fill="#F7FCFE" points="1292.973,426.737 1039.138,746.594 1069.314,750.03 1320.846,452.354 	"/>
	<polygon fill="#F7FCFE" points="1339.555,491.017 1138.22,722.391 1335.762,519.734 	"/>
	<polygon fill="#F7FCFE" points="1108.803,241.665 775.229,709.152 809.285,734.801 1139.49,285.122 1129.069,261.418 	"/>
	<polygon fill="#F7FCFE" points="931.869,737.282 1081.517,578.75 970.043,741.854 	"/>
	<path fill="#38361B" d="M814,760c0,0-209,18-286,39s-102,39-36,49c-43,14-56,26,16,29c-21,16-20,43,79,27c-1,12,62,31,149,6
		c18,16,56,30,137-4c14,19,54,33,124,4s127-89,112-117S814,760,814,760z"/>
	<path fill="#7B0046" d="M1081.572,793.574C1081.572,793.574,975,753,788,770s-427,57-277,77c-38,11-63,29,9,34c-22,15-15,34,57,18
		c16.519,23.32,72,29,153,7c34.533,20.871,85,19,136,1c114,59,210.612-75.846,239-86
		C1112.148,818.443,1081.572,793.574,1081.572,793.574z"/>
	<radialGradient id="SVGID_1_" cx="798.2637" cy="827.3623" r="230.5525" gradientUnits="userSpaceOnUse">
		<stop  offset="0" style="stop-color:#F4C8DE"/>
		<stop  offset="0.999" style="stop-color:#E665A6"/>
	</radialGradient>
	<path fill="url(#SVGID_1_)" d="M586,892c-3.741-1.733-106,21-52-15c-28-3-93-9-5-30c-18,0-57-17,7-32
		s126.915-67.768,271.087-75.423C976.578,730.577,1087,786,1112,817c-27,47-84.149,92.76-184,99c-32,2-60-21-60-21s-41,23-80,18
		s-54-17-54-17S668,930,586,892z"/>
	<radialGradient id="SVGID_2_" cx="958.4668" cy="779.75" r="0.3377" gradientUnits="userSpaceOnUse">
		<stop  offset="0" style="stop-color:#F4C8DE"/>
		<stop  offset="0.999" style="stop-color:#E665A6"/>
	</radialGradient>
	<path fill="url(#SVGID_2_)" d="M874.586,787.574c0,0,9,23.999,49.498,19.499s35.997-20.999,8.999-25.499
		S874.586,787.574,874.586,787.574z"/>
	<radialGradient id="SVGID_3_" cx="771.7891" cy="768.6943" r="0.4222" gradientUnits="userSpaceOnUse">
		<stop  offset="0" style="stop-color:#F4C8DE"/>
		<stop  offset="0.999" style="stop-color:#E665A6"/>
	</radialGradient>
	<path fill="url(#SVGID_3_)" d="M766.589,789.076c0,0-44.995,25.496-76.493,8.997c-36.75-19.25,9-28.498,9-28.498L766.589,789.076z"
		/>
	<radialGradient id="SVGID_4_" cx="738.8428" cy="762.0752" r="39.4177" gradientUnits="userSpaceOnUse">
		<stop  offset="0" style="stop-color:#FFFFFF"/>
		<stop  offset="1" style="stop-color:#E6E7E8"/>
	</radialGradient>
	<ellipse fill="url(#SVGID_4_)" cx="738.843" cy="762.075" rx="41.248" ry="37.498"/>
	<radialGradient id="SVGID_5_" cx="899.3359" cy="762.0752" r="39.4172" gradientUnits="userSpaceOnUse">
		<stop  offset="0" style="stop-color:#FFFFFF"/>
		<stop  offset="1" style="stop-color:#E6E7E8"/>
	</radialGradient>
	<ellipse fill="url(#SVGID_5_)" cx="899.335" cy="762.075" rx="41.248" ry="37.498"/>
	<ellipse cx="733.594" cy="745.576" rx="19.499" ry="18.749"/>
	<ellipse cx="894.084" cy="747.076" rx="19.5" ry="18.749"/>
	<radialGradient id="SVGID_6_" cx="731.3438" cy="738.8262" r="6.7495" gradientUnits="userSpaceOnUse">
		<stop  offset="0" style="stop-color:#FFFFFF"/>
		<stop  offset="1" style="stop-color:#E6E7E8"/>
	</radialGradient>
	<circle fill="url(#SVGID_6_)" cx="731.343" cy="738.826" r="6.75"/>
	<radialGradient id="SVGID_7_" cx="894.084" cy="740.3262" r="6.75" gradientUnits="userSpaceOnUse">
		<stop  offset="0" style="stop-color:#FFFFFF"/>
		<stop  offset="1" style="stop-color:#E6E7E8"/>
	</radialGradient>
	<circle fill="url(#SVGID_7_)" cx="894.084" cy="740.326" r="6.75"/>
	<path fill="#5F6971" d="M1121,804c0,0-24.428,100.637-132.422,120.068C941.646,932.513,894,923,861,926c43,51,90,53,90,53
		s155,19,178.571-177.926C1131.237,787.152,1120.296,820.507,1121,804z"/>
	<path fill="#5F6971" d="M1127,795c0,0,202.061-122.919,253.059-260.912C1363.56,634.583,1202.425,785.926,1127,795z"/>
	<path fill="#5F6971" d="M860,922l6,45c0,0-54,39-119-26C787,938,828.086,939.068,860,922z"/>
	<path fill="#5F6971" d="M723,927l9.091,45.066C732.091,972.066,653,998,596,934C649.998,941.499,691.593,937.568,723,927z"/>
	<path fill="#5F6971" d="M565.599,942.067L565,915c0,0-63.897,4.569-84.896-7.431C514.602,939.068,546.1,942.067,565.599,942.067z"
		/>
</g>
<g id="FG_CORAL" display="none">
	<path display="inline" fill="#338491" d="M-39,743c28-10,46,6,76,6s52-2,56,26s8,34,12,44s16,34,22,38s36,6,36,6s12,40,18,42
		s36,20,36,20l10-12c0,0-4-14,6-12s40,22,40,22h32c0,0-10-10,42,8s80,29,80,29s12,7,8,13s0,14-6,16s-110,12-110,12l-348-14L-39,743z
		"/>
	<path display="inline" fill="#338491" d="M1141.569,966.066c47.998-1.5,44.998-35.999,64.497-41.998s-9-22.498,29.998-28.498
		s28.5-6,56.998-17.999s-92.995-28.5-40.498-31.499s-21-20.998,25.498-28.498s16.5-32.998,49.498-35.998
		s-34.498-13.499,17.999-20.999s34.554-21,64.497-26.999s-94.496-5.999,8.999-13.499s106.494,20.999,110.994,43.498
		s-37.497,230.988-41.997,226.488S1141.569,966.066,1141.569,966.066z"/>
	<path display="inline" fill="#1D676D" d="M1293.064,964.564c-62.997-4.564-85.497-19.5-53.998-23.999s-1.5-4.499,46.498-7.499
		s32.998,1.5,56.997,0s35.999-10.501,28.499-13.5s-14.999-2.999-22.499-8.999s0-14.999,0-14.999s-8.999-13.5-19.499-15
		s-25.499-2.999-38.998-7.499s-79.496-16.499-41.998-17.999s77.996-7.5,100.495-7.5s32.999,10.5,44.998,7.5
		s-41.997-20.999-16.499-26.999s2.998-19.499,19.498-23.999s13.499-19.498,20.999-23.998s-1.5-9,6-13.5s40.499-17.999,47.998-17.999
		s28.498,23.999,28.498,23.999l-41.998,199.49L1293.064,964.564z"/>
	<path display="inline" fill="#1D676D" d="M1299.064,901.567c-19.558,0-15,17.998,2.999,16.499s25.498,6,37.498,4.5
		s1.5-7.499-14.999-13.499S1306.564,901.567,1299.064,901.567z"/>
	<polygon display="inline" fill="#1D676D" points="1252.566,906.067 1257.066,919.566 1264.565,904.567 	"/>
	<polygon display="inline" fill="#1D676D" points="1321.563,834.071 1326.063,847.57 1333.562,832.571 	"/>
	<polygon display="inline" fill="#1D676D" points="1390.56,756.075 1395.06,769.574 1402.559,754.575 	"/>
	<path display="inline" fill="#1D676D" d="M1365.061,775.574l-14.999,16.499l25.499-7.5c0,0,13.5,6,17.999,6
		s-13.5-17.999-13.5-17.999S1360.561,774.074,1365.061,775.574z"/>
	<path display="inline" fill="#1D676D" d="M381.11,966.064c0,0-31.498-32.998-47.998-31.498s-38.998,4.499-44.998,8.999
		s-38.998-2.999-38.998-2.999s16.499-28.5-9-18s-37.498,12.001-44.998,16.5s-16.5-6-29.999-3s-1.5-43.497-28.499-37.498
		s-20.999-23.998-37.498-19.499s-31.498,52.497-37.498,56.997s-7.5-14.999-22.499-34.498s-17.999-35.998-1.5-41.998
		s37.498-3,37.498-3l-14.999-37.498l-22.499,13.499c0,0,25.499-52.497,17.999-52.497s-34.499,6-38.998,4.5S8.87,808.572,0,811.572
		s-32.869,104.995-32.869,104.995s13.5,58.497,16.5,53.997S381.11,966.064,381.11,966.064z"/>
	<path display="inline" fill="#1D676D" d="M52.627,874.569c0,0-15,10.499-9,16.499s15,23.999,15,23.999l10.5-37.498L52.627,874.569z
		"/>
	<polygon display="inline" fill="#1D676D" points="82.625,867.069 81.125,880.569 91.625,867.069 	"/>
	<path display="inline" fill="#1D676D" d="M75.125,799.573c4.344-14.119-13.499,18-3,22.499s28.499,26.998,28.499,26.998
		l-16.5-31.498C84.125,817.572,69.125,819.072,75.125,799.573z"/>
</g>
<g id="PABLO">
	<polygon fill="#009444" points="624,501 664,466 613,494 	"/>
	<polygon fill="#009444" points="583,444 615,394 572,437 	"/>
	<polygon fill="#009444" points="507,407 521,349 496,400 	"/>
	<polygon fill="#009444" points="441,387 435,335 427,389 	"/>
	<polygon fill="#009444" points="362,408 336,359 348,410 	"/>
	<polygon fill="#009444" points="291,470 243,441 279,474 	"/>
	<polygon fill="#D4A94E" points="331,758 313,803 342,761 	"/>
	<polygon fill="#D4A94E" points="616,699 645,720 624,696 	"/>
	<polygon fill="#D4A94E" points="565,737 599,772 570,730 	"/>
	<polygon fill="#D4A94E" points="455,781 467,829 464,778 	"/>
	<polygon fill="#D4A94E" points="402,786 401,828 415,782 	"/>
	<g>
		
			<radialGradient id="SVGID_8_" cx="805.1094" cy="1436.4082" r="95.9836" gradientTransform="matrix(0.6325 0.5757 0.5956 -0.6543 -543.2305 984.7241)" gradientUnits="userSpaceOnUse">
			<stop  offset="8.370500e-04" style="stop-color:#AEC99D"/>
			<stop  offset="0.4059" style="stop-color:#31B457"/>
			<stop  offset="0.9702" style="stop-color:#008042"/>
		</radialGradient>
		<path fill="url(#SVGID_8_)" d="M841.829,523.905c-7.336-1.346-13.639,1.798-29.396,6.346
			c-15.761,4.543-19.362-12.473-19.731-24.831c-0.359-11.835,10.586-21.578,34.113-25.622c13.132-2.255,26.042,5.281,36.442,23.549
			c4.627,8.127,8.536,16.941,2.589,21.076C859.898,528.558,850.732,525.54,841.829,523.905z"/>
		<path fill="none" stroke="#006028" stroke-width="1.873" stroke-miterlimit="10" d="M803.134,499.893
			c0,0,24.36-12.173,36.968-4.138"/>
		<path fill="none" stroke="#006028" stroke-width="1.873" stroke-miterlimit="10" d="M804.892,514.373
			c0,0,20.891-10.182,33.895-3.496"/>
		<path fill="#D4A94E" d="M888.569,610.124c-22.604,23.092-38.094,46.111-38.094,46.111s14.971-22.877,30.218-52.293
			C880.693,603.942,888.062,601.319,888.569,610.124z"/>
		<path fill="#D4A94E" d="M894.583,590.696c-31.249,8.222-72.124,29.256-72.124,29.256s40.354-21.179,68.532-38.604
			C890.991,581.348,898.664,582.878,894.583,590.696z"/>
		<path fill="#B27F3E" d="M910.283,603.063c-20.584,24.907-41.514,65.839-41.514,65.839s20.423-40.742,33.146-71.336
			C901.915,597.566,909.039,594.334,910.283,603.063z"/>
		<path fill="#B27F3E" d="M947.362,611.419c-11.213,30.309-17.47,75.853-17.47,75.853s5.839-45.203,7.758-78.282
			C937.65,608.989,943.309,603.59,947.362,611.419z"/>
		<path fill="#B27F3E" d="M993.267,615.591c-0.457,32.313,8.843,77.336,8.843,77.336s-9.578-44.56-18.804-76.386
			C983.306,616.541,986.835,609.561,993.267,615.591z"/>
		<path fill="#B27F3E" d="M1032.938,603.123c10.738,30.479,35.023,69.509,35.023,69.509s-24.389-38.504-44.047-65.174
			C1023.915,607.458,1024.818,599.688,1032.938,603.123z"/>
		<path fill="#009444" d="M870.507,570.279c-30.525,10.605-69.664,34.728-69.664,34.728s38.608-24.223,65.363-43.77
			C866.206,561.237,873.973,562.172,870.507,570.279z"/>
		<path fill="#009444" d="M883.071,557.373c-31.498,7.217-73.035,26.918-73.035,26.918s41.022-19.861,69.749-36.376
			C879.785,547.915,887.403,549.693,883.071,557.373z"/>
		<polyline fill="#107139" points="1089.751,467.85 1102.31,464.082 1091.902,474.31 		"/>
		<polyline fill="#107139" points="1095.67,482.923 1108.23,479.154 1097.823,489.381 		"/>
		<path fill="#107139" d="M1076.153,589.141c24.186,21.434,52.256,36.098,52.256,36.098s-27.899-14.15-58.036-27.923
			C1070.373,597.315,1067.388,590.082,1076.153,589.141z"/>
		<path fill="#009444" d="M934.706,416.087c-4.268-32.032-10.568-53.74-10.568-53.74s6.509,21.208,20.291,51.339
			C944.429,413.686,941.952,421.108,934.706,416.087z"/>
		<path fill="#009444" d="M969.032,417.647c7.742-31.374,9.473-57.991,9.473-57.991s-1.354,26.228,0.453,59.313
			C978.958,418.97,973.939,424.973,969.032,417.647z"/>
		<path fill="#009444" d="M993.989,420.667c13.355-29.425,19.93-55.275,19.93-55.275s-6.135,25.539-10.413,58.395
			C1003.506,423.787,997.472,428.768,993.989,420.667z"/>
		<path fill="#009444" d="M1017.555,432.282c18.088-26.777,28.892-51.166,28.892-51.166s-10.318,24.155-20.027,55.832
			C1026.419,436.948,1019.637,440.852,1017.555,432.282z"/>
		<path fill="#107139" d="M1034.892,447.909c21.92-23.744,36.279-46.226,36.279-46.226s-13.844,22.322-28.222,52.172
			C1042.949,453.855,1035.656,456.692,1034.892,447.909z"/>
		<path fill="#107139" d="M1054.632,462.287c26.844-17.986,46.043-36.504,46.043-36.504s-18.66,18.484-39.594,44.166
			C1061.081,469.949,1053.33,471.008,1054.632,462.287z"/>
		<path fill="#009444" d="M1073.656,483.796c30.795-9.785,54.398-22.215,54.398-22.215s-23.075,12.546-50.343,31.372
			C1077.712,492.952,1069.974,491.808,1073.656,483.796z"/>
		<path fill="#107139" d="M1069.652,497.628c31.901-5.149,57.075-13.974,57.075-13.974s-24.669,9.016-54.408,23.625
			C1072.319,507.279,1064.834,505.013,1069.652,497.628z"/>
		<path fill="#107139" d="M1066.848,507.334c32.291,1.224,58.706-2.478,58.706-2.478s-25.96,3.991-57.99,12.465
			C1067.563,517.321,1060.67,513.625,1066.848,507.334z"/>
		<path fill="#009444" d="M890.89,440.236c-20.665-24.843-36.729-39.133-36.729-39.133s15.973,13.758,43.681,31.927
			C897.842,433.03,899.696,440.631,890.89,440.236z"/>
		<path fill="#009444" d="M874.8,472.919c-25.331-20.065-43.988-30.747-43.988-30.747s18.459,10.182,49.312,22.264
			C880.124,464.436,883.5,471.496,874.8,472.919z"/>
		<path fill="#107139" d="M1095.312,521.41c0,0,19.108,4.843,29.426-15.88c6.994-14.051,21.532-51.675,55.982-50.061
			c-23.146,30.682-25.301,57.058-19.379,63.518c-2.001,2.858-3.698,4.958-4.851,6.299c-1.018,1.183-1.608,1.774-1.608,1.774
			c-10.587,18.84-15.789,48.446-15.072,59.211c0,0,0,18.841,7.535,30.682c-18.301-5.92-30.502-18.839-34.809-40.64
			c-4.306-21.801-15.879-21.801-15.879-21.801S1097.38,542.961,1095.312,521.41z"/>
		<polyline fill="#009444" points="843.218,559.164 824.378,564.009 841.064,553.781 		"/>
		<polyline fill="#009444" points="843.925,541.243 825.085,546.088 841.771,535.86 		"/>
		<path fill="#009444" d="M861.651,476.269c-11.102-1.757-27.938-7.085-27.938-7.085s18.586,8.895,24.608,14.596"/>
		<polyline fill="#009444" points="884.664,445.243 875.694,432.862 888.972,439.86 		"/>
		<polyline fill="#009444" points="872.822,461.391 863.851,449.01 877.129,456.008 		"/>
		<polyline fill="#009444" points="907.272,419.943 900.275,403.795 913.733,413.484 		"/>
		<polyline fill="#009444" points="951.95,400.027 944.593,388.723 943.517,402.18 		"/>
		<polyline fill="#009444" points="970.453,399.543 966.784,385.868 962.311,399.354 		"/>
		<polyline fill="#009444" points="1000.934,404.333 999.497,391.414 991.782,402.718 		"/>
		<polyline fill="#009444" points="1015.467,409.178 1014.031,396.259 1006.316,407.563 		"/>
		<polyline fill="#107139" points="1083.07,459.616 1089.296,448.208 1076.495,453.05 		"/>
		<polyline fill="#107139" points="1074.232,446.108 1079.194,434.094 1066.988,440.286 		"/>
		<polyline fill="#107139" points="1061.798,435.272 1066.009,422.976 1054.208,429.908 		"/>
		<polyline fill="#107139" points="1052.941,428.976 1054.886,416.127 1044.516,425.057 		"/>
		<polyline fill="#009444" points="1039.483,420.364 1041.429,407.515 1031.059,416.444 		"/>
		<polyline fill="#009444" points="1028.719,414.981 1030.663,402.131 1020.293,411.062 		"/>
		<polyline fill="#009444" points="857.989,492.177 843.847,485.312 858.525,485.921 		"/>
		<polyline fill="#009444" points="863.797,475.13 851.773,464.999 865.853,469.201 		"/>
		<path fill="#009444" d="M1115.766,529.214l-3.948-13.761c-0.061-0.646-0.124-1.289-0.188-1.938
			C1114.559,523.053,1115.766,529.214,1115.766,529.214z"/>
		<path fill="#009444" d="M1110.632,510.354c0.193,0.214,0.447,0.471,0.759,0.744c0.083,0.807,0.159,1.611,0.239,2.418
			C1111.317,512.502,1110.982,511.443,1110.632,510.354z"/>
		<path fill="#009444" d="M1111.817,515.453l-1.613-5.617c0,0,0.149,0.211,0.428,0.518c0.351,1.09,0.686,2.148,0.998,3.162
			C1111.693,514.164,1111.757,514.807,1111.817,515.453z"/>
		
			<radialGradient id="SVGID_9_" cx="958.29" cy="430.7085" r="203.3209" gradientTransform="matrix(-1 0 0 1 1972.7812 0)" gradientUnits="userSpaceOnUse">
			<stop  offset="8.370500e-04" style="stop-color:#AEC99D"/>
			<stop  offset="0.4059" style="stop-color:#31B457"/>
			<stop  offset="0.7261" style="stop-color:#008544"/>
			<stop  offset="1" style="stop-color:#006A30"/>
		</radialGradient>
		<path fill="url(#SVGID_9_)" d="M919.396,408.279c25.838-15.071,73.925-18.66,127.752,12.203
			c37.08,21.257,55.851,64.816,63.944,89.872c-0.278-0.307-0.428-0.518-0.428-0.518l1.613,5.617
			c2.069,21.554,3.481,43.594,0.469,64.359h-3.519c-48.805,73.921-80.741,77.512-157.534,70.334
			c-76.796-7.174-114.115-83.245-114.115-110.524C837.578,501.581,893.56,423.352,919.396,408.279z"/>
		<path fill="#107139" d="M1110.632,510.354c0,0,5.941,56.271-30.662,80.763c-31.989,21.405-60.556,12.649-84.24,7.805
			c-23.684-4.845-73.475-12.649-87.47-13.995c38.217,7.268,57.864,12.919,76.974,21.801c19.108,8.882,58.941,37.948,79.665,24.762
			c24.762-22.878,40.909-42.525,48.714-64.594C1121.418,544.824,1110.632,510.354,1110.632,510.354z"/>
		<path fill="#107139" d="M1108.997,562.499c0,0,1.5-11.5-18.5-12s-33.5-10.5-21-16s27.5-0.5,38,7.5
			S1108.997,562.499,1108.997,562.499z"/>
		
			<radialGradient id="SVGID_10_" cx="957.2305" cy="495.7734" r="58.1762" gradientTransform="matrix(-1 0 0 0.8718 1972.7812 59.4624)" gradientUnits="userSpaceOnUse">
			<stop  offset="0" style="stop-color:#009444"/>
			<stop  offset="1" style="stop-color:#006838"/>
		</radialGradient>
		<ellipse fill="url(#SVGID_10_)" cx="1003.392" cy="505.925" rx="34.145" ry="39.69"/>
		
			<radialGradient id="SVGID_11_" cx="954.5391" cy="492.0674" r="77.7605" gradientTransform="matrix(-1 0 0 0.8718 1972.7812 59.4624)" gradientUnits="userSpaceOnUse">
			<stop  offset="0" style="stop-color:#FFFFFF"/>
			<stop  offset="1" style="stop-color:#E6E7E8"/>
		</radialGradient>
		<ellipse fill="url(#SVGID_11_)" cx="1006.083" cy="502.695" rx="34.146" ry="39.689"/>
		
			<radialGradient id="SVGID_12_" cx="1074.6709" cy="490.1523" r="57.8577" gradientTransform="matrix(-1 0 0 0.8718 1972.7812 59.4624)" gradientUnits="userSpaceOnUse">
			<stop  offset="0" style="stop-color:#009444"/>
			<stop  offset="1" style="stop-color:#006838"/>
		</radialGradient>
		<path fill="url(#SVGID_12_)" d="M857.06,500.008c0,19.108,11.369,34.602,25.389,34.602c14.023,0,25.391-15.493,25.391-34.602
			c0-19.111-11.367-34.602-25.391-34.602C868.429,465.406,857.06,480.896,857.06,500.008z"/>
		
			<radialGradient id="SVGID_13_" cx="1072.5186" cy="486.918" r="57.8572" gradientTransform="matrix(-1 0 0 0.8718 1972.7812 59.4624)" gradientUnits="userSpaceOnUse">
			<stop  offset="0" style="stop-color:#FFFFFF"/>
			<stop  offset="1" style="stop-color:#E6E7E8"/>
		</radialGradient>
		<ellipse fill="url(#SVGID_13_)" cx="884.602" cy="497.188" rx="25.389" ry="34.602"/>
		<path fill="#D8E040" d="M1064.898,631.488c-19.916,10.227-69.385-31.545-140.761-44.141c-54.904-9.688-69.616,0-69.616,0
			s14.174,36.604,62.081,55.444c47.906,18.839,102.812,10.226,118.422,5.382C1050.634,643.33,1064.898,631.488,1064.898,631.488z"/>
		<path fill="#009444" d="M1047.943,590.577c16.147,27.991,47.189,61.903,47.189,61.903s-31.042-33.373-55.264-55.98
			C1039.869,596.5,1039.331,588.693,1047.943,590.577z"/>
		<path fill="#009444" d="M1068.323,569.21c24.124,21.503,64.245,43.95,64.245,43.95s-39.953-21.935-70.051-35.792
			C1062.518,577.368,1059.556,570.127,1068.323,569.21z"/>
		<path fill="#107139" d="M1076.718,601.192c19.361,25.875,43.893,45.905,43.893,45.905s-24.469-19.496-51.205-39.063
			C1069.405,608.034,1067.941,600.348,1076.718,601.192z"/>
		<path fill="#009444" d="M1005.113,430.352c17.794-26.975,34.21-69.918,34.21-69.918s-15.935,42.701-25.298,74.485
			C1014.025,434.918,1007.288,438.897,1005.113,430.352z"/>
		<path fill="#009444" d="M978.686,408.261c10.357-30.61,15.968-70.136,15.968-70.136s-5.204,39.168-6.188,72.29
			C988.465,410.415,982.958,415.971,978.686,408.261z"/>
		<path fill="#009444" d="M921.256,416.125c-10.49-30.564-30.188-65.29-30.188-65.29s19.8,34.196,39.248,61.023
			C930.316,411.858,929.349,419.624,921.256,416.125z"/>
		<path fill="#009444" d="M1033.377,427.01c21.376-24.235,41.817-58.529,41.817-58.529s-19.93,34.122-33.626,64.293
			C1041.568,432.774,1034.343,435.774,1033.377,427.01z"/>
		<path fill="#009444" d="M1043.637,453.119c24.887-20.614,48.983-48.786,48.983-48.786s-23.566,28.083-41.794,55.755
			C1050.826,460.088,1043.222,461.925,1043.637,453.119z"/>
		<path fill="#009444" d="M1082.334,499.26c32.091-3.814,67.616-14.407,67.616-14.407s-35.034,10.803-65.358,24.159
			C1084.592,509.012,1077.207,506.43,1082.334,499.26z"/>
		<path fill="#009444" d="M1071.172,469.551c28.622-15.002,58.038-37.56,58.038-37.56s-28.878,22.581-52.453,45.868
			C1076.757,477.859,1068.939,478.079,1071.172,469.551z"/>
		<path fill="#009444" d="M952.215,425.128c4.773-31.962,1.574-77.824,1.574-77.824s3.533,45.44,8.43,78.213
			C962.219,425.518,957.785,431.962,952.215,425.128z"/>
		<path fill="#009444" d="M904.103,436.739c-11.825-30.072-29.486-56.09-29.486-56.09s17.74,25.487,38.348,51.435
			C912.964,432.084,912.34,439.881,904.103,436.739z"/>
		<path fill="#009444" d="M877.785,456.292c-21.681-23.964-41.387-38.502-41.387-38.502s19.595,14.012,48.036,31.016
			C884.435,448.806,886.599,456.323,877.785,456.292z"/>
		<path d="M987.822,511.283c0,13.524,7.59,24.491,16.956,24.491c9.362,0,16.955-10.967,16.955-24.491
			c0-13.529-7.593-24.492-16.955-24.492C995.412,486.791,987.822,497.754,987.822,511.283z"/>
		<ellipse fill="#FFFFFF" cx="1001.999" cy="509.733" rx="4.223" ry="6.1"/>
		<ellipse cx="879.794" cy="501.937" rx="13.996" ry="20.216"/>
		<path fill="none" stroke="#000000" stroke-width="1.7336" stroke-miterlimit="10" d="M1110.383,577.659"/>
		
			<radialGradient id="SVGID_14_" cx="512.6177" cy="1209.668" r="95.9816" gradientTransform="matrix(-0.9242 0.3819 -0.3379 -0.8177 2005.0088 1328.2261)" gradientUnits="userSpaceOnUse">
			<stop  offset="8.370500e-04" style="stop-color:#AEC99D"/>
			<stop  offset="0.4059" style="stop-color:#31B457"/>
			<stop  offset="0.9702" style="stop-color:#008042"/>
		</radialGradient>
		<path fill="url(#SVGID_14_)" d="M1094.151,544.196c8.347,0.817,13.604,5.751,28.223,14.826c14.625,9.072,26-6.62,31.89-18.672
			c5.646-11.542-1.579-24.324-24.627-35.173c-12.866-6.053-29.855-2.406-48.968,12.532c-8.504,6.646-16.555,14.178-12.113,19.983
			S1084.021,543.206,1094.151,544.196z"/>
		<ellipse fill="#FFFFFF" cx="882.449" cy="499.343" rx="3.431" ry="4.956"/>
		<g>
			<path fill="#A13422" d="M918.098,554.407c0,0,0.856-9.923,2.573-13.468c10.174-9.121,21.549,1.188,24.122,5.441
				c2.573,4.252,3.231,8.026,1.039,12.987s-11.232,19.431-18.666,16.595C919.732,573.13,918.098,554.407,918.098,554.407z"/>
			<path fill="#F9ED32" d="M948.626,554.351c-0.143,2.128-5.673-16.859-19.468-17.626c-8.807-0.49-6.772,8.699-10.204,7.76
				c-3.431-0.948-4.447-13.05,7.752-15.885C938.906,525.766,949.494,541.415,948.626,554.351z"/>
			<path fill="#F9ED32" d="M920.671,540.939c0,0-5.452,28.472,7.415,32.725c9.108,3.008,17.015-19.16,17.475-24.064
				c7.529-2.127,0.176,21.108-9.831,28.197c-10.007,7.087-17.326-1.701-19.157-11.341
				C914.285,554.407,916.048,544.129,920.671,540.939z"/>
			<path fill="#F1B937" d="M945.561,549.6c-1.531-2.146-1.618-2.186-4.906-6.438c-3.289-4.253-8.563-5.365-11.649-5.365
				c-3.985,0-7.523,4.914-8.43,6.688c-0.906,1.772,1.954,0,0.096-3.545c-1.859-3.543,3.467-8.269,10.174-6.821
				c7.817,1.687,9.656,3.524,13.182,10.116C947.011,549.814,945.561,549.6,945.561,549.6z"/>
			<path fill="#F1B937" d="M921.957,540.939c0,0-4.343,16.805-0.769,24.601c-4.003-3.544-2.146-15.021-1.227-20.079
				C920.666,541.587,921.957,540.939,921.957,540.939z"/>
			<path fill="#F1B937" d="M948.013,557.109c0,0-3.61,4.384-7.185,10.766c-3.574,6.379-11.008,13.82-16.012,11.338
				C934.064,583.628,943.414,573.357,948.013,557.109z"/>
		</g>
		
			<radialGradient id="SVGID_15_" cx="1091.3467" cy="594.8828" r="127.8651" gradientTransform="matrix(-1 0 0 1 1972.7812 0)" gradientUnits="userSpaceOnUse">
			<stop  offset="0" style="stop-color:#DCCE80"/>
			<stop  offset="1" style="stop-color:#D7B928"/>
		</radialGradient>
		<path fill="url(#SVGID_15_)" d="M864.389,588.425c13.637-4.307,32.655-3.949,49.959-2.67c3.11,0.463,6.371,0.987,9.79,1.593
			c71.376,12.596,120.845,54.367,140.761,44.141c0,0-14.265,11.842-29.874,16.686c-11.104,3.444-42.099,8.789-76.307,4.811
			C918.576,643.33,878.744,627.182,864.389,588.425z"/>
		<path fill="none" stroke="#006028" stroke-width="2.0253" stroke-miterlimit="10" d="M1145.706,531.865
			c0,0-20.312-19.091-37.202-14.865"/>
		<path fill="none" stroke="#006028" stroke-width="2.0253" stroke-miterlimit="10" d="M1137.405,545.601
			c0,0-17.533-16.118-34.242-13.336"/>
		<path fill="#009444" d="M1021.429,608.11c7.856,31.342,28.415,72.466,28.415,72.466s-20.705-40.606-37.804-68.984
			C1012.04,611.592,1013.662,603.938,1021.429,608.11z"/>
		<path fill="#D4A94E" d="M974.036,616.696c-2.972,32.181,2.801,77.79,2.801,77.79s-6.083-45.173-12.812-77.612
			C964.025,616.874,968.09,610.188,974.036,616.696z"/>
		<path fill="#D4A94E" d="M1014.39,632.904c4.688,31.973,14.714,56.717,14.714,56.717s-10.226-24.243-24.404-54.189
			C1004.699,635.432,1007.075,627.979,1014.39,632.904z"/>
		<path fill="#D4A94E" d="M963.434,640.087c-7.537,29.619-10.766,58.686-10.766,58.686s1.613-28.528,0.986-60.839
			C953.654,637.934,959.163,632.374,963.434,640.087z"/>
		<path fill="#D4A94E" d="M909.414,628.552c-18.565,26.452-28.282,51.318-28.282,51.318s9.229-24.641,19.508-56.137
			C900.64,623.733,907.485,619.948,909.414,628.552z"/>
		<path fill="#D4A94E" d="M924.084,616.659C910.639,646.042,901,690.992,901,690.992s9.2-44.639,13.58-77.482
			C914.58,613.51,920.627,608.547,924.084,616.659z"/>
		<ellipse fill="#107139" cx="929.341" cy="425.504" rx="8.971" ry="5.024"/>
		<ellipse fill="#107139" cx="942.978" cy="403.257" rx="3.946" ry="2.152"/>
		<path fill="#107139" d="M978.505,423.711c0,1.783,2.087,3.23,4.666,3.23c2.575,0,4.663-1.447,4.663-3.23
			c0-1.783-2.088-3.229-4.663-3.229C980.592,420.482,978.505,421.928,978.505,423.711z"/>
		<circle fill="#107139" cx="1032.333" cy="444.166" r="2.87"/>
		<circle fill="#107139" cx="1086.161" cy="518.088" r="1.436"/>
		<circle fill="#107139" cx="892.38" cy="443.449" r="1.437"/>
		<ellipse fill="#107139" cx="1067.143" cy="481.128" rx="3.23" ry="2.514"/>
		<path fill="#D4A94E" d="M882.853,606.998c-26.237,18.865-57.104,44.393-57.104,44.393s30.331-25.473,50.405-51.83
			C876.153,599.561,883.863,598.24,882.853,606.998z"/>
		<path fill="#107139" d="M904.698,439.771c0,0-29.89,24.372-42.765,34.028C894.122,459.543,895.962,452.186,904.698,439.771z"/>
		<path fill="#107139" d="M990.941,439.632c0,0,16.094,20.693,54.261,41.386C1023.13,475.959,1001.058,465.843,990.941,439.632z"/>
	</g>
	<radialGradient id="SVGID_16_" cx="385.7212" cy="439.5107" r="311.914" gradientUnits="userSpaceOnUse">
		<stop  offset="8.370500e-04" style="stop-color:#AEC99D"/>
		<stop  offset="0.4059" style="stop-color:#31B457"/>
		<stop  offset="0.7261" style="stop-color:#008544"/>
		<stop  offset="1" style="stop-color:#006A30"/>
	</radialGradient>
	<path fill="url(#SVGID_16_)" d="M301,733c76,72,192,62,254,18s120-88,84-212S517.014,385.814,421,387c-81,1-152,72-184,152
		C237,539,225,661,301,733z"/>
	<path fill="#107139" d="M565,586c-10.412,2.144,2,20,24,27s31,66,31,66s14-11,19-20s9-33,9-33S599,579,565,586z"/>
	<path fill="#107139" d="M295,615c0,0-68-160-208-144c124,43,118,156,58,208c124-26,128,81,88,184C315,769,335,737,295,615z"/>
	<radialGradient id="SVGID_17_" cx="169.0342" cy="497.624" r="154.5552" gradientUnits="userSpaceOnUse">
		<stop  offset="8.370500e-04" style="stop-color:#AEC99D"/>
		<stop  offset="0.4059" style="stop-color:#31B457"/>
		<stop  offset="0.7261" style="stop-color:#008544"/>
		<stop  offset="1" style="stop-color:#006A30"/>
	</radialGradient>
	<path fill="url(#SVGID_17_)" d="M92.124,474.59c0,0,147.876-3.59,212.989,190.49C287.114,542.087,186.619,456.591,92.124,474.59z"
		/>
	<radialGradient id="SVGID_18_" cx="686.0928" cy="561.5303" r="155.6217" gradientUnits="userSpaceOnUse">
		<stop  offset="8.370500e-04" style="stop-color:#AEC99D"/>
		<stop  offset="0.4059" style="stop-color:#31B457"/>
		<stop  offset="0.9702" style="stop-color:#008042"/>
	</radialGradient>
	<path fill="url(#SVGID_18_)" d="M578.101,557.087c56.998-32.998,156.45-29.269,185.991,17.999
		c14.999,23.999-49.813,68.743-73.497,67.497c-28.499-1.499-45-37.5-103.495-37.499
		C565.888,605.084,536.847,580.971,578.101,557.087z"/>
	<path fill="none" stroke="#006028" stroke-width="2.3412" stroke-miterlimit="10" d="M603.6,566.086
		c0,0,65.997-31.497,136.493,13.5"/>
	<path fill="none" stroke="#006028" stroke-width="2.3412" stroke-miterlimit="10" d="M603.6,588.585
		c0,0,40.498-13.499,107.995,23.999"/>
	<ellipse fill="#107139" cx="298" cy="504.5" rx="6" ry="3.5"/>
	<ellipse fill="#107139" cx="344.5" cy="493.5" rx="9.5" ry="5.25"/>
	<ellipse fill="#107139" cx="392" cy="445" rx="8" ry="5"/>
	<ellipse fill="#107139" cx="498" cy="456" rx="10" ry="7"/>
	<ellipse fill="#107139" cx="504.5" cy="415" rx="4.5" ry="1"/>
	<ellipse fill="#107139" cx="595" cy="476.5" rx="6.125" ry="3.438"/>
	<ellipse fill="#107139" cx="320.5" cy="445" rx="4.5" ry="4"/>
	<ellipse fill="#107139" cx="435.5" cy="400.5" rx="8.5" ry="3.5"/>
	<path fill="#D8E040" d="M644,650c0,0-47,82-148,108c-115.206,29.657-166,0-166,0s79,63,195,15S644,650,644,650z"/>
	<radialGradient id="SVGID_19_" cx="479" cy="731.418" r="112.5092" gradientUnits="userSpaceOnUse">
		<stop  offset="0" style="stop-color:#DCCE80"/>
		<stop  offset="1" style="stop-color:#D7B928"/>
	</radialGradient>
	<path fill="url(#SVGID_19_)" d="M627,673c0,0-38.993,61.026-140,87c-105,27-156-2-156-2s77.521,61.963,185,13
		C606,730,627,673,627,673z"/>
	<path fill="#009444" d="M460,391c0,0,8,6,26,5c-4-16,7-174,7-174S475,348,460,391z"/>
	<path fill="#009444" d="M375,399c0,0,17-1,28-10c-16-24-55-141-55-141S372,346,375,399z"/>
	<path fill="#009444" d="M328,419l-16,13c0,0-27-58-55-96C292,384,328,419,328,419z"/>
	<path fill="#009444" d="M540,411c0,0,8,10,21,14c2-11,61-139,61-139S564,392,540,411z"/>
	<path fill="#009444" d="M597,458c0,0,1,8,10,18c6-12,106-88,106-88S621,450,597,458z"/>
	<path fill="#009444" d="M411,430c0,0-6-94-15-174c12,67,36,173,36,173L411,430z"/>
	<path fill="#009444" d="M355,484l26-8c0,0-56-105-81-157C322,376,355,484,355,484z"/>
	<polygon fill="#009444" points="336,519 324,533 240,463 	"/>
	<path fill="#009444" d="M300,463l15-15c0,0-35-11-98-55C274,435,300,463,300,463z"/>
	<path fill="#009444" d="M270,495c0,0-32-3-86-36c47,31,73,55,73,55L270,495z"/>
	<path fill="#009444" d="M496,437l22,6c0,0,14-79,29-142C529,354,496,437,496,437z"/>
	<path fill="#009444" d="M457,522c0,0,21-21,31-47c-2,29-11,54-11,54S463,539,457,522z"/>
	<path fill="#009444" d="M447,578c-20-4-15,20-4,20S464.125,581.425,447,578z"/>
	<path fill="#009444" d="M414,648c0,0,12-17,17,6c-11,28-28,66-28,66S411,680,414,648z"/>
	<polygon fill="#009444" points="395,727 366,851 414,734 	"/>
	<path fill="#009444" d="M379,554l-31,24l41-10C389,568,394,550,379,554z"/>
	<path fill="#009444" d="M348,624l-41,16l30-31C337,609,346,616,348,624z"/>
	<path fill="#009444" d="M545,552l37-15l-42-2C540,535,531,544,545,552z"/>
	<path fill="#009444" d="M482,651c0,0,10-22,22-9c9,41,11,74,11,74L482,651z"/>
	<polygon fill="#009444" points="505,722 541,817 525,716 	"/>
	<polygon fill="#D4A94E" points="360,772 343,844 372,777 	"/>
	<polygon fill="#D4A94E" points="427,778 428,873 438,778 	"/>
	<polygon fill="#D4A94E" points="487,775 512,867 496,771 	"/>
	<polygon fill="#D4A94E" points="544,754 588,818 552,746 	"/>
	<path fill="#D4A94E" d="M591,715c0,0,6-6,9-6s52,58,49,58S591,715,591,715z"/>
	<polygon fill="#D4A94E" points="633,682 677,709 640,672 	"/>
	<path fill="#009444" d="M369,640l-41,74l58-66C386,648,391,630,369,640z"/>
	<polygon fill="#009444" points="348,715 286,826 363,723 	"/>
	<polygon fill="#009444" points="628,527 711,495 623,511 	"/>
	<polygon fill="#009444" points="539,487 614,406 547,495 	"/>
	<polygon fill="#009444" points="634,639 698,682 634,651 	"/>
	<circle fill="#FFFFFF" cx="581.85" cy="296.849" r="12.75"/>
	<circle fill="#FFFFFF" cx="603.599" cy="248.101" r="9"/>
	<circle fill="#FFFFFF" cx="578.1" cy="257.101" r="3.75"/>
	<circle fill="#FFFFFF" cx="576.6" cy="206.103" r="3"/>
	<circle fill="#FFFFFF" cx="575.85" cy="179.854" r="8.25"/>
	<circle fill="#FFFFFF" cx="605.849" cy="215.853" r="5.25"/>
	<circle fill="#FFFFFF" cx="549.601" cy="134.106" r="3"/>
	<circle fill="#FFFFFF" cx="570.6" cy="111.607" r="3"/>
	<circle fill="#FFFFFF" cx="605.849" cy="83.859" r="9.75"/>
	<circle fill="#FFFFFF" cx="572.101" cy="50.111" r="3"/>
	<circle fill="#FFFFFF" cx="557.851" cy="332.847" r="2.25"/>
	<circle fill="#FFFFFF" cx="630.598" cy="233.102" r="3.75"/>
	<ellipse fill="#FFFFFF" cx="923.333" cy="324.849" rx="9.917" ry="12.75"/>
	<ellipse fill="#FFFFFF" cx="906.417" cy="276.101" rx="7" ry="9"/>
	<ellipse fill="#FFFFFF" cx="926.251" cy="285.101" rx="2.917" ry="3.75"/>
	<ellipse fill="#FFFFFF" cx="927.417" cy="234.103" rx="2.333" ry="3"/>
	<ellipse fill="#FFFFFF" cx="904.666" cy="243.853" rx="4.083" ry="5.25"/>
	<ellipse fill="#FFFFFF" cx="942.001" cy="360.847" rx="1.75" ry="2.25"/>
	<ellipse fill="#FFFFFF" cx="885.414" cy="261.102" rx="2.917" ry="3.75"/>
</g>
<g id="Layer_4">
	<rect x="-200" y="-25" fill="#5D5E5E" width="200" height="1000"/>
	<rect x="1440" y="-25" fill="#5D5E5E" width="200" height="1000"/>
	<rect x="-163" y="-200" fill="#5D5E5E" width="1674" height="200"/>
	<rect x="-163" y="960" fill="#5D5E5E" width="1674" height="200"/>
</g>
</svg>
