<?xml version="1.0" encoding="utf-8"?>
<!-- Generator: Adobe Illustrator 16.0.0, SVG Export Plug-In . SVG Version: 6.00 Build 0)  -->
<!DOCTYPE svg PUBLIC "-//W3C//DTD SVG 1.1//EN" "http://www.w3.org/Graphics/SVG/1.1/DTD/svg11.dtd">
<svg version="1.1" id="Layer_1" xmlns="http://www.w3.org/2000/svg" xmlns:xlink="http://www.w3.org/1999/xlink" x="0px" y="0px"
	 width="1440px" height="960px" viewBox="0 0 1440 960" enable-background="new 0 0 1440 960" xml:space="preserve">
<linearGradient id="SVGID_1_" gradientUnits="userSpaceOnUse" x1="721.0186" y1="390.1709" x2="721.0186" y2="138.1461" gradientTransform="matrix(1 0 0 -1 0 961)">
	<stop  offset="0" style="stop-color:#5BC0AC"/>
	<stop  offset="1" style="stop-color:#56A384"/>
</linearGradient>
<rect x="-0.692" y="-2.586" fill="url(#SVGID_1_)" width="1443.422" height="966.393"/>
<g id="SEA">
	<path fill="#AEDBC3" d="M-17.219,586.352c92.997-30.999,525.163,38.292,736.684,72.938
		c211.521,34.645,723.008-102.115,747.622-136.76c24.613-34.646-7.295-34.646-7.295-34.646s-311.813,167.758-643.685,133.114
		c-331.87-34.646-568.925-209.7-827.856-175.053C-270.681,480.589-17.219,586.352-17.219,586.352z"/>
	<path fill="#AEDBC3" d="M-2.63,741.347c123.996-47.412,368.34-89.352,532.453-12.765c164.111,76.585,514.219,92.996,640.038,71.115
		c125.818-21.883,266.228-71.115,266.228-71.115V573.586c0,0-433.987,173.231-610.862,151.35
		c-176.875-21.881-702.039-100.297-796.858-47.412C-66.452,730.406-2.63,741.347-2.63,741.347z"/>
</g>
<g id="coral">
	<path fill="#338491" d="M1442.001,516.333c0,0-53.854-0.921-86.677,22.781c-32.822,23.706-12.769,25.53,1.822,25.53
		c14.589,0,10.939,25.527,10.939,25.527s1.822,20.058,5.471,30.997c3.648,10.942,9.118,16.412,7.294,25.531
		c-1.823,9.116-49.229-1.824-14.587,54.704c34.646,56.524,32.823,45.585,27.354,69.291c-5.471,23.706-12.767,51.058-12.767,51.058
		l-5.47,18.232l-1.824,10.94L1351,809l-21.206-10.951l7.294,29.176l-10.939,18.233c0,0-14.588-1.822-20.058,1.824l-47.412,12.765
		c0,0,21.884-32.822,3.648-27.352c-18.236,5.47-1.824-1.821-18.235,5.471c-16.412,7.292-10.941-7.299-16.412,7.292
		c-5.47,14.589,15.812,13.366,3.646,25.529c-14.587,14.587,10.94,9.12-3.646,16.412c-14.586,7.292-80.229,16.41-80.229,16.41
		l-34.647,1.821c0,0-14.802-57.632-71.802-25.632c0,0,0-51-32-62c-16.359-5.623-21.295-47.646-45-44
		c-16.594,2.553-39.662,53.827-55,55c-16.611,1.271-20.323,12.095-34,11c-21.5-1.721-47.422,47.146-70,49
		c-9.968,0.818-21.344,17.844-35.016,18.768c-21.021,1.42-30.792-10.352-66.984-9.768c-47-40-97.122-16.07-111.711-17.896
		C576.702,878.279,530,871,530,871s-65.414-10.176-80-12c-14.587-1.825-96.881-13.646-106-10c-9.12,3.646-73.64-19.95-79.111-18.129
		C259.418,832.693,242.47,790,237,790s-36.119-3.763-58,9c-21.882,12.763-16.225-6.422-19.874-11.893
		c-3.646-5.472,10.943-18.235-1.822-16.411c-12.765,1.823-27.352-34.646-47.412-34.646c-20.058,0-16.412-40.115-25.528-38.293
		c-9.116,1.824-32.822-20.055-23.705-32.823C69.778,652.171,124.882,550.646,72,547c-52.881-3.646-83,31-83,31
		s13.309,68.701,7.839,75.993c-5.471,7.295,0,311.812,0,311.812h1438.717L1442.001,516.333z"/>
	<path fill="#1D676D" d="M-6.807,612.054C-27,558,62,568,62,568s-14.104,78.701-26.869,89.642
		c-12.764,10.94-7.293,12.764-12.764,21.883c-5.471,9.116-27.351,34.645,3.647,41.938c30.998,7.296,29.176,32.82,21.882,52.88
		c-7.295,20.062,3.646,71.116,3.646,71.116c9.118,18.234,9.252,25.788,18.235,27.352c41.939,7.294,49.233,23.706,49.233,23.706
		s-12.765-58.354,3.646-62c16.412-3.645,16.412-9.117,32.823-5.47c16.411,3.649,7.295-1.821,36.468-1.821
		c29.177,0,31.001,25.528,31.001,25.528s-23.703,20.06-10.941,29.177c12.763,9.115,1.824,5.471,16.412,16.41
		c14.586,10.941,41.938,1.822,41.938,1.822S277.178,883.116,279,874c1.821-9.116-35.765-24.176-23-26
		c12.766-1.825,57.708,15.176,65,17c7.292,1.825,20,3,20,3s34.354,15.291,38,8c3.646-7.293,71.882-10.485,66.412-3.19
		c-5.471,7.294,54.704,25.53,54.704,25.53l40.117,25.527c0,0,27.353,18.236,23.702,23.706c-3.646,5.471-20.057,23.703-30.998,20.058
		c-10.939-3.646-536.1-1.824-536.1-1.824L-6.807,612.054z"/>
	<path fill="#1D676D" d="M77.072,759.755c-9.062,1.007-41.94,30.999-14.588,21.882c27.352-9.115,20.059,9.117,20.059,9.117
		s-20.059,16.41,1.823,16.41c21.882,0,29.176-3.648,38.292-5.47c9.117-1.821,16.412-18.232,3.646-18.232
		c-12.762,0-30.998,5.47-30.998,5.47S93.481,757.931,77.072,759.755z"/>
	<polygon fill="#1D676D" points="44.249,710.521 44.249,723.287 60.661,721.462 	"/>
	<polygon fill="#1D676D" points="77.072,836.34 66.131,850.928 82.542,850.928 	"/>
	<path fill="#1D676D" d="M1083.625,927.514c-34.351,15.269-87.523,40.12-61.996,36.472c25.528-3.648,47.407-5.471,61.996-5.471
		c14.59,0,21.376,15.132,52.375,11.485c30.997-3.646,31.503,1.276,51.562-7.84c20.061-9.116,30.998-30.998,10.94-30.998
		s-63.819,3.646-63.819,3.646l-29.177,12.767C1105.508,947.573,1100.037,920.219,1083.625,927.514z"/>
	<path fill="#1D676D" d="M1218.564,971.276c23.702-16.41,29.174-29.173,61.994-36.47c32.823-7.294,71.119-0.002,85.705-7.294
		c14.587-7.293-58.353-20.06-36.471-32.821c21.882-12.763,36.469-10.941,49.233-16.412c12.766-5.471,34.646-12.763,34.646-12.763
		s-16.411-12.765-5.471-23.706c10.939-10.939,3.646-27.35,9.116-36.469c5.471-9.118,9.119-5.47,7.295-18.234
		c-1.824-12.766,1.822-7.292-1.824-30.998c-3.646-23.707-12.766-43.765-21.881-51.06c-9.117-7.294-25.531-29.177,5.47-43.763
		c31-14.587,16.411-49.234,16.411-60.175c0-10.941,0-10.94,0-10.94s0,25.527,0,0c0-25.528-71.112-10.943-40.115-30.998
		c30.999-20.061,49.234-25.53,54.704-27.353c5.472-1.824,7.292,437.633,7.292,437.633L1218.564,971.276z"/>
	<path fill="#1D676D" d="M1251.387,880.104c0,0,58.349,3.646,51.057,16.412c-7.292,12.767,32.82,27.353,32.82,27.353
		S1238.624,901.986,1251.387,880.104z"/>
	<path fill="#1D676D" d="M1340.734,858.223c-21.881,3.646-21.879,14.59-7.292,12.766
		C1348.03,869.163,1340.734,858.223,1340.734,858.223z"/>
	<polygon fill="#1D676D" points="1406.38,787.107 1402.734,808.989 1410.028,796.225 	"/>
	<polygon fill="#1D676D" points="1395.439,599.289 1399.088,612.054 1415.499,599.289 1404.559,590.173 	"/>
	<path fill="#1D676D" d="M972.396,969.455c-18.236-3.648-9.117-18.237-54.705-25.531c-45.588-7.291-54.707-7.291-74.765-3.645
		c-20.057,3.645,43.767-21.88,9.119-20.06c-34.646,1.822-54.704-3.647-67.47,1.822c-12.766,5.471-40.117,18.239-49.233,20.061
		c-9.116,1.82-20.057-3.646-25.527,0c-5.471,3.646-12.769,1.824-25.53,0c-12.762-1.823,10.942-20.061-12.762-14.59
		c-23.706,5.47-71.115,1.824-71.115,7.294c0,5.473,12.762,18.236,3.646,21.883c-9.117,3.646-45.588,20.058-45.588,20.058
		L972.396,969.455z"/>
	<polygon fill="#1D676D" points="578.526,900.162 582.172,916.572 593.113,907.456 	"/>
	<path fill="#1D676D" d="M504,883c-15.733,6.743-21,3-6,7s18,17,39,18s22-4,23-7s8-13-7-14S511,880,504,883z"/>
	<path fill="#1D676D" d="M970,928c-24-10-54-9-63-16s9-21,26-23s2-19,5-20s8-21,15-25s-9-30,11-39s22,24,38,36s33,5,34,27
		s-12,37-15,46S970,928,970,928z"/>
	<path fill="#1D676D" d="M1076,888c-5.872,2.349-35,23-23,26s31-4,34-4S1086,884,1076,888z"/>
</g>
</svg>
