<?xml version="1.0" encoding="iso-8859-1"?>
<!-- Generator: Adobe Illustrator 16.0.0, SVG Export Plug-In . SVG Version: 6.00 Build 0)  -->
<!DOCTYPE svg PUBLIC "-//W3C//DTD SVG 1.1//EN" "http://www.w3.org/Graphics/SVG/1.1/DTD/svg11.dtd">
<svg version="1.1" xmlns="http://www.w3.org/2000/svg" xmlns:xlink="http://www.w3.org/1999/xlink" x="0px" y="0px" width="1440px"
	 height="960px" viewBox="0 0 1440 960" enable-background="new 0 0 1440 960" xml:space="preserve">
<g id="Layer_1" display="none">
	<g id="b93A18_1_" display="inline">
		
			<image overflow="visible" width="241" height="138" id="b93A18_2_" xlink:href="4164E6D6A6AF21B5.jpg"  transform="matrix(6.3 0 0 6.3 -51.2598 95.7822)">
		</image>
	</g>
</g>
<g id="water">
	<linearGradient id="SVGID_1_" gradientUnits="userSpaceOnUse" x1="721.0195" y1="570.8291" x2="721.0195" y2="822.8539">
		<stop  offset="0" style="stop-color:#5BC0AC"/>
		<stop  offset="1" style="stop-color:#56A384"/>
	</linearGradient>
	<rect x="-0.692" y="-2.586" fill="url(#SVGID_1_)" width="1443.423" height="966.393"/>
	<path fill="#AEDBC3" d="M-17.219,586.352c92.997-30.999,525.162,38.292,736.684,72.938
		c211.521,34.645,723.008-102.115,747.622-136.76c24.613-34.646-7.295-34.646-7.295-34.646s-311.813,167.758-643.685,133.114
		c-331.87-34.646-568.925-209.7-827.856-175.053C-270.681,480.589-17.219,586.352-17.219,586.352z"/>
	<path fill="#AEDBC3" d="M-2.63,741.347c123.996-47.412,368.34-89.352,532.453-12.765c164.112,76.585,514.219,92.996,640.038,71.115
		c125.819-21.882,266.228-71.115,266.228-71.115V573.586c0,0-433.988,173.231-610.863,151.35S123.188,624.639,28.368,677.523
		C-66.452,730.406-2.63,741.347-2.63,741.347z"/>
</g>
<g id="coral">
	<path fill="#338491" d="M1442.001,516.333c0,0-53.854-0.921-86.677,22.781c-32.822,23.706-12.768,25.53,1.822,25.53
		c14.589,0,10.94,25.528,10.94,25.528s1.822,20.057,5.471,30.997c3.648,10.942,9.118,16.412,7.294,25.531
		c-1.824,9.116-49.23-1.824-14.587,54.704c34.646,56.525,32.823,45.585,27.353,69.291s-12.766,51.058-12.766,51.058l-5.47,18.232
		l-1.824,10.941L1351,809l-21.206-10.951l7.294,29.176l-10.94,18.233c0,0-14.587-1.822-20.057,1.824l-47.412,12.765
		c0,0,21.884-32.822,3.648-27.352s-1.824-1.821-18.235,5.471c-16.412,7.292-10.941-7.299-16.412,7.292
		c-5.47,14.589,15.812,13.366,3.646,25.529c-14.587,14.587,10.941,9.12-3.646,16.412c-14.586,7.292-80.23,16.411-80.23,16.411
		l-34.647,1.821c0,0-14.802-57.632-71.802-25.632c0,0,0-51-32-62c-16.359-5.623-21.295-47.646-45-44
		c-16.594,2.553-39.662,53.827-55,55c-16.611,1.271-20.323,12.095-34,11c-21.5-1.721-47.422,47.146-70,49
		c-9.968,0.818-21.344,17.844-35.016,18.768c-21.021,1.42-30.792-10.352-66.984-9.768c-47-40-97.122-16.07-111.711-17.896
		C576.702,878.279,530,871,530,871s-65.414-10.176-80-12c-14.587-1.825-96.881-13.646-106-10c-9.12,3.646-73.64-19.95-79.111-18.129
		C259.418,832.693,242.47,790,237,790s-36.119-3.763-58,9c-21.882,12.763-16.225-6.422-19.874-11.893
		c-3.646-5.471,10.943-18.235-1.822-16.411s-27.352-34.646-47.412-34.646c-20.058,0-16.412-40.115-25.528-38.293
		c-9.116,1.824-32.822-20.055-23.705-32.823C69.778,652.171,124.882,550.646,72,547c-52.881-3.646-83,31-83,31
		s13.309,68.701,7.839,75.993c-5.471,7.295,0,311.813,0,311.813h1438.717L1442.001,516.333z"/>
	<path fill="#1D676D" d="M-6.807,612.054C-27,558,62,568,62,568s-14.104,78.701-26.869,89.642
		c-12.764,10.94-7.293,12.763-12.764,21.882c-5.471,9.117-27.351,34.645,3.647,41.938c30.998,7.296,29.176,32.82,21.882,52.88
		c-7.295,20.061,3.646,71.116,3.646,71.116c9.118,18.234,9.252,25.788,18.235,27.352c41.939,7.294,49.233,23.706,49.233,23.706
		s-12.765-58.354,3.646-62c16.412-3.645,16.412-9.118,32.823-5.47c16.411,3.649,7.295-1.821,36.468-1.821
		c29.177,0,31.001,25.528,31.001,25.528s-23.703,20.059-10.941,29.177c12.763,9.115,1.824,5.47,16.412,16.41
		c14.586,10.941,41.938,1.822,41.938,1.822S277.178,883.116,279,874c1.821-9.116-35.765-24.176-23-26
		c12.766-1.825,57.708,15.176,65,17c7.292,1.825,20,3,20,3s34.354,15.291,38,8c3.646-7.293,71.882-10.485,66.412-3.19
		c-5.471,7.294,54.704,25.53,54.704,25.53l40.117,25.527c0,0,27.353,18.236,23.703,23.706c-3.646,5.471-20.057,23.703-30.998,20.058
		c-10.94-3.646-536.1-1.824-536.1-1.824L-6.807,612.054z"/>
	<path fill="#1D676D" d="M77.072,759.755c-9.062,1.007-41.94,30.999-14.588,21.882c27.352-9.116,20.059,9.117,20.059,9.117
		s-20.059,16.41,1.823,16.41s29.176-3.648,38.292-5.47c9.117-1.821,16.412-18.232,3.646-18.232c-12.762,0-30.998,5.47-30.998,5.47
		S93.481,757.931,77.072,759.755z"/>
	<polygon fill="#1D676D" points="44.249,710.521 44.249,723.287 60.661,721.462 	"/>
	<polygon fill="#1D676D" points="77.072,836.34 66.131,850.928 82.542,850.928 	"/>
	<path fill="#1D676D" d="M1083.625,927.514c-34.351,15.268-87.523,40.12-61.996,36.471c25.528-3.648,47.407-5.47,61.996-5.47
		c14.59,0,21.376,15.131,52.375,11.485c30.997-3.646,31.503,1.276,51.562-7.84c20.061-9.116,30.999-30.998,10.941-30.998
		s-63.819,3.646-63.819,3.646l-29.177,12.766C1105.508,947.573,1100.037,920.219,1083.625,927.514z"/>
	<path fill="#1D676D" d="M1218.564,971.276c23.703-16.41,29.174-29.173,61.995-36.469c32.823-7.294,71.119-0.002,85.705-7.294
		c14.587-7.293-58.353-20.06-36.471-32.822c21.882-12.762,36.469-10.941,49.233-16.412c12.766-5.47,34.647-12.762,34.647-12.762
		s-16.411-12.765-5.471-23.706c10.94-10.94,3.646-27.35,9.116-36.469c5.471-9.118,9.119-5.47,7.295-18.235s1.822-7.292-1.824-30.998
		c-3.646-23.707-12.766-43.764-21.881-51.059c-9.117-7.294-25.531-29.177,5.47-43.763c31-14.587,16.411-49.234,16.411-60.175
		s0-10.94,0-10.94s0,25.527,0,0c0-25.528-71.112-10.944-40.115-30.998c30.999-20.061,49.234-25.53,54.704-27.353
		c5.472-1.824,7.292,437.633,7.292,437.633L1218.564,971.276z"/>
	<path fill="#1D676D" d="M1251.387,880.104c0,0,58.348,3.646,51.056,16.412s32.821,27.352,32.821,27.352
		S1238.624,901.986,1251.387,880.104z"/>
	<path fill="#1D676D" d="M1340.734,858.223c-21.881,3.646-21.879,14.589-7.292,12.765
		C1348.03,869.163,1340.734,858.223,1340.734,858.223z"/>
	<polygon fill="#1D676D" points="1406.38,787.107 1402.734,808.989 1410.028,796.225 	"/>
	<polygon fill="#1D676D" points="1395.439,599.289 1399.088,612.054 1415.499,599.289 1404.559,590.173 	"/>
	<path fill="#1D676D" d="M972.396,969.455c-18.236-3.648-9.117-18.237-54.705-25.531c-45.587-7.291-54.707-7.291-74.764-3.645
		c-20.057,3.645,43.766-21.88,9.119-20.059c-34.646,1.822-54.704-3.648-67.47,1.822c-12.765,5.471-40.117,18.239-49.233,20.061
		c-9.116,1.82-20.057-3.646-25.528,0c-5.47,3.646-12.768,1.824-25.53,0s10.943-20.061-12.762-14.59
		c-23.706,5.47-71.115,1.824-71.115,7.294c0,5.472,12.762,18.236,3.646,21.883c-9.117,3.646-45.588,20.057-45.588,20.057
		L972.396,969.455z"/>
	<polygon fill="#1D676D" points="578.526,900.162 582.172,916.572 593.113,907.456 	"/>
	<path fill="#1D676D" d="M504,883c-15.733,6.743-21,3-6,7s18,17,39,18s22-4,23-7s8-13-7-14S511,880,504,883z"/>
	<path fill="#1D676D" d="M970,928c-24-10-54-9-63-16s9-21,26-23s2-19,5-20s8-21,15-25s-9-30,11-39s22,24,38,36s33,5,34,27
		s-12,37-15,46S970,928,970,928z"/>
	<path fill="#1D676D" d="M1076,888c-5.872,2.349-35,23-23,26s31-4,34-4S1086,884,1076,888z"/>
</g>
<g id="CLAM" display="none">
</g>
<g id="FG_CORAL" display="none">
</g>
<g id="PABLO" display="none">
</g>
<g id="Layer_9" display="none">
	
		<rect x="171.134" y="120.027" display="inline" fill="none" stroke="#1D5D2E" stroke-width="10" stroke-miterlimit="10" width="1086.28" height="724.187"/>
</g>
<g id="Layer_10">
	<g>
		<defs>
			<rect id="SVGID_2_" x="270.6" y="203.797" width="896.733" height="597.822"/>
		</defs>
		<clipPath id="SVGID_3_">
			<use xlink:href="#SVGID_2_"  overflow="visible"/>
		</clipPath>
		<g clip-path="url(#SVGID_3_)">
			<rect x="218.053" y="201.853" fill="#5BC0AC" width="1042.742" height="605.855"/>
			<path fill="#AEDBC3" d="M1204.352,403.685c-60.721,20.241-392.216-20.584-530.326-43.206
				c-138.113-22.622-472.085,66.675-488.156,89.297c-16.071,22.623,4.763,22.623,4.763,22.623s203.597-109.539,420.29-86.917
				c216.694,22.622,371.475,136.922,540.543,114.3C1320.534,477.161,1204.352,403.685,1204.352,403.685z"/>
			<path opacity="0.3" fill="#B3BE9B" d="M1158.11,344.944c-60.723,20.241-392.218-20.584-530.328-43.206
				c-138.112-22.621-412.087,55.426-428.159,78.047c-16.072,22.623,4.763,22.623,4.763,22.623s143.601-98.288,360.294-75.667
				c216.694,22.622,371.475,136.92,540.544,114.3C1274.291,418.419,1158.11,344.944,1158.11,344.944z"/>
			<path opacity="0.3" fill="#B3BE9B" d="M1200.603,621.15c-60.722,20.241-392.216-20.585-530.327-43.205
				c-138.112-22.623-472.084,66.675-488.156,89.296c-16.072,22.623,4.763,22.623,4.763,22.623s203.597-109.537,420.29-86.917
				c216.693,22.622,371.476,136.922,540.543,114.301C1316.785,694.626,1200.603,621.15,1200.603,621.15z"/>
			<path fill="#AEDBC3" d="M1257.21,301.124c-90.327,34.538-268.323,65.089-387.873,9.299
				c-119.551-55.79-374.59-67.745-466.245-51.805c-91.655,15.939-193.938,51.805-193.938,51.805v112.908
				c0,0,316.146-126.192,444.994-110.252c128.847,15.94,511.408,73.062,580.481,34.539
				C1303.701,309.094,1257.21,301.124,1257.21,301.124z"/>
			<path fill="#598989" d="M243.729,559.366c23.746-2.499,29.995-29.995,38.744-33.744c8.749-3.75,7.499-6.249,13.748-8.749
				c6.25-2.499-9.998,16.247,8.749-8.748c18.748-24.996,7.499-27.496,18.748-38.744c11.248-11.249,1.25-19.998,6.249-23.747
				c4.999-3.75,16.247-7.5,27.496-11.248c11.248-3.75,11.248-6.248,18.746-5c7.499,1.25-18.746,19.998-9.998,19.998
				c8.748,0-18.748,17.497-7.5,18.748c11.249,1.25-6.249-3.75,14.998,7.499c21.247,11.248,24.996,16.247,24.996,16.247l19.997,2.5
				c0,0,0-21.247,18.747-32.496c18.748-11.247,21.247-17.496,23.746-13.747c2.5,3.75,5.683,5.804,12.499,9.998
				c16.248,9.999,31.245,13.749,37.494,21.247c6.249,7.499,26.246,3.75,24.996,7.499c-1.25,3.749-14.998,14.997,5,18.747
				c19.997,3.75,27.495,1.25,46.242,12.497c18.747,11.249,48.743,21.247,59.991,17.499c11.248-3.75,12.498,1.249,33.745-5
				c21.247-6.248,39.993-8.749,28.746-12.499c-11.249-3.748-57.492-26.245,9.999-29.994c67.489-3.749,53.741-1.25,67.489-3.749
				c13.747-2.5,22.496-1.25,22.496,3.749s9.998,4.999,21.246,8.749c11.249,3.749,18.747,0,18.747,3.749s14.998,0,18.748,4.999
				c3.749,4.999,26.245,2.5,23.746,8.749c-2.501,6.249-6.249,4.999,11.248,9.999c17.497,4.998,18.746,1.249,31.245,1.249
				c12.497,0,3.749,1.25,12.497,0c8.75-1.249,0-28.745,18.748-34.995c18.747-6.248,8.748-2.499,18.747-6.248
				c9.998-3.75,14.997-6.25,14.997-6.25s17.497,3.75,13.748,7.5c-3.749,3.748-1.25,12.498,14.997,13.747
				c16.249,1.25,43.743-7.499,43.743-11.248s14.998-12.498,14.998-12.498s27.495,42.492,31.245,44.993
				c3.75,2.499,1.249,12.497,14.998,4.999c13.747-7.5,3.749-27.495,11.248-29.995s1.874-9.998,13.747-2.5
				c11.873,7.499,23.443,23.96,28.746,27.496c14.998,9.998,6.248-2.501,29.996,17.498c23.745,19.995,36.243,42.491,36.243,42.491
				s18.747,14.999,11.248,19.998c-7.498,4.999-16.247,27.495-18.746,31.245c-2.5,3.749-9.999,36.243-9.999,36.243L211.234,650.602
				L243.729,559.366z"/>
			<path fill="#C2B59B" d="M253.728,596.86c42.493-11.248,81.237-29.994,196.218-18.746
				c114.982,11.248,248.711,27.495,336.197,22.496c87.485-4.999,248.71-6.249,292.453,3.749
				c38.464,8.792,219.889-23.181,198.72-31.246c-1.034-0.392-48.104,165.739-52.492,171.225
				c-9.999,12.498-103.734,83.736-123.731,88.735c-19.996,4.999-303.701,19.997-419.933,17.497
				c-116.232-2.499-168.723-19.997-267.458-28.745c-98.734-8.748-148.726-7.499-162.474-28.746S253.728,596.86,253.728,596.86z"/>
			<path fill="#C2B59B" d="M249.978,566.866"/>
			<path fill="#867757" d="M669.971,822.489c-35-3.125-93.73-7.498-110.602-36.555c-29.057-1.874-31.971-25.935-25.308-34.681
				c19.997-26.244,265.829-64.408,277.077-65.657c11.248-1.25,156.227-42.493,213.717-41.243c57.491,1.249,139.353-5,142.478,33.745
				c3.124,38.743-42.493,122.48-48.742,125.604c-6.249,3.125-136.229,9.374-162.474,18.122
				C929.871,830.573,669.971,822.489,669.971,822.489z"/>
			<path fill="#867757" d="M237.48,635.604c0,0,136.229-87.486,396.188-13.748c-68.74,0-47.493,0-141.228,11.248
				C398.705,644.354,331.215,678.099,237.48,635.604z"/>
			<ellipse fill="#867757" cx="358.086" cy="683.722" rx="5.624" ry="3.124"/>
			<ellipse fill="#867757" cx="384.332" cy="693.721" rx="1.875" ry="0.624"/>
			<circle fill="#867757" cx="352.462" cy="700.595" r="3.749"/>
			<circle fill="#867757" cx="365.585" cy="709.968" r="4.374"/>
			<circle fill="#867757" cx="711.78" cy="628.105" r="4.375"/>
			<circle fill="#867757" cx="1053.601" cy="618.732" r="4.374"/>
			<circle fill="#867757" cx="384.332" cy="693.721" r="3.124"/>
			<circle fill="#867757" cx="1146.711" cy="621.232" r="1.875"/>
			<circle fill="#867757" cx="445.573" cy="754.335" r="1.875"/>
			<circle fill="#867757" cx="377.458" cy="724.966" r="1.875"/>
			<circle fill="#867757" cx="463.069" cy="720.591" r="1.875"/>
			<circle fill="#867757" cx="601.173" cy="663.726" r="1.875"/>
			<circle fill="#867757" cx="740.526" cy="655.602" r="1.875"/>
			<circle fill="#867757" cx="654.289" cy="688.097" r="1.875"/>
			<circle fill="#867757" cx="944.868" cy="631.855" r="1.875"/>
			<circle fill="#867757" cx="773.645" cy="626.231" r="1.875"/>
			<circle fill="#867757" cx="294.346" cy="598.11" r="1.875"/>
			<circle fill="#867757" cx="331.84" cy="589.362" r="1.875"/>
			<circle fill="#867757" cx="356.211" cy="588.112" r="1.875"/>
			<circle fill="#867757" cx="1161.708" cy="609.984" r="3.125"/>
			<circle fill="#867757" cx="1164.521" cy="640.292" r="5.937"/>
			<path fill="#73643E" d="M251.228,631.855c-3.535-1.768,44.993-33.745,141.228-38.744s228.714,26.245,228.714,26.245
				s-111.232-13.747-187.47-4.999C357.462,623.106,316.218,664.35,251.228,631.855z"/>
			<path fill="#73643E" d="M1178.581,661.85c0,0-48.742-27.495-134.979-19.996s-222.465,44.992-258.709,49.992
				c-36.244,4.999-153.725,33.744-153.725,33.744s167.473-21.246,239.961-32.494s169.974-44.994,206.218-24.997
				c36.244,19.998,114.981,32.496,114.981,32.496L1178.581,661.85z"/>
			<path fill="#939195" d="M546.181,719.341c0,0-13.123,24.371,21.247,24.997C601.798,744.963,546.181,719.341,546.181,719.341z"/>
			<path fill="#939195" d="M541.183,745.587c0,0,1.313,34.101,36.933,29.102C613.735,769.69,562.429,736.838,541.183,745.587z"/>
			<path fill="#939195" d="M564.056,767.19c0,0,16.872,32.807,59.987,25.307c12.124,22.454,76.489,24.329,99.61,17.455
				c24.371,12.497,66.239,8.749,88.112-1.875c39.368,10.624,75.507,4.437,78.737,2.5c6.248-3.749,38.777-8.359,57.49-33.746
				c31.291-42.448,26.87-76.236,26.87-76.236L564.056,767.19z"/>
			<path fill="#939195" d="M1115.467,459.523c0,0-13.122-53.719-48.021-74.14c-5.122,22.479,11.726,59.853,11.726,59.853
				L1115.467,459.523z"/>
			<path fill="#939195" d="M1036.994,383.171c-22.461-38.001,5.066-15.234-51.342-48.243c-5.124,22.478,11.724,59.853,11.724,59.853
				L1036.994,383.171z"/>
			<path fill="#939195" d="M917.402,343.88c0,0-25.995-27.42-64.396-30.583c-5.123,22.479,11.725,59.852,11.725,59.852
				L917.402,343.88z"/>
			<path fill="#939195" d="M971.114,706.219c0,0,73.896-34.631,123.942-82.555c50.045-47.925,64.206-107.295,38.03-143.354
				C1106.911,444.249,946.03,678.575,971.114,706.219z"/>
			<path fill="#5C5825" d="M760.783,678.351c0,0-77.243-51.568-102.647-104.219c-25.404-52.651-43.996-114.328-14.504-134.432
				c19.851-13.534,47.125-12.476,47.125-12.476s-0.744-30.695,27.546-49.183c28.289-18.488,51.212-11.545,51.212-11.545
				s16.841-45.602,55.751-52.212c38.909-6.61,59.22,21.234,59.22,21.234s34.238-25.73,72.153-16.66
				c37.917,9.071,56.989,55.55,56.989,55.55s38.909-6.609,59.705,15.327c20.796,21.937,18.12,54.43,18.12,54.43
				s34.718,11.782,44.811,37.298c10.093,25.515-6.94,90.118-42.288,127.077c-36.123,37.77-125.986,97.053-125.986,97.053
				L760.783,678.351z"/>
			<path fill="#5C5825" d="M969.238,689.347c-13.278-9.969-183.095-19.373-202.467-18.747
				c-19.373,0.625-166.849,23.745-198.719,34.993c-31.87,11.249-29.222,21.824-9.998,28.122
				c-31.245,14.371-21.872,18.746,14.998,23.121c-9.999,19.995,9.998,20.621,50.617,18.746
				c20.622,20.623,68.114,14.373,98.735,7.498c24.37,13.749,69.988,8.75,85.61-3.124c21.247,20.623,92.485,8.749,126.855-19.997
				C969.238,731.214,981.284,698.388,969.238,689.347z"/>
			<path fill="#38361B" d="M778.484,683.673c0,0-97.21-58.267-127-140.722c-29.79-82.456-10.967-116,45.361-106.602
				c-3.899-35.712,34.977-78.013,79.204-58.906c17.431-70.834,81.975-67.302,110.64-28.956
				c41.202-52.518,112.355-10.078,120.745,36.117c45.305-12.032,84.165,32.508,71.473,67.449
				c51.733,18.238,59.232,60.79,38.283,109.326c-20.948,48.537-151.936,140.353-151.936,140.353s-44.133-11.762-98.5-14.887
				C812.391,683.722,778.484,683.673,778.484,683.673z"/>
			<path fill="#7B0046" d="M775.593,671.838c0,0,130.952-1.111,191.324,16.946c89.017-66.128,147.723-118.097,149.837-172.646
				c2.113-54.548-52.657-57.572-52.657-57.572s16.494-23.326-8.37-50.058c-24.861-26.732-62.437-14.659-62.437-14.659
				s-4.768-43.219-42.906-53.201c-38.139-9.981-66.754,26.92-66.754,26.92s-31.598-42.457-61.888-32.161
				c-40.417,13.737-33.272,57.335-33.272,57.335s-31.744-15.403-57.748,0.598c-26.001,16-20.101,59.907-20.101,59.907
				s-35.587-19.289-55.702,1.063c-20.115,20.351-7.501,83.845,27.697,133.139C717.813,636.744,775.593,671.838,775.593,671.838z"/>
			<path fill="#DFDDDE" d="M776.322,662.975c0,0,95.726-3.119,188.37,16.705c68.701-50.551,114.395-92.589,131.641-128.641
				c19.854-41.51,14.72-74.031-42.476-90.936c14.937-29.7-0.961-75.025-64.475-58.545c-7.317-33.913-39.276-93.646-108.304-24.683
				c-19.358-35.796-78.291-67.714-86.967,23.173c-27.03-4.011-75.791-25.872-80.377,65.947
				c-18.35-11.921-63.73-27.852-61.291,25.585C654.883,545.016,725.766,637.697,776.322,662.975z"/>
			<path fill="#F7FCFE" d="M755.488,395.974l-72.06,167.156l13.513,23.715c0,0,87.865-189.348,89.464-190.704
				C788.003,394.786,751.847,396.863,755.488,395.974z"/>
			<polygon fill="#F7FCFE" points="1078.58,470.467 919.958,670.345 938.816,672.492 1095.998,486.474 			"/>
			<polygon fill="#F7FCFE" points="1107.689,510.635 981.875,655.22 1105.318,528.58 			"/>
			<polygon fill="#F7FCFE" points="963.492,354.814 755.042,646.948 776.322,662.975 982.668,381.971 976.156,367.158 			"/>
			<polygon fill="#F7FCFE" points="852.927,664.527 946.44,565.459 876.781,667.385 			"/>
			<path fill="#38361B" d="M779.27,678.723c0,0-130.604,11.248-178.722,24.371s-63.74,24.372-22.497,30.621
				c-26.871,8.747-34.995,16.247,9.999,18.121c-13.123,9.999-12.498,26.871,49.367,16.872c-0.624,7.499,38.745,19.373,93.111,3.75
				c11.248,9.998,34.994,18.747,85.611-2.5c8.748,11.873,33.744,20.622,77.487,2.5c43.744-18.123,79.363-55.616,69.989-73.112
				C954.241,681.848,779.27,678.723,779.27,678.723z"/>
			<path fill="#7B0046" d="M946.476,699.703c0,0-66.597-25.354-183.453-14.731c-116.857,10.624-266.833,35.619-173.098,48.118
				c-23.746,6.873-39.369,18.121,5.624,21.245c-13.748,9.374-9.373,21.247,35.62,11.248c10.322,14.573,44.993,18.122,95.609,4.375
				c21.581,13.042,53.117,11.873,84.988,0.625c71.237,36.87,131.61-47.396,149.35-53.741
				C965.583,715.244,946.476,699.703,946.476,699.703z"/>
			<radialGradient id="SVGID_4_" cx="769.4355" cy="720.8174" r="144.0723" gradientUnits="userSpaceOnUse">
				<stop  offset="0" style="stop-color:#F4C8DE"/>
				<stop  offset="0.999" style="stop-color:#E665A6"/>
			</radialGradient>
			<path fill="url(#SVGID_4_)" d="M636.792,761.21c-2.338-1.083-66.24,13.123-32.495-9.374c-17.498-1.874-58.116-5.624-3.125-18.746
				c-11.248,0-35.619-10.624,4.375-19.998c39.993-9.373,79.309-42.348,169.401-47.132c105.916-5.624,174.918,29.01,190.54,48.382
				c-16.871,29.37-52.584,57.966-114.981,61.865c-19.996,1.25-37.493-13.123-37.493-13.123s-25.621,14.373-49.992,11.249
				c-24.371-3.126-33.745-10.624-33.745-10.624S688.034,784.957,636.792,761.21z"/>
			<radialGradient id="SVGID_5_" cx="869.5479" cy="691.0645" r="0.211" gradientUnits="userSpaceOnUse">
				<stop  offset="0" style="stop-color:#F4C8DE"/>
				<stop  offset="0.999" style="stop-color:#E665A6"/>
			</radialGradient>
			<path fill="url(#SVGID_5_)" d="M817.13,695.954c0,0,5.623,14.997,30.932,12.186c25.307-2.812,22.494-13.124,5.623-15.935
				C836.813,689.393,817.13,695.954,817.13,695.954z"/>
			<radialGradient id="SVGID_6_" cx="752.8916" cy="684.1553" r="0.2638" gradientUnits="userSpaceOnUse">
				<stop  offset="0" style="stop-color:#F4C8DE"/>
				<stop  offset="0.999" style="stop-color:#E665A6"/>
			</radialGradient>
			<path fill="url(#SVGID_6_)" d="M749.643,696.893c0,0-28.118,15.933-47.801,5.622c-22.964-12.029,5.625-17.809,5.625-17.809
				L749.643,696.893z"/>
			<radialGradient id="SVGID_7_" cx="732.3037" cy="680.0195" r="24.6314" gradientUnits="userSpaceOnUse">
				<stop  offset="0" style="stop-color:#FFFFFF"/>
				<stop  offset="1" style="stop-color:#E6E7E8"/>
			</radialGradient>
			<ellipse fill="url(#SVGID_7_)" cx="732.303" cy="680.02" rx="25.776" ry="23.432"/>
			<radialGradient id="SVGID_8_" cx="832.5957" cy="680.0195" r="24.6309" gradientUnits="userSpaceOnUse">
				<stop  offset="0" style="stop-color:#FFFFFF"/>
				<stop  offset="1" style="stop-color:#E6E7E8"/>
			</radialGradient>
			<ellipse fill="url(#SVGID_8_)" cx="832.595" cy="680.02" rx="25.775" ry="23.432"/>
			<ellipse cx="729.023" cy="669.709" rx="12.185" ry="11.717"/>
			<ellipse cx="829.314" cy="670.646" rx="12.185" ry="11.717"/>
			<radialGradient id="SVGID_9_" cx="727.6162" cy="665.4912" r="4.2178" gradientUnits="userSpaceOnUse">
				<stop  offset="0" style="stop-color:#FFFFFF"/>
				<stop  offset="1" style="stop-color:#E6E7E8"/>
			</radialGradient>
			<circle fill="url(#SVGID_9_)" cx="727.616" cy="665.492" r="4.218"/>
			<radialGradient id="SVGID_10_" cx="829.3154" cy="666.4287" r="4.2178" gradientUnits="userSpaceOnUse">
				<stop  offset="0" style="stop-color:#FFFFFF"/>
				<stop  offset="1" style="stop-color:#E6E7E8"/>
			</radialGradient>
			<circle fill="url(#SVGID_10_)" cx="829.315" cy="666.428" r="4.218"/>
			<path fill="#5F6971" d="M971.114,706.219c0,0-15.266,62.888-82.751,75.03c-29.327,5.276-59.102-0.668-79.724,1.207
				c26.871,31.87,56.241,33.119,56.241,33.119s96.859,11.874,111.59-111.185C977.511,695.69,970.675,716.533,971.114,706.219z"/>
			<path fill="#5F6971" d="M974.863,700.595c0,0,126.269-76.812,158.137-163.044C1122.69,600.35,1021.997,694.924,974.863,700.595z"
				/>
			<path fill="#5F6971" d="M808.015,779.956l3.751,28.121c0,0-33.746,24.371-74.364-16.247
				C762.397,789.955,788.071,790.622,808.015,779.956z"/>
			<path fill="#5F6971" d="M722.404,783.08l5.68,28.163c0,0-49.424,16.206-85.043-23.788
				C676.785,792.141,702.778,789.686,722.404,783.08z"/>
			<path fill="#5F6971" d="M624.043,792.497l-0.375-16.915c0,0-39.929,2.855-53.052-4.644
				C592.175,790.622,611.858,792.497,624.043,792.497z"/>
			<path fill="#338491" d="M246.229,668.099c17.498-6.249,28.746,3.75,47.493,3.75s32.495-1.249,34.994,16.248
				c2.5,17.496,5,21.245,7.499,27.495c2.5,6.25,9.999,21.246,13.748,23.747c3.749,2.499,22.497,3.748,22.497,3.748
				s7.499,24.997,11.248,26.246c3.749,1.25,22.497,12.498,22.497,12.498l6.249-7.498c0,0-2.5-8.75,3.75-7.498
				c6.249,1.249,24.996,13.746,24.996,13.746h19.997c0,0-6.249-6.248,26.246,5c32.495,11.248,49.992,18.122,49.992,18.122
				s7.499,4.374,4.999,8.124c-2.499,3.748,0,8.748-3.749,9.998c-3.75,1.25-68.739,7.499-68.739,7.499l-217.466-8.749
				L246.229,668.099z"/>
			<path fill="#338491" d="M983.968,807.494c29.993-0.938,28.119-22.497,40.306-26.245c12.184-3.749-5.626-14.059,18.744-17.809
				s17.811-3.75,35.618-11.247c17.81-7.498-58.111-17.811-25.308-19.685c32.807-1.873-13.122-13.121,15.935-17.808
				c29.057-4.688,10.311-20.621,30.932-22.494c20.621-1.877-21.559-8.437,11.248-13.124c32.806-4.687,21.593-13.123,40.304-16.871
				s-59.051-3.748,5.623-8.437c64.674-4.687,66.549,13.123,69.36,27.184c2.812,14.059-23.432,144.344-26.243,141.532
				C1197.674,819.679,983.968,807.494,983.968,807.494z"/>
			<path fill="#1D676D" d="M1078.637,806.556c-39.367-2.853-53.426-12.187-33.742-14.997c19.684-2.812-0.938-2.812,29.056-4.686
				c29.995-1.876,20.621,0.936,35.617,0c14.998-0.938,22.496-6.562,17.811-8.437c-4.688-1.875-9.374-1.875-14.061-5.624
				c-4.686-3.75,0-9.373,0-9.373s-5.623-8.437-12.185-9.374c-6.562-0.937-15.935-1.873-24.369-4.686
				c-8.437-2.812-49.678-10.311-26.246-11.248c23.433-0.938,48.74-4.687,62.8-4.687c14.061,0,20.621,6.562,28.119,4.687
				c7.498-1.874-26.243-13.121-10.309-16.871c15.933-3.75,1.872-12.186,12.184-14.998c10.311-2.812,8.435-12.184,13.122-14.996
				c4.687-2.812-0.938-5.624,3.749-8.436s25.308-11.247,29.995-11.247c4.686,0,17.808,14.996,17.808,14.996l-26.245,124.662
				L1078.637,806.556z"/>
			<path fill="#1D676D" d="M1082.387,767.188c-12.222,0-9.373,11.247,1.874,10.31c11.248-0.937,15.935,3.75,23.433,2.812
				c7.499-0.938,0.938-4.686-9.374-8.435C1088.011,768.126,1087.073,767.188,1082.387,767.188z"/>
			<polygon fill="#1D676D" points="1053.33,770 1056.143,778.437 1060.828,769.062 			"/>
			<polygon fill="#1D676D" points="1096.446,725.011 1099.259,733.445 1103.945,724.072 			"/>
			<polygon fill="#1D676D" points="1139.562,676.27 1142.375,684.706 1147.061,675.332 			"/>
			<path fill="#1D676D" d="M1123.628,688.455l-9.373,10.31l15.935-4.687c0,0,8.437,3.749,11.247,3.749
				c2.812,0-8.437-11.247-8.437-11.247S1120.815,687.518,1123.628,688.455z"/>
			<path fill="#1D676D" d="M508.757,807.492c0,0-19.683-20.619-29.994-19.684c-10.311,0.938-24.37,2.812-28.119,5.624
				c-3.749,2.812-24.371-1.874-24.371-1.874s10.311-17.811-5.624-11.248c-15.934,6.562-23.432,7.499-28.119,10.311
				s-10.311-3.748-18.746-1.874c-8.436,1.874-0.938-27.182-17.809-23.434c-16.872,3.749-13.123-14.995-23.433-12.185
				c-10.311,2.812-19.683,32.806-23.433,35.618c-3.75,2.812-4.686-9.373-14.06-21.558c-9.373-12.186-11.248-22.495-0.937-26.245
				c10.311-3.75,23.432-1.875,23.432-1.875l-9.373-23.433l-14.06,8.436c0,0,15.934-32.806,11.247-32.806
				c-4.687,0-21.558,3.749-24.37,2.812c-2.812-0.937-4.848,14.996-10.391,16.871s-20.54,65.611-20.54,65.611
				s8.436,36.555,10.31,33.743C262.245,807.492,508.757,807.492,508.757,807.492z"/>
			<path fill="#1D676D" d="M303.486,750.317c0,0-9.373,6.561-5.624,10.311c3.75,3.749,9.374,14.997,9.374,14.997l6.562-23.433
				L303.486,750.317z"/>
			<polygon fill="#1D676D" points="322.232,745.63 321.296,754.065 327.856,745.63 			"/>
			<path fill="#1D676D" d="M317.546,703.451c2.715-8.822-8.436,11.248-1.874,14.061c6.561,2.812,17.809,16.87,17.809,16.87
				l-10.311-19.683C323.169,714.699,313.797,715.637,317.546,703.451z"/>
			<polygon fill="#009444" points="636.792,534.37 661.788,512.498 629.918,529.995 			"/>
			<polygon fill="#009444" points="611.171,498.751 631.168,467.506 604.297,494.377 			"/>
			<polygon fill="#009444" points="563.679,475.63 572.427,439.386 556.805,471.256 			"/>
			<polygon fill="#009444" points="522.435,463.132 518.686,430.637 513.687,464.382 			"/>
			<polygon fill="#009444" points="473.068,476.255 456.82,445.634 464.319,477.505 			"/>
			<polygon fill="#009444" points="428.7,514.999 398.705,496.877 421.201,517.498 			"/>
			<polygon fill="#D4A94E" points="453.696,694.97 442.448,723.091 460.57,696.845 			"/>
			<polygon fill="#D4A94E" points="631.792,658.101 649.915,671.225 636.792,656.227 			"/>
			<polygon fill="#D4A94E" points="599.923,681.848 621.169,703.719 603.047,677.474 			"/>
			<polygon fill="#D4A94E" points="531.184,709.342 538.683,739.339 536.808,707.469 			"/>
			<polygon fill="#D4A94E" points="498.064,712.467 497.439,738.714 506.188,709.968 			"/>
			<g>
				
					<radialGradient id="SVGID_11_" cx="782.9521" cy="1396.8877" r="59.9819" gradientTransform="matrix(0.6325 0.5757 0.5956 -0.6543 -543.2305 984.7241)" gradientUnits="userSpaceOnUse">
					<stop  offset="8.370500e-04" style="stop-color:#AEC99D"/>
					<stop  offset="0.4059" style="stop-color:#31B457"/>
					<stop  offset="0.9702" style="stop-color:#008042"/>
				</radialGradient>
				<path fill="url(#SVGID_11_)" d="M796.66,531.188c-4.584-0.842-8.522,1.123-18.368,3.964
					c-9.851,2.839-12.102-7.793-12.333-15.517c-0.223-7.396,6.616-13.484,21.319-16.011c8.206-1.408,16.273,3.3,22.772,14.716
					c2.892,5.078,5.334,10.588,1.618,13.172C807.951,534.095,802.225,532.208,796.66,531.188z"/>
				<path fill="none" stroke="#006028" stroke-width="1.1705" stroke-miterlimit="10" d="M772.48,516.182
					c0,0,15.222-7.607,23.1-2.586"/>
				<path fill="none" stroke="#006028" stroke-width="1.1705" stroke-miterlimit="10" d="M773.576,525.23
					c0,0,13.056-6.362,21.184-2.187"/>
				<path fill="#D4A94E" d="M825.868,585.064c-14.126,14.432-23.806,28.815-23.806,28.815s9.355-14.296,18.884-32.678
					C820.946,581.202,825.551,579.563,825.868,585.064z"/>
				<path fill="#D4A94E" d="M829.626,572.924c-19.527,5.138-45.07,18.282-45.07,18.282s25.217-13.233,42.825-24.124
					C827.381,567.082,832.175,568.038,829.626,572.924z"/>
				<path fill="#B27F3E" d="M839.438,580.652c-12.863,15.565-25.941,41.143-25.941,41.143s12.76-25.458,20.712-44.576
					C834.208,577.219,838.659,575.197,839.438,580.652z"/>
				<path fill="#B27F3E" d="M862.608,585.875c-7.007,18.939-10.918,47.399-10.918,47.399s3.649-28.247,4.849-48.918
					C856.539,584.356,860.074,580.981,862.608,585.875z"/>
				<path fill="#B27F3E" d="M891.294,588.48c-0.286,20.193,5.525,48.328,5.525,48.328s-5.984-27.846-11.75-47.734
					C885.069,589.074,887.274,584.713,891.294,588.48z"/>
				<path fill="#B27F3E" d="M916.085,580.689c6.71,19.048,21.886,43.437,21.886,43.437s-15.241-24.061-27.525-40.728
					C910.445,583.398,911.01,578.543,916.085,580.689z"/>
				<path fill="#009444" d="M814.581,560.166c-19.076,6.626-43.533,21.702-43.533,21.702s24.126-15.138,40.846-27.353
					C811.894,554.516,816.747,555.1,814.581,560.166z"/>
				<path fill="#009444" d="M822.433,552.101c-19.684,4.511-45.641,16.821-45.641,16.821s25.635-12.411,43.586-22.731
					C820.378,546.19,825.14,547.303,822.433,552.101z"/>
				<polyline fill="#107139" points="951.587,496.158 959.435,493.803 952.931,500.195 				"/>
				<polyline fill="#107139" points="955.285,505.578 963.135,503.222 956.631,509.611 				"/>
				<path fill="#107139" d="M943.089,571.952c15.113,13.394,32.655,22.557,32.655,22.557s-17.434-8.842-36.267-17.448
					C939.478,577.061,937.612,572.54,943.089,571.952z"/>
				<path fill="#009444" d="M854.698,463.811c-2.666-20.017-6.604-33.583-6.604-33.583s4.068,13.254,12.681,32.083
					C860.774,462.311,859.227,466.949,854.698,463.811z"/>
				<path fill="#009444" d="M876.149,464.786c4.838-19.606,5.92-36.239,5.92-36.239s-0.847,16.39,0.282,37.065
					C882.352,465.613,879.215,469.363,876.149,464.786z"/>
				<path fill="#009444" d="M891.744,466.672c8.347-18.388,12.455-34.541,12.455-34.541s-3.835,15.959-6.508,36.491
					C897.691,468.623,893.921,471.735,891.744,466.672z"/>
				<path fill="#009444" d="M906.472,473.932c11.303-16.733,18.054-31.974,18.054-31.974s-6.448,15.095-12.515,34.89
					C912.011,476.848,907.771,479.286,906.472,473.932z"/>
				<path fill="#107139" d="M917.306,483.696c13.696-14.837,22.67-28.886,22.67-28.886s-8.651,13.949-17.636,32.602
					C922.34,487.412,917.782,489.186,917.306,483.696z"/>
				<path fill="#107139" d="M929.641,492.682c16.774-11.239,28.772-22.812,28.772-22.812s-11.66,11.551-24.742,27.599
					C933.671,497.469,928.827,498.131,929.641,492.682z"/>
				<path fill="#009444" d="M941.529,506.123c19.242-6.115,33.993-13.883,33.993-13.883s-14.419,7.84-31.459,19.604
					C944.063,511.844,939.229,511.129,941.529,506.123z"/>
				<path fill="#107139" d="M939.026,514.766c19.936-3.218,35.667-8.732,35.667-8.732s-15.415,5.635-33.999,14.764
					C940.694,520.797,936.016,519.381,939.026,514.766z"/>
				<path fill="#107139" d="M937.274,520.832c20.179,0.765,36.686-1.549,36.686-1.549s-16.223,2.494-36.238,7.789
					C937.722,527.072,933.414,524.763,937.274,520.832z"/>
				<path fill="#009444" d="M827.318,478.902c-12.914-15.526-22.952-24.455-22.952-24.455s9.981,8.598,27.296,19.951
					C831.662,474.399,832.821,479.148,827.318,478.902z"/>
				<path fill="#009444" d="M817.264,499.325c-15.83-12.538-27.489-19.213-27.489-19.213s11.536,6.363,30.816,13.913
					C820.591,494.024,822.7,498.436,817.264,499.325z"/>
				<path fill="#107139" d="M955.062,529.628c0,0,11.94,3.026,18.388-9.924c4.371-8.78,13.456-32.292,34.984-31.283
					c-14.465,19.173-15.812,35.655-12.11,39.692c-1.251,1.786-2.311,3.098-3.031,3.936c-0.636,0.74-1.004,1.109-1.004,1.109
					c-6.617,11.773-9.868,30.274-9.419,37.002c0,0,0,11.772,4.708,19.172c-11.437-3.698-19.061-11.771-21.753-25.396
					c-2.689-13.623-9.922-13.623-9.922-13.623S956.354,543.095,955.062,529.628z"/>
				<polyline fill="#009444" points="797.527,553.22 785.755,556.247 796.182,549.856 				"/>
				<polyline fill="#009444" points="797.969,542.021 786.196,545.049 796.624,538.657 				"/>
				<path fill="#009444" d="M809.047,501.418c-6.938-1.098-17.459-4.427-17.459-4.427s11.614,5.558,15.378,9.12"/>
				<polyline fill="#009444" points="823.428,482.031 817.823,474.293 826.118,478.667 				"/>
				<polyline fill="#009444" points="816.027,492.122 810.421,484.385 818.719,488.758 				"/>
				<polyline fill="#009444" points="837.556,466.222 833.183,456.13 841.594,462.184 				"/>
				<polyline fill="#009444" points="865.475,453.775 860.878,446.711 860.204,455.121 				"/>
				<polyline fill="#009444" points="877.038,453.473 874.745,444.927 871.949,453.354 				"/>
				<polyline fill="#009444" points="896.085,456.466 895.187,448.393 890.365,455.457 				"/>
				<polyline fill="#009444" points="905.166,459.493 904.27,451.42 899.447,458.484 				"/>
				<polyline fill="#107139" points="947.411,491.012 951.302,483.883 943.303,486.909 				"/>
				<polyline fill="#107139" points="941.889,482.57 944.989,475.064 937.362,478.933 				"/>
				<polyline fill="#107139" points="934.119,475.8 936.75,468.116 929.375,472.447 				"/>
				<polyline fill="#107139" points="928.585,471.866 929.799,463.835 923.319,469.416 				"/>
				<polyline fill="#009444" points="920.175,466.483 921.39,458.455 914.909,464.034 				"/>
				<polyline fill="#009444" points="913.447,463.119 914.662,455.09 908.182,460.67 				"/>
				<polyline fill="#009444" points="806.758,511.359 797.922,507.07 807.094,507.451 				"/>
				<polyline fill="#009444" points="810.389,500.707 802.874,494.376 811.673,497.002 				"/>
				<path fill="#009444" d="M967.844,534.504l-2.467-8.6c-0.039-0.403-0.078-0.806-0.118-1.21
					C967.089,530.654,967.844,534.504,967.844,534.504z"/>
				<path fill="#009444" d="M964.635,522.719c0.121,0.133,0.28,0.294,0.475,0.465c0.052,0.504,0.099,1.007,0.149,1.511
					C965.063,524.061,964.854,523.4,964.635,522.719z"/>
				<path fill="#009444" d="M965.377,525.904l-1.01-3.51c0,0,0.094,0.132,0.268,0.324c0.219,0.682,0.429,1.342,0.624,1.976
					C965.299,525.099,965.338,525.501,965.377,525.904z"/>
				
					<radialGradient id="SVGID_12_" cx="1068.2246" cy="472.9482" r="127.0551" gradientTransform="matrix(-1 0 0 1 1972.7812 0)" gradientUnits="userSpaceOnUse">
					<stop  offset="8.370500e-04" style="stop-color:#AEC99D"/>
					<stop  offset="0.4059" style="stop-color:#31B457"/>
					<stop  offset="0.7261" style="stop-color:#008544"/>
					<stop  offset="1" style="stop-color:#006A30"/>
				</radialGradient>
				<path fill="url(#SVGID_12_)" d="M845.132,458.932c16.146-9.418,46.195-11.661,79.832,7.626
					c23.171,13.283,34.901,40.502,39.959,56.161c-0.175-0.192-0.268-0.324-0.268-0.324l1.007,3.51
					c1.295,13.47,2.177,27.242,0.294,40.22h-2.198c-30.499,46.192-50.455,48.437-98.443,43.951
					c-47.99-4.483-71.311-52.021-71.311-69.066C794.004,517.237,828.986,468.351,845.132,458.932z"/>
				<path fill="#107139" d="M964.635,522.719c0,0,3.713,35.164-19.16,50.469c-19.991,13.375-37.842,7.903-52.642,4.876
					c-14.801-3.027-45.914-7.903-54.661-8.744c23.882,4.541,36.16,8.072,48.102,13.623s36.832,23.714,49.782,15.473
					c15.475-14.296,25.565-26.574,30.441-40.364C971.375,544.259,964.635,522.719,964.635,522.719z"/>
				<path fill="#107139" d="M963.612,555.304c0,0,0.938-7.187-11.561-7.499c-12.496-0.312-20.933-6.562-13.121-9.998
					c7.81-3.437,17.184-0.312,23.745,4.688C969.237,547.493,963.612,555.304,963.612,555.304z"/>
				
					<radialGradient id="SVGID_13_" cx="1067.5615" cy="517.9902" r="36.3551" gradientTransform="matrix(-1 0 0 0.8718 1972.7812 59.4624)" gradientUnits="userSpaceOnUse">
					<stop  offset="0" style="stop-color:#009444"/>
					<stop  offset="1" style="stop-color:#006838"/>
				</radialGradient>
				<ellipse fill="url(#SVGID_13_)" cx="897.621" cy="519.951" rx="21.337" ry="24.802"/>
				
					<radialGradient id="SVGID_14_" cx="1065.8799" cy="515.6768" r="48.593" gradientTransform="matrix(-1 0 0 0.8718 1972.7812 59.4624)" gradientUnits="userSpaceOnUse">
					<stop  offset="0" style="stop-color:#FFFFFF"/>
					<stop  offset="1" style="stop-color:#E6E7E8"/>
				</radialGradient>
				<ellipse fill="url(#SVGID_14_)" cx="899.302" cy="517.932" rx="21.337" ry="24.804"/>
				
					<radialGradient id="SVGID_15_" cx="1140.9502" cy="514.4795" r="36.1552" gradientTransform="matrix(-1 0 0 0.8718 1972.7812 59.4624)" gradientUnits="userSpaceOnUse">
					<stop  offset="0" style="stop-color:#009444"/>
					<stop  offset="1" style="stop-color:#006838"/>
				</radialGradient>
				<ellipse fill="url(#SVGID_15_)" cx="822.044" cy="516.253" rx="15.866" ry="21.623"/>
				
					<radialGradient id="SVGID_16_" cx="1139.6064" cy="512.458" r="36.1548" gradientTransform="matrix(-1 0 0 0.8718 1972.7812 59.4624)" gradientUnits="userSpaceOnUse">
					<stop  offset="0" style="stop-color:#FFFFFF"/>
					<stop  offset="1" style="stop-color:#E6E7E8"/>
				</radialGradient>
				<ellipse fill="url(#SVGID_16_)" cx="823.389" cy="514.491" rx="15.865" ry="21.623"/>
				<path fill="#D8E040" d="M936.056,598.415c-12.445,6.392-43.357-19.711-87.962-27.583c-34.31-6.055-43.503,0-43.503,0
					s8.857,22.875,38.795,34.646c29.938,11.773,64.247,6.391,74.002,3.363C927.143,605.816,936.056,598.415,936.056,598.415z"/>
				<path fill="#009444" d="M925.46,572.85c10.092,17.492,29.489,38.684,29.489,38.684s-19.397-20.854-34.534-34.982
					C920.415,576.551,920.079,571.673,925.46,572.85z"/>
				<path fill="#009444" d="M938.196,559.499c15.075,13.437,40.146,27.463,40.146,27.463s-24.966-13.707-43.774-22.366
					C934.568,564.596,932.718,560.071,938.196,559.499z"/>
				<path fill="#107139" d="M943.442,579.484c12.099,16.169,27.429,28.686,27.429,28.686s-15.291-12.183-31.999-24.411
					C938.872,583.759,937.958,578.956,943.442,579.484z"/>
				<path fill="#009444" d="M898.697,472.725c11.119-16.857,21.377-43.692,21.377-43.692s-9.957,26.685-15.809,46.546
					C904.266,475.579,900.056,478.064,898.697,472.725z"/>
				<path fill="#009444" d="M882.183,458.921c6.471-19.129,9.978-43.829,9.978-43.829s-3.252,24.477-3.867,45.174
					C888.293,460.266,884.852,463.738,882.183,458.921z"/>
				<path fill="#009444" d="M846.294,463.834c-6.555-19.099-18.863-40.8-18.863-40.8s12.372,21.37,24.524,38.134
					C851.955,461.169,851.352,466.021,846.294,463.834z"/>
				<path fill="#009444" d="M916.358,470.637c13.358-15.144,26.132-36.575,26.132-36.575s-12.454,21.323-21.014,40.177
					C921.477,474.239,916.962,476.114,916.358,470.637z"/>
				<path fill="#009444" d="M922.77,486.951c15.553-12.882,30.61-30.485,30.61-30.485s-14.728,17.549-26.117,34.841
					C927.263,491.307,922.51,492.455,922.77,486.951z"/>
				<path fill="#009444" d="M946.951,515.786c20.055-2.384,42.255-9.003,42.255-9.003s-21.894,6.751-40.845,15.097
					C948.361,521.88,943.748,520.267,946.951,515.786z"/>
				<path fill="#009444" d="M939.977,497.221c17.886-9.375,36.269-23.47,36.269-23.47s-18.047,14.11-32.778,28.662
					C943.467,502.412,938.582,502.551,939.977,497.221z"/>
				<path fill="#009444" d="M865.64,469.46c2.982-19.973,0.983-48.632,0.983-48.632s2.209,28.396,5.269,48.876
					C871.892,469.705,869.121,473.731,865.64,469.46z"/>
				<path fill="#009444" d="M835.575,476.717c-7.39-18.793-18.426-35.051-18.426-35.051s11.085,15.927,23.963,32.143
					C841.112,473.808,840.723,478.68,835.575,476.717z"/>
				<path fill="#009444" d="M819.13,488.936c-13.55-14.976-25.864-24.061-25.864-24.061s12.245,8.757,30.019,19.383
					C823.284,484.258,824.637,488.955,819.13,488.936z"/>
				<path d="M887.892,523.3c0,8.45,4.742,15.304,10.596,15.304c5.851,0,10.596-6.854,10.596-15.304
					c0-8.455-4.745-15.306-10.596-15.306C892.634,507.994,887.892,514.845,887.892,523.3z"/>
				<ellipse fill="#FFFFFF" cx="896.75" cy="522.331" rx="2.639" ry="3.812"/>
				<ellipse cx="820.384" cy="517.459" rx="8.746" ry="12.632"/>
				<path fill="none" stroke="#000000" stroke-width="1.0833" stroke-miterlimit="10" d="M964.48,564.777"/>
				
					<radialGradient id="SVGID_17_" cx="652.8765" cy="1271.291" r="59.9782" gradientTransform="matrix(-0.9242 0.3819 -0.3379 -0.8177 2005.0088 1328.2261)" gradientUnits="userSpaceOnUse">
					<stop  offset="8.370500e-04" style="stop-color:#AEC99D"/>
					<stop  offset="0.4059" style="stop-color:#31B457"/>
					<stop  offset="0.9702" style="stop-color:#008042"/>
				</radialGradient>
				<path fill="url(#SVGID_17_)" d="M954.335,543.866c5.217,0.511,8.503,3.594,17.638,9.265c9.14,5.67,16.246-4.137,19.928-11.667
					c3.528-7.213-0.987-15.201-15.39-21.979c-8.039-3.783-18.655-1.505-30.599,7.83c-5.315,4.154-10.347,8.861-7.569,12.488
					C941.116,543.431,948.006,543.248,954.335,543.866z"/>
				<ellipse fill="#FFFFFF" cx="822.043" cy="515.838" rx="2.144" ry="3.097"/>
				<g>
					<path fill="#A13422" d="M844.32,550.247c0,0,0.534-6.2,1.608-8.416c6.357-5.699,13.465,0.743,15.073,3.401
						c1.608,2.656,2.02,5.015,0.65,8.115c-1.37,3.101-7.02,12.143-11.666,10.371C845.342,561.947,844.32,550.247,844.32,550.247z"/>
					<path fill="#F9ED32" d="M863.397,550.212c-0.089,1.33-3.546-10.534-12.166-11.014c-5.503-0.308-4.231,5.436-6.377,4.849
						c-2.143-0.593-2.777-8.154,4.845-9.927C857.324,532.35,863.94,542.129,863.397,550.212z"/>
					<path fill="#F9ED32" d="M845.929,541.831c0,0-3.407,17.792,4.634,20.449c5.691,1.881,10.633-11.973,10.919-15.037
						c4.705-1.329,0.109,13.19-6.143,17.621c-6.253,4.429-10.827-1.062-11.973-7.088
						C841.938,550.247,843.04,543.825,845.929,541.831z"/>
					<path fill="#F1B937" d="M861.481,547.243c-0.957-1.34-1.011-1.366-3.065-4.021c-2.056-2.659-5.352-3.354-7.279-3.354
						c-2.49,0-4.702,3.069-5.268,4.179c-0.567,1.107,1.221,0,0.06-2.216c-1.162-2.214,2.165-5.167,6.357-4.263
						c4.885,1.055,6.033,2.203,8.237,6.321C862.389,547.377,861.481,547.243,861.481,547.243z"/>
					<path fill="#F1B937" d="M846.732,541.831c0,0-2.715,10.502-0.48,15.373c-2.503-2.215-1.342-9.386-0.767-12.547
						C845.926,542.235,846.732,541.831,846.732,541.831z"/>
					<path fill="#F1B937" d="M863.014,551.937c0,0-2.256,2.738-4.489,6.727c-2.233,3.986-6.878,8.637-10.005,7.086
						C854.298,568.507,860.141,562.09,863.014,551.937z"/>
				</g>
				
					<radialGradient id="SVGID_18_" cx="1151.3721" cy="575.541" r="79.9031" gradientTransform="matrix(-1 0 0 1 1972.7812 0)" gradientUnits="userSpaceOnUse">
					<stop  offset="0" style="stop-color:#DCCE80"/>
					<stop  offset="1" style="stop-color:#D7B928"/>
				</radialGradient>
				<path fill="url(#SVGID_18_)" d="M810.757,571.506c8.522-2.692,20.406-2.469,31.22-1.669c1.944,0.289,3.98,0.617,6.117,0.995
					c44.604,7.872,75.517,33.975,87.962,27.583c0,0-8.913,7.401-18.668,10.427c-6.938,2.153-26.308,5.493-47.684,3.007
					C844.62,605.816,819.728,595.724,810.757,571.506z"/>
				<path fill="none" stroke="#006028" stroke-width="1.2656" stroke-miterlimit="10" d="M986.554,536.16
					c0,0-12.694-11.93-23.249-9.288"/>
				<path fill="none" stroke="#006028" stroke-width="1.2656" stroke-miterlimit="10" d="M981.366,544.744
					c0,0-10.957-10.072-21.398-8.333"/>
				<path fill="#009444" d="M908.893,583.808c4.909,19.585,17.756,45.282,17.756,45.282s-12.938-25.374-23.623-43.108
					C903.025,585.981,904.038,581.2,908.893,583.808z"/>
				<path fill="#D4A94E" d="M879.276,589.172c-1.856,20.11,1.75,48.611,1.75,48.611s-3.802-28.229-8.006-48.5
					C873.021,589.283,875.561,585.105,879.276,589.172z"/>
				<path fill="#D4A94E" d="M904.493,599.301c2.93,19.979,9.195,35.441,9.195,35.441s-6.391-15.148-15.251-33.862
					C898.438,600.88,899.923,596.224,904.493,599.301z"/>
				<path fill="#D4A94E" d="M872.65,603.789c-4.71,18.509-6.726,36.673-6.726,36.673s1.007-17.829,0.614-38.018
					C866.539,602.444,869.982,598.969,872.65,603.789z"/>
				<path fill="#D4A94E" d="M838.894,596.581c-11.602,16.529-17.673,32.068-17.673,32.068s5.768-15.397,12.189-35.079
					C833.41,593.57,837.688,591.204,838.894,596.581z"/>
				<path fill="#D4A94E" d="M848.062,589.148c-8.403,18.361-14.426,46.451-14.426,46.451s5.75-27.896,8.486-48.419
					C842.122,587.181,845.9,584.079,848.062,589.148z"/>
				<ellipse fill="#107139" cx="851.346" cy="469.697" rx="5.606" ry="3.139"/>
				<ellipse fill="#107139" cx="859.867" cy="455.794" rx="2.466" ry="1.345"/>
				<ellipse fill="#107139" cx="884.984" cy="468.575" rx="2.915" ry="2.018"/>
				<circle fill="#107139" cx="915.706" cy="481.357" r="1.793"/>
				<circle fill="#107139" cx="949.343" cy="527.552" r="0.898"/>
				<path fill="#107139" d="M827.353,480.909c0,0.495,0.401,0.897,0.896,0.897c0.498,0,0.897-0.402,0.897-0.897
					c0-0.494-0.399-0.896-0.897-0.896C827.754,480.013,827.353,480.415,827.353,480.909z"/>
				<ellipse fill="#107139" cx="937.458" cy="504.456" rx="2.019" ry="1.569"/>
				<path fill="#D4A94E" d="M822.295,583.111c-16.395,11.789-35.684,27.741-35.684,27.741s18.953-15.918,31.497-32.39
					C818.108,578.463,822.927,577.639,822.295,583.111z"/>
				<path fill="#107139" d="M835.947,478.611c0,0-18.679,15.23-26.724,21.264C829.337,490.967,830.487,486.369,835.947,478.611z"/>
				<path fill="#107139" d="M889.84,478.524c0,0,10.058,12.931,33.908,25.862C909.955,501.227,896.162,494.904,889.84,478.524z"/>
			</g>
			<radialGradient id="SVGID_19_" cx="487.8911" cy="495.9463" r="194.9152" gradientUnits="userSpaceOnUse">
				<stop  offset="8.370500e-04" style="stop-color:#AEC99D"/>
				<stop  offset="0.4059" style="stop-color:#31B457"/>
				<stop  offset="0.7261" style="stop-color:#008544"/>
				<stop  offset="1" style="stop-color:#006A30"/>
			</radialGradient>
			<path fill="url(#SVGID_19_)" d="M434.949,679.347c47.493,44.994,119.981,38.745,158.725,11.248
				c38.744-27.494,74.988-54.99,52.491-132.479c-22.496-77.487-76.229-95.726-136.228-94.984
				c-50.617,0.624-94.985,44.993-114.982,94.984C394.956,558.116,387.456,634.354,434.949,679.347z"/>
			<path fill="#107139" d="M599.923,587.486c-6.506,1.34,1.25,12.499,14.998,16.873c13.748,4.374,19.373,41.243,19.373,41.243
				s8.748-6.873,11.872-12.498c3.125-5.623,5.625-20.621,5.625-20.621S621.169,583.113,599.923,587.486z"/>
			<path fill="#107139" d="M431.2,605.609c0,0-42.493-99.984-129.979-89.986c77.488,26.871,73.738,97.485,36.245,129.979
				c77.487-16.247,79.987,50.618,54.991,114.981C443.698,701.844,456.196,681.848,431.2,605.609z"/>
			<radialGradient id="SVGID_20_" cx="352.4834" cy="532.2607" r="96.5816" gradientUnits="userSpaceOnUse">
				<stop  offset="8.370500e-04" style="stop-color:#AEC99D"/>
				<stop  offset="0.4059" style="stop-color:#31B457"/>
				<stop  offset="0.7261" style="stop-color:#008544"/>
				<stop  offset="1" style="stop-color:#006A30"/>
			</radialGradient>
			<path fill="url(#SVGID_20_)" d="M304.422,517.866c0,0,92.408-2.243,133.097,119.038
				C426.271,560.046,363.472,506.619,304.422,517.866z"/>
			<radialGradient id="SVGID_21_" cx="675.5933" cy="572.1953" r="97.248" gradientUnits="userSpaceOnUse">
				<stop  offset="8.370500e-04" style="stop-color:#AEC99D"/>
				<stop  offset="0.4059" style="stop-color:#31B457"/>
				<stop  offset="0.9702" style="stop-color:#008042"/>
			</radialGradient>
			<path fill="url(#SVGID_21_)" d="M608.109,569.42c35.618-20.62,97.766-18.291,116.226,11.247
				c9.374,14.997-31.128,42.958-45.928,42.179c-17.809-0.937-28.12-23.434-64.673-23.433
				C600.478,599.413,582.33,584.344,608.109,569.42z"/>
			<path fill="none" stroke="#006028" stroke-width="1.463" stroke-miterlimit="10" d="M624.044,575.042
				c0,0,41.242-19.683,85.294,8.437"/>
			<path fill="none" stroke="#006028" stroke-width="1.463" stroke-miterlimit="10" d="M624.044,589.103
				c0,0,25.307-8.436,67.486,14.997"/>
			<ellipse fill="#107139" cx="433.074" cy="536.558" rx="3.749" ry="2.188"/>
			<ellipse fill="#107139" cx="462.133" cy="529.684" rx="5.937" ry="3.28"/>
			<ellipse fill="#107139" cx="491.815" cy="499.376" rx="4.999" ry="3.124"/>
			<ellipse fill="#107139" cx="558.054" cy="506.25" rx="6.249" ry="4.374"/>
			<ellipse fill="#107139" cx="562.116" cy="480.629" rx="2.812" ry="0.625"/>
			<ellipse fill="#107139" cx="618.67" cy="519.061" rx="3.828" ry="2.147"/>
			<ellipse fill="#107139" cx="447.134" cy="499.376" rx="2.812" ry="2.499"/>
			<ellipse fill="#107139" cx="518.998" cy="471.568" rx="5.312" ry="2.188"/>
			<path fill="#D8E040" d="M649.29,627.481c0,0-29.37,51.241-92.485,67.488c-71.992,18.533-103.733,0-103.733,0
				s49.367,39.369,121.855,9.374C647.416,674.349,649.29,627.481,649.29,627.481z"/>
			<radialGradient id="SVGID_22_" cx="546.1816" cy="678.3594" r="70.3072" gradientUnits="userSpaceOnUse">
				<stop  offset="0" style="stop-color:#DCCE80"/>
				<stop  offset="1" style="stop-color:#D7B928"/>
			</radialGradient>
			<path fill="url(#SVGID_22_)" d="M638.667,641.854c0,0-24.367,38.136-87.486,54.367c-65.615,16.871-97.484-1.251-97.484-1.251
				s48.443,38.722,115.606,8.124C625.543,677.474,638.667,641.854,638.667,641.854z"/>
			<path fill="#009444" d="M534.309,465.632c0,0,4.999,3.75,16.247,3.125c-2.5-9.999,4.375-108.734,4.375-108.734
				S543.682,438.761,534.309,465.632z"/>
			<path fill="#009444" d="M481.192,470.631c0,0,10.623-0.625,17.497-6.249c-9.999-14.998-34.37-88.111-34.37-88.111
				S479.317,437.511,481.192,470.631z"/>
			<path fill="#009444" d="M451.821,483.129l-9.998,8.123c0,0-16.873-36.244-34.37-59.99
				C429.325,461.257,451.821,483.129,451.821,483.129z"/>
			<path fill="#009444" d="M584.3,478.129c0,0,4.999,6.25,13.123,8.749c1.25-6.874,38.119-86.861,38.119-86.861
				S599.298,466.257,584.3,478.129z"/>
			<path fill="#009444" d="M619.919,507.5c0,0,0.625,4.998,6.249,11.247c3.75-7.498,66.24-54.991,66.24-54.991
				S634.917,502.5,619.919,507.5z"/>
			<path fill="#009444" d="M503.688,490.002c0,0-3.75-58.74-9.374-108.732c7.499,41.869,22.497,108.107,22.497,108.107
				L503.688,490.002z"/>
			<path fill="#009444" d="M468.693,523.747l16.248-5c0,0-34.995-65.613-50.617-98.109
				C448.072,456.258,468.693,523.747,468.693,523.747z"/>
			<polygon fill="#009444" points="456.82,545.619 449.322,554.367 396.83,510.624 			"/>
			<path fill="#009444" d="M434.324,510.624l9.374-9.374c0,0-21.871-6.873-61.241-34.369
				C418.077,493.127,434.324,510.624,434.324,510.624z"/>
			<path fill="#009444" d="M415.577,530.621c0,0-19.997-1.875-53.741-22.496c29.371,19.372,45.618,34.369,45.618,34.369
				L415.577,530.621z"/>
			<path fill="#009444" d="M556.805,494.377l13.748,3.75c0,0,8.749-49.368,18.123-88.737
				C577.426,442.511,556.805,494.377,556.805,494.377z"/>
			<path fill="#009444" d="M532.434,547.493c0,0,13.123-13.123,19.372-29.371c-1.25,18.123-6.875,33.745-6.875,33.745
				S536.183,558.116,532.434,547.493z"/>
			<path fill="#009444" d="M526.185,582.488c-12.498-2.501-9.374,12.497-2.5,12.497
				C530.559,594.985,536.886,584.629,526.185,582.488z"/>
			<path fill="#009444" d="M505.562,626.231c0,0,7.499-10.623,10.624,3.749c-6.874,17.497-17.497,41.244-17.497,41.244
				S503.688,646.228,505.562,626.231z"/>
			<polygon fill="#009444" points="493.69,675.598 475.568,753.086 505.562,679.972 			"/>
			<path fill="#009444" d="M483.691,567.49l-19.372,14.998l25.621-6.25C489.94,576.238,493.065,564.99,483.691,567.49z"/>
			<path fill="#009444" d="M464.319,611.233l-25.621,9.999l18.747-19.373C457.445,601.859,463.069,606.234,464.319,611.233z"/>
			<path fill="#009444" d="M587.425,566.24l23.122-9.373l-26.246-1.25C584.3,555.617,578.676,561.241,587.425,566.24z"/>
			<path fill="#009444" d="M548.056,628.105c0,0,6.25-13.748,13.748-5.624c5.625,25.62,6.874,46.242,6.874,46.242L548.056,628.105z"
				/>
			<polygon fill="#009444" points="562.429,672.474 584.925,731.839 574.927,668.724 			"/>
			<polygon fill="#D4A94E" points="471.818,703.719 461.194,748.711 479.317,706.844 			"/>
			<polygon fill="#D4A94E" points="513.687,707.469 514.311,766.835 520.561,707.469 			"/>
			<polygon fill="#D4A94E" points="551.181,705.593 566.803,763.084 556.805,703.094 			"/>
			<polygon fill="#D4A94E" points="586.8,692.471 614.295,732.464 591.799,687.471 			"/>
			<path fill="#D4A94E" d="M616.171,668.099c0,0,3.749-3.749,5.623-3.749c1.875,0,32.495,36.245,30.62,36.245
				C650.54,700.595,616.171,668.099,616.171,668.099z"/>
			<polygon fill="#D4A94E" points="642.417,647.478 669.912,664.35 646.79,641.229 			"/>
			<path fill="#009444" d="M477.442,621.232l-25.621,46.242l36.245-41.243C488.066,626.231,491.19,614.983,477.442,621.232z"/>
			<polygon fill="#009444" points="464.319,668.099 425.576,737.463 473.693,673.099 			"/>
			<polygon fill="#009444" points="639.292,550.617 691.159,530.621 636.167,540.619 			"/>
			<polygon fill="#009444" points="583.675,525.622 630.543,475.005 588.675,530.621 			"/>
			<polygon fill="#009444" points="643.041,620.607 683.034,647.478 643.041,628.105 			"/>
			<circle fill="#FFFFFF" cx="610.453" cy="406.796" r="7.967"/>
			<circle fill="#FFFFFF" cx="624.043" cy="376.333" r="5.624"/>
			<circle fill="#FFFFFF" cx="608.109" cy="381.958" r="2.344"/>
			<circle fill="#FFFFFF" cx="607.172" cy="350.089" r="1.875"/>
			<circle fill="#FFFFFF" cx="606.703" cy="333.687" r="5.155"/>
			<circle fill="#FFFFFF" cx="625.449" cy="356.181" r="3.28"/>
			<circle fill="#FFFFFF" cx="590.3" cy="305.099" r="1.875"/>
			<circle fill="#FFFFFF" cx="603.422" cy="291.039" r="1.875"/>
			<circle fill="#FFFFFF" cx="625.449" cy="273.699" r="6.093"/>
			<circle fill="#FFFFFF" cx="604.36" cy="252.609" r="1.875"/>
			<circle fill="#FFFFFF" cx="595.455" cy="429.291" r="1.406"/>
			<circle fill="#FFFFFF" cx="640.915" cy="366.96" r="2.344"/>
			<ellipse fill="#FFFFFF" cx="847.592" cy="406.796" rx="6.198" ry="7.967"/>
			<ellipse fill="#FFFFFF" cx="837.021" cy="376.333" rx="4.374" ry="5.624"/>
			<ellipse fill="#FFFFFF" cx="849.416" cy="381.958" rx="1.823" ry="2.343"/>
			<ellipse fill="#FFFFFF" cx="850.145" cy="350.089" rx="1.458" ry="1.875"/>
			<ellipse fill="#FFFFFF" cx="835.927" cy="356.181" rx="2.552" ry="3.281"/>
			<ellipse fill="#FFFFFF" cx="859.258" cy="429.291" rx="1.093" ry="1.406"/>
			<ellipse fill="#FFFFFF" cx="823.896" cy="366.96" rx="1.822" ry="2.343"/>
		</g>
	</g>
</g>
<g id="Layer_12">
	<rect x="270.728" y="203" opacity="0.8" fill="#FFFFFF" width="896.964" height="597.977"/>
</g>
<g id="Layer_11">
	
		<rect x="270.728" y="203" fill="none" stroke="#1D5D2E" stroke-width="8.2572" stroke-miterlimit="10" width="896.964" height="597.977"/>
</g>
<g id="Layer_4">
	<rect x="-200" y="-25" fill="#5D5E5E" width="200" height="1000"/>
	<rect x="1440" y="-25" fill="#5D5E5E" width="200" height="1000"/>
	<rect x="-163" y="-200" fill="#5D5E5E" width="1674" height="200"/>
	<rect x="-163" y="960" fill="#5D5E5E" width="1674" height="200"/>
</g>
</svg>
