<?xml version="1.0" encoding="utf-8"?>
<!-- Generator: Adobe Illustrator 16.0.0, SVG Export Plug-In . SVG Version: 6.00 Build 0)  -->
<!DOCTYPE svg PUBLIC "-//W3C//DTD SVG 1.1//EN" "http://www.w3.org/Graphics/SVG/1.1/DTD/svg11.dtd">
<svg version="1.1" id="Layer_1" xmlns="http://www.w3.org/2000/svg" xmlns:xlink="http://www.w3.org/1999/xlink" x="0px" y="0px"
	 width="1440px" height="960px" viewBox="0 0 1440 960" enable-background="new 0 0 1440 960" xml:space="preserve">
<g id="WATER">
	
		<linearGradient id="SVGID_1_" gradientUnits="userSpaceOnUse" x1="718.9038" y1="38" x2="718.9038" y2="430.0052" gradientTransform="matrix(1 0 0 1 0 169)">
		<stop  offset="0" style="stop-color:#5BC0AC"/>
		<stop  offset="0.4898" style="stop-color:#00A388"/>
		<stop  offset="1" style="stop-color:#008670"/>
	</linearGradient>
	<rect x="-9.479" y="-6.334" fill="url(#SVGID_1_)" width="1456.766" height="974"/>
</g>
<g id="SEA">
	<path fill="#B1D9AC" d="M1491,265c126.08-25.216-364,204-568,166s-284-98-504-82S71,323-15,395s-44,96-44,96s54-62,180-78
		s268-64,376-22s226,82,380,86s236-10,364-42s220-84,254-102S1481,267,1491,265z"/>
	<path fill="#AEDBC3" d="M1505,243c-72,24-158,142-362,166s12,14-288-34s-340-84-458-66s-74,52-240,46s-242,42-258,50s80-104,80-104
		s54-10,174-6s160-70,384-30s430,78,566,70s358-102,364-104S1505,243,1505,243z"/>
	<path opacity="0.3" fill="#AEDBC3" enable-background="new    " d="M1535,251c0,0-82,106-340,126S651,261,409,271s-506,98-506,98
		v94c0,0,314-148,578-110s572,122,792,70s284-110,284-110L1535,251z"/>
	<path opacity="0.3" fill="#AEDBC3" enable-background="new    " d="M1437,223c0,0-82,106-340,126S553,233,311,243s-356,84-356,84
		v94c0,0,164-134,428-96s572,122,792,70s438-220,438-220L1437,223z"/>
	<path opacity="0.3" fill="#AEDBC3" enable-background="new    " d="M1499,415c0,0-202,170-460,190S495,489,253,499s-356,84-356,84
		v94c0,0,164-134,428-96s572,122,792,70s438-220,438-220L1499,415z"/>
	<path opacity="0.3" fill="#AEDBC3" enable-background="new    " d="M1499,507c0,0-214,134-472,154S483,545,241,555s-356,84-356,84
		l2,48c0,0,166-128,430-90s568,162,788,110s438-220,438-220L1499,507z"/>
</g>
<g id="GROUND">
	<path opacity="0.3" fill="#B3BE9B" enable-background="new    " d="M1467.24,899.869c-97.17,32.391-627.646-32.939-848.659-69.141
		c-221.014-36.199-701.485,91.868-727.204,128.068C-134.341,995-101,995-101,995s271.838-160.459,618.602-124.259
		c346.766,36.2,594.455,219.106,865.006,182.909C1465,989,1467.24,899.869,1467.24,899.869z"/>
	<path fill="#C2B59B" d="M-48,861c68-18,130-48,314-30s398,44,538,36s398-10,468,6c61.552,14.069,266.877-31.095,233-44
		c-1.653-0.63-20.979,241.224-28,250c-16,20-132,4-164,12s-494,34-680,30s-258-6-416-20s-220,24-242-10S-48,861-48,861z"/>
	<path fill="#867757" d="M591.096,1115.062c-56.01-5-103.097,28.436-130.096-18.062c-46.498-3-71.056,25.062-60.394,11.069
		C432.606,1066.069,826,1005,844,1003s250-68,342-66s223-8,228,54s-95,89-105,94s-218,15-260,29S591.096,1115.062,591.096,1115.062z
		"/>
	<path fill="#867757" d="M-74,923c0,0,218-140,634-22c-110,0-76,0-226,18S63,1019-74,923z"/>
	<ellipse fill="#867757" cx="119" cy="1000" rx="9" ry="5"/>
	<ellipse fill="#867757" cx="161" cy="1016" rx="3" ry="1"/>
	<circle fill="#867757" cx="110" cy="1027" r="6"/>
	<circle fill="#867757" cx="131" cy="1042" r="7"/>
	<circle fill="#867757" cx="685" cy="911" r="7"/>
	<circle fill="#867757" cx="1232" cy="896" r="7"/>
	<circle fill="#867757" cx="161" cy="1016" r="5"/>
	<circle fill="#867757" cx="1381" cy="900" r="3"/>
	<circle fill="#867757" cx="259" cy="1113" r="3"/>
	<circle fill="#867757" cx="150" cy="1066" r="3"/>
	<circle fill="#867757" cx="287" cy="1059" r="3"/>
	<circle fill="#867757" cx="508" cy="968" r="3"/>
	<circle fill="#867757" cx="731" cy="955" r="3"/>
	<circle fill="#867757" cx="593" cy="1007" r="3"/>
	<circle fill="#867757" cx="1058" cy="917" r="3"/>
	<circle fill="#867757" cx="784" cy="908" r="3"/>
	<circle fill="#867757" cx="17" cy="863" r="3"/>
	<circle fill="#867757" cx="77" cy="849" r="3"/>
	<circle fill="#867757" cx="116" cy="847" r="3"/>
	<circle fill="#867757" cx="1405" cy="882" r="5"/>
	<circle fill="#867757" cx="1409.5" cy="930.5" r="9.5"/>
	<path fill="#73643E" d="M-52,917c-5.657-2.828,72-54,226-62s366,42,366,42s-178-22-300-8S52,969-52,917z"/>
	<path fill="#73643E" d="M1432,965c0,0-78-44-216-32s-356,72-414,80s-246,54-246,54s268-34,384-52s272-72,330-40s184,52,184,52
		L1432,965z"/>
	<path fill="#AEDBC3" d="M1735,977"/>
	<path opacity="0.4" fill="#4C3C1A" enable-background="new    " d="M629,881c0,0,170-8,270,0s256,14,282,10s276,58,276,58
		s88,26-2,32s-636-6-646-8s-98-50-114-52S629,881,629,881z"/>
</g>
<g id="UMA">
	<polygon fill="#D09611" points="573.098,730.578 493.602,691.58 582.098,711.079 	"/>
	<polygon fill="#D09611" points="574.598,813.074 505.602,807.074 571.599,795.075 	"/>
	<polygon fill="#D09611" points="606.096,870.071 541.6,879.07 603.097,852.072 	"/>
	<polygon fill="#D09611" points="615.095,660.082 534.1,595.585 624.095,640.583 	"/>
	<polygon fill="#D09611" points="670.593,603.085 619.596,531.088 687.092,588.085 	"/>
	<polygon fill="#D09611" points="741.09,555.088 703.591,478.591 757.589,540.088 	"/>
	<polygon fill="#D09611" points="820.586,525.09 811.586,448.592 834.085,520.589 	"/>
	<polygon fill="#D09611" points="891.082,520.59 906.081,444.092 904.581,516.089 	"/>
	<polygon fill="#D09611" points="967.578,532.589 982.577,456.091 981.077,528.088 	"/>
	<polygon fill="#D09611" points="1047.074,540.088 1080.072,489.09 1063.573,547.587 	"/>
	<polygon fill="#D09611" points="1111.57,582.086 1152.069,529.588 1128.07,592.585 	"/>
	<polygon fill="#D09611" points="1170.068,634.583 1222.564,595.585 1183.567,652.582 	"/>
	<polygon fill="#D09611" points="1210.566,697.58 1278.062,670.581 1224.064,715.579 	"/>
	<polygon fill="#D09611" points="1227.064,751.577 1308.062,745.577 1240.564,769.576 	"/>
	<polygon fill="#D09611" points="1224.064,801.074 1293.062,813.074 1222.564,822.073 	"/>
	<polygon fill="#D09611" points="1210.566,847.571 1273.562,876.07 1209.066,868.57 	"/>
	
		<radialGradient id="SVGID_2_" cx="838.584" cy="518.0811" r="296.595" gradientTransform="matrix(1 0 0 1 0 169)" gradientUnits="userSpaceOnUse">
		<stop  offset="8.370500e-04" style="stop-color:#F6E39D"/>
		<stop  offset="0.4059" style="stop-color:#FFE72A"/>
		<stop  offset="0.7261" style="stop-color:#F6D933"/>
		<stop  offset="1" style="stop-color:#F8BE15"/>
	</radialGradient>
	<path fill="url(#SVGID_2_)" d="M1191.066,894.07c0,0-140.993-7.499-233.988-8.999s-275.986,4.5-314.984-1.5
		s-85.496-47.997-74.996-133.493s130.494-206.99,221.989-227.989s253.487,3,310.484,43.498s148.493,118.494,139.493,214.489
		S1191.066,894.07,1191.066,894.07z"/>
	
		<radialGradient id="SVGID_3_" cx="280.3813" cy="444.6113" r="0" gradientTransform="matrix(0.9902 0.1396 -0.1396 0.9902 81.5011 20.3359)" gradientUnits="userSpaceOnUse">
		<stop  offset="8.370500e-04" style="stop-color:#AEC99D"/>
		<stop  offset="0.4059" style="stop-color:#31B457"/>
		<stop  offset="0.7261" style="stop-color:#008544"/>
		<stop  offset="1" style="stop-color:#006A30"/>
	</radialGradient>
	<path fill="url(#SVGID_3_)" d="M297.067,499.73"/>
	<path fill="#EF4136" d="M628.595,886.571c0,0-34.498-40.499-19.499-133.494s98.995-220.488,235.488-239.987
		c-61.497,23.998-175.491,91.495-208.49,206.989s12,166.492,12,166.492H628.595z"/>
	<path fill="#F7941E" d="M635.595,887.571c0,0-34.498-40.499-19.499-133.494s98.995-220.488,235.488-239.987
		c-61.497,23.998-175.491,91.495-208.49,206.989s12,166.492,12,166.492H635.595z"/>
	<path fill="#EF4136" d="M711.091,885.071c0,0-49.498-85.496-4.5-202.49S790.587,534.09,862.583,517.59
		c-34.498,20.998-107.995,67.497-139.493,170.991s9,196.49,9,196.49H711.091L711.091,885.071z"/>
	<path fill="#F7941E" d="M717.091,887.071c0,0-49.498-85.496-4.5-202.49S796.587,536.09,868.583,519.59
		c-34.498,20.998-107.995,67.497-139.493,170.991s9,196.49,9,196.49H717.091L717.091,887.071z"/>
	<path fill="#EF4136" d="M835.586,887.577c0,0-34.5-43.004-31.5-133c2.785-83.546,38.999-211.488,86.996-241.487
		c-22.499,38.998-58.498,149.992-65.997,250.487C819.611,836.931,855,887,855,887L835.586,887.577z"/>
	<path fill="#F7941E" d="M843.501,885c0,0-34.5-43.004-31.5-133c2.785-83.546,38.999-211.488,86.996-241.487
		C876.498,549.511,840.499,660.505,833,761c-5.474,73.354,33,127,33,127L843.501,885z"/>
	<path fill="#EF4136" d="M918.58,517.59c0,0,139.494,115.494,113.995,278.985c-11.438,73.325-37.498,91.495-37.498,91.495
		l31.498-1.499c0,0,13.499-20.999,22.498-86.996C1067.531,664.21,981.576,540.089,918.58,517.59z"/>
	<path fill="#F7941E" d="M910.58,517.59c0,0,139.494,115.494,113.995,278.985c-11.438,73.325-37.498,91.495-37.498,91.495
		l31.498-1.499c0,0,13.499-20.999,22.498-86.996C1059.531,664.21,973.576,540.089,910.58,517.59z"/>
	<path fill="#EF4136" d="M997.576,531.089c0,0,139.934,62.521,143.993,196.49c3,98.995-23.999,130.492-40.498,160.491
		c25.498,0,29.998,1.5,29.998,1.5s32.998-85.495,23.999-163.491S1084.572,556.588,997.576,531.089z"/>
	<path fill="#F7941E" d="M990.576,531.089c0,0,139.934,62.521,143.993,196.49c3,98.995-23.999,130.492-40.498,160.491
		c25.498,0,29.998,1.5,29.998,1.5s32.998-85.495,23.999-163.491S1077.572,556.588,990.576,531.089z"/>
	<path fill="#EF4136" d="M1105,572c0,0,109.499,128.009,101.999,212.005s-43.498,110.994-43.498,110.994L1186,892
		c0,0,28.632-24.104,35.998-112.495C1227.998,707.509,1140.998,595.999,1105,572z"/>
	<path fill="#F7941E" d="M1105,572c0,0,101.499,125.009,93.999,209.005s-43.498,110.994-43.498,110.994L1178,889
		c0,0,28.632-24.104,35.998-112.495C1219.998,704.509,1140.998,595.999,1105,572z"/>
	
		<radialGradient id="SVGID_4_" cx="765.0586" cy="291.4102" r="48.8471" gradientTransform="matrix(1 0 0 1 0 169)" gradientUnits="userSpaceOnUse">
		<stop  offset="8.370500e-04" style="stop-color:#F6E39D"/>
		<stop  offset="0.4059" style="stop-color:#FFE72A"/>
		<stop  offset="0.7261" style="stop-color:#F6D933"/>
		<stop  offset="1" style="stop-color:#F8BE15"/>
	</radialGradient>
	<polygon fill="url(#SVGID_4_)" points="796,521 744,404 781,528 	"/>
	
		<radialGradient id="SVGID_5_" cx="852.9346" cy="282.9551" r="45.3035" gradientTransform="matrix(1 0 0 1 0 169)" gradientUnits="userSpaceOnUse">
		<stop  offset="8.370500e-04" style="stop-color:#F6E39D"/>
		<stop  offset="0.4059" style="stop-color:#FFE72A"/>
		<stop  offset="0.7261" style="stop-color:#F6D933"/>
		<stop  offset="1" style="stop-color:#F8BE15"/>
	</radialGradient>
	<polygon fill="url(#SVGID_5_)" points="869,517 842,396 853,519 	"/>
	
		<radialGradient id="SVGID_6_" cx="939.4795" cy="292.5898" r="43.4343" gradientTransform="matrix(1 0 0 1 0 169)" gradientUnits="userSpaceOnUse">
		<stop  offset="8.370500e-04" style="stop-color:#F6E39D"/>
		<stop  offset="0.4059" style="stop-color:#FFE72A"/>
		<stop  offset="0.7261" style="stop-color:#F6D933"/>
		<stop  offset="1" style="stop-color:#F8BE15"/>
	</radialGradient>
	<polygon fill="url(#SVGID_6_)" points="949,525 943,407 933,527 	"/>
	
		<radialGradient id="SVGID_7_" cx="1014.1494" cy="294.2295" r="47.3242" gradientTransform="matrix(1 0 0 1 0 169)" gradientUnits="userSpaceOnUse">
		<stop  offset="8.370500e-04" style="stop-color:#F6E39D"/>
		<stop  offset="0.4059" style="stop-color:#FFE72A"/>
		<stop  offset="0.7261" style="stop-color:#F6D933"/>
		<stop  offset="1" style="stop-color:#F8BE15"/>
	</radialGradient>
	<polygon fill="url(#SVGID_7_)" points="1018,531 1032,405 1002,533 	"/>
	
		<radialGradient id="SVGID_8_" cx="1097.0342" cy="339.2217" r="42.1807" gradientTransform="matrix(1 0 0 1 0 169)" gradientUnits="userSpaceOnUse">
		<stop  offset="8.370500e-04" style="stop-color:#F6E39D"/>
		<stop  offset="0.4059" style="stop-color:#FFE72A"/>
		<stop  offset="0.7261" style="stop-color:#F6D933"/>
		<stop  offset="1" style="stop-color:#F8BE15"/>
	</radialGradient>
	<polygon fill="url(#SVGID_8_)" points="1092,566 1125,460 1078,558 	"/>
	
		<radialGradient id="SVGID_9_" cx="1164.4639" cy="397.9424" r="38.3228" gradientTransform="matrix(1 0 0 1 0 169)" gradientUnits="userSpaceOnUse">
		<stop  offset="8.370500e-04" style="stop-color:#F6E39D"/>
		<stop  offset="0.4059" style="stop-color:#FFE72A"/>
		<stop  offset="0.7261" style="stop-color:#F6D933"/>
		<stop  offset="1" style="stop-color:#F8BE15"/>
	</radialGradient>
	<polygon fill="url(#SVGID_9_)" points="1157,616 1196,526 1143,608 	"/>
	
		<radialGradient id="SVGID_10_" cx="1225.9688" cy="465.9385" r="40.4703" gradientTransform="matrix(1 0 0 1 0 169)" gradientUnits="userSpaceOnUse">
		<stop  offset="8.370500e-04" style="stop-color:#F6E39D"/>
		<stop  offset="0.4059" style="stop-color:#FFE72A"/>
		<stop  offset="0.7261" style="stop-color:#F6D933"/>
		<stop  offset="1" style="stop-color:#F8BE15"/>
	</radialGradient>
	<polygon fill="url(#SVGID_10_)" points="1210,678 1270,599 1196,670 	"/>
	
		<radialGradient id="SVGID_11_" cx="1272.7627" cy="542.291" r="47.5411" gradientTransform="matrix(1 0 0 1 0 169)" gradientUnits="userSpaceOnUse">
		<stop  offset="8.370500e-04" style="stop-color:#F6E39D"/>
		<stop  offset="0.4059" style="stop-color:#FFE72A"/>
		<stop  offset="0.7261" style="stop-color:#F6D933"/>
		<stop  offset="1" style="stop-color:#F8BE15"/>
	</radialGradient>
	<polygon fill="url(#SVGID_11_)" points="1230,738 1340,689 1227,725 	"/>
	
		<radialGradient id="SVGID_12_" cx="1277.3828" cy="609.9141" r="45.983" gradientTransform="matrix(1 0 0 1 0 169)" gradientUnits="userSpaceOnUse">
		<stop  offset="8.370500e-04" style="stop-color:#F6E39D"/>
		<stop  offset="0.4059" style="stop-color:#FFE72A"/>
		<stop  offset="0.7261" style="stop-color:#F6D933"/>
		<stop  offset="1" style="stop-color:#F8BE15"/>
	</radialGradient>
	<polygon fill="url(#SVGID_12_)" points="1233,786 1347,773 1230,773 	"/>
	
		<radialGradient id="SVGID_13_" cx="1265.2178" cy="668.4629" r="49.1785" gradientTransform="matrix(1 0 0 1 0 169)" gradientUnits="userSpaceOnUse">
		<stop  offset="8.370500e-04" style="stop-color:#F6E39D"/>
		<stop  offset="0.4059" style="stop-color:#FFE72A"/>
		<stop  offset="0.7261" style="stop-color:#F6D933"/>
		<stop  offset="1" style="stop-color:#F8BE15"/>
	</radialGradient>
	<polygon fill="url(#SVGID_13_)" points="1218,840 1339,850 1215,827 	"/>
	
		<radialGradient id="SVGID_14_" cx="659.6387" cy="340.041" r="52.3093" gradientTransform="matrix(1 0 0 1 0 169)" gradientUnits="userSpaceOnUse">
		<stop  offset="8.370500e-04" style="stop-color:#F6E39D"/>
		<stop  offset="0.4059" style="stop-color:#FFE72A"/>
		<stop  offset="0.7261" style="stop-color:#F6D933"/>
		<stop  offset="1" style="stop-color:#F8BE15"/>
	</radialGradient>
	<path fill="url(#SVGID_14_)" d="M712,559l-88-100l78,110C702,569,709,560,712,559z"/>
	
		<radialGradient id="SVGID_15_" cx="588.7383" cy="401.2178" r="54.2312" gradientTransform="matrix(1 0 0 1 0 169)" gradientUnits="userSpaceOnUse">
		<stop  offset="8.370500e-04" style="stop-color:#F6E39D"/>
		<stop  offset="0.4059" style="stop-color:#FFE72A"/>
		<stop  offset="0.7261" style="stop-color:#F6D933"/>
		<stop  offset="1" style="stop-color:#F8BE15"/>
	</radialGradient>
	<path fill="url(#SVGID_15_)" d="M653,612l-108-85l98,95C643,622,650,613,653,612z"/>
	
		<radialGradient id="SVGID_16_" cx="532.0273" cy="475.4834" r="56.6363" gradientTransform="matrix(1 0 0 1 0 169)" gradientUnits="userSpaceOnUse">
		<stop  offset="8.370500e-04" style="stop-color:#F6E39D"/>
		<stop  offset="0.4059" style="stop-color:#FFE72A"/>
		<stop  offset="0.7261" style="stop-color:#F6D933"/>
		<stop  offset="1" style="stop-color:#F8BE15"/>
	</radialGradient>
	<path fill="url(#SVGID_16_)" d="M607,677l-126-68l116,78C597,687,604,678,607,677z"/>
	
		<radialGradient id="SVGID_17_" cx="507.7871" cy="590.1885" r="46.5861" gradientTransform="matrix(1 0 0 1 0 169)" gradientUnits="userSpaceOnUse">
		<stop  offset="8.370500e-04" style="stop-color:#F6E39D"/>
		<stop  offset="0.4059" style="stop-color:#FFE72A"/>
		<stop  offset="0.7261" style="stop-color:#F6D933"/>
		<stop  offset="1" style="stop-color:#F8BE15"/>
	</radialGradient>
	<path fill="url(#SVGID_17_)" d="M578,756l-118-5l118,18C578,769,575,757,578,756z"/>
	
		<radialGradient id="SVGID_18_" cx="521.2891" cy="673.1025" r="45.1155" gradientTransform="matrix(1 0 0 1 0 169)" gradientUnits="userSpaceOnUse">
		<stop  offset="8.370500e-04" style="stop-color:#F6E39D"/>
		<stop  offset="0.4059" style="stop-color:#FFE72A"/>
		<stop  offset="0.7261" style="stop-color:#F6D933"/>
		<stop  offset="1" style="stop-color:#F8BE15"/>
	</radialGradient>
	<path fill="url(#SVGID_18_)" d="M584,828l-108,31l109-18C585,841,592,832,584,828z"/>
	
		<linearGradient id="SVGID_19_" gradientUnits="userSpaceOnUse" x1="635.5947" y1="564.8594" x2="1241.002" y2="564.8594" gradientTransform="matrix(1 0 0 1 0 169)">
		<stop  offset="0" style="stop-color:#FFFFFF"/>
		<stop  offset="1" style="stop-color:#651819"/>
	</linearGradient>
	<path opacity="0.4" fill="url(#SVGID_19_)" enable-background="new    " d="M635.595,887.571C635.595,887.571,821,875,887,851
		s76-150,178-162s47-99,27-123c84,42,148.564,122.58,149,201c0.355,64.03-40,124-40,124s-116,14-262,10
		S635.595,887.571,635.595,887.571z"/>
	<path fill="#FBB040" d="M595.597,829.573l-127.494,10.499l116.995-28.498C585.098,811.574,603.096,805.574,595.597,829.573z"/>
	<polygon fill="#FBB040" points="591.097,769.576 472.603,720.078 598.597,756.077 	"/>
	<polygon fill="#FBB040" points="613.596,699.08 534.1,631.583 619.596,685.58 	"/>
	<polygon fill="#FBB040" points="652.594,621.084 580.598,541.588 663.094,609.084 	"/>
	<polygon fill="#FBB040" points="723.091,556.587 658.594,462.092 735.09,553.587 	"/>
	<polygon fill="#FBB040" points="796,521 777.088,432.093 811.586,520.589 	"/>
	<polygon fill="#FBB040" points="1189.567,652.582 1243.564,594.085 1197.066,666.081 	"/>
	<polygon fill="#FBB040" points="1218.064,720.078 1302.062,681.08 1216.564,732.078 	"/>
	<polygon fill="#FBB040" points="1233.064,802.574 1338.061,810.074 1237.564,789.075 	"/>
	<polygon fill="#FBB040" points="694.592,646.582 624.096,567.086 709.591,634.583 	"/>
	<polygon fill="#FBB040" points="669.093,699.08 583.598,627.083 679.593,676.581 	"/>
	<polygon fill="#FBB040" points="663.094,747.077 561.099,711.079 654.094,763.576 	"/>
	<polygon fill="#FBB040" points="654.094,801.074 559.599,801.074 658.594,816.074 	"/>
	<polygon fill="#FBB040" points="658.594,849.072 571.598,877.57 669.093,864.071 	"/>
	<polygon fill="#FBB040" points="744.09,588.085 679.593,460.592 760.589,579.086 	"/>
	<polygon fill="#FBB040" points="801.087,534.088 771.088,412.594 814.586,526.588 	"/>
	<polygon fill="#FBB040" points="1057.574,550.587 1105.571,448.592 1075.573,562.587 	"/>
	<polygon fill="#FBB040" points="1110.071,601.585 1177.567,496.59 1125.07,613.584 	"/>
	<polygon fill="#FBB040" points="1152.069,661.582 1233.064,579.086 1159.568,682.58 	"/>
	<polygon fill="#FBB040" points="1174.568,717.079 1320.061,690.08 1176.068,736.578 	"/>
	<polygon fill="#FBB040" points="1186.567,780.076 1329.061,793.575 1185.067,795.075 	"/>
	<polygon fill="#FBB040" points="1177.567,852.072 1315.561,867.071 1179.067,838.572 	"/>
	<polygon fill="#FBB040" points="760.589,850.572 642.095,841.572 760.589,837.072 	"/>
	<polygon fill="#FBB040" points="754.589,799.574 630.095,775.576 759.089,777.076 	"/>
	<polygon fill="#FBB040" points="756.089,744.077 643.595,703.579 760.589,724.578 	"/>
	<polygon fill="#FBB040" points="772.588,681.08 681.093,625.583 775.588,663.081 	"/>
	<polygon fill="#FBB040" points="787.587,627.083 712,559 799.587,609.084 	"/>
	<polygon fill="#FBB040" points="825.085,570.086 744.09,487.59 813.086,582.086 	"/>
	<polygon fill="#FBB040" points="846.084,543.088 817.586,415.594 858.084,532.588 	"/>
	<polygon fill="#FBB040" points="975.078,543.087 1009.576,438.093 994.577,553.587 	"/>
	<polygon fill="#FBB040" points="1017.076,579.086 1069.573,453.092 1035.075,588.085 	"/>
	<polygon fill="#FBB040" points="1059.073,612.084 1141.569,516.089 1071.073,630.083 	"/>
	<polygon fill="#FBB040" points="1084.572,660.082 1200.066,570.086 1096.572,675.081 	"/>
	<polygon fill="#FBB040" points="1102.571,706.579 1243.564,687.08 1110.071,726.078 	"/>
	<polygon fill="#FBB040" points="1108.571,772.576 1230,773 1107.071,754.577 	"/>
	<polygon fill="#FBB040" points="1110.071,834.073 1233.064,843.072 1114.571,814.574 	"/>
	<polygon fill="#FBB040" points="1087.572,874.571 1186,892 1096.572,853.572 	"/>
	<polygon fill="#FBB040" points="937.58,570.086 960.078,520.589 954.079,589.585 	"/>
	<polygon fill="#FBB040" points="879.083,592.585 846.084,528.088 889.582,570.086 	"/>
	<polygon fill="#FBB040" points="873.083,642.082 816.086,616.584 874.583,675.081 	"/>
	<polygon fill="#FBB040" points="960.078,636.083 964.578,669.081 1033.575,616.584 	"/>
	<polygon fill="#FBB040" points="858.084,727.578 774.088,721.578 850.584,751.577 	"/>
	<polygon fill="#FBB040" points="861.084,798.074 771.088,807.074 862.584,820.573 	"/>
	<polygon fill="#FBB040" points="873.083,853.572 882.082,873.071 799.587,892.57 	"/>
	<polygon fill="#FBB040" points="985.577,715.579 990.077,741.078 1081.572,706.579 	"/>
	<polygon fill="#FBB040" points="1000.576,771.076 999.076,795.075 1107.071,799.574 	"/>
	<polygon fill="#FBB040" points="999.076,837.072 987.077,859.571 1086.072,891.07 	"/>
	<path fill="#FBB040" d="M906.081,601.585l6-41.998l10.499,44.997C922.58,604.584,907.581,609.085,906.081,601.585z"/>
	<polygon fill="#FBB040" points="907.581,675.081 918.081,643.582 927.08,678.081 	"/>
	<path fill="#FBB040" d="M919.581,715.579c-11.734,3.911-10.501,34.498,1.499,32.998S933.081,711.08,919.581,715.579z"/>
	<polygon fill="#FBB040" points="909.081,792.075 922.58,837.072 934.58,792.075 	"/>
	<polygon fill="#FBB040" points="916.581,861.071 925.58,915.068 931.58,862.571 	"/>
</g>
<g id="PABLO">
	
		<radialGradient id="SVGID_20_" cx="2073.4238" cy="461.7197" r="54.6091" gradientTransform="matrix(-0.8938 -0.126 -0.1396 0.9902 2306.5532 334.4925)" gradientUnits="userSpaceOnUse">
		<stop  offset="8.370500e-04" style="stop-color:#AEC99D"/>
		<stop  offset="0.4059" style="stop-color:#31B457"/>
		<stop  offset="0.9702" style="stop-color:#008042"/>
	</radialGradient>
	<path fill="url(#SVGID_20_)" d="M362.693,518.325c11.423-3.438,17.44-4.104,33.586,4.229c16.144,8.335,14.165,24.12-0.67,24.145
		c-14.834,0.021-18.504-14.225-25.375-17.212C358.146,524.229,357.57,519.867,362.693,518.325z"/>
	<path fill="none" stroke="#006028" stroke-width="1.122" stroke-miterlimit="10" d="M373.488,519.343c0,0,15.71,1.71,26.757,13.872
		"/>
	<path fill="none" stroke="#006028" stroke-width="1.122" stroke-miterlimit="10" d="M371.798,521.629
		c0,0,13.771,9.011,19.97,19.984"/>
	
		<radialGradient id="SVGID_21_" cx="309.4761" cy="437.4995" r="153.2732" gradientTransform="matrix(0.9902 0.1396 -0.1396 0.9902 81.5011 20.3359)" gradientUnits="userSpaceOnUse">
		<stop  offset="8.370500e-04" style="stop-color:#AEC99D"/>
		<stop  offset="0.4059" style="stop-color:#31B457"/>
		<stop  offset="0.7261" style="stop-color:#008544"/>
		<stop  offset="1" style="stop-color:#006A30"/>
	</radialGradient>
	<path fill="url(#SVGID_21_)" d="M352.898,556.577c0.637,0.09,19.686-5.996,30.449-40.861c6.727-21.778-5.431-35.201-14.367-47.833
		c-8.94-12.628-31.792-21.05-59.317-21.68c-27.523-0.634-62.005,4.648-82.104,14.69c-17.125,8.559-25.159,20.164-29.674-6.202
		c-1.108-6.47-7.985-16.779-15.237-19.064c10.168,12.038,10.766,29.29,1.295,31.994c11.314,20.025-1.472,26.555-11.908,23.568
		c8.928,10.096,23.717-3.475,32.693,13.444c11.53,21.733,67.883,54.588,85.904,58.105
		C308.653,566.257,352.898,556.577,352.898,556.577z"/>
	<path fill="#D8E040" d="M360.079,552.499c-4.046,1.055-15.717-12.936-45.271-3.785c-34.634,10.727-53.5-4.751-77.216-13.944
		c28.961,22.011,59.121,31.521,73.329,32.131C343.785,568.306,360.079,552.499,360.079,552.499z"/>
	
		<ellipse transform="matrix(-0.9928 0.1197 -0.1197 -0.9928 712.7427 869.4661)" fill="#107139" cx="330.267" cy="456.132" rx="6.272" ry="2.896"/>
	
		<ellipse transform="matrix(-0.9927 0.1202 -0.1202 -0.9927 663.9409 859.7625)" fill="#107139" cx="306.036" cy="449.909" rx="3.026" ry="1.397"/>
	
		<ellipse transform="matrix(-0.9928 0.1195 -0.1195 -0.9928 651.6216 857.4299)" fill="#107139" cx="300.106" cy="448.25" rx="4.148" ry="1.913"/>
	
		<ellipse transform="matrix(-0.9928 0.1196 -0.1196 -0.9928 583.7347 874.4939)" fill="#107139" cx="265.62" cy="454.768" rx="4.147" ry="1.913"/>
	
		<ellipse transform="matrix(-0.944 0.3298 -0.3298 -0.944 696.5706 798.1443)" fill="#107139" cx="280.581" cy="458.16" rx="3.13" ry="1.445"/>
	
		<ellipse transform="matrix(-0.9439 0.3301 -0.3301 -0.9439 632.4532 828.8267)" fill="#107139" cx="245.857" cy="468.11" rx="3.13" ry="1.444"/>
	<path fill="#107139" d="M264.784,470.587c0.181,0.521-0.585,1.259-1.711,1.653c-1.126,0.395-2.186,0.29-2.367-0.228
		c-0.182-0.521,0.583-1.263,1.709-1.655C263.542,469.965,264.604,470.069,264.784,470.587z"/>
	
		<ellipse transform="matrix(-0.9438 0.3306 -0.3306 -0.9438 847.502 781.6968)" fill="#107139" cx="357.284" cy="462.911" rx="1.988" ry="0.917"/>
	
		<ellipse transform="matrix(-0.9441 0.3296 -0.3296 -0.9441 662.1878 868.2872)" fill="#107139" cx="257.493" cy="490.274" rx="2.16" ry="0.996"/>
	
		<ellipse transform="matrix(-0.9438 0.3305 -0.3305 -0.9438 610.1883 851.2158)" fill="#107139" cx="232.737" cy="477.477" rx="2.16" ry="0.997"/>
	<path fill="#107139" d="M321.079,547.026c0,0-24.431,4.692-55.155-5.485c-30.724-10.181-39.292-19.794-45.445-26.858
		c-6.519-7.481-25-23.593-22.312-20.817c1.983,2.047,8.25,15.661,18.678,25.104C230.054,530.929,277.579,565.256,321.079,547.026z"
		/>
	
		<radialGradient id="SVGID_22_" cx="279.7744" cy="497.5039" r="39.1256" gradientTransform="matrix(0.9902 0.1396 -0.1396 0.9902 81.5011 20.3359)" gradientUnits="userSpaceOnUse">
		<stop  offset="0" style="stop-color:#DCCE80"/>
		<stop  offset="1" style="stop-color:#D7B928"/>
	</radialGradient>
	<path fill="url(#SVGID_22_)" d="M236.637,534.382c0,0,37.742,29.562,71.832,30.115c20.196,0.33,34.773-7.01,34.773-7.01
		s-12.345-16.898-33.039-6.824c-14.188,3.849-21.267,0.904-32.065-0.835C267.336,548.089,236.637,534.382,236.637,534.382z"/>
	
		<radialGradient id="SVGID_23_" cx="346.7979" cy="436.3271" r="16.5159" gradientTransform="matrix(0.9902 0.1396 -0.1396 0.9902 81.5011 20.3359)" gradientUnits="userSpaceOnUse">
		<stop  offset="0" style="stop-color:#FFFFFF"/>
		<stop  offset="1" style="stop-color:#E6E7E8"/>
	</radialGradient>
	<path fill="url(#SVGID_23_)" d="M378.023,502.778c-1.434,10.149-8.876,17.499-16.627,16.403
		c-7.75-1.093-12.874-10.212-11.443-20.361c1.432-10.153,8.878-17.496,16.627-16.403
		C374.332,483.51,379.455,492.625,378.023,502.778z"/>
	
		<ellipse transform="matrix(-0.9902 -0.1396 0.1396 -0.9902 656.8618 1060.8408)" cx="365.631" cy="507.386" rx="6.986" ry="10.78"/>
	<circle fill="#FFFFFF" cx="367.73" cy="512.471" r="2.395"/>
	
		<radialGradient id="SVGID_24_" cx="286.1138" cy="436.3276" r="16.5147" gradientTransform="matrix(0.9902 0.1396 -0.1396 0.9902 81.5011 20.3359)" gradientUnits="userSpaceOnUse">
		<stop  offset="0" style="stop-color:#FFFFFF"/>
		<stop  offset="1" style="stop-color:#E6E7E8"/>
	</radialGradient>
	<path fill="url(#SVGID_24_)" d="M317.932,494.306c-1.431,10.151-8.876,17.498-16.625,16.405
		c-7.751-1.093-12.872-10.212-11.44-20.363c1.432-10.151,8.874-17.497,16.625-16.402
		C314.241,475.037,319.364,484.151,317.932,494.306z"/>
	
		<ellipse transform="matrix(-0.9902 -0.1396 0.1396 -0.9902 538.3969 1033.5551)" cx="305.436" cy="497.901" rx="6.987" ry="10.78"/>
	<circle fill="#FFFFFF" cx="307.22" cy="502.929" r="2.395"/>
	<path fill="#107139" d="M248.214,504.203c10.676-0.516,20.731,6.962,11.4,8.677c-9.331,1.714-12.047,4.865-20.134,10.289
		c-7.251,4.864-8.163,2.384-13.539,1.121c-5.376-1.264-17.484-10.293-5.614-15.688C232.197,503.207,248.214,504.203,248.214,504.203
		z"/>
	
		<radialGradient id="SVGID_25_" cx="212.5415" cy="462.1963" r="54.6096" gradientTransform="matrix(0.9902 0.1396 -0.1396 0.9902 81.5011 20.3359)" gradientUnits="userSpaceOnUse">
		<stop  offset="8.370500e-04" style="stop-color:#AEC99D"/>
		<stop  offset="0.4059" style="stop-color:#31B457"/>
		<stop  offset="0.9702" style="stop-color:#008042"/>
	</radialGradient>
	<path fill="url(#SVGID_25_)" d="M258.89,503.688c-11.184-6.627-17.411-9.02-37.062-5.729c-19.652,3.288-22.141,19.001-6.322,23.347
		c15.819,4.347,23.885-8.246,32.086-9.107C262.021,510.675,263.907,506.66,258.89,503.688z"/>
	<path fill="none" stroke="#006028" stroke-width="1.181" stroke-miterlimit="10" d="M247.078,501.518
		c0,0-17.259-2.938-32.587,5.506"/>
	<path fill="none" stroke="#006028" stroke-width="1.181" stroke-miterlimit="10" d="M248.214,504.203
		c0,0-17.316,4.627-27.129,13.343"/>
	<path fill="#F9ED32" d="M340.795,515.49c-7.242-0.822-23.904,17.332-6.255,21.083S359.184,517.578,340.795,515.49z"/>
	<path fill="#A13422" d="M342.15,521.993c-6.5-0.747-17.311,8.163-7.122,11.114C345.216,536.058,351.839,523.106,342.15,521.993z"/>
	<path fill="#F1B937" d="M346.822,524.672c0,0-1.386-2.72-4.672-2.679c-3.288,0.041-8.977,2.771-10.914,5.782
		C336.453,519.423,346.593,515.55,346.822,524.672z"/>
	<path fill="#F1B937" d="M331.01,520.422c0,0-8.08,8.96-2.38,13.298c5.7,4.339,17.963,1.523,17.963,1.523
		s-11.848,7.344-19.658-0.247C321.163,529.385,331.01,520.422,331.01,520.422z"/>
	<path fill="#107139" d="M332.953,538.874c0,0-11.003-4.328-7.202-13.387C321.197,529.138,324.289,537.652,332.953,538.874z"/>
	
		<radialGradient id="SVGID_26_" cx="287.0029" cy="403.8813" r="29.4976" gradientTransform="matrix(0.9902 0.1396 -0.1396 0.9902 81.5011 20.3359)" gradientUnits="userSpaceOnUse">
		<stop  offset="8.370500e-04" style="stop-color:#AEC99D"/>
		<stop  offset="0.4059" style="stop-color:#31B457"/>
		<stop  offset="0.7261" style="stop-color:#008544"/>
		<stop  offset="1" style="stop-color:#006A30"/>
	</radialGradient>
	<path fill="url(#SVGID_26_)" d="M313.046,459.82c-12.869-0.047-23.895,2.94-31,22.896
		C294.385,463.248,313.046,459.82,313.046,459.82z"/>
	
		<radialGradient id="SVGID_27_" cx="358.3462" cy="406.2646" r="19.8048" gradientTransform="matrix(0.9902 0.1396 -0.1396 0.9902 81.5011 20.3359)" gradientUnits="userSpaceOnUse">
		<stop  offset="8.370500e-04" style="stop-color:#AEC99D"/>
		<stop  offset="0.4059" style="stop-color:#31B457"/>
		<stop  offset="0.7261" style="stop-color:#008544"/>
		<stop  offset="1" style="stop-color:#006A30"/>
	</radialGradient>
	<path fill="url(#SVGID_27_)" d="M359.84,469.953c0,0,11.145,3.339,20.366,20.293C377.425,477.735,367.507,467.5,359.84,469.953z"/>
</g>
</svg>
