<?xml version="1.0" encoding="utf-8"?>
<!-- Generator: Adobe Illustrator 16.0.0, SVG Export Plug-In . SVG Version: 6.00 Build 0)  -->
<!DOCTYPE svg PUBLIC "-//W3C//DTD SVG 1.1//EN" "http://www.w3.org/Graphics/SVG/1.1/DTD/svg11.dtd">
<svg version="1.1" id="Layer_1" xmlns="http://www.w3.org/2000/svg" xmlns:xlink="http://www.w3.org/1999/xlink" x="0px" y="0px"
	 width="1440px" height="960px" viewBox="0 0 1440 960" enable-background="new 0 0 1440 960" xml:space="preserve">
<g id="Water">
	
		<linearGradient id="SVGID_1_" gradientUnits="userSpaceOnUse" x1="1308.4062" y1="-256.1143" x2="1308.4062" y2="510.5345" gradientTransform="matrix(1 0 0 1 0 169)">
		<stop  offset="0" style="stop-color:#5BC0AC"/>
		<stop  offset="0.4898" style="stop-color:#00A388"/>
		<stop  offset="1" style="stop-color:#008670"/>
	</linearGradient>
	<rect x="-116.101" y="-504.334" fill="url(#SVGID_1_)" width="2849.013" height="1904.864"/>
</g>
<g id="SEA">
	<path fill="#B1D9AC" d="M2818.403,26.317c246.575-49.315-711.88,398.965-1110.845,324.647
		c-398.966-74.316-555.423-191.659-985.68-160.368c-430.256,31.292-680.587-50.849-848.778,89.963s-86.051,187.748-86.051,187.748
		s105.608-121.252,352.028-152.543c246.42-31.292,524.131-125.166,735.348-43.025c211.219,82.14,441.99,160.368,743.172,168.188
		c301.18,7.823,461.548-19.557,711.879-82.14c250.33-62.583,430.257-164.279,496.75-199.482
		C2892.721,124.102,2798.846,30.229,2818.403,26.317z"/>
	<path fill="#AEDBC3" d="M2845.783-16.708c-140.812,46.937-309.002,277.711-707.967,324.648
		c-398.968,46.938,23.469,27.38-563.245-66.494c-586.714-93.874-664.942-164.28-895.717-129.078
		c-230.773,35.203-144.724,101.697-469.372,89.963s-473.282,82.14-504.573,97.786c-31.291,15.646,156.458-203.394,156.458-203.394
		s105.608-19.557,340.294-11.734C436.347,92.812,514.576-51.91,952.655,26.318c438.079,78.229,840.956,152.546,1106.933,136.899
		c265.977-15.646,700.145-199.482,711.879-203.394C2783.201-44.088,2845.783-16.708,2845.783-16.708z"/>
	<path opacity="0.3" fill="#AEDBC3" enable-background="new    " d="M2904.455-1.062c0,0-160.369,207.306-664.941,246.42
		C1734.939,284.471,1175.605,18.494,702.324,38.052c-473.282,19.557-989.59,191.659-989.59,191.659v183.837
		c0,0,614.093-289.445,1130.4-215.128c516.311,74.317,1118.667,238.597,1548.924,136.899
		c430.257-101.696,555.423-215.128,555.423-215.128L2904.455-1.062z"/>
	<path opacity="0.3" fill="#AEDBC3" enable-background="new    " d="M2712.795-55.822c0,0-160.368,207.305-664.941,246.419
		C1543.279,229.711,983.946-36.266,510.665-16.708C37.382,2.849-185.569,147.571-185.569,147.571v183.837
		c0,0,320.737-262.065,837.042-187.748c516.31,74.316,1118.667,238.597,1548.925,136.899
		C2630.655,178.863,3057-149.697,3057-149.697L2712.795-55.822z"/>
	<path opacity="0.3" fill="#AEDBC3" enable-background="new    " d="M2834.049,319.674c0,0-395.053,332.471-899.627,371.585
		C1429.849,730.373,870.516,464.396,397.233,483.954C-76.049,503.511-299,648.233-299,648.233V832.07
		c0,0,320.737-262.065,837.044-187.748c516.308,74.314,1118.667,238.597,1548.922,136.897
		c430.257-101.695,856.604-430.257,856.604-430.257L2834.049,319.674z"/>
</g>
<g id="UMA">
	<g>
		<polygon fill="#D09611" points="950.345,1025.097 770.472,936.856 970.709,980.977 		"/>
		<polygon fill="#D09611" points="953.739,1211.76 797.622,1198.184 946.952,1171.033 		"/>
		<polygon fill="#D09611" points="1025.01,1340.726 879.074,1361.088 1018.224,1300 		"/>
		<polygon fill="#D09611" points="1045.372,865.587 862.104,719.65 1065.735,821.467 		"/>
		<polygon fill="#D09611" points="1170.945,736.62 1055.555,573.714 1208.278,702.68 		"/>
		<polygon fill="#D09611" points="1330.458,628.019 1245.61,454.93 1367.79,594.078 		"/>
		<polygon fill="#D09611" points="1510.332,560.143 1489.968,387.053 1540.876,549.958 		"/>
		<polygon fill="#D09611" points="1669.843,549.96 1703.78,376.87 1700.387,539.775 		"/>
		<polygon fill="#D09611" points="1842.929,577.11 1876.867,404.021 1873.473,566.926 		"/>
		<polygon fill="#D09611" points="2022.804,594.078 2097.468,478.686 2060.136,611.046 		"/>
		<polygon fill="#D09611" points="2168.737,689.106 2260.374,570.32 2206.072,712.862 		"/>
		<polygon fill="#D09611" points="2301.101,807.891 2419.885,719.65 2331.645,848.615 		"/>
		<polygon fill="#D09611" points="2392.734,950.433 2545.458,889.343 2423.278,991.158 		"/>
		<polygon fill="#D09611" points="2430.066,1072.611 2613.335,1059.035 2460.61,1113.337 		"/>
		<polygon fill="#D09611" points="2423.278,1184.607 2579.397,1211.76 2419.885,1232.121 		"/>
		<polygon fill="#D09611" points="2392.734,1289.815 2535.274,1354.3 2389.341,1337.33 		"/>
		
			<radialGradient id="SVGID_2_" cx="1551.0576" cy="757.6768" r="671.0999" gradientTransform="matrix(1 0 0 1 0 169)" gradientUnits="userSpaceOnUse">
			<stop  offset="8.370500e-04" style="stop-color:#F6E39D"/>
			<stop  offset="0.4059" style="stop-color:#FFE72A"/>
			<stop  offset="0.7261" style="stop-color:#F6D933"/>
			<stop  offset="1" style="stop-color:#F8BE15"/>
		</radialGradient>
		<path fill="url(#SVGID_2_)" d="M2348.612,1395.028c0,0-319.021-16.968-529.439-20.36c-210.419-3.396-624.471,10.182-712.71-3.396
			c-88.24-13.577-193.45-108.603-169.692-302.053c23.757-193.451,295.268-468.354,502.291-515.868
			c207.024-47.514,573.562,6.788,702.528,98.423c128.966,91.634,335.991,268.114,315.629,485.321
			C2436.853,1354.302,2348.612,1395.028,2348.612,1395.028z"/>
		<path fill="#EF4136" d="M1075.917,1378.061c0,0-78.059-91.637-44.118-302.056c33.938-210.418,223.993-498.896,532.835-543.015
			c-139.148,54.3-397.081,207.022-471.746,468.351s27.15,376.72,27.15,376.72H1075.917z"/>
		<path fill="#F7941E" d="M1091.755,1380.322c0,0-78.06-91.636-44.119-302.055c33.938-210.418,223.994-498.895,532.835-543.015
			c-139.148,54.3-397.081,207.022-471.746,468.351s27.151,376.719,27.151,376.719H1091.755z"/>
		<path fill="#EF4136" d="M1262.579,1374.666c0,0-111.998-193.45-10.182-458.171c101.816-264.723,190.057-335.989,352.961-373.323
			c-78.059,47.512-244.359,152.725-315.629,386.898c-71.271,234.175,20.364,444.596,20.364,444.596H1262.579z"/>
		<path fill="#F7941E" d="M1276.155,1379.191c0,0-111.998-193.448-10.182-458.171c101.814-264.721,190.057-335.989,352.961-373.323
			c-78.061,47.514-244.359,152.727-315.629,386.899c-71.271,234.174,20.362,444.595,20.362,444.595H1276.155L1276.155,1379.191z"/>
		<path fill="#EF4136" d="M1544.272,1380.336c0,0-78.062-97.306-71.274-300.938c6.304-189.038,88.242-478.53,196.847-546.409
			c-50.908,88.24-132.363,339.387-149.331,566.773c-12.386,165.976,67.688,279.267,67.688,279.267L1544.272,1380.336z"/>
		<path fill="#F7941E" d="M1562.182,1374.505c0,0-78.062-97.306-71.274-300.938c6.302-189.037,88.242-478.529,196.845-546.408
			c-50.906,88.238-132.36,339.385-149.331,566.771c-12.385,165.979,74.671,287.361,74.671,287.361L1562.182,1374.505z"/>
		<path fill="#EF4136" d="M1732.062,543.172c0,0,315.631,261.327,257.936,631.256c-25.878,165.911-84.847,207.024-84.847,207.024
			l71.271-3.394c0,0,30.546-47.515,50.905-196.845C2069.091,874.927,1874.603,594.08,1732.062,543.172z"/>
		<path fill="#F7941E" d="M1713.96,543.172c0,0,315.633,261.327,257.938,631.256c-25.877,165.911-84.847,207.024-84.847,207.024
			l71.271-3.394c0,0,30.544-47.515,50.906-196.845C2050.989,874.927,1856.501,594.08,1713.96,543.172z"/>
		<path fill="#EF4136" d="M1910.805,573.716c0,0,316.626,141.464,325.812,444.596c6.788,223.994-54.303,295.263-91.635,363.143
			c57.694,0,67.876,3.394,67.876,3.394s74.665-193.448,54.303-369.929C2246.798,838.437,2107.649,631.412,1910.805,573.716z"/>
		<path fill="#F7941E" d="M1894.966,573.716c0,0,316.626,141.464,325.812,444.596c6.788,223.994-54.302,295.263-91.635,363.143
			c57.694,0,67.876,3.394,67.876,3.394s74.664-193.448,54.303-369.929C2230.96,838.437,2091.811,631.412,1894.966,573.716z"/>
		<path fill="#EF4136" d="M2153.871,666.285c0,0,247.763,289.644,230.792,479.697c-16.971,190.059-98.423,251.146-98.423,251.146
			l50.908-6.785c0,0,64.784-54.539,81.452-254.541C2432.177,972.898,2235.323,720.587,2153.871,666.285z"/>
		<path fill="#F7941E" d="M2153.871,666.285c0,0,229.66,282.854,212.69,472.912c-16.971,190.056-98.424,251.145-98.424,251.145
			l50.907-6.786c0,0,64.785-54.539,81.452-254.541C2414.075,966.11,2235.323,720.587,2153.871,666.285z"/>
		
			<radialGradient id="SVGID_3_" cx="1384.6914" cy="244.792" r="110.5256" gradientTransform="matrix(1 0 0 1 0 169)" gradientUnits="userSpaceOnUse">
			<stop  offset="8.370500e-04" style="stop-color:#F6E39D"/>
			<stop  offset="0.4059" style="stop-color:#FFE72A"/>
			<stop  offset="0.7261" style="stop-color:#F6D933"/>
			<stop  offset="1" style="stop-color:#F8BE15"/>
		</radialGradient>
		<polygon fill="url(#SVGID_3_)" points="1454.702,550.888 1337.042,286.154 1420.762,566.727 		"/>
		
			<radialGradient id="SVGID_4_" cx="1583.5273" cy="225.6602" r="102.5079" gradientTransform="matrix(1 0 0 1 0 169)" gradientUnits="userSpaceOnUse">
			<stop  offset="8.370500e-04" style="stop-color:#F6E39D"/>
			<stop  offset="0.4059" style="stop-color:#FFE72A"/>
			<stop  offset="0.7261" style="stop-color:#F6D933"/>
			<stop  offset="1" style="stop-color:#F8BE15"/>
		</radialGradient>
		<polygon fill="url(#SVGID_4_)" points="1619.878,541.838 1558.785,268.053 1583.675,546.362 		"/>
		
			<radialGradient id="SVGID_5_" cx="1779.3506" cy="247.4629" r="98.2788" gradientTransform="matrix(1 0 0 1 0 169)" gradientUnits="userSpaceOnUse">
			<stop  offset="8.370500e-04" style="stop-color:#F6E39D"/>
			<stop  offset="0.4059" style="stop-color:#FFE72A"/>
			<stop  offset="0.7261" style="stop-color:#F6D933"/>
			<stop  offset="1" style="stop-color:#F8BE15"/>
		</radialGradient>
		<polygon fill="url(#SVGID_5_)" points="1800.893,559.938 1787.316,292.942 1764.689,564.464 		"/>
		
			<radialGradient id="SVGID_6_" cx="1948.3047" cy="251.1719" r="107.0794" gradientTransform="matrix(1 0 0 1 0 169)" gradientUnits="userSpaceOnUse">
			<stop  offset="8.370500e-04" style="stop-color:#F6E39D"/>
			<stop  offset="0.4059" style="stop-color:#FFE72A"/>
			<stop  offset="0.7261" style="stop-color:#F6D933"/>
			<stop  offset="1" style="stop-color:#F8BE15"/>
		</radialGradient>
		<polygon fill="url(#SVGID_6_)" points="1957.018,573.515 1988.695,288.417 1920.814,578.04 		"/>
		
			<radialGradient id="SVGID_7_" cx="2135.8467" cy="352.9746" r="95.4419" gradientTransform="matrix(1 0 0 1 0 169)" gradientUnits="userSpaceOnUse">
			<stop  offset="8.370500e-04" style="stop-color:#F6E39D"/>
			<stop  offset="0.4059" style="stop-color:#FFE72A"/>
			<stop  offset="0.7261" style="stop-color:#F6D933"/>
			<stop  offset="1" style="stop-color:#F8BE15"/>
		</radialGradient>
		<polygon fill="url(#SVGID_7_)" points="2124.456,652.709 2199.126,412.865 2092.778,634.607 		"/>
		
			<radialGradient id="SVGID_8_" cx="2288.4189" cy="485.8408" r="86.7126" gradientTransform="matrix(1 0 0 1 0 169)" gradientUnits="userSpaceOnUse">
			<stop  offset="8.370500e-04" style="stop-color:#F6E39D"/>
			<stop  offset="0.4059" style="stop-color:#FFE72A"/>
			<stop  offset="0.7261" style="stop-color:#F6D933"/>
			<stop  offset="1" style="stop-color:#F8BE15"/>
		</radialGradient>
		<polygon fill="url(#SVGID_8_)" points="2271.53,765.843 2359.775,562.201 2239.853,747.74 		"/>
		
			<radialGradient id="SVGID_9_" cx="2427.584" cy="639.6943" r="91.5721" gradientTransform="matrix(1 0 0 1 0 169)" gradientUnits="userSpaceOnUse">
			<stop  offset="8.370500e-04" style="stop-color:#F6E39D"/>
			<stop  offset="0.4059" style="stop-color:#FFE72A"/>
			<stop  offset="0.7261" style="stop-color:#F6D933"/>
			<stop  offset="1" style="stop-color:#F8BE15"/>
		</radialGradient>
		<polygon fill="url(#SVGID_9_)" points="2391.453,906.129 2527.214,727.377 2359.775,888.028 		"/>
		
			<radialGradient id="SVGID_10_" cx="2533.4648" cy="812.457" r="107.5703" gradientTransform="matrix(1 0 0 1 0 169)" gradientUnits="userSpaceOnUse">
			<stop  offset="8.370500e-04" style="stop-color:#F6E39D"/>
			<stop  offset="0.4059" style="stop-color:#FFE72A"/>
			<stop  offset="0.7261" style="stop-color:#F6D933"/>
			<stop  offset="1" style="stop-color:#F8BE15"/>
		</radialGradient>
		<polygon fill="url(#SVGID_10_)" points="2436.706,1041.891 2685.602,931.019 2429.919,1012.476 		"/>
		
			<radialGradient id="SVGID_11_" cx="2543.918" cy="965.4648" r="104.0456" gradientTransform="matrix(1 0 0 1 0 169)" gradientUnits="userSpaceOnUse">
			<stop  offset="8.370500e-04" style="stop-color:#F6E39D"/>
			<stop  offset="0.4059" style="stop-color:#FFE72A"/>
			<stop  offset="0.7261" style="stop-color:#F6D933"/>
			<stop  offset="1" style="stop-color:#F8BE15"/>
		</radialGradient>
		<polygon fill="url(#SVGID_11_)" points="2443.495,1150.499 2701.44,1121.084 2436.706,1121.084 		"/>
		
			<radialGradient id="SVGID_12_" cx="2516.3926" cy="1097.9443" r="111.2756" gradientTransform="matrix(1 0 0 1 0 169)" gradientUnits="userSpaceOnUse">
			<stop  offset="8.370500e-04" style="stop-color:#F6E39D"/>
			<stop  offset="0.4059" style="stop-color:#FFE72A"/>
			<stop  offset="0.7261" style="stop-color:#F6D933"/>
			<stop  offset="1" style="stop-color:#F8BE15"/>
		</radialGradient>
		<polygon fill="url(#SVGID_12_)" points="2409.555,1272.684 2683.339,1295.311 2402.767,1243.27 		"/>
		
			<radialGradient id="SVGID_13_" cx="1146.1582" cy="354.8281" r="118.3599" gradientTransform="matrix(1 0 0 1 0 169)" gradientUnits="userSpaceOnUse">
			<stop  offset="8.370500e-04" style="stop-color:#F6E39D"/>
			<stop  offset="0.4059" style="stop-color:#FFE72A"/>
			<stop  offset="0.7261" style="stop-color:#F6D933"/>
			<stop  offset="1" style="stop-color:#F8BE15"/>
		</radialGradient>
		<path fill="url(#SVGID_13_)" d="M1264.637,636.87l-199.116-226.269l176.489,248.896
			C1242.01,659.497,1257.849,639.133,1264.637,636.87z"/>
		
			<radialGradient id="SVGID_14_" cx="985.7334" cy="493.251" r="122.7081" gradientTransform="matrix(1 0 0 1 0 169)" gradientUnits="userSpaceOnUse">
			<stop  offset="8.370500e-04" style="stop-color:#F6E39D"/>
			<stop  offset="0.4059" style="stop-color:#FFE72A"/>
			<stop  offset="0.7261" style="stop-color:#F6D933"/>
			<stop  offset="1" style="stop-color:#F8BE15"/>
		</radialGradient>
		<path fill="url(#SVGID_14_)" d="M1131.138,756.792L886.769,564.464l221.742,214.955
			C1108.511,779.419,1124.351,759.055,1131.138,756.792z"/>
		
			<radialGradient id="SVGID_15_" cx="857.416" cy="661.292" r="128.1495" gradientTransform="matrix(1 0 0 1 0 169)" gradientUnits="userSpaceOnUse">
			<stop  offset="8.370500e-04" style="stop-color:#F6E39D"/>
			<stop  offset="0.4059" style="stop-color:#FFE72A"/>
			<stop  offset="0.7261" style="stop-color:#F6D933"/>
			<stop  offset="1" style="stop-color:#F8BE15"/>
		</radialGradient>
		<path fill="url(#SVGID_15_)" d="M1027.055,903.867L741.957,750.004l262.474,176.488
			C1004.429,926.492,1020.267,906.129,1027.055,903.867z"/>
		
			<radialGradient id="SVGID_16_" cx="802.5684" cy="920.834" r="105.4092" gradientTransform="matrix(1 0 0 1 0 169)" gradientUnits="userSpaceOnUse">
			<stop  offset="8.370500e-04" style="stop-color:#F6E39D"/>
			<stop  offset="0.4059" style="stop-color:#FFE72A"/>
			<stop  offset="0.7261" style="stop-color:#F6D933"/>
			<stop  offset="1" style="stop-color:#F8BE15"/>
		</radialGradient>
		<path fill="url(#SVGID_16_)" d="M961.437,1082.619l-266.996-11.313l266.996,40.729
			C961.437,1112.033,954.649,1084.881,961.437,1082.619z"/>
		
			<radialGradient id="SVGID_17_" cx="833.1211" cy="1108.4414" r="102.081" gradientTransform="matrix(1 0 0 1 0 169)" gradientUnits="userSpaceOnUse">
			<stop  offset="8.370500e-04" style="stop-color:#F6E39D"/>
			<stop  offset="0.4059" style="stop-color:#FFE72A"/>
			<stop  offset="0.7261" style="stop-color:#F6D933"/>
			<stop  offset="1" style="stop-color:#F8BE15"/>
		</radialGradient>
		<path fill="url(#SVGID_17_)" d="M975.013,1245.531l-244.369,70.145l246.633-40.729
			C977.276,1274.947,993.114,1254.583,975.013,1245.531z"/>
		
			<linearGradient id="SVGID_18_" gradientUnits="userSpaceOnUse" x1="1091.7549" y1="863.5215" x2="2461.6025" y2="863.5215" gradientTransform="matrix(1 0 0 1 0 169)">
			<stop  offset="0" style="stop-color:#FFFFFF"/>
			<stop  offset="1" style="stop-color:#651819"/>
		</linearGradient>
		<path opacity="0.4" fill="url(#SVGID_18_)" enable-background="new    " d="M1091.755,1380.322c0,0,419.514-28.442,568.852-82.748
			c149.337-54.305,171.964-339.401,402.758-366.556c230.793-27.149,106.346-224.005,61.092-278.31
			c190.065,95.031,336.154,277.358,337.142,454.799c0.805,144.881-90.507,280.573-90.507,280.573s-262.473,31.678-592.823,22.627
			C1447.915,1401.656,1091.755,1380.322,1091.755,1380.322z"/>
		<path fill="#FBB040" d="M1001.253,1249.092l-288.479,23.756l264.722-64.482C977.497,1208.365,1018.222,1194.789,1001.253,1249.092
			z"/>
		<polygon fill="#FBB040" points="991.071,1113.337 722.957,1001.339 1008.041,1082.793 		"/>
		<polygon fill="#FBB040" points="1041.979,953.827 862.104,801.103 1055.555,923.281 		"/>
		<polygon fill="#FBB040" points="1130.22,777.347 967.314,597.472 1153.978,750.194 		"/>
		<polygon fill="#FBB040" points="1289.731,631.41 1143.794,417.598 1316.882,624.622 		"/>
		<polygon fill="#FBB040" points="1454.702,550.888 1411.91,349.72 1489.968,549.958 		"/>
		<polygon fill="#FBB040" points="2345.22,848.615 2467.398,716.256 2362.188,879.16 		"/>
		<polygon fill="#FBB040" points="2409.702,1001.339 2599.759,913.099 2406.309,1028.49 		"/>
		<polygon fill="#FBB040" points="2443.641,1188.001 2681.212,1204.972 2453.822,1157.457 		"/>
		<polygon fill="#FBB040" points="1225.247,835.041 1065.737,655.166 1259.187,807.891 		"/>
		<polygon fill="#FBB040" points="1167.552,953.827 974.103,790.92 1191.31,902.919 		"/>
		<polygon fill="#FBB040" points="1153.978,1062.429 923.194,980.977 1133.613,1099.761 		"/>
		<polygon fill="#FBB040" points="1133.613,1184.607 919.801,1184.607 1143.794,1218.548 		"/>
		<polygon fill="#FBB040" points="1143.794,1293.212 946.952,1357.693 1167.552,1327.149 		"/>
		<polygon fill="#FBB040" points="1337.246,702.68 1191.31,414.203 1374.578,682.318 		"/>
		<polygon fill="#FBB040" points="1466.212,580.502 1398.335,305.599 1496.755,563.531 		"/>
		<polygon fill="#FBB040" points="2046.562,617.834 2155.165,387.053 2087.288,644.986 		"/>
		<polygon fill="#FBB040" points="2165.346,733.227 2318.068,495.656 2199.284,760.376 		"/>
		<polygon fill="#FBB040" points="2260.374,868.98 2443.641,682.318 2277.341,916.492 		"/>
		<polygon fill="#FBB040" points="2311.282,994.553 2640.485,933.463 2314.677,1038.673 		"/>
		<polygon fill="#FBB040" points="2338.433,1137.096 2660.849,1167.64 2335.038,1171.033 		"/>
		<polygon fill="#FBB040" points="2318.068,1300 2630.303,1333.938 2321.462,1269.453 		"/>
		<polygon fill="#FBB040" points="1374.578,1296.605 1106.462,1276.24 1374.578,1266.06 		"/>
		<polygon fill="#FBB040" points="1361.003,1181.213 1079.312,1126.913 1371.184,1130.308 		"/>
		<polygon fill="#FBB040" points="1364.396,1055.641 1109.856,964.007 1374.578,1011.521 		"/>
		<polygon fill="#FBB040" points="1401.728,913.099 1194.703,787.526 1408.516,872.373 		"/>
		<polygon fill="#FBB040" points="1435.666,790.92 1264.637,636.87 1462.818,750.194 		"/>
		<polygon fill="#FBB040" points="1520.512,661.954 1337.246,475.291 1493.362,689.106 		"/>
		<polygon fill="#FBB040" points="1568.026,600.865 1503.544,312.387 1595.179,577.107 		"/>
		<polygon fill="#FBB040" points="1859.899,600.865 1937.957,363.295 1904.019,624.622 		"/>
		<polygon fill="#FBB040" points="1954.927,682.318 2073.712,397.233 1995.653,702.68 		"/>
		<polygon fill="#FBB040" points="2049.953,756.982 2236.616,539.775 2077.105,797.708 		"/>
		<polygon fill="#FBB040" points="2107.649,865.587 2368.977,661.954 2134.802,899.524 		"/>
		<polygon fill="#FBB040" points="2148.376,970.795 2467.398,926.675 2165.346,1014.915 		"/>
		<polygon fill="#FBB040" points="2161.952,1120.125 2436.706,1121.084 2158.558,1079.399 		"/>
		<polygon fill="#FBB040" points="2165.346,1259.273 2443.641,1279.636 2175.528,1215.153 		"/>
		<polygon fill="#FBB040" points="2114.438,1350.908 2337.148,1390.344 2134.802,1303.394 		"/>
		<polygon fill="#FBB040" points="1775.053,661.954 1825.96,549.958 1812.385,706.074 		"/>
		<polygon fill="#FBB040" points="1642.692,712.862 1568.026,566.926 1666.448,661.954 		"/>
		<polygon fill="#FBB040" points="1629.116,824.858 1500.15,767.164 1632.511,899.524 		"/>
		<polygon fill="#FBB040" points="1825.96,811.284 1836.141,885.949 1992.259,767.164 		"/>
		<polygon fill="#FBB040" points="1595.179,1018.309 1405.122,1004.732 1578.208,1072.611 		"/>
		<polygon fill="#FBB040" points="1601.966,1177.819 1398.335,1198.184 1605.36,1228.728 		"/>
		<polygon fill="#FBB040" points="1629.116,1303.394 1649.479,1347.514 1462.818,1391.634 		"/>
		<polygon fill="#FBB040" points="1883.655,991.158 1893.837,1048.855 2100.861,970.795 		"/>
		<polygon fill="#FBB040" points="1917.593,1116.731 1914.199,1171.033 2158.558,1181.213 		"/>
		<polygon fill="#FBB040" points="1914.199,1266.06 1887.049,1316.968 2111.044,1388.24 		"/>
		<path fill="#FBB040" d="M1703.78,733.227l13.576-95.026l23.756,101.812C1741.112,740.012,1707.175,750.196,1703.78,733.227z"/>
		<polygon fill="#FBB040" points="1707.175,899.524 1730.933,828.252 1751.294,906.312 		"/>
		<path fill="#FBB040" d="M1734.327,991.158c-26.552,8.851-23.761,78.059,3.394,74.664
			C1764.871,1062.429,1764.873,980.979,1734.327,991.158z"/>
		<polygon fill="#FBB040" points="1710.568,1164.245 1741.112,1266.06 1768.265,1164.245 		"/>
		<polygon fill="#FBB040" points="1727.538,1320.361 1747.9,1442.54 1761.477,1323.756 		"/>
	</g>
</g>
<g id="PABLO">
	
		<radialGradient id="SVGID_19_" cx="491.0786" cy="232.186" r="363.2909" gradientTransform="matrix(0.9992 -0.0402 0.0402 0.9992 -11.7289 237.0536)" gradientUnits="userSpaceOnUse">
		<stop  offset="8.370500e-04" style="stop-color:#AEC99D"/>
		<stop  offset="0.4059" style="stop-color:#31B457"/>
		<stop  offset="0.7261" style="stop-color:#008544"/>
		<stop  offset="1" style="stop-color:#006A30"/>
	</radialGradient>
	<path fill="url(#SVGID_19_)" d="M574.412,577.756c1.521-0.062,43.354-22.349,53.642-108.224
		c6.425-53.646-27.625-79.776-53.835-105.434c-26.217-25.646-83.083-35.575-147.533-25.346
		c-64.447,10.218-142.612,37.194-185.21,69.153c-36.297,27.229-50.097,57.712-71.833-1.856
		c-5.332-14.612-25.751-35.733-43.633-37.98c28.827,23.749,37.552,63.725,16.618,74.056c34.895,41.89,7.853,62.547-17.751,60.019
		c25.11,19.747,53.83-18.178,81.95,17.462c36.123,45.777,181.495,98.439,225.011,98.983
		C475.352,619.131,574.412,577.756,574.412,577.756z"/>
	<path fill="#107139" d="M449.667,524.667c0,0-16.476,18.845,3,24c11.333,3,31.667-5.334,46.333-9.667s53-6.999,65-1.666
		C554.333,526,539.667,520.666,520.667,518S471.333,514.667,449.667,524.667z"/>
	<path fill="#D8E040" d="M589.422,565.194c-8.986,4.179-42.147-23.484-107.174,10.414c-76.204,39.727-126.773,11.655-185.983,0.297
		c76.886,39.016,151.258,48.373,184.648,43.759C558.145,608.979,589.422,565.194,589.422,565.194z"/>
	<path fill="#107139" d="M493.142,348.753c1.125,3.624-4.325,8.518-12.167,10.952c-7.847,2.427-15.114,1.461-16.235-2.158
		c-1.119-3.623,4.33-8.524,12.174-10.945C484.754,344.17,492.023,345.133,493.142,348.753z"/>
	<path fill="#107139" d="M426.627,346.767c0.541,1.751-2.089,4.114-5.868,5.286c-3.788,1.172-7.291,0.708-7.833-1.039
		c-0.541-1.751,2.09-4.115,5.87-5.281C422.579,344.558,426.084,345.028,426.627,346.767z"/>
	<path fill="#107139" d="M414.717,344.598c0.739,2.396-2.863,5.636-8.054,7.239c-5.185,1.607-9.991,0.967-10.732-1.426
		c-0.739-2.394,2.862-5.635,8.053-7.244C409.169,341.565,413.976,342.202,414.717,344.598z"/>
	<path fill="#107139" d="M336.981,374.538c0.739,2.394-2.866,5.633-8.053,7.239c-5.185,1.606-9.995,0.967-10.729-1.424
		c-0.742-2.393,2.858-5.64,8.049-7.243C331.433,371.507,336.242,372.142,336.981,374.538z"/>
	<path fill="#107139" d="M370.489,375.361c0.937,1.644-1.196,4.614-4.761,6.641c-3.562,2.022-7.207,2.325-8.142,0.684
		c-0.933-1.642,1.194-4.621,4.76-6.643C365.909,374.023,369.554,373.715,370.489,375.361z"/>
	<path fill="#107139" d="M293.681,413.266c0.935,1.646-1.195,4.623-4.758,6.641c-3.563,2.021-7.208,2.332-8.143,0.688
		c-0.932-1.646,1.199-4.62,4.76-6.644C289.103,411.926,292.748,411.622,293.681,413.266z"/>
	<path fill="#107139" d="M332.397,414.689c0.643,1.135-0.83,3.182-3.288,4.578c-2.459,1.399-4.976,1.605-5.614,0.48
		c-0.646-1.141,0.824-3.193,3.281-4.591C329.236,413.764,331.755,413.554,332.397,414.689z"/>
	<path fill="#107139" d="M548.979,355.269c0.599,1.042-0.76,2.931-3.021,4.218c-2.264,1.287-4.579,1.481-5.171,0.44
		c-0.591-1.048,0.763-2.941,3.021-4.223C546.074,354.421,548.389,354.222,548.979,355.269z"/>
	<path fill="#107139" d="M328.212,461.248c0.642,1.132-0.826,3.183-3.289,4.581c-2.454,1.395-4.972,1.614-5.615,0.473
		c-0.645-1.134,0.826-3.188,3.285-4.582C325.052,460.326,327.568,460.111,328.212,461.248z"/>
	<path fill="#107139" d="M264.948,441.88c0.643,1.139-0.828,3.192-3.283,4.586c-2.459,1.397-4.978,1.604-5.619,0.478
		c-0.646-1.138,0.825-3.188,3.284-4.582C261.786,440.962,264.306,440.746,264.948,441.88z"/>
	<path fill="#107139" d="M496.154,569.008c0,0-54.976,21.329-130.945,10.649c-75.97-10.685-100.034-29.458-117.385-43.316
		c-18.382-14.68-68.322-44.391-60.875-39.063c5.495,3.93,25.894,33.014,54.223,50.602
		C277.057,570.155,402.466,630.004,496.154,569.008z"/>
	
		<radialGradient id="SVGID_20_" cx="420.6753" cy="374.4077" r="92.7355" gradientTransform="matrix(0.9992 -0.0402 0.0402 0.9992 -11.7289 237.0536)" gradientUnits="userSpaceOnUse">
		<stop  offset="0" style="stop-color:#DCCE80"/>
		<stop  offset="1" style="stop-color:#D7B928"/>
	</radialGradient>
	<path fill="url(#SVGID_20_)" d="M293.873,575.41c0,0,100.572,52.888,180.3,39.695c47.233-7.812,78.106-31.123,78.106-31.123
		s-35.967-34.158-79.942-1.872c-31.448,15.004-49.206,11.146-75.126,11.681C371.286,594.325,293.873,575.41,293.873,575.41z"/>
	
		<radialGradient id="SVGID_21_" cx="579.5361" cy="229.4058" r="39.1473" gradientTransform="matrix(0.9992 -0.0402 0.0402 0.9992 -11.7289 237.0536)" gradientUnits="userSpaceOnUse">
		<stop  offset="0" style="stop-color:#FFFFFF"/>
		<stop  offset="1" style="stop-color:#E6E7E8"/>
	</radialGradient>
	<path fill="url(#SVGID_21_)" d="M610.135,441.626c0.978,24.28-13.26,44.578-31.799,45.321
		c-18.537,0.746-34.363-18.341-35.339-42.621c-0.976-24.284,13.267-44.571,31.8-45.316
		C593.338,398.264,609.159,417.342,610.135,441.626z"/>
	<path d="M598.605,438.759c0.566,14.104-6.385,25.829-15.521,26.198c-9.137,0.367-17.008-10.763-17.576-24.866
		c-0.562-14.099,6.385-25.824,15.522-26.188C590.168,413.534,598.042,424.663,598.605,438.759z"/>
	<path fill="#FFFFFF" d="M594.454,436.618c0.211,5.228-3.845,9.627-9.077,9.839c-5.217,0.21-9.62-3.851-9.831-9.08
		c-0.21-5.219,3.854-9.624,9.074-9.833C589.845,427.333,594.248,431.393,594.454,436.618z"/>
	
		<radialGradient id="SVGID_22_" cx="435.7002" cy="229.4033" r="39.1459" gradientTransform="matrix(0.9992 -0.0402 0.0402 0.9992 -11.7289 237.0536)" gradientUnits="userSpaceOnUse">
		<stop  offset="0" style="stop-color:#FFFFFF"/>
		<stop  offset="1" style="stop-color:#E6E7E8"/>
	</radialGradient>
	<path fill="url(#SVGID_22_)" d="M466.41,447.408c0.978,24.277-13.261,44.576-31.798,45.319
		c-18.54,0.747-34.355-18.342-35.332-42.62c-0.979-24.285,13.256-44.572,31.796-45.318
		C449.614,404.045,465.433,423.121,466.41,447.408z"/>
	<path d="M456.323,439.431c0.564,14.105-6.381,25.83-15.522,26.196c-9.138,0.369-17.008-10.76-17.576-24.866
		c-0.564-14.095,6.386-25.819,15.523-26.188C447.889,414.204,455.756,425.334,456.323,439.431z"/>
	<path fill="#FFFFFF" d="M453.486,432.796c0.21,5.247-3.86,9.659-9.104,9.866c-5.24,0.211-9.658-3.857-9.869-9.104
		c-0.21-5.24,3.867-9.657,9.106-9.87C448.862,423.48,453.276,427.554,453.486,432.796z"/>
	<path fill="#107139" d="M371.052,467.999c-24.661,8.429-41.092,33.982-18.46,29.416c22.632-4.57,40.102-5.501,63.075-0.747
		c20.604,4.266,34.545-7.72,45.667-15.333c11.118-7.613,8.275-27.292-23.258-28.594
		C406.542,451.438,371.052,467.999,371.052,467.999z"/>
	<g>
		
			<radialGradient id="SVGID_23_" cx="1638.3271" cy="-113.271" r="129.443" gradientTransform="matrix(-0.9376 0.5533 0.5082 0.8612 2017.0446 -351.3673)" gradientUnits="userSpaceOnUse">
			<stop  offset="8.370500e-04" style="stop-color:#AEC99D"/>
			<stop  offset="0.4059" style="stop-color:#31B457"/>
			<stop  offset="0.9702" style="stop-color:#008042"/>
		</radialGradient>
		<path fill="url(#SVGID_23_)" d="M345.359,480.667c20.643-25.946,33.28-37.532,82.733-50.204
			c49.454-12.672,69.217,19.443,35.58,45.059c-33.637,25.612-63.855,6.034-84.044,12.444
			C344.109,499.24,336.099,492.303,345.359,480.667z"/>
		<path fill="none" stroke="#006028" stroke-width="2.9208" stroke-miterlimit="10" d="M371.424,463.907
			c0,0,38.29-23.974,82.051-20.899"/>
		<path fill="none" stroke="#006028" stroke-width="2.9208" stroke-miterlimit="10" d="M371.103,470.979
			c0,0,45.104-7.354,76.039,1.913"/>
	</g>
	
		<radialGradient id="SVGID_24_" cx="437.812" cy="152.5039" r="69.9174" gradientTransform="matrix(0.9992 -0.0402 0.0402 0.9992 -11.7289 237.0536)" gradientUnits="userSpaceOnUse">
		<stop  offset="8.370500e-04" style="stop-color:#AEC99D"/>
		<stop  offset="0.4059" style="stop-color:#31B457"/>
		<stop  offset="0.7261" style="stop-color:#008544"/>
		<stop  offset="1" style="stop-color:#006A30"/>
	</radialGradient>
	<path fill="url(#SVGID_24_)" d="M440.361,369.07c-30.03,5.359-54.47,17.016-62.561,66.564
		C398.302,384.994,440.361,369.07,440.361,369.07z"/>
	
		<radialGradient id="SVGID_25_" cx="606.9131" cy="158.1523" r="46.9467" gradientTransform="matrix(0.9992 -0.0402 0.0402 0.9992 -11.7289 237.0536)" gradientUnits="userSpaceOnUse">
		<stop  offset="8.370500e-04" style="stop-color:#AEC99D"/>
		<stop  offset="0.4059" style="stop-color:#31B457"/>
		<stop  offset="0.7261" style="stop-color:#008544"/>
		<stop  offset="1" style="stop-color:#006A30"/>
	</radialGradient>
	<path fill="url(#SVGID_25_)" d="M553.784,372.811c0,0,27.399,3.05,56.112,38.665C598.098,383.482,570.622,363.832,553.784,372.811z
		"/>
	
		<radialGradient id="SVGID_26_" cx="422.1152" cy="249.0396" r="0" gradientTransform="matrix(0.9992 -0.0402 0.0402 0.9992 -11.7289 237.0536)" gradientUnits="userSpaceOnUse">
		<stop  offset="8.370500e-04" style="stop-color:#AEC99D"/>
		<stop  offset="0.4059" style="stop-color:#31B457"/>
		<stop  offset="0.7261" style="stop-color:#008544"/>
		<stop  offset="1" style="stop-color:#006A30"/>
	</radialGradient>
	<path fill="url(#SVGID_26_)" d="M420.061,468.925"/>
	<path fill="#107139" d="M624,450c-10.854-22.343-22.093-19.633-48.333-10c-26.333,9.667,11.647,52.36,33.667,52
		C629.667,491.667,620,507.334,620,507.334S641,485,624,450z"/>
	
		<radialGradient id="SVGID_27_" cx="595.9155" cy="291.4121" r="83.512" gradientTransform="matrix(1 0 0 1 0 169)" gradientUnits="userSpaceOnUse">
		<stop  offset="8.370500e-04" style="stop-color:#AEC99D"/>
		<stop  offset="0.4059" style="stop-color:#31B457"/>
		<stop  offset="0.9702" style="stop-color:#008042"/>
	</radialGradient>
	<path fill="url(#SVGID_27_)" d="M628.667,442C620,429.667,609.34,426.183,582,432c-31.333,6.667-1,51.334,27.667,55.334
		C631.004,490.312,626,498,626,498S651.038,473.836,628.667,442z"/>
	<path fill="#F9ED32" d="M556,499c-22-8-52-6-82,9s-35,35-10,35s21-11,65-12s39,18,51,8S588.946,510.98,556,499z"/>
	<path fill="#A13422" d="M465,531c2.958,9.861,32-8,63-7s39,13,45,6s-18-26-46-24S462,521,465,531z"/>
	<path fill="none" stroke="#006028" stroke-width="2.6595" stroke-miterlimit="10" d="M635,484c0,0-8-16-38-18"/>
	<path fill="none" stroke="#006028" stroke-width="2.6595" stroke-miterlimit="10" d="M638.333,466.667c0,0-10-27.333-50-24.333"/>
	<path fill="#F1B937" d="M467,525.667c0,0,29.667-20,63.333-19.667c32.332,0.319,43,19,42,22s-3.667,4.334-4.333,4.667
		c2.333,2,9,0.667,10.667-5.333s-6.333-16.666-23.333-21S494.333,497,467,525.667z"/>
	<path fill="#F1B937" d="M466.667,511.334c0,0-24.666,15-19.333,26s23,7.666,37.333,1.666c-23,2.334-28.666,1.334-31.333-4.333
		S466.667,511.334,466.667,511.334z"/>
</g>
</svg>
