<?xml version="1.0" encoding="iso-8859-1"?>
<!-- Generator: Adobe Illustrator 16.0.0, SVG Export Plug-In . SVG Version: 6.00 Build 0)  -->
<!DOCTYPE svg PUBLIC "-//W3C//DTD SVG 1.1//EN" "http://www.w3.org/Graphics/SVG/1.1/DTD/svg11.dtd">
<svg version="1.1" xmlns="http://www.w3.org/2000/svg" xmlns:xlink="http://www.w3.org/1999/xlink" x="0px" y="0px" width="1440px"
	 height="960px" viewBox="0 0 1440 960" enable-background="new 0 0 1440 960" xml:space="preserve">
<g id="Water">
	<linearGradient id="SVGID_1_" gradientUnits="userSpaceOnUse" x1="1308.4062" y1="-87.1138" x2="1308.4062" y2="679.535">
		<stop  offset="0" style="stop-color:#5BC0AC"/>
		<stop  offset="0.4898" style="stop-color:#00A388"/>
		<stop  offset="1" style="stop-color:#008670"/>
	</linearGradient>
	<rect x="-116.101" y="-504.334" fill="url(#SVGID_1_)" width="2849.013" height="1904.864"/>
	<path fill="#B1D9AC" d="M2818.403,26.317c246.576-49.315-711.879,398.965-1110.844,324.647
		c-398.965-74.316-555.422-191.659-985.679-160.368c-430.256,31.292-680.587-50.849-848.778,89.963
		c-168.191,140.812-86.051,187.748-86.051,187.748s105.608-121.254,352.028-152.545c246.42-31.292,524.131-125.166,735.348-43.025
		c211.217,82.14,441.99,160.368,743.17,168.19c301.18,7.823,461.548-19.557,711.879-82.14s430.257-164.279,496.751-199.482
		S2798.846,30.229,2818.403,26.317z"/>
	<path fill="#AEDBC3" d="M2845.783-16.708c-140.811,46.937-309.002,277.711-707.967,324.648
		c-398.966,46.938,23.469,27.38-563.245-66.494S909.629,77.166,678.855,112.368c-230.774,35.203-144.723,101.697-469.371,89.963
		s-473.282,82.14-504.573,97.786C-326.38,315.763-138.632,96.723-138.632,96.723s105.608-19.557,340.294-11.734
		c234.685,7.823,312.914-136.899,750.993-58.671c438.079,78.229,840.956,152.546,1106.933,136.899
		c265.977-15.646,700.145-199.482,711.879-203.394C2783.201-44.088,2845.783-16.708,2845.783-16.708z"/>
	<path opacity="0.3" fill="#AEDBC3" d="M2904.455-1.062c0,0-160.369,207.306-664.942,246.42
		C1734.939,284.471,1175.606,18.494,702.324,38.052c-473.282,19.557-989.59,191.659-989.59,191.659v183.837
		c0,0,614.093-289.445,1130.4-215.128c516.309,74.317,1118.667,238.597,1548.924,136.899
		c430.256-101.696,555.422-215.128,555.422-215.128L2904.455-1.062z"/>
	<path opacity="0.3" fill="#AEDBC3" d="M2712.795-55.822c0,0-160.368,207.305-664.941,246.419
		C1543.279,229.711,983.946-36.266,510.665-16.708C37.382,2.849-185.569,147.571-185.569,147.571v183.837
		c0,0,320.737-262.065,837.044-187.748c516.308,74.316,1118.667,238.597,1548.923,136.899
		C2630.655,178.863,3057-149.697,3057-149.697L2712.795-55.822z"/>
	<path opacity="0.3" fill="#AEDBC3" d="M2834.049,319.674c0,0-395.053,332.471-899.627,371.585
		C1429.849,730.373,870.516,464.396,397.233,483.954C-76.049,503.511-299,648.233-299,648.233V832.07
		c0,0,320.737-262.065,837.044-187.748c516.307,74.316,1118.667,238.597,1548.922,136.899
		c430.257-101.697,856.602-430.257,856.602-430.257L2834.049,319.674z"/>
</g>
<g id="Glow">
	<g opacity="0.3">
		
			<image overflow="visible" width="8889" height="6850" xlink:href="1DAA81304DCDD6D1.png"  transform="matrix(0.24 0 0 0.24 596 341)">
		</image>
	</g>
</g>
<g id="Uma">
	<g>
		<polygon fill="#D09611" points="945.904,1142.044 766.031,1053.804 966.269,1097.924 		"/>
		<polygon fill="#D09611" points="949.299,1328.707 793.182,1315.131 942.512,1287.98 		"/>
		<polygon fill="#D09611" points="1020.569,1457.673 874.634,1478.035 1013.783,1416.947 		"/>
		<polygon fill="#D09611" points="1040.932,982.534 857.664,836.598 1061.295,938.414 		"/>
		<polygon fill="#D09611" points="1166.505,853.567 1051.114,690.661 1203.838,819.627 		"/>
		<polygon fill="#D09611" points="1326.018,744.966 1241.17,571.877 1363.35,711.025 		"/>
		<polygon fill="#D09611" points="1505.892,677.09 1485.527,504 1536.436,666.905 		"/>
		<polygon fill="#D09611" points="1665.402,666.907 1699.34,493.817 1695.946,656.723 		"/>
		<polygon fill="#D09611" points="1838.488,694.058 1872.427,520.968 1869.032,683.873 		"/>
		<polygon fill="#D09611" points="2018.363,711.025 2093.027,595.633 2055.695,727.993 		"/>
		<polygon fill="#D09611" points="2164.297,806.054 2255.934,687.268 2201.632,829.81 		"/>
		<polygon fill="#D09611" points="2296.66,924.838 2415.444,836.598 2327.204,965.563 		"/>
		<polygon fill="#D09611" points="2388.294,1067.38 2541.017,1006.29 2418.838,1108.106 		"/>
		<polygon fill="#D09611" points="2425.626,1189.559 2608.895,1175.982 2456.17,1230.284 		"/>
		<polygon fill="#D09611" points="2418.838,1301.555 2574.957,1328.707 2415.444,1349.068 		"/>
		<polygon fill="#D09611" points="2388.294,1406.763 2530.834,1471.247 2384.9,1454.277 		"/>
		<radialGradient id="SVGID_2_" cx="1546.6162" cy="1043.624" r="671.1004" gradientUnits="userSpaceOnUse">
			<stop  offset="8.370500e-04" style="stop-color:#F6E39D"/>
			<stop  offset="0.4059" style="stop-color:#FFE72A"/>
			<stop  offset="0.7261" style="stop-color:#F6D933"/>
			<stop  offset="1" style="stop-color:#F8BE15"/>
		</radialGradient>
		<path fill="url(#SVGID_2_)" d="M2344.172,1511.976c0,0-319.023-16.968-529.441-20.362c-210.419-3.394-624.47,10.182-712.71-3.394
			c-88.24-13.576-193.45-108.603-169.692-302.053c23.757-193.451,295.267-468.354,502.291-515.868
			c207.024-47.514,573.562,6.788,702.528,98.423c128.966,91.634,335.993,268.114,315.629,485.321
			C2432.412,1471.249,2344.172,1511.976,2344.172,1511.976z"/>
		<path fill="#EF4136" d="M1071.477,1495.008c0,0-78.059-91.637-44.12-302.056c33.938-210.418,223.994-498.895,532.835-543.015
			c-139.148,54.3-397.081,207.024-471.746,468.351c-74.665,261.327,27.151,376.72,27.151,376.72H1071.477z"/>
		<path fill="#F7941E" d="M1087.315,1497.27c0,0-78.059-91.636-44.12-302.055c33.938-210.418,223.994-498.895,532.835-543.015
			c-139.148,54.3-397.081,207.024-471.746,468.351c-74.665,261.327,27.151,376.719,27.151,376.719H1087.315z"/>
		<path fill="#EF4136" d="M1258.139,1491.613c0,0-111.998-193.45-10.182-458.171s190.057-335.989,352.961-373.323
			c-78.059,47.512-244.359,152.725-315.629,386.899c-71.271,234.174,20.364,444.595,20.364,444.595H1258.139z"/>
		<path fill="#F7941E" d="M1271.715,1496.139c0,0-111.998-193.45-10.182-458.171s190.057-335.989,352.961-373.323
			c-78.059,47.512-244.359,152.725-315.629,386.899c-71.271,234.174,20.364,444.595,20.364,444.595H1271.715z"/>
		<path fill="#EF4136" d="M1539.832,1497.283c0,0-78.062-97.304-71.274-300.937c6.302-189.038,88.242-478.531,196.845-546.409
			c-50.908,88.24-132.363,339.385-149.331,566.773c-12.385,165.976,67.688,279.267,67.688,279.267L1539.832,1497.283z"/>
		<path fill="#F7941E" d="M1557.741,1491.452c0,0-78.062-97.305-71.274-300.937c6.302-189.038,88.242-478.531,196.845-546.41
			c-50.908,88.24-132.362,339.385-149.331,566.773c-12.385,165.977,74.669,287.361,74.669,287.361L1557.741,1491.452z"/>
		<path fill="#EF4136" d="M1727.621,660.119c0,0,315.631,261.327,257.936,631.256c-25.878,165.911-84.847,207.024-84.847,207.024
			l71.271-3.392c0,0,30.544-47.515,50.905-196.845C2064.65,991.874,1870.162,711.027,1727.621,660.119z"/>
		<path fill="#F7941E" d="M1709.52,660.119c0,0,315.631,261.327,257.936,631.256c-25.877,165.911-84.847,207.024-84.847,207.024
			l71.271-3.392c0,0,30.544-47.515,50.906-196.845C2046.549,991.874,1852.061,711.027,1709.52,660.119z"/>
		<path fill="#EF4136" d="M1906.364,690.663c0,0,316.626,141.464,325.812,444.596c6.788,223.994-54.303,295.262-91.635,363.141
			c57.694,0,67.876,3.394,67.876,3.394s74.665-193.448,54.303-369.929S2103.209,748.359,1906.364,690.663z"/>
		<path fill="#F7941E" d="M1890.525,690.663c0,0,316.626,141.464,325.812,444.596c6.788,223.994-54.302,295.262-91.635,363.141
			c57.694,0,67.876,3.394,67.876,3.394s74.664-193.448,54.303-369.929C2226.519,955.384,2087.37,748.359,1890.525,690.663z"/>
		<path fill="#EF4136" d="M2149.431,783.232c0,0,247.762,289.644,230.792,479.699c-16.971,190.057-98.423,251.145-98.423,251.145
			l50.908-6.785c0,0,64.785-54.539,81.452-254.541C2427.736,1089.846,2230.883,837.534,2149.431,783.232z"/>
		<path fill="#F7941E" d="M2149.431,783.232c0,0,229.66,282.855,212.69,472.912c-16.971,190.056-98.423,251.145-98.423,251.145
			l50.908-6.786c0,0,64.785-54.539,81.452-254.541C2409.635,1083.058,2230.883,837.534,2149.431,783.232z"/>
		<radialGradient id="SVGID_3_" cx="1380.251" cy="530.7393" r="110.5256" gradientUnits="userSpaceOnUse">
			<stop  offset="8.370500e-04" style="stop-color:#F6E39D"/>
			<stop  offset="0.4059" style="stop-color:#FFE72A"/>
			<stop  offset="0.7261" style="stop-color:#F6D933"/>
			<stop  offset="1" style="stop-color:#F8BE15"/>
		</radialGradient>
		<polygon fill="url(#SVGID_3_)" points="1450.262,667.835 1332.602,403.102 1416.321,683.674 		"/>
		<radialGradient id="SVGID_4_" cx="1579.0859" cy="511.6074" r="102.5081" gradientUnits="userSpaceOnUse">
			<stop  offset="8.370500e-04" style="stop-color:#F6E39D"/>
			<stop  offset="0.4059" style="stop-color:#FFE72A"/>
			<stop  offset="0.7261" style="stop-color:#F6D933"/>
			<stop  offset="1" style="stop-color:#F8BE15"/>
		</radialGradient>
		<polygon fill="url(#SVGID_4_)" points="1615.438,658.785 1554.345,385 1579.234,663.31 		"/>
		<radialGradient id="SVGID_5_" cx="1774.9102" cy="533.4102" r="98.2788" gradientUnits="userSpaceOnUse">
			<stop  offset="8.370500e-04" style="stop-color:#F6E39D"/>
			<stop  offset="0.4059" style="stop-color:#FFE72A"/>
			<stop  offset="0.7261" style="stop-color:#F6D933"/>
			<stop  offset="1" style="stop-color:#F8BE15"/>
		</radialGradient>
		<polygon fill="url(#SVGID_5_)" points="1796.452,676.886 1782.876,409.89 1760.249,681.411 		"/>
		<radialGradient id="SVGID_6_" cx="1943.8643" cy="537.1191" r="107.0794" gradientUnits="userSpaceOnUse">
			<stop  offset="8.370500e-04" style="stop-color:#F6E39D"/>
			<stop  offset="0.4059" style="stop-color:#FFE72A"/>
			<stop  offset="0.7261" style="stop-color:#F6D933"/>
			<stop  offset="1" style="stop-color:#F8BE15"/>
		</radialGradient>
		<polygon fill="url(#SVGID_6_)" points="1952.577,690.462 1984.255,405.364 1916.374,694.987 		"/>
		<radialGradient id="SVGID_7_" cx="2131.4062" cy="638.9219" r="95.4419" gradientUnits="userSpaceOnUse">
			<stop  offset="8.370500e-04" style="stop-color:#F6E39D"/>
			<stop  offset="0.4059" style="stop-color:#FFE72A"/>
			<stop  offset="0.7261" style="stop-color:#F6D933"/>
			<stop  offset="1" style="stop-color:#F8BE15"/>
		</radialGradient>
		<polygon fill="url(#SVGID_7_)" points="2120.016,769.656 2194.685,529.812 2088.338,751.555 		"/>
		<radialGradient id="SVGID_8_" cx="2283.9775" cy="771.7881" r="86.7129" gradientUnits="userSpaceOnUse">
			<stop  offset="8.370500e-04" style="stop-color:#F6E39D"/>
			<stop  offset="0.4059" style="stop-color:#FFE72A"/>
			<stop  offset="0.7261" style="stop-color:#F6D933"/>
			<stop  offset="1" style="stop-color:#F8BE15"/>
		</radialGradient>
		<polygon fill="url(#SVGID_8_)" points="2267.09,882.79 2355.335,679.148 2235.412,864.688 		"/>
		<radialGradient id="SVGID_9_" cx="2423.1445" cy="925.6416" r="91.5716" gradientUnits="userSpaceOnUse">
			<stop  offset="8.370500e-04" style="stop-color:#F6E39D"/>
			<stop  offset="0.4059" style="stop-color:#FFE72A"/>
			<stop  offset="0.7261" style="stop-color:#F6D933"/>
			<stop  offset="1" style="stop-color:#F8BE15"/>
		</radialGradient>
		<polygon fill="url(#SVGID_9_)" points="2387.013,1023.076 2522.773,844.324 2355.335,1004.976 		"/>
		<radialGradient id="SVGID_10_" cx="2529.0254" cy="1098.4043" r="107.5697" gradientUnits="userSpaceOnUse">
			<stop  offset="8.370500e-04" style="stop-color:#F6E39D"/>
			<stop  offset="0.4059" style="stop-color:#FFE72A"/>
			<stop  offset="0.7261" style="stop-color:#F6D933"/>
			<stop  offset="1" style="stop-color:#F8BE15"/>
		</radialGradient>
		<polygon fill="url(#SVGID_10_)" points="2432.266,1158.838 2681.161,1047.966 2425.479,1129.423 		"/>
		<radialGradient id="SVGID_11_" cx="2539.4775" cy="1251.4121" r="104.0456" gradientUnits="userSpaceOnUse">
			<stop  offset="8.370500e-04" style="stop-color:#F6E39D"/>
			<stop  offset="0.4059" style="stop-color:#FFE72A"/>
			<stop  offset="0.7261" style="stop-color:#F6D933"/>
			<stop  offset="1" style="stop-color:#F8BE15"/>
		</radialGradient>
		<polygon fill="url(#SVGID_11_)" points="2439.055,1267.446 2697,1238.031 2432.266,1238.031 		"/>
		<radialGradient id="SVGID_12_" cx="2511.9521" cy="1383.8916" r="111.2756" gradientUnits="userSpaceOnUse">
			<stop  offset="8.370500e-04" style="stop-color:#F6E39D"/>
			<stop  offset="0.4059" style="stop-color:#FFE72A"/>
			<stop  offset="0.7261" style="stop-color:#F6D933"/>
			<stop  offset="1" style="stop-color:#F8BE15"/>
		</radialGradient>
		<polygon fill="url(#SVGID_12_)" points="2405.114,1389.631 2678.898,1412.258 2398.326,1360.217 		"/>
		<radialGradient id="SVGID_13_" cx="1141.7188" cy="640.7754" r="118.3595" gradientUnits="userSpaceOnUse">
			<stop  offset="8.370500e-04" style="stop-color:#F6E39D"/>
			<stop  offset="0.4059" style="stop-color:#FFE72A"/>
			<stop  offset="0.7261" style="stop-color:#F6D933"/>
			<stop  offset="1" style="stop-color:#F8BE15"/>
		</radialGradient>
		<path fill="url(#SVGID_13_)" d="M1260.196,753.817L1061.08,527.549l176.489,248.896
			C1237.569,776.444,1253.408,756.08,1260.196,753.817z"/>
		<radialGradient id="SVGID_14_" cx="981.293" cy="779.1982" r="122.7081" gradientUnits="userSpaceOnUse">
			<stop  offset="8.370500e-04" style="stop-color:#F6E39D"/>
			<stop  offset="0.4059" style="stop-color:#FFE72A"/>
			<stop  offset="0.7261" style="stop-color:#F6D933"/>
			<stop  offset="1" style="stop-color:#F8BE15"/>
		</radialGradient>
		<path fill="url(#SVGID_14_)" d="M1126.697,873.739L882.328,681.411l221.742,214.955
			C1104.07,896.366,1119.91,876.002,1126.697,873.739z"/>
		<radialGradient id="SVGID_15_" cx="852.9756" cy="947.2393" r="128.1495" gradientUnits="userSpaceOnUse">
			<stop  offset="8.370500e-04" style="stop-color:#F6E39D"/>
			<stop  offset="0.4059" style="stop-color:#FFE72A"/>
			<stop  offset="0.7261" style="stop-color:#F6D933"/>
			<stop  offset="1" style="stop-color:#F8BE15"/>
		</radialGradient>
		<path fill="url(#SVGID_15_)" d="M1022.614,1020.814L737.517,866.951l262.472,176.489
			C999.988,1043.44,1015.826,1023.076,1022.614,1020.814z"/>
		<radialGradient id="SVGID_16_" cx="798.1279" cy="1206.7812" r="105.4092" gradientUnits="userSpaceOnUse">
			<stop  offset="8.370500e-04" style="stop-color:#F6E39D"/>
			<stop  offset="0.4059" style="stop-color:#FFE72A"/>
			<stop  offset="0.7261" style="stop-color:#F6D933"/>
			<stop  offset="1" style="stop-color:#F8BE15"/>
		</radialGradient>
		<path fill="url(#SVGID_16_)" d="M956.996,1199.566L690,1188.253l266.996,40.728
			C956.996,1228.98,950.209,1201.828,956.996,1199.566z"/>
		<radialGradient id="SVGID_17_" cx="828.6816" cy="1394.3887" r="102.0804" gradientUnits="userSpaceOnUse">
			<stop  offset="8.370500e-04" style="stop-color:#F6E39D"/>
			<stop  offset="0.4059" style="stop-color:#FFE72A"/>
			<stop  offset="0.7261" style="stop-color:#F6D933"/>
			<stop  offset="1" style="stop-color:#F8BE15"/>
		</radialGradient>
		<path fill="url(#SVGID_17_)" d="M970.572,1362.479l-244.369,70.143l246.633-40.728
			C972.836,1391.895,988.674,1371.53,970.572,1362.479z"/>
		<linearGradient id="SVGID_18_" gradientUnits="userSpaceOnUse" x1="1087.3154" y1="1149.4688" x2="2457.1602" y2="1149.4688">
			<stop  offset="0" style="stop-color:#FFFFFF"/>
			<stop  offset="1" style="stop-color:#651819"/>
		</linearGradient>
		<path opacity="0.4" fill="url(#SVGID_18_)" d="M1087.315,1497.27c0,0,419.513-28.444,568.851-82.749
			c149.337-54.304,171.964-339.402,402.758-366.555c230.793-27.151,106.346-224.005,61.092-278.31
			c190.065,95.032,336.154,277.359,337.14,454.799c0.805,144.881-90.507,280.573-90.507,280.573s-262.472,31.678-592.823,22.627
			S1087.315,1497.27,1087.315,1497.27z"/>
		<path fill="#FBB040" d="M996.812,1366.039l-288.478,23.756l264.722-64.482C973.057,1325.312,1013.781,1311.736,996.812,1366.039z"
			/>
		<polygon fill="#FBB040" points="986.631,1230.284 718.517,1118.286 1003.601,1199.74 		"/>
		<polygon fill="#FBB040" points="1037.539,1070.774 857.664,918.05 1051.114,1040.228 		"/>
		<polygon fill="#FBB040" points="1125.779,894.294 962.874,714.419 1149.537,867.142 		"/>
		<polygon fill="#FBB040" points="1285.291,748.357 1139.354,534.545 1312.441,741.569 		"/>
		<polygon fill="#FBB040" points="1450.262,667.835 1407.47,466.667 1485.527,666.905 		"/>
		<polygon fill="#FBB040" points="2340.779,965.563 2462.958,833.203 2357.748,996.107 		"/>
		<polygon fill="#FBB040" points="2405.262,1118.286 2595.318,1030.046 2401.868,1145.438 		"/>
		<polygon fill="#FBB040" points="2439.2,1304.948 2676.771,1321.919 2449.382,1274.404 		"/>
		<polygon fill="#FBB040" points="1220.807,951.988 1061.297,772.113 1254.746,924.838 		"/>
		<polygon fill="#FBB040" points="1163.111,1070.774 969.662,907.867 1186.869,1019.866 		"/>
		<polygon fill="#FBB040" points="1149.537,1179.376 918.754,1097.924 1129.173,1216.708 		"/>
		<polygon fill="#FBB040" points="1129.173,1301.555 915.36,1301.555 1139.354,1335.495 		"/>
		<polygon fill="#FBB040" points="1139.354,1410.159 942.512,1474.641 1163.111,1444.097 		"/>
		<polygon fill="#FBB040" points="1332.806,819.627 1186.869,531.15 1370.138,799.266 		"/>
		<polygon fill="#FBB040" points="1461.771,697.449 1393.894,422.546 1492.315,680.479 		"/>
		<polygon fill="#FBB040" points="2042.121,734.781 2150.724,504 2082.848,761.934 		"/>
		<polygon fill="#FBB040" points="2160.905,850.174 2313.628,612.604 2194.844,877.323 		"/>
		<polygon fill="#FBB040" points="2255.934,985.928 2439.2,799.266 2272.901,1033.439 		"/>
		<polygon fill="#FBB040" points="2306.842,1111.5 2636.045,1050.41 2310.236,1155.62 		"/>
		<polygon fill="#FBB040" points="2333.992,1254.043 2656.408,1284.587 2330.598,1287.98 		"/>
		<polygon fill="#FBB040" points="2313.628,1416.947 2625.862,1450.885 2317.021,1386.4 		"/>
		<polygon fill="#FBB040" points="1370.138,1413.553 1102.022,1393.188 1370.138,1383.007 		"/>
		<polygon fill="#FBB040" points="1356.562,1298.16 1074.871,1243.86 1366.743,1247.255 		"/>
		<polygon fill="#FBB040" points="1359.955,1172.588 1105.416,1080.954 1370.138,1128.468 		"/>
		<polygon fill="#FBB040" points="1397.287,1030.046 1190.263,904.474 1404.075,989.32 		"/>
		<polygon fill="#FBB040" points="1431.226,907.867 1260.196,753.817 1458.378,867.142 		"/>
		<polygon fill="#FBB040" points="1516.071,778.901 1332.806,592.238 1488.922,806.054 		"/>
		<polygon fill="#FBB040" points="1563.586,717.813 1499.104,429.334 1590.738,694.055 		"/>
		<polygon fill="#FBB040" points="1855.459,717.812 1933.517,480.242 1899.578,741.569 		"/>
		<polygon fill="#FBB040" points="1950.486,799.266 2069.271,514.181 1991.213,819.627 		"/>
		<polygon fill="#FBB040" points="2045.513,873.93 2232.176,656.723 2072.665,914.655 		"/>
		<polygon fill="#FBB040" points="2103.209,982.534 2364.536,778.901 2130.361,1016.472 		"/>
		<polygon fill="#FBB040" points="2143.936,1087.742 2462.958,1043.622 2160.905,1131.862 		"/>
		<polygon fill="#FBB040" points="2157.512,1237.072 2432.266,1238.031 2154.117,1196.347 		"/>
		<polygon fill="#FBB040" points="2160.905,1376.221 2439.2,1396.583 2171.088,1332.101 		"/>
		<polygon fill="#FBB040" points="2109.997,1467.855 2332.708,1507.291 2130.361,1420.341 		"/>
		<polygon fill="#FBB040" points="1770.612,778.901 1821.519,666.905 1807.944,823.021 		"/>
		<polygon fill="#FBB040" points="1638.252,829.81 1563.586,683.873 1662.008,778.901 		"/>
		<polygon fill="#FBB040" points="1624.676,941.806 1495.71,884.111 1628.07,1016.472 		"/>
		<polygon fill="#FBB040" points="1821.519,928.231 1831.7,1002.896 1987.818,884.111 		"/>
		<polygon fill="#FBB040" points="1590.738,1135.256 1400.682,1121.68 1573.768,1189.559 		"/>
		<polygon fill="#FBB040" points="1597.525,1294.767 1393.894,1315.131 1600.92,1345.675 		"/>
		<polygon fill="#FBB040" points="1624.676,1420.341 1645.038,1464.461 1458.378,1508.581 		"/>
		<polygon fill="#FBB040" points="1879.215,1108.106 1889.396,1165.803 2096.421,1087.742 		"/>
		<polygon fill="#FBB040" points="1913.152,1233.679 1909.759,1287.98 2154.117,1298.16 		"/>
		<polygon fill="#FBB040" points="1909.759,1383.007 1882.608,1433.915 2106.604,1505.188 		"/>
		<path fill="#FBB040" d="M1699.34,850.174l13.576-95.028l23.756,101.813C1736.672,856.959,1702.734,867.144,1699.34,850.174z"/>
		<polygon fill="#FBB040" points="1702.734,1016.472 1726.492,945.199 1746.854,1023.26 		"/>
		<path fill="#FBB040" d="M1729.887,1108.106c-26.552,8.85-23.761,78.058,3.392,74.664
			C1760.431,1179.376,1760.433,1097.927,1729.887,1108.106z"/>
		<polygon fill="#FBB040" points="1706.128,1281.192 1736.672,1383.007 1763.824,1281.192 		"/>
		<polygon fill="#FBB040" points="1723.098,1437.309 1743.46,1559.487 1757.036,1440.703 		"/>
	</g>
</g>
<g id="Pablo">
	<g>
		<radialGradient id="SVGID_19_" cx="-812.7451" cy="646.6436" r="54.3471" gradientUnits="userSpaceOnUse">
			<stop  offset="8.370500e-04" style="stop-color:#AEC99D"/>
			<stop  offset="0.4059" style="stop-color:#31B457"/>
			<stop  offset="0.9702" style="stop-color:#008042"/>
		</radialGradient>
		<path fill="url(#SVGID_19_)" d="M-823.319,679.498c0,0,16.086-6.624,24.599-17.034c8.519-10.407-8.988-43.053-8.988-43.053
			L-823.319,679.498z"/>
		<path fill="#107139" d="M-819.536,674.293c0,0,6.151,0,11.827-10.408c5.678-10.41,8.043-26.969,3.786-32.646
			C-808.182,625.562-819.536,674.293-819.536,674.293z"/>
		<radialGradient id="SVGID_20_" cx="-940.4678" cy="590.1152" r="350.4979" gradientUnits="userSpaceOnUse">
			<stop  offset="8.370500e-04" style="stop-color:#AEC99D"/>
			<stop  offset="0.4059" style="stop-color:#31B457"/>
			<stop  offset="0.7261" style="stop-color:#008544"/>
			<stop  offset="1" style="stop-color:#006A30"/>
		</radialGradient>
		<path fill="url(#SVGID_20_)" d="M-853.928,712.795c1.421,0,41.16-19.161,53.938-98.647c7.979-49.649-22.712-75.228-46.13-100.066
			c-23.421-24.837-75.936-36.193-136.26-29.097c-60.323,7.098-137.68,30.516-182.389,88c-32.662,41.996-38.401,94.253-74.514,47.571
			c-19.523-25.236-62.659-3.769-70.465,6.166c37.875-21.14,70.465,24.663,29.948,51.086c25.543-19.378,62.536,26.422,26.424,45.802
			c39.637,0.882,29.959-55.95,68.803-37.369c48.966,23.418,156.064,57.067,196.517,59.197
			C-947.605,747.566-853.928,712.795-853.928,712.795z"/>
		<path fill="#F9ED32" d="M-873.939,662.194c-16.008,11.363-23.063,17.105-42.421,9.558c-19.354-7.548-21.736-21.984-7.709-13.523
			c14.029,8.468,28.501,9.127,44.576-0.279C-859.128,646.039-861.633,653.465-873.939,662.194z"/>
		<path fill="#D8E040" d="M-839.499,701.674c-8.513,3.549-38.32-23.418-100.063,5.676c-72.357,34.101-128.035,16.737-182.681,3.963
			c91.548,32.646,148.563,40.006,179.791,36.96C-870.225,741.225-839.499,701.674-839.499,701.674z"/>
		
			<ellipse transform="matrix(0.9664 -0.2572 0.2572 0.9664 -160.1202 -223.4778)" fill="#107139" cx="-934.319" cy="500.332" rx="13.838" ry="6.389"/>
		<path fill="#107139" d="M-982.734,492.441c0.438,1.645-2.096,3.748-5.656,4.695c-3.563,0.947-6.806,0.385-7.243-1.259
			c-0.438-1.647,2.095-3.747,5.657-4.695C-986.415,490.234-983.172,490.798-982.734,492.441z"/>
		<path fill="#107139" d="M-993.731,489.975c0.601,2.254-2.873,5.137-7.759,6.438c-4.884,1.297-9.328,0.521-9.928-1.73
			c-0.601-2.254,2.873-5.137,7.757-6.436C-998.778,486.947-994.33,487.723-993.731,489.975z"/>
		
			<ellipse transform="matrix(0.9664 -0.2572 0.2572 0.9664 -169.2264 -259.3281)" fill="#107139" cx="-1075.99" cy="517.266" rx="9.151" ry="4.224"/>
		
			<ellipse transform="matrix(0.8888 -0.4584 0.4584 0.8888 -354.3354 -419.8431)" fill="#107139" cx="-1042.15" cy="520.099" rx="6.905" ry="3.186"/>
		
			<ellipse transform="matrix(0.8887 -0.4584 0.4584 0.8887 -377.3144 -449.6585)" fill="#107139" cx="-1115.001" cy="552.479" rx="6.904" ry="3.187"/>
		
			<ellipse transform="matrix(0.8887 -0.4585 0.4585 0.8887 -374.0161 -432.1715)" fill="#107139" cx="-1077.146" cy="554.271" rx="4.765" ry="2.198"/>
		<path fill="#107139" d="M-869.259,504.923c0.515,0.993-0.818,2.698-2.971,3.812c-2.151,1.109-4.312,1.203-4.825,0.213
			c-0.512-0.995,0.816-2.703,2.971-3.813C-871.93,504.026-869.771,503.931-869.259,504.923z"/>
		
			<ellipse transform="matrix(0.8887 -0.4585 0.4585 0.8887 -394.4236 -429.9524)" fill="#107139" cx="-1082.779" cy="597.413" rx="4.765" ry="2.198"/>
		
			<ellipse transform="matrix(0.8887 -0.4586 0.4586 0.8887 -391.6444 -458.9331)" fill="#107139" cx="-1140.894" cy="577.039" rx="4.765" ry="2.2"/>
		<path fill="#107139" d="M-926.383,701.732c0,0-53.222,22.353-123.477,9.58c-70.255-12.775-103.254-28.741-123.479-32.998
			c-20.224-4.259-33.198-20.721-33.198-12.204c0,8.514,4.457,9.009,31.069,24.977
			C-1148.855,707.053-1015.797,754.958-926.383,701.732z"/>
		<path fill="#107139" d="M-1105.995,613.821c0,0,11.308,64.761-6.167,76.58c-17.476,11.821-41.118-1.024-44.716-15.417
			s-5.14-52.938,5.14-52.426c10.278,0.512,13.877,50.369,20.046,48.825C-1125.525,669.843-1105.995,613.821-1105.995,613.821z"/>
		<g>
			
				<radialGradient id="SVGID_21_" cx="-744.8745" cy="-1902.5112" r="126.0831" gradientTransform="matrix(0.4714 -0.6369 0.5363 0.7711 247.9834 1638.9888)" gradientUnits="userSpaceOnUse">
				<stop  offset="8.370500e-04" style="stop-color:#AEC99D"/>
				<stop  offset="0.4059" style="stop-color:#31B457"/>
				<stop  offset="0.9702" style="stop-color:#008042"/>
			</radialGradient>
			<path fill="url(#SVGID_21_)" d="M-1103.504,615.922c-6.156,7.508-10.356,0.068-29.382-8.254
				c-19.033-8.32-21.371,19.588-20.434,39.977c0.897,19.522,14.847,36.179,42.949,44.077c15.686,4.404,24.056-6.21,28.212-39.671
				c3.988-32.107-6.533-40.668-6.533-40.668C-1098.518,606.09-1097.619,608.748-1103.504,615.922z"/>
			<path fill="none" stroke="#006028" stroke-width="2.6055" stroke-miterlimit="10" d="M-1140.442,657.312
				c0,0,29.99,21.364,43.913,8.746"/>
			<path fill="none" stroke="#006028" stroke-width="2.6055" stroke-miterlimit="10" d="M-1139.985,633.492
				c0,0,25.688,17.895,40.228,7.531"/>
		</g>
		<radialGradient id="SVGID_22_" cx="-994.917" cy="722.7461" r="86.2897" gradientUnits="userSpaceOnUse">
			<stop  offset="0" style="stop-color:#DCCE80"/>
			<stop  offset="1" style="stop-color:#D7B928"/>
		</radialGradient>
		<path fill="url(#SVGID_22_)" d="M-1115.091,714.446c0,0,122.066,32.175,166.539,29.337c44.475-2.838,73.809-26.023,73.809-26.023
			s-32.175-33.118-74.284-4.732c-29.805,12.775-56.771,14.196-80.9,13.722C-1054.059,726.275-1115.091,714.446-1115.091,714.446z"/>
		<radialGradient id="SVGID_23_" cx="-846.8848" cy="587.5254" r="36.4372" gradientUnits="userSpaceOnUse">
			<stop  offset="0" style="stop-color:#FFFFFF"/>
			<stop  offset="1" style="stop-color:#E6E7E8"/>
		</radialGradient>
		<ellipse fill="url(#SVGID_23_)" cx="-846.885" cy="587.526" rx="31.27" ry="40.957"/>
		<ellipse cx="-836.313" cy="582.682" rx="15.415" ry="23.781"/>
		<path fill="#FFFFFF" d="M-827.946,570.35c0,2.919-2.367,5.283-5.284,5.283c-2.921,0-5.288-2.364-5.288-5.283
			c0-2.921,2.367-5.285,5.288-5.285C-830.313,565.064-827.946,567.429-827.946,570.35z"/>
		<radialGradient id="SVGID_24_" cx="-980.7661" cy="587.5254" r="36.437" gradientUnits="userSpaceOnUse">
			<stop  offset="0" style="stop-color:#FFFFFF"/>
			<stop  offset="1" style="stop-color:#E6E7E8"/>
		</radialGradient>
		<ellipse fill="url(#SVGID_24_)" cx="-980.766" cy="587.526" rx="31.269" ry="40.957"/>
		<ellipse cx="-970.197" cy="582.682" rx="15.414" ry="23.781"/>
		<path fill="#FFFFFF" d="M-961.83,570.35c0,2.919-2.365,5.283-5.283,5.283c-2.919,0-5.285-2.364-5.285-5.283
			c0-2.921,2.366-5.285,5.285-5.285C-964.195,565.064-961.83,567.429-961.83,570.35z"/>
		<path fill="#F1B937" d="M-932.762,655.348c-4.137,0.588-2.645,11.01,12.331,15.853c14.974,4.848,24.661,5.728,36.552-2.642
			c-11.45,3.524-11.891,3.963-27.306,0C-926.599,664.594-926.599,654.465-932.762,655.348z"/>
		<path fill="#107139" d="M-898.853,676.048c0,0-18.497,0.438-32.147-7.048c-7.616-4.179-3.965-12.773-3.965-12.773
			S-938.928,670.32-898.853,676.048z"/>
	</g>
	
		<radialGradient id="SVGID_25_" cx="483.6094" cy="434.3726" r="363.2888" gradientTransform="matrix(0.9992 -0.0402 0.0402 0.9992 -12.3916 34.7285)" gradientUnits="userSpaceOnUse">
		<stop  offset="8.370500e-04" style="stop-color:#AEC99D"/>
		<stop  offset="0.4059" style="stop-color:#31B457"/>
		<stop  offset="0.7261" style="stop-color:#008544"/>
		<stop  offset="1" style="stop-color:#006A30"/>
	</radialGradient>
	<path fill="url(#SVGID_25_)" d="M574.412,577.756c1.522-0.062,43.356-22.349,53.642-108.224
		c6.425-53.645-27.625-79.776-53.835-105.434c-26.217-25.646-83.083-35.575-147.533-25.346
		c-64.449,10.218-142.612,37.194-185.212,69.153c-36.297,27.231-50.097,57.712-71.833-1.856
		c-5.332-14.612-25.751-35.733-43.633-37.98c28.827,23.749,37.552,63.725,16.618,74.056c34.895,41.89,7.853,62.547-17.751,60.019
		c25.11,19.747,53.83-18.178,81.95,17.461c36.123,45.778,181.493,98.44,225.011,98.984
		C475.352,619.131,574.412,577.756,574.412,577.756z"/>
	<path fill="#107139" d="M449.667,524.667c0,0-16.476,18.845,3,24c11.333,3,31.667-5.334,46.333-9.667s53-6.999,65-1.666
		C554.333,526,539.667,520.666,520.667,518S471.333,514.667,449.667,524.667z"/>
	<path fill="#D8E040" d="M589.422,565.194c-8.986,4.179-42.149-23.484-107.174,10.414c-76.204,39.727-126.773,11.657-185.983,0.297
		c76.886,39.016,151.258,48.373,184.648,43.759C558.145,608.978,589.422,565.194,589.422,565.194z"/>
	<path fill="#107139" d="M493.142,348.753c1.125,3.624-4.327,8.518-12.167,10.952c-7.847,2.427-15.116,1.461-16.237-2.158
		c-1.119-3.623,4.33-8.524,12.174-10.945C484.754,344.17,492.023,345.133,493.142,348.753z"/>
	<path fill="#107139" d="M426.627,346.767c0.541,1.751-2.089,4.114-5.868,5.286c-3.788,1.172-7.291,0.708-7.833-1.039
		c-0.541-1.751,2.09-4.115,5.87-5.281C422.579,344.558,426.084,345.028,426.627,346.767z"/>
	<path fill="#107139" d="M414.717,344.598c0.739,2.396-2.863,5.636-8.054,7.239c-5.185,1.607-9.991,0.967-10.732-1.426
		c-0.741-2.394,2.862-5.635,8.051-7.244C409.169,341.565,413.976,342.202,414.717,344.598z"/>
	<path fill="#107139" d="M336.981,374.538c0.741,2.394-2.866,5.633-8.051,7.239c-5.185,1.606-9.995,0.967-10.731-1.424
		c-0.742-2.393,2.86-5.64,8.049-7.243C331.433,371.507,336.242,372.142,336.981,374.538z"/>
	<path fill="#107139" d="M370.489,375.361c0.937,1.644-1.196,4.614-4.76,6.641c-3.562,2.022-7.208,2.325-8.141,0.684
		c-0.933-1.642,1.194-4.621,4.76-6.643C365.909,374.023,369.554,373.715,370.489,375.361z"/>
	<path fill="#107139" d="M293.681,413.266c0.935,1.646-1.195,4.623-4.758,6.639c-3.563,2.021-7.208,2.332-8.143,0.688
		c-0.932-1.646,1.199-4.62,4.76-6.644C289.103,411.926,292.748,411.622,293.681,413.266z"/>
	<path fill="#107139" d="M332.397,414.689c0.643,1.135-0.83,3.182-3.288,4.58c-2.459,1.399-4.974,1.605-5.614,0.48
		c-0.646-1.141,0.824-3.193,3.281-4.591C329.236,413.764,331.755,413.554,332.397,414.689z"/>
	<path fill="#107139" d="M548.979,355.269c0.597,1.042-0.76,2.931-3.022,4.218c-2.264,1.287-4.579,1.481-5.171,0.44
		c-0.591-1.048,0.763-2.941,3.023-4.223C546.074,354.421,548.389,354.222,548.979,355.269z"/>
	<path fill="#107139" d="M328.212,461.248c0.642,1.132-0.826,3.183-3.289,4.581c-2.454,1.395-4.972,1.614-5.615,0.473
		c-0.645-1.134,0.826-3.188,3.285-4.582S327.568,460.111,328.212,461.248z"/>
	<path fill="#107139" d="M264.948,441.88c0.643,1.139-0.828,3.192-3.283,4.586c-2.459,1.397-4.978,1.604-5.619,0.476
		c-0.646-1.136,0.825-3.188,3.284-4.582C261.786,440.962,264.306,440.746,264.948,441.88z"/>
	<path fill="#107139" d="M496.154,569.008c0,0-54.974,21.329-130.945,10.649c-75.97-10.683-100.034-29.458-117.385-43.316
		c-18.382-14.68-68.322-44.391-60.875-39.065c5.495,3.93,25.894,33.014,54.223,50.602
		C277.057,570.155,402.466,630.004,496.154,569.008z"/>
	
		<radialGradient id="SVGID_26_" cx="413.2041" cy="576.5947" r="92.7353" gradientTransform="matrix(0.9992 -0.0402 0.0402 0.9992 -12.3916 34.7285)" gradientUnits="userSpaceOnUse">
		<stop  offset="0" style="stop-color:#DCCE80"/>
		<stop  offset="1" style="stop-color:#D7B928"/>
	</radialGradient>
	<path fill="url(#SVGID_26_)" d="M293.873,575.41c0,0,100.572,52.888,180.3,39.696c47.233-7.813,78.106-31.124,78.106-31.124
		s-35.967-34.158-79.942-1.872c-31.448,15.004-49.206,11.147-75.126,11.681C371.286,594.325,293.873,575.41,293.873,575.41z"/>
	
		<radialGradient id="SVGID_27_" cx="572.0645" cy="431.5923" r="39.1475" gradientTransform="matrix(0.9992 -0.0402 0.0402 0.9992 -12.3916 34.7285)" gradientUnits="userSpaceOnUse">
		<stop  offset="0" style="stop-color:#FFFFFF"/>
		<stop  offset="1" style="stop-color:#E6E7E8"/>
	</radialGradient>
	<path fill="url(#SVGID_27_)" d="M610.135,441.626c0.976,24.28-13.26,44.578-31.799,45.321
		c-18.537,0.746-34.363-18.341-35.339-42.621c-0.976-24.284,13.267-44.571,31.8-45.316
		C593.338,398.264,609.159,417.342,610.135,441.626z"/>
	<path d="M598.605,438.759c0.568,14.104-6.383,25.829-15.521,26.198c-9.137,0.367-17.008-10.763-17.576-24.866
		c-0.564-14.099,6.385-25.824,15.522-26.19C590.168,413.534,598.042,424.663,598.605,438.759z"/>
	<path fill="#FFFFFF" d="M594.454,436.618c0.211,5.228-3.845,9.627-9.077,9.839c-5.217,0.21-9.62-3.851-9.831-9.08
		c-0.21-5.219,3.854-9.624,9.074-9.833C589.845,427.333,594.248,431.393,594.454,436.618z"/>
	
		<radialGradient id="SVGID_28_" cx="428.2285" cy="431.5894" r="39.1463" gradientTransform="matrix(0.9992 -0.0402 0.0402 0.9992 -12.3916 34.7285)" gradientUnits="userSpaceOnUse">
		<stop  offset="0" style="stop-color:#FFFFFF"/>
		<stop  offset="1" style="stop-color:#E6E7E8"/>
	</radialGradient>
	<path fill="url(#SVGID_28_)" d="M466.41,447.408c0.978,24.279-13.261,44.576-31.798,45.321
		c-18.54,0.747-34.355-18.342-35.332-42.622c-0.977-24.285,13.256-44.572,31.796-45.318
		C449.614,404.045,465.433,423.121,466.41,447.408z"/>
	<path d="M456.323,439.431c0.566,14.105-6.381,25.83-15.522,26.196c-9.138,0.369-17.008-10.76-17.576-24.866
		c-0.566-14.095,6.384-25.821,15.523-26.188C447.889,414.204,455.756,425.334,456.323,439.431z"/>
	<path fill="#FFFFFF" d="M453.486,432.796c0.21,5.247-3.86,9.659-9.103,9.866c-5.24,0.211-9.658-3.857-9.869-9.104
		c-0.21-5.242,3.867-9.659,9.106-9.87C448.862,423.48,453.276,427.554,453.486,432.796z"/>
	<path fill="#107139" d="M371.052,467.999c-24.661,8.429-41.092,33.982-18.46,29.416c22.632-4.57,40.1-5.501,63.075-0.747
		c20.604,4.266,34.545-7.72,45.667-15.333c11.118-7.613,8.275-27.292-23.258-28.594
		C406.542,451.438,371.052,467.999,371.052,467.999z"/>
	<g>
		
			<radialGradient id="SVGID_29_" cx="232.4189" cy="453.6157" r="129.4457" gradientTransform="matrix(-0.9376 0.5533 0.5082 0.8612 410.7737 -61.6816)" gradientUnits="userSpaceOnUse">
			<stop  offset="8.370500e-04" style="stop-color:#AEC99D"/>
			<stop  offset="0.4059" style="stop-color:#31B457"/>
			<stop  offset="0.9702" style="stop-color:#008042"/>
		</radialGradient>
		<path fill="url(#SVGID_29_)" d="M345.359,480.667c20.643-25.946,33.282-37.532,82.735-50.204
			c49.454-12.672,69.217,19.443,35.58,45.059c-33.637,25.612-63.857,6.034-84.044,12.444
			C344.109,499.24,336.099,492.303,345.359,480.667z"/>
		<path fill="none" stroke="#006028" stroke-width="2.9208" stroke-miterlimit="10" d="M371.424,463.907
			c0,0,38.29-23.972,82.051-20.899"/>
		<path fill="none" stroke="#006028" stroke-width="2.9208" stroke-miterlimit="10" d="M371.103,470.979
			c0,0,45.102-7.354,76.039,1.913"/>
	</g>
	
		<radialGradient id="SVGID_30_" cx="430.3398" cy="354.6914" r="69.9211" gradientTransform="matrix(0.9992 -0.0402 0.0402 0.9992 -12.3916 34.7285)" gradientUnits="userSpaceOnUse">
		<stop  offset="8.370500e-04" style="stop-color:#AEC99D"/>
		<stop  offset="0.4059" style="stop-color:#31B457"/>
		<stop  offset="0.7261" style="stop-color:#008544"/>
		<stop  offset="1" style="stop-color:#006A30"/>
	</radialGradient>
	<path fill="url(#SVGID_30_)" d="M440.361,369.07c-30.03,5.359-54.468,17.016-62.559,66.564
		C398.302,384.994,440.361,369.07,440.361,369.07z"/>
	
		<radialGradient id="SVGID_31_" cx="599.4409" cy="360.3394" r="46.9439" gradientTransform="matrix(0.9992 -0.0402 0.0402 0.9992 -12.3916 34.7285)" gradientUnits="userSpaceOnUse">
		<stop  offset="8.370500e-04" style="stop-color:#AEC99D"/>
		<stop  offset="0.4059" style="stop-color:#31B457"/>
		<stop  offset="0.7261" style="stop-color:#008544"/>
		<stop  offset="1" style="stop-color:#006A30"/>
	</radialGradient>
	<path fill="url(#SVGID_31_)" d="M553.784,372.811c0,0,27.401,3.05,56.113,38.665C598.098,383.482,570.622,363.832,553.784,372.811z
		"/>
	
		<radialGradient id="SVGID_32_" cx="414.644" cy="451.2261" r="0" gradientTransform="matrix(0.9992 -0.0402 0.0402 0.9992 -12.3916 34.7285)" gradientUnits="userSpaceOnUse">
		<stop  offset="8.370500e-04" style="stop-color:#AEC99D"/>
		<stop  offset="0.4059" style="stop-color:#31B457"/>
		<stop  offset="0.7261" style="stop-color:#008544"/>
		<stop  offset="1" style="stop-color:#006A30"/>
	</radialGradient>
	<path fill="url(#SVGID_32_)" d="M420.061,468.925"/>
	<path fill="#107139" d="M624,450c-10.853-22.343-22.093-19.633-48.333-10c-26.333,9.667,11.647,52.36,33.667,52
		C629.667,491.667,620,507.334,620,507.334S641,485,624,450z"/>
	<radialGradient id="SVGID_33_" cx="595.9155" cy="460.4126" r="83.5097" gradientUnits="userSpaceOnUse">
		<stop  offset="8.370500e-04" style="stop-color:#AEC99D"/>
		<stop  offset="0.4059" style="stop-color:#31B457"/>
		<stop  offset="0.9702" style="stop-color:#008042"/>
	</radialGradient>
	<path fill="url(#SVGID_33_)" d="M628.667,442C620,429.667,609.34,426.183,582,432c-31.333,6.667-1,51.334,27.667,55.334
		C631.004,490.312,626,498,626,498S651.038,473.836,628.667,442z"/>
	<path fill="#F9ED32" d="M556,499c-22-8-52-6-82,9s-35,35-10,35s21-11,65-12s39,18,51,8S588.946,510.98,556,499z"/>
	<path fill="#A13422" d="M465,531c2.958,9.861,32-8,63-7s39,13,45,6s-18-26-46-24S462,521,465,531z"/>
	<path fill="none" stroke="#006028" stroke-width="2.6595" stroke-miterlimit="10" d="M635,484c0,0-8-16-38-18"/>
	<path fill="none" stroke="#006028" stroke-width="2.6595" stroke-miterlimit="10" d="M638.333,466.667c0,0-10-27.333-50-24.333"/>
	<path fill="#F1B937" d="M467,525.667c0,0,29.667-20,63.333-19.667c32.332,0.319,43,19,42,22s-3.667,4.334-4.333,4.667
		c2.333,2,9,0.667,10.667-5.333s-6.333-16.666-23.333-21S494.333,497,467,525.667z"/>
	<path fill="#F1B937" d="M466.667,511.334c0,0-24.666,15-19.333,26s23,7.666,37.333,1.666c-23,2.334-28.666,1.334-31.333-4.333
		S466.667,511.334,466.667,511.334z"/>
</g>
<g id="W_x2F_O">
</g>
</svg>
