<?xml version="1.0" encoding="utf-8"?>
<!-- Generator: Adobe Illustrator 16.0.0, SVG Export Plug-In . SVG Version: 6.00 Build 0)  -->
<!DOCTYPE svg PUBLIC "-//W3C//DTD SVG 1.1//EN" "http://www.w3.org/Graphics/SVG/1.1/DTD/svg11.dtd">
<svg version="1.1" id="Layer_1" xmlns="http://www.w3.org/2000/svg" xmlns:xlink="http://www.w3.org/1999/xlink" x="0px" y="0px"
	 width="1440px" height="960px" viewBox="0 0 1440 960" enable-background="new 0 0 1440 960" xml:space="preserve">
<g id="water">
	
		<linearGradient id="SVGID_1_" gradientUnits="userSpaceOnUse" x1="684.2505" y1="908.3008" x2="684.2505" y2="429.7577" gradientTransform="matrix(1 0 0 -1 0 961)">
		<stop  offset="0" style="stop-color:#5BC0AC"/>
		<stop  offset="0.4898" style="stop-color:#00A388"/>
		<stop  offset="1" style="stop-color:#008670"/>
	</linearGradient>
	<rect x="-204.928" y="-207.73" fill="url(#SVGID_1_)" width="1778.357" height="1189.018"/>
</g>
<g id="SEA">
	<path fill="#B1D9AC" d="M1626.793,123.504c153.913-30.783-444.355,249.034-693.391,202.646
		c-249.034-46.389-346.694-119.634-615.262-100.102c-268.565,19.532-424.823-31.74-529.809,56.155
		c-104.985,87.895-53.713,117.191-53.713,117.191s65.921-75.687,219.736-95.219c153.815-19.532,327.163-78.128,459.005-26.855
		c131.842,51.271,275.891,100.102,463.888,104.985c187.996,4.883,288.099-12.208,444.354-51.272
		c156.257-39.064,268.566-102.543,310.072-124.517S1614.585,125.945,1626.793,123.504z"/>
	<path fill="#AEDBC3" d="M1643.884,96.647c-87.895,29.298-192.88,173.348-441.914,202.646
		c-249.035,29.298,14.648,17.09-351.578-41.506c-366.228-58.597-415.058-102.544-559.106-80.57
		c-144.049,21.974-90.336,63.479-292.982,56.155c-202.646-7.324-295.423,51.272-314.955,61.039
		c-19.532,9.766,97.661-126.959,97.661-126.959s65.921-12.208,212.412-7.325c146.491,4.883,195.321-85.453,468.771-36.623
		c273.449,48.83,524.926,95.219,690.947,85.453c166.023-9.766,437.031-124.517,444.355-126.958
		C1604.819,79.557,1643.884,96.647,1643.884,96.647z"/>
	<path opacity="0.3" fill="#AEDBC3" enable-background="new    " d="M1680.506,106.413c0,0-100.102,129.4-415.057,153.815
		c-314.956,24.415-664.094-141.608-959.516-129.4C10.51,143.036-311.77,250.462-311.77,250.462v114.751
		c0,0,383.318-180.672,705.598-134.284c322.28,46.389,698.273,148.932,966.84,85.453s346.695-134.283,346.695-134.283
		L1680.506,106.413z"/>
	<path opacity="0.3" fill="#AEDBC3" enable-background="new    " d="M1560.872,72.232c0,0-100.104,129.4-415.058,153.815
		c-314.955,24.415-664.092-141.608-959.516-129.4S-248.29,199.19-248.29,199.19v114.751c0,0,200.204-163.581,522.484-117.192
		s698.273,148.933,966.839,85.453c268.565-63.48,534.691-268.566,534.691-268.566L1560.872,72.232z"/>
	<path opacity="0.3" fill="#AEDBC3" enable-background="new    " d="M1636.559,306.617c0,0-246.593,207.529-561.548,231.942
		c-314.955,24.416-664.092-141.606-959.515-129.398c-295.423,12.207-434.59,102.543-434.59,102.543v114.751
		c0,0,200.205-163.581,522.484-117.192c322.279,46.39,698.273,148.934,966.838,85.453
		c268.566-63.479,534.692-268.566,534.692-268.566L1636.559,306.617z"/>
	<path opacity="0.3" fill="#AEDBC3" enable-background="new    " d="M1636.559,418.927c0,0-261.242,163.581-576.196,187.997
		C745.407,631.339,396.27,465.316,100.847,477.524c-295.423,12.207-434.59,102.543-434.59,102.543l2.441,58.597
		c0,0,202.646-156.257,524.926-109.868s693.39,197.763,961.956,134.283s534.691-268.566,534.691-268.566L1636.559,418.927z"/>
</g>
<g id="bg_coral">
	<path fill="#598989" d="M1649.783,775.388c-46.39-4.883-58.596-58.596-75.688-65.921c-17.091-7.324-14.648-12.207-26.855-17.09
		c-12.208-4.884,19.531,31.739-17.091-17.091c-36.623-48.831-14.649-53.714-36.623-75.688
		c-21.975-21.974-2.441-39.062-12.208-46.389c-9.767-7.324-31.739-14.649-53.713-21.974c-21.975-7.325-21.975-12.207-36.623-9.767
		c-14.648,2.441,36.623,39.064,19.531,39.064c-17.091,0,36.623,34.181,14.649,36.622c-21.974,2.44,12.207-7.324-29.298,14.648
		c-41.506,21.975-48.831,31.739-48.831,31.739l-39.063,4.884c0,0,0-41.506-36.623-63.479
		c-36.622-21.975-41.506-34.183-46.389-26.857s-11.102,11.339-24.415,19.532c-31.74,19.532-61.038,26.857-73.246,41.506
		c-12.207,14.649-51.271,7.324-48.83,14.649c2.441,7.323,29.299,29.298-9.766,36.622s-53.713,2.441-90.336,24.416
		c-36.623,21.974-95.22,41.506-117.193,34.181c-21.973-7.324-24.415,2.44-65.92-9.767c-41.506-12.207-78.129-17.091-56.155-24.414
		c21.975-7.325,112.311-51.272-19.531-58.598c-131.843-7.325-104.985-2.44-131.843-7.324c-26.855-4.884-43.946-2.441-43.946,7.324
		c0,9.767-19.532,9.767-41.507,17.091c-21.974,7.324-36.622,0-36.622,7.324s-29.299,0-36.623,9.767
		c-7.323,9.767-51.271,4.884-46.389,17.091c4.883,12.208,12.208,9.767-21.974,19.532c-34.183,9.767-36.623,2.44-61.038,2.44
		s-7.325,2.441-24.415,0c-17.091-2.44,0-56.154-36.623-68.362c-36.623-12.207-17.09-4.883-36.623-12.207
		c-19.532-7.324-29.298-12.208-29.298-12.208s-34.182,7.324-26.857,14.649c7.325,7.324,2.441,24.415-29.298,26.856
		c-31.739,2.44-85.453-14.649-85.453-21.975S1.761,611.807,1.761,611.807s-53.713,83.013-61.038,87.896
		c-7.325,4.883-2.442,24.415-29.298,9.766c-26.857-14.647-7.325-53.713-21.974-58.596c-14.649-4.884-3.662-19.532-26.857-4.884
		c-23.194,14.648-45.796,46.808-56.155,53.714c-29.298,19.532-12.208-4.883-58.596,34.181
		c-46.389,39.064-70.804,83.013-70.804,83.013s-36.623,29.298-21.974,39.063s31.74,53.713,36.623,61.038
		c4.883,7.324,19.532,70.804,19.532,70.804l2002.042-34.182L1649.783,775.388z"/>
</g>
<g id="Ground">
	<path fill="#C2B59B" d="M-251.952,851.075c83.011-21.975,158.698-58.597,383.317-36.623
		c224.62,21.974,485.86,53.714,656.768,43.947c170.906-9.767,485.861-12.208,571.314,7.323
		c75.14,17.177,325.792-37.959,284.437-53.713c-2.019-0.769-25.609,294.477-34.182,305.189
		c-19.532,24.415-161.14,4.883-200.204,14.648c-39.064,9.767-603.054,41.506-830.115,36.622
		c-227.061-4.883-314.955-7.323-507.834-24.415c-192.88-17.091-268.566,29.298-295.423-12.207
		C-250.731,1090.344-251.952,851.075-251.952,851.075z"/>
	<path fill="#867757" d="M528.229,1161.225c-68.375-6.104-125.855,34.713-158.814-22.051c-56.763-3.662-86.742,30.596-73.726,13.513
		c39.064-51.271,519.302-125.821,541.276-128.264s305.189-83.012,417.499-80.57c112.311,2.442,272.229-9.767,278.333,65.921
		c6.104,75.688-115.973,108.647-128.18,114.752c-12.208,6.104-266.125,18.312-317.396,35.401
		C1035.946,1177.018,528.229,1161.225,528.229,1161.225z"/>
	<path fill="#867757" d="M-283.692,926.762c0,0,266.125-170.905,773.958-26.855c-134.282,0-92.776,0-275.891,21.974
		C31.263,943.854-116.448,1043.955-283.692,926.762z"/>
	<ellipse fill="#867757" cx="-48.086" cy="1020.76" rx="10.987" ry="6.104"/>
	<ellipse fill="#867757" cx="3.186" cy="1040.292" rx="3.662" ry="1.221"/>
	<circle fill="#867757" cx="-59.073" cy="1053.721" r="7.325"/>
	<circle fill="#867757" cx="-33.437" cy="1072.032" r="8.545"/>
	<circle fill="#867757" cx="642.863" cy="912.113" r="8.545"/>
	<circle fill="#867757" cx="1310.617" cy="893.802" r="8.545"/>
	<circle fill="#867757" cx="3.186" cy="1040.292" r="6.104"/>
	<circle fill="#867757" cx="1492.51" cy="898.685" r="3.662"/>
	<circle fill="#867757" cx="122.82" cy="1158.706" r="3.662"/>
	<circle fill="#867757" cx="-10.242" cy="1101.33" r="3.662"/>
	<circle fill="#867757" cx="157.001" cy="1092.785" r="3.662"/>
	<circle fill="#867757" cx="426.789" cy="981.696" r="3.663"/>
	<circle fill="#867757" cx="699.018" cy="965.826" r="3.662"/>
	<circle fill="#867757" cx="530.553" cy="1029.306" r="3.662"/>
	<circle fill="#867757" cx="1098.205" cy="919.438" r="3.662"/>
	<circle fill="#867757" cx="763.718" cy="908.45" r="3.662"/>
	<circle fill="#867757" cx="-172.603" cy="853.517" r="3.662"/>
	<circle fill="#867757" cx="-99.358" cy="836.426" r="3.662"/>
	<circle fill="#867757" cx="-51.748" cy="833.984" r="3.662"/>
	<circle fill="#867757" cx="1521.808" cy="876.711" r="6.104"/>
	<circle fill="#867757" cx="1527.301" cy="935.918" r="11.597"/>
	<path fill="#73643E" d="M-256.835,919.438c-6.905-3.452,87.895-65.921,275.891-75.688c187.997-9.766,446.796,51.271,446.796,51.271
		s-217.293-26.855-366.227-9.767C-49.307,902.347-129.876,982.917-256.835,919.438z"/>
	<path fill="#73643E" d="M1554.768,978.033c0,0-95.219-53.713-263.683-39.063c-168.465,14.648-434.59,87.896-505.394,97.66
		c-70.806,9.767-300.308,65.921-300.308,65.921s327.163-41.506,468.771-63.479c141.606-21.975,332.045-87.896,402.85-48.83
		c70.804,39.063,224.619,63.479,224.619,63.479L1554.768,978.033z"/>
	<path fill="#AEDBC3" d="M1924.658,992.683"/>
	<path opacity="0.4" fill="#4C3C1A" enable-background="new    " d="M574.5,875.49c0,0,207.529-9.768,329.604,0
		c122.076,9.766,312.515,17.091,344.255,12.207c31.738-4.883,336.929,70.805,336.929,70.805s107.427,31.739-2.441,39.062
		c-109.868,7.325-776.4-7.323-788.608-9.766c-12.207-2.44-119.635-61.038-139.166-63.479C635.539,921.879,574.5,875.49,574.5,875.49
		z"/>
</g>
<g id="UMA">
	<polygon fill="#D09611" points="506.257,691.861 409.212,644.254 517.244,668.058 	"/>
	<polygon fill="#D09611" points="508.088,792.569 423.86,785.244 504.427,770.597 	"/>
	<polygon fill="#D09611" points="546.54,862.148 467.806,873.135 542.879,840.177 	"/>
	<polygon fill="#D09611" points="557.525,605.803 458.65,527.067 568.513,581.999 	"/>
	<polygon fill="#D09611" points="625.275,536.224 563.02,448.332 645.417,517.912 	"/>
	<polygon fill="#D09611" points="711.335,477.631 665.559,384.246 731.477,459.319 	"/>
	<polygon fill="#D09611" points="808.38,441.01 797.394,347.625 824.859,435.516 	"/>
	<polygon fill="#D09611" points="894.438,435.517 912.749,342.132 910.918,430.022 	"/>
	<polygon fill="#D09611" points="987.822,450.165 1006.132,356.779 1004.301,444.67 	"/>
	<polygon fill="#D09611" points="1084.867,459.319 1125.15,397.062 1105.009,468.474 	"/>
	<polygon fill="#D09611" points="1163.602,510.589 1213.041,446.501 1183.744,523.405 	"/>
	<polygon fill="#D09611" points="1235.014,574.675 1299.1,527.067 1251.492,596.646 	"/>
	<polygon fill="#D09611" points="1284.451,651.579 1366.848,618.619 1300.931,673.551 	"/>
	<polygon fill="#D09611" points="1304.593,717.496 1403.47,710.172 1321.072,739.469 	"/>
	<polygon fill="#D09611" points="1300.931,777.92 1385.159,792.569 1299.1,803.555 	"/>
	<polygon fill="#D09611" points="1284.451,834.682 1361.354,869.473 1282.62,860.316 	"/>
	
		<radialGradient id="SVGID_2_" cx="830.3525" cy="322.2383" r="362.0699" gradientTransform="matrix(1 0 0 -1 0 961)" gradientUnits="userSpaceOnUse">
		<stop  offset="8.370500e-04" style="stop-color:#F6E39D"/>
		<stop  offset="0.4059" style="stop-color:#FFE72A"/>
		<stop  offset="0.7261" style="stop-color:#F6D933"/>
		<stop  offset="1" style="stop-color:#F8BE15"/>
	</radialGradient>
	<path fill="url(#SVGID_2_)" d="M1260.646,891.445c0,0-172.118-9.154-285.644-10.985c-113.524-1.831-336.912,5.493-384.52-1.831
		c-47.608-7.324-104.369-58.593-91.553-162.963c12.817-104.37,159.303-252.685,270.995-278.319
		c111.693-25.634,309.446,3.662,379.025,53.102c69.58,49.438,181.273,144.651,170.287,261.84
		C1308.254,869.474,1260.646,891.445,1260.646,891.445z"/>
	
		<radialGradient id="SVGID_3_" cx="2326.8281" cy="328.1738" r="66.663" gradientTransform="matrix(-0.8938 -0.126 0.1396 -0.9902 1399.2135 1065.6753)" gradientUnits="userSpaceOnUse">
		<stop  offset="8.370500e-04" style="stop-color:#AEC99D"/>
		<stop  offset="0.4059" style="stop-color:#31B457"/>
		<stop  offset="0.9702" style="stop-color:#008042"/>
	</radialGradient>
	<path fill="url(#SVGID_3_)" d="M-666.646,432.752c13.945-4.197,21.292-5.011,41,5.166c19.708,10.176,17.292,29.444-0.818,29.472
		c-18.108,0.027-22.589-17.361-30.976-21.011C-672.197,439.96-672.9,434.635-666.646,432.752z"/>
	<path fill="none" stroke="#006028" stroke-width="1.3697" stroke-miterlimit="10" d="M-653.468,433.994
		c0,0,19.179,2.088,32.664,16.935"/>
	<path fill="none" stroke="#006028" stroke-width="1.3697" stroke-miterlimit="10" d="M-655.531,436.785c0,0,16.81,11,24.379,24.396
		"/>
	
		<radialGradient id="SVGID_4_" cx="-722.4907" cy="357.8423" r="187.1073" gradientTransform="matrix(0.9902 0.1396 0.1396 -0.9902 -44.9203 861.6105)" gradientUnits="userSpaceOnUse">
		<stop  offset="8.370500e-04" style="stop-color:#AEC99D"/>
		<stop  offset="0.4059" style="stop-color:#31B457"/>
		<stop  offset="0.7261" style="stop-color:#008544"/>
		<stop  offset="1" style="stop-color:#006A30"/>
	</radialGradient>
	<path fill="url(#SVGID_4_)" d="M-678.603,479.448c0.778,0.109,24.032-7.319,37.173-49.882c8.209-26.588-6.63-42.973-17.542-58.394
		c-10.914-15.415-38.81-25.697-72.412-26.466c-33.599-0.774-75.693,5.677-100.229,17.936c-20.906,10.445-30.713,24.615-36.225-7.574
		c-1.353-7.896-9.748-20.483-18.601-23.272c12.413,14.694,13.142,35.756,1.582,39.057c13.812,24.447-1.797,32.417-14.537,28.771
		c10.899,12.324,28.953-4.239,39.91,16.414c14.075,26.531,82.869,66.639,104.868,70.934
		C-732.615,491.266-678.603,479.448-678.603,479.448z"/>
	<path fill="#D8E040" d="M-669.837,474.47c-4.939,1.288-19.187-15.791-55.266-4.62c-42.279,13.093-65.31-5.8-94.262-17.023
		c35.354,26.869,72.172,38.478,89.517,39.224C-689.729,493.767-669.837,474.47-669.837,474.47z"/>
	<path fill="#107139" d="M-698.633,355.912c0.235,1.939-2.979,3.916-7.177,4.426c-4.2,0.505-7.793-0.656-8.027-2.593
		c-0.232-1.939,2.981-3.92,7.179-4.422C-702.459,352.815-698.866,353.975-698.633,355.912z"/>
	<path fill="#107139" d="M-732.151,348.764c0.112,0.937-1.438,1.892-3.461,2.136c-2.027,0.244-3.76-0.314-3.873-1.249
		c-0.112-0.938,1.439-1.893,3.462-2.135C-733.999,347.27-732.266,347.832-732.151,348.764z"/>
	
		<ellipse transform="matrix(-0.1196 -0.9928 0.9928 -0.1196 -1176.5514 -348.9307)" fill="#107139" cx="-742.982" cy="347.187" rx="2.335" ry="5.064"/>
	
		<ellipse transform="matrix(-0.1198 -0.9928 0.9928 -0.1198 -1231.7961 -381.7909)" fill="#107139" cx="-785.149" cy="355.171" rx="2.336" ry="5.063"/>
	
		<ellipse transform="matrix(-0.3298 -0.944 0.944 -0.3298 -1358.9504 -246.0392)" fill="#107139" cx="-766.808" cy="359.345" rx="1.764" ry="3.821"/>
	
		<ellipse transform="matrix(-0.33 -0.944 0.944 -0.33 -1426.9624 -269.8921)" fill="#107139" cx="-809.262" cy="371.462" rx="1.763" ry="3.821"/>
	<path fill="#107139" d="M-786.169,374.476c0.221,0.636-0.714,1.537-2.089,2.019s-2.668,0.354-2.889-0.275
		c-0.222-0.639,0.712-1.543,2.086-2.023C-787.686,373.716-786.39,373.843-786.169,374.476z"/>
	
		<ellipse transform="matrix(-0.3303 -0.9439 0.9439 -0.3303 -1240.2057 -149.6955)" fill="#107139" cx="-673.212" cy="365.151" rx="1.12" ry="2.427"/>
	
		<ellipse transform="matrix(-0.3295 -0.9442 0.9442 -0.3295 -1433.3402 -220.8362)" fill="#107139" cx="-795.088" cy="398.557" rx="1.215" ry="2.636"/>
	
		<ellipse transform="matrix(-0.3303 -0.9439 0.9439 -0.3303 -1459.4542 -269.5921)" fill="#107139" cx="-825.365" cy="382.947" rx="1.218" ry="2.637"/>
	<path fill="#107139" d="M-717.446,467.789c0,0-29.824,5.729-67.332-6.696c-37.506-12.428-47.965-24.163-55.477-32.787
		c-7.958-9.136-30.518-28.802-27.237-25.415c2.421,2.498,10.071,19.118,22.801,30.646
		C-828.566,448.138-770.549,490.043-717.446,467.789z"/>
	
		<radialGradient id="SVGID_5_" cx="-758.7529" cy="284.5928" r="47.7621" gradientTransform="matrix(0.9902 0.1396 0.1396 -0.9902 -44.9203 861.6105)" gradientUnits="userSpaceOnUse">
		<stop  offset="0" style="stop-color:#DCCE80"/>
		<stop  offset="1" style="stop-color:#D7B928"/>
	</radialGradient>
	<path fill="url(#SVGID_5_)" d="M-820.53,452.354c0,0,46.074,36.086,87.689,36.765c24.654,0.401,42.449-8.559,42.449-8.559
		s-15.07-20.629-40.333-8.331c-17.32,4.698-25.961,1.104-39.144-1.019C-783.053,469.086-820.53,452.354-820.53,452.354z"/>
	
		<radialGradient id="SVGID_6_" cx="-676.9326" cy="359.2744" r="20.1618" gradientTransform="matrix(0.9902 0.1396 0.1396 -0.9902 -44.9203 861.6105)" gradientUnits="userSpaceOnUse">
		<stop  offset="0" style="stop-color:#FFFFFF"/>
		<stop  offset="1" style="stop-color:#E6E7E8"/>
	</radialGradient>
	<path fill="url(#SVGID_6_)" d="M-647.931,413.773c-1.748,12.393-10.835,21.36-20.298,20.025
		c-9.46-1.334-15.716-12.466-13.969-24.857c1.748-12.396,10.838-21.358,20.298-20.024
		C-652.438,390.251-646.184,401.379-647.931,413.773z"/>
	
		<ellipse transform="matrix(0.1396 -0.9902 0.9902 0.1396 -985.8116 -295.6902)" cx="-663.055" cy="419.422" rx="13.161" ry="8.53"/>
	<circle fill="#FFFFFF" cx="-660.497" cy="425.605" r="2.924"/>
	
		<radialGradient id="SVGID_7_" cx="-751.0137" cy="359.2749" r="20.1613" gradientTransform="matrix(0.9902 0.1396 0.1396 -0.9902 -44.9203 861.6105)" gradientUnits="userSpaceOnUse">
		<stop  offset="0" style="stop-color:#FFFFFF"/>
		<stop  offset="1" style="stop-color:#E6E7E8"/>
	</radialGradient>
	<path fill="url(#SVGID_7_)" d="M-721.288,403.43c-1.747,12.394-10.835,21.361-20.297,20.027
		c-9.463-1.334-15.714-12.467-13.966-24.858c1.748-12.395,10.832-21.359,20.295-20.024
		C-725.794,379.907-719.541,391.034-721.288,403.43z"/>
	
		<ellipse transform="matrix(0.1396 -0.9902 0.9902 0.1396 -1037.5491 -378.4408)" cx="-736.544" cy="407.825" rx="13.16" ry="8.53"/>
	<circle fill="#FFFFFF" cx="-734.365" cy="413.957" r="2.924"/>
	<path fill="#107139" d="M-806.397,415.513c13.033-0.628,25.308,8.499,13.917,10.593c-11.391,2.093-14.707,5.938-24.579,12.561
		c-8.853,5.938-9.965,2.91-16.528,1.369c-6.563-1.543-21.344-12.565-6.854-19.152C-825.951,414.295-806.397,415.513-806.397,415.513
		z"/>
	
		<radialGradient id="SVGID_8_" cx="-840.8262" cy="327.6919" r="66.667" gradientTransform="matrix(0.9902 0.1396 0.1396 -0.9902 -44.9203 861.6105)" gradientUnits="userSpaceOnUse">
		<stop  offset="8.370500e-04" style="stop-color:#AEC99D"/>
		<stop  offset="0.4059" style="stop-color:#31B457"/>
		<stop  offset="0.9702" style="stop-color:#008042"/>
	</radialGradient>
	<path fill="url(#SVGID_8_)" d="M-793.364,414.885c-13.653-8.09-21.255-11.011-45.244-6.997
		c-23.99,4.015-27.028,23.195-7.717,28.501c19.311,5.305,29.158-10.065,39.169-11.121
		C-789.542,423.413-787.24,418.512-793.364,414.885z"/>
	<path fill="none" stroke="#006028" stroke-width="1.4417" stroke-miterlimit="10" d="M-807.784,412.234
		c0,0-21.069-3.588-39.781,6.719"/>
	<path fill="none" stroke="#006028" stroke-width="1.4417" stroke-miterlimit="10" d="M-806.397,415.513
		c0,0-21.138,5.648-33.118,16.288"/>
	<path fill="#F9ED32" d="M-693.378,429.291c-8.841-1.004-29.181,21.158-7.636,25.737
		C-679.469,459.607-670.93,431.84-693.378,429.291z"/>
	<path fill="#A13422" d="M-691.724,437.229c-7.935-0.91-21.13,9.967-8.694,13.568C-687.981,454.4-679.896,438.589-691.724,437.229z"
		/>
	<path fill="#F1B937" d="M-686.021,440.5c0,0-1.689-3.32-5.703-3.271c-4.013,0.052-10.957,3.387-13.323,7.061
		C-698.679,434.092-686.3,429.364-686.021,440.5z"/>
	<path fill="#F1B937" d="M-705.323,435.312c0,0-9.864,10.938-2.905,16.232c6.958,5.297,21.929,1.86,21.929,1.86
		s-14.463,8.965-23.998-0.303C-717.345,446.253-705.323,435.312-705.323,435.312z"/>
	<path fill="#107139" d="M-702.951,457.837c0,0-13.433-5.283-8.792-16.342C-717.302,445.951-713.528,456.346-702.951,457.837z"/>
	
		<radialGradient id="SVGID_9_" cx="-749.9258" cy="398.8804" r="36.0111" gradientTransform="matrix(0.9902 0.1396 0.1396 -0.9902 -44.9203 861.6105)" gradientUnits="userSpaceOnUse">
		<stop  offset="8.370500e-04" style="stop-color:#AEC99D"/>
		<stop  offset="0.4059" style="stop-color:#31B457"/>
		<stop  offset="0.7261" style="stop-color:#008544"/>
		<stop  offset="1" style="stop-color:#006A30"/>
	</radialGradient>
	<path fill="url(#SVGID_9_)" d="M-727.253,361.332c-15.71-0.058-29.169,3.592-37.844,27.949
		C-750.034,365.517-727.253,361.332-727.253,361.332z"/>
	
		<radialGradient id="SVGID_10_" cx="-662.832" cy="395.9717" r="24.1807" gradientTransform="matrix(0.9902 0.1396 0.1396 -0.9902 -44.9203 861.6105)" gradientUnits="userSpaceOnUse">
		<stop  offset="8.370500e-04" style="stop-color:#AEC99D"/>
		<stop  offset="0.4059" style="stop-color:#31B457"/>
		<stop  offset="0.7261" style="stop-color:#008544"/>
		<stop  offset="1" style="stop-color:#006A30"/>
	</radialGradient>
	<path fill="url(#SVGID_10_)" d="M-670.129,373.701c0,0,13.602,4.076,24.861,24.772
		C-648.662,383.201-660.769,370.707-670.129,373.701z"/>
	
		<radialGradient id="SVGID_11_" cx="-758.0112" cy="349.1616" r="0" gradientTransform="matrix(0.9902 0.1396 0.1396 -0.9902 -44.9203 861.6105)" gradientUnits="userSpaceOnUse">
		<stop  offset="8.370500e-04" style="stop-color:#AEC99D"/>
		<stop  offset="0.4059" style="stop-color:#31B457"/>
		<stop  offset="0.7261" style="stop-color:#008544"/>
		<stop  offset="1" style="stop-color:#006A30"/>
	</radialGradient>
	<path fill="url(#SVGID_11_)" d="M-746.76,410.053"/>
	<path fill="#EF4136" d="M574.006,882.291c0,0-42.114-49.439-23.804-162.964c18.31-113.524,120.849-269.162,287.474-292.966
		c-75.073,29.296-214.231,111.692-254.516,252.684s14.647,203.246,14.647,203.246H574.006z"/>
	<path fill="#F7941E" d="M582.551,883.512c0,0-42.112-49.438-23.804-162.964c18.311-113.523,120.849-269.162,287.474-292.966
		c-75.071,29.296-214.23,111.693-254.515,252.684c-40.284,140.991,14.647,203.246,14.647,203.246H582.551L582.551,883.512z"/>
	<path fill="#EF4136" d="M674.713,880.46c0,0-60.425-104.37-5.493-247.19c54.933-142.821,102.539-181.271,190.43-201.414
		c-42.113,25.634-131.836,82.396-170.287,208.738C650.91,766.936,700.348,880.46,700.348,880.46H674.713L674.713,880.46z"/>
	<path fill="#F7941E" d="M682.038,882.901c0,0-60.426-104.37-5.494-247.191c54.933-142.821,102.539-181.271,190.429-201.414
		c-42.112,25.634-131.836,82.397-170.287,208.739c-38.45,126.341,10.986,239.866,10.986,239.866H682.038z"/>
	<path fill="#EF4136" d="M826.691,883.52c0,0-42.116-52.497-38.454-162.36c3.399-101.989,47.607-258.176,106.2-294.797
		c-27.466,47.606-71.41,183.104-80.565,305.784c-6.682,89.547,36.52,150.669,36.52,150.669L826.691,883.52z"/>
	<path fill="#F7941E" d="M836.354,880.373c0,0-42.115-52.497-38.452-162.36c3.398-101.988,47.606-258.176,106.2-294.798
		c-27.467,47.607-71.411,183.104-80.565,305.784c-6.683,89.547,40.284,155.036,40.284,155.036L836.354,880.373z"/>
	<path fill="#EF4136" d="M928.007,431.854c0,0,170.289,140.99,139.161,340.573c-13.962,89.514-45.776,111.693-45.776,111.693
		l38.451-1.83c0,0,16.479-25.635,27.465-106.201C1109.84,610.842,1004.91,459.32,928.007,431.854z"/>
	<path fill="#F7941E" d="M918.241,431.854c0,0,170.288,140.99,139.16,340.573c-13.962,89.514-45.776,111.693-45.776,111.693
		l38.452-1.83c0,0,16.479-25.635,27.464-106.201C1100.074,610.842,995.145,459.32,918.241,431.854z"/>
	<path fill="#EF4136" d="M1024.442,448.334c0,0,170.824,76.322,175.779,239.866c3.662,120.85-29.297,159.3-49.438,195.921
		c31.127,0,36.62,1.831,36.62,1.831s40.281-104.368,29.297-199.583C1205.717,591.155,1130.645,479.462,1024.442,448.334z"/>
	<path fill="#F7941E" d="M1015.896,448.334c0,0,170.824,76.322,175.78,239.866c3.662,120.85-29.297,159.3-49.438,195.921
		c31.127,0,36.62,1.831,36.62,1.831s40.282-104.368,29.297-199.583C1197.171,591.155,1122.098,479.462,1015.896,448.334z"/>
	<path fill="#EF4136" d="M1155.58,498.276c0,0,133.672,156.268,124.517,258.806c-9.155,102.539-53.101,135.497-53.101,135.497
		l27.466-3.661c0,0,34.952-29.424,43.944-137.329C1305.73,663.699,1199.525,527.573,1155.58,498.276z"/>
	<path fill="#F7941E" d="M1155.58,498.276c0,0,123.906,152.604,114.75,255.144c-9.155,102.539-53.1,135.497-53.1,135.497
		l27.465-3.661c0,0,34.953-29.424,43.944-137.329C1295.965,660.037,1199.525,527.573,1155.58,498.276z"/>
	
		<radialGradient id="SVGID_12_" cx="740.5947" cy="598.9482" r="59.6308" gradientTransform="matrix(1 0 0 -1 0 961)" gradientUnits="userSpaceOnUse">
		<stop  offset="8.370500e-04" style="stop-color:#F6E39D"/>
		<stop  offset="0.4059" style="stop-color:#FFE72A"/>
		<stop  offset="0.7261" style="stop-color:#F6D933"/>
		<stop  offset="1" style="stop-color:#F8BE15"/>
	</radialGradient>
	<polygon fill="url(#SVGID_12_)" points="778.367,436.018 714.887,293.188 760.056,444.562 	"/>
	
		<radialGradient id="SVGID_13_" cx="847.8701" cy="609.2695" r="55.3048" gradientTransform="matrix(1 0 0 -1 0 961)" gradientUnits="userSpaceOnUse">
		<stop  offset="8.370500e-04" style="stop-color:#F6E39D"/>
		<stop  offset="0.4059" style="stop-color:#FFE72A"/>
		<stop  offset="0.7261" style="stop-color:#F6D933"/>
		<stop  offset="1" style="stop-color:#F8BE15"/>
	</radialGradient>
	<polygon fill="url(#SVGID_13_)" points="867.482,431.135 834.521,283.423 847.949,433.576 	"/>
	
		<radialGradient id="SVGID_14_" cx="953.5205" cy="597.5068" r="53.0231" gradientTransform="matrix(1 0 0 -1 0 961)" gradientUnits="userSpaceOnUse">
		<stop  offset="8.370500e-04" style="stop-color:#F6E39D"/>
		<stop  offset="0.4059" style="stop-color:#FFE72A"/>
		<stop  offset="0.7261" style="stop-color:#F6D933"/>
		<stop  offset="1" style="stop-color:#F8BE15"/>
	</radialGradient>
	<polygon fill="url(#SVGID_14_)" points="965.143,440.9 957.818,296.852 945.61,443.342 	"/>
	
		<radialGradient id="SVGID_15_" cx="1044.6748" cy="595.5059" r="57.7711" gradientTransform="matrix(1 0 0 -1 0 961)" gradientUnits="userSpaceOnUse">
		<stop  offset="8.370500e-04" style="stop-color:#F6E39D"/>
		<stop  offset="0.4059" style="stop-color:#FFE72A"/>
		<stop  offset="0.7261" style="stop-color:#F6D933"/>
		<stop  offset="1" style="stop-color:#F8BE15"/>
	</radialGradient>
	<polygon fill="url(#SVGID_15_)" points="1049.375,448.225 1066.465,294.41 1029.843,450.667 	"/>
	
		<radialGradient id="SVGID_16_" cx="1145.8564" cy="540.582" r="51.493" gradientTransform="matrix(1 0 0 -1 0 961)" gradientUnits="userSpaceOnUse">
		<stop  offset="8.370500e-04" style="stop-color:#F6E39D"/>
		<stop  offset="0.4059" style="stop-color:#FFE72A"/>
		<stop  offset="0.7261" style="stop-color:#F6D933"/>
		<stop  offset="1" style="stop-color:#F8BE15"/>
	</radialGradient>
	<polygon fill="url(#SVGID_16_)" points="1139.711,490.951 1179.996,361.551 1122.62,481.186 	"/>
	
		<radialGradient id="SVGID_17_" cx="1228.1729" cy="468.8984" r="46.7827" gradientTransform="matrix(1 0 0 -1 0 961)" gradientUnits="userSpaceOnUse">
		<stop  offset="8.370500e-04" style="stop-color:#F6E39D"/>
		<stop  offset="0.4059" style="stop-color:#FFE72A"/>
		<stop  offset="0.7261" style="stop-color:#F6D933"/>
		<stop  offset="1" style="stop-color:#F8BE15"/>
	</radialGradient>
	<polygon fill="url(#SVGID_17_)" points="1219.061,551.989 1266.67,442.121 1201.97,542.224 	"/>
	
		<radialGradient id="SVGID_18_" cx="1303.2539" cy="385.8906" r="49.4046" gradientTransform="matrix(1 0 0 -1 0 961)" gradientUnits="userSpaceOnUse">
		<stop  offset="8.370500e-04" style="stop-color:#F6E39D"/>
		<stop  offset="0.4059" style="stop-color:#FFE72A"/>
		<stop  offset="0.7261" style="stop-color:#F6D933"/>
		<stop  offset="1" style="stop-color:#F8BE15"/>
	</radialGradient>
	<polygon fill="url(#SVGID_18_)" points="1283.76,627.677 1357.006,531.236 1266.67,617.91 	"/>
	
		<radialGradient id="SVGID_19_" cx="1360.3789" cy="292.6826" r="58.0357" gradientTransform="matrix(1 0 0 -1 0 961)" gradientUnits="userSpaceOnUse">
		<stop  offset="8.370500e-04" style="stop-color:#F6E39D"/>
		<stop  offset="0.4059" style="stop-color:#FFE72A"/>
		<stop  offset="0.7261" style="stop-color:#F6D933"/>
		<stop  offset="1" style="stop-color:#F8BE15"/>
	</radialGradient>
	<polygon fill="url(#SVGID_19_)" points="1308.176,700.922 1442.459,641.104 1304.513,685.052 	"/>
	
		<radialGradient id="SVGID_20_" cx="1366.0186" cy="210.1328" r="56.1339" gradientTransform="matrix(1 0 0 -1 0 961)" gradientUnits="userSpaceOnUse">
		<stop  offset="8.370500e-04" style="stop-color:#F6E39D"/>
		<stop  offset="0.4059" style="stop-color:#FFE72A"/>
		<stop  offset="0.7261" style="stop-color:#F6D933"/>
		<stop  offset="1" style="stop-color:#F8BE15"/>
	</radialGradient>
	<polygon fill="url(#SVGID_20_)" points="1311.838,759.518 1451.004,743.648 1308.176,743.648 	"/>
	
		<radialGradient id="SVGID_21_" cx="1351.167" cy="138.6582" r="60.0357" gradientTransform="matrix(1 0 0 -1 0 961)" gradientUnits="userSpaceOnUse">
		<stop  offset="8.370500e-04" style="stop-color:#F6E39D"/>
		<stop  offset="0.4059" style="stop-color:#FFE72A"/>
		<stop  offset="0.7261" style="stop-color:#F6D933"/>
		<stop  offset="1" style="stop-color:#F8BE15"/>
	</radialGradient>
	<polygon fill="url(#SVGID_21_)" points="1293.526,825.439 1441.238,837.646 1289.863,809.569 	"/>
	
		<radialGradient id="SVGID_22_" cx="611.9028" cy="539.582" r="63.8568" gradientTransform="matrix(1 0 0 -1 0 961)" gradientUnits="userSpaceOnUse">
		<stop  offset="8.370500e-04" style="stop-color:#F6E39D"/>
		<stop  offset="0.4059" style="stop-color:#FFE72A"/>
		<stop  offset="0.7261" style="stop-color:#F6D933"/>
		<stop  offset="1" style="stop-color:#F8BE15"/>
	</radialGradient>
	<path fill="url(#SVGID_22_)" d="M675.823,482.406L568.396,360.33l95.219,134.283C663.615,494.613,672.161,483.627,675.823,482.406z
		"/>
	
		<radialGradient id="SVGID_23_" cx="525.3496" cy="464.9004" r="66.2038" gradientTransform="matrix(1 0 0 -1 0 961)" gradientUnits="userSpaceOnUse">
		<stop  offset="8.370500e-04" style="stop-color:#F6E39D"/>
		<stop  offset="0.4059" style="stop-color:#FFE72A"/>
		<stop  offset="0.7261" style="stop-color:#F6D933"/>
		<stop  offset="1" style="stop-color:#F8BE15"/>
	</radialGradient>
	<path fill="url(#SVGID_23_)" d="M603.799,547.106L471.957,443.342l119.634,115.974
		C591.591,559.314,600.136,548.327,603.799,547.106z"/>
	
		<radialGradient id="SVGID_24_" cx="456.1201" cy="374.2393" r="69.1392" gradientTransform="matrix(1 0 0 -1 0 961)" gradientUnits="userSpaceOnUse">
		<stop  offset="8.370500e-04" style="stop-color:#F6E39D"/>
		<stop  offset="0.4059" style="stop-color:#FFE72A"/>
		<stop  offset="0.7261" style="stop-color:#F6D933"/>
		<stop  offset="1" style="stop-color:#F8BE15"/>
	</radialGradient>
	<path fill="url(#SVGID_24_)" d="M547.644,626.455l-153.814-83.011l141.606,95.219C535.436,638.663,543.981,627.677,547.644,626.455
		z"/>
	
		<radialGradient id="SVGID_25_" cx="426.5293" cy="234.2109" r="56.87" gradientTransform="matrix(1 0 0 -1 0 961)" gradientUnits="userSpaceOnUse">
		<stop  offset="8.370500e-04" style="stop-color:#F6E39D"/>
		<stop  offset="0.4059" style="stop-color:#FFE72A"/>
		<stop  offset="0.7261" style="stop-color:#F6D933"/>
		<stop  offset="1" style="stop-color:#F8BE15"/>
	</radialGradient>
	<path fill="url(#SVGID_25_)" d="M512.241,722.896l-144.049-6.104l144.049,21.974C512.241,738.766,508.579,724.116,512.241,722.896z
		"/>
	
		<radialGradient id="SVGID_26_" cx="443.0137" cy="132.9941" r="55.0746" gradientTransform="matrix(1 0 0 -1 0 961)" gradientUnits="userSpaceOnUse">
		<stop  offset="8.370500e-04" style="stop-color:#F6E39D"/>
		<stop  offset="0.4059" style="stop-color:#FFE72A"/>
		<stop  offset="0.7261" style="stop-color:#F6D933"/>
		<stop  offset="1" style="stop-color:#F8BE15"/>
	</radialGradient>
	<path fill="url(#SVGID_26_)" d="M519.566,810.79l-131.843,37.844l133.062-21.974C520.787,826.66,529.332,815.673,519.566,810.79z"
		/>
	
		<linearGradient id="SVGID_27_" gradientUnits="userSpaceOnUse" x1="582.5508" y1="265.1328" x2="1321.6064" y2="265.1328" gradientTransform="matrix(1 0 0 -1 0 961)">
		<stop  offset="0" style="stop-color:#FFFFFF"/>
		<stop  offset="1" style="stop-color:#651819"/>
	</linearGradient>
	<path opacity="0.4" fill="url(#SVGID_27_)" enable-background="new    " d="M582.551,883.512c0,0,226.335-15.346,306.904-44.645
		c80.57-29.298,92.778-183.113,217.295-197.764c124.518-14.648,57.376-120.854,32.961-150.152
		c102.543,51.271,181.361,149.641,181.893,245.373c0.435,78.165-48.829,151.373-48.829,151.373s-141.607,17.091-319.839,12.208
		C774.704,895.021,582.551,883.512,582.551,883.512z"/>
	<path fill="#FBB040" d="M533.723,812.711l-155.639,12.816l142.822-34.789C520.906,790.738,542.878,783.413,533.723,812.711z"/>
	<polygon fill="#FBB040" points="528.23,739.469 383.578,679.044 537.385,722.989 	"/>
	<polygon fill="#FBB040" points="555.695,653.41 458.65,571.013 563.02,636.93 	"/>
	<polygon fill="#FBB040" points="603.303,558.195 515.413,461.15 616.12,543.547 	"/>
	<polygon fill="#FBB040" points="689.362,479.461 610.627,364.104 704.01,475.798 	"/>
	<polygon fill="#FBB040" points="778.367,436.018 755.279,327.483 797.394,435.516 	"/>
	<polygon fill="#FBB040" points="1258.816,596.646 1324.734,525.236 1267.972,613.126 	"/>
	<polygon fill="#FBB040" points="1293.605,679.044 1396.145,631.438 1291.775,693.692 	"/>
	<polygon fill="#FBB040" points="1311.916,779.751 1440.09,788.907 1317.41,763.271 	"/>
	<polygon fill="#FBB040" points="654.572,589.322 568.514,492.277 672.883,574.675 	"/>
	<polygon fill="#FBB040" points="623.444,653.41 519.075,565.52 636.262,625.944 	"/>
	<polygon fill="#FBB040" points="616.12,712.003 491.609,668.058 605.134,732.145 	"/>
	<polygon fill="#FBB040" points="605.134,777.92 489.778,777.92 610.627,796.231 	"/>
	<polygon fill="#FBB040" points="610.627,836.514 504.427,871.303 623.444,854.824 	"/>
	<polygon fill="#FBB040" points="714.997,517.912 636.262,362.273 735.139,506.926 	"/>
	<polygon fill="#FBB040" points="784.576,451.994 747.955,303.68 801.056,442.839 	"/>
	<polygon fill="#FBB040" points="1097.686,472.136 1156.278,347.625 1119.658,486.785 	"/>
	<polygon fill="#FBB040" points="1161.771,534.393 1244.168,406.219 1180.082,549.04 	"/>
	<polygon fill="#FBB040" points="1213.041,607.634 1311.916,506.926 1222.195,633.268 	"/>
	<polygon fill="#FBB040" points="1240.507,675.383 1418.117,642.423 1242.338,699.186 	"/>
	<polygon fill="#FBB040" points="1255.154,752.287 1429.104,768.766 1253.323,770.597 	"/>
	<polygon fill="#FBB040" points="1244.168,840.177 1412.624,858.486 1245.999,823.696 	"/>
	<polygon fill="#FBB040" points="735.139,838.346 590.485,827.358 735.139,821.865 	"/>
	<polygon fill="#FBB040" points="727.812,776.089 575.837,746.793 733.307,748.624 	"/>
	<polygon fill="#FBB040" points="729.645,708.341 592.316,658.902 735.139,684.537 	"/>
	<polygon fill="#FBB040" points="749.786,631.438 638.093,563.688 753.448,609.464 	"/>
	<polygon fill="#FBB040" points="768.097,565.52 675.823,482.406 782.745,543.547 	"/>
	<polygon fill="#FBB040" points="813.872,495.939 714.997,395.231 799.225,510.589 	"/>
	<polygon fill="#FBB040" points="839.507,462.981 804.718,307.342 854.156,450.163 	"/>
	<polygon fill="#FBB040" points="996.979,462.98 1039.092,334.808 1020.781,475.798 	"/>
	<polygon fill="#FBB040" points="1048.247,506.926 1112.333,353.118 1070.22,517.912 	"/>
	<polygon fill="#FBB040" points="1099.516,547.209 1200.223,430.022 1114.164,569.182 	"/>
	<polygon fill="#FBB040" points="1130.645,605.803 1271.634,495.939 1145.293,624.113 	"/>
	<polygon fill="#FBB040" points="1152.615,662.564 1324.734,638.761 1161.771,686.368 	"/>
	<polygon fill="#FBB040" points="1159.939,743.131 1308.176,743.648 1158.109,721.158 	"/>
	<polygon fill="#FBB040" points="1161.771,818.204 1311.916,829.189 1167.265,794.4 	"/>
	<polygon fill="#FBB040" points="1134.306,867.643 1254.462,888.918 1145.293,842.008 	"/>
	<polygon fill="#FBB040" points="951.201,495.939 978.666,435.516 971.343,519.743 	"/>
	<polygon fill="#FBB040" points="879.791,523.405 839.507,444.67 892.607,495.939 	"/>
	<polygon fill="#FBB040" points="872.467,583.829 802.887,552.702 874.297,624.113 	"/>
	<polygon fill="#FBB040" points="978.666,576.506 984.16,616.788 1068.389,552.702 	"/>
	<polygon fill="#FBB040" points="854.156,688.199 751.617,680.875 845,717.496 	"/>
	<polygon fill="#FBB040" points="857.818,774.258 747.955,785.244 859.649,801.724 	"/>
	<polygon fill="#FBB040" points="872.467,842.008 883.452,865.811 782.745,889.614 	"/>
	<polygon fill="#FBB040" points="1009.794,673.551 1015.287,704.68 1126.98,662.564 	"/>
	<polygon fill="#FBB040" points="1028.104,741.3 1026.273,770.597 1158.109,776.089 	"/>
	<polygon fill="#FBB040" points="1026.273,821.865 1011.625,849.331 1132.475,887.783 	"/>
	<path fill="#FBB040" d="M912.749,534.393l7.324-51.27l12.816,54.93C932.891,538.053,914.58,543.548,912.749,534.393z"/>
	<polygon fill="#FBB040" points="914.58,624.113 927.398,585.66 938.384,627.775 	"/>
	<path fill="#FBB040" d="M929.229,673.551c-14.323,4.775-12.817,42.114,1.83,40.283
		C945.708,712.003,945.709,668.059,929.229,673.551z"/>
	<polygon fill="#FBB040" points="916.411,766.935 932.891,821.865 947.539,766.935 	"/>
	<polygon fill="#FBB040" points="925.566,851.162 936.553,917.079 943.877,852.993 	"/>
</g>
<g id="PABLO">
	
		<radialGradient id="SVGID_28_" cx="267.8276" cy="641.5176" r="187.7021" gradientTransform="matrix(0.9992 -0.0402 -0.0402 -0.9992 23.1753 1011.6892)" gradientUnits="userSpaceOnUse">
		<stop  offset="8.370500e-04" style="stop-color:#AEC99D"/>
		<stop  offset="0.4059" style="stop-color:#31B457"/>
		<stop  offset="0.7261" style="stop-color:#008544"/>
		<stop  offset="1" style="stop-color:#006A30"/>
	</radialGradient>
	<path fill="url(#SVGID_28_)" d="M309.495,426.285c0.787-0.033,22.401-11.548,27.715-55.917
		c3.32-27.717-14.273-41.219-27.815-54.476c-13.545-13.25-42.926-18.381-76.227-13.095c-33.299,5.279-73.684,19.217-95.695,35.729
		c-18.753,14.069-25.882,29.818-37.114-0.959c-2.755-7.55-13.305-18.462-22.544-19.623c14.895,12.271,19.403,32.925,8.586,38.262
		c18.029,21.644,4.057,32.316-9.171,31.011c12.974,10.203,27.812-9.392,42.341,9.021c18.664,23.651,93.773,50.859,116.258,51.142
		C258.313,447.66,309.495,426.285,309.495,426.285z"/>
	<path fill="#107139" d="M245.042,398.854c0,0-8.513,9.736,1.55,12.401c5.855,1.548,16.362-2.758,23.939-4.997
		c7.578-2.236,27.384-3.615,33.584-0.859c-4.994-5.854-12.573-8.612-22.389-9.988C271.909,394.032,256.236,393.688,245.042,398.854z
		"/>
	<path fill="#D8E040" d="M317.25,419.794c-4.643,2.158-21.777-12.134-55.374,5.381c-39.373,20.525-65.5,6.022-96.093,0.152
		c39.725,20.158,78.152,24.993,95.403,22.608C301.09,442.416,317.25,419.794,317.25,419.794z"/>
	<path fill="#107139" d="M267.504,307.965c0.582,1.872-2.235,4.4-6.287,5.658c-4.054,1.254-7.81,0.755-8.389-1.115
		c-0.578-1.872,2.237-4.404,6.29-5.655C263.171,305.596,266.927,306.094,267.504,307.965z"/>
	<path fill="#107139" d="M233.138,306.938c0.28,0.904-1.079,2.126-3.032,2.731c-1.957,0.605-3.768,0.365-4.047-0.537
		c-0.279-0.905,1.08-2.125,3.033-2.728C231.047,305.797,232.858,306.039,233.138,306.938z"/>
	
		<ellipse transform="matrix(-0.2956 -0.9553 0.9553 -0.2956 -5.7489 610.3608)" fill="#107139" cx="222.141" cy="307.3" rx="2.342" ry="5.08"/>
	
		<ellipse transform="matrix(-0.2958 -0.9552 0.9552 -0.2958 -72.5315 592.1227)" fill="#107139" cx="181.986" cy="322.796" rx="2.343" ry="5.08"/>
	
		<ellipse transform="matrix(-0.4937 -0.8696 0.8696 -0.4937 18.524 657.9583)" fill="#107139" cx="200.798" cy="323.587" rx="1.769" ry="3.833"/>
	
		<ellipse transform="matrix(-0.4939 -0.8695 0.8695 -0.4939 -57.7275 652.7651)" fill="#107139" cx="161.112" cy="343.183" rx="1.768" ry="3.833"/>
	<path fill="#107139" d="M184.452,342.031c0.332,0.586-0.429,1.645-1.699,2.366c-1.27,0.724-2.57,0.83-2.9,0.249
		c-0.334-0.59,0.425-1.65,1.694-2.372C182.818,341.554,184.12,341.445,184.452,342.031z"/>
	<path fill="#107139" d="M296.354,311.33c0.308,0.539-0.393,1.515-1.562,2.18c-1.169,0.664-2.365,0.766-2.671,0.228
		c-0.305-0.542,0.395-1.52,1.562-2.182C294.854,310.893,296.049,310.79,296.354,311.33z"/>
	<path fill="#107139" d="M182.29,366.087c0.333,0.585-0.427,1.646-1.698,2.366c-1.268,0.722-2.569,0.835-2.901,0.244
		c-0.333-0.585,0.427-1.646,1.697-2.367C180.658,365.61,181.957,365.5,182.29,366.087z"/>
	
		<ellipse transform="matrix(-0.4944 -0.8692 0.8692 -0.4944 -90.5052 662.1169)" fill="#107139" cx="147.313" cy="357.38" rx="1.221" ry="2.646"/>
	<path fill="#107139" d="M269.062,421.764c0,0-28.404,11.021-67.656,5.504c-39.252-5.52-51.685-15.222-60.65-22.382
		c-9.498-7.584-35.301-22.935-31.453-20.184c2.839,2.029,13.378,17.058,28.016,26.145
		C155.859,422.355,220.655,453.279,269.062,421.764z"/>
	
		<radialGradient id="SVGID_29_" cx="231.4502" cy="568.0352" r="47.914" gradientTransform="matrix(0.9992 -0.0402 -0.0402 -0.9992 23.1753 1011.6892)" gradientUnits="userSpaceOnUse">
		<stop  offset="0" style="stop-color:#DCCE80"/>
		<stop  offset="1" style="stop-color:#D7B928"/>
	</radialGradient>
	<path fill="url(#SVGID_29_)" d="M164.548,425.071c0,0,51.962,27.326,93.156,20.51c24.404-4.036,40.355-16.08,40.355-16.08
		s-18.583-17.647-41.304-0.968c-16.249,7.753-25.424,5.761-38.816,6.035C204.545,434.845,164.548,425.071,164.548,425.071z"/>
	
		<radialGradient id="SVGID_30_" cx="313.5293" cy="642.9531" r="20.2269" gradientTransform="matrix(0.9992 -0.0402 -0.0402 -0.9992 23.1753 1011.6892)" gradientUnits="userSpaceOnUse">
		<stop  offset="0" style="stop-color:#FFFFFF"/>
		<stop  offset="1" style="stop-color:#E6E7E8"/>
	</radialGradient>
	<path fill="url(#SVGID_30_)" d="M327.952,355.949c0.503,12.545-6.852,23.032-16.43,23.416c-9.579,0.386-17.754-9.477-18.259-22.02
		c-0.504-12.548,6.854-23.029,16.431-23.415C319.274,333.545,327.448,343.402,327.952,355.949z"/>
	
		<ellipse transform="matrix(-0.0402 -0.9992 0.9992 -0.0402 -28.4997 682.2728)" cx="313.438" cy="354.824" rx="13.203" ry="8.557"/>
	<path fill="#FFFFFF" d="M319.85,353.361c0.109,2.701-1.985,4.974-4.688,5.084c-2.696,0.108-4.971-1.989-5.081-4.691
		c-0.108-2.697,1.992-4.973,4.688-5.081C317.468,348.564,319.743,350.662,319.85,353.361z"/>
	
		<radialGradient id="SVGID_31_" cx="239.2129" cy="642.9541" r="20.2258" gradientTransform="matrix(0.9992 -0.0402 -0.0402 -0.9992 23.1753 1011.6892)" gradientUnits="userSpaceOnUse">
		<stop  offset="0" style="stop-color:#FFFFFF"/>
		<stop  offset="1" style="stop-color:#E6E7E8"/>
	</radialGradient>
	<path fill="url(#SVGID_31_)" d="M253.693,358.937c0.505,12.544-6.853,23.031-16.429,23.416
		c-9.579,0.386-17.751-9.477-18.256-22.022c-0.504-12.546,6.85-23.028,16.428-23.414
		C245.015,336.532,253.188,346.389,253.693,358.937z"/>
	<path d="M248.481,354.814c0.293,7.287-3.296,13.346-8.02,13.535c-4.721,0.191-8.787-5.559-9.081-12.848
		c-0.292-7.282,3.298-13.341,8.021-13.53C244.123,341.781,248.188,347.532,248.481,354.814z"/>
	<path fill="#FFFFFF" d="M247.016,351.387c0.108,2.711-1.995,4.991-4.703,5.097c-2.708,0.11-4.99-1.991-5.1-4.702
		c-0.108-2.709,1.999-4.991,4.706-5.1C244.626,346.574,246.907,348.679,247.016,351.387z"/>
	<path fill="#107139" d="M204.424,369.576c-12.742,4.354-21.231,17.557-9.538,15.197c11.693-2.361,20.719-2.843,32.588-0.386
		c10.646,2.203,17.849-3.988,23.595-7.923c5.744-3.933,4.276-14.1-12.017-14.773C222.761,361.02,204.424,369.576,204.424,369.576z"
		/>
	<g>
		
			<radialGradient id="SVGID_32_" cx="1043.6055" cy="884.2959" r="66.8809" gradientTransform="matrix(-0.9376 0.5533 -0.5082 -0.8612 1659.3469 548.3173)" gradientUnits="userSpaceOnUse">
			<stop  offset="8.370500e-04" style="stop-color:#AEC99D"/>
			<stop  offset="0.4059" style="stop-color:#31B457"/>
			<stop  offset="0.9702" style="stop-color:#008042"/>
		</radialGradient>
		<path fill="url(#SVGID_32_)" d="M191.149,376.12c10.665-13.406,17.195-19.392,42.747-25.938
			c25.551-6.548,35.762,10.045,18.383,23.28c-17.38,13.233-32.993,3.117-43.424,6.43
			C190.503,385.717,186.364,382.133,191.149,376.12z"/>
		<path fill="none" stroke="#006028" stroke-width="1.5091" stroke-miterlimit="10" d="M204.617,367.461
			c0,0,19.783-12.386,42.394-10.799"/>
		<path fill="none" stroke="#006028" stroke-width="1.5091" stroke-miterlimit="10" d="M204.45,371.115
			c0,0,23.303-3.799,39.288,0.988"/>
	</g>
	
		<radialGradient id="SVGID_33_" cx="240.3037" cy="682.6846" r="36.1296" gradientTransform="matrix(0.9992 -0.0402 -0.0402 -0.9992 23.1753 1011.6892)" gradientUnits="userSpaceOnUse">
		<stop  offset="8.370500e-04" style="stop-color:#AEC99D"/>
		<stop  offset="0.4059" style="stop-color:#31B457"/>
		<stop  offset="0.7261" style="stop-color:#008544"/>
		<stop  offset="1" style="stop-color:#006A30"/>
	</radialGradient>
	<path fill="url(#SVGID_33_)" d="M240.234,318.461c-15.515,2.77-28.142,8.792-32.323,34.393
		C218.503,326.688,240.234,318.461,240.234,318.461z"/>
	
		<radialGradient id="SVGID_34_" cx="327.6758" cy="679.7676" r="24.2497" gradientTransform="matrix(0.9992 -0.0402 -0.0402 -0.9992 23.1753 1011.6892)" gradientUnits="userSpaceOnUse">
		<stop  offset="8.370500e-04" style="stop-color:#AEC99D"/>
		<stop  offset="0.4059" style="stop-color:#31B457"/>
		<stop  offset="0.7261" style="stop-color:#008544"/>
		<stop  offset="1" style="stop-color:#006A30"/>
	</radialGradient>
	<path fill="url(#SVGID_34_)" d="M298.837,320.395c0,0,14.157,1.575,28.992,19.977C321.733,325.908,307.536,315.754,298.837,320.395
		z"/>
	
		<radialGradient id="SVGID_35_" cx="232.1948" cy="632.8076" r="0" gradientTransform="matrix(0.9992 -0.0402 -0.0402 -0.9992 23.1753 1011.6892)" gradientUnits="userSpaceOnUse">
		<stop  offset="8.370500e-04" style="stop-color:#AEC99D"/>
		<stop  offset="0.4059" style="stop-color:#31B457"/>
		<stop  offset="0.7261" style="stop-color:#008544"/>
		<stop  offset="1" style="stop-color:#006A30"/>
	</radialGradient>
	<path fill="url(#SVGID_35_)" d="M229.746,370.055"/>
	<path fill="#107139" d="M335.116,360.275c-5.608-11.544-11.415-10.144-24.974-5.166c-13.604,4.994,6.02,27.053,17.396,26.867
		c10.506-0.173,5.511,7.922,5.511,7.922S343.899,378.359,335.116,360.275z"/>
	
		<radialGradient id="SVGID_36_" cx="320.6055" cy="595.3438" r="43.1474" gradientTransform="matrix(1 0 0 -1 0 961)" gradientUnits="userSpaceOnUse">
		<stop  offset="8.370500e-04" style="stop-color:#AEC99D"/>
		<stop  offset="0.4059" style="stop-color:#31B457"/>
		<stop  offset="0.9702" style="stop-color:#008042"/>
	</radialGradient>
	<path fill="url(#SVGID_36_)" d="M337.527,356.143c-4.478-6.373-9.986-8.173-24.112-5.167c-16.189,3.445-0.516,26.523,14.295,28.59
		c11.024,1.538,8.438,5.511,8.438,5.511S349.086,372.591,337.527,356.143z"/>
	<path fill="#F9ED32" d="M299.982,385.593c-11.368-4.133-26.867-3.101-42.368,4.649c-15.5,7.751-18.083,18.084-5.167,18.084
		c12.917,0,10.851-5.684,33.584-6.2s20.15,9.3,26.351,4.133C318.582,401.093,317.004,391.783,299.982,385.593z"/>
	<path fill="#A13422" d="M252.965,402.126c1.528,5.097,16.533-4.133,32.55-3.616c16.017,0.519,20.15,6.717,23.25,3.101
		s-9.301-13.434-23.767-12.4C270.531,390.242,251.415,396.959,252.965,402.126z"/>
	<path fill="none" stroke="#006028" stroke-width="1.3741" stroke-miterlimit="10" d="M340.799,377.843c0,0-4.134-8.267-19.634-9.3"
		/>
	<path fill="none" stroke="#006028" stroke-width="1.3741" stroke-miterlimit="10" d="M342.521,368.887
		c0,0-5.168-14.122-25.834-12.572"/>
	<path fill="#F1B937" d="M253.998,399.371c0,0,15.328-10.334,32.723-10.162c16.705,0.164,22.217,9.818,21.7,11.367
		c-0.517,1.55-1.895,2.24-2.239,2.412c1.206,1.033,4.649,0.343,5.512-2.757c0.861-3.101-3.272-8.61-12.056-10.851
		C290.854,387.143,268.121,384.561,253.998,399.371z"/>
	<path fill="#F1B937" d="M253.826,391.965c0,0-12.744,7.751-9.989,13.435c2.756,5.684,11.883,3.96,19.29,0.859
		c-11.884,1.207-14.812,0.689-16.188-2.237C245.559,401.093,253.826,391.965,253.826,391.965z"/>
</g>
</svg>
