<?xml version="1.0" encoding="utf-8"?>
<!-- Generator: Adobe Illustrator 16.0.0, SVG Export Plug-In . SVG Version: 6.00 Build 0)  -->
<!DOCTYPE svg PUBLIC "-//W3C//DTD SVG 1.1//EN" "http://www.w3.org/Graphics/SVG/1.1/DTD/svg11.dtd">
<svg version="1.1" id="Layer_1" xmlns="http://www.w3.org/2000/svg" xmlns:xlink="http://www.w3.org/1999/xlink" x="0px" y="0px"
	 width="1440px" height="960px" viewBox="0 0 1440 960" enable-background="new 0 0 1440 960" xml:space="preserve">
<g id="water">
	
		<linearGradient id="SVGID_1_" gradientUnits="userSpaceOnUse" x1="684.25" y1="-116.3008" x2="684.25" y2="362.2423" gradientTransform="matrix(1 0 0 1 0 169)">
		<stop  offset="0" style="stop-color:#5BC0AC"/>
		<stop  offset="0.4898" style="stop-color:#00A388"/>
		<stop  offset="1" style="stop-color:#008670"/>
	</linearGradient>
	<rect x="-204.928" y="-207.73" fill="url(#SVGID_1_)" width="1778.357" height="1189.018"/>
</g>
<g id="SEA">
	<path fill="#B1D9AC" d="M1626.793,123.504c153.913-30.783-444.355,249.034-693.391,202.646
		C684.368,279.761,586.708,206.516,318.14,226.048c-268.564,19.532-424.823-31.74-529.809,56.155
		c-104.985,87.895-53.713,117.19-53.713,117.19s65.921-75.687,219.736-95.219c153.815-19.532,327.163-78.128,459.005-26.855
		c131.842,51.271,275.891,100.102,463.888,104.985c187.996,4.883,288.099-12.208,444.354-51.272
		c156.257-39.064,268.566-102.543,310.072-124.517S1614.585,125.945,1626.793,123.504z"/>
	<path fill="#AEDBC3" d="M1643.884,96.647c-87.895,29.298-192.88,173.348-441.914,202.646
		c-249.035,29.298,14.648,17.09-351.578-41.506c-366.228-58.597-415.058-102.544-559.105-80.57
		c-144.049,21.974-90.336,63.479-292.982,56.155c-202.646-7.324-295.423,51.272-314.955,61.039
		c-19.532,9.766,97.661-126.959,97.661-126.959s65.921-12.208,212.412-7.325c146.491,4.883,195.321-85.453,468.771-36.623
		c273.448,48.83,524.926,95.219,690.946,85.453c166.023-9.766,437.031-124.517,444.355-126.958
		C1604.819,79.557,1643.884,96.647,1643.884,96.647z"/>
	<path opacity="0.3" fill="#AEDBC3" enable-background="new    " d="M1680.506,106.413c0,0-100.102,129.4-415.057,153.815
		c-314.956,24.415-664.094-141.608-959.516-129.4C10.51,143.036-311.77,250.462-311.77,250.462v114.751
		c0,0,383.318-180.672,705.598-134.284c322.28,46.389,698.273,148.932,966.84,85.453
		c268.567-63.479,346.695-134.283,346.695-134.283L1680.506,106.413z"/>
	<path opacity="0.3" fill="#AEDBC3" enable-background="new    " d="M1560.872,72.232c0,0-100.104,129.4-415.058,153.815
		c-314.955,24.415-664.093-141.608-959.517-129.4S-248.29,199.19-248.29,199.19v114.751c0,0,200.204-163.581,522.484-117.192
		s698.273,148.933,966.839,85.453c268.564-63.48,534.69-268.566,534.69-268.566L1560.872,72.232z"/>
	<path opacity="0.3" fill="#AEDBC3" enable-background="new    " d="M1636.559,306.617c0,0-246.593,207.529-561.548,231.941
		c-314.955,24.416-664.092-141.605-959.515-129.397c-295.423,12.207-434.59,102.543-434.59,102.543v114.751
		c0,0,200.205-163.581,522.484-117.192c322.279,46.391,698.273,148.935,966.838,85.453
		c268.565-63.479,534.691-268.566,534.691-268.566L1636.559,306.617z"/>
	<path opacity="0.3" fill="#AEDBC3" enable-background="new    " d="M1636.559,418.927c0,0-261.242,163.581-576.195,187.997
		C745.407,631.339,396.27,465.316,100.847,477.524c-295.423,12.207-434.59,102.543-434.59,102.543l2.441,58.597
		c0,0,202.646-156.257,524.926-109.868c322.28,46.39,693.39,197.763,961.956,134.283c268.566-63.48,534.691-268.566,534.691-268.566
		L1636.559,418.927z"/>
</g>
<g id="bg_coral">
	<path fill="#598989" d="M1649.783,775.388c-46.391-4.883-58.596-58.596-75.688-65.921c-17.091-7.324-14.647-12.207-26.854-17.09
		c-12.208-4.884,19.531,31.739-17.091-17.091c-36.623-48.831-14.649-53.714-36.623-75.688
		c-21.976-21.974-2.441-39.062-12.208-46.389c-9.768-7.324-31.739-14.649-53.713-21.974c-21.976-7.325-21.976-12.207-36.623-9.768
		c-14.648,2.441,36.623,39.064,19.53,39.064c-17.091,0,36.623,34.181,14.649,36.622c-21.975,2.439,12.207-7.324-29.298,14.647
		c-41.506,21.976-48.831,31.739-48.831,31.739l-39.063,4.884c0,0,0-41.506-36.623-63.479
		c-36.622-21.976-41.506-34.184-46.389-26.857s-11.103,11.339-24.415,19.532c-31.74,19.532-61.038,26.856-73.246,41.506
		c-12.207,14.649-51.271,7.324-48.83,14.649c2.441,7.322,29.299,29.298-9.766,36.622c-39.065,7.323-53.713,2.44-90.336,24.416
		c-36.623,21.974-95.221,41.506-117.193,34.181c-21.973-7.324-24.415,2.439-65.92-9.768c-41.506-12.206-78.129-17.091-56.155-24.413
		c21.976-7.325,112.312-51.272-19.53-58.599c-131.844-7.325-104.985-2.439-131.844-7.324c-26.854-4.884-43.945-2.44-43.945,7.324
		c0,9.768-19.532,9.768-41.508,17.091c-21.974,7.324-36.622,0-36.622,7.324s-29.299,0-36.622,9.768
		c-7.323,9.767-51.271,4.884-46.39,17.091c4.883,12.208,12.208,9.767-21.974,19.531c-34.184,9.768-36.623,2.44-61.038,2.44
		s-7.325,2.441-24.415,0c-17.091-2.44,0-56.154-36.623-68.362c-36.623-12.207-17.09-4.883-36.623-12.207
		c-19.532-7.323-29.298-12.208-29.298-12.208s-34.182,7.324-26.857,14.649c7.325,7.324,2.441,24.415-29.298,26.856
		c-31.739,2.439-85.453-14.649-85.453-21.976S1.761,611.807,1.761,611.807s-53.713,83.014-61.038,87.896
		c-7.325,4.883-2.442,24.415-29.298,9.766c-26.857-14.646-7.325-53.713-21.974-58.596c-14.649-4.884-3.662-19.532-26.857-4.884
		c-23.194,14.647-45.796,46.808-56.155,53.714c-29.298,19.532-12.208-4.883-58.596,34.181
		c-46.389,39.064-70.804,83.014-70.804,83.014s-36.623,29.298-21.974,39.062s31.74,53.713,36.623,61.038
		c4.883,7.324,19.532,70.804,19.532,70.804l2002.042-34.182L1649.783,775.388z"/>
</g>
<g id="Ground">
	<path fill="#C2B59B" d="M-251.952,851.075c83.011-21.976,158.698-58.597,383.317-36.623
		c224.62,21.974,485.859,53.714,656.768,43.947c170.906-9.768,485.861-12.208,571.314,7.322
		c75.14,17.178,325.792-37.959,284.437-53.713c-2.019-0.769-25.608,294.478-34.182,305.189
		c-19.532,24.415-161.14,4.883-200.204,14.647c-39.064,9.768-603.054,41.506-830.115,36.622
		c-227.061-4.883-314.955-7.323-507.834-24.415c-192.88-17.091-268.566,29.298-295.423-12.207
		C-250.731,1090.344-251.952,851.075-251.952,851.075z"/>
	<path fill="#867757" d="M528.229,1161.225c-68.375-6.104-125.854,34.713-158.813-22.051c-56.763-3.662-86.742,30.596-73.726,13.513
		c39.064-51.271,519.302-125.82,541.276-128.264c21.975-2.443,305.189-83.012,417.499-80.57
		c112.312,2.442,272.229-9.767,278.333,65.921c6.104,75.688-115.973,108.647-128.18,114.752
		c-12.208,6.104-266.125,18.312-317.396,35.401C1035.946,1177.018,528.229,1161.225,528.229,1161.225z"/>
	<path fill="#867757" d="M-283.692,926.762c0,0,266.125-170.904,773.958-26.854c-134.281,0-92.775,0-275.891,21.974
		C31.263,943.854-116.448,1043.955-283.692,926.762z"/>
	<ellipse fill="#867757" cx="-48.086" cy="1020.76" rx="10.987" ry="6.104"/>
	<ellipse fill="#867757" cx="3.186" cy="1040.292" rx="3.662" ry="1.221"/>
	<circle fill="#867757" cx="-59.073" cy="1053.721" r="7.325"/>
	<circle fill="#867757" cx="-33.437" cy="1072.032" r="8.545"/>
	<circle fill="#867757" cx="642.863" cy="912.113" r="8.545"/>
	<circle fill="#867757" cx="1310.617" cy="893.802" r="8.545"/>
	<circle fill="#867757" cx="3.186" cy="1040.292" r="6.104"/>
	<circle fill="#867757" cx="1492.51" cy="898.685" r="3.662"/>
	<circle fill="#867757" cx="122.82" cy="1158.706" r="3.662"/>
	<circle fill="#867757" cx="-10.242" cy="1101.33" r="3.662"/>
	<circle fill="#867757" cx="157.001" cy="1092.785" r="3.662"/>
	<circle fill="#867757" cx="426.789" cy="981.696" r="3.663"/>
	<circle fill="#867757" cx="699.018" cy="965.826" r="3.662"/>
	<circle fill="#867757" cx="530.553" cy="1029.306" r="3.662"/>
	<circle fill="#867757" cx="1098.205" cy="919.438" r="3.662"/>
	<circle fill="#867757" cx="763.718" cy="908.45" r="3.662"/>
	<circle fill="#867757" cx="-172.603" cy="853.517" r="3.662"/>
	<circle fill="#867757" cx="-99.358" cy="836.426" r="3.662"/>
	<circle fill="#867757" cx="-51.748" cy="833.984" r="3.662"/>
	<circle fill="#867757" cx="1521.808" cy="876.711" r="6.104"/>
	<circle fill="#867757" cx="1527.301" cy="935.918" r="11.597"/>
	<path fill="#73643E" d="M-256.835,919.438c-6.905-3.451,87.895-65.921,275.891-75.688c187.997-9.766,446.795,51.271,446.795,51.271
		s-217.292-26.855-366.227-9.768C-49.307,902.347-129.876,982.917-256.835,919.438z"/>
	<path fill="#73643E" d="M1554.768,978.033c0,0-95.219-53.713-263.683-39.063c-168.465,14.648-434.59,87.896-505.394,97.66
		c-70.807,9.767-300.309,65.921-300.309,65.921s327.163-41.506,468.771-63.479c141.605-21.976,332.045-87.896,402.85-48.83
		c70.804,39.062,224.619,63.479,224.619,63.479L1554.768,978.033z"/>
	<path fill="#AEDBC3" d="M1924.658,992.683"/>
	<path opacity="0.4" fill="#4C3C1A" enable-background="new    " d="M574.5,875.49c0,0,207.529-9.769,329.604,0
		c122.076,9.766,312.516,17.091,344.256,12.207c31.737-4.883,336.929,70.805,336.929,70.805s107.427,31.739-2.441,39.062
		c-109.868,7.324-776.399-7.323-788.607-9.767c-12.207-2.439-119.636-61.038-139.166-63.479
		C635.539,921.879,574.5,875.49,574.5,875.49z"/>
</g>
<g id="UMA">
	<polygon fill="#D09611" points="756.257,871.861 659.212,824.254 767.244,848.058 	"/>
	<polygon fill="#D09611" points="758.088,972.569 673.86,965.244 754.427,950.597 	"/>
	<polygon fill="#D09611" points="796.54,1042.148 717.806,1053.135 792.879,1020.177 	"/>
	<polygon fill="#D09611" points="807.525,785.803 708.65,707.067 818.513,761.999 	"/>
	<polygon fill="#D09611" points="875.275,716.224 813.02,628.332 895.417,697.912 	"/>
	<polygon fill="#D09611" points="961.335,657.631 915.559,564.246 981.477,639.319 	"/>
	<polygon fill="#D09611" points="1058.38,621.01 1047.394,527.625 1074.859,615.516 	"/>
	<polygon fill="#D09611" points="1144.438,615.517 1162.749,522.132 1160.918,610.022 	"/>
	<polygon fill="#D09611" points="1237.822,630.165 1256.132,536.779 1254.301,624.67 	"/>
	<polygon fill="#D09611" points="1334.867,639.319 1375.15,577.062 1355.009,648.474 	"/>
	<polygon fill="#D09611" points="1413.602,690.589 1463.041,626.501 1433.744,703.405 	"/>
	<polygon fill="#D09611" points="1485.014,754.675 1549.1,707.067 1501.492,776.646 	"/>
	<polygon fill="#D09611" points="1534.451,831.579 1616.848,798.619 1550.931,853.551 	"/>
	<polygon fill="#D09611" points="1554.593,897.496 1653.47,890.172 1571.072,919.469 	"/>
	<polygon fill="#D09611" points="1550.931,957.92 1635.159,972.569 1549.1,983.555 	"/>
	<polygon fill="#D09611" points="1534.451,1014.682 1611.354,1049.473 1532.62,1040.316 	"/>
	
		<radialGradient id="SVGID_2_" cx="1080.3525" cy="649.7617" r="362.0699" gradientTransform="matrix(1 0 0 1 0 169)" gradientUnits="userSpaceOnUse">
		<stop  offset="8.370500e-04" style="stop-color:#F6E39D"/>
		<stop  offset="0.4059" style="stop-color:#FFE72A"/>
		<stop  offset="0.7261" style="stop-color:#F6D933"/>
		<stop  offset="1" style="stop-color:#F8BE15"/>
	</radialGradient>
	<path fill="url(#SVGID_2_)" d="M1510.646,1071.445c0,0-172.118-9.154-285.645-10.985c-113.524-1.831-336.912,5.493-384.52-1.831
		c-47.608-7.324-104.369-58.593-91.554-162.963c12.817-104.37,159.304-252.685,270.995-278.319
		c111.693-25.634,309.446,3.662,379.025,53.103c69.58,49.438,181.272,144.65,170.287,261.84
		C1558.254,1049.474,1510.646,1071.445,1510.646,1071.445z"/>
	
		<radialGradient id="SVGID_3_" cx="2907.0518" cy="665.8809" r="66.663" gradientTransform="matrix(-0.8938 -0.126 -0.1396 0.9902 2306.5532 334.4925)" gradientUnits="userSpaceOnUse">
		<stop  offset="8.370500e-04" style="stop-color:#AEC99D"/>
		<stop  offset="0.4059" style="stop-color:#31B457"/>
		<stop  offset="0.9702" style="stop-color:#008042"/>
	</radialGradient>
	<path fill="url(#SVGID_3_)" d="M-416.646,612.752c13.945-4.197,21.292-5.011,41,5.166c19.708,10.176,17.292,29.444-0.818,29.472
		c-18.108,0.027-22.589-17.36-30.976-21.011C-422.197,619.96-422.9,614.635-416.646,612.752z"/>
	<path fill="none" stroke="#006028" stroke-width="1.3697" stroke-miterlimit="10" d="M-403.468,613.994
		c0,0,19.179,2.088,32.664,16.935"/>
	<path fill="none" stroke="#006028" stroke-width="1.3697" stroke-miterlimit="10" d="M-405.531,616.785c0,0,16.81,11,24.379,24.396
		"/>
	
		<radialGradient id="SVGID_4_" cx="-457.5425" cy="636.1826" r="187.1078" gradientTransform="matrix(0.9902 0.1396 -0.1396 0.9902 81.5011 20.3359)" gradientUnits="userSpaceOnUse">
		<stop  offset="8.370500e-04" style="stop-color:#AEC99D"/>
		<stop  offset="0.4059" style="stop-color:#31B457"/>
		<stop  offset="0.7261" style="stop-color:#008544"/>
		<stop  offset="1" style="stop-color:#006A30"/>
	</radialGradient>
	<path fill="url(#SVGID_4_)" d="M-428.603,659.448c0.778,0.108,24.032-7.319,37.173-49.882c8.209-26.589-6.63-42.974-17.542-58.395
		c-10.914-15.415-38.81-25.697-72.412-26.466c-33.599-0.774-75.693,5.677-100.229,17.937c-20.906,10.444-30.713,24.614-36.225-7.574
		c-1.353-7.896-9.748-20.483-18.601-23.272c12.413,14.694,13.142,35.756,1.582,39.058c13.812,24.446-1.797,32.416-14.537,28.771
		c10.899,12.324,28.953-4.239,39.91,16.414c14.075,26.531,82.869,66.639,104.868,70.934
		C-482.615,671.266-428.603,659.448-428.603,659.448z"/>
	<path fill="#D8E040" d="M-419.837,654.47c-4.939,1.288-19.187-15.791-55.266-4.62c-42.279,13.094-65.31-5.8-94.262-17.022
		c35.354,26.869,72.172,38.478,89.517,39.224C-439.729,673.767-419.837,654.47-419.837,654.47z"/>
	<path fill="#107139" d="M-448.633,535.912c0.235,1.939-2.979,3.916-7.177,4.426c-4.2,0.505-7.793-0.656-8.027-2.593
		c-0.232-1.938,2.981-3.92,7.179-4.422C-452.459,532.814-448.866,533.975-448.633,535.912z"/>
	<path fill="#107139" d="M-482.151,528.764c0.112,0.938-1.438,1.893-3.461,2.137c-2.027,0.244-3.76-0.314-3.873-1.25
		c-0.112-0.938,1.439-1.893,3.462-2.135C-483.999,527.27-482.266,527.832-482.151,528.764z"/>
	
		<ellipse transform="matrix(-0.9928 0.1197 -0.1197 -0.9928 -919.3827 1109.5616)" fill="#107139" cx="-493.004" cy="527.178" rx="5.064" ry="2.335"/>
	
		<ellipse transform="matrix(-0.9928 0.1198 -0.1198 -0.9928 -1002.2902 1130.5537)" fill="#107139" cx="-535.121" cy="535.155" rx="5.063" ry="2.336"/>
	
		<ellipse transform="matrix(-0.944 0.3298 -0.3298 -0.944 -826.8564 1218.9243)" fill="#107139" cx="-516.835" cy="539.316" rx="3.821" ry="1.764"/>
	
		<ellipse transform="matrix(-0.944 0.33 -0.33 -0.944 -905.2097 1256.5803)" fill="#107139" cx="-559.246" cy="551.469" rx="3.821" ry="1.763"/>
	<path fill="#107139" d="M-536.169,554.477c0.221,0.635-0.714,1.537-2.089,2.019s-2.668,0.354-2.889-0.274
		c-0.222-0.64,0.712-1.543,2.086-2.023C-537.686,553.716-536.39,553.843-536.169,554.477z"/>
	
		<ellipse transform="matrix(-0.9439 0.3303 -0.3303 -0.9439 -642.5352 1199.4629)" fill="#107139" cx="-423.178" cy="545.14" rx="2.427" ry="1.12"/>
	
		<ellipse transform="matrix(-0.9442 0.3293 -0.3293 -0.9442 -869.1324 1304.3496)" fill="#107139" cx="-545.041" cy="578.562" rx="2.636" ry="1.215"/>
	
		<ellipse transform="matrix(-0.9439 0.3303 -0.3303 -0.9439 -932.4766 1284.4248)" fill="#107139" cx="-575.372" cy="562.982" rx="2.637" ry="1.218"/>
	<path fill="#107139" d="M-467.446,647.789c0,0-29.824,5.729-67.332-6.696c-37.506-12.428-47.965-24.163-55.477-32.787
		c-7.958-9.136-30.518-28.802-27.237-25.415c2.421,2.498,10.071,19.118,22.801,30.646
		C-578.566,628.138-520.549,670.043-467.446,647.789z"/>
	
		<radialGradient id="SVGID_5_" cx="-493.8052" cy="709.4297" r="47.7621" gradientTransform="matrix(0.9902 0.1396 -0.1396 0.9902 81.5011 20.3359)" gradientUnits="userSpaceOnUse">
		<stop  offset="0" style="stop-color:#DCCE80"/>
		<stop  offset="1" style="stop-color:#D7B928"/>
	</radialGradient>
	<path fill="url(#SVGID_5_)" d="M-570.53,632.354c0,0,46.074,36.087,87.689,36.766c24.654,0.4,42.449-8.56,42.449-8.56
		s-15.07-20.629-40.333-8.33c-17.32,4.697-25.961,1.104-39.144-1.02C-533.053,649.086-570.53,632.354-570.53,632.354z"/>
	
		<radialGradient id="SVGID_6_" cx="-411.9878" cy="634.7578" r="20.1618" gradientTransform="matrix(0.9902 0.1396 -0.1396 0.9902 81.5011 20.3359)" gradientUnits="userSpaceOnUse">
		<stop  offset="0" style="stop-color:#FFFFFF"/>
		<stop  offset="1" style="stop-color:#E6E7E8"/>
	</radialGradient>
	<path fill="url(#SVGID_6_)" d="M-397.931,593.773c-1.748,12.393-10.835,21.359-20.298,20.024
		c-9.46-1.334-15.716-12.466-13.969-24.856c1.748-12.396,10.838-21.358,20.298-20.024
		C-402.438,570.251-396.184,581.379-397.931,593.773z"/>
	
		<ellipse transform="matrix(-0.9902 -0.1396 0.1396 -0.9902 -905.7688 1135.2949)" cx="-413.062" cy="599.418" rx="8.53" ry="13.162"/>
	<circle fill="#FFFFFF" cx="-410.497" cy="605.605" r="2.924"/>
	
		<radialGradient id="SVGID_7_" cx="-486.0669" cy="634.7559" r="20.161" gradientTransform="matrix(0.9902 0.1396 -0.1396 0.9902 81.5011 20.3359)" gradientUnits="userSpaceOnUse">
		<stop  offset="0" style="stop-color:#FFFFFF"/>
		<stop  offset="1" style="stop-color:#E6E7E8"/>
	</radialGradient>
	<path fill="url(#SVGID_7_)" d="M-471.288,583.43c-1.747,12.395-10.835,21.361-20.297,20.027
		c-9.463-1.334-15.714-12.467-13.966-24.858c1.748-12.395,10.832-21.358,20.295-20.023
		C-475.794,559.907-469.541,571.034-471.288,583.43z"/>
	
		<ellipse transform="matrix(-0.9902 -0.1396 0.1396 -0.9902 -1050.3577 1101.9816)" cx="-486.542" cy="587.817" rx="8.53" ry="13.159"/>
	<circle fill="#FFFFFF" cx="-484.365" cy="593.957" r="2.924"/>
	<path fill="#107139" d="M-556.397,595.513c13.033-0.628,25.308,8.499,13.917,10.594c-11.391,2.093-14.707,5.938-24.579,12.561
		c-8.853,5.938-9.965,2.91-16.528,1.369c-6.563-1.543-21.344-12.565-6.854-19.152C-575.951,594.295-556.397,595.513-556.397,595.513
		z"/>
	
		<radialGradient id="SVGID_8_" cx="-575.8716" cy="666.3525" r="66.6676" gradientTransform="matrix(0.9902 0.1396 -0.1396 0.9902 81.5011 20.3359)" gradientUnits="userSpaceOnUse">
		<stop  offset="8.370500e-04" style="stop-color:#AEC99D"/>
		<stop  offset="0.4059" style="stop-color:#31B457"/>
		<stop  offset="0.9702" style="stop-color:#008042"/>
	</radialGradient>
	<path fill="url(#SVGID_8_)" d="M-543.364,594.885c-13.653-8.09-21.255-11.011-45.244-6.997
		c-23.99,4.016-27.028,23.195-7.717,28.501s29.158-10.064,39.169-11.121C-539.542,603.413-537.24,598.512-543.364,594.885z"/>
	<path fill="none" stroke="#006028" stroke-width="1.4417" stroke-miterlimit="10" d="M-557.784,592.234
		c0,0-21.069-3.588-39.781,6.719"/>
	<path fill="none" stroke="#006028" stroke-width="1.4417" stroke-miterlimit="10" d="M-556.397,595.513
		c0,0-21.138,5.648-33.118,16.288"/>
	<path fill="#F9ED32" d="M-443.378,609.291c-8.841-1.004-29.181,21.158-7.636,25.737
		C-429.469,639.607-420.93,611.84-443.378,609.291z"/>
	<path fill="#A13422" d="M-441.724,617.229c-7.935-0.909-21.13,9.968-8.694,13.568C-437.981,634.4-429.896,618.589-441.724,617.229z
		"/>
	<path fill="#F1B937" d="M-436.021,620.5c0,0-1.689-3.32-5.703-3.271c-4.013,0.053-10.957,3.388-13.323,7.062
		C-448.679,614.092-436.3,609.364-436.021,620.5z"/>
	<path fill="#F1B937" d="M-455.323,615.312c0,0-9.864,10.938-2.905,16.231c6.958,5.297,21.929,1.86,21.929,1.86
		s-14.463,8.965-23.998-0.304C-467.345,626.253-455.323,615.312-455.323,615.312z"/>
	<path fill="#107139" d="M-452.951,637.837c0,0-13.433-5.283-8.792-16.342C-467.302,625.951-463.528,636.346-452.951,637.837z"/>
	
		<radialGradient id="SVGID_9_" cx="-484.979" cy="595.1514" r="36.0111" gradientTransform="matrix(0.9902 0.1396 -0.1396 0.9902 81.5011 20.3359)" gradientUnits="userSpaceOnUse">
		<stop  offset="8.370500e-04" style="stop-color:#AEC99D"/>
		<stop  offset="0.4059" style="stop-color:#31B457"/>
		<stop  offset="0.7261" style="stop-color:#008544"/>
		<stop  offset="1" style="stop-color:#006A30"/>
	</radialGradient>
	<path fill="url(#SVGID_9_)" d="M-477.253,541.332c-15.71-0.059-29.169,3.592-37.844,27.949
		C-500.034,545.518-477.253,541.332-477.253,541.332z"/>
	
		<radialGradient id="SVGID_10_" cx="-397.8892" cy="598.0566" r="24.1802" gradientTransform="matrix(0.9902 0.1396 -0.1396 0.9902 81.5011 20.3359)" gradientUnits="userSpaceOnUse">
		<stop  offset="8.370500e-04" style="stop-color:#AEC99D"/>
		<stop  offset="0.4059" style="stop-color:#31B457"/>
		<stop  offset="0.7261" style="stop-color:#008544"/>
		<stop  offset="1" style="stop-color:#006A30"/>
	</radialGradient>
	<path fill="url(#SVGID_10_)" d="M-420.129,553.701c0,0,13.602,4.076,24.861,24.771
		C-398.662,563.201-410.769,550.707-420.129,553.701z"/>
	
		<radialGradient id="SVGID_11_" cx="-493.063" cy="644.8623" r="0" gradientTransform="matrix(0.9902 0.1396 -0.1396 0.9902 81.5011 20.3359)" gradientUnits="userSpaceOnUse">
		<stop  offset="8.370500e-04" style="stop-color:#AEC99D"/>
		<stop  offset="0.4059" style="stop-color:#31B457"/>
		<stop  offset="0.7261" style="stop-color:#008544"/>
		<stop  offset="1" style="stop-color:#006A30"/>
	</radialGradient>
	<path fill="url(#SVGID_11_)" d="M-496.76,590.053"/>
	<path fill="#EF4136" d="M824.006,1062.291c0,0-42.114-49.439-23.804-162.964c18.31-113.524,120.849-269.162,287.474-292.966
		c-75.073,29.296-214.23,111.691-254.516,252.684s14.646,203.246,14.646,203.246H824.006z"/>
	<path fill="#F7941E" d="M832.551,1063.512c0,0-42.111-49.438-23.804-162.964c18.311-113.522,120.849-269.162,287.474-292.966
		c-75.07,29.296-214.229,111.693-254.515,252.684c-40.284,140.991,14.646,203.246,14.646,203.246H832.551L832.551,1063.512z"/>
	<path fill="#EF4136" d="M924.713,1060.46c0,0-60.425-104.37-5.493-247.19c54.934-142.82,102.539-181.271,190.431-201.413
		c-42.113,25.634-131.836,82.396-170.287,208.737c-38.453,126.342,10.984,239.866,10.984,239.866H924.713L924.713,1060.46z"/>
	<path fill="#F7941E" d="M932.038,1062.901c0,0-60.426-104.37-5.494-247.191c54.933-142.821,102.539-181.271,190.429-201.414
		c-42.111,25.634-131.836,82.397-170.287,208.739c-38.449,126.341,10.986,239.866,10.986,239.866H932.038z"/>
	<path fill="#EF4136" d="M1076.691,1063.52c0,0-42.116-52.496-38.454-162.359c3.398-101.989,47.606-258.176,106.2-294.797
		c-27.467,47.605-71.41,183.104-80.565,305.784c-6.682,89.547,36.52,150.669,36.52,150.669L1076.691,1063.52z"/>
	<path fill="#F7941E" d="M1086.354,1060.373c0,0-42.114-52.497-38.451-162.36c3.397-101.987,47.605-258.176,106.199-294.798
		c-27.467,47.607-71.41,183.104-80.564,305.784c-6.684,89.547,40.284,155.036,40.284,155.036L1086.354,1060.373z"/>
	<path fill="#EF4136" d="M1178.007,611.854c0,0,170.289,140.99,139.161,340.573c-13.962,89.515-45.776,111.693-45.776,111.693
		l38.451-1.83c0,0,16.479-25.635,27.465-106.201C1359.84,790.842,1254.91,639.32,1178.007,611.854z"/>
	<path fill="#F7941E" d="M1168.241,611.854c0,0,170.288,140.99,139.16,340.573c-13.962,89.515-45.776,111.693-45.776,111.693
		l38.452-1.83c0,0,16.479-25.635,27.464-106.201C1350.074,790.842,1245.145,639.32,1168.241,611.854z"/>
	<path fill="#EF4136" d="M1274.442,628.334c0,0,170.823,76.322,175.778,239.866c3.662,120.85-29.297,159.3-49.438,195.921
		c31.127,0,36.62,1.831,36.62,1.831s40.28-104.368,29.297-199.583C1455.717,771.155,1380.645,659.462,1274.442,628.334z"/>
	<path fill="#F7941E" d="M1265.896,628.334c0,0,170.823,76.322,175.779,239.866c3.662,120.85-29.297,159.3-49.438,195.921
		c31.127,0,36.62,1.831,36.62,1.831s40.281-104.368,29.297-199.583C1447.171,771.155,1372.098,659.462,1265.896,628.334z"/>
	<path fill="#EF4136" d="M1405.58,678.276c0,0,133.672,156.268,124.517,258.806c-9.155,102.539-53.101,135.497-53.101,135.497
		l27.466-3.661c0,0,34.952-29.424,43.944-137.329C1555.73,843.699,1449.525,707.573,1405.58,678.276z"/>
	<path fill="#F7941E" d="M1405.58,678.276c0,0,123.906,152.604,114.75,255.144c-9.155,102.539-53.1,135.497-53.1,135.497
		l27.465-3.661c0,0,34.953-29.424,43.943-137.329C1545.965,840.037,1449.525,707.573,1405.58,678.276z"/>
	
		<radialGradient id="SVGID_12_" cx="990.5947" cy="373.0518" r="59.6308" gradientTransform="matrix(1 0 0 1 0 169)" gradientUnits="userSpaceOnUse">
		<stop  offset="8.370500e-04" style="stop-color:#F6E39D"/>
		<stop  offset="0.4059" style="stop-color:#FFE72A"/>
		<stop  offset="0.7261" style="stop-color:#F6D933"/>
		<stop  offset="1" style="stop-color:#F8BE15"/>
	</radialGradient>
	<polygon fill="url(#SVGID_12_)" points="1028.367,616.018 964.887,473.188 1010.056,624.562 	"/>
	
		<radialGradient id="SVGID_13_" cx="1097.8701" cy="362.7305" r="55.3048" gradientTransform="matrix(1 0 0 1 0 169)" gradientUnits="userSpaceOnUse">
		<stop  offset="8.370500e-04" style="stop-color:#F6E39D"/>
		<stop  offset="0.4059" style="stop-color:#FFE72A"/>
		<stop  offset="0.7261" style="stop-color:#F6D933"/>
		<stop  offset="1" style="stop-color:#F8BE15"/>
	</radialGradient>
	<polygon fill="url(#SVGID_13_)" points="1117.482,611.135 1084.521,463.423 1097.949,613.576 	"/>
	
		<radialGradient id="SVGID_14_" cx="1203.5205" cy="374.4932" r="53.0231" gradientTransform="matrix(1 0 0 1 0 169)" gradientUnits="userSpaceOnUse">
		<stop  offset="8.370500e-04" style="stop-color:#F6E39D"/>
		<stop  offset="0.4059" style="stop-color:#FFE72A"/>
		<stop  offset="0.7261" style="stop-color:#F6D933"/>
		<stop  offset="1" style="stop-color:#F8BE15"/>
	</radialGradient>
	<polygon fill="url(#SVGID_14_)" points="1215.143,620.9 1207.818,476.852 1195.61,623.342 	"/>
	
		<radialGradient id="SVGID_15_" cx="1294.6748" cy="376.4941" r="57.7711" gradientTransform="matrix(1 0 0 1 0 169)" gradientUnits="userSpaceOnUse">
		<stop  offset="8.370500e-04" style="stop-color:#F6E39D"/>
		<stop  offset="0.4059" style="stop-color:#FFE72A"/>
		<stop  offset="0.7261" style="stop-color:#F6D933"/>
		<stop  offset="1" style="stop-color:#F8BE15"/>
	</radialGradient>
	<polygon fill="url(#SVGID_15_)" points="1299.375,628.225 1316.465,474.41 1279.843,630.667 	"/>
	
		<radialGradient id="SVGID_16_" cx="1395.8564" cy="431.418" r="51.493" gradientTransform="matrix(1 0 0 1 0 169)" gradientUnits="userSpaceOnUse">
		<stop  offset="8.370500e-04" style="stop-color:#F6E39D"/>
		<stop  offset="0.4059" style="stop-color:#FFE72A"/>
		<stop  offset="0.7261" style="stop-color:#F6D933"/>
		<stop  offset="1" style="stop-color:#F8BE15"/>
	</radialGradient>
	<polygon fill="url(#SVGID_16_)" points="1389.711,670.951 1429.996,541.551 1372.62,661.186 	"/>
	
		<radialGradient id="SVGID_17_" cx="1478.1729" cy="503.1016" r="46.7827" gradientTransform="matrix(1 0 0 1 0 169)" gradientUnits="userSpaceOnUse">
		<stop  offset="8.370500e-04" style="stop-color:#F6E39D"/>
		<stop  offset="0.4059" style="stop-color:#FFE72A"/>
		<stop  offset="0.7261" style="stop-color:#F6D933"/>
		<stop  offset="1" style="stop-color:#F8BE15"/>
	</radialGradient>
	<polygon fill="url(#SVGID_17_)" points="1469.061,731.989 1516.67,622.121 1451.97,722.224 	"/>
	
		<radialGradient id="SVGID_18_" cx="1553.2539" cy="586.1094" r="49.4046" gradientTransform="matrix(1 0 0 1 0 169)" gradientUnits="userSpaceOnUse">
		<stop  offset="8.370500e-04" style="stop-color:#F6E39D"/>
		<stop  offset="0.4059" style="stop-color:#FFE72A"/>
		<stop  offset="0.7261" style="stop-color:#F6D933"/>
		<stop  offset="1" style="stop-color:#F8BE15"/>
	</radialGradient>
	<polygon fill="url(#SVGID_18_)" points="1533.76,807.677 1607.006,711.236 1516.67,797.91 	"/>
	
		<radialGradient id="SVGID_19_" cx="1610.3789" cy="679.3174" r="58.0357" gradientTransform="matrix(1 0 0 1 0 169)" gradientUnits="userSpaceOnUse">
		<stop  offset="8.370500e-04" style="stop-color:#F6E39D"/>
		<stop  offset="0.4059" style="stop-color:#FFE72A"/>
		<stop  offset="0.7261" style="stop-color:#F6D933"/>
		<stop  offset="1" style="stop-color:#F8BE15"/>
	</radialGradient>
	<polygon fill="url(#SVGID_19_)" points="1558.176,880.922 1692.459,821.104 1554.513,865.052 	"/>
	
		<radialGradient id="SVGID_20_" cx="1616.0186" cy="761.8672" r="56.1339" gradientTransform="matrix(1 0 0 1 0 169)" gradientUnits="userSpaceOnUse">
		<stop  offset="8.370500e-04" style="stop-color:#F6E39D"/>
		<stop  offset="0.4059" style="stop-color:#FFE72A"/>
		<stop  offset="0.7261" style="stop-color:#F6D933"/>
		<stop  offset="1" style="stop-color:#F8BE15"/>
	</radialGradient>
	<polygon fill="url(#SVGID_20_)" points="1561.838,939.518 1701.004,923.648 1558.176,923.648 	"/>
	
		<radialGradient id="SVGID_21_" cx="1601.167" cy="833.3418" r="60.0357" gradientTransform="matrix(1 0 0 1 0 169)" gradientUnits="userSpaceOnUse">
		<stop  offset="8.370500e-04" style="stop-color:#F6E39D"/>
		<stop  offset="0.4059" style="stop-color:#FFE72A"/>
		<stop  offset="0.7261" style="stop-color:#F6D933"/>
		<stop  offset="1" style="stop-color:#F8BE15"/>
	</radialGradient>
	<polygon fill="url(#SVGID_21_)" points="1543.526,1005.439 1691.238,1017.646 1539.863,989.569 	"/>
	
		<radialGradient id="SVGID_22_" cx="861.9023" cy="432.418" r="63.8568" gradientTransform="matrix(1 0 0 1 0 169)" gradientUnits="userSpaceOnUse">
		<stop  offset="8.370500e-04" style="stop-color:#F6E39D"/>
		<stop  offset="0.4059" style="stop-color:#FFE72A"/>
		<stop  offset="0.7261" style="stop-color:#F6D933"/>
		<stop  offset="1" style="stop-color:#F8BE15"/>
	</radialGradient>
	<path fill="url(#SVGID_22_)" d="M925.823,662.406L818.396,540.33l95.219,134.283C913.615,674.613,922.161,663.627,925.823,662.406z
		"/>
	
		<radialGradient id="SVGID_23_" cx="775.3496" cy="507.0996" r="66.2038" gradientTransform="matrix(1 0 0 1 0 169)" gradientUnits="userSpaceOnUse">
		<stop  offset="8.370500e-04" style="stop-color:#F6E39D"/>
		<stop  offset="0.4059" style="stop-color:#FFE72A"/>
		<stop  offset="0.7261" style="stop-color:#F6D933"/>
		<stop  offset="1" style="stop-color:#F8BE15"/>
	</radialGradient>
	<path fill="url(#SVGID_23_)" d="M853.799,727.106L721.957,623.342l119.634,115.975
		C841.591,739.314,850.136,728.327,853.799,727.106z"/>
	
		<radialGradient id="SVGID_24_" cx="706.1201" cy="597.7607" r="69.1392" gradientTransform="matrix(1 0 0 1 0 169)" gradientUnits="userSpaceOnUse">
		<stop  offset="8.370500e-04" style="stop-color:#F6E39D"/>
		<stop  offset="0.4059" style="stop-color:#FFE72A"/>
		<stop  offset="0.7261" style="stop-color:#F6D933"/>
		<stop  offset="1" style="stop-color:#F8BE15"/>
	</radialGradient>
	<path fill="url(#SVGID_24_)" d="M797.644,806.455L643.83,723.444l141.605,95.219C785.436,818.663,793.981,807.677,797.644,806.455z
		"/>
	
		<radialGradient id="SVGID_25_" cx="676.5293" cy="737.7891" r="56.87" gradientTransform="matrix(1 0 0 1 0 169)" gradientUnits="userSpaceOnUse">
		<stop  offset="8.370500e-04" style="stop-color:#F6E39D"/>
		<stop  offset="0.4059" style="stop-color:#FFE72A"/>
		<stop  offset="0.7261" style="stop-color:#F6D933"/>
		<stop  offset="1" style="stop-color:#F8BE15"/>
	</radialGradient>
	<path fill="url(#SVGID_25_)" d="M762.241,902.896l-144.049-6.104l144.049,21.974C762.241,918.766,758.579,904.116,762.241,902.896z
		"/>
	
		<radialGradient id="SVGID_26_" cx="693.0142" cy="839.0059" r="55.0743" gradientTransform="matrix(1 0 0 1 0 169)" gradientUnits="userSpaceOnUse">
		<stop  offset="8.370500e-04" style="stop-color:#F6E39D"/>
		<stop  offset="0.4059" style="stop-color:#FFE72A"/>
		<stop  offset="0.7261" style="stop-color:#F6D933"/>
		<stop  offset="1" style="stop-color:#F8BE15"/>
	</radialGradient>
	<path fill="url(#SVGID_26_)" d="M769.566,990.79l-131.844,37.844l133.062-21.974C770.787,1006.66,779.332,995.673,769.566,990.79z"
		/>
	
		<linearGradient id="SVGID_27_" gradientUnits="userSpaceOnUse" x1="832.5508" y1="706.8672" x2="1571.6064" y2="706.8672" gradientTransform="matrix(1 0 0 1 0 169)">
		<stop  offset="0" style="stop-color:#FFFFFF"/>
		<stop  offset="1" style="stop-color:#651819"/>
	</linearGradient>
	<path opacity="0.4" fill="url(#SVGID_27_)" enable-background="new    " d="M832.551,1063.512c0,0,226.335-15.346,306.904-44.645
		c80.57-29.298,92.778-183.113,217.295-197.764c124.518-14.648,57.376-120.854,32.961-150.152
		c102.543,51.271,181.361,149.641,181.893,245.373c0.436,78.165-48.828,151.373-48.828,151.373s-141.607,17.091-319.84,12.208
		C1024.704,1075.021,832.551,1063.512,832.551,1063.512z"/>
	<path fill="#FBB040" d="M783.723,992.711l-155.639,12.816l142.822-34.789C770.906,970.738,792.878,963.413,783.723,992.711z"/>
	<polygon fill="#FBB040" points="778.23,919.469 633.578,859.044 787.385,902.989 	"/>
	<polygon fill="#FBB040" points="805.695,833.41 708.65,751.013 813.02,816.93 	"/>
	<polygon fill="#FBB040" points="853.303,738.195 765.413,641.15 866.12,723.547 	"/>
	<polygon fill="#FBB040" points="939.362,659.461 860.627,544.104 954.01,655.798 	"/>
	<polygon fill="#FBB040" points="1028.367,616.018 1005.279,507.482 1047.394,615.516 	"/>
	<polygon fill="#FBB040" points="1508.816,776.646 1574.734,705.236 1517.972,793.126 	"/>
	<polygon fill="#FBB040" points="1543.605,859.044 1646.145,811.438 1541.775,873.692 	"/>
	<polygon fill="#FBB040" points="1561.916,959.751 1690.09,968.907 1567.41,943.271 	"/>
	<polygon fill="#FBB040" points="904.572,769.322 818.514,672.277 922.883,754.675 	"/>
	<polygon fill="#FBB040" points="873.444,833.41 769.075,745.52 886.262,805.944 	"/>
	<polygon fill="#FBB040" points="866.12,892.003 741.609,848.058 855.134,912.145 	"/>
	<polygon fill="#FBB040" points="855.134,957.92 739.778,957.92 860.627,976.231 	"/>
	<polygon fill="#FBB040" points="860.627,1016.514 754.427,1051.303 873.444,1034.824 	"/>
	<polygon fill="#FBB040" points="964.997,697.912 886.262,542.273 985.139,686.926 	"/>
	<polygon fill="#FBB040" points="1034.576,631.994 997.955,483.68 1051.056,622.839 	"/>
	<polygon fill="#FBB040" points="1347.686,652.136 1406.278,527.625 1369.658,666.785 	"/>
	<polygon fill="#FBB040" points="1411.771,714.393 1494.168,586.219 1430.082,729.04 	"/>
	<polygon fill="#FBB040" points="1463.041,787.634 1561.916,686.926 1472.195,813.268 	"/>
	<polygon fill="#FBB040" points="1490.507,855.383 1668.117,822.423 1492.338,879.186 	"/>
	<polygon fill="#FBB040" points="1505.154,932.287 1679.104,948.766 1503.323,950.597 	"/>
	<polygon fill="#FBB040" points="1494.168,1020.177 1662.624,1038.486 1495.999,1003.696 	"/>
	<polygon fill="#FBB040" points="985.139,1018.346 840.485,1007.358 985.139,1001.865 	"/>
	<polygon fill="#FBB040" points="977.812,956.089 825.837,926.793 983.307,928.624 	"/>
	<polygon fill="#FBB040" points="979.645,888.341 842.316,838.902 985.139,864.537 	"/>
	<polygon fill="#FBB040" points="999.786,811.438 888.093,743.688 1003.448,789.464 	"/>
	<polygon fill="#FBB040" points="1018.097,745.52 925.823,662.406 1032.745,723.547 	"/>
	<polygon fill="#FBB040" points="1063.872,675.939 964.997,575.23 1049.225,690.589 	"/>
	<polygon fill="#FBB040" points="1089.507,642.981 1054.718,487.342 1104.156,630.163 	"/>
	<polygon fill="#FBB040" points="1246.979,642.98 1289.092,514.809 1270.781,655.798 	"/>
	<polygon fill="#FBB040" points="1298.247,686.926 1362.333,533.118 1320.22,697.912 	"/>
	<polygon fill="#FBB040" points="1349.516,727.209 1450.223,610.022 1364.164,749.182 	"/>
	<polygon fill="#FBB040" points="1380.645,785.803 1521.634,675.939 1395.293,804.113 	"/>
	<polygon fill="#FBB040" points="1402.615,842.564 1574.734,818.761 1411.771,866.368 	"/>
	<polygon fill="#FBB040" points="1409.939,923.131 1558.176,923.648 1408.109,901.158 	"/>
	<polygon fill="#FBB040" points="1411.771,998.204 1561.916,1009.189 1417.265,974.4 	"/>
	<polygon fill="#FBB040" points="1384.306,1047.643 1504.462,1068.918 1395.293,1022.008 	"/>
	<polygon fill="#FBB040" points="1201.201,675.939 1228.666,615.516 1221.343,699.743 	"/>
	<polygon fill="#FBB040" points="1129.791,703.405 1089.507,624.67 1142.607,675.939 	"/>
	<polygon fill="#FBB040" points="1122.467,763.829 1052.887,732.702 1124.297,804.113 	"/>
	<polygon fill="#FBB040" points="1228.666,756.506 1234.16,796.788 1318.389,732.702 	"/>
	<polygon fill="#FBB040" points="1104.156,868.199 1001.617,860.875 1095,897.496 	"/>
	<polygon fill="#FBB040" points="1107.818,954.258 997.955,965.244 1109.649,981.724 	"/>
	<polygon fill="#FBB040" points="1122.467,1022.008 1133.452,1045.811 1032.745,1069.614 	"/>
	<polygon fill="#FBB040" points="1259.794,853.551 1265.287,884.68 1376.98,842.564 	"/>
	<polygon fill="#FBB040" points="1278.104,921.3 1276.273,950.597 1408.109,956.089 	"/>
	<polygon fill="#FBB040" points="1276.273,1001.865 1261.625,1029.331 1382.475,1067.783 	"/>
	<path fill="#FBB040" d="M1162.749,714.393l7.324-51.27l12.815,54.93C1182.891,718.053,1164.58,723.548,1162.749,714.393z"/>
	<polygon fill="#FBB040" points="1164.58,804.113 1177.398,765.66 1188.384,807.775 	"/>
	<path fill="#FBB040" d="M1179.229,853.551c-14.322,4.775-12.816,42.114,1.83,40.283
		C1195.708,892.003,1195.709,848.059,1179.229,853.551z"/>
	<polygon fill="#FBB040" points="1166.411,946.935 1182.891,1001.865 1197.539,946.935 	"/>
	<polygon fill="#FBB040" points="1175.566,1031.162 1186.553,1097.079 1193.877,1032.993 	"/>
</g>
<g id="PABLO">
	
		<radialGradient id="SVGID_28_" cx="271.5635" cy="133.8887" r="187.7021" gradientTransform="matrix(0.9992 -0.0402 0.0402 0.9992 -11.7289 237.0536)" gradientUnits="userSpaceOnUse">
		<stop  offset="8.370500e-04" style="stop-color:#AEC99D"/>
		<stop  offset="0.4059" style="stop-color:#31B457"/>
		<stop  offset="0.7261" style="stop-color:#008544"/>
		<stop  offset="1" style="stop-color:#006A30"/>
	</radialGradient>
	<path fill="url(#SVGID_28_)" d="M309.495,426.285c0.787-0.033,22.401-11.548,27.715-55.917
		c3.32-27.717-14.273-41.219-27.815-54.476c-13.544-13.25-42.926-18.381-76.227-13.095c-33.299,5.279-73.684,19.217-95.695,35.729
		c-18.753,14.069-25.882,29.818-37.114-0.959c-2.755-7.55-13.305-18.462-22.544-19.623c14.895,12.271,19.403,32.925,8.586,38.262
		c18.029,21.644,4.057,32.316-9.171,31.011c12.974,10.203,27.812-9.392,42.341,9.021c18.664,23.65,93.773,50.858,116.258,51.142
		C258.313,447.66,309.495,426.285,309.495,426.285z"/>
	<path fill="#107139" d="M245.042,398.854c0,0-8.513,9.736,1.55,12.401c5.855,1.548,16.362-2.758,23.939-4.997
		c7.578-2.235,27.384-3.615,33.584-0.858c-4.994-5.854-12.573-8.612-22.389-9.988C271.909,394.032,256.236,393.688,245.042,398.854z
		"/>
	<path fill="#D8E040" d="M317.25,419.794c-4.643,2.158-21.777-12.134-55.374,5.381c-39.373,20.525-65.5,6.022-96.093,0.152
		c39.725,20.158,78.152,24.993,95.403,22.607C301.09,442.416,317.25,419.794,317.25,419.794z"/>
	<path fill="#107139" d="M267.504,307.965c0.582,1.872-2.235,4.4-6.287,5.658c-4.054,1.254-7.81,0.755-8.389-1.115
		c-0.578-1.872,2.237-4.404,6.29-5.655C263.171,305.596,266.927,306.094,267.504,307.965z"/>
	<path fill="#107139" d="M233.138,306.938c0.28,0.904-1.079,2.126-3.032,2.731c-1.957,0.605-3.768,0.365-4.047-0.537
		c-0.279-0.905,1.08-2.125,3.033-2.728C231.047,305.797,232.858,306.039,233.138,306.938z"/>
	
		<ellipse transform="matrix(-0.9553 0.2956 -0.2956 -0.9553 525.2157 535.2202)" fill="#107139" cx="222.15" cy="307.312" rx="5.08" ry="2.342"/>
	
		<ellipse transform="matrix(-0.9552 0.2958 -0.2958 -0.9552 451.2892 577.3368)" fill="#107139" cx="181.972" cy="322.806" rx="5.08" ry="2.343"/>
	
		<ellipse transform="matrix(-0.8696 0.4937 -0.4937 -0.8696 535.1494 505.8567)" fill="#107139" cx="200.781" cy="323.59" rx="3.833" ry="1.769"/>
	
		<ellipse transform="matrix(-0.8695 0.4939 -0.4939 -0.8695 470.6707 562.0156)" fill="#107139" cx="161.097" cy="343.18" rx="3.833" ry="1.768"/>
	<path fill="#107139" d="M184.452,342.031c0.332,0.586-0.429,1.645-1.699,2.366c-1.27,0.724-2.57,0.83-2.9,0.249
		c-0.334-0.59,0.425-1.65,1.694-2.372C182.818,341.554,184.12,341.445,184.452,342.031z"/>
	<path fill="#107139" d="M296.354,311.33c0.308,0.539-0.393,1.515-1.562,2.18c-1.169,0.664-2.365,0.766-2.671,0.228
		c-0.305-0.542,0.395-1.52,1.562-2.182C294.854,310.893,296.049,310.79,296.354,311.33z"/>
	<path fill="#107139" d="M182.29,366.087c0.333,0.585-0.427,1.646-1.698,2.366c-1.268,0.722-2.569,0.835-2.901,0.244
		c-0.333-0.585,0.427-1.646,1.697-2.367C180.658,365.61,181.957,365.5,182.29,366.087z"/>
	
		<ellipse transform="matrix(-0.8692 0.4944 -0.4944 -0.8692 452.0272 595.207)" fill="#107139" cx="147.298" cy="357.384" rx="2.646" ry="1.221"/>
	<path fill="#107139" d="M269.062,421.764c0,0-28.404,11.021-67.656,5.504c-39.252-5.52-51.685-15.222-60.65-22.382
		c-9.498-7.584-35.301-22.935-31.453-20.184c2.839,2.029,13.378,17.058,28.016,26.145
		C155.859,422.355,220.655,453.279,269.062,421.764z"/>
	
		<radialGradient id="SVGID_29_" cx="235.1865" cy="207.3726" r="47.9137" gradientTransform="matrix(0.9992 -0.0402 0.0402 0.9992 -11.7289 237.0536)" gradientUnits="userSpaceOnUse">
		<stop  offset="0" style="stop-color:#DCCE80"/>
		<stop  offset="1" style="stop-color:#D7B928"/>
	</radialGradient>
	<path fill="url(#SVGID_29_)" d="M164.548,425.071c0,0,51.962,27.326,93.156,20.51c24.404-4.036,40.355-16.08,40.355-16.08
		s-18.583-17.646-41.304-0.968c-16.249,7.753-25.424,5.761-38.816,6.035C204.545,434.845,164.548,425.071,164.548,425.071z"/>
	
		<radialGradient id="SVGID_30_" cx="317.2651" cy="132.4541" r="20.2266" gradientTransform="matrix(0.9992 -0.0402 0.0402 0.9992 -11.7289 237.0536)" gradientUnits="userSpaceOnUse">
		<stop  offset="0" style="stop-color:#FFFFFF"/>
		<stop  offset="1" style="stop-color:#E6E7E8"/>
	</radialGradient>
	<path fill="url(#SVGID_30_)" d="M327.952,355.949c0.503,12.545-6.853,23.032-16.43,23.416c-9.58,0.386-17.754-9.477-18.259-22.02
		c-0.504-12.548,6.854-23.029,16.431-23.415C319.274,333.545,327.448,343.402,327.952,355.949z"/>
	<ellipse transform="matrix(-0.9992 0.0402 -0.0402 -0.9992 640.891 696.7557)" cx="313.44" cy="354.822" rx="8.557" ry="13.203"/>
	<path fill="#FFFFFF" d="M319.85,353.361c0.109,2.701-1.984,4.974-4.688,5.084c-2.696,0.108-4.971-1.989-5.081-4.691
		c-0.108-2.697,1.992-4.973,4.688-5.081C317.468,348.564,319.743,350.662,319.85,353.361z"/>
	
		<radialGradient id="SVGID_31_" cx="242.9482" cy="132.4536" r="20.2261" gradientTransform="matrix(0.9992 -0.0402 0.0402 0.9992 -11.7289 237.0536)" gradientUnits="userSpaceOnUse">
		<stop  offset="0" style="stop-color:#FFFFFF"/>
		<stop  offset="1" style="stop-color:#E6E7E8"/>
	</radialGradient>
	<path fill="url(#SVGID_31_)" d="M253.693,358.937c0.505,12.544-6.853,23.031-16.429,23.416
		c-9.579,0.386-17.751-9.477-18.256-22.022c-0.504-12.546,6.85-23.028,16.428-23.414
		C245.015,336.532,253.188,346.389,253.693,358.937z"/>
	<path d="M248.481,354.814c0.293,7.287-3.296,13.346-8.02,13.535c-4.721,0.191-8.787-5.559-9.081-12.848
		c-0.292-7.282,3.298-13.341,8.021-13.53C244.123,341.781,248.188,347.532,248.481,354.814z"/>
	<path fill="#FFFFFF" d="M247.016,351.387c0.108,2.711-1.995,4.991-4.703,5.097c-2.708,0.11-4.99-1.991-5.1-4.702
		c-0.108-2.709,1.999-4.991,4.706-5.1C244.626,346.574,246.907,348.679,247.016,351.387z"/>
	<path fill="#107139" d="M204.424,369.576c-12.742,4.354-21.231,17.557-9.538,15.197c11.693-2.361,20.719-2.843,32.588-0.386
		c10.646,2.203,17.849-3.988,23.595-7.923c5.744-3.933,4.276-14.1-12.017-14.773C222.761,361.02,204.424,369.576,204.424,369.576z"
		/>
	<g>
		
			<radialGradient id="SVGID_32_" cx="1746.5586" cy="-291.2388" r="66.8819" gradientTransform="matrix(-0.9376 0.5533 0.5082 0.8612 2017.0446 -351.3673)" gradientUnits="userSpaceOnUse">
			<stop  offset="8.370500e-04" style="stop-color:#AEC99D"/>
			<stop  offset="0.4059" style="stop-color:#31B457"/>
			<stop  offset="0.9702" style="stop-color:#008042"/>
		</radialGradient>
		<path fill="url(#SVGID_32_)" d="M191.149,376.12c10.665-13.406,17.195-19.392,42.747-25.938
			c25.551-6.548,35.762,10.045,18.383,23.28c-17.38,13.233-32.993,3.117-43.424,6.43
			C190.503,385.717,186.364,382.133,191.149,376.12z"/>
		<path fill="none" stroke="#006028" stroke-width="1.5091" stroke-miterlimit="10" d="M204.617,367.461
			c0,0,19.783-12.386,42.394-10.799"/>
		<path fill="none" stroke="#006028" stroke-width="1.5091" stroke-miterlimit="10" d="M204.45,371.115
			c0,0,23.303-3.799,39.288,0.988"/>
	</g>
	
		<radialGradient id="SVGID_33_" cx="244.0391" cy="92.7217" r="36.1307" gradientTransform="matrix(0.9992 -0.0402 0.0402 0.9992 -11.7289 237.0536)" gradientUnits="userSpaceOnUse">
		<stop  offset="8.370500e-04" style="stop-color:#AEC99D"/>
		<stop  offset="0.4059" style="stop-color:#31B457"/>
		<stop  offset="0.7261" style="stop-color:#008544"/>
		<stop  offset="1" style="stop-color:#006A30"/>
	</radialGradient>
	<path fill="url(#SVGID_33_)" d="M240.234,318.461c-15.515,2.77-28.142,8.792-32.323,34.393
		C218.503,326.688,240.234,318.461,240.234,318.461z"/>
	
		<radialGradient id="SVGID_34_" cx="331.4111" cy="95.6387" r="24.2497" gradientTransform="matrix(0.9992 -0.0402 0.0402 0.9992 -11.7289 237.0536)" gradientUnits="userSpaceOnUse">
		<stop  offset="8.370500e-04" style="stop-color:#AEC99D"/>
		<stop  offset="0.4059" style="stop-color:#31B457"/>
		<stop  offset="0.7261" style="stop-color:#008544"/>
		<stop  offset="1" style="stop-color:#006A30"/>
	</radialGradient>
	<path fill="url(#SVGID_34_)" d="M298.837,320.395c0,0,14.157,1.575,28.992,19.977C321.733,325.908,307.536,315.754,298.837,320.395
		z"/>
	
		<radialGradient id="SVGID_35_" cx="235.9307" cy="142.6001" r="0" gradientTransform="matrix(0.9992 -0.0402 0.0402 0.9992 -11.7289 237.0536)" gradientUnits="userSpaceOnUse">
		<stop  offset="8.370500e-04" style="stop-color:#AEC99D"/>
		<stop  offset="0.4059" style="stop-color:#31B457"/>
		<stop  offset="0.7261" style="stop-color:#008544"/>
		<stop  offset="1" style="stop-color:#006A30"/>
	</radialGradient>
	<path fill="url(#SVGID_35_)" d="M229.746,370.055"/>
	<path fill="#107139" d="M335.116,360.275c-5.608-11.544-11.415-10.144-24.975-5.166c-13.604,4.994,6.021,27.053,17.396,26.867
		c10.506-0.173,5.511,7.922,5.511,7.922S343.899,378.359,335.116,360.275z"/>
	
		<radialGradient id="SVGID_36_" cx="320.6055" cy="196.6562" r="43.1474" gradientTransform="matrix(1 0 0 1 0 169)" gradientUnits="userSpaceOnUse">
		<stop  offset="8.370500e-04" style="stop-color:#AEC99D"/>
		<stop  offset="0.4059" style="stop-color:#31B457"/>
		<stop  offset="0.9702" style="stop-color:#008042"/>
	</radialGradient>
	<path fill="url(#SVGID_36_)" d="M337.527,356.143c-4.479-6.373-9.986-8.173-24.112-5.167c-16.189,3.445-0.516,26.523,14.295,28.59
		c11.024,1.538,8.438,5.511,8.438,5.511S349.086,372.591,337.527,356.143z"/>
	<path fill="#F9ED32" d="M299.982,385.593c-11.368-4.133-26.867-3.101-42.368,4.649c-15.5,7.751-18.083,18.084-5.167,18.084
		c12.917,0,10.851-5.685,33.584-6.2c22.732-0.516,20.149,9.3,26.351,4.133C318.582,401.093,317.004,391.783,299.982,385.593z"/>
	<path fill="#A13422" d="M252.965,402.126c1.528,5.097,16.533-4.133,32.55-3.616c16.017,0.52,20.15,6.717,23.25,3.102
		c3.101-3.616-9.301-13.434-23.767-12.4C270.531,390.242,251.415,396.959,252.965,402.126z"/>
	<path fill="none" stroke="#006028" stroke-width="1.3741" stroke-miterlimit="10" d="M340.799,377.843c0,0-4.134-8.267-19.634-9.3"
		/>
	<path fill="none" stroke="#006028" stroke-width="1.3741" stroke-miterlimit="10" d="M342.521,368.887
		c0,0-5.169-14.122-25.834-12.572"/>
	<path fill="#F1B937" d="M253.998,399.371c0,0,15.328-10.334,32.723-10.162c16.705,0.164,22.217,9.818,21.7,11.367
		c-0.517,1.55-1.895,2.24-2.239,2.412c1.206,1.033,4.649,0.343,5.513-2.757c0.86-3.102-3.272-8.61-12.056-10.852
		C290.854,387.143,268.121,384.561,253.998,399.371z"/>
	<path fill="#F1B937" d="M253.826,391.965c0,0-12.744,7.751-9.989,13.436c2.756,5.684,11.883,3.96,19.29,0.858
		c-11.884,1.207-14.812,0.689-16.188-2.236C245.559,401.093,253.826,391.965,253.826,391.965z"/>
</g>
</svg>
