<?xml version="1.0" encoding="iso-8859-1"?>
<!-- Generator: Adobe Illustrator 16.0.0, SVG Export Plug-In . SVG Version: 6.00 Build 0)  -->
<!DOCTYPE svg PUBLIC "-//W3C//DTD SVG 1.1//EN" "http://www.w3.org/Graphics/SVG/1.1/DTD/svg11.dtd">
<svg version="1.1" xmlns="http://www.w3.org/2000/svg" xmlns:xlink="http://www.w3.org/1999/xlink" x="0px" y="0px" width="1440px"
	 height="960px" viewBox="0 0 1440 960" enable-background="new 0 0 1440 960" xml:space="preserve">
<g id="Layer_1">
	<g id="HGzpea_1_">
		
			<image overflow="visible" width="934" height="588" id="HGzpea_2_" xlink:href="4710B4C8E55160FD.jpg"  transform="matrix(1.5059 0 0 1.5059 29 27.5312)">
		</image>
	</g>
</g>
<g id="Layer_7">
	<linearGradient id="SVGID_1_" gradientUnits="userSpaceOnUse" x1="727.2773" y1="190.9995" x2="727.2773" y2="810.8606">
		<stop  offset="0" style="stop-color:#5BC0AC"/>
		<stop  offset="0.3176" style="stop-color:#00A388"/>
		<stop  offset="0.6881" style="stop-color:#008670"/>
		<stop  offset="0.9904" style="stop-color:#005E53"/>
	</linearGradient>
	<rect x="-16.057" y="-19.73" fill="url(#SVGID_1_)" width="1486.667" height="993.993"/>
	<path fill="#B1D9AC" d="M1168.896-140.492C1074.929-84.406,974.611-37.593,900.546-32.295
		C689.317-17.184,594.848-55.787,381.753,16.77C168.658,89.326,31.438,80.879-34.901,174.158
		c-66.338,93.279-18.677,106.14-18.677,106.14s37.323-75.148,157.604-123.454C224.308,108.539,352.132,24.51,469.604,38.116
		c117.472,13.606,244.302,22.658,397.39-13.123c153.088-35.782,230.441-70.761,348.569-135.381
		c10.439-5.711,20.555-11.504,30.354-17.338c-17.429-3.344-35.013-6.5-52.917-9.274
		C1184.939-138.224,1176.908-139.379,1168.896-140.492z"/>
	<path fill="#AEDBC3" d="M483.739-108.816C252.247-90.521,231.843-7.136,112.326,19.875C-7.191,46.884-57.929,70.69-57.929,70.69
		s-65.893,135.354-52.159,123.327c13.734-12.027,76.391-79.028,241.843-115.932C297.208,41.183,244.991,18.963,356.858-29.253
		c111.866-48.216,160.649-22.99,469.246-52.994c308.597-30.005,97.903,35.596,293.137-40.731
		c14.918-5.832,29.005-12.032,42.346-18.522c-61.161-8.296-121.007-14.018-180.704-23.317
		C850.303-136.973,673.149-123.786,483.739-108.816z"/>
	<path opacity="0.3" fill="#AEDBC3" d="M1349.313-107.04c-41.568,25.744-94.562,51.852-161.773,75.095
		C937.956,54.365,620.479-6.132,384.114,66.176C147.749,138.485-90.214,293.484-90.214,293.484l24.251,92.813
		c0,0,271.853-227.142,542.324-257.732c270.471-30.59,596.255-27.113,800.062-135.215c62.332-33.062,110.108-62.912,146.407-88.424
		c-7.262-0.93-14.538-1.903-21.83-2.926C1383.518-100.708,1366.34-103.783,1349.313-107.04z"/>
	<path opacity="0.3" fill="#AEDBC3" d="M1132.812-145.246c-21.695,9.542-45.307,18.847-71,27.732
		c-249.583,86.309-567.06,25.812-803.425,98.121C22.021,52.915-71.448,155.392-71.448,155.392l24.251,92.813
		c0,0,127.358-174.619,397.829-205.209c270.472-30.59,596.254-27.112,800.062-135.215c23.049-12.226,45.688-25.913,67.719-40.569
		c-8.411-1.476-16.874-2.889-25.413-4.212C1172.787-140.068,1152.739-142.742,1132.812-145.246z"/>
	<path opacity="0.3" fill="#AEDBC3" d="M1496.775-14.642c-40.7,51.742-183.928,218.225-393.32,290.636
		c-249.583,86.311-567.06,25.813-803.425,98.122S-29.805,548.901-29.805,548.901l24.251,92.812c0,0,127.359-174.619,397.83-205.208
		c270.471-30.591,596.255-27.113,800.062-135.215c145.274-77.056,274.336-212.039,336.487-283.22
		C1518.143,6.823,1507.459-3.981,1496.775-14.642z"/>
	<path opacity="0.3" fill="#AEDBC3" d="M1080.055,234.384c-249.584,86.31-567.061,25.812-803.425,98.121
		C40.264,404.813-53.206,507.291-53.206,507.291l14.358,46.878c0,0,130.882-169.211,401.353-199.802
		c270.471-30.59,602.625,13.414,806.431-94.688c139.151-73.808,263.426-200.761,328.274-273.887
		c-2.695-2.691-5.392-5.375-8.087-8.053C1439,26.012,1283.81,163.922,1080.055,234.384z"/>
</g>
<g id="GROUND">
	<path fill="#867757" d="M467,321c0,0-14-64-42-64s-78,12-76,18s62,38,62,38L467,321z"/>
	<path fill="#867757" d="M1029,969c0,0,62,26,70,34s14,18,20,24s46,38,46,38l60,12c0,0,22-2,28-2s30,19,30,19l4,37l-90,26l-174-22
		L1029,969z"/>
	<path fill="#867757" d="M717,577c0,0,14,12,24,36s36,108,36,122s-4,6,0,26s4,26,6,32s-4,48-4,48s-42,14-46,8s-22-40-28-48
		s0-80,0-94S717,577,717,577z"/>
	<path fill="#867757" d="M631,363c0,0,16,58,10,74s-8,46-10,52s2,26,2,40s-2,68-2,68s-174-58-176-64s-26-42-32-50s66-74,72-76
		S631,363,631,363z"/>
	<path fill="#C2B59B" d="M-27,287c116-26,500-42,462-26s8,38,124,60s92,82,32,108s-82,54-82,54s42,36,98,50s114,30,120,42
		s44,140,24,188s56,64,146,120s160,78,160,110s88,66,78,80s160-14,114,21s-1272,21-1272,21L-27,287z"/>
	<path fill="#867757" d="M-91,823c56-32,94-70,112-84s58-34,66-36s56-16,56-16s-14,12,4,12s36-34,58-52s54-76,62-76s14,28,26,34
		c18.676,9.338,28,22,12,34s-90,52-90,52s-66,42-70,48s-24,32-32,42s12,2-8,10s-26-30-54-12S3,823-1,829s-8,14-22,24s16-18-14,10
		s-32,42-44,50S-91,823-91,823z"/>
	<path fill="#D9D0C0" d="M-31,785c0,0,52-48,102-70s72-28,72-28s-24,42-10,32s34-42,52-60s56-16,70-38s24-38,12-50s-68-20-80-24
		s-10-6-24-10s-68-36-110-28s-32,4-66,18s-26,2-34,14s-6,2-8,12S-31,785-31,785z"/>
	<path fill="#73643E" d="M105,791l18-58c0,0,30-48,12-44s-42,20-82,40s10,22,10,22l-12,36C51,787,73,769,105,791z"/>
	<polygon fill="#73643E" points="157,723 193,663 241,639 215,691 	"/>
	<path fill="#73643E" d="M591,429l2,36l-8,60l-26-12l-4-38l-12,30l-8-34C535,471,563,441,591,429z"/>
	<path fill="#73643E" d="M264.616,736.079c-50.997,41.998-11.889,96.473,38.998,107.994
		c79.496,17.999,141.493-28.495,151.493-88.495S371.064,648.415,264.616,736.079z"/>
	<circle fill="#867757" cx="393.545" cy="1065" r="8.545"/>
	<ellipse fill="#867757" cx="467.728" cy="929.363" rx="10.987" ry="6.104"/>
	<ellipse fill="#867757" cx="519" cy="948.896" rx="3.662" ry="1.221"/>
	<circle fill="#867757" cx="456.741" cy="962.324" r="7.325"/>
	<circle fill="#867757" cx="482.377" cy="980.636" r="8.545"/>
	<circle fill="#867757" cx="519" cy="948.896" r="6.104"/>
	<circle fill="#867757" cx="638.634" cy="1067.31" r="3.662"/>
	<circle fill="#867757" cx="505.572" cy="1009.934" r="3.662"/>
	<circle fill="#867757" cx="672.815" cy="1001.389" r="3.662"/>
	<circle fill="#867757" cx="690.662" cy="783" r="3.662"/>
	<circle fill="#867757" cx="968.757" cy="894.931" r="3.662"/>
	<ellipse fill="#867757" cx="20.819" cy="314.43" rx="10.987" ry="6.104"/>
	<ellipse fill="#867757" cx="72.091" cy="333.962" rx="3.662" ry="1.221"/>
	<circle fill="#867757" cx="9.832" cy="347.391" r="7.325"/>
	<circle fill="#867757" cx="35.468" cy="365.702" r="8.545"/>
	<circle fill="#867757" cx="72.091" cy="333.962" r="6.104"/>
	<circle fill="#867757" cx="191.725" cy="452.376" r="3.662"/>
	<circle fill="#867757" cx="32.662" cy="455" r="3.662"/>
	<circle fill="#867757" cx="58.662" cy="395" r="3.662"/>
	<circle fill="#867757" cx="225.906" cy="386.455" r="3.662"/>
	<circle fill="#867757" cx="576.429" cy="418.066" r="3.662"/>
	<circle fill="#867757" cx="29.081" cy="984.326" r="8.545"/>
	<circle fill="#867757" cx="185.338" cy="1071" r="3.662"/>
	<circle fill="#867757" cx="52.275" cy="1013.624" r="3.662"/>
	<circle fill="#867757" cx="367" cy="695" r="3.662"/>
	<circle fill="#867757" cx="219.519" cy="1005.079" r="3.662"/>
	<path fill="#73643E" d="M333,365c4.943,39.542-69.244,14.545-90,18s-48,0-48,0c-52-14-60-18-60-18s48-4,0-14s-39.194-2.962-48-10
		s-9.819-19.534-38-20S9,311,7,305s48-8,58-12S331,349,333,365z"/>
	<path fill="#73643E" d="M63,615c-20,16,14,16-34,34s-74,26-74,26s-10-8,6-18S63,615,63,615z"/>
	<path fill="#73643E" d="M-24,993c8,2,206-58,256-86c-10,91-50,132-50,132H8L-24,993z"/>
	<path fill="#867757" d="M485,381c-26.427-8.809,4,26-76,60s-154,78-104,102s50,92,50,92s46-2,22-38s-50-66-38-74s4-12,98-62
		S509,389,485,381z"/>
	<path fill="#73643E" d="M299,531c4.935,17.767,22-22,74-46s80-42,88-66s12.016-27.814-16-4C405,449,289,495,299,531z"/>
	<path fill="#867757" d="M114,1027c0,0,104-76,118-120c-4,76-2,82-32,103S114,1027,114,1027z"/>
</g>
<g id="Layer_10">
	<g>
		<path fill="#006838" d="M72.774,282.186c0,0-10.708-26.998-11.536-43.197S77.599,260.649,72.774,282.186z"/>
		<path fill="#006838" d="M72.774,282.186c0,0-15.236-38.29-11.536-43.197C64.938,234.081,72.774,282.186,72.774,282.186z"/>
	</g>
	<g>
		<path fill="#006838" d="M216.774,252.186c0,0-10.708-26.998-11.536-43.197S221.599,230.649,216.774,252.186z"/>
		<path fill="#006838" d="M216.774,252.186c0,0-15.236-38.29-11.536-43.197C208.938,204.081,216.774,252.186,216.774,252.186z"/>
	</g>
	<g>
		<path fill="#006838" d="M270.774,256.186c0,0-10.708-26.998-11.536-43.197S275.599,234.649,270.774,256.186z"/>
		<path fill="#006838" d="M270.774,256.186c0,0-15.236-38.29-11.536-43.197C262.938,208.081,270.774,256.186,270.774,256.186z"/>
	</g>
	<g>
		<path fill="#006838" d="M288.774,271.52c0,0-10.708-26.998-11.536-43.197S293.599,249.983,288.774,271.52z"/>
		<path fill="#006838" d="M288.774,271.52c0,0-15.236-38.29-11.536-43.197C280.938,223.414,288.774,271.52,288.774,271.52z"/>
	</g>
	<g>
		<path fill="#006838" d="M307.692,271.888c0,0,2.478-28.938,8.973-43.802C323.16,213.223,321.628,254.773,307.692,271.888z"/>
		<path fill="#006838" d="M307.692,271.888c0,0,3.47-41.063,8.973-43.802C322.168,225.348,307.692,271.888,307.692,271.888z"/>
	</g>
	<g>
		<path fill="#006838" d="M39.994,498.131c0,0,2.967-34.657,10.746-52.459C58.52,427.871,56.685,477.634,39.994,498.131z"/>
		<path fill="#006838" d="M39.994,498.131c0,0,4.156-49.179,10.746-52.459C57.331,442.393,39.994,498.131,39.994,498.131z"/>
	</g>
	<g>
		<path fill="#006838" d="M21.029,517.063c0,0-6.636-34.146-4.029-53.397C19.607,444.415,31.47,492.779,21.029,517.063z"/>
		<path fill="#006838" d="M21.029,517.063c0,0-9.469-48.438-4.029-53.397C22.441,458.708,21.029,517.063,21.029,517.063z"/>
	</g>
	<path fill="#4E8459" d="M264.588,266.835c-12.378-6.189-24.068-11.69-26.819-19.254c-2.751-7.564-20.544-40.227-19.942-37.822
		c4.126,16.504-0.688,19.255,4.126,27.507c4.813,8.252,1.375,2.063,4.813,8.252s-1.085,3.974-1.375,6.876
		c-0.688,6.877-12.378-9.627-11.69-1.375c0.688,8.252-8.252-20.63-2.751-4.814c5.501,15.816-4.813-8.252-6.189,0.688
		c-1.375,8.939-19.942-22.693-11.69-4.126s-20.63-36.446-5.501-6.189c15.128,30.257-28.882-37.822-13.066-5.501
		c15.816,32.32,12.378,19.942,13.753,26.819c1.375,6.876-4.126-13.065-4.813-2.063s9.627,5.501-2.063,7.564
		s-15.129-1.375-15.129-1.375s4.126-4.813,1.375-4.813c0,0,8.252,0-1.375-2.751c-9.627-2.75-0.688-4.813-8.939-7.564
		c-8.252-2.751,0.479-7.471-3.438-8.94c-11.002-4.126-2.75-10.315-6.876-10.315l-2.063-3.438c-2.063-5.501-13.066-3.438-10.315,2.75
		c2.75,6.189,9.627,15.816,13.753,23.38c4.126,7.564,6.876,4.814,4.126,7.564c-2.751,2.75,5.501-2.75,0,0
		c-5.501,2.75-15.129-5.501-15.816-8.252s-0.688-4.813-3.438-6.189c-2.75-1.375,5.501,2.063-0.688-6.189
		c-1.312-1.748-3.055-3.805-4.949-5.928c-7.047-7.9-16.183-16.724-12.931-14.014c4.126,3.438,0,4.813,6.189,15.129
		c6.189,10.315,1.375-2.751,4.813,7.564c3.438,10.315,1.375,2.751,0.688,11.69c-0.688,8.939,0,7.564-0.688,8.939
		c-0.688,1.375-14.441-0.688,0,5.501c14.441,6.189,4.126,6.189,17.879,7.564s70.142,2.75,78.394,1.375
		C230.205,273.712,264.588,266.835,264.588,266.835z"/>
	<path fill="#4E8459" d="M325.588,268.835c-12.378-6.189-24.068-11.69-26.819-19.254c-2.751-7.564-20.544-40.227-19.942-37.822
		c4.126,16.504-0.688,19.255,4.126,27.507c4.813,8.252,1.375,2.063,4.813,8.252s-1.085,3.974-1.375,6.876
		c-0.688,6.877-12.378-9.627-11.69-1.375c0.688,8.252-8.252-20.63-2.751-4.814c5.501,15.816-4.813-8.252-6.189,0.688
		c-1.375,8.939-19.942-22.693-11.69-4.126s-20.63-36.446-5.501-6.189c15.128,30.257-28.882-37.822-13.066-5.501
		c15.816,32.32,12.378,19.942,13.753,26.819c1.375,6.876-4.126-13.065-4.813-2.063s9.627,5.501-2.063,7.564
		s-15.129-1.375-15.129-1.375s4.126-4.813,1.375-4.813c0,0,8.252,0-1.375-2.751c-9.627-2.75-0.688-4.813-8.939-7.564
		c-8.252-2.751,0.479-7.471-3.438-8.94c-11.002-4.126-2.75-10.315-6.876-10.315l-2.063-3.438c-2.063-5.501-13.066-3.438-10.315,2.75
		c2.75,6.189,9.627,15.816,13.753,23.38c4.126,7.564,6.876,4.814,4.126,7.564c-2.751,2.75,5.501-2.75,0,0
		c-5.501,2.75-15.129-5.501-15.816-8.252s-0.688-4.813-3.438-6.189c-2.75-1.375,5.501,2.063-0.688-6.189
		c-1.312-1.748-3.055-3.805-4.949-5.928c-7.047-7.9-16.183-16.724-12.931-14.014c4.126,3.438,0,4.813,6.189,15.129
		c6.189,10.315,1.375-2.751,4.813,7.564c3.438,10.315,1.375,2.751,0.688,11.69c-0.688,8.939,0,7.564-0.688,8.939
		c-0.688,1.375-14.441-0.688,0,5.501c14.441,6.189,4.126,6.189,17.879,7.564s70.142,2.75,78.394,1.375
		C291.205,275.712,325.588,268.835,325.588,268.835z"/>
	<path fill="#4E8459" d="M32.412,305.617c7.412-7.799,14.506-14.95,14.479-20.557c-0.026-5.608,4.202-31.697,4.411-30.001
		c1.434,11.64,5.711,11.836,4.41,18.528c-1.302,6.692-0.452,1.728-1.302,6.692c-0.851,4.965,1.871,2.144,2.868,3.869
		c2.365,4.087,6.483-9.952,8.21-4.567c1.727,5.384,0.479-15.532,0.717-3.886c0.239,11.646,1.302-6.692,4.729-1.531
		c3.427,5.16,8.502-20.53,7.466-6.29c-1.037,14.24,5.288-29.358,2.365-5.619c-2.923,23.738,10.973-32.835,8.103-7.587
		c-2.87,25.249-3.693,16.41-2.843,21.151c0.85,4.741-0.504-9.488,2.975-2.818c3.48,6.67-5.579,6.497,3.56,4.081
		c9.139-2.415,10.733-5.658,10.733-5.658s-4.331-1.705-2.312-2.577c0,0-6.057,2.616,0.266-2.158
		c6.323-4.774-0.797-3.231,4.517-7.569c5.313-4.339-2.372-4.526,0.106-6.688c6.96-6.071-0.771-7.33,2.258-8.638l0.585-2.806
		c0.026-4.099,8.661-6.296,8.315-1.549c-0.346,4.747-2.79,12.954-3.773,18.998c-0.983,6.044-3.746,5.194-0.983,6.044
		c2.763,0.85-4.782,0.022,0,0c4.783-0.023,9.618-8.241,9.379-10.181c-0.239-1.939-0.797-3.231,0.85-4.965
		c1.647-1.733-3.48,3.036-1.168-4.092c0.49-1.51,1.213-3.351,2.029-5.28c3.037-7.18,7.356-15.601,5.702-12.874
		c-2.099,3.461,1.302,3.014-0.452,11.434c-1.753,8.42-1.754-1.286-1.488,6.262c0.266,7.547-0.266,2.158,2.656,7.537
		c2.922,5.378,2.046,4.736,2.922,5.378c0.876,0.643,10.415-5.01,1.487,3.444c-8.927,8.454-1.354,5.183-11.079,10.405
		c-9.724,5.222-50.744,23.962-57.173,25.718C59.51,299.02,32.412,305.617,32.412,305.617z"/>
	<path fill="#4E8459" d="M62,283c-29,5-39,22-20,25s39,16,60,21s4,4,41,8s47,21,74,23s57,5,69,3s18,2,51-12s21-11,45-19s36-12,33-20
		s54-29-5-31s-38-8-52-6s-2.18-1.865-12-4c-23-5,16-10-15-10s-54-2-72-1s-30,1-30,1s-23.019-0.331-26,0c-27,3-62.01,5.632-69,6
		C115,268,62,283,62,283z"/>
	<path fill="#006838" d="M417.106,306.607c-32.88,13.539-22.499,28.499-64.497,34.499s-83.996,12-83.996,12
		c-20.999,1.5-20.999,1.5-20.999,1.5v-6l1.5-13.5c0-13.499,32.999-32.999,7.5-37.498s-12-6-25.499-4.5s26.999,9,0,0
		s-22.499-7.5-20.999,4.5s26.999,19.499,22.499,29.999s7.5,9,3,13.5l-31.499-10.5c0,0,17.307-3.23,4.5-7.5
		c-22.499-7.5-22.499-7.5-22.499-7.5l0,0l-6,1.5c0,0,9.229-29.999-10.5-29.999c-40.498,0-7.5,34.499-7.5,34.499l-6,4.5
		c-25.499-11.999-11.132-14.411-20.999-17.999c-16.499-6-40.498,4.5-40.498-4.5s21.375-33.555-2.062-26.527
		s-3.938,17.527-6.938,23.527c0,0-6-10.5-17.999-9c0,0,4.688-9.912-10.345-7.46c-18.153,2.96-57.152,11.96-22.653,14.96
		s17.999,17.999,40.498,17.999s44.998,3,40.498,7.5s-7.499,15,13.5,16.5s6,6,23.999,7.5s28.498-1.5,37.498,4.5
		s-11.999,14.999,15,13.499s31.498,6,53.997,6s26.999-6,32.999-4.5s14.999,1.5,19.499,1.5s20.999-10.5,37.498-13.5
		s44.998-10.499,50.998-14.999S442.604,296.108,417.106,306.607z"/>
	<path fill="#006838" d="M129.781,252.319c-8.588-3.522,0.839,22.79,5.339,34.789s4.5,12,4.5,12
		C153.119,294.608,137.061,255.305,129.781,252.319z"/>
	<path fill="#006838" d="M202.617,254.11c-6.485-2.358,9.386,16.856,19.336,20.977c18.162,7.521,19.661,9.021,18.162,7.521
		S219.116,260.11,202.617,254.11z"/>
	<path fill="#006838" d="M237.77,247.581c0,0,17.345,27.529,26.344,33.528s19.499,3,19.499,3l-20.999-10.5
		C262.614,273.609,241.424,256.05,237.77,247.581z"/>
	<path fill="#4E8459" d="M-2,662.924c1.873,0,3.031-2.139,4.53-3.141c25.23-16.877,46.932-21.363,52.595-29.857c6-9,9-16.5,9-16.5
		s22.499-23.998,10.5-28.498s-55.497-19.5-55.497-24c0-4.499,52.498-23.998,47.998-31.498s0-16.499-7.5-14.999
		s7.5-13.499,7.5-13.499c-29.999,7.5-52.498,14.999-64.497,16.499c0,0,4.295-2.668-4.627-1.5
		c-34.371,4.5-1.372-16.499-17.872-10.499s11.999-4.5,4.5-6S-11.127,662.924-2,662.924z"/>
	<path fill="#4E8459" d="M6.126,524.097c0-16.499,7.5-55.497,7.5-55.497s3,1.5,3,20.999s0,19.499,0,19.499l6-17.999
		c0,0,17.999-12,16.499-6s22.499-67.496,13.499-31.498s-4.5,20.999-4.5,34.498c0,13.499-2.488,14.962-4.5,20.999
		c-3,9,0,15-4.5,19.499S6.126,524.097,6.126,524.097z"/>
	<path fill="#4E8459" d="M36.125,581.094c3.236-15.1-1.5-6,7.5-13.499s-20.999,8.999,0,0s25.499-17.999,25.499-11.999
		c0,5.999-1.5,1.5-4.5,13.499s-3,11.999-3,11.999l11.999-4.5c0,0,9-1.5,3,9s-7.5,17.999-10.5,28.498c-3,10.5-7.5,10.501-9,16.5
		S31.625,602.092,36.125,581.094z"/>
	<path fill="#006838" d="M21.126,561.595c1.898-1.581,3.714-2.863,5.44-3.911c14.64-8.891,22.9-0.986,21.558-17.088
		c-1.5-17.999-1.5-17.999-1.5-17.999l0,0c0,0-7.5,14.999-7.5,6s-3-26.999-3-26.999s4.5,0-6,20.999s-7.5-4.499-9,3
		s-1.5-22.499-4.5-10.499c-3,11.999,6,7.499-3,11.999s-9,16.499-9,16.499s-13.499,7.5-16.499,12s-25.499,22.498-12,17.998
		c13.5-4.499,34.499-8.999,34.499-8.999L21.126,561.595z"/>
	<path fill="#006838" d="M-20.872,657.59C0,641.092-1.373,633.591,7.626,618.592s10.5-29.998,12-25.498s3,16.498,1.5,25.498
		c0,0,13.499-31.498,11.999-13.499s13.5-25.499,13.5-13.499c0,11.999,0,11.999,0,11.999s-9-16.499,0,0s9,16.499,9,16.499l0,0
		c0,0,10.5-16.499,10.5-6c0,10.5,7.5-1.499,0,10.5s-1.5-1.499-43.498,25.499s-53.998,25.498-61.497,29.998
		S-20.872,657.59-20.872,657.59z"/>
	<path fill="#006838" d="M276.113,333.606c-7.5,3-6,9,4.5,9S291.113,327.607,276.113,333.606z"/>
	<circle fill="#006838" cx="309.111" cy="315.607" r="3"/>
	<circle fill="#006838" cx="370.608" cy="314.107" r="3"/>
	<circle fill="#006838" cx="333.11" cy="332.106" r="3"/>
	<circle fill="#006838" cx="303.112" cy="287.109" r="3"/>
	<circle fill="#006838" cx="22.626" cy="584.094" r="3"/>
	<circle fill="#006838" cx="57.124" cy="588.594" r="3"/>
	<circle fill="#006838" cx="28.625" cy="503.098" r="3"/>
	<circle fill="#006838" cx="195.117" cy="287.109" r="3"/>
	<path fill="#4E8459" d="M1064.491,970.998c-4.5,3,20.999,3.069-1.5-5.999s-47.998-40.498-82.496-41.998s-92.995-3-97.495-3
		s52.497-19.499-4.5-22.499s-40.497-6-65.996-4.5s-28.5,0-34.499,4.5s-10.498,11.999-22.498,14.999s-1.938,19.278-18,20.999
		c-41.997,4.5-28.499,6.001-38.998,12s22.498,5.862,1.5,10.431s-19.499,1.569-17.999,12.068s6.001,17.998,32.999,20.998
		s169.49,7.5,176.99,7.5S1064.491,970.998,1064.491,970.998z"/>
	<path fill="#4E8459" d="M754.007,938c-1.5-11.999,3-13.5,1.5-25.499s1.499-26.998,2.999-31.498s16.5-79.495,15-34.498
		s0,35.998,0,35.998s11.999-16.5,10.499-7.5s3-25.5,1.5-9s6-6,4.5,6s-6,1.501-1.5,12s13.499-14.999,13.499-14.999
		s8.064-5.468,7.5,2.999c-1.5,22.499,17.999,6,17.999,6l7.5,12c0,0,53.998-27,35.998-16.5s31.497,10.501,22.498,16.5
		s16.5,40.497,16.5,40.497s4.5-4.499,19.499-11.999s23.998-41.998,25.498-23.999s9.596-11.356,7.5,7.5
		c-3,26.999,16.499-17.999,14.999,4.5s23.999-7.501,20.999,4.499s4.5,4.501,6,15s11.999,10.499,11.999,10.499
		c-11.999,12-142.494,13.362-161.992,19.431S754.007,938,754.007,938z"/>
	<path fill="#006838" d="M769.006,955.931l1.5-31.43L779.505,944l1.5-20.999l4.5,19.499c0,0,7.5-25.498,6-17.999
		s13.498-5.999,5.999,3s4.5,1.499,6,7.499s16.498,4.5,10.499,9c0,0,25.499,0.067,12,5.999S769.006,955.931,769.006,955.931z"/>
	<path fill="#006838" d="M860.501,933.5c0,0,7.5-43.498,4.5-19.499s23.999-13.499,17.999,6S889,941,889,941s-7.501,7.5,2.999,7.5
		s19.501-19.5,21-10.5s38.998,0.001,29.998,6s26.999-0.138,0,11.931s-86.996,24.066-85.496,13.567s4.5-17.998,1.5-22.498
		S814.003,926,860.501,933.5z"/>
	<path fill="#006838" d="M815.503,900.502c0,0,0,22.499,4.5,25.499S815.503,900.502,815.503,900.502z"/>
	<path fill="#006838" d="M787.005,893.002c0,0,0,22.499,4.5,25.499S787.005,893.002,787.005,893.002z"/>
	<path fill="#006838" d="M969.995,921.501c0,0,0,22.499,4.5,25.499S969.995,921.501,969.995,921.501z"/>
	<polygon fill="#006838" points="977.495,973.999 990.994,932.001 990.994,964.999 	"/>
	<path fill="#EF4136" d="M306.333,324.333C280.888,329.104,287,317,282.333,313s4-9.333,10.667-11.333s-8-9.333-4-9.333
		S283.667,285,295,283s7.333,0,11.333-2s12-4,12-4l-12.667,20.667c-10,6,8,5.333,2.667,9.333s1.333,8,7.333,8.667
		s-5.333,5.333,0.667,4s9.333-2.667,9.333-2.667s3.333,1.333-2.667,4S317,322.333,306.333,324.333z"/>
	<path fill="#EF4136" d="M385.667,306.333c-11.333,0-13.333-6-13.333-6l1.333-5.333c0,0,5.333,1.333,2.667-4
		S377,281.667,377,279.667s2.667-6,2.667-6L379,254.333c0,0-4,0-0.667-8.667S381,235,381.667,237S381,247.667,383,255
		s3.333,12,2,15.333s4.667,10,4.667,12c0,0,6.667-14,8.667-14s6-6,8.667-5.333s3.333,12,1.333,14.667s-2,6.667-2,11.333
		s1.333,1.333,0,4.667s-1.333,2.667-8.667,8S385.667,306.333,385.667,306.333z"/>
	<path fill="#BE1E2D" d="M385.667,306.333l-13.333-6c0,0-1.333-2.667,2.667-2.667s1.333-6.667,1.333-6.667s-6,0.667-2.667-5.333
		s2-10,3.333-12s1.333-3.333,1.333-6S377.667,261,377.667,261s-2,2.667-2-4.667s0-13.333,0-13.333l1.333-4.667
		c0,0,0.666,5.333,1.333,7.333s4.667,14,4.667,16.667s-2.667-4,0,10.667s4.667,17.333,4.667,17.333l4.667-9.333l3.333-8.667l4,9.333
		c0,0-0.667,5.333,0.667,8s3.333-1.333,1.333,2.667s-14,4.666-13.333,7.333S385.667,306.333,385.667,306.333z"/>
	<path fill="#BE1E2D" d="M299,323.667c-4,0-4.667-7.333-4.667-7.333s-0.666-4-3.333-4c0,0,9.879-4.65,8-5.333
		c-7.333-2.667-8.667-2-12-1.333c0,0-7.604-0.497-6.667,2c2,5.333-2,14,6,16S299,323.667,299,323.667z"/>
	<path fill="#BE1E2D" d="M295.667,299c-3.333,0-6.667-4-6.667-4v-2.667c0,0-3.334-6.667-0.667-8l8,5.333l1.333,5.333L295.667,299z"
		/>
	<polygon fill="#BE1E2D" points="291.667,325 309.111,312.607 299,323.667 	"/>
	<g>
		<path fill="#F7941E" d="M166.774,277.52c0,0-10.708-26.998-11.536-43.197S171.599,255.983,166.774,277.52z"/>
		<path fill="#F15A29" d="M166.774,277.52c0,0-15.236-38.29-11.536-43.197C158.938,229.414,166.774,277.52,166.774,277.52z"/>
	</g>
	<g>
		<path fill="#F7941E" d="M185.477,281.333c0,0-3.745-28.801-0.566-44.708C188.089,220.719,195.447,261.643,185.477,281.333z"/>
		<path fill="#F15A29" d="M185.477,281.333c0,0-5.359-40.86-0.566-44.708C189.704,232.777,185.477,281.333,185.477,281.333z"/>
	</g>
	<g>
		<path fill="#F7941E" d="M180.107,278.853c0,0-10.708-26.998-11.536-43.197S184.932,257.316,180.107,278.853z"/>
		<path fill="#F15A29" d="M180.107,278.853c0,0-15.236-38.29-11.536-43.197C172.271,230.748,180.107,278.853,180.107,278.853z"/>
	</g>
	<g>
		<path fill="#F7941E" d="M118.774,302.187c0,0-10.708-26.998-11.536-43.197S123.599,280.65,118.774,302.187z"/>
		<path fill="#F15A29" d="M118.774,302.187c0,0-15.236-38.29-11.536-43.197C110.938,254.081,118.774,302.187,118.774,302.187z"/>
	</g>
	<g>
		<path fill="#F7941E" d="M7.772,536.487c0,0-14.322-36.106-15.429-57.772C-8.763,457.049,14.225,507.684,7.772,536.487z"/>
		<path fill="#F15A29" d="M7.772,536.487c0,0-20.377-51.209-15.429-57.772C-2.708,472.15,7.772,536.487,7.772,536.487z"/>
	</g>
	<g>
		<path fill="#F7941E" d="M39.772,521.82c0,0-14.322-36.106-15.429-57.772C23.237,442.383,46.225,493.018,39.772,521.82z"/>
		<path fill="#F15A29" d="M39.772,521.82c0,0-20.377-51.208-15.429-57.772C29.292,457.484,39.772,521.82,39.772,521.82z"/>
	</g>
	<g>
		<path fill="#F7941E" d="M28.736,595.695c0,0,1.932-38.795,9.905-58.971S46.547,572.158,28.736,595.695z"/>
		<path fill="#F15A29" d="M28.736,595.695c0,0,2.682-55.049,9.905-58.971C45.865,532.802,28.736,595.695,28.736,595.695z"/>
	</g>
	<g>
		<path fill="#F7941E" d="M9.796,598.266c0,0-5.885-26.705-2.119-41.517S22.526,579.859,9.796,598.266z"/>
		<path fill="#F15A29" d="M9.796,598.266c0,0-8.41-37.886-2.119-41.517S9.796,598.266,9.796,598.266z"/>
	</g>
	<g>
		<path fill="#F7941E" d="M249.44,271.52c0,0-10.708-26.998-11.536-43.197S254.265,249.983,249.44,271.52z"/>
		<path fill="#F15A29" d="M249.44,271.52c0,0-15.236-38.29-11.536-43.197C241.604,223.414,249.44,271.52,249.44,271.52z"/>
	</g>
	<g>
		<path fill="#F7941E" d="M235.44,283.52c0,0-8.978-19.119-8.839-30.92C226.739,240.797,241.473,267.48,235.44,283.52z"/>
		<path fill="#F15A29" d="M235.44,283.52c0,0-12.781-27.112-8.839-30.92C230.542,248.79,235.44,283.52,235.44,283.52z"/>
	</g>
</g>
<g id="Layer_9">
	<g>
		<circle fill="#D7DF23" cx="203" cy="323" r="6"/>
		<circle fill="#D7DF23" cx="229" cy="313" r="6"/>
		<circle fill="#D7DF23" cx="221" cy="331" r="6"/>
		<circle fill="#D7DF23" cx="157" cy="311" r="6"/>
		<circle fill="#D7DF23" cx="313" cy="325" r="6"/>
		<circle fill="#D7DF23" cx="253" cy="333" r="6"/>
		<circle fill="#D7DF23" cx="250" cy="308" r="3"/>
		<circle fill="#D7DF23" cx="300" cy="339" r="3"/>
		<circle fill="#D7DF23" cx="196" cy="337" r="3"/>
		<circle fill="#D7DF23" cx="150" cy="321" r="3"/>
		<circle fill="#D7DF23" cx="210" cy="297" r="3"/>
		<circle fill="#D7DF23" cx="286" cy="319" r="3"/>
		<ellipse fill="#D7DF23" cx="285" cy="319" rx="2" ry="0"/>
		<circle fill="#D7DF23" cx="153" cy="277" r="6"/>
		<circle fill="#D7DF23" cx="179" cy="267" r="6"/>
		<circle fill="#D7DF23" cx="171" cy="285" r="6"/>
		<circle fill="#D7DF23" cx="263" cy="279" r="6"/>
		<circle fill="#D7DF23" cx="203" cy="287" r="6"/>
		<circle fill="#D7DF23" cx="200" cy="262" r="3"/>
		<circle fill="#D7DF23" cx="250" cy="293" r="3"/>
		<circle fill="#D7DF23" cx="146" cy="291" r="3"/>
		<circle fill="#D7DF23" cx="160" cy="251" r="3"/>
		<circle fill="#D7DF23" cx="236" cy="273" r="3"/>
		<ellipse fill="#D7DF23" cx="235" cy="273" rx="2" ry="0"/>
		<circle fill="#D7DF23" cx="276" cy="296" r="6"/>
		<circle fill="#D7DF23" cx="302" cy="286" r="6"/>
		<circle fill="#D7DF23" cx="294" cy="304" r="6"/>
		<circle fill="#D7DF23" cx="230" cy="284" r="6"/>
		<circle fill="#D7DF23" cx="386" cy="298" r="6"/>
		<circle fill="#D7DF23" cx="326" cy="306" r="6"/>
		<circle fill="#D7DF23" cx="323" cy="281" r="3"/>
		<circle fill="#D7DF23" cx="373" cy="312" r="3"/>
		<circle fill="#D7DF23" cx="269" cy="310" r="3"/>
		<circle fill="#D7DF23" cx="223" cy="294" r="3"/>
		<circle fill="#D7DF23" cx="283" cy="270" r="3"/>
		<circle fill="#D7DF23" cx="359" cy="292" r="3"/>
		<ellipse fill="#D7DF23" cx="358" cy="292" rx="2" ry="0"/>
		<circle fill="#D7DF23" cx="226" cy="250" r="6"/>
		<circle fill="#D7DF23" cx="252" cy="240" r="6"/>
		<circle fill="#D7DF23" cx="244" cy="258" r="6"/>
		<circle fill="#D7DF23" cx="336" cy="252" r="6"/>
		<circle fill="#D7DF23" cx="276" cy="260" r="6"/>
		<circle fill="#D7DF23" cx="273" cy="235" r="3"/>
		<circle fill="#D7DF23" cx="323" cy="266" r="3"/>
		<circle fill="#D7DF23" cx="219" cy="264" r="3"/>
		<circle fill="#D7DF23" cx="233" cy="224" r="3"/>
		<circle fill="#D7DF23" cx="309" cy="246" r="3"/>
		<ellipse fill="#D7DF23" cx="308" cy="246" rx="2" ry="0"/>
	</g>
	<g>
		<circle fill="#D7DF23" cx="804" cy="982" r="6"/>
		<circle fill="#D7DF23" cx="830" cy="972" r="6"/>
		<circle fill="#D7DF23" cx="822" cy="990" r="6"/>
		<circle fill="#D7DF23" cx="758" cy="970" r="6"/>
		<circle fill="#D7DF23" cx="914" cy="984" r="6"/>
		<circle fill="#D7DF23" cx="854" cy="992" r="6"/>
		<circle fill="#D7DF23" cx="851" cy="967" r="3"/>
		<circle fill="#D7DF23" cx="901" cy="998" r="3"/>
		<circle fill="#D7DF23" cx="797" cy="996" r="3"/>
		<circle fill="#D7DF23" cx="751" cy="980" r="3"/>
		<circle fill="#D7DF23" cx="811" cy="956" r="3"/>
		<circle fill="#D7DF23" cx="887" cy="978" r="3"/>
		<ellipse fill="#D7DF23" cx="886" cy="978" rx="2" ry="0"/>
		<circle fill="#D7DF23" cx="754" cy="936" r="6"/>
		<circle fill="#D7DF23" cx="780" cy="926" r="6"/>
		<circle fill="#D7DF23" cx="772" cy="944" r="6"/>
		<circle fill="#D7DF23" cx="864" cy="938" r="6"/>
		<circle fill="#D7DF23" cx="804" cy="946" r="6"/>
		<circle fill="#D7DF23" cx="801" cy="921" r="3"/>
		<circle fill="#D7DF23" cx="851" cy="952" r="3"/>
		<circle fill="#D7DF23" cx="747" cy="950" r="3"/>
		<circle fill="#D7DF23" cx="761" cy="910" r="3"/>
		<circle fill="#D7DF23" cx="837" cy="932" r="3"/>
		<ellipse fill="#D7DF23" cx="836" cy="932" rx="2" ry="0"/>
		<circle fill="#D7DF23" cx="877" cy="955" r="6"/>
		<circle fill="#D7DF23" cx="903" cy="945" r="6"/>
		<circle fill="#D7DF23" cx="895" cy="963" r="6"/>
		<circle fill="#D7DF23" cx="831" cy="943" r="6"/>
		<circle fill="#D7DF23" cx="987" cy="957" r="6"/>
		<circle fill="#D7DF23" cx="927" cy="965" r="6"/>
		<circle fill="#D7DF23" cx="924" cy="940" r="3"/>
		<circle fill="#D7DF23" cx="974" cy="971" r="3"/>
		<circle fill="#D7DF23" cx="870" cy="969" r="3"/>
		<circle fill="#D7DF23" cx="824" cy="953" r="3"/>
		<circle fill="#D7DF23" cx="884" cy="929" r="3"/>
		<circle fill="#D7DF23" cx="960" cy="951" r="3"/>
		<ellipse fill="#D7DF23" cx="959" cy="951" rx="2" ry="0"/>
		<circle fill="#D7DF23" cx="827" cy="909" r="6"/>
		<circle fill="#D7DF23" cx="853" cy="899" r="6"/>
		<circle fill="#D7DF23" cx="845" cy="917" r="6"/>
		<circle fill="#D7DF23" cx="937" cy="911" r="6"/>
		<circle fill="#D7DF23" cx="877" cy="919" r="6"/>
		<circle fill="#D7DF23" cx="874" cy="894" r="3"/>
		<circle fill="#D7DF23" cx="924" cy="925" r="3"/>
		<circle fill="#D7DF23" cx="820" cy="923" r="3"/>
		<circle fill="#D7DF23" cx="834" cy="883" r="3"/>
		<circle fill="#D7DF23" cx="910" cy="905" r="3"/>
		<ellipse fill="#D7DF23" cx="909" cy="905" rx="2" ry="0"/>
	</g>
	<g>
		<circle fill="#D7DF23" cx="15.379" cy="636.777" r="6"/>
		<circle fill="#D7DF23" cx="12.776" cy="609.042" r="6"/>
		<circle fill="#D7DF23" cx="27.945" cy="621.608" r="6"/>
		<circle fill="#D7DF23" cx="-8.604" cy="677.824" r="6"/>
		<circle fill="#D7DF23" cx="47.027" cy="531.409" r="6"/>
		<circle fill="#D7DF23" cx="38.517" cy="591.339" r="6"/>
		<circle fill="#D7DF23" cx="13.636" cy="587.472" r="3"/>
		<circle fill="#D7DF23" cx="56.993" cy="547.708" r="3"/>
		<circle fill="#D7DF23" cx="26.967" cy="647.299" r="3"/>
		<circle fill="#D7DF23" cx="-0.867" cy="687.265" r="3"/>
		<circle fill="#D7DF23" cx="-7.762" cy="623.012" r="3"/>
		<circle fill="#D7DF23" cx="33.955" cy="555.783" r="3"/>
		
			<ellipse transform="matrix(0.2701 -0.9628 0.9628 0.2701 -511.4641 438.7881)" fill="#D7DF23" cx="33.684" cy="556.746" rx="2" ry="0"/>
		<circle fill="#D7DF23" cx="-42.42" cy="672.488" r="6"/>
		<circle fill="#D7DF23" cx="-45.023" cy="644.753" r="6"/>
		<circle fill="#D7DF23" cx="-29.854" cy="657.319" r="6"/>
		<circle fill="#D7DF23" cx="-10.772" cy="567.12" r="6"/>
		<circle fill="#D7DF23" cx="-19.282" cy="627.05" r="6"/>
		<circle fill="#D7DF23" cx="-44.163" cy="623.183" r="3"/>
		<circle fill="#D7DF23" cx="-0.806" cy="583.419" r="3"/>
		<circle fill="#D7DF23" cx="-30.832" cy="683.01" r="3"/>
		<circle fill="#D7DF23" cx="-65.562" cy="658.723" r="3"/>
		<circle fill="#D7DF23" cx="-23.845" cy="591.495" r="3"/>
		
			<ellipse transform="matrix(0.2702 -0.9628 0.9628 0.2702 -588.0121 409.136)" fill="#D7DF23" cx="-24.115" cy="592.457" rx="2" ry="0"/>
		<circle fill="#D7DF23" cx="9.108" cy="559.197" r="6"/>
		<circle fill="#D7DF23" cx="6.505" cy="531.462" r="6"/>
		<circle fill="#D7DF23" cx="21.674" cy="544.028" r="6"/>
		<circle fill="#D7DF23" cx="-14.875" cy="600.244" r="6"/>
		<circle fill="#D7DF23" cx="40.756" cy="453.829" r="6"/>
		<circle fill="#D7DF23" cx="32.246" cy="513.759" r="6"/>
		<circle fill="#D7DF23" cx="7.365" cy="509.893" r="3"/>
		<circle fill="#D7DF23" cx="50.722" cy="470.128" r="3"/>
		<circle fill="#D7DF23" cx="20.696" cy="569.719" r="3"/>
		<circle fill="#D7DF23" cx="-7.138" cy="609.685" r="3"/>
		<circle fill="#D7DF23" cx="-14.034" cy="545.432" r="3"/>
		<circle fill="#D7DF23" cx="27.683" cy="478.203" r="3"/>
		
			<ellipse transform="matrix(0.2703 -0.9628 0.9628 0.2703 -441.3299 376.0557)" fill="#D7DF23" cx="27.413" cy="479.166" rx="2" ry="0"/>
		<circle fill="#D7DF23" cx="-48.691" cy="594.908" r="6"/>
		<circle fill="#D7DF23" cx="-51.294" cy="567.173" r="6"/>
		<circle fill="#D7DF23" cx="-36.125" cy="579.739" r="6"/>
		<circle fill="#D7DF23" cx="-17.043" cy="489.54" r="6"/>
		<circle fill="#D7DF23" cx="-25.553" cy="549.47" r="6"/>
		<circle fill="#D7DF23" cx="-50.434" cy="545.604" r="3"/>
		<circle fill="#D7DF23" cx="-7.077" cy="505.839" r="3"/>
		<circle fill="#D7DF23" cx="-37.103" cy="605.43" r="3"/>
		<circle fill="#D7DF23" cx="-71.833" cy="581.143" r="3"/>
		<circle fill="#D7DF23" cx="-30.116" cy="513.914" r="3"/>
		
			<ellipse transform="matrix(0.2701 -0.9628 0.9628 0.2701 -517.9148 346.5403)" fill="#D7DF23" cx="-30.386" cy="514.877" rx="2" ry="0"/>
	</g>
</g>
<g id="UMA">
	<radialGradient id="SVGID_2_" cx="375.2197" cy="702.4668" r="86.3022" gradientUnits="userSpaceOnUse">
		<stop  offset="8.370500e-04" style="stop-color:#F6E39D"/>
		<stop  offset="0.4059" style="stop-color:#FFE72A"/>
		<stop  offset="0.7261" style="stop-color:#F6D933"/>
		<stop  offset="1" style="stop-color:#F8BE15"/>
	</radialGradient>
	<path fill="url(#SVGID_2_)" d="M465.273,694.246c7.727,57.421-39.772,93.121-86.939,89.421c-68-5.334-93.999-54.521-93.999-92.997
		c0-38.477,38.354-69.667,85.667-69.667C417.314,621.003,460.142,656.113,465.273,694.246z"/>
	<path fill="none" stroke="#F7941E" stroke-width="8" stroke-miterlimit="10" d="M315.667,760.333c0,0,5.335-59.331,49.335-73.997
		c28-32,66-43.333,66-43.333"/>
	<path fill="none" stroke="#F7941E" stroke-width="8" stroke-miterlimit="10" d="M439.667,765.667c0,0-36.665-47.998-74.665-79.331
		c-27.333-34.666-53.333-46.666-53.333-46.666"/>
	<path fill="none" stroke="#F7941E" stroke-width="8" stroke-miterlimit="10" d="M367.667,783.667c0,0-1.332-76.665-2.665-97.331
		c-2-26,5-65.333,5-65.333"/>
	<path fill="none" stroke="#F7941E" stroke-width="8" stroke-miterlimit="10" d="M285.002,701.003c2-14,39.333-23.333,80-17.333
		c74-7.333,100.665,12.663,100.665,12.663"/>
	<path fill="none" stroke="#ED1C24" stroke-width="2" stroke-miterlimit="10" d="M317,761.667c0,0,7.335-53.997,48.002-73.997
		c31.333-30.667,70-44.667,70-44.667"/>
	<path fill="none" stroke="#ED1C24" stroke-width="2" stroke-miterlimit="10" d="M370.333,783.667c-1-4,3.335-75.998-5.332-97.331
		c2.667-40,7.333-62.666,7.333-62.666"/>
	<path fill="none" stroke="#ED1C24" stroke-width="2" stroke-miterlimit="10" d="M465.667,697.667c0,0-47.333-22.667-100.665-9.997
		c-24.667-6.667-62.667-0.667-80,13.333"/>
	<path fill="none" stroke="#ED1C24" stroke-width="2" stroke-miterlimit="10" d="M437,769c0,0-57.998-67.33-71.998-81.33
		c-22-23.334-51.333-40.667-51.333-40.667"/>
	<polygon fill="#FBB040" points="355.668,663.669 353.668,651.002 359.668,661.669 	"/>
	<polygon fill="#FBB040" points="348.335,651.002 343.001,629.669 353.668,651.002 	"/>
	<path fill="#FBB040" d="M337.668,631.669c0-2-7.333-28-7.333-28l15.333,28H337.668z"/>
	<polygon fill="#FBB040" points="339.668,669.668 327.002,666.334 336.335,674.334 	"/>
	<polygon fill="#FBB040" points="323.002,670.334 305.668,663.001 323.668,663.001 	"/>
	<polygon fill="#FBB040" points="304.335,669.001 305.668,663.001 270.335,663.001 	"/>
	<polygon fill="#FBB040" points="288.335,673.001 261.001,675.001 285.001,680.334 	"/>
	<polygon fill="#FBB040" points="373.002,661.001 378.335,664.334 383.668,651.668 	"/>
	<polygon fill="#FBB040" points="381.668,647.668 390.335,649.001 395.668,632.334 	"/>
	<polygon fill="#FBB040" points="395.002,628.334 411.668,606.334 403.668,627.668 	"/>
	<polygon fill="#FBB040" points="332.335,692.334 321.668,695.001 333.002,697.001 	"/>
	<polygon fill="#FBB040" points="317.668,699.668 321.668,704.334 301.002,709.668 	"/>
	<path fill="#FBB040" d="M296.335,709.668l6,7.333c0,0-28.667,9.999-26.667,9.333S296.335,709.668,296.335,709.668z"/>
	<polygon fill="#FBB040" points="295.668,726.334 285.668,741.001 300.335,731.668 	"/>
	<polygon fill="#FBB040" points="397.002,673.668 407.668,669.001 395.002,670.334 	"/>
	<polygon fill="#FBB040" points="419.002,673.001 416.335,667.668 438.335,663.668 	"/>
	<polygon fill="#FBB040" points="441.668,673.668 469.668,665.668 439.668,667.001 	"/>
	<path fill="#FBB040" d="M455.002,675.668c2-0.667,16.667,1.333,16.667,1.333l-16.667,2V675.668z"/>
	<polygon fill="#FBB040" points="390.335,691.001 403.668,697.667 389.002,696.334 	"/>
	<polygon fill="#FBB040" points="403.668,702.334 421.002,706.334 407.668,697.668 	"/>
	<polygon fill="#FBB040" points="425.668,714.334 453.002,725.668 429.668,709.668 	"/>
	<polyline fill="#FBB040" points="309.002,658.334 298.335,651.668 311.002,655.001 	"/>
	<path fill="#FBB040" d="M296.335,655.001c0,0-20-13.333-18-13.333s24,10.666,24,10.666L296.335,655.001z"/>
	<polygon fill="#FBB040" points="331.002,642.334 326.335,631.668 335.002,640.334 	"/>
	<polygon fill="#FBB040" points="323.002,639.001 313.002,615.001 329.002,633.001 	"/>
	<polygon fill="#FBB040" points="351.668,625.001 351.002,604.334 356.335,623.001 	"/>
	<polygon fill="#FBB040" points="355.002,639.001 353.668,627.668 359.668,638.334 	"/>
	<polygon fill="#FBB040" points="351.002,705.001 349.668,715.668 355.668,707.001 	"/>
	<polygon fill="#FBB040" points="379.668,708.334 375.002,709.668 380.335,718.334 	"/>
	<polygon fill="#FBB040" points="345.668,719.668 344.335,737.001 352.335,721.001 	"/>
	<polygon fill="#FBB040" points="340.335,741.668 336.335,764.334 346.335,742.334 	"/>
	<polygon fill="#FBB040" points="346.335,755.001 338.335,777.668 341.668,757.668 	"/>
	<polygon fill="#FBB040" points="379.002,727.668 385.002,725.001 389.668,745.001 	"/>
	<polygon fill="#FBB040" points="386.335,750.334 395.668,769.668 392.335,749.668 	"/>
	<polygon fill="#FBB040" points="336.335,723.668 330.335,740.334 339.668,727.001 	"/>
	<polygon fill="#FBB040" points="328.335,745.001 322.335,766.334 332.335,748.334 	"/>
	<polygon fill="#FBB040" points="354.335,733.668 354.335,748.334 357.668,735.001 	"/>
	<polygon fill="#FBB040" points="351.668,752.334 349.668,770.334 355.668,753.001 	"/>
	<polygon fill="#FBB040" points="314.335,715.001 303.668,730.334 317.668,719.668 	"/>
	<polygon fill="#FBB040" points="309.668,734.334 297.668,754.334 313.002,739.001 	"/>
	<polygon fill="#FBB040" points="303.668,695.668 288.335,703.001 304.335,700.334 	"/>
	<polygon fill="#FBB040" points="285.668,707.001 266.335,713.668 289.002,711.001 	"/>
	<polygon fill="#FBB040" points="305.002,674.334 289.002,676.334 300.335,677.668 	"/>
	<polygon fill="#FBB040" points="284.335,687.001 261.668,689.668 284.335,690.67 	"/>
	<polygon fill="#FBB040" points="307.002,646.334 297.002,634.334 309.002,641.001 	"/>
	<polygon fill="#FBB040" points="377.002,636.334 384.335,623.668 381.002,639.001 	"/>
	<polygon fill="#FBB040" points="378.335,622.334 387.668,605.001 384.335,623.668 	"/>
	<polygon fill="#FBB040" points="395.668,645.001 409.002,634.334 401.002,647.001 	"/>
	<polygon fill="#FBB040" points="415.668,631.001 431.002,620.334 419.668,635.001 	"/>
	<polygon fill="#FBB040" points="376.335,743.001 381.002,758.334 379.668,743.001 	"/>
	<polygon fill="#FBB040" points="376.335,761.001 380.335,778.334 381.002,758.334 	"/>
	<polygon fill="#FBB040" points="403.668,752.334 417.002,768.334 408.335,750.334 	"/>
	<polygon fill="#FBB040" points="393.668,737.668 401.668,749.001 397.668,735.001 	"/>
	<polygon fill="#FBB040" points="411.002,719.001 429.668,726.334 417.002,716.334 	"/>
	<polygon fill="#FBB040" points="431.002,735.001 447.002,745.001 435.002,731.668 	"/>
	<polygon fill="#FBB040" points="451.668,709.001 469.668,711.668 453.002,703.668 	"/>
	<polygon fill="#FBB040" points="425.002,703.001 447.002,707.001 427.668,697.001 	"/>
	<polygon fill="#FBB040" points="418.335,657.001 421.668,663.668 439.002,657.001 	"/>
	<polygon fill="#FBB040" points="441.002,650.334 461.002,647.668 444.335,655.668 	"/>
	<linearGradient id="SVGID_3_" gradientUnits="userSpaceOnUse" x1="287.7417" y1="710.1289" x2="463" y2="710.1289">
		<stop  offset="0" style="stop-color:#FFFFFF"/>
		<stop  offset="1" style="stop-color:#651819"/>
	</linearGradient>
	<path opacity="0.4" fill="url(#SVGID_3_)" d="M313.667,636.336c-19.333,6.667-48.698,95.6,3.333,125.331
		c79.333,45.333,126.501,13.997,146-28c-40.666,11.999-83.331,29.332-111.332,18.667s-22.667-27.998-44.667-47.998
		S303.667,651.669,313.667,636.336z"/>
	<linearGradient id="SVGID_4_" gradientUnits="userSpaceOnUse" x1="342.7334" y1="680.457" x2="393.626" y2="680.457">
		<stop  offset="0" style="stop-color:#FFFFFF"/>
		<stop  offset="1" style="stop-color:#651819"/>
	</linearGradient>
	<path opacity="0.4" fill="url(#SVGID_4_)" d="M366.834,659.003c-27.366,0-37.334,46.667,2,42.666S395.501,659.003,366.834,659.003z
		"/>
</g>
<g id="Layer_8">
	<path opacity="0.3" fill="#FFFFFF" d="M1197,687c0,0-292.667,32.693-600-24c-154.492-28.499-194-78-140-126
		c-32,46,23.536,72.135,144,26c109.646-41.992,188.305-72.692,424-150C1275,331,1335,475,1197,687z"/>
	<polygon opacity="0.3" fill="#FFFFFF" points="454.001,530.001 422.502,489.503 464.5,525.501 463,503.002 470.5,519.501 
		507.998,516.501 469,533 512.498,550.999 463,540.5 467.5,571.998 455.501,546.5 418.002,548 449.501,540.5 436.002,533 	"/>
</g>
<g id="PABLO">
	
		<radialGradient id="SVGID_5_" cx="-928.3032" cy="5.5781" r="136.15" gradientTransform="matrix(-0.7398 0.5171 0.5729 0.8196 658.1099 960.7705)" gradientUnits="userSpaceOnUse">
		<stop  offset="8.370500e-04" style="stop-color:#AEC99D"/>
		<stop  offset="0.4059" style="stop-color:#31B457"/>
		<stop  offset="0.9702" style="stop-color:#008042"/>
	</radialGradient>
	<path fill="url(#SVGID_5_)" d="M1279.732,507.709c14.992-25.684,24.841-37.13,68.455-49.359
		c43.615-12.232,66.831,19.922,39.809,45.175c-27.021,25.251-57.924,5.504-75.536,11.729
		C1281.474,526.207,1273.011,519.229,1279.732,507.709z"/>
	<path fill="none" stroke="#006028" stroke-width="2.7973" stroke-miterlimit="10" d="M1301.153,491.22
		c0,0,31.565-23.582,72.383-20.17"/>
	<path fill="none" stroke="#006028" stroke-width="2.7973" stroke-miterlimit="10" d="M1301.956,498.262
		c0,0,40.433-6.967,70.392,2.514"/>
	
		<radialGradient id="SVGID_6_" cx="1306.4971" cy="-31.6851" r="385.266" gradientTransform="matrix(0.9675 -0.253 0.253 0.9675 -96.7656 872.4829)" gradientUnits="userSpaceOnUse">
		<stop  offset="8.370500e-04" style="stop-color:#AEC99D"/>
		<stop  offset="0.4059" style="stop-color:#31B457"/>
		<stop  offset="0.7261" style="stop-color:#008544"/>
		<stop  offset="1" style="stop-color:#006A30"/>
	</radialGradient>
	<path fill="url(#SVGID_6_)" d="M1279.471,623.143c1.555-0.408,39.522-32.72,30.766-123.269
		c-5.465-56.565-46.333-75.752-79.035-96.22c-32.705-20.452-93.369-17.861-157.291,7.152
		c-63.921,24.999-138.161,70.304-174.743,112.725c-31.168,36.146-38.489,70.569-74.226,14.256C816.177,523.974,781,509,761,537
		c36-6,63.484,28.609,44.301,43.932C850.58,616.123,823.877,657.837,797,661c30.243,14.641,54.786-45.194,91.697-14.904
		c47.416,38.91,208.63,60.312,253.467,51.081C1186.998,687.943,1279.471,623.143,1279.471,623.143z"/>
	<path fill="#D8E040" d="M1292.069,606.855c-8.293,6.318-48.59-14.645-107.776,34.816c-69.36,57.962-127.635,40.501-191.029,42.148
		c87.779,22.791,166.297,15.671,199.569,3.419C1269.783,658.882,1292.069,606.855,1292.069,606.855z"/>
	<path fill="#107139" d="M1144.446,406.129c1.969,3.471-2.531,9.726-10.039,13.992c-7.518,4.259-15.203,4.9-17.169,1.436
		c-1.965-3.471,2.53-9.734,10.048-13.987C1134.797,403.307,1142.484,402.661,1144.446,406.129z"/>
	<path fill="#107139" d="M1075.657,419.054c0.946,1.677-1.223,4.697-4.843,6.75c-3.628,2.057-7.332,2.369-8.282,0.696
		c-0.947-1.678,1.223-4.699,4.845-6.749C1070.998,417.695,1074.707,417.389,1075.657,419.054z"/>
	<path fill="#107139" d="M1062.931,419.504c1.298,2.297-1.678,6.437-6.648,9.25c-4.964,2.819-10.048,3.241-11.347,0.951
		c-1.3-2.293,1.672-6.433,6.644-9.255C1056.546,417.638,1061.63,417.211,1062.931,419.504z"/>
	<path fill="#107139" d="M989.792,467.756c1.302,2.295-1.676,6.435-6.642,9.25c-4.966,2.817-10.054,3.242-11.347,0.95
		c-1.301-2.292,1.669-6.439,6.639-9.252C983.41,465.893,988.496,465.46,989.792,467.756z"/>
	<path fill="#107139" d="M1024.408,461.065c1.331,1.479-0.191,5.009-3.397,7.896c-3.206,2.878-6.883,4.012-8.209,2.533
		c-1.329-1.477,0.186-5.016,3.395-7.896C1019.401,460.721,1023.075,459.583,1024.408,461.065z"/>
	
		<ellipse transform="matrix(0.7438 -0.6684 0.6684 0.7438 -106.3158 767.6428)" fill="#107139" cx="948.213" cy="522.508" rx="7.802" ry="3.6"/>
	<path fill="#107139" d="M994.116,510.042c0.918,1.023-0.135,3.459-2.347,5.449c-2.212,1.989-4.749,2.767-5.66,1.755
		c-0.922-1.028,0.127-3.469,2.336-5.455C990.66,509.804,993.202,509.023,994.116,510.042z"/>
	<path fill="#107139" d="M1203.281,400.26c0.847,0.937-0.119,3.185-2.153,5.014c-2.037,1.831-4.37,2.553-5.213,1.615
		c-0.848-0.94,0.119-3.193,2.153-5.018C1200.106,400.045,1202.439,399.321,1203.281,400.26z"/>
	<path fill="#107139" d="M1000.293,558.822c0.912,1.02-0.136,3.458-2.35,5.446c-2.205,1.986-4.744,2.778-5.663,1.75
		c-0.918-1.02,0.132-3.462,2.347-5.447C996.839,558.585,999.377,557.801,1000.293,558.822z"/>
	<path fill="#107139" d="M930.932,553.159c0.917,1.024-0.132,3.466-2.342,5.449c-2.212,1.988-4.755,2.769-5.667,1.752
		c-0.918-1.021,0.132-3.458,2.345-5.445C927.476,552.926,930.016,552.138,930.932,553.159z"/>
	<path fill="#107139" d="M1197.097,631.759c0,0-51.688,34.285-132.149,40.405c-80.46,6.115-109.411-7.76-130.357-18.097
		c-22.19-10.948-80.188-30.239-71.338-26.441c6.53,2.801,34.033,28.093,67.098,39.794
		C972.232,682.233,1114.557,715.511,1197.097,631.759z"/>
	
		<radialGradient id="SVGID_7_" cx="1247.2637" cy="117.6475" r="105.8458" gradientTransform="matrix(0.9675 -0.253 0.253 0.9675 -96.7656 872.4829)" gradientUnits="userSpaceOnUse">
		<stop  offset="0" style="stop-color:#DCCE80"/>
		<stop  offset="1" style="stop-color:#D7B928"/>
	</radialGradient>
	<path fill="url(#SVGID_7_)" d="M990.695,683.85c0,0,115.236,31.715,194.186,0.224c46.773-18.658,94.119-63.74,94.119-63.74
		s-65.51-12.819-103.431,30.248c-28.937,22.493-48.047,22.524-74.563,28.907C1074.491,685.867,990.695,683.85,990.695,683.85z"/>
	
		<radialGradient id="SVGID_8_" cx="1401.0654" cy="-34.3853" r="38.2047" gradientTransform="matrix(0.9675 -0.253 0.253 0.9675 -96.7656 872.4829)" gradientUnits="userSpaceOnUse">
		<stop  offset="0" style="stop-color:#FFFFFF"/>
		<stop  offset="1" style="stop-color:#E6E7E8"/>
	</radialGradient>
	<path fill="url(#SVGID_8_)" d="M1282.884,470.568c6.467,24.729-3.597,48.786-22.479,53.722
		c-18.876,4.935-39.433-11.116-45.896-35.842c-2.696-10.309-1.998-28.045,0.491-36.781c10-2,33.333-8.667,48.667-10
		C1270.193,448.08,1280.164,460.17,1282.884,470.568z"/>
	<path d="M1270.32,460.699c3.756,14.364-0.748,27.973-10.055,30.411c-9.308,2.433-19.897-7.233-23.653-21.597
		c-3.753-14.357,0.749-27.969,10.058-30.401C1255.976,436.678,1266.566,446.344,1270.32,460.699z"/>
	<path fill="#FFFFFF" d="M1264.535,454.997c1.438,5.507-1.85,11.12-7.354,12.56c-5.491,1.438-11.114-1.851-12.556-7.354
		c-1.433-5.499,1.857-11.118,7.349-12.553C1257.477,446.207,1263.098,449.497,1264.535,454.997z"/>
	
		<radialGradient id="SVGID_9_" cx="1251.1777" cy="-28.2729" r="37.7101" gradientTransform="matrix(0.9675 -0.253 0.253 0.9675 -96.7656 872.4829)" gradientUnits="userSpaceOnUse">
		<stop  offset="0" style="stop-color:#FFFFFF"/>
		<stop  offset="1" style="stop-color:#E6E7E8"/>
	</radialGradient>
	<path fill="url(#SVGID_9_)" d="M1139.176,513.51c6.466,24.728-3.597,48.784-22.477,53.721
		c-18.881,4.938-39.428-11.117-45.892-35.843c-1.096-4.188-2.956-15.66-3.141-19.721C1079,507,1117.667,488.334,1123,483
		C1128.04,489.001,1136.91,504.85,1139.176,513.51z"/>
	<path d="M1135.381,510.053c3.758,14.364-0.745,27.973-10.055,30.407c-9.307,2.437-19.895-7.229-23.652-21.593
		c-3.755-14.358,0.749-27.97,10.057-30.402C1121.037,486.028,1131.626,495.695,1135.381,510.053z"/>
	<path fill="#FFFFFF" d="M1128.477,504.103c1.406,5.376-1.807,10.861-7.177,12.264c-5.372,1.403-10.86-1.802-12.27-7.182
		c-1.4-5.371,1.815-10.86,7.183-12.265C1121.589,495.517,1127.076,498.729,1128.477,504.103z"/>
	<path fill="#107139" d="M985.582,594.831c26.188-4.938,53.584,10.071,31.131,17.507c-22.452,7.439-28.078,16.154-46.184,32.322
		c-16.238,14.504-19.338,8.691-33.047,7.42c-13.711-1.273-46.71-19.411-19.255-36.813
		C945.686,597.866,985.582,594.831,985.582,594.831z"/>
	
		<radialGradient id="SVGID_10_" cx="1058.7822" cy="14.0137" r="136.1516" gradientTransform="matrix(1 0.0019 -0.0019 1 -123.2881 594.5127)" gradientUnits="userSpaceOnUse">
		<stop  offset="8.370500e-04" style="stop-color:#AEC99D"/>
		<stop  offset="0.4059" style="stop-color:#31B457"/>
		<stop  offset="0.9702" style="stop-color:#008042"/>
	</radialGradient>
	<path fill="url(#SVGID_10_)" d="M1011.77,589.893c-29.894-12.523-46.093-16.293-93.486-1.426
		c-47.4,14.868-48.15,54.524-7.595,59.824c40.555,5.296,56.148-28.565,76.104-33.515
		C1021.897,606.069,1025.177,595.506,1011.77,589.893z"/>
	<path fill="none" stroke="#006028" stroke-width="2.9444" stroke-miterlimit="10" d="M981.855,588.588
		c0,0-43.629-1.329-78.58,24.782"/>
	<path fill="none" stroke="#006028" stroke-width="2.9444" stroke-miterlimit="10" d="M985.582,594.831
		c0,0-41.167,17.371-62.41,42.265"/>
	
		<radialGradient id="SVGID_11_" cx="1236.8877" cy="-13.9561" r="0" gradientTransform="matrix(0.9675 -0.253 0.253 0.9675 -96.7656 872.4829)" gradientUnits="userSpaceOnUse">
		<stop  offset="8.370500e-04" style="stop-color:#AEC99D"/>
		<stop  offset="0.4059" style="stop-color:#31B457"/>
		<stop  offset="0.7261" style="stop-color:#008544"/>
		<stop  offset="1" style="stop-color:#006A30"/>
	</radialGradient>
	<path fill="url(#SVGID_11_)" d="M1096.393,546.048"/>
	<radialGradient id="SVGID_12_" cx="1131.7324" cy="441.2241" r="83.8303" gradientUnits="userSpaceOnUse">
		<stop  offset="8.370500e-04" style="stop-color:#AEC99D"/>
		<stop  offset="0.4059" style="stop-color:#31B457"/>
		<stop  offset="0.7261" style="stop-color:#008544"/>
		<stop  offset="1" style="stop-color:#006A30"/>
	</radialGradient>
	<path fill="url(#SVGID_12_)" d="M1141,438.333c6,15.333,6,34.667-16,48s-56.001,39.999-76.667,22.666
		c11.334,2.667,19.333,2.001,38.667-8.666s35.333-16,41.333-26.667S1141,438.333,1141,438.333z"/>
	<radialGradient id="SVGID_13_" cx="1273.583" cy="431.2622" r="30.9136" gradientUnits="userSpaceOnUse">
		<stop  offset="8.370500e-04" style="stop-color:#AEC99D"/>
		<stop  offset="0.4059" style="stop-color:#31B457"/>
		<stop  offset="0.7261" style="stop-color:#008544"/>
		<stop  offset="1" style="stop-color:#006A30"/>
	</radialGradient>
	<path fill="url(#SVGID_13_)" d="M1181,430.333c0,0-2.666,19.333,27.334,24s38-23.333,79.333-6
		c-12-13.333-14.789-20.276-50.667-6.667C1217.667,449,1204.887,451.204,1181,430.333z"/>
	<g>
		<path fill="#107139" d="M1172.584,599.011c0,0-5.126,17.981,9.676,15.261c8.611-1.588,19.694-13.697,28.221-21.301
			c8.53-7.599,33.577-21.618,43.384-21.839c-10.142-4.576-21.753-3.508-35.436,0.748
			C1204.74,576.134,1184.035,585.351,1172.584,599.011z"/>
		<path fill="#F9ED32" d="M1236.243,547.781c-17.413,1.608-37.043,12.52-52.531,32.215c-15.487,19.694-12.491,34.8,4.397,26.834
			c16.891-7.968,10.683-14.125,40.09-28.825c29.409-14.696,32.086-0.267,37.005-10.849
			C1270.125,556.577,1262.32,545.379,1236.243,547.781z"/>
		<path fill="#A13422" d="M1184.962,598.401c5.142,5.724,19.069-15.602,40.332-24.805c21.262-9.202,30.491-3.646,32.314-10.288
			c1.821-6.642-20.447-11.829-38.728-1.554C1200.602,572.028,1179.747,592.603,1184.962,598.401z"/>
		<path fill="#F1B937" d="M1184.613,594.163c0,0,13.669-22.967,36.521-33.471c21.944-10.091,35.106-0.866,35.387,1.478
			c0.279,2.344-1.096,4.099-1.44,4.535c2.214,0.607,6.292-2.422,5.507-7.005c-0.786-4.585-9.59-9.239-22.458-6.751
			C1225.264,555.44,1193.945,566.086,1184.613,594.163z"/>
		<path fill="#F1B937" d="M1179.821,584.585c0,0-11.884,17.994-4.778,23.729c7.109,5.731,17.981-2.153,25.754-10.775
			c-14.794,8.909-18.941,10.038-22.547,7.062C1174.64,601.619,1179.821,584.585,1179.821,584.585z"/>
	</g>
</g>
<g id="W_x2F_O">
	<rect x="-200" y="-24" fill="#5D5E5E" width="200" height="1000"/>
	<rect x="1438" y="-24" fill="#5D5E5E" width="200" height="1000"/>
	<rect x="-166" y="-200" fill="#5D5E5E" width="1674" height="200"/>
	<rect x="-166" y="960" fill="#5D5E5E" width="1674" height="200"/>
</g>
</svg>
