<?xml version="1.0" encoding="utf-8"?>
<!-- Generator: Adobe Illustrator 15.0.2, SVG Export Plug-In . SVG Version: 6.00 Build 0)  -->
<!DOCTYPE svg PUBLIC "-//W3C//DTD SVG 1.1//EN" "http://www.w3.org/Graphics/SVG/1.1/DTD/svg11.dtd">
<svg version="1.1" id="bg" xmlns="http://www.w3.org/2000/svg" xmlns:xlink="http://www.w3.org/1999/xlink" x="0px" y="0px"
	 width="1440px" height="960px" viewBox="0 0 1440 960" enable-background="new 0 0 1440 960" xml:space="preserve">
<rect x="3.301" y="-2.783" fill="#5BC0AC" width="1452.333" height="962.783"/>
<path fill="#AEDBC3" d="M-67.275,593.345c97.137-32.801,548.542,40.522,769.48,77.185
	c220.937,36.659,755.195-108.057,780.904-144.717c25.711-36.663-7.618-36.663-7.618-36.663s-325.695,177.519-672.34,140.859
	C456.505,593.345,208.897,408.108-61.561,444.771C-332.02,481.43-67.275,593.345-67.275,593.345z"/>
<path fill="#AEDBC3" d="M-52.036,757.358c129.515-50.17,384.737-94.548,556.156-13.507
	c171.419,81.042,537.111,98.408,668.532,75.253c131.421-23.154,278.081-75.253,278.081-75.253V579.839
	c0,0-453.31,183.31-638.06,160.154c-184.749-23.154-733.291-106.132-832.333-50.17C-118.701,745.782-52.036,757.358-52.036,757.358z
	"/>
<g>
	<path fill="#3BB465" d="M439.684,959.613c0,0-38.06,20.489-54.163,32.202c-16.099,11.71-39.517-7.321-58.545,5.852
		c-19.032,13.175-24.89,24.886-24.89,24.886l-45.372-7.319c0,0-13.178-54.158,19.023-84.897
		c32.206-30.739,57.092-33.664,68.803-76.114c11.707-42.451,38.055-77.581,42.446-49.771s-20.49,89.287-42.446,101
		c-21.957,11.711-68.803,70.26-32.206,57.087c36.597-13.175,23.423-40.985,62.945-49.767c39.521-8.783,70.261-11.712,42.446,10.244
		c-27.814,21.956-49.767,58.55-20.489,45.376C426.51,955.217,439.684,959.613,439.684,959.613"/>
	<path fill="#3BB465" d="M281.597,964c0-10.245,38.06-89.293,24.886-140.521c-13.174-51.229,2.924-23.419-20.495,20.493
		c-23.418,43.914-23.423,35.131-52.695,21.957s-5.857,33.668-30.739,43.914c-24.881,10.243-27.811-40.985-54.158-43.914
		c-26.348-2.93,0,24.885-26.348,29.276c-26.348,4.392,11.711,20.49,26.348,27.811s-26.348,29.272,2.929,32.201
		c29.272,2.93,23.415,21.957,33.664,26.349s0-13.174,21.957-13.174c21.956,0,4.391,52.696,39.521,48.305
		c35.131-4.392,24.881,17.568,30.739,10.248C283.063,1019.625,281.597,964,281.597,964z"/>
	<path fill="#94CE8D" d="M265.498,1032.803c0,0-67.336-67.336-58.554-146.379c8.782-79.045,79.043-147.848,8.782-204.93
		c-77.251-62.77-93.68-357.158-32.201-175.647c61.478,181.505,105.396,158.082,73.189,301.532
		C224.51,950.83,265.498,1032.803,265.498,1032.803z"/>
	<path fill="#69BF66" d="M262.569,1032.798c0,0-39.521-68.798-30.739-147.841c8.782-79.044,64.887-138.231,0-213.707
		c-71.724-83.436-102.462-336.674-40.984-155.164c61.479,181.512,115.64,150.772,83.435,294.218
		C242.074,953.76,262.569,1032.798,262.569,1032.798z"/>
	<path fill="#94CE8D" d="M271.351,1029.869c0,0-45.375-62.939,7.321-128.81c52.696-65.87,48.304-101,45.375-166.87
		c-2.929-65.869,13.174-146.379,30.739-103.929c17.565,42.451,29.277,194.685-13.174,244.451
		C299.162,924.478,264.031,1000.592,271.351,1029.869z"/>
	<path fill="#69BF66" d="M271.351,1029.869c0,0-14.641-61.475,5.854-95.142c20.494-33.668,61.478-64.407,68.799-117.104
		c7.32-52.695-5.854-181.51,8.782-187.363c14.636-5.854,26.348,147.843,16.103,196.146
		c-10.249,48.305-62.945,106.858-79.043,134.668C275.743,988.886,271.351,1029.869,271.351,1029.869z"/>
	<path fill="#94CE8D" d="M173.28,964c0,0-8.782-68.795-39.521-103.924c-30.739-35.131-42.455-92.219-10.249-121.495
		c32.206-29.277,61.479-38.059,36.597,17.564c-24.885,55.625-17.569,86.364,7.316,117.104S173.28,964,173.28,964z"/>
	<path fill="#69BF66" d="M173.28,964c0,0,8.783-36.598-4.391-70.262c-13.174-33.662-36.597-40.983-39.521-89.287
		c-2.929-48.306,21.956-95.147,35.13-83.435c13.174,11.71-14.641,64.406-10.249,95.146s23.423,51.229,27.814,73.185
		C186.454,911.305,173.28,964,173.28,964z"/>
</g>
<path fill="#3BB465" d="M1223.821,982.613c20.81-22.891,22.89-49.943,0-56.185c-22.89-6.243-35.376-4.162-43.7-16.647
	c-8.323-12.485-10.404-29.132,2.082-31.213c12.484-2.08,10.403,16.646,22.891,16.646c12.484,0-10.406,2.081,12.484,0
	c22.89-2.08,16.646-14.565-2.081-22.89c-18.729-8.322-14.565-18.728-24.971-33.294c-10.405-14.567-66.589-24.971-41.619-47.86
	c24.972-22.891,12.486,6.243,12.486-22.891c0-29.131-52.021-31.212-24.971-41.617c27.052-10.403,68.671-4.162,56.184,27.052
	c-12.485,31.213-45.778,37.456-20.809,58.264c24.97,20.81,33.296,8.325,43.699,35.376c10.405,27.052,18.728,31.214,35.374,27.052
	c16.648-4.161,6.244-27.052,0-45.781c-6.24-18.728-33.293-8.321-20.807-27.05c12.484-18.729-8.324-41.617,0-62.426
	c8.323-20.809,24.97-20.809,24.97,14.565c0,35.375,0,35.375,12.485,60.346s14.565,45.78,8.322,60.346
	c-6.24,14.565-14.564,41.618,6.243,39.536c20.81-2.08,24.971,2.082,27.052-24.971c2.081-27.05,12.486-27.05-2.081-58.265
	c-14.564-31.213-29.132-54.103-14.564-74.912c14.564-20.808-27.053-39.535-4.163-52.021c22.89-12.484,35.377-2.081,35.377,33.295
	c0,35.375-20.811,58.264-2.082,68.668s4.162,47.861,8.323,62.428c4.163,14.565-14.564,58.265,8.324,41.617
	c22.889-16.646-4.161-37.456,18.729-62.427c22.888-24.972,29.131,16.648,37.455,16.648c8.322,0-16.646,0-24.971,8.322
	c-8.324,8.324-10.403,24.971-8.324,31.214c2.081,6.242,2.081,27.051-2.079,41.617c-4.163,14.566-13.076,21.565-33.295,16.646
	C1248.792,943.075,1223.821,982.613,1223.821,982.613z"/>
<path fill="#CAE7D4" d="M233.336,401.998c0,12.888-10.447,23.336-23.336,23.336c-12.885,0-23.336-10.448-23.336-23.336
	s10.451-23.333,23.336-23.333C222.889,378.666,233.336,389.11,233.336,401.998z"/>
<circle fill="#CAE7D4" cx="249.569" cy="358.374" r="13.19"/>
<path fill="#CAE7D4" d="M181.594,368.518c0,7.282-5.906,13.191-13.191,13.191c-7.281,0-13.188-5.909-13.188-13.191
	c0-7.282,5.906-13.191,13.188-13.191C175.688,355.327,181.594,361.236,181.594,368.518z"/>
<path fill="#CAE7D4" d="M234.353,301.558c0,7.284-5.909,13.189-13.191,13.189s-13.19-5.906-13.19-13.189s5.908-13.189,13.19-13.189
	S234.353,294.274,234.353,301.558z"/>
<path fill="#CAE7D4" d="M207.465,346.196c0,3.644-2.951,6.599-6.593,6.599c-3.644,0-6.599-2.955-6.599-6.599
	c0-3.641,2.955-6.594,6.599-6.594C204.514,339.602,207.465,342.555,207.465,346.196z"/>
<circle fill="#CAE7D4" cx="249.568" cy="316.271" r="6.595"/>
<circle fill="#CAE7D4" cx="204.93" cy="259.455" r="6.596"/>
<circle fill="#CAE7D4" cx="231.306" cy="236.627" r="6.596"/>
<circle fill="#CAE7D4" cx="206.957" cy="224.961" r="6.596"/>
<circle fill="#CAE7D4" cx="221.161" cy="212.278" r="6.596"/>
<circle fill="#CAE7D4" cx="239.423" cy="431.421" r="6.595"/>
<g>
	<circle fill="#CAE7D4" cx="1262" cy="481.999" r="17.31"/>
	<circle fill="#CAE7D4" cx="1291.35" cy="449.641" r="9.783"/>
	<circle fill="#CAE7D4" cx="1231.146" cy="457.165" r="9.783"/>
	<path fill="#CAE7D4" d="M1280.062,407.497c0,5.403-4.383,9.783-9.785,9.783c-5.4,0-9.783-4.38-9.783-9.783s4.383-9.783,9.783-9.783
		C1275.68,397.714,1280.062,402.094,1280.062,407.497z"/>
	<circle fill="#CAE7D4" cx="1255.227" cy="440.609" r="4.892"/>
	<circle fill="#CAE7D4" cx="1291.349" cy="418.41" r="4.893"/>
	<circle fill="#CAE7D4" cx="1258.238" cy="376.268" r="4.893"/>
	<circle fill="#CAE7D4" cx="1277.803" cy="359.335" r="4.893"/>
	<circle fill="#CAE7D4" cx="1259.742" cy="350.682" r="4.892"/>
	<circle fill="#CAE7D4" cx="1270.278" cy="341.274" r="4.892"/>
	<circle fill="#CAE7D4" cx="1283.824" cy="503.824" r="4.892"/>
</g>
</svg>
