<?xml version="1.0" encoding="iso-8859-1"?>
<!-- Generator: Adobe Illustrator 15.0.2, SVG Export Plug-In . SVG Version: 6.00 Build 0)  -->
<!DOCTYPE svg PUBLIC "-//W3C//DTD SVG 1.1//EN" "http://www.w3.org/Graphics/SVG/1.1/DTD/svg11.dtd">
<svg version="1.1" xmlns="http://www.w3.org/2000/svg" xmlns:xlink="http://www.w3.org/1999/xlink" x="0px" y="0px" width="1440px"
	 height="960px" viewBox="0 0 1440 960" enable-background="new 0 0 1440 960" xml:space="preserve">
<g id="toc-btn-tapped">
	<path fill="#FFFFFF" d="M667.411,264.339c0,1.104-0.896,2-2,2h-46c-1.104,0-2-0.896-2-2v-28.667c0-1.104,0.896-2,2-2h46
		c1.104,0,2,0.896,2,2V264.339z"/>
	<path fill="none" stroke="#347769" stroke-width="2" stroke-miterlimit="10" d="M667.411,264.339c0,1.104-0.896,2-2,2h-46
		c-1.104,0-2-0.896-2-2v-28.667c0-1.104,0.896-2,2-2h46c1.104,0,2,0.896,2,2V264.339z"/>
</g>
<g id="toc-btn-normal">
	<path fill="#347769" d="M570.855,265.006c0,1.104-0.896,2-2,2h-46c-1.104,0-2-0.896-2-2v-28.667c0-1.104,0.896-2,2-2h46
		c1.104,0,2,0.896,2,2V265.006z"/>
	<path fill="none" stroke="#FFFFFF" stroke-width="2" stroke-miterlimit="10" d="M570.855,265.006c0,1.104-0.896,2-2,2h-46
		c-1.104,0-2-0.896-2-2v-28.667c0-1.104,0.896-2,2-2h46c1.104,0,2,0.896,2,2V265.006z"/>
</g>
<g id="content-preview-board">
	<path fill="#347769" d="M879.189,23.34H614.855c-5.522,0-10,4.477-10,10v161.333c0,5.523,4.478,10,10,10h19.61l7.848,7.847
		l7.847-7.847h229.029c5.522,0,10-4.477,10-10V33.34C889.189,27.817,884.712,23.34,879.189,23.34"/>
	<path fill="#FFFFFF" d="M884.189,190.34c0,5.522-4.478,10-10,10H619.856c-5.522,0-10-4.478-10-10V37.673c0-5.522,4.478-10,10-10
		h254.333c5.522,0,10,4.478,10,10V190.34z"/>
</g>
<g id="Shell-btn-normal">
	<linearGradient id="SVGID_1_" gradientUnits="userSpaceOnUse" x1="777.6396" y1="411.0298" x2="775.4139" y2="485.7617">
		<stop  offset="0.5102" style="stop-color:#ECF8FE"/>
		<stop  offset="1" style="stop-color:#BBCCE6"/>
	</linearGradient>
	<path fill="url(#SVGID_1_)" d="M822.657,483.468c10.751-9.524,12.74-22.035,1.205-29.765c-0.054-0.199-0.11-0.397-0.165-0.597
		c6.197-28.519-18.314-30.148-19.99-31.699c-1.133-13.019-19.609-27.406-38.213-23.323c-8.271-11.782-27.209-13.246-34.309-2.106
		c-0.309,0.062-3.899-2.251-8.685-3.437v91.286h99.74C822.38,483.705,822.52,483.59,822.657,483.468z"/>
	<path fill="#27AAE1" d="M834.298,465.641c-0.348-5.162-3.007-9.729-7.716-13.286c4.844-25.338-13.685-30.844-19.842-32.673
		c-0.189-0.056-0.394-0.117-0.591-0.177c-1.057-5.856-4.962-11.792-10.921-16.516c-6.744-5.345-14.977-8.288-23.182-8.288
		c-1.823,0-3.642,0.148-5.428,0.442c-4.805-5.859-12.41-9.437-20.264-9.437c-6.599,0-12.311,2.494-16.023,6.918
		c-1.787-0.87-4.563-2.092-7.831-2.822v5.506c2.798,0.776,5.131,1.945,6.393,2.578c1.02,0.511,1.531,0.768,2.277,0.768
		c0.001,0,0.002,0,0.003,0l0.282-0.001l1.376-0.28l0.61-0.958c2.575-4.04,7.281-6.356,12.913-6.356
		c6.746,0,13.24,3.281,16.948,8.562l1.023,1.458l1.741-0.382c1.947-0.427,3.959-0.644,5.979-0.644
		c15.021,0,28.143,11.808,28.994,21.585l0.089,1.03l0.76,0.702c0.721,0.667,1.646,0.942,3.325,1.441
		c6.675,1.983,20.564,6.111,15.867,27.726l-0.14,0.643l0.597,2.188l0.833,0.559c4.104,2.75,6.319,6.139,6.585,10.075
		c0.336,4.983-2.607,10.619-8.075,15.463c-0.909,0.806-1.821,1.592-2.736,2.361h8.024
		C831.834,478.173,834.712,471.787,834.298,465.641z"/>
	<polygon fill="#00A79D" points="729.53,408.835 728.478,408.643 722.501,441.33 722.501,447.28 	"/>
	<polygon fill="#00A79D" points="759.314,412.977 758.32,412.582 729.96,483.826 731.111,483.826 	"/>
	<polygon fill="#00A79D" points="795.783,432.601 794.965,431.911 751.115,483.826 752.518,483.826 	"/>
	<polygon fill="#00A79D" points="810.343,460.112 809.706,459.251 776.438,483.826 778.241,483.826 	"/>
	<g>
		<circle fill="#FFFFFF" stroke="#000000" stroke-width="1.0706" stroke-miterlimit="10" cx="742.621" cy="435.965" r="16.862"/>
		<circle cx="743.976" cy="428.517" r="9.903"/>
		<circle fill="#FFFFFF" cx="745.485" cy="424.021" r="4.282"/>
	</g>
	<g>
		<circle fill="#FFFFFF" stroke="#000000" stroke-width="1.0706" stroke-miterlimit="10" cx="790.778" cy="453.628" r="16.861"/>
		<circle cx="792.654" cy="446.293" r="9.903"/>
		<circle fill="#FFFFFF" cx="794.477" cy="441.916" r="4.282"/>
	</g>
	<rect x="722.501" y="379.159" fill="none" width="137" height="104.667"/>
</g>
<g id="Shell-btn-Tab_state">
	<linearGradient id="SVGID_2_" gradientUnits="userSpaceOnUse" x1="793.79" y1="549.7051" x2="790.9124" y2="646.3273">
		<stop  offset="0.5102" style="stop-color:#ECF8FE"/>
		<stop  offset="1" style="stop-color:#BBCCE6"/>
	</linearGradient>
	<path fill="url(#SVGID_2_)" d="M851.995,643.363c13.9-12.314,16.472-28.49,1.558-38.483c-0.069-0.258-0.143-0.515-0.213-0.771
		c8.013-36.873-23.68-38.979-25.846-40.985c-1.465-16.832-25.354-35.434-49.406-30.154c-10.694-15.234-35.18-17.127-44.358-2.724
		c-0.399,0.08-5.042-2.911-11.229-4.443v118.024h128.956C851.637,643.67,851.817,643.521,851.995,643.363z"/>
	<path fill="#27AAE1" d="M867.046,620.313c-0.45-6.674-3.888-12.578-9.977-17.177c6.263-32.76-17.692-39.878-25.653-42.244
		c-0.245-0.073-0.509-0.151-0.765-0.229c-1.366-7.572-6.415-15.246-14.119-21.354c-8.72-6.91-19.364-10.716-29.973-10.716
		c-2.357,0-4.708,0.191-7.018,0.572c-6.212-7.576-16.045-12.201-26.199-12.201c-8.531,0-15.916,3.224-20.717,8.944
		c-2.311-1.125-5.9-2.704-10.125-3.648v7.118c3.617,1.005,6.634,2.516,8.265,3.333c1.318,0.662,1.98,0.994,2.945,0.994
		c0.001,0,0.002,0,0.003,0l0.365-0.001l1.779-0.362l0.789-1.239c3.329-5.222,9.414-8.218,16.695-8.218
		c8.723,0,17.119,4.24,21.913,11.069l1.323,1.886l2.251-0.493c2.518-0.552,5.119-0.832,7.729-0.832
		c19.421,0,36.387,15.266,37.487,27.906l0.115,1.333l0.982,0.906c0.932,0.864,2.127,1.219,4.299,1.864
		c8.63,2.564,26.588,7.901,20.516,35.847l-0.181,0.831l0.771,2.828l1.077,0.723c5.307,3.555,8.17,7.938,8.514,13.026
		c0.434,6.441-3.371,13.729-10.441,19.992c-1.175,1.041-2.354,2.058-3.537,3.053h10.375
		C863.859,636.519,867.581,628.261,867.046,620.313z"/>
	<polygon fill="#00A79D" points="731.589,546.87 730.229,546.62 722.501,588.882 722.501,596.574 	"/>
	<polygon fill="#00A79D" points="770.098,552.224 768.812,551.713 732.145,643.826 733.634,643.826 	"/>
	<polygon fill="#00A79D" points="817.249,577.597 816.191,576.703 759.497,643.826 761.311,643.826 	"/>
	<polygon fill="#00A79D" points="836.073,613.166 835.25,612.053 792.238,643.826 794.568,643.826 	"/>
	<g>
		<circle fill="#FFFFFF" stroke="#000000" stroke-width="1.0706" stroke-miterlimit="10" cx="748.515" cy="581.945" r="21.801"/>
		<circle cx="750.266" cy="572.315" r="12.803"/>
		<path fill="#FFFFFF" d="M752.429,560.971c3.056,0.115,5.438,2.687,5.322,5.742c-0.115,3.056-2.688,5.439-5.744,5.323
			c-3.053-0.116-5.438-2.688-5.321-5.743C746.802,563.235,749.373,560.854,752.429,560.971z"/>
	</g>
	<g>
		<circle fill="#FFFFFF" stroke="#000000" stroke-width="1.0706" stroke-miterlimit="10" cx="810.778" cy="604.783" r="21.8"/>
		<circle cx="813.204" cy="595.299" r="12.804"/>
		<circle fill="#FFFFFF" cx="815.56" cy="589.64" r="5.536"/>
	</g>
	<rect x="722.501" y="508.5" fill="none" width="177.13" height="135.326"/>
</g>
<g id="menu_bar">
	<g>
		<defs>
			<rect id="SVGID_3_" x="72" y="745.492" width="964.5" height="88.084"/>
		</defs>
		<clipPath id="SVGID_4_">
			<use xlink:href="#SVGID_3_"  overflow="visible"/>
		</clipPath>
		
			<linearGradient id="SVGID_5_" gradientUnits="userSpaceOnUse" x1="-1.2554" y1="955.8281" x2="-0.2554" y2="955.8281" gradientTransform="matrix(0 67.5166 67.5166 0 -63980 848.1875)">
			<stop  offset="0" style="stop-color:#83CEBF"/>
			<stop  offset="0.0152" style="stop-color:#83CEBF"/>
			<stop  offset="0.2917" style="stop-color:#57B2A0"/>
			<stop  offset="0.3443" style="stop-color:#56AE9C"/>
			<stop  offset="0.9137" style="stop-color:#357769"/>
			<stop  offset="0.9947" style="stop-color:#357769"/>
			<stop  offset="1" style="stop-color:#357769"/>
		</linearGradient>
		<rect x="72" y="745.492" clip-path="url(#SVGID_4_)" fill="url(#SVGID_5_)" width="964.5" height="88.084"/>
	</g>
	<line fill="none" stroke="#095E43" stroke-width="2" stroke-miterlimit="10" x1="72" y1="745.493" x2="1036.5" y2="745.493"/>
	<line fill="none" stroke="#C8E8E3" stroke-width="2" stroke-miterlimit="10" x1="72" y1="746.66" x2="1036.5" y2="746.66"/>
</g>
<g id="btn-bar">
	<g>
		<defs>
			<rect id="SVGID_6_" x="495.673" y="713.985" width="210.72" height="150.72"/>
		</defs>
		<clipPath id="SVGID_7_">
			<use xlink:href="#SVGID_6_"  overflow="visible"/>
		</clipPath>
		<g transform="matrix(1 0 0 1 3.051758e-05 0)" clip-path="url(#SVGID_7_)">
			
				<image overflow="visible" width="878" height="628" xlink:href="A8513CA1.png"  transform="matrix(0.24 0 0 0.24 495.6729 713.9854)">
			</image>
		</g>
	</g>
	<g>
		<defs>
			<path id="SVGID_8_" d="M535.24,749.985c-1.97,0-3.567,1.597-3.567,3.567v71.364c0,1.97,1.597,3.569,3.567,3.569h131.364
				c1.971,0,3.568-1.6,3.568-3.569v-71.364c0-1.971-1.598-3.567-3.568-3.567H535.24z"/>
		</defs>
		<clipPath id="SVGID_9_">
			<use xlink:href="#SVGID_8_"  overflow="visible"/>
		</clipPath>
		
			<linearGradient id="SVGID_10_" gradientUnits="userSpaceOnUse" x1="-0.4487" y1="959.8008" x2="0.5513" y2="959.8008" gradientTransform="matrix(0 193.5315 193.5315 0 -185150.6094 803.5)">
			<stop  offset="0" style="stop-color:#8CD1C8"/>
			<stop  offset="0.2194" style="stop-color:#8CD1C8"/>
			<stop  offset="0.8608" style="stop-color:#357769"/>
			<stop  offset="1" style="stop-color:#357769"/>
		</linearGradient>
		<rect x="531.673" y="749.985" clip-path="url(#SVGID_9_)" fill="url(#SVGID_10_)" width="138.499" height="78.501"/>
	</g>
	<path fill="none" stroke="#CBCCCE" stroke-miterlimit="10" d="M670.172,824.917c0,1.971-1.598,3.568-3.568,3.568H535.24
		c-1.97,0-3.568-1.598-3.568-3.568v-71.364c0-1.97,1.598-3.567,3.568-3.567h131.364c1.971,0,3.568,1.598,3.568,3.567V824.917z"/>
</g>
<g id="replay-btn-small-tapped">
	<linearGradient id="SVGID_11_" gradientUnits="userSpaceOnUse" x1="489.7983" y1="635.0801" x2="489.7983" y2="547.5449">
		<stop  offset="0" style="stop-color:#57B399"/>
		<stop  offset="0.0082" style="stop-color:#57B399"/>
		<stop  offset="1" style="stop-color:#9DD1C7"/>
	</linearGradient>
	<path fill="url(#SVGID_11_)" d="M448.729,547.545c-8.383,0-15.18,6.795-15.18,15.18v57.178c0,8.383,6.797,15.178,15.18,15.178
		h82.14c8.383,0,15.179-6.795,15.179-15.178v-57.178c0-8.385-6.796-15.18-15.179-15.18H448.729z"/>
	<linearGradient id="SVGID_12_" gradientUnits="userSpaceOnUse" x1="462.2798" y1="589.6309" x2="521.0698" y2="589.6309">
		<stop  offset="0" style="stop-color:#11AE7C"/>
		<stop  offset="1" style="stop-color:#008760"/>
	</linearGradient>
	<path fill="url(#SVGID_12_)" d="M493.004,557.559l-19.016,9.593c0,0-0.664,0.164-0.664,0.454c0,0.292,0.54,0.457,0.54,0.457
		l20.218,12.206l0.831-0.249l-1.086-7.189c9.902,1.074,17.612,9.457,17.612,19.645c0,10.916-8.849,19.764-19.764,19.764
		c-10.914,0-19.763-8.848-19.763-19.764c0-1.344,0.137-2.656,0.396-3.924c1.598-9.193-7.205-10.356-9.184-3.036
		c-0.545,2.231-0.844,4.562-0.844,6.96c0,16.234,13.16,29.395,29.395,29.395c16.235,0,29.395-13.16,29.395-29.395
		c0-15.209-11.551-27.719-26.359-29.237l0.95-5.845L493.004,557.559z"/>
	<path fill="#4DBBA5" d="M492.941,613.877c10.903,0,19.742-8.838,19.742-19.74c0-3.812-1.084-7.373-2.956-10.389
		c1.331,2.658,2.085,5.656,2.085,8.83c0,10.916-8.849,19.764-19.763,19.764c-6.946,0-13.05-3.586-16.574-9.006
		C478.782,609.604,485.361,613.877,492.941,613.877"/>
	<linearGradient id="SVGID_13_" gradientUnits="userSpaceOnUse" x1="494.6748" y1="569.207" x2="515.4541" y2="569.207">
		<stop  offset="0" style="stop-color:#7ECDC1"/>
		<stop  offset="1" style="stop-color:#10AE7C"/>
	</linearGradient>
	<path fill="url(#SVGID_13_)" d="M494.675,564.75c5.989,0.264,12.72,5.015,17.178,8.379c1.803,1.358,1.703,1.658,3.601,1.996
		c-4.783-6.505-12.284-10.963-20.748-11.836C494.706,563.787,494.685,564.211,494.675,564.75"/>
	<path fill="#7FCDC1" d="M464.604,593.762c0-2.607,0.35-5.133,0.995-7.537c0.656-2.303,1.964-4.607,3.365-5.135
		c-3.985,0-5.17,3.486-5.342,4.467c-0.545,2.232-0.844,4.561-0.844,6.961c0,11.309,6.39,21.119,15.754,26.035
		C470.181,613.457,464.604,604.262,464.604,593.762"/>
	<path fill="#7FCDC1" d="M473.324,567.605c0,0,0.623,0.748,1.495,0.498c0.871-0.248,19.991-9.777,20.551-10.275
		c0.561-0.498-1.556-0.311-2.491,0C491.946,558.139,474.321,566.795,473.324,567.605"/>
	<linearGradient id="SVGID_14_" gradientUnits="userSpaceOnUse" x1="481.52" y1="597.582" x2="521.4248" y2="597.582">
		<stop  offset="0" style="stop-color:#1E735C"/>
		<stop  offset="1" style="stop-color:#11AE7C"/>
	</linearGradient>
	<path fill="url(#SVGID_14_)" d="M512.434,574.082c4.201,4.998,6.997,11.688,6.997,18.725c0,15.879-13.212,28.648-29.089,28.648
		c-3.078,0-6.041-0.49-8.822-1.387c3.231,1.215,6.73,1.886,10.385,1.886c16.304,0,29.52-13.218,29.52-29.521
		c0-7.409-3.049-14.04-7.559-19.223C513.272,573.615,513.053,573.719,512.434,574.082"/>
</g>
<g id="replay-btn-small-normal">
	<path fill="#408B7D" d="M546.049,458.695c0,8.385-6.797,15.18-15.18,15.18h-82.14c-8.383,0-15.18-6.795-15.18-15.18V401.52
		c0-8.385,6.797-15.181,15.18-15.181h82.14c8.383,0,15.18,6.796,15.18,15.181V458.695z"/>
	<path fill="#8BC1B8" d="M546.049,457.035c0,8.383-6.797,15.181-15.18,15.181h-82.14c-8.383,0-15.18-6.798-15.18-15.181v-57.178
		c0-8.385,6.797-15.18,15.18-15.18h82.14c8.383,0,15.18,6.795,15.18,15.18V457.035z"/>
	<path fill="#9DD1C7" d="M546.049,399.857c0-8.385-6.797-15.181-15.18-15.181h-82.14c-8.383,0-15.18,6.796-15.18,15.181v28.968
		h112.5V399.857z"/>
	<line fill="#9DD1C7" x1="546.049" y1="428.824" x2="433.549" y2="428.824"/>
	<linearGradient id="SVGID_15_" gradientUnits="userSpaceOnUse" x1="462.7788" y1="427.0054" x2="521.5679" y2="427.0054">
		<stop  offset="0" style="stop-color:#11AE7C"/>
		<stop  offset="1" style="stop-color:#008760"/>
	</linearGradient>
	<path fill="url(#SVGID_15_)" d="M493.502,394.934l-19.015,9.59c0,0-0.665,0.166-0.665,0.457s0.54,0.457,0.54,0.457l20.22,12.205
		l0.83-0.248l-1.087-7.188c9.902,1.071,17.611,9.457,17.611,19.644c0,10.914-8.847,19.762-19.763,19.762
		c-10.914,0-19.762-8.848-19.762-19.762c0-1.346,0.137-2.656,0.394-3.925c1.598-9.194-7.204-10.358-9.183-3.036
		c-0.545,2.233-0.843,4.562-0.843,6.961c0,16.233,13.16,29.396,29.394,29.396c16.235,0,29.395-13.162,29.395-29.396
		c0-15.211-11.55-27.721-26.359-29.24l0.951-5.844L493.502,394.934z"/>
	<path fill="#4DBBA5" d="M493.439,451.252c10.904,0,19.742-8.838,19.742-19.741c0-3.813-1.083-7.37-2.954-10.388
		c1.329,2.656,2.083,5.654,2.083,8.83c0,10.914-8.848,19.764-19.763,19.764c-6.945,0-13.05-3.588-16.574-9.006
		C479.282,446.98,485.86,451.252,493.439,451.252"/>
	<linearGradient id="SVGID_16_" gradientUnits="userSpaceOnUse" x1="495.1729" y1="406.5825" x2="515.9521" y2="406.5825">
		<stop  offset="0" style="stop-color:#7ECDC1"/>
		<stop  offset="1" style="stop-color:#10AE7C"/>
	</linearGradient>
	<path fill="url(#SVGID_16_)" d="M495.173,402.125c5.989,0.264,12.721,5.016,17.179,8.378c1.801,1.358,1.702,1.658,3.6,1.999
		c-4.784-6.508-12.284-10.966-20.747-11.839C495.205,401.161,495.184,401.586,495.173,402.125"/>
	<path fill="#7FCDC1" d="M465.103,431.137c0-2.606,0.349-5.135,0.994-7.539c0.656-2.301,1.964-4.606,3.365-5.135
		c-3.985,0-5.169,3.488-5.341,4.469c-0.545,2.23-0.845,4.56-0.845,6.959c0,11.31,6.39,21.121,15.755,26.037
		C470.679,450.831,465.103,441.637,465.103,431.137"/>
	<path fill="#7FCDC1" d="M473.821,404.98c0,0,0.624,0.746,1.495,0.498c0.872-0.25,19.991-9.778,20.552-10.275
		c0.56-0.499-1.557-0.312-2.491,0S474.818,404.171,473.821,404.98"/>
	<linearGradient id="SVGID_17_" gradientUnits="userSpaceOnUse" x1="482.0181" y1="434.9565" x2="521.9229" y2="434.9565">
		<stop  offset="0" style="stop-color:#1E735C"/>
		<stop  offset="1" style="stop-color:#11AE7C"/>
	</linearGradient>
	<path fill="url(#SVGID_17_)" d="M512.932,411.458c4.201,4.997,6.997,11.685,6.997,18.726c0,15.875-13.212,28.646-29.089,28.646
		c-3.078,0-6.041-0.49-8.822-1.388c3.232,1.217,6.73,1.887,10.386,1.887c16.302,0,29.519-13.217,29.519-29.52
		c0-7.41-3.048-14.039-7.558-19.224C513.77,410.989,513.553,411.092,512.932,411.458"/>
</g>
<g id="replay-btn-big-tapped">
	<linearGradient id="SVGID_18_" gradientUnits="userSpaceOnUse" x1="211.0474" y1="660.6338" x2="211.0474" y2="545.71">
		<stop  offset="0" style="stop-color:#57B399"/>
		<stop  offset="0.0082" style="stop-color:#57B399"/>
		<stop  offset="1" style="stop-color:#9DD1C7"/>
	</linearGradient>
	<path fill="url(#SVGID_18_)" d="M109.575,545.71c-11.006,0-19.929,8.922-19.929,19.928v75.068c0,11.006,8.923,19.928,19.929,19.928
		h202.943c11.007,0,19.93-8.922,19.93-19.928v-75.068c0-11.006-8.923-19.928-19.93-19.928H109.575z"/>
	<g>
		<linearGradient id="SVGID_19_" gradientUnits="userSpaceOnUse" x1="163.8818" y1="601.5605" x2="253.522" y2="601.5605">
			<stop  offset="0" style="stop-color:#11AE7C"/>
			<stop  offset="1" style="stop-color:#008760"/>
		</linearGradient>
		<path fill="url(#SVGID_19_)" d="M210.728,552.658l-28.995,14.625c0,0-1.013,0.251-1.013,0.694c0,0.444,0.823,0.696,0.823,0.696
			l30.831,18.613l1.266-0.381l-1.657-10.961c15.098,1.635,26.852,14.418,26.852,29.952c0,16.642-13.491,30.135-30.133,30.135
			c-16.642,0-30.133-13.493-30.133-30.135c0-2.05,0.209-4.05,0.603-5.983c2.435-14.021-10.986-15.793-14.004-4.629
			c-0.831,3.405-1.286,6.953-1.286,10.614c0,24.752,20.066,44.817,44.82,44.817c24.753,0,44.82-20.065,44.82-44.817
			c0-23.192-17.612-42.269-40.191-44.587l1.448-8.907L210.728,552.658z"/>
		<path fill="#4DBBA5" d="M210.632,638.531c16.625,0,30.102-13.475,30.102-30.102c0-5.812-1.652-11.236-4.507-15.84
			c2.029,4.053,3.178,8.625,3.178,13.465c0,16.645-13.491,30.133-30.133,30.133c-10.591,0-19.899-5.467-25.272-13.729
			C189.044,632.016,199.075,638.531,210.632,638.531"/>
		<linearGradient id="SVGID_20_" gradientUnits="userSpaceOnUse" x1="213.2769" y1="570.4199" x2="244.959" y2="570.4199">
			<stop  offset="0" style="stop-color:#7ECDC1"/>
			<stop  offset="1" style="stop-color:#10AE7C"/>
		</linearGradient>
		<path fill="url(#SVGID_20_)" d="M213.277,563.627c9.132,0.398,19.395,7.645,26.191,12.771c2.749,2.07,2.597,2.53,5.491,3.047
			c-7.294-9.922-18.731-16.719-31.635-18.051C213.324,562.154,213.292,562.803,213.277,563.627"/>
		<path fill="#7FCDC1" d="M167.426,607.861c0-3.979,0.533-7.828,1.516-11.494c1-3.51,2.994-7.023,5.131-7.83
			c-6.077,0-7.881,5.316-8.146,6.812c-0.83,3.402-1.287,6.953-1.287,10.611c0,17.244,9.744,32.203,24.021,39.701
			C175.927,637.891,167.426,623.869,167.426,607.861"/>
		<path fill="#7FCDC1" d="M180.72,567.979c0,0,0.951,1.139,2.28,0.758c1.329-0.379,30.482-14.908,31.336-15.668
			c0.855-0.758-2.374-0.475-3.798,0C209.113,553.545,182.24,566.742,180.72,567.979"/>
		<linearGradient id="SVGID_21_" gradientUnits="userSpaceOnUse" x1="193.2178" y1="613.6836" x2="254.063" y2="613.6836">
			<stop  offset="0" style="stop-color:#1E735C"/>
			<stop  offset="1" style="stop-color:#11AE7C"/>
		</linearGradient>
		<path fill="url(#SVGID_21_)" d="M240.355,577.854c6.405,7.621,10.667,17.818,10.667,28.553c0,24.209-20.144,43.678-44.353,43.678
			c-4.693,0-9.212-0.746-13.451-2.111c4.927,1.852,10.26,2.871,15.836,2.871c24.858,0,45.009-20.149,45.009-45.01
			c0-11.299-4.647-21.407-11.524-29.31C241.633,577.138,241.301,577.298,240.355,577.854"/>
	</g>
</g>
<g id="replay-btn-big-normal">
	<path fill="#408B7D" d="M333.613,481.162c0,11.008-8.922,19.932-19.929,19.932H110.741c-11.007,0-19.929-8.924-19.929-19.932
		v-75.064c0-11.006,8.922-19.929,19.929-19.929h202.943c11.007,0,19.929,8.923,19.929,19.929V481.162z"/>
	<path fill="#8BC1B8" d="M333.448,479.006c0,11.006-8.923,19.928-19.93,19.928H110.575c-11.006,0-19.929-8.922-19.929-19.928
		v-75.066c0-11.008,8.923-19.93,19.929-19.93h202.943c11.007,0,19.93,8.922,19.93,19.93V479.006z"/>
	<path fill="#9DD1C7" d="M333.448,403.939c0-11.008-8.923-19.93-19.93-19.93H110.575c-11.006,0-19.929,8.922-19.929,19.93v38.03
		h242.802V403.939z"/>
	<line fill="#9DD1C7" x1="333.448" y1="441.969" x2="90.646" y2="441.969"/>
	<g>
		<linearGradient id="SVGID_22_" gradientUnits="userSpaceOnUse" x1="162.8818" y1="440.061" x2="252.522" y2="440.061">
			<stop  offset="0" style="stop-color:#11AE7C"/>
			<stop  offset="1" style="stop-color:#008760"/>
		</linearGradient>
		<path fill="url(#SVGID_22_)" d="M209.728,391.158l-28.995,14.625c0,0-1.013,0.251-1.013,0.694c0,0.444,0.823,0.696,0.823,0.696
			l30.831,18.613l1.266-0.381l-1.657-10.961c15.098,1.635,26.852,14.418,26.852,29.952c0,16.642-13.491,30.135-30.133,30.135
			c-16.642,0-30.133-13.493-30.133-30.135c0-2.05,0.209-4.05,0.603-5.983c2.435-14.021-10.986-15.793-14.004-4.629
			c-0.831,3.405-1.286,6.953-1.286,10.614c0,24.752,20.066,44.817,44.82,44.817c24.753,0,44.82-20.065,44.82-44.817
			c0-23.192-17.612-42.269-40.191-44.587l1.448-8.907L209.728,391.158z"/>
		<path fill="#4DBBA5" d="M209.632,477.031c16.625,0,30.102-13.475,30.102-30.102c0-5.812-1.652-11.236-4.507-15.84
			c2.029,4.053,3.178,8.625,3.178,13.465c0,16.645-13.491,30.133-30.133,30.133c-10.591,0-19.899-5.467-25.272-13.729
			C188.044,470.516,198.075,477.031,209.632,477.031"/>
		<linearGradient id="SVGID_23_" gradientUnits="userSpaceOnUse" x1="212.2769" y1="408.9199" x2="243.959" y2="408.9199">
			<stop  offset="0" style="stop-color:#7ECDC1"/>
			<stop  offset="1" style="stop-color:#10AE7C"/>
		</linearGradient>
		<path fill="url(#SVGID_23_)" d="M212.277,402.127c9.132,0.398,19.395,7.645,26.191,12.771c2.749,2.07,2.597,2.53,5.491,3.047
			c-7.294-9.922-18.731-16.719-31.635-18.051C212.324,400.654,212.292,401.303,212.277,402.127"/>
		<path fill="#7FCDC1" d="M166.426,446.361c0-3.979,0.533-7.828,1.516-11.494c1-3.51,2.994-7.023,5.131-7.83
			c-6.077,0-7.881,5.316-8.146,6.812c-0.83,3.402-1.287,6.953-1.287,10.611c0,17.244,9.744,32.203,24.021,39.701
			C174.927,476.391,166.426,462.369,166.426,446.361"/>
		<path fill="#7FCDC1" d="M179.72,406.479c0,0,0.951,1.139,2.28,0.758c1.329-0.379,30.482-14.908,31.336-15.668
			c0.855-0.758-2.374-0.475-3.798,0C208.113,392.045,181.24,405.242,179.72,406.479"/>
		<linearGradient id="SVGID_24_" gradientUnits="userSpaceOnUse" x1="192.2178" y1="452.1841" x2="253.063" y2="452.1841">
			<stop  offset="0" style="stop-color:#1E735C"/>
			<stop  offset="1" style="stop-color:#11AE7C"/>
		</linearGradient>
		<path fill="url(#SVGID_24_)" d="M239.355,416.354c6.405,7.621,10.667,17.818,10.667,28.553c0,24.209-20.144,43.678-44.353,43.678
			c-4.693,0-9.212-0.746-13.451-2.111c4.927,1.852,10.26,2.871,15.836,2.871c24.858,0,45.009-20.149,45.009-45.01
			c0-11.299-4.647-21.407-11.524-29.31C240.633,415.638,240.301,415.798,239.355,416.354"/>
	</g>
</g>
<g id="arrow-left-tapped">
	<g>
		<defs>
			<path id="SVGID_25_" d="M137.543,210.242L91.06,256.725c-2.108,2.109-2.636,4.92,0.087,7.644l45.957,45.957
				c3.076,3.076,7.094,1.655,6.414-0.438c-1.79-5.509-6.599-22.446-8.598-29.524h22.657c5.825,0,10.544-4.722,10.544-10.545v-18.276
				c0-5.823-4.72-10.545-10.544-10.545h-23.012c1.44-4.909,6.764-23.102,7.37-25.834c0.52-2.331,1.038-7.048-1.047-7.048
				C140.146,208.115,139.069,208.717,137.543,210.242"/>
		</defs>
		<clipPath id="SVGID_26_">
			<use xlink:href="#SVGID_25_"  overflow="visible"/>
		</clipPath>
		<rect x="88.424" y="208.114" clip-path="url(#SVGID_26_)" fill="#1A7C69" width="79.698" height="105.287"/>
	</g>
	<path fill="#388C7C" d="M134.38,242.402h22.583c5.447,0,9.929,3.778,9.929,10.281v18.102c0,2.987-2.636,5.711-2.636,5.711
		s0.703-2.636,0.703-5.272v-17.749c0-2.198-2.372-8.523-11.422-8.523h-22.319L134.38,242.402z"/>
	<path fill="#388C7C" d="M139.564,220.083c0,0,0.791-7.556-4.305-2.46c-5.097,5.096-41.211,41.212-43.408,43.408
		c-2.285-1.846-1.143-2.549,2.46-6.152l42.881-42.881C140.267,208.923,143.519,208.66,139.564,220.083"/>
	<path fill="#1C8570" d="M134.92,280.362c0,0,8.691,28.383,8.599,30.139c-0.066,1.253-1.718,2.579-2.988-1.229
		c-1.582-4.745-7.716-24.872-8.259-26.977C131.59,279.658,134.92,280.362,134.92,280.362"/>
</g>
<g id="arrow-right-tapped">
	<path fill="#1A7C69" d="M263.008,209.391c0,0,2.049-3.251,4.685-1.143s48.328,47.45,48.328,47.45s2.988,2.988-0.176,6.854
		c-3.163,3.866-46.396,46.571-48.329,48.329c-1.933,1.757-3.866,0.352-3.514-2.636c0.351-2.988,7.959-29.349,7.959-29.349
		s-14.515,0-23.012,0s-10.43-6.326-10.43-8.962l-0.175-20.737c0,0,1.054-9.139,10.017-9.49c8.962-0.352,22.67-0.527,22.67-0.527
		S263.008,210.709,263.008,209.391z"/>
	<path fill="#388C7C" d="M271.881,240.292h-22.583c-5.447,0-9.929,3.778-9.929,10.281v18.102c0,2.987,2.636,5.711,2.636,5.711
		s-0.704-2.636-0.704-5.272v-17.749c0-2.198,2.373-8.523,11.423-8.523h22.319L271.881,240.292z"/>
	<path fill="#388C7C" d="M266.697,217.973c0,0-0.791-7.556,4.305-2.46c5.097,5.096,41.211,41.211,43.408,43.408
		c2.285-1.846,1.143-2.549-2.46-6.152l-42.881-42.881C265.995,206.814,262.743,206.551,266.697,217.973"/>
	<path fill="#1C8570" d="M271.342,278.252c0,0-8.691,28.383-8.599,30.139c0.066,1.253,1.719,2.579,2.988-1.229
		c1.582-4.745,7.716-24.872,8.26-26.977C274.672,277.549,271.342,278.252,271.342,278.252"/>
</g>
<g id="arrow-left-normal">
	<g>
		<path fill="#16AA8E" d="M134.996,117.714c0,0-2.048,3.251-4.685,1.143s-48.328-47.45-48.328-47.45s-2.988-2.988,0.176-6.854
			c3.163-3.866,46.396-46.572,48.329-48.329c1.933-1.757,3.865-0.352,3.514,2.636c-0.351,2.988-7.959,29.35-7.959,29.35
			s14.515,0,23.012,0c8.497,0,10.43,6.326,10.43,8.962l0.175,20.737c0,0-1.054,9.138-10.017,9.49s-22.67,0.527-22.67,0.527
			S134.996,116.396,134.996,117.714z"/>
		<path fill="#4DBBA5" d="M125.242,50.143h22.583c5.447,0,9.929,3.778,9.929,10.281v18.102c0,2.987-2.636,5.711-2.636,5.711
			s0.703-2.636,0.703-5.272V61.214c0-2.198-2.373-8.523-11.423-8.523h-22.319L125.242,50.143z"/>
		<path fill="#4DBBA5" d="M130.426,27.823c0,0,0.791-7.556-4.305-2.46c-5.097,5.096-41.212,41.211-43.408,43.408
			c-2.285-1.847-1.143-2.549,2.46-6.152l42.881-42.881C131.128,16.664,134.38,16.4,130.426,27.823"/>
		<path fill="#1C8570" d="M125.782,88.103c0,0,8.691,28.383,8.599,30.139c-0.066,1.253-1.718,2.58-2.988-1.229
			c-1.582-4.745-7.716-24.872-8.259-26.977C122.452,87.399,125.782,88.103,125.782,88.103"/>
	</g>
</g>
<g id="arrow-right-normal">
	<path fill="#16AA8E" d="M273.025,16.956c0,0,2.048-3.251,4.685-1.143s48.328,47.45,48.328,47.45s2.988,2.988-0.176,6.854
		c-3.163,3.866-46.396,46.571-48.329,48.329c-1.933,1.757-3.865,0.352-3.514-2.636s7.959-29.349,7.959-29.349s-14.515,0-23.012,0
		c-8.497,0-10.43-6.326-10.43-8.962l-0.175-20.737c0,0,1.054-9.138,10.017-9.49c8.963-0.352,22.67-0.527,22.67-0.527
		S273.025,18.274,273.025,16.956z"/>
	<path fill="#4DBBA5" d="M281.723,48.737h-22.583c-5.447,0-9.929,3.778-9.929,10.281v18.102c0,2.987,2.636,5.711,2.636,5.711
		s-0.703-2.636-0.703-5.272v-17.75c0-2.197,2.373-8.523,11.423-8.523h22.319L281.723,48.737z"/>
	<path fill="#4DBBA5" d="M276.539,26.418c0,0-0.791-7.557,4.305-2.46c5.097,5.096,41.212,41.212,43.408,43.408
		c2.285-1.846,1.143-2.548-2.46-6.151l-42.881-42.881C275.837,15.259,272.585,14.995,276.539,26.418"/>
	<path fill="#1C8570" d="M281.184,86.697c0,0-8.691,28.383-8.599,30.139c0.066,1.252,1.719,2.579,2.988-1.229
		c1.582-4.745,7.716-24.872,8.259-26.977C284.514,85.994,281.184,86.697,281.184,86.697"/>
</g>
</svg>
