<?xml version="1.0" encoding="utf-8"?>
<!-- Generator: Adobe Illustrator 16.0.0, SVG Export Plug-In . SVG Version: 6.00 Build 0)  -->
<!DOCTYPE svg PUBLIC "-//W3C//DTD SVG 1.1//EN" "http://www.w3.org/Graphics/SVG/1.1/DTD/svg11.dtd">
<svg version="1.1" id="Layer_1" xmlns="http://www.w3.org/2000/svg" xmlns:xlink="http://www.w3.org/1999/xlink" x="0px" y="0px"
	 width="1440px" height="960px" viewBox="0 0 1440 960" enable-background="new 0 0 1440 960" xml:space="preserve">
<g id="toc-btn-tapped">
	<path fill="#FFFFFF" d="M667.411,264.339c0,1.104-0.896,2-2,2h-46c-1.104,0-2-0.896-2-2v-28.667c0-1.104,0.896-2,2-2h46
		c1.104,0,2,0.896,2,2V264.339z"/>
	<path fill="none" stroke="#347769" stroke-width="2" stroke-miterlimit="10" d="M667.411,264.339c0,1.104-0.896,2-2,2h-46
		c-1.104,0-2-0.896-2-2v-28.667c0-1.104,0.896-2,2-2h46c1.104,0,2,0.896,2,2V264.339z"/>
</g>
<g id="toc-btn-normal">
	<path fill="#347769" d="M570.855,265.006c0,1.104-0.896,2-2,2h-46c-1.104,0-2-0.896-2-2v-28.667c0-1.104,0.896-2,2-2h46
		c1.104,0,2,0.896,2,2V265.006z"/>
	<path fill="none" stroke="#FFFFFF" stroke-width="2" stroke-miterlimit="10" d="M570.855,265.006c0,1.104-0.896,2-2,2h-46
		c-1.104,0-2-0.896-2-2v-28.667c0-1.104,0.896-2,2-2h46c1.104,0,2,0.896,2,2V265.006z"/>
</g>
<g id="content-preview-board">
	<path fill="#347769" d="M879.189,23.34H614.855c-5.522,0-10,4.477-10,10v161.333c0,5.523,4.478,10,10,10h19.608l7.849,7.847
		l7.848-7.847h229.029c5.521,0,10-4.477,10-10V33.34C889.189,27.817,884.712,23.34,879.189,23.34"/>
	<path fill="#FFFFFF" d="M884.189,190.34c0,5.522-4.479,10-10,10H619.856c-5.522,0-10-4.478-10-10V37.673c0-5.522,4.478-10,10-10
		h254.333c5.521,0,10,4.478,10,10V190.34z"/>
</g>
<g id="Shell-btn-normal">
	
		<linearGradient id="SVGID_1_" gradientUnits="userSpaceOnUse" x1="777.6377" y1="242.0298" x2="775.412" y2="316.7613" gradientTransform="matrix(1 0 0 1 0 169)">
		<stop  offset="0.5102" style="stop-color:#ECF8FE"/>
		<stop  offset="1" style="stop-color:#BBCCE6"/>
	</linearGradient>
	<path fill="url(#SVGID_1_)" d="M822.657,483.468c10.751-9.522,12.739-22.035,1.205-29.765c-0.056-0.199-0.11-0.397-0.165-0.597
		c6.197-28.521-18.314-30.148-19.99-31.699c-1.133-13.021-19.609-27.406-38.213-23.323c-8.271-11.782-27.209-13.246-34.311-2.106
		c-0.309,0.062-3.897-2.251-8.685-3.437v91.286h99.74C822.38,483.705,822.52,483.59,822.657,483.468z"/>
	<path fill="#27AAE1" d="M834.298,465.641c-0.348-5.162-3.007-9.729-7.716-13.284c4.844-25.34-13.686-30.846-19.842-32.675
		c-0.189-0.056-0.396-0.115-0.591-0.177c-1.059-5.854-4.962-11.792-10.923-16.516c-6.742-5.347-14.977-8.288-23.182-8.288
		c-1.823,0-3.642,0.148-5.428,0.442c-4.807-5.859-12.41-9.437-20.266-9.437c-6.599,0-12.311,2.494-16.021,6.918
		c-1.787-0.87-4.563-2.092-7.831-2.822v5.506c2.798,0.776,5.131,1.945,6.393,2.578c1.021,0.511,1.531,0.77,2.277,0.77
		c0.001,0,0.002,0,0.003,0l0.282-0.001l1.376-0.28l0.609-0.958c2.574-4.04,7.28-6.356,12.912-6.356
		c6.746,0,13.24,3.281,16.948,8.562l1.023,1.458l1.741-0.382c1.945-0.429,3.959-0.646,5.979-0.646
		c15.021,0,28.143,11.81,28.994,21.585l0.089,1.03l0.76,0.702c0.723,0.667,1.646,0.94,3.325,1.439
		c6.675,1.983,20.564,6.111,15.867,27.728l-0.141,0.643l0.598,2.188l0.833,0.559c4.104,2.75,6.318,6.141,6.585,10.075
		c0.336,4.983-2.607,10.619-8.075,15.463c-0.909,0.808-1.821,1.592-2.736,2.361h8.024
		C831.834,478.173,834.712,471.787,834.298,465.641z"/>
	<polygon fill="#00A79D" points="729.53,408.835 728.479,408.643 722.501,441.33 722.501,447.28 	"/>
	<polygon fill="#00A79D" points="759.314,412.977 758.32,412.582 729.96,483.826 731.111,483.826 	"/>
	<polygon fill="#00A79D" points="795.783,432.601 794.965,431.911 751.115,483.826 752.518,483.826 	"/>
	<polygon fill="#00A79D" points="810.343,460.112 809.706,459.251 776.438,483.826 778.241,483.826 	"/>
	<g>
		<circle fill="#FFFFFF" stroke="#000000" stroke-width="1.0706" stroke-miterlimit="10" cx="742.621" cy="435.965" r="16.862"/>
		<circle cx="743.976" cy="428.517" r="9.903"/>
		<circle fill="#FFFFFF" cx="745.485" cy="424.021" r="4.282"/>
	</g>
	<g>
		<circle fill="#FFFFFF" stroke="#000000" stroke-width="1.0706" stroke-miterlimit="10" cx="790.778" cy="453.628" r="16.861"/>
		<circle cx="792.654" cy="446.293" r="9.903"/>
		<circle fill="#FFFFFF" cx="794.477" cy="441.916" r="4.282"/>
	</g>
	<rect x="722.501" y="379.159" fill="none" width="137" height="104.667"/>
</g>
<g id="Shell-btn-Tab_state">
	
		<linearGradient id="SVGID_2_" gradientUnits="userSpaceOnUse" x1="793.791" y1="380.7051" x2="790.9135" y2="477.3269" gradientTransform="matrix(1 0 0 1 0 169)">
		<stop  offset="0.5102" style="stop-color:#ECF8FE"/>
		<stop  offset="1" style="stop-color:#BBCCE6"/>
	</linearGradient>
	<path fill="url(#SVGID_2_)" d="M851.995,643.363c13.898-12.314,16.472-28.49,1.558-38.483c-0.067-0.258-0.143-0.515-0.213-0.771
		c8.013-36.873-23.68-38.979-25.846-40.985c-1.465-16.832-25.354-35.434-49.406-30.154c-10.694-15.232-35.18-17.127-44.357-2.724
		c-0.398,0.08-5.043-2.911-11.229-4.443v118.024h128.956C851.637,643.67,851.817,643.521,851.995,643.363z"/>
	<path fill="#27AAE1" d="M867.046,620.312c-0.45-6.675-3.888-12.577-9.977-17.178c6.263-32.76-17.692-39.878-25.653-42.244
		c-0.245-0.071-0.509-0.149-0.765-0.229c-1.366-7.572-6.415-15.246-14.119-21.354c-8.72-6.908-19.364-10.716-29.975-10.716
		c-2.355,0-4.708,0.191-7.018,0.572c-6.212-7.576-16.045-12.201-26.199-12.201c-8.531,0-15.916,3.225-20.717,8.944
		c-2.311-1.125-5.9-2.704-10.125-3.648v7.118c3.617,1.005,6.634,2.516,8.265,3.333c1.318,0.662,1.98,0.994,2.945,0.994
		c0.001,0,0.002,0,0.003,0l0.365-0.001l1.779-0.362l0.788-1.239c3.328-5.222,9.413-8.218,16.694-8.218
		c8.724,0,17.119,4.24,21.913,11.069l1.323,1.886l2.251-0.493c2.518-0.552,5.119-0.832,7.729-0.832
		c19.422,0,36.389,15.268,37.487,27.906l0.115,1.333l0.98,0.906c0.934,0.864,2.127,1.219,4.3,1.864
		c8.631,2.562,26.589,7.899,20.517,35.847l-0.181,0.831l0.771,2.828l1.077,0.723c5.307,3.555,8.17,7.938,8.514,13.026
		c0.436,6.439-3.371,13.729-10.439,19.992c-1.176,1.041-2.354,2.058-3.537,3.053h10.375
		C863.859,636.519,867.581,628.261,867.046,620.312z"/>
	<polygon fill="#00A79D" points="731.589,546.87 730.229,546.62 722.501,588.882 722.501,596.574 	"/>
	<polygon fill="#00A79D" points="770.098,552.224 768.812,551.713 732.145,643.826 733.634,643.826 	"/>
	<polygon fill="#00A79D" points="817.249,577.597 816.191,576.703 759.497,643.826 761.311,643.826 	"/>
	<polygon fill="#00A79D" points="836.073,613.166 835.25,612.053 792.238,643.826 794.568,643.826 	"/>
	<g>
		<circle fill="#FFFFFF" stroke="#000000" stroke-width="1.0706" stroke-miterlimit="10" cx="748.515" cy="581.945" r="21.801"/>
		<circle cx="750.266" cy="572.315" r="12.803"/>
		<path fill="#FFFFFF" d="M752.429,560.971c3.058,0.115,5.438,2.688,5.322,5.742c-0.115,3.057-2.688,5.439-5.744,5.323
			c-3.053-0.116-5.438-2.688-5.321-5.743C746.802,563.235,749.373,560.854,752.429,560.971z"/>
	</g>
	<g>
		<circle fill="#FFFFFF" stroke="#000000" stroke-width="1.0706" stroke-miterlimit="10" cx="810.778" cy="604.783" r="21.8"/>
		<circle cx="813.204" cy="595.299" r="12.804"/>
		<circle fill="#FFFFFF" cx="815.56" cy="589.64" r="5.536"/>
	</g>
	<rect x="722.501" y="508.5" fill="none" width="177.13" height="135.326"/>
</g>
<g id="menu_bar">
	<g>
		<g>
			<g>
				<defs>
					<rect id="SVGID_3_" x="72" y="745.492" width="964.5" height="88.084"/>
				</defs>
				<clipPath id="SVGID_4_">
					<use xlink:href="#SVGID_3_"  overflow="visible"/>
				</clipPath>
				
					<linearGradient id="SVGID_5_" gradientUnits="userSpaceOnUse" x1="825.2412" y1="943.5488" x2="826.2412" y2="943.5488" gradientTransform="matrix(0 67.5166 67.5166 0 -63150.9883 -54954.0703)">
					<stop  offset="0" style="stop-color:#83CEBF"/>
					<stop  offset="0.0152" style="stop-color:#83CEBF"/>
					<stop  offset="0.2917" style="stop-color:#57B2A0"/>
					<stop  offset="0.3443" style="stop-color:#56AE9C"/>
					<stop  offset="0.9137" style="stop-color:#357769"/>
					<stop  offset="0.9947" style="stop-color:#357769"/>
					<stop  offset="1" style="stop-color:#357769"/>
				</linearGradient>
				<rect x="72" y="745.492" clip-path="url(#SVGID_4_)" fill="url(#SVGID_5_)" width="964.5" height="88.084"/>
			</g>
		</g>
	</g>
	<line fill="none" stroke="#095E43" stroke-width="2" stroke-miterlimit="10" x1="72" y1="745.493" x2="1036.5" y2="745.493"/>
	<line fill="none" stroke="#C8E8E3" stroke-width="2" stroke-miterlimit="10" x1="72" y1="746.66" x2="1036.5" y2="746.66"/>
</g>
<g id="btn-bar">
	<g>
		<g>
			<g>
				<defs>
					<rect id="SVGID_6_" x="495.673" y="713.985" width="210.72" height="150.72"/>
				</defs>
				<clipPath id="SVGID_7_">
					<use xlink:href="#SVGID_6_"  overflow="visible"/>
				</clipPath>
				<g transform="matrix(1 0 0 1 3.051758e-05 0)" clip-path="url(#SVGID_7_)">
				</g>
			</g>
		</g>
	</g>
	<g>
		<g>
			<g>
				<defs>
					<path id="SVGID_8_" d="M535.24,749.985c-1.972,0-3.567,1.597-3.567,3.565v71.364c0,1.97,1.597,3.569,3.567,3.569h131.363
						c1.972,0,3.567-1.602,3.567-3.569v-71.364c0-1.971-1.598-3.565-3.567-3.565H535.24z"/>
				</defs>
				<clipPath id="SVGID_9_">
					<use xlink:href="#SVGID_8_"  overflow="visible"/>
				</clipPath>
				
					<linearGradient id="SVGID_10_" gradientUnits="userSpaceOnUse" x1="827.6777" y1="955.5176" x2="828.6766" y2="955.5176" gradientTransform="matrix(0 193.5315 193.5315 0 -184321.6094 -159465.0625)">
					<stop  offset="0" style="stop-color:#8CD1C8"/>
					<stop  offset="0.2194" style="stop-color:#8CD1C8"/>
					<stop  offset="0.8608" style="stop-color:#357769"/>
					<stop  offset="1" style="stop-color:#357769"/>
				</linearGradient>
				<rect x="531.673" y="749.985" clip-path="url(#SVGID_9_)" fill="url(#SVGID_10_)" width="138.499" height="78.501"/>
			</g>
		</g>
	</g>
	<path fill="none" stroke="#CBCCCE" stroke-miterlimit="10" d="M670.172,824.917c0,1.971-1.598,3.568-3.568,3.568H535.24
		c-1.972,0-3.568-1.6-3.568-3.568v-71.364c0-1.97,1.598-3.565,3.568-3.565h131.363c1.972,0,3.567,1.598,3.567,3.565L670.172,824.917
		L670.172,824.917z"/>
</g>
<g id="replay-btn-small-tapped">
	
		<linearGradient id="SVGID_11_" gradientUnits="userSpaceOnUse" x1="489.7988" y1="466.0815" x2="489.7988" y2="378.5444" gradientTransform="matrix(1 0 0 1 0 169)">
		<stop  offset="0" style="stop-color:#57B399"/>
		<stop  offset="0.0082" style="stop-color:#57B399"/>
		<stop  offset="1" style="stop-color:#9DD1C7"/>
	</linearGradient>
	<path fill="url(#SVGID_11_)" d="M448.729,547.545c-8.383,0-15.18,6.795-15.18,15.18v57.18c0,8.383,6.797,15.178,15.18,15.178
		h82.142c8.383,0,15.179-6.795,15.179-15.178v-57.18c0-8.385-6.796-15.18-15.179-15.18H448.729z"/>
	
		<linearGradient id="SVGID_12_" gradientUnits="userSpaceOnUse" x1="462.2793" y1="420.6338" x2="521.0703" y2="420.6338" gradientTransform="matrix(1 0 0 1 0 169)">
		<stop  offset="0" style="stop-color:#11AE7C"/>
		<stop  offset="1" style="stop-color:#008760"/>
	</linearGradient>
	<path fill="url(#SVGID_12_)" d="M493.004,557.559l-19.016,9.595c0,0-0.664,0.164-0.664,0.454c0,0.292,0.54,0.455,0.54,0.455
		l20.218,12.206l0.831-0.249l-1.086-7.188c9.9,1.074,17.612,9.457,17.612,19.645c0,10.916-8.851,19.766-19.766,19.766
		c-10.914,0-19.763-8.85-19.763-19.766c0-1.344,0.137-2.654,0.396-3.924c1.6-9.191-7.205-10.354-9.184-3.036
		c-0.545,2.231-0.844,4.562-0.844,6.96c0,16.234,13.16,29.396,29.395,29.396c16.235,0,29.396-13.16,29.396-29.396
		c0-15.209-11.553-27.719-26.359-29.235l0.95-5.847L493.004,557.559z"/>
	<path fill="#4DBBA5" d="M492.941,613.877c10.901,0,19.74-8.838,19.74-19.74c0-3.812-1.084-7.373-2.956-10.389
		c1.331,2.658,2.085,5.656,2.085,8.83c0,10.916-8.849,19.764-19.763,19.764c-6.946,0-13.05-3.586-16.574-9.006
		C478.782,609.604,485.361,613.877,492.941,613.877"/>
	
		<linearGradient id="SVGID_13_" gradientUnits="userSpaceOnUse" x1="494.6748" y1="400.207" x2="515.4551" y2="400.207" gradientTransform="matrix(1 0 0 1 0 169)">
		<stop  offset="0" style="stop-color:#7ECDC1"/>
		<stop  offset="1" style="stop-color:#10AE7C"/>
	</linearGradient>
	<path fill="url(#SVGID_13_)" d="M494.675,564.75c5.989,0.264,12.72,5.015,17.178,8.379c1.805,1.358,1.703,1.658,3.603,1.996
		c-4.783-6.505-12.284-10.963-20.748-11.836C494.706,563.787,494.685,564.211,494.675,564.75"/>
	<path fill="#7FCDC1" d="M464.604,593.762c0-2.605,0.352-5.133,0.995-7.537c0.656-2.303,1.964-4.605,3.365-5.135
		c-3.985,0-5.17,3.486-5.342,4.467c-0.545,2.232-0.844,4.562-0.844,6.961c0,11.311,6.39,21.119,15.754,26.035
		C470.181,613.457,464.604,604.262,464.604,593.762"/>
	<path fill="#7FCDC1" d="M473.324,567.605c0,0,0.623,0.746,1.495,0.496c0.871-0.246,19.989-9.775,20.551-10.273
		c0.561-0.498-1.556-0.312-2.491,0C491.946,558.139,474.321,566.795,473.324,567.605"/>
	
		<linearGradient id="SVGID_14_" gradientUnits="userSpaceOnUse" x1="481.5215" y1="428.582" x2="521.4258" y2="428.582" gradientTransform="matrix(1 0 0 1 0 169)">
		<stop  offset="0" style="stop-color:#1E735C"/>
		<stop  offset="1" style="stop-color:#11AE7C"/>
	</linearGradient>
	<path fill="url(#SVGID_14_)" d="M512.434,574.082c4.201,4.998,6.997,11.688,6.997,18.725c0,15.879-13.212,28.648-29.089,28.648
		c-3.078,0-6.041-0.49-8.82-1.387c3.229,1.215,6.729,1.886,10.385,1.886c16.304,0,29.52-13.218,29.52-29.521
		c0-7.409-3.049-14.04-7.559-19.223C513.271,573.615,513.053,573.719,512.434,574.082"/>
</g>
<g id="replay-btn-small-normal">
	<path fill="#408B7D" d="M546.049,458.695c0,8.385-6.797,15.18-15.18,15.18h-82.141c-8.384,0-15.181-6.795-15.181-15.18V401.52
		c0-8.385,6.797-15.181,15.181-15.181h82.141c8.383,0,15.18,6.796,15.18,15.181V458.695z"/>
	<path fill="#8BC1B8" d="M546.049,457.035c0,8.383-6.797,15.181-15.18,15.181h-82.141c-8.384,0-15.181-6.798-15.181-15.181v-57.178
		c0-8.385,6.797-15.182,15.181-15.182h82.141c8.383,0,15.18,6.795,15.18,15.182V457.035z"/>
	<path fill="#9DD1C7" d="M546.049,399.857c0-8.385-6.797-15.183-15.18-15.183h-82.141c-8.384,0-15.181,6.796-15.181,15.183v28.968
		h112.5L546.049,399.857L546.049,399.857z"/>
	<line fill="none" x1="546.049" y1="428.824" x2="433.549" y2="428.824"/>
	
		<linearGradient id="SVGID_15_" gradientUnits="userSpaceOnUse" x1="462.7783" y1="258.0068" x2="521.5684" y2="258.0068" gradientTransform="matrix(1 0 0 1 0 169)">
		<stop  offset="0" style="stop-color:#11AE7C"/>
		<stop  offset="1" style="stop-color:#008760"/>
	</linearGradient>
	<path fill="url(#SVGID_15_)" d="M493.502,394.934l-19.015,9.59c0,0-0.665,0.166-0.665,0.457s0.54,0.455,0.54,0.455l20.22,12.205
		l0.83-0.248l-1.087-7.188c9.9,1.071,17.609,9.457,17.609,19.644c0,10.914-8.847,19.764-19.763,19.764
		c-10.914,0-19.762-8.85-19.762-19.764c0-1.346,0.137-2.654,0.394-3.925c1.6-9.192-7.204-10.356-9.183-3.036
		c-0.545,2.233-0.843,4.562-0.843,6.961c0,16.233,13.16,29.396,29.394,29.396c16.235,0,29.396-13.162,29.396-29.396
		c0-15.211-11.552-27.721-26.359-29.238l0.951-5.844L493.502,394.934z"/>
	<path fill="#4DBBA5" d="M493.439,451.252c10.902,0,19.74-8.838,19.74-19.741c0-3.812-1.083-7.37-2.954-10.388
		c1.329,2.656,2.083,5.654,2.083,8.83c0,10.914-8.848,19.764-19.763,19.764c-6.945,0-13.05-3.588-16.574-9.006
		C479.282,446.98,485.86,451.252,493.439,451.252"/>
	
		<linearGradient id="SVGID_16_" gradientUnits="userSpaceOnUse" x1="495.1729" y1="237.5825" x2="515.9531" y2="237.5825" gradientTransform="matrix(1 0 0 1 0 169)">
		<stop  offset="0" style="stop-color:#7ECDC1"/>
		<stop  offset="1" style="stop-color:#10AE7C"/>
	</linearGradient>
	<path fill="url(#SVGID_16_)" d="M495.173,402.125c5.989,0.264,12.721,5.016,17.179,8.378c1.803,1.358,1.702,1.658,3.602,1.999
		c-4.784-6.508-12.284-10.966-20.747-11.839C495.205,401.161,495.184,401.586,495.173,402.125"/>
	<path fill="#7FCDC1" d="M465.103,431.137c0-2.604,0.351-5.135,0.994-7.539c0.656-2.301,1.964-4.604,3.365-5.135
		c-3.985,0-5.169,3.488-5.341,4.469c-0.545,2.23-0.845,4.562-0.845,6.959c0,11.312,6.39,21.121,15.755,26.037
		C470.679,450.831,465.103,441.637,465.103,431.137"/>
	<path fill="#7FCDC1" d="M473.821,404.98c0,0,0.624,0.744,1.495,0.496c0.872-0.25,19.989-9.776,20.552-10.273
		c0.56-0.499-1.559-0.312-2.491,0S474.818,404.171,473.821,404.98"/>
	
		<linearGradient id="SVGID_17_" gradientUnits="userSpaceOnUse" x1="482.0176" y1="265.9565" x2="521.9238" y2="265.9565" gradientTransform="matrix(1 0 0 1 0 169)">
		<stop  offset="0" style="stop-color:#1E735C"/>
		<stop  offset="1" style="stop-color:#11AE7C"/>
	</linearGradient>
	<path fill="url(#SVGID_17_)" d="M512.932,411.458c4.201,4.997,6.997,11.685,6.997,18.726c0,15.875-13.212,28.646-29.089,28.646
		c-3.078,0-6.041-0.49-8.822-1.388c3.232,1.217,6.73,1.887,10.388,1.887c16.302,0,29.519-13.217,29.519-29.521
		c0-7.408-3.048-14.039-7.558-19.224C513.77,410.989,513.553,411.092,512.932,411.458"/>
</g>
<g id="replay-btn-big-tapped">
	
		<linearGradient id="SVGID_18_" gradientUnits="userSpaceOnUse" x1="211.0474" y1="491.6338" x2="211.0474" y2="376.71" gradientTransform="matrix(1 0 0 1 0 169)">
		<stop  offset="0" style="stop-color:#57B399"/>
		<stop  offset="0.0082" style="stop-color:#57B399"/>
		<stop  offset="1" style="stop-color:#9DD1C7"/>
	</linearGradient>
	<path fill="url(#SVGID_18_)" d="M109.575,545.71c-11.006,0-19.929,8.922-19.929,19.928v75.068c0,11.006,8.923,19.928,19.929,19.928
		h202.941c11.009,0,19.932-8.922,19.932-19.928v-75.068c0-11.006-8.923-19.928-19.932-19.928H109.575z"/>
	<g>
		
			<linearGradient id="SVGID_19_" gradientUnits="userSpaceOnUse" x1="163.8818" y1="432.5581" x2="253.522" y2="432.5581" gradientTransform="matrix(1 0 0 1 0 169)">
			<stop  offset="0" style="stop-color:#11AE7C"/>
			<stop  offset="1" style="stop-color:#008760"/>
		</linearGradient>
		<path fill="url(#SVGID_19_)" d="M210.728,552.658l-28.995,14.625c0,0-1.013,0.251-1.013,0.692c0,0.444,0.823,0.696,0.823,0.696
			l30.831,18.613l1.266-0.381l-1.657-10.961c15.098,1.635,26.852,14.418,26.852,29.951c0,16.643-13.491,30.136-30.133,30.136
			s-30.133-13.493-30.133-30.136c0-2.051,0.209-4.051,0.603-5.982c2.435-14.021-10.986-15.793-14.004-4.629
			c-0.831,3.405-1.286,6.953-1.286,10.614c0,24.752,20.066,44.815,44.82,44.815c24.753,0,44.82-20.063,44.82-44.815
			c0-23.192-17.612-42.271-40.191-44.589l1.448-8.905L210.728,552.658z"/>
		<path fill="#4DBBA5" d="M210.632,638.531c16.625,0,30.102-13.477,30.102-30.104c0-5.812-1.652-11.234-4.507-15.84
			c2.029,4.053,3.178,8.625,3.178,13.465c0,16.646-13.491,30.134-30.133,30.134c-10.591,0-19.899-5.468-25.272-13.729
			C189.044,632.016,199.075,638.531,210.632,638.531"/>
		
			<linearGradient id="SVGID_20_" gradientUnits="userSpaceOnUse" x1="213.2769" y1="401.4189" x2="244.959" y2="401.4189" gradientTransform="matrix(1 0 0 1 0 169)">
			<stop  offset="0" style="stop-color:#7ECDC1"/>
			<stop  offset="1" style="stop-color:#10AE7C"/>
		</linearGradient>
		<path fill="url(#SVGID_20_)" d="M213.277,563.627c9.132,0.398,19.395,7.646,26.191,12.771c2.749,2.068,2.597,2.528,5.491,3.047
			c-7.294-9.922-18.731-16.721-31.635-18.053C213.324,562.154,213.292,562.803,213.277,563.627"/>
		<path fill="#7FCDC1" d="M167.426,607.861c0-3.979,0.533-7.828,1.516-11.494c1-3.51,2.994-7.023,5.131-7.83
			c-6.077,0-7.881,5.314-8.146,6.812c-0.83,3.402-1.287,6.953-1.287,10.611c0,17.244,9.744,32.203,24.021,39.701
			C175.927,637.891,167.426,623.869,167.426,607.861"/>
		<path fill="#7FCDC1" d="M180.72,567.979c0,0,0.951,1.141,2.28,0.76c1.329-0.379,30.482-14.908,31.336-15.668
			c0.855-0.76-2.374-0.477-3.798,0C209.113,553.545,182.24,566.742,180.72,567.979"/>
		
			<linearGradient id="SVGID_21_" gradientUnits="userSpaceOnUse" x1="193.2178" y1="444.686" x2="254.063" y2="444.686" gradientTransform="matrix(1 0 0 1 0 169)">
			<stop  offset="0" style="stop-color:#1E735C"/>
			<stop  offset="1" style="stop-color:#11AE7C"/>
		</linearGradient>
		<path fill="url(#SVGID_21_)" d="M240.355,577.854c6.405,7.621,10.667,17.818,10.667,28.555c0,24.209-20.144,43.678-44.353,43.678
			c-4.693,0-9.212-0.746-13.451-2.111c4.927,1.854,10.26,2.871,15.836,2.871c24.858,0,45.009-20.147,45.009-45.01
			c0-11.299-4.647-21.407-11.524-29.31C241.633,577.138,241.301,577.298,240.355,577.854"/>
	</g>
</g>
<g id="replay-btn-big-normal">
	<path fill="#408B7D" d="M333.613,481.162c0,11.008-8.922,19.932-19.931,19.932H110.741c-11.007,0-19.929-8.924-19.929-19.932
		v-75.064c0-11.006,8.922-19.929,19.929-19.929h202.941c11.009,0,19.931,8.923,19.931,19.929V481.162L333.613,481.162z"/>
	<path fill="#8BC1B8" d="M333.448,479.006c0,11.006-8.923,19.928-19.932,19.928H110.575c-11.006,0-19.929-8.922-19.929-19.928
		V403.94c0-11.008,8.923-19.932,19.929-19.932h202.941c11.009,0,19.932,8.922,19.932,19.932V479.006z"/>
	<path fill="#9DD1C7" d="M333.448,403.939c0-11.008-8.923-19.932-19.932-19.932H110.575c-11.006,0-19.929,8.922-19.929,19.932
		v38.028h242.802V403.939z"/>
	<line fill="none" x1="333.448" y1="441.969" x2="90.646" y2="441.969"/>
	<g>
		
			<linearGradient id="SVGID_22_" gradientUnits="userSpaceOnUse" x1="162.8818" y1="271.0576" x2="252.522" y2="271.0576" gradientTransform="matrix(1 0 0 1 0 169)">
			<stop  offset="0" style="stop-color:#11AE7C"/>
			<stop  offset="1" style="stop-color:#008760"/>
		</linearGradient>
		<path fill="url(#SVGID_22_)" d="M209.728,391.158l-28.995,14.625c0,0-1.013,0.251-1.013,0.692c0,0.444,0.823,0.696,0.823,0.696
			l30.831,18.613l1.266-0.381l-1.657-10.961c15.098,1.635,26.852,14.418,26.852,29.951c0,16.643-13.491,30.136-30.133,30.136
			s-30.133-13.493-30.133-30.136c0-2.051,0.209-4.051,0.603-5.982c2.435-14.021-10.986-15.793-14.004-4.629
			c-0.831,3.404-1.286,6.953-1.286,10.614c0,24.752,20.066,44.815,44.82,44.815c24.753,0,44.82-20.063,44.82-44.815
			c0-23.192-17.612-42.271-40.191-44.589l1.448-8.907L209.728,391.158z"/>
		<path fill="#4DBBA5" d="M209.632,477.031c16.625,0,30.102-13.477,30.102-30.104c0-5.812-1.652-11.234-4.507-15.84
			c2.029,4.053,3.178,8.625,3.178,13.465c0,16.646-13.491,30.135-30.133,30.135c-10.591,0-19.899-5.469-25.272-13.729
			C188.044,470.516,198.075,477.031,209.632,477.031"/>
		
			<linearGradient id="SVGID_23_" gradientUnits="userSpaceOnUse" x1="212.2769" y1="239.9189" x2="243.959" y2="239.9189" gradientTransform="matrix(1 0 0 1 0 169)">
			<stop  offset="0" style="stop-color:#7ECDC1"/>
			<stop  offset="1" style="stop-color:#10AE7C"/>
		</linearGradient>
		<path fill="url(#SVGID_23_)" d="M212.277,402.127c9.132,0.398,19.395,7.646,26.191,12.771c2.749,2.068,2.597,2.528,5.491,3.047
			c-7.294-9.922-18.731-16.721-31.635-18.053C212.324,400.654,212.292,401.303,212.277,402.127"/>
		<path fill="#7FCDC1" d="M166.426,446.361c0-3.979,0.533-7.828,1.516-11.494c1-3.51,2.994-7.023,5.131-7.83
			c-6.077,0-7.881,5.316-8.146,6.812c-0.83,3.402-1.287,6.953-1.287,10.611c0,17.244,9.744,32.203,24.021,39.701
			C174.927,476.391,166.426,462.369,166.426,446.361"/>
		<path fill="#7FCDC1" d="M179.72,406.479c0,0,0.951,1.141,2.28,0.76c1.329-0.379,30.482-14.908,31.336-15.668
			c0.855-0.758-2.374-0.475-3.798,0C208.113,392.045,181.24,405.242,179.72,406.479"/>
		
			<linearGradient id="SVGID_24_" gradientUnits="userSpaceOnUse" x1="192.2178" y1="283.186" x2="253.063" y2="283.186" gradientTransform="matrix(1 0 0 1 0 169)">
			<stop  offset="0" style="stop-color:#1E735C"/>
			<stop  offset="1" style="stop-color:#11AE7C"/>
		</linearGradient>
		<path fill="url(#SVGID_24_)" d="M239.355,416.354c6.405,7.621,10.667,17.818,10.667,28.555c0,24.209-20.144,43.678-44.353,43.678
			c-4.693,0-9.212-0.746-13.451-2.111c4.927,1.854,10.26,2.871,15.836,2.871c24.858,0,45.009-20.147,45.009-45.01
			c0-11.299-4.647-21.407-11.524-29.31C240.633,415.638,240.301,415.798,239.355,416.354"/>
	</g>
</g>
<g>
	<g>
		<g>
			<path id="SVGID_25_" fill="#AA8621" d="M137.543,210.242L91.06,256.725c-2.108,2.109-2.636,4.92,0.087,7.644l45.957,45.957
				c3.076,3.076,7.094,1.655,6.414-0.438c-1.79-5.509-6.599-22.446-8.598-29.524h22.657c5.825,0,10.544-4.722,10.544-10.545v-18.276
				c0-5.823-4.72-10.545-10.544-10.545h-23.012c1.44-4.909,6.764-23.102,7.37-25.834c0.52-2.331,1.038-7.048-1.047-7.048
				C140.146,208.115,139.069,208.717,137.543,210.242"/>
		</g>
		<g>
			<defs>
				<path id="SVGID_26_" d="M137.543,210.242L91.06,256.725c-2.108,2.109-2.636,4.92,0.087,7.644l45.957,45.957
					c3.076,3.076,7.094,1.655,6.414-0.438c-1.79-5.509-6.599-22.446-8.598-29.524h22.657c5.825,0,10.544-4.722,10.544-10.545
					v-18.276c0-5.823-4.72-10.545-10.544-10.545h-23.012c1.44-4.909,6.764-23.102,7.37-25.834c0.52-2.331,1.038-7.048-1.047-7.048
					C140.146,208.115,139.069,208.717,137.543,210.242"/>
			</defs>
			<clipPath id="SVGID_27_">
				<use xlink:href="#SVGID_26_"  overflow="visible"/>
			</clipPath>
			<rect x="88.424" y="208.114" clip-path="url(#SVGID_27_)" fill="#AA8621" width="79.698" height="105.287"/>
		</g>
	</g>
</g>
<path fill="#D3AA29" d="M134.38,242.402h22.583c5.447,0,9.929,3.778,9.929,10.281v18.102c0,2.987-2.636,5.711-2.636,5.711
	s0.703-2.636,0.703-5.272v-17.749c0-2.198-2.372-8.523-11.422-8.523h-22.319L134.38,242.402z"/>
<path fill="#D3AA29" d="M139.564,220.083c0,0,0.791-7.556-4.305-2.46c-5.097,5.096-41.211,41.212-43.408,43.408
	c-2.285-1.846-1.143-2.549,2.46-6.152l42.881-42.881C140.267,208.923,143.519,208.66,139.564,220.083"/>
<path fill="#7F6116" d="M134.92,280.362c0,0,8.691,28.383,8.599,30.139c-0.066,1.253-1.718,2.579-2.988-1.229
	c-1.582-4.745-7.716-24.872-8.259-26.977C131.59,279.658,134.92,280.362,134.92,280.362"/>
<path fill="#AA8621" d="M263.008,209.391c0,0,2.049-3.251,4.685-1.143c2.636,2.108,48.33,47.45,48.33,47.45s2.986,2.988-0.178,6.854
	c-3.163,3.866-46.396,46.571-48.329,48.329c-1.933,1.757-3.866,0.352-3.514-2.636c0.351-2.988,7.959-29.349,7.959-29.349
	s-14.515,0-23.012,0c-8.497,0-10.43-6.326-10.43-8.962l-0.175-20.737c0,0,1.054-9.139,10.017-9.49
	c8.962-0.352,22.67-0.527,22.67-0.527S263.008,210.709,263.008,209.391z"/>
<path fill="#D3AA29" d="M271.881,240.292h-22.583c-5.447,0-9.929,3.778-9.929,10.281v18.102c0,2.987,2.636,5.711,2.636,5.711
	s-0.704-2.636-0.704-5.271v-17.749c0-2.198,2.373-8.523,11.423-8.523h22.319L271.881,240.292z"/>
<path fill="#D3AA29" d="M266.697,217.973c0,0-0.791-7.556,4.305-2.46c5.097,5.096,41.211,41.211,43.408,43.408
	c2.285-1.846,1.143-2.549-2.46-6.152l-42.881-42.881C265.995,206.814,262.743,206.551,266.697,217.973"/>
<path fill="#7F6116" d="M271.342,278.252c0,0-8.691,28.383-8.599,30.139c0.066,1.253,1.719,2.579,2.988-1.229
	c1.582-4.745,7.716-24.872,8.26-26.977C274.672,277.549,271.342,278.252,271.342,278.252"/>
<g id="arrow-left-normal">
	<g>
		<path fill="#D3AA29" d="M134.996,117.714c0,0-2.048,3.251-4.685,1.143s-48.328-47.45-48.328-47.45s-2.988-2.988,0.176-6.854
			c3.163-3.866,46.396-46.572,48.329-48.329c1.933-1.757,3.865-0.352,3.514,2.636c-0.351,2.988-7.959,29.35-7.959,29.35
			s14.515,0,23.012,0c8.497,0,10.43,6.326,10.43,8.962l0.175,20.737c0,0-1.054,9.138-10.017,9.49s-22.67,0.527-22.67,0.527
			S134.996,116.396,134.996,117.714z"/>
		<path fill="#E2C36D" d="M125.242,50.143h22.583c5.447,0,9.929,3.778,9.929,10.281v18.102c0,2.987-2.636,5.711-2.636,5.711
			s0.703-2.636,0.703-5.272V61.214c0-2.198-2.373-8.523-11.423-8.523h-22.319L125.242,50.143z"/>
		<path fill="#E2C36D" d="M130.426,27.823c0,0,0.791-7.556-4.305-2.46c-5.097,5.096-41.212,41.211-43.408,43.408
			c-2.285-1.847-1.143-2.549,2.46-6.152l42.881-42.881C131.128,16.664,134.38,16.4,130.426,27.823"/>
		<path fill="#AA8621" d="M125.782,88.103c0,0,8.691,28.383,8.599,30.139c-0.066,1.253-1.718,2.58-2.988-1.229
			c-1.582-4.745-7.716-24.872-8.259-26.977C122.452,87.399,125.782,88.103,125.782,88.103"/>
	</g>
</g>
<g id="arrow-right-normal">
	<path fill="#D3AA29" d="M273.025,16.956c0,0,2.048-3.251,4.685-1.143c2.637,2.108,48.328,47.45,48.328,47.45
		s2.988,2.988-0.176,6.854c-3.163,3.866-46.396,46.571-48.329,48.329c-1.933,1.757-3.865,0.352-3.514-2.636
		s7.959-29.349,7.959-29.349s-14.515,0-23.012,0c-8.497,0-10.43-6.326-10.43-8.962l-0.175-20.737c0,0,1.054-9.138,10.017-9.49
		s22.67-0.527,22.67-0.527S273.025,18.274,273.025,16.956z"/>
	<path fill="#E2C36D" d="M281.723,48.737H259.14c-5.447,0-9.929,3.778-9.929,10.281V77.12c0,2.987,2.636,5.711,2.636,5.711
		s-0.703-2.636-0.703-5.272v-17.75c0-2.197,2.373-8.523,11.423-8.523h22.319L281.723,48.737z"/>
	<path fill="#E2C36D" d="M276.539,26.418c0,0-0.791-7.557,4.305-2.46c5.097,5.096,41.212,41.212,43.408,43.408
		c2.285-1.846,1.143-2.548-2.46-6.151l-42.881-42.881C275.837,15.259,272.585,14.995,276.539,26.418"/>
	<path fill="#AA8621" d="M281.184,86.697c0,0-8.691,28.383-8.599,30.139c0.066,1.252,1.719,2.579,2.988-1.229
		c1.582-4.745,7.716-24.872,8.259-26.977C284.514,85.994,281.184,86.697,281.184,86.697"/>
</g>
</svg>
